<?xml version="1.0" encoding="UTF-8"?>
<svg xmlns="http://www.w3.org/2000/svg" xmlns:xlink="http://www.w3.org/1999/xlink" width="563" height="171" overflow="hidden">
  <rect width="100%" height="100%" fill="white"/>

  <defs>
    <clipPath id="clip0">
      <rect x="30" y="481" width="563" height="171"></rect>
    </clipPath>
    <clipPath id="clip1">
      <rect x="293" y="428" width="33" height="152"></rect>
    </clipPath>
    <clipPath id="clip2">
      <rect x="262" y="428" width="32" height="152"></rect>
    </clipPath>
    <clipPath id="clip3">
      <rect x="230" y="428" width="33" height="152"></rect>
    </clipPath>
    <clipPath id="clip4">
      <rect x="199" y="428" width="32" height="152"></rect>
    </clipPath>
    <clipPath id="clip5">
      <rect x="293" y="459" width="33" height="152"></rect>
    </clipPath>
    <clipPath id="clip6">
      <rect x="262" y="459" width="32" height="152"></rect>
    </clipPath>
    <clipPath id="clip7">
      <rect x="230" y="459" width="33" height="152"></rect>
    </clipPath>
    <clipPath id="clip8">
      <rect x="199" y="459" width="32" height="152"></rect>
    </clipPath>
    <clipPath id="clip9">
      <rect x="293" y="490" width="33" height="153"></rect>
    </clipPath>
    <clipPath id="clip10">
      <rect x="262" y="490" width="32" height="153"></rect>
    </clipPath>
    <clipPath id="clip11">
      <rect x="230" y="490" width="33" height="153"></rect>
    </clipPath>
    <clipPath id="clip12">
      <rect x="199" y="490" width="32" height="153"></rect>
    </clipPath>
    <clipPath id="clip13">
      <rect x="293" y="522" width="33" height="152"></rect>
    </clipPath>
    <clipPath id="clip14">
      <rect x="262" y="522" width="32" height="152"></rect>
    </clipPath>
    <clipPath id="clip15">
      <rect x="230" y="522" width="33" height="152"></rect>
    </clipPath>
    <clipPath id="clip16">
      <rect x="199" y="522" width="32" height="152"></rect>
    </clipPath>
    <clipPath id="clip17">
      <rect x="293" y="553" width="33" height="152"></rect>
    </clipPath>
    <clipPath id="clip18">
      <rect x="262" y="553" width="32" height="152"></rect>
    </clipPath>
    <clipPath id="clip19">
      <rect x="230" y="553" width="33" height="152"></rect>
    </clipPath>
    <clipPath id="clip20">
      <rect x="199" y="553" width="32" height="152"></rect>
    </clipPath>
  </defs>
  <g clip-path="url(#clip0)" transform="translate(-30 -481)">
    <text font-family="Noto Sans JP,Noto Sans JP_MSFontService,sans-serif" font-weight="400" font-size="18" transform="translate(69.8834 510)">1</text>
    <text font-family="Noto Sans JP,Noto Sans JP_MSFontService,sans-serif" font-weight="400" font-size="18" transform="translate(41.8834 532)">＋</text>
    <text font-family="Noto Sans JP,Noto Sans JP_MSFontService,sans-serif" font-weight="400" font-size="18" transform="translate(69.8834 532)">1</text>
    <text font-family="Noto Sans JP,Noto Sans JP_MSFontService,sans-serif" font-weight="400" font-size="18" transform="translate(55.8834 562)">1 0</text>
    <path d="M42.5001 540.5 83.2445 540.5" stroke="#000000" stroke-width="0.666667" stroke-miterlimit="8" fill="none" fill-rule="evenodd"></path>
    <rect x="98.5001" y="489.5" width="29" height="22" stroke="#43A047" stroke-width="0.666667" stroke-miterlimit="8" fill="#E8F5E9"></rect>
    <path d="M98.4806 511.743 83.3052 504.488" stroke="#43A047" stroke-width="0.666667" stroke-miterlimit="8" fill="none" fill-rule="evenodd"></path>
    <text font-family="Noto Sans JP,Noto Sans JP_MSFontService,sans-serif" font-weight="400" font-size="14" transform="translate(108.506 504)">A</text>
    <rect x="98.5001" y="516.5" width="29" height="23" stroke="#43A047" stroke-width="0.666667" stroke-miterlimit="8" fill="#E8F5E9"></rect>
    <path d="M98.4806 539.754 83.3052 532.17" stroke="#43A047" stroke-width="0.666667" stroke-miterlimit="8" fill="none" fill-rule="evenodd"></path>
    <text font-family="Noto Sans JP,Noto Sans JP_MSFontService,sans-serif" font-weight="400" font-size="14" transform="translate(108.172 532)">B</text>
    <rect x="98.5001" y="544.5" width="29" height="22" stroke="#43A047" stroke-width="0.666667" stroke-miterlimit="8" fill="#E8F5E9"></rect>
    <path d="M98.4806 566.743 83.3052 559.488" stroke="#43A047" stroke-width="0.666667" stroke-miterlimit="8" fill="none" fill-rule="evenodd"></path>
    <text font-family="Noto Sans JP,Noto Sans JP_MSFontService,sans-serif" font-weight="400" font-size="14" transform="translate(108.589 559)">S</text>
    <rect x="43.5001" y="575.5" width="111" height="23" stroke="#43A047" stroke-width="0.666667" stroke-miterlimit="8" fill="#E8F5E9"></rect>
    <path d="M43.9063 575.106 57.3151 564.012" stroke="#43A047" stroke-width="0.666667" stroke-miterlimit="8" fill="none" fill-rule="evenodd"></path>
    <text font-family="Noto Sans JP,Noto Sans JP_MSFontService,sans-serif" font-weight="400" font-size="14" transform="translate(51.8193 591)">C</text>
    <text font-family="Noto Sans JP,Noto Sans JP_MSFontService,sans-serif" font-weight="400" font-size="14" transform="translate(60.8193 591)">（桁上がり）</text>
    <path d="M199.548 488.583 230.918 488.583 230.918 519.783 199.548 519.783Z" fill="#E8F5E9" fill-rule="evenodd"></path>
    <path d="M230.918 488.583 262.288 488.583 262.288 519.783 230.918 519.783Z" fill="#E8F5E9" fill-rule="evenodd"></path>
    <path d="M262.288 488.583 293.658 488.583 293.658 519.783 262.288 519.783Z" fill="#E8F5E9" fill-rule="evenodd"></path>
    <path d="M293.658 488.583 325.028 488.583 325.028 519.783 293.658 519.783Z" fill="#E8F5E9" fill-rule="evenodd"></path>
    <path d="M230.918 488.25 230.918 644.916" stroke="#000000" stroke-width="0.666667" stroke-linejoin="round" stroke-miterlimit="10" fill="none" fill-rule="evenodd"></path>
    <path d="M262.288 488.25 262.288 644.916" stroke="#000000" stroke-width="0.666667" stroke-linejoin="round" stroke-miterlimit="10" fill="none" fill-rule="evenodd"></path>
    <path d="M293.658 488.25 293.658 644.916" stroke="#000000" stroke-width="0.666667" stroke-linejoin="round" stroke-miterlimit="10" fill="none" fill-rule="evenodd"></path>
    <path d="M199.214 519.783 325.361 519.783" stroke="#000000" stroke-width="0.666667" stroke-linejoin="round" stroke-miterlimit="10" fill="none" fill-rule="evenodd"></path>
    <path d="M199.214 550.983 325.361 550.983" stroke="#000000" stroke-width="0.666667" stroke-linejoin="round" stroke-miterlimit="10" fill="none" fill-rule="evenodd"></path>
    <path d="M199.214 582.183 325.361 582.183" stroke="#000000" stroke-width="0.666667" stroke-linejoin="round" stroke-miterlimit="10" fill="none" fill-rule="evenodd"></path>
    <path d="M199.214 613.383 325.361 613.383" stroke="#000000" stroke-width="0.666667" stroke-linejoin="round" stroke-miterlimit="10" fill="none" fill-rule="evenodd"></path>
    <path d="M199.548 488.25 199.548 644.916" stroke="#000000" stroke-width="0.666667" stroke-linejoin="round" stroke-miterlimit="10" fill="none" fill-rule="evenodd"></path>
    <path d="M325.028 488.25 325.028 644.916" stroke="#000000" stroke-width="0.666667" stroke-linejoin="round" stroke-miterlimit="10" fill="none" fill-rule="evenodd"></path>
    <path d="M199.214 488.583 325.361 488.583" stroke="#000000" stroke-width="0.666667" stroke-linejoin="round" stroke-miterlimit="10" fill="none" fill-rule="evenodd"></path>
    <path d="M199.214 644.583 325.361 644.583" stroke="#000000" stroke-width="0.666667" stroke-linejoin="round" stroke-miterlimit="10" fill="none" fill-rule="evenodd"></path>
    <g clip-path="url(#clip1)">
      <text fill="#212529" font-family="Noto Sans JP,Noto Sans JP_MSFontService,sans-serif" font-weight="400" font-size="18" transform="translate(304.009 510)">S</text>
    </g>
    <g clip-path="url(#clip2)">
      <text fill="#212529" font-family="Noto Sans JP,Noto Sans JP_MSFontService,sans-serif" font-weight="400" font-size="18" transform="translate(272.223 510)">C</text>
    </g>
    <g clip-path="url(#clip3)">
      <text fill="#212529" font-family="Noto Sans JP,Noto Sans JP_MSFontService,sans-serif" font-weight="400" font-size="18" transform="translate(240.686 510)">B</text>
    </g>
    <g clip-path="url(#clip4)">
      <text fill="#212529" font-family="Noto Sans JP,Noto Sans JP_MSFontService,sans-serif" font-weight="400" font-size="18" transform="translate(209.732 510)">A</text>
    </g>
    <g clip-path="url(#clip5)">
      <text fill="#212529" font-family="Noto Sans JP,Noto Sans JP_MSFontService,sans-serif" font-weight="400" font-size="18" transform="translate(304.343 542)">0</text>
    </g>
    <g clip-path="url(#clip6)">
      <text fill="#212529" font-family="Noto Sans JP,Noto Sans JP_MSFontService,sans-serif" font-weight="400" font-size="18" transform="translate(272.973 542)">0</text>
    </g>
    <g clip-path="url(#clip7)">
      <text fill="#212529" font-family="Noto Sans JP,Noto Sans JP_MSFontService,sans-serif" font-weight="400" font-size="18" transform="translate(241.603 542)">0</text>
    </g>
    <g clip-path="url(#clip8)">
      <text fill="#212529" font-family="Noto Sans JP,Noto Sans JP_MSFontService,sans-serif" font-weight="400" font-size="18" transform="translate(210.233 542)">0</text>
    </g>
    <g clip-path="url(#clip9)">
      <text fill="#212529" font-family="Noto Sans JP,Noto Sans JP_MSFontService,sans-serif" font-weight="400" font-size="18" transform="translate(304.343 573)">1</text>
    </g>
    <g clip-path="url(#clip10)">
      <text fill="#212529" font-family="Noto Sans JP,Noto Sans JP_MSFontService,sans-serif" font-weight="400" font-size="18" transform="translate(272.973 573)">0</text>
    </g>
    <g clip-path="url(#clip11)">
      <text fill="#212529" font-family="Noto Sans JP,Noto Sans JP_MSFontService,sans-serif" font-weight="400" font-size="18" transform="translate(241.603 573)">1</text>
    </g>
    <g clip-path="url(#clip12)">
      <text fill="#212529" font-family="Noto Sans JP,Noto Sans JP_MSFontService,sans-serif" font-weight="400" font-size="18" transform="translate(210.233 573)">0</text>
    </g>
    <g clip-path="url(#clip13)">
      <text fill="#212529" font-family="Noto Sans JP,Noto Sans JP_MSFontService,sans-serif" font-weight="400" font-size="18" transform="translate(304.343 604)">1</text>
    </g>
    <g clip-path="url(#clip14)">
      <text fill="#212529" font-family="Noto Sans JP,Noto Sans JP_MSFontService,sans-serif" font-weight="400" font-size="18" transform="translate(272.973 604)">0</text>
    </g>
    <g clip-path="url(#clip15)">
      <text fill="#212529" font-family="Noto Sans JP,Noto Sans JP_MSFontService,sans-serif" font-weight="400" font-size="18" transform="translate(241.603 604)">0</text>
    </g>
    <g clip-path="url(#clip16)">
      <text fill="#212529" font-family="Noto Sans JP,Noto Sans JP_MSFontService,sans-serif" font-weight="400" font-size="18" transform="translate(210.233 604)">1</text>
    </g>
    <g clip-path="url(#clip17)">
      <text fill="#212529" font-family="Noto Sans JP,Noto Sans JP_MSFontService,sans-serif" font-weight="400" font-size="18" transform="translate(304.343 635)">0</text>
    </g>
    <g clip-path="url(#clip18)">
      <text fill="#212529" font-family="Noto Sans JP,Noto Sans JP_MSFontService,sans-serif" font-weight="400" font-size="18" transform="translate(272.973 635)">1</text>
    </g>
    <g clip-path="url(#clip19)">
      <text fill="#212529" font-family="Noto Sans JP,Noto Sans JP_MSFontService,sans-serif" font-weight="400" font-size="18" transform="translate(241.603 635)">1</text>
    </g>
    <g clip-path="url(#clip20)">
      <text fill="#212529" font-family="Noto Sans JP,Noto Sans JP_MSFontService,sans-serif" font-weight="400" font-size="18" transform="translate(210.233 635)">1</text>
    </g>
    <path d="M486.5 527.5 500.557 527.5C512.155 527.5 528.5 541.833 528.5 549 528.5 556.167 512.155 570.5 500.557 570.5L486.5 570.5C489.737 563.898 493.656 559.468 493.571 548.957 493.514 537.635 490.646 534.131 486.5 527.5Z" stroke="#000000" stroke-width="0.666667" stroke-miterlimit="8" fill="#FFFFFF" fill-rule="evenodd"></path>
    <path d="M478.5 570.5C481.704 563.898 485.583 559.468 485.499 548.957 485.443 537.635 482.604 534.131 478.5 527.5" stroke="#000000" stroke-width="0.666667" stroke-miterlimit="8" fill="none" fill-rule="evenodd"></path>
    <path d="M392.5 539.5 492.217 539.5" stroke="#000000" stroke-width="0.666667" stroke-miterlimit="8" fill="none" fill-rule="evenodd"></path>
    <path d="M455.5 559.5 491.624 559.5" stroke="#000000" stroke-width="0.666667" stroke-miterlimit="8" fill="none" fill-rule="evenodd"></path>
    <path d="M528.5 549.5 568.989 549.974" stroke="#000000" stroke-width="0.666667" stroke-miterlimit="8" fill="none" fill-rule="evenodd"></path>
    <text font-family="Noto Sans JP,Noto Sans JP_MSFontService,sans-serif" font-weight="400" font-size="18" transform="translate(374.245 549)">A</text>
    <text font-family="Noto Sans JP,Noto Sans JP_MSFontService,sans-serif" font-weight="400" font-size="18" transform="translate(570.446 555)">S</text>
    <path d="M455.833 559.5 455.833 624.563 455.167 624.563 455.167 559.5ZM459.5 624.563C459.5 626.772 457.709 628.563 455.5 628.563 453.291 628.563 451.5 626.772 451.5 624.563 451.5 622.354 453.291 620.563 455.5 620.563 457.709 620.563 459.5 622.354 459.5 624.563Z"></path>
    <path d="M435.5 602.5 484.939 602.5" stroke="#212529" stroke-width="0.666667" stroke-miterlimit="8" fill="none" fill-rule="evenodd"></path>
    <path d="M392.5 624.5 485.191 624.5" stroke="#212529" stroke-width="0.666667" stroke-miterlimit="8" fill="none" fill-rule="evenodd"></path>
    <path d="M528.5 613.5 568.739 613.722" stroke="#212529" stroke-width="0.666667" stroke-miterlimit="8" fill="none" fill-rule="evenodd"></path>
    <text font-family="Noto Sans JP,Noto Sans JP_MSFontService,sans-serif" font-weight="400" font-size="18" transform="translate(373.828 631)">B</text>
    <path d="M484.5 592.5 506.5 592.5C518.65 592.5 528.5 602.126 528.5 614 528.5 625.874 518.65 635.5 506.5 635.5L484.5 635.5Z" stroke="#212529" stroke-width="0.666667" stroke-miterlimit="8" fill="#FFFFFF" fill-rule="evenodd"></path>
    <text font-family="Noto Sans JP,Noto Sans JP_MSFontService,sans-serif" font-weight="400" font-size="18" transform="translate(569.702 619)">C</text>
    <path d="M0.333333-5.49766e-07 0.333438 63.6555-0.333228 63.6555-0.333333 5.49766e-07ZM4.0001 63.6555C4.00011 65.8647 2.20925 67.6555 0.000111584 67.6555-2.20903 67.6555-3.99989 65.8647-3.99989 63.6555-3.9999 61.4464-2.20904 59.6555 9.83897e-05 59.6555 2.20924 59.6555 4.0001 61.4464 4.0001 63.6555Z" fill="#212529" transform="matrix(1 0 0 -1 435.5 603.156)"></path>
    <rect x="413.5" y="510.5" width="126" height="140" stroke="#000000" stroke-width="0.666667" stroke-miterlimit="8" fill="none"></rect>
    <text font-family="Noto Sans JP,Noto Sans JP_MSFontService,sans-serif" font-weight="400" font-size="18" transform="translate(439.937 504)">半加算器</text>
  </g>
</svg>
