<svg width="1104" height="1122" xmlns="http://www.w3.org/2000/svg" xmlns:xlink="http://www.w3.org/1999/xlink" xml:space="preserve" overflow="hidden"><defs><filter id="fx0" x="-10%" y="-10%" width="120%" height="120%" filterUnits="userSpaceOnUse" primitiveUnits="userSpaceOnUse"><feComponentTransfer color-interpolation-filters="sRGB"><feFuncR type="discrete" tableValues="0 0"/><feFuncG type="discrete" tableValues="0 0"/><feFuncB type="discrete" tableValues="0 0"/><feFuncA type="linear" slope="0.34902" intercept="0"/></feComponentTransfer><feGaussianBlur stdDeviation="4.8119 4.8119"/></filter><filter id="fx1" x="-10%" y="-10%" width="120%" height="120%" filterUnits="userSpaceOnUse" primitiveUnits="userSpaceOnUse"><feComponentTransfer color-interpolation-filters="sRGB"><feFuncR type="discrete" tableValues="0 0"/><feFuncG type="discrete" tableValues="0 0"/><feFuncB type="discrete" tableValues="0 0"/><feFuncA type="linear" slope="0.34902" intercept="0"/></feComponentTransfer><feGaussianBlur stdDeviation="4.8119 4.8119"/></filter><filter id="fx2" x="-10%" y="-10%" width="120%" height="120%" filterUnits="userSpaceOnUse" primitiveUnits="userSpaceOnUse"><feComponentTransfer color-interpolation-filters="sRGB"><feFuncR type="discrete" tableValues="0 0"/><feFuncG type="discrete" tableValues="0 0"/><feFuncB type="discrete" tableValues="0 0"/><feFuncA type="linear" slope="0.34902" intercept="0"/></feComponentTransfer><feGaussianBlur stdDeviation="4.8119 4.8119"/></filter><filter id="fx3" x="-10%" y="-10%" width="120%" height="120%" filterUnits="userSpaceOnUse" primitiveUnits="userSpaceOnUse"><feComponentTransfer color-interpolation-filters="sRGB"><feFuncR type="discrete" tableValues="0 0"/><feFuncG type="discrete" tableValues="0 0"/><feFuncB type="discrete" tableValues="0 0"/><feFuncA type="linear" slope="0.34902" intercept="0"/></feComponentTransfer><feGaussianBlur stdDeviation="4.8119 4.8119"/></filter><filter id="fx4" x="-10%" y="-10%" width="120%" height="120%" filterUnits="userSpaceOnUse" primitiveUnits="userSpaceOnUse"><feComponentTransfer color-interpolation-filters="sRGB"><feFuncR type="discrete" tableValues="0 0"/><feFuncG type="discrete" tableValues="0 0"/><feFuncB type="discrete" tableValues="0 0"/><feFuncA type="linear" slope="0.34902" intercept="0"/></feComponentTransfer><feGaussianBlur stdDeviation="4.8119 4.8119"/></filter><filter id="fx5" x="-10%" y="-10%" width="120%" height="120%" filterUnits="userSpaceOnUse" primitiveUnits="userSpaceOnUse"><feComponentTransfer color-interpolation-filters="sRGB"><feFuncR type="discrete" tableValues="0 0"/><feFuncG type="discrete" tableValues="0 0"/><feFuncB type="discrete" tableValues="0 0"/><feFuncA type="linear" slope="0.34902" intercept="0"/></feComponentTransfer><feGaussianBlur stdDeviation="4.8119 4.8119"/></filter><filter id="fx6" x="-10%" y="-10%" width="120%" height="120%" filterUnits="userSpaceOnUse" primitiveUnits="userSpaceOnUse"><feComponentTransfer color-interpolation-filters="sRGB"><feFuncR type="discrete" tableValues="0 0"/><feFuncG type="discrete" tableValues="0 0"/><feFuncB type="discrete" tableValues="0 0"/><feFuncA type="linear" slope="0.34902" intercept="0"/></feComponentTransfer><feGaussianBlur stdDeviation="4.8119 4.8119"/></filter><filter id="fx7" x="-10%" y="-10%" width="120%" height="120%" filterUnits="userSpaceOnUse" primitiveUnits="userSpaceOnUse"><feComponentTransfer color-interpolation-filters="sRGB"><feFuncR type="discrete" tableValues="0 0"/><feFuncG type="discrete" tableValues="0 0"/><feFuncB type="discrete" tableValues="0 0"/><feFuncA type="linear" slope="0.34902" intercept="0"/></feComponentTransfer><feGaussianBlur stdDeviation="4.8119 4.8119"/></filter><filter id="fx8" x="-10%" y="-10%" width="120%" height="120%" filterUnits="userSpaceOnUse" primitiveUnits="userSpaceOnUse"><feComponentTransfer color-interpolation-filters="sRGB"><feFuncR type="discrete" tableValues="0 0"/><feFuncG type="discrete" tableValues="0 0"/><feFuncB type="discrete" tableValues="0 0"/><feFuncA type="linear" slope="0.34902" intercept="0"/></feComponentTransfer><feGaussianBlur stdDeviation="4.8119 4.8119"/></filter><filter id="fx9" x="-10%" y="-10%" width="120%" height="120%" filterUnits="userSpaceOnUse" primitiveUnits="userSpaceOnUse"><feComponentTransfer color-interpolation-filters="sRGB"><feFuncR type="discrete" tableValues="0 0"/><feFuncG type="discrete" tableValues="0 0"/><feFuncB type="discrete" tableValues="0 0"/><feFuncA type="linear" slope="0.34902" intercept="0"/></feComponentTransfer><feGaussianBlur stdDeviation="4.8119 4.8119"/></filter><filter id="fx10" x="-10%" y="-10%" width="120%" height="120%" filterUnits="userSpaceOnUse" primitiveUnits="userSpaceOnUse"><feComponentTransfer color-interpolation-filters="sRGB"><feFuncR type="discrete" tableValues="0 0"/><feFuncG type="discrete" tableValues="0 0"/><feFuncB type="discrete" tableValues="0 0"/><feFuncA type="linear" slope="0.34902" intercept="0"/></feComponentTransfer><feGaussianBlur stdDeviation="4.8119 4.8119"/></filter><filter id="fx11" x="-10%" y="-10%" width="120%" height="120%" filterUnits="userSpaceOnUse" primitiveUnits="userSpaceOnUse"><feComponentTransfer color-interpolation-filters="sRGB"><feFuncR type="discrete" tableValues="0 0"/><feFuncG type="discrete" tableValues="0 0"/><feFuncB type="discrete" tableValues="0 0"/><feFuncA type="linear" slope="0.34902" intercept="0"/></feComponentTransfer><feGaussianBlur stdDeviation="4.8119 4.8119"/></filter><filter id="fx12" x="-10%" y="-10%" width="120%" height="120%" filterUnits="userSpaceOnUse" primitiveUnits="userSpaceOnUse"><feComponentTransfer color-interpolation-filters="sRGB"><feFuncR type="discrete" tableValues="0 0"/><feFuncG type="discrete" tableValues="0 0"/><feFuncB type="discrete" tableValues="0 0"/><feFuncA type="linear" slope="0.34902" intercept="0"/></feComponentTransfer><feGaussianBlur stdDeviation="4.8119 4.8119"/></filter><filter id="fx13" x="-10%" y="-10%" width="120%" height="120%" filterUnits="userSpaceOnUse" primitiveUnits="userSpaceOnUse"><feComponentTransfer color-interpolation-filters="sRGB"><feFuncR type="discrete" tableValues="0 0"/><feFuncG type="discrete" tableValues="0 0"/><feFuncB type="discrete" tableValues="0 0"/><feFuncA type="linear" slope="0.34902" intercept="0"/></feComponentTransfer><feGaussianBlur stdDeviation="4.8119 4.8119"/></filter><clipPath id="clip14"><path d="M1300.5 1681.5 1300.5 1803.5 1560.5 1803.5 1560.5 1681.5ZM1259 731 2363 731 2363 1853 1259 1853Z" fill-rule="evenodd" clip-rule="evenodd"/></clipPath><clipPath id="clip15"><rect x="46" y="37" width="218" height="94"/></clipPath><linearGradient x1="1430.5" y1="1803.5" x2="1430.5" y2="1681.5" gradientUnits="userSpaceOnUse" spreadMethod="reflect" id="fill16"><stop offset="0"/><stop offset="0.8"/><stop offset="1"/></linearGradient><clipPath id="clip17"><path d="M1618.5 1675.5 1618.5 1797.5 1991.5 1797.5 1991.5 1675.5ZM1259 731 2363 731 2363 1853 1259 1853Z" fill-rule="evenodd" clip-rule="evenodd"/></clipPath><clipPath id="clip18"><rect x="46" y="37" width="342" height="94"/></clipPath><linearGradient x1="1805" y1="1797.5" x2="1805" y2="1675.5" gradientUnits="userSpaceOnUse" spreadMethod="reflect" id="fill19"><stop offset="0"/><stop offset="0.8"/><stop offset="1"/></linearGradient><clipPath id="clip20"><path d="M2048.5 1675.5 2048.5 1797.5 2338.5 1797.5 2338.5 1675.5ZM1259 731 2363 731 2363 1853 1259 1853Z" fill-rule="evenodd" clip-rule="evenodd"/></clipPath><clipPath id="clip21"><rect x="43" y="34" width="258" height="97"/></clipPath><linearGradient x1="2193.5" y1="1797.5" x2="2193.5" y2="1675.5" gradientUnits="userSpaceOnUse" spreadMethod="reflect" id="fill22"><stop offset="0"/><stop offset="0.8"/><stop offset="1"/></linearGradient><clipPath id="clip23"><rect x="16" y="37" width="85" height="136"/></clipPath><clipPath id="clip24"><rect x="16" y="37" width="85" height="130"/></clipPath><clipPath id="clip25"><rect x="16" y="37" width="85" height="412"/></clipPath><clipPath id="clip26"><rect x="-5" y="28" width="375" height="160"/></clipPath><clipPath id="clip27"><rect x="16" y="37" width="82" height="115"/></clipPath><clipPath id="clip28"><rect x="-5" y="31" width="375" height="161"/></clipPath><clipPath id="clip29"><rect x="16" y="37" width="85" height="715"/></clipPath><clipPath id="clip30"><rect x="16" y="37" width="82" height="115"/></clipPath></defs><g transform="translate(-1259 -731)"><text font-family="Cambria Math,Cambria Math_MSFontService,sans-serif" font-weight="400" font-size="73" transform="matrix(1 0 0 1 1303.36 1562)">𝜎</text><text font-family="Arial,Arial_MSFontService,sans-serif" font-weight="400" font-size="49" transform="matrix(1 0 0 1 1346.33 1579)">color=‘red</text><g clip-path="url(#clip14)"><g filter="url(#fx0)" transform="translate(1283 1672)"><g><rect x="17.4999" y="17.8007" width="260" height="122" stroke="#000000" stroke-width="3" stroke-linejoin="round" stroke-miterlimit="10" fill="#FF0000"/></g></g><g clip-path="url(#clip15)" filter="url(#fx1)" transform="translate(1277 1668)"><g><path d="M5.34668 0 5.34668-52.2549 24.9512-52.2549C28.9434-52.2549 32.1454-51.7262 34.5574-50.6687 36.9693-49.6112 38.8585-47.9835 40.2248-45.7854 41.5912-43.5873 42.2744-41.2882 42.2744-38.8882 42.2744-36.6545 41.6684-34.5514 40.4565-32.5791 39.2446-30.6068 37.4149-29.0146 34.9673-27.8027 38.1278-26.876 40.5575-25.2957 42.2566-23.062 43.9556-20.8283 44.8052-18.1906 44.8052-15.1489 44.8052-12.7013 44.2883-10.426 43.2546-8.323 42.2209-6.21997 40.9437-4.59814 39.4228-3.45752 37.902-2.31689 35.995-1.45548 33.7019-0.873291 31.4088-0.291097 28.5988 0 25.272 0ZM12.2617-30.2978 23.561-30.2978C26.6265-30.2978 28.8245-30.4998 30.1553-30.9038 31.9137-31.4266 33.2385-32.2939 34.1296-33.5059 35.0207-34.7178 35.4663-36.2386 35.4663-38.0684 35.4663-39.8031 35.0504-41.3298 34.2187-42.6487 33.387-43.9675 32.1989-44.8705 30.6543-45.3577 29.1097-45.8448 26.4601-46.0884 22.7056-46.0884L12.2617-46.0884ZM12.2617-6.1665 25.272-6.1665C27.5057-6.1665 29.0741-6.24967 29.977-6.41602 31.5692-6.70117 32.8999-7.17643 33.9692-7.8418 35.0386-8.50716 35.9178-9.4755 36.6069-10.7468 37.2961-12.0181 37.6406-13.4855 37.6406-15.1489 37.6406-17.0975 37.1416-18.7906 36.1436-20.2283 35.1455-21.6659 33.7613-22.6759 31.991-23.2581 30.2206-23.8402 27.672-24.1313 24.3452-24.1313L12.2617-24.1313ZM51.1217-18.9272C51.1217-25.9373 53.0703-31.1296 56.9674-34.5039 60.223-37.3079 64.1914-38.71 68.8727-38.71 74.0768-38.71 78.3304-37.005 81.6335-33.595 84.9365-30.185 86.588-25.474 86.588-19.4619 86.588-14.5905 85.8573-10.7587 84.3959-7.96655 82.9345-5.1744 80.8077-3.00602 78.0155-1.46143 75.2234 0.0831705 72.1758 0.855469 68.8727 0.855469 63.5736 0.855469 59.2903-0.843587 56.0229-4.2417 52.7554-7.63981 51.1217-12.535 51.1217-18.9272ZM57.716-18.9272C57.716-14.0796 58.7734-10.4498 60.8883-8.03784 63.0033-5.62589 65.6647-4.41992 68.8727-4.41992 72.057-4.41992 74.7065-5.63183 76.8214-8.05566 78.9363-10.4795 79.9938-14.1746 79.9938-19.1411 79.9938-23.8224 78.9304-27.3691 76.8036-29.781 74.6768-32.1929 72.0332-33.3989 68.8727-33.3989 65.6647-33.3989 63.0033-32.1989 60.8883-29.7988 58.7734-27.3988 57.716-23.7749 57.716-18.9272ZM118.889-4.66943C116.512-2.64958 114.225-1.2238 112.027-0.39209 109.829 0.439616 107.471 0.855469 104.952 0.855469 100.793 0.855469 97.597-0.1604 95.3633-2.19214 93.1296-4.22388 92.0127-6.81999 92.0127-9.98047 92.0127-11.834 92.4345-13.5271 93.2781-15.0598 94.1217-16.5925 95.2266-17.8223 96.593-18.749 97.9594-19.6758 99.498-20.3768 101.209-20.852 102.468-21.1847 104.369-21.5055 106.912-21.8145 112.092-22.4323 115.906-23.1689 118.354-24.0244 118.378-24.9036 118.39-25.4621 118.39-25.6997 118.39-28.3136 117.784-30.1553 116.572-31.2246 114.932-32.6741 112.496-33.3989 109.265-33.3989 106.247-33.3989 104.019-32.8702 102.581-31.8127 101.144-30.7553 100.08-28.8839 99.3911-26.1987L93.1177-27.0542C93.688-29.7394 94.6266-31.9078 95.9336-33.5593 97.2406-35.2109 99.1297-36.4822 101.601-37.3733 104.072-38.2644 106.936-38.71 110.191-38.71 113.423-38.71 116.049-38.3298 118.069-37.5693 120.089-36.8089 121.574-35.8525 122.524-34.6999 123.475-33.5474 124.14-32.092 124.521-30.3335 124.734-29.2404 124.841-27.2681 124.841-24.4165L124.841-15.8618C124.841-9.8973 124.978-6.12492 125.251-4.54468 125.524-2.96444 126.065-1.44954 126.873 0L120.172 0C119.507-1.33073 119.079-2.88721 118.889-4.66943ZM118.354-18.9985C116.025-18.048 112.532-17.2401 107.875-16.5747 105.237-16.1945 103.371-15.7668 102.278-15.2915 101.185-14.8162 100.342-14.1212 99.7476-13.2063 99.1535-12.2914 98.8564-11.2756 98.8564-10.1587 98.8564-8.44775 99.504-7.02197 100.799-5.88135 102.094-4.74072 103.989-4.17041 106.484-4.17041 108.956-4.17041 111.154-4.71102 113.079-5.79224 115.003-6.87345 116.417-8.3527 117.32-10.23 118.009-11.6795 118.354-13.8182 118.354-16.646ZM148.872-5.73877 149.799-0.0712891C147.993 0.308919 146.377 0.499023 144.951 0.499023 142.623 0.499023 140.817 0.130697 139.534-0.605957 138.25-1.34261 137.347-2.31095 136.825-3.51099 136.302-4.71102 136.04-7.23584 136.04-11.0854L136.04-32.8643 131.335-32.8643 131.335-37.8545 136.04-37.8545 136.04-47.229 142.421-51.0786 142.421-37.8545 148.872-37.8545 148.872-32.8643 142.421-32.8643 142.421-10.729C142.421-8.89925 142.534-7.72298 142.759-7.20019 142.985-6.67741 143.353-6.26156 143.864-5.95264 144.375-5.64372 145.106-5.48926 146.056-5.48926 146.769-5.48926 147.708-5.57243 148.872-5.73877ZM152.923-11.2993 159.267-12.2974C159.624-9.75472 160.616-7.80615 162.244-6.45166 163.871-5.09717 166.147-4.41992 169.07-4.41992 172.016-4.41992 174.202-5.01994 175.628-6.21997 177.054-7.42 177.767-8.82796 177.767-10.4438 177.767-11.8934 177.137-13.034 175.878-13.8657 174.999-14.436 172.812-15.1608 169.319-16.04 164.614-17.2282 161.353-18.2559 159.535-19.1233 157.717-19.9906 156.339-21.1907 155.4-22.7234 154.461-24.2561 153.992-25.9492 153.992-27.8027 153.992-29.4899 154.378-31.0523 155.15-32.49 155.923-33.9277 156.974-35.1217 158.305-36.0723 159.303-36.8089 160.663-37.4327 162.386-37.9436 164.109-38.4545 165.957-38.71 167.929-38.71 170.899-38.71 173.507-38.2822 175.753-37.4268 177.999-36.5713 179.656-35.4128 180.725-33.9514 181.795-32.49 182.531-30.5355 182.935-28.0879L176.662-27.2324C176.377-29.181 175.551-30.7018 174.185-31.7949 172.818-32.888 170.888-33.4346 168.392-33.4346 165.446-33.4346 163.343-32.9474 162.083-31.9731 160.824-30.9989 160.194-29.8582 160.194-28.5513 160.194-27.7196 160.456-26.971 160.978-26.3057 161.501-25.6165 162.321-25.0462 163.438-24.5947 164.079-24.3571 165.969-23.8105 169.105-22.9551 173.644-21.7432 176.81-20.7511 178.605-19.9788 180.399-19.2065 181.807-18.0837 182.828-16.6103 183.85-15.137 184.361-13.3073 184.361-11.1211 184.361-8.98242 183.737-6.9685 182.49-5.07935 181.242-3.19019 179.442-1.72876 177.09-0.695068 174.737 0.338623 172.076 0.855469 169.105 0.855469 164.186 0.855469 160.438-0.166341 157.859-2.20996 155.281-4.25358 153.636-7.28337 152.923-11.2993Z" fill="#FFFFFF" transform="matrix(1 0 0 1 59.7144 109)"/></g></g></g><rect x="1300.5" y="1681.5" width="260" height="122" stroke="#000000" stroke-width="3.4375" stroke-linejoin="round" stroke-miterlimit="10" fill="url(#fill16)"/><text fill="#FFFFFF" font-family="Arial,Arial_MSFontService,sans-serif" font-weight="400" font-size="73" transform="matrix(1 0 0 1 1336.71 1769)">Boats</text><text font-family="Cambria Math,Cambria Math_MSFontService,sans-serif" font-weight="400" font-size="73" transform="matrix(1 0 0 1 1388.97 1415)">𝜋</text><text font-family="Arial,Arial_MSFontService,sans-serif" font-weight="400" font-size="49" transform="matrix(1 0 0 1 1432.51 1432)">bid</text><g clip-path="url(#clip17)"><g filter="url(#fx2)" transform="translate(1601 1666)"><g><rect x="17.4999" y="17.8004" width="373" height="122" stroke="#000000" stroke-width="3" stroke-linejoin="round" stroke-miterlimit="10" fill="#FF0000"/></g></g><g clip-path="url(#clip18)" filter="url(#fx3)" transform="translate(1590 1662)"><g><path d="M5.73877 0 5.73877-52.2549 28.9077-52.2549C33.5653-52.2549 37.1059-51.7856 39.5298-50.8469 41.9536-49.9083 43.8903-48.2508 45.3398-45.8745 46.7894-43.4982 47.5142-40.8724 47.5142-37.9971 47.5142-34.29 46.3141-31.1652 43.9141-28.6226 41.514-26.0799 37.807-24.464 32.793-23.7749 34.6227-22.8957 36.0129-22.0283 36.9634-21.1728 38.9832-19.3193 40.8962-17.0024 42.7021-14.2222L51.7915 0 43.0942 0 36.1792-10.8716C34.1593-14.0083 32.4959-16.4084 31.189-18.0718 29.882-19.7352 28.7117-20.8996 27.678-21.5649 26.6443-22.2303 25.5928-22.6937 24.5234-22.9551 23.7393-23.1214 22.4561-23.2046 20.6738-23.2046L12.6538-23.2046 12.6538 0ZM12.6538-29.1929 27.5176-29.1929C30.6781-29.1929 33.1494-29.5196 34.9316-30.1731 36.7139-30.8266 38.0684-31.8721 38.9951-33.3098 39.9219-34.7475 40.3852-36.3099 40.3853-37.9971 40.3852-40.4684 39.4882-42.5002 37.6941-44.0923 35.9-45.6844 33.0662-46.4805 29.1929-46.4805L12.6538-46.4805ZM83.4339-12.1904 90.0638-11.3706C89.0182-7.49723 87.0815-4.49121 84.2537-2.35254 81.4259-0.213867 77.814 0.855469 73.4178 0.855469 67.881 0.855469 63.4908-0.849528 60.2472-4.25952 57.0035-7.66951 55.3817-12.4518 55.3817-18.6064 55.3817-24.9749 57.0213-29.9176 60.3006-33.4346 63.5799-36.9515 67.8335-38.71 73.0614-38.71 78.1229-38.71 82.2576-36.9871 85.4657-33.5415 88.6737-30.0959 90.2777-25.2482 90.2777-18.9985 90.2777-18.6183 90.2658-18.048 90.242-17.2876L62.0116-17.2876C62.2492-13.1291 63.4254-9.94482 65.5404-7.73486 67.6553-5.5249 70.293-4.41992 73.4534-4.41992 75.806-4.41992 77.814-5.03776 79.4774-6.27344 81.1408-7.50911 82.4596-9.48144 83.4339-12.1904ZM62.368-22.563 83.5052-22.563C83.22-25.7472 82.4121-28.1354 81.0814-29.7275 79.0378-32.1989 76.3882-33.4346 73.1326-33.4346 70.186-33.4346 67.7087-32.4484 65.7008-30.4761 63.6928-28.5037 62.5819-25.866 62.368-22.563ZM95.631-11.2993 101.976-12.2974C102.332-9.75472 103.324-7.80615 104.952-6.45166 106.58-5.09717 108.855-4.41992 111.778-4.41992 114.725-4.41992 116.911-5.01994 118.337-6.21997 119.762-7.42 120.475-8.82796 120.475-10.4438 120.475-11.8934 119.846-13.034 118.586-13.8657 117.707-14.436 115.521-15.1608 112.028-16.04 107.322-17.2282 104.061-18.2559 102.243-19.1233 100.425-19.9906 99.047-21.1907 98.1083-22.7234 97.1697-24.2561 96.7003-25.9492 96.7004-27.8027 96.7003-29.4899 97.0865-31.0523 97.8588-32.49 98.6311-33.9277 99.6826-35.1217 101.013-36.0723 102.011-36.8089 103.372-37.4327 105.095-37.9436 106.817-38.4545 108.665-38.71 110.637-38.71 113.608-38.71 116.216-38.2822 118.461-37.4268 120.707-36.5713 122.364-35.4128 123.434-33.9514 124.503-32.49 125.24-30.5355 125.644-28.0879L119.37-27.2324C119.085-29.181 118.259-30.7018 116.893-31.7949 115.527-32.888 113.596-33.4346 111.101-33.4346 108.154-33.4346 106.051-32.9474 104.792-31.9731 103.532-30.9989 102.902-29.8582 102.903-28.5513 102.902-27.7196 103.164-26.971 103.687-26.3057 104.209-25.6165 105.029-25.0462 106.146-24.5947 106.788-24.3571 108.677-23.8105 111.814-22.9551 116.352-21.7432 119.519-20.7511 121.313-19.9788 123.107-19.2065 124.515-18.0837 125.537-16.6103 126.559-15.137 127.069-13.3073 127.069-11.1211 127.069-8.98242 126.446-6.9685 125.198-5.07935 123.951-3.19019 122.151-1.72876 119.798-0.695068 117.445 0.338623 114.784 0.855469 111.814 0.855469 106.895 0.855469 103.146-0.166341 100.568-2.20996 97.9895-4.25358 96.3439-7.28337 95.631-11.2993ZM160.778-12.1904 167.408-11.3706C166.362-7.49723 164.425-4.49121 161.597-2.35254 158.77-0.213867 155.158 0.855469 150.762 0.855469 145.225 0.855469 140.835-0.849528 137.591-4.25952 134.347-7.66951 132.725-12.4518 132.725-18.6064 132.725-24.9749 134.365-29.9176 137.644-33.4346 140.924-36.9515 145.177-38.71 150.405-38.71 155.467-38.71 159.601-36.9871 162.809-33.5415 166.017-30.0959 167.621-25.2482 167.621-18.9985 167.621-18.6183 167.61-18.048 167.586-17.2876L139.355-17.2876C139.593-13.1291 140.769-9.94482 142.884-7.73486 144.999-5.5249 147.637-4.41992 150.797-4.41992 153.15-4.41992 155.158-5.03776 156.821-6.27344 158.485-7.50911 159.803-9.48144 160.778-12.1904ZM139.712-22.563 160.849-22.563C160.564-25.7472 159.756-28.1354 158.425-29.7275 156.382-32.1989 153.732-33.4346 150.476-33.4346 147.53-33.4346 145.052-32.4484 143.045-30.4761 141.037-28.5037 139.926-25.866 139.712-22.563ZM175.47 0 175.47-37.8545 181.244-37.8545 181.244-32.1157C182.718-34.8009 184.078-36.5713 185.326-37.4268 186.573-38.2822 187.945-38.71 189.443-38.71 191.605-38.71 193.803-38.0208 196.037-36.6426L193.827-30.6899C192.258-31.6167 190.69-32.0801 189.122-32.0801 187.72-32.0801 186.46-31.6583 185.343-30.8147 184.227-29.9711 183.43-28.8008 182.955-27.3037 182.242-25.0225 181.886-22.5273 181.886-19.8184L181.886 0ZM210.692 0 196.291-37.8545 203.064-37.8545 211.191-15.1846C212.07-12.737 212.878-10.1943 213.615-7.55664 214.185-9.55273 214.981-11.9528 216.003-14.7568L224.415-37.8545 231.009-37.8545 216.68 0ZM262.757-12.1904 269.387-11.3706C268.341-7.49723 266.404-4.49121 263.577-2.35254 260.749-0.213867 257.137 0.855469 252.741 0.855469 247.204 0.855469 242.814-0.849528 239.57-4.25952 236.326-7.66951 234.705-12.4518 234.705-18.6064 234.705-24.9749 236.344-29.9176 239.624-33.4346 242.903-36.9515 247.156-38.71 252.384-38.71 257.446-38.71 261.581-36.9871 264.789-33.5415 267.997-30.0959 269.601-25.2482 269.601-18.9985 269.601-18.6183 269.589-18.048 269.565-17.2876L241.334-17.2876C241.572-13.1291 242.748-9.94482 244.863-7.73486 246.978-5.5249 249.616-4.41992 252.776-4.41992 255.129-4.41992 257.137-5.03776 258.8-6.27344 260.464-7.50911 261.783-9.48144 262.757-12.1904ZM241.691-22.563 262.828-22.563C262.543-25.7472 261.735-28.1354 260.404-29.7275 258.361-32.1989 255.711-33.4346 252.456-33.4346 249.509-33.4346 247.032-32.4484 245.024-30.4761 243.016-28.5037 241.905-25.866 241.691-22.563ZM274.954-11.2993 281.299-12.2974C281.655-9.75472 282.647-7.80615 284.275-6.45166 285.903-5.09717 288.178-4.41992 291.101-4.41992 294.048-4.41992 296.234-5.01994 297.66-6.21997 299.085-7.42 299.798-8.82796 299.798-10.4438 299.798-11.8934 299.168-13.034 297.909-13.8657 297.03-14.436 294.844-15.1608 291.35-16.04 286.645-17.2282 283.384-18.2559 281.566-19.1233 279.748-19.9906 278.37-21.1907 277.431-22.7234 276.493-24.2561 276.023-25.9492 276.023-27.8027 276.023-29.4899 276.409-31.0523 277.182-32.49 277.954-33.9277 279.006-35.1217 280.336-36.0723 281.334-36.8089 282.695-37.4327 284.418-37.9436 286.14-38.4545 287.988-38.71 289.96-38.71 292.931-38.71 295.539-38.2822 297.784-37.4268 300.03-36.5713 301.687-35.4128 302.757-33.9514 303.826-32.49 304.563-30.5355 304.967-28.0879L298.693-27.2324C298.408-29.181 297.582-30.7018 296.216-31.7949 294.85-32.888 292.919-33.4346 290.424-33.4346 287.477-33.4346 285.374-32.9474 284.115-31.9731 282.855-30.9989 282.225-29.8582 282.225-28.5513 282.225-27.7196 282.487-26.971 283.01-26.3057 283.532-25.6165 284.352-25.0462 285.469-24.5947 286.111-24.3571 288-23.8105 291.137-22.9551 295.675-21.7432 298.842-20.7511 300.636-19.9788 302.43-19.2065 303.838-18.0837 304.86-16.6103 305.882-15.137 306.392-13.3073 306.392-11.1211 306.392-8.98242 305.769-6.9685 304.521-5.07935 303.274-3.19019 301.473-1.72876 299.121-0.695068 296.768 0.338623 294.107 0.855469 291.137 0.855469 286.218 0.855469 282.469-0.166341 279.891-2.20996 277.312-4.25358 275.667-7.28337 274.954-11.2993Z" fill="#FFFFFF" transform="matrix(1 0 0 1 59.7172 109)"/></g></g></g><rect x="1618.5" y="1675.5" width="373" height="122" stroke="#000000" stroke-width="3.4375" stroke-linejoin="round" stroke-miterlimit="10" fill="url(#fill19)"/><text fill="#FFFFFF" font-family="Arial,Arial_MSFontService,sans-serif" font-weight="400" font-size="73" transform="matrix(1 0 0 1 1649.72 1762)">Reserves</text><g clip-path="url(#clip20)"><g filter="url(#fx4)" transform="translate(2031 1666)"><g><rect x="17.5" y="17.8004" width="290" height="122" stroke="#000000" stroke-width="3" stroke-linejoin="round" stroke-miterlimit="10" fill="#FF0000"/></g></g><g clip-path="url(#clip21)" filter="url(#fx5)" transform="translate(2021 1662)"><g><path d="M3.2793-16.7886 9.80225-17.3589C10.1112-14.745 10.83-12.6003 11.9587-10.925 13.0875-9.24975 14.84-7.89526 17.2163-6.86157 19.5926-5.82788 22.2659-5.31103 25.2363-5.31103 27.874-5.31103 30.2028-5.70312 32.2227-6.4873 34.2425-7.27148 35.7455-8.34676 36.7317-9.71313 37.7178-11.0795 38.2109-12.5706 38.2109-14.1865 38.2109-15.8262 37.7357-17.2579 36.7852-18.4817 35.8346-19.7055 34.2663-20.7332 32.0801-21.5649 30.6781-22.1115 27.577-22.961 22.7769-24.1135 17.9767-25.266 14.6143-26.3532 12.6895-27.375 10.1943-28.682 8.33488-30.3038 7.11108-32.2405 5.88729-34.1772 5.27539-36.3455 5.27539-38.7456 5.27539-41.3833 6.02392-43.8487 7.521-46.1418 9.01807-48.435 11.2043-50.1756 14.0796-51.3638 16.9549-52.5519 20.151-53.146 23.668-53.146 27.5413-53.146 30.9573-52.5222 33.9158-51.2747 36.8743-50.0271 39.1496-48.1914 40.7417-45.7676 42.3338-43.3437 43.1893-40.5991 43.3081-37.5337L36.6782-37.0347C36.3218-40.3377 35.1158-42.8328 33.0603-44.52 31.0048-46.2072 27.9691-47.0508 23.9531-47.0508 19.7708-47.0508 16.7232-46.2844 14.8103-44.7517 12.8974-43.219 11.9409-41.3714 11.9409-39.209 11.9409-37.3317 12.6182-35.7871 13.9727-34.5752 15.3034-33.3633 18.7787-32.1217 24.3987-30.8503 30.0186-29.579 33.8742-28.4681 35.9653-27.5176 39.007-26.1156 41.2526-24.3393 42.7021-22.1887 44.1517-20.0382 44.8765-17.5609 44.8765-14.7568 44.8765-11.9766 44.0804-9.35669 42.4883-6.89722 40.8962-4.43774 38.609-2.52482 35.6267-1.15845 32.6444 0.207926 29.2879 0.891113 25.5571 0.891113 20.8283 0.891113 16.8658 0.201986 13.6697-1.17627 10.4736-2.55452 7.96655-4.62785 6.14868-7.39624 4.33081-10.1646 3.37435-13.2954 3.2793-16.7886ZM78.2116-4.66943C75.8353-2.64958 73.5481-1.2238 71.35-0.39209 69.1519 0.439616 66.7935 0.855469 64.2746 0.855469 60.116 0.855469 56.9199-0.1604 54.6862-2.19214 52.4525-4.22388 51.3356-6.81999 51.3356-9.98047 51.3356-11.834 51.7574-13.5271 52.601-15.0598 53.4446-16.5925 54.5496-17.8223 55.9159-18.749 57.2823-19.6758 58.821-20.3768 60.5319-20.852 61.7913-21.1847 63.6924-21.5055 66.235-21.8145 71.4154-22.4323 75.2293-23.1689 77.6769-24.0244 77.7007-24.9036 77.7126-25.4621 77.7126-25.6997 77.7126-28.3136 77.1066-30.1553 75.8947-31.2246 74.255-32.6741 71.8193-33.3989 68.5876-33.3989 65.5697-33.3989 63.3419-32.8702 61.9042-31.8127 60.4665-30.7553 59.4032-28.8839 58.714-26.1987L52.4406-27.0542C53.0109-29.7394 53.9495-31.9078 55.2565-33.5593 56.5635-35.2109 58.4526-36.4822 60.924-37.3733 63.3953-38.2644 66.2588-38.71 69.5143-38.71 72.7461-38.71 75.3719-38.3298 77.3918-37.5693 79.4116-36.8089 80.8968-35.8525 81.8473-34.6999 82.7978-33.5474 83.4632-32.092 83.8434-30.3335 84.0573-29.2404 84.1642-27.2681 84.1642-24.4165L84.1642-15.8618C84.1642-9.8973 84.3008-6.12492 84.5741-4.54468 84.8474-2.96444 85.388-1.44954 86.196 0L79.4948 0C78.8294-1.33073 78.4017-2.88721 78.2116-4.66943ZM77.6769-18.9985C75.3481-18.048 71.855-17.2401 67.1974-16.5747 64.5597-16.1945 62.6943-15.7668 61.6012-15.2915 60.5081-14.8162 59.6645-14.1212 59.0705-13.2063 58.4764-12.2914 58.1794-11.2756 58.1794-10.1587 58.1794-8.44775 58.8269-7.02197 60.122-5.88135 61.4171-4.74072 63.3122-4.17041 65.8073-4.17041 68.2786-4.17041 70.4767-4.71102 72.4015-5.79224 74.3263-6.87345 75.7402-8.3527 76.6432-10.23 77.3323-11.6795 77.6769-13.8182 77.6769-16.646ZM94.2227-44.8765 94.2227-52.2549 100.639-52.2549 100.639-44.8765ZM94.2227 0 94.2227-37.8545 100.639-37.8545 100.639 0ZM110.086 0 110.086-52.2549 116.502-52.2549 116.502 0ZM123.882-18.9272C123.882-25.9373 125.831-31.1296 129.728-34.5039 132.983-37.3079 136.952-38.71 141.633-38.71 146.837-38.71 151.091-37.005 154.394-33.595 157.697-30.185 159.348-25.474 159.348-19.4619 159.348-14.5905 158.618-10.7587 157.156-7.96655 155.695-5.1744 153.568-3.00602 150.776-1.46143 147.984 0.0831705 144.936 0.855469 141.633 0.855469 136.334 0.855469 132.051-0.843587 128.783-4.2417 125.516-7.63981 123.882-12.535 123.882-18.9272ZM130.476-18.9272C130.476-14.0796 131.534-10.4498 133.649-8.03784 135.764-5.62589 138.425-4.41992 141.633-4.41992 144.817-4.41992 147.467-5.63183 149.582-8.05566 151.697-10.4795 152.754-14.1746 152.754-19.1411 152.754-23.8224 151.691-27.3691 149.564-29.781 147.437-32.1929 144.794-33.3989 141.633-33.3989 138.425-33.3989 135.764-32.1989 133.649-29.7988 131.534-27.3988 130.476-23.7749 130.476-18.9272ZM166.876 0 166.876-37.8545 172.651-37.8545 172.651-32.1157C174.124-34.8009 175.484-36.5713 176.732-37.4268 177.979-38.2822 179.352-38.71 180.849-38.71 183.011-38.71 185.209-38.0208 187.443-36.6426L185.233-30.6899C183.665-31.6167 182.096-32.0801 180.528-32.0801 179.126-32.0801 177.867-31.6583 176.75-30.8147 175.633-29.9711 174.837-28.8008 174.361-27.3037 173.649-25.0225 173.292-22.5273 173.292-19.8184L173.292 0ZM189.016-11.2993 195.361-12.2974C195.718-9.75472 196.71-7.80615 198.337-6.45166 199.965-5.09717 202.241-4.41992 205.163-4.41992 208.11-4.41992 210.296-5.01994 211.722-6.21997 213.148-7.42 213.861-8.82796 213.861-10.4438 213.861-11.8934 213.231-13.034 211.972-13.8657 211.092-14.436 208.906-15.1608 205.413-16.04 200.708-17.2282 197.446-18.2559 195.628-19.1233 193.811-19.9906 192.432-21.1907 191.494-22.7234 190.555-24.2561 190.086-25.9492 190.086-27.8027 190.086-29.4899 190.472-31.0523 191.244-32.49 192.017-33.9277 193.068-35.1217 194.399-36.0723 195.397-36.8089 196.757-37.4327 198.48-37.9436 200.203-38.4545 202.05-38.71 204.023-38.71 206.993-38.71 209.601-38.2822 211.847-37.4268 214.092-36.5713 215.75-35.4128 216.819-33.9514 217.888-32.49 218.625-30.5355 219.029-28.0879L212.756-27.2324C212.471-29.181 211.645-30.7018 210.278-31.7949 208.912-32.888 206.981-33.4346 204.486-33.4346 201.54-33.4346 199.437-32.9474 198.177-31.9731 196.918-30.9989 196.288-29.8582 196.288-28.5513 196.288-27.7196 196.549-26.971 197.072-26.3057 197.595-25.6165 198.415-25.0462 199.532-24.5947 200.173-24.3571 202.062-23.8105 205.199-22.9551 209.738-21.7432 212.904-20.7511 214.698-19.9788 216.492-19.2065 217.9-18.0837 218.922-16.6103 219.944-15.137 220.455-13.3073 220.455-11.1211 220.455-8.98242 219.831-6.9685 218.584-5.07935 217.336-3.19019 215.536-1.72876 213.183-0.695068 210.831 0.338623 208.169 0.855469 205.199 0.855469 200.28 0.855469 196.531-0.166341 193.953-2.20996 191.375-4.25358 189.729-7.28337 189.016-11.2993Z" fill="#FFFFFF" transform="matrix(1 0 0 1 59.9739 109)"/></g></g></g><rect x="2048.5" y="1675.5" width="290" height="122" stroke="#000000" stroke-width="3.4375" stroke-linejoin="round" stroke-miterlimit="10" fill="url(#fill22)"/><text fill="#FFFFFF" font-family="Arial,Arial_MSFontService,sans-serif" font-weight="400" font-size="73" transform="matrix(1 0 0 1 2080.97 1762)">Sailors</text><text font-family="Cambria Math,Cambria Math_MSFontService,sans-serif" font-weight="400" font-size="73" transform="matrix(1 0 0 1 2125.56 824)">𝜋</text><text font-family="Arial,Arial_MSFontService,sans-serif" font-weight="400" font-size="49" transform="matrix(1 0 0 1 2169.1 841)">sname</text><text font-family="Cambria Math,Cambria Math_MSFontService,sans-serif" font-weight="400" font-size="73" transform="matrix(1 0 0 1 1766.02 1109)">𝜋</text><text font-family="Arial,Arial_MSFontService,sans-serif" font-weight="400" font-size="49" transform="matrix(1 0 0 1 1809.56 1126)">sid</text><text font-family="Cambria Math,Cambria Math_MSFontService,sans-serif" font-weight="400" font-size="92" transform="matrix(1 0 0 1 1796.11 1300)">⋈</text><text font-family="Cambria Math,Cambria Math_MSFontService,sans-serif" font-weight="400" font-size="92" transform="matrix(1 0 0 1 2199.22 995)">⋈</text><g clip-path="url(#clip23)" filter="url(#fx6)" transform="translate(1373 1539)"><g><path d="M6.99977-0.0561146 7.48321 60.248-6.51634 60.3603-6.99977 0.0561146ZM21.4266 53.136 0.764009 95.303-20.572 53.4727Z" transform="matrix(1 0 0 -1 57 152.604)"/></g></g><path d="M6.87478-0.0551126 7.36323 60.874-6.38633 60.9842-6.87478 0.0551126ZM21.0577 53.889 0.764009 95.303-20.191 54.2197Z" transform="matrix(1 0 0 -1 1430 1683.3)"/><g clip-path="url(#clip24)" filter="url(#fx7)" transform="translate(1374 1398)"><g><path d="M7-2.80094e-05 7.00022 55.1928-6.99978 55.1928-7 2.80094e-05ZM21.0002 48.1927 0.000360892 90.1928-20.9998 48.1929Z" transform="matrix(1 0 0 -1 58.0001 147.493)"/></g></g><path d="M6.875-2.75092e-05 6.87522 55.8178-6.87478 55.8178-6.875 2.75092e-05ZM20.6252 48.9427 0.000360892 90.1928-20.6248 48.9429Z" transform="matrix(1 0 0 -1 1432 1537.19)"/><g clip-path="url(#clip25)" filter="url(#fx8)" transform="translate(1745 1254)"><g><path d="M51.9177 429.034 51.0864 92.3178 65.0864 92.2833 65.9177 428.999ZM37.1037 99.3524 58 57.3007 79.1036 99.2487Z"/></g></g><path d="M1797.04 1674.73 1796.21 1337.39 1809.96 1337.36 1810.79 1674.7ZM1782.48 1344.3 1803 1303 1823.73 1344.2Z"/><g clip-path="url(#clip26)" filter="url(#fx9)" transform="translate(1414 1223)"><g><path d="M2.08617-6.68191 300.236 86.4041 296.064 99.7679-2.08617 6.68191ZM297.727 70.9542 331.56 103.517 285.21 111.046Z" transform="matrix(1 0 0 -1 18.0001 160.817)"/></g></g><path d="M2.04892-6.56259 300.796 86.7097 296.698 99.8349-2.04892 6.56259ZM298.331 71.5357 331.56 103.517 286.037 110.911Z" transform="matrix(1 0 0 -1 1432 1375.52)"/><g clip-path="url(#clip27)" filter="url(#fx10)" transform="translate(1747 1108)"><g><path d="M6.9984-0.149705 7.85151 39.7316-6.14528 40.031-6.9984 0.149705ZM21.6986 32.4338 1.60164 74.8733-20.2918 33.332Z" transform="matrix(1 0 0 -1 56 132.174)"/></g></g><path d="M6.87343-0.147032 7.73991 40.3591-6.00695 40.6532-6.87343 0.147032ZM21.3397 33.1916 1.60164 74.8733-19.9008 34.0738Z" transform="matrix(1 0 0 -1 1803 1231.87)"/><g clip-path="url(#clip28)" filter="url(#fx11)" transform="translate(1817 919)"><g><path d="M2.14349-6.66374 300.385 89.2701 296.098 102.598-2.14349 6.66374ZM298.008 73.7991 331.56 106.651 285.147 113.782Z" transform="matrix(1 0 0 -1 17.9999 163.952)"/></g></g><path d="M2.10522-6.54474 300.941 89.5805 296.731 102.67-2.10522 6.54474ZM298.607 74.3857 331.56 106.651 285.976 113.654Z" transform="matrix(1 0 0 -1 1835 1074.65)"/><g clip-path="url(#clip29)" filter="url(#fx12)" transform="translate(2147 958)"><g><path d="M7-3.75044e-06 7.00034 638.586-6.99966 638.586-7 3.75044e-06ZM21.0003 631.586 0.000360892 673.586-20.9997 631.587Z" transform="matrix(1 0 0 -1 58.0002 730.887)"/></g></g><path d="M6.875-3.68347e-06 6.87534 639.212-6.87466 639.212-6.875 3.68347e-06ZM20.6253 632.336 0.000360892 673.586-20.6247 632.336Z" transform="matrix(1 0 0 -1 2205 1680.59)"/><g clip-path="url(#clip30)" filter="url(#fx13)" transform="translate(2150 810)"><g><path d="M6.9984-0.149705 7.85151 39.7316-6.14528 40.031-6.9984 0.149705ZM21.6986 32.4338 1.60164 74.8733-20.2918 33.332Z" transform="matrix(1 0 0 -1 55.9998 132.174)"/></g></g><path d="M6.87343-0.147032 7.73991 40.3591-6.00695 40.6532-6.87343 0.147032ZM21.3397 33.1916 1.60164 74.8733-19.9008 34.0738Z" transform="matrix(1 0 0 -1 2206 933.873)"/></g></svg>