<svg width="2359" height="854" xmlns="http://www.w3.org/2000/svg" xmlns:xlink="http://www.w3.org/1999/xlink" xml:space="preserve" overflow="hidden"><g transform="translate(-228 -411)"><path d="M230.5 564.237C230.5 606.066 304.149 639.975 395 639.975 485.851 639.975 559.5 606.066 559.5 564.237L559.5 1017.76C559.5 1059.59 485.851 1093.5 395 1093.5 304.149 1093.5 230.5 1059.59 230.5 1017.76Z" fill="#D72C2F" fill-rule="evenodd"/><path d="M230.5 564.237C230.5 522.409 304.149 488.5 395 488.5 485.851 488.5 559.5 522.409 559.5 564.237 559.5 606.066 485.851 639.975 395 639.975 304.149 639.975 230.5 606.066 230.5 564.237Z" fill="#E78082" fill-rule="evenodd"/><path d="M559.5 564.237C559.5 606.066 485.851 639.975 395 639.975 304.149 639.975 230.5 606.066 230.5 564.237 230.5 522.409 304.149 488.5 395 488.5 485.851 488.5 559.5 522.409 559.5 564.237L559.5 1017.76C559.5 1059.59 485.851 1093.5 395 1093.5 304.149 1093.5 230.5 1059.59 230.5 1017.76L230.5 564.237" stroke="#000000" stroke-width="4.58333" stroke-linejoin="round" stroke-miterlimit="10" fill="none" fill-rule="evenodd"/><path d="M2231.5 572.007C2231.5 613.709 2304.93 647.514 2395.5 647.514 2486.08 647.514 2559.5 613.709 2559.5 572.007L2559.5 1024.99C2559.5 1066.69 2486.07 1100.5 2395.5 1100.5 2304.93 1100.5 2231.5 1066.69 2231.5 1024.99Z" fill="#D72C2F" fill-rule="evenodd"/><path d="M2231.5 572.007C2231.5 530.306 2304.93 496.5 2395.5 496.5 2486.08 496.5 2559.5 530.306 2559.5 572.007 2559.5 613.709 2486.08 647.514 2395.5 647.514 2304.93 647.514 2231.5 613.709 2231.5 572.007Z" fill="#E78082" fill-rule="evenodd"/><path d="M2559.5 572.007C2559.5 613.709 2486.07 647.514 2395.5 647.514 2304.93 647.514 2231.5 613.709 2231.5 572.007 2231.5 530.306 2304.93 496.5 2395.5 496.5 2486.07 496.5 2559.5 530.306 2559.5 572.007L2559.5 1024.99C2559.5 1066.69 2486.07 1100.5 2395.5 1100.5 2304.93 1100.5 2231.5 1066.69 2231.5 1024.99L2231.5 572.007" stroke="#000000" stroke-width="4.58333" stroke-linejoin="round" stroke-miterlimit="10" fill="none" fill-rule="evenodd"/><path d="M1231.5 552.237C1231.5 594.066 1305.15 627.974 1396 627.974 1486.85 627.974 1560.5 594.066 1560.5 552.237L1560.5 1004.76C1560.5 1046.59 1486.85 1080.5 1396 1080.5 1305.15 1080.5 1231.5 1046.59 1231.5 1004.76Z" fill="#D72C2F" fill-rule="evenodd"/><path d="M1231.5 552.237C1231.5 510.409 1305.15 476.5 1396 476.5 1486.85 476.5 1560.5 510.409 1560.5 552.237 1560.5 594.066 1486.85 627.974 1396 627.974 1305.15 627.974 1231.5 594.066 1231.5 552.237Z" fill="#E78082" fill-rule="evenodd"/><path d="M1560.5 552.237C1560.5 594.066 1486.85 627.974 1396 627.974 1305.15 627.974 1231.5 594.066 1231.5 552.237 1231.5 510.409 1305.15 476.5 1396 476.5 1486.85 476.5 1560.5 510.409 1560.5 552.237L1560.5 1004.76C1560.5 1046.59 1486.85 1080.5 1396 1080.5 1305.15 1080.5 1231.5 1046.59 1231.5 1004.76L1231.5 552.237" stroke="#000000" stroke-width="4.58333" stroke-linejoin="round" stroke-miterlimit="10" fill="none" fill-rule="evenodd"/><rect x="672.5" y="599.5" width="454" height="445" stroke="#000000" stroke-width="4.58333" stroke-miterlimit="8" fill="#D72C2F"/><rect x="1656.5" y="607.5" width="454" height="445" stroke="#000000" stroke-width="4.58333" stroke-miterlimit="8" fill="#D72C2F"/><rect x="721.5" y="783.5" width="82.9998" height="77" stroke="#000000" stroke-width="4.58333" stroke-miterlimit="8" fill="#800000"/><rect x="974.5" y="659.5" width="82.9998" height="77" stroke="#000000" stroke-width="4.58333" stroke-miterlimit="8" fill="#800000"/><rect x="972.5" y="779.5" width="83.0002" height="77" stroke="#000000" stroke-width="4.58333" stroke-miterlimit="8" fill="#800000"/><rect x="973.5" y="907.5" width="82.9999" height="77" stroke="#000000" stroke-width="4.58333" stroke-miterlimit="8" fill="#800000"/><rect x="1705.5" y="653.5" width="366" height="347" stroke="#000000" stroke-width="4.58333" stroke-miterlimit="8" fill="#800000"/><path d="M463 820 721 820" stroke="#000000" stroke-width="10.3125" stroke-linejoin="round" stroke-miterlimit="10" fill="none" fill-rule="evenodd"/><path d="M979 822 804 819" stroke="#000000" stroke-width="10.3125" stroke-linejoin="round" stroke-miterlimit="10" fill="none" fill-rule="evenodd"/><path d="M0 0 166 120" stroke="#000000" stroke-width="10.3125" stroke-linejoin="round" stroke-miterlimit="10" fill="none" fill-rule="evenodd" transform="matrix(-1 0 0 1 969 698)"/><path d="M973 936 804 819" stroke="#000000" stroke-width="10.3125" stroke-linejoin="round" stroke-miterlimit="10" fill="none" fill-rule="evenodd"/><path d="M0 0 202 0.000360892" stroke="#000000" stroke-width="10.3125" stroke-linejoin="round" stroke-miterlimit="10" fill="none" fill-rule="evenodd" transform="matrix(-1 0 0 1 2274 789)"/><rect x="1277.5" y="657.5" width="227" height="76" stroke="#000000" stroke-width="4.58333" stroke-miterlimit="8" fill="#800000"/><rect x="1276.5" y="779.5" width="227" height="77" stroke="#000000" stroke-width="4.58333" stroke-miterlimit="8" fill="#800000"/><rect x="1275.5" y="914.5" width="228" height="76" stroke="#000000" stroke-width="4.58333" stroke-miterlimit="8" fill="#800000"/><path d="M1057 699 1275 699" stroke="#000000" stroke-width="10.3125" stroke-linejoin="round" stroke-miterlimit="10" fill="none" fill-rule="evenodd"/><path d="M1055 820 1273 820" stroke="#000000" stroke-width="10.3125" stroke-linejoin="round" stroke-miterlimit="10" fill="none" fill-rule="evenodd"/><path d="M1057 950 1274 950" stroke="#000000" stroke-width="10.3125" stroke-linejoin="round" stroke-miterlimit="10" fill="none" fill-rule="evenodd"/><path d="M1503 697 1709 767" stroke="#000000" stroke-width="10.3125" stroke-linejoin="round" stroke-miterlimit="10" fill="none" fill-rule="evenodd"/><text font-family="Arial,Arial_MSFontService,sans-serif" font-weight="400" font-size="83" transform="matrix(1 0 0 1 1690.27 521)">Conquer (</text><text font-family="Arial,Arial_MSFontService,sans-serif" font-weight="400" font-size="83" transform="matrix(1 0 0 1 2056.94 521)">h</text><text font-family="Arial,Arial_MSFontService,sans-serif" font-weight="400" font-size="55" transform="matrix(1 0 0 1 2102.77 541)">r</text><text font-family="Arial,Arial_MSFontService,sans-serif" font-weight="400" font-size="83" transform="matrix(1 0 0 1 2121.11 521)">)</text><text font-family="Arial,Arial_MSFontService,sans-serif" font-weight="400" font-size="83" transform="matrix(1 0 0 1 733.664 516)">Divide (</text><text font-family="Arial,Arial_MSFontService,sans-serif" font-weight="400" font-size="83" transform="matrix(1 0 0 1 1013.25 516)">h</text><text font-family="Arial,Arial_MSFontService,sans-serif" font-weight="400" font-size="55" transform="matrix(1 0 0 1 1059.08 536)">p</text><text font-family="Arial,Arial_MSFontService,sans-serif" font-weight="400" font-size="83" transform="matrix(1 0 0 1 1089.45 516)">)</text><text font-family="Arial,Arial_MSFontService,sans-serif" font-weight="400" font-size="41" transform="matrix(1 0 0 1 1236.64 1163)">Hash partitions </text><text font-family="Arial,Arial_MSFontService,sans-serif" font-weight="400" font-size="41" transform="matrix(1 0 0 1 1523.1 1163)">h</text><text font-family="Arial,Arial_MSFontService,sans-serif" font-weight="400" font-size="38" transform="matrix(1 0 0 1 1546.02 1163)">p</text><text font-family="Arial,Arial_MSFontService,sans-serif" font-weight="400" font-size="41" transform="matrix(1 0 0 1 1578.67 1163)">of </text><text font-family="Arial,Arial_MSFontService,sans-serif" font-weight="400" font-size="41" transform="matrix(1 0 0 1 1309.7 1213)">size ~N/(B</text><text font-family="Arial,Arial_MSFontService,sans-serif" font-weight="400" font-size="41" transform="matrix(1 0 0 1 1501.05 1213)">-</text><text font-family="Arial,Arial_MSFontService,sans-serif" font-weight="400" font-size="41" transform="matrix(1 0 0 1 1514.8 1213)">1)</text><text font-family="Arial,Arial_MSFontService,sans-serif" font-weight="400" font-size="41" transform="matrix(1 0 0 1 2228.07 1187)">Hash partitions </text><text font-family="Arial,Arial_MSFontService,sans-serif" font-weight="400" font-size="41" transform="matrix(1 0 0 1 2514.53 1187)">h</text><text font-family="Arial,Arial_MSFontService,sans-serif" font-weight="400" font-size="38" transform="matrix(1 0 0 1 2537.45 1187)">r</text><text font-family="Arial,Arial_MSFontService,sans-serif" font-weight="400" font-size="38" transform="matrix(1 0 0 1 2276.2 1233)">Fully hashed!</text><text fill="#FFFFFF" font-family="Arial,Arial_MSFontService,sans-serif" font-weight="400" font-size="62" transform="matrix(1 0 0 1 1347.07 972)">B</text><text fill="#FFFFFF" font-family="Arial,Arial_MSFontService,sans-serif" font-weight="400" font-size="62" transform="matrix(1 0 0 1 1388.32 972)">-</text><text fill="#FFFFFF" font-family="Arial,Arial_MSFontService,sans-serif" font-weight="400" font-size="62" transform="matrix(1 0 0 1 1408.95 972)">1</text><text fill="#FFFFFF" font-family="Arial,Arial_MSFontService,sans-serif" font-weight="400" font-size="62" transform="matrix(1 0 0 1 1378.01 714)">1</text><text fill="#FFFFFF" font-family="Arial,Arial_MSFontService,sans-serif" font-weight="400" font-size="62" transform="matrix(1 0 0 1 1361.75 840)">…</text><text fill="#FFFFFF" font-family="Arial,Arial_MSFontService,sans-serif" font-weight="400" font-size="83" transform="matrix(1 0 0 1 1854.4 861)">B</text></g></svg>