<svg width="1764" height="585" xmlns="http://www.w3.org/2000/svg" xmlns:xlink="http://www.w3.org/1999/xlink" xml:space="preserve" overflow="hidden"><defs><filter id="fx0" x="-10%" y="-10%" width="120%" height="120%" filterUnits="userSpaceOnUse" primitiveUnits="userSpaceOnUse"><feComponentTransfer color-interpolation-filters="sRGB"><feFuncR type="discrete" tableValues="0 0"/><feFuncG type="discrete" tableValues="0 0"/><feFuncB type="discrete" tableValues="0 0"/><feFuncA type="linear" slope="0.380392" intercept="0"/></feComponentTransfer><feGaussianBlur stdDeviation="4.8119 4.8119"/></filter><filter id="fx1" x="-10%" y="-10%" width="120%" height="120%" filterUnits="userSpaceOnUse" primitiveUnits="userSpaceOnUse"><feComponentTransfer color-interpolation-filters="sRGB"><feFuncR type="discrete" tableValues="0 0"/><feFuncG type="discrete" tableValues="0 0"/><feFuncB type="discrete" tableValues="0 0"/><feFuncA type="linear" slope="0.380392" intercept="0"/></feComponentTransfer><feGaussianBlur stdDeviation="4.8119 4.8119"/></filter><filter id="fx2" x="-10%" y="-10%" width="120%" height="120%" filterUnits="userSpaceOnUse" primitiveUnits="userSpaceOnUse"><feComponentTransfer color-interpolation-filters="sRGB"><feFuncR type="discrete" tableValues="0 0"/><feFuncG type="discrete" tableValues="0 0"/><feFuncB type="discrete" tableValues="0 0"/><feFuncA type="linear" slope="0.380392" intercept="0"/></feComponentTransfer><feGaussianBlur stdDeviation="4.8119 4.8119"/></filter><filter id="fx3" x="-10%" y="-10%" width="120%" height="120%" filterUnits="userSpaceOnUse" primitiveUnits="userSpaceOnUse"><feComponentTransfer color-interpolation-filters="sRGB"><feFuncR type="discrete" tableValues="0 0"/><feFuncG type="discrete" tableValues="0 0"/><feFuncB type="discrete" tableValues="0 0"/><feFuncA type="linear" slope="0.380392" intercept="0"/></feComponentTransfer><feGaussianBlur stdDeviation="4.8119 4.8119"/></filter><filter id="fx4" x="-10%" y="-10%" width="120%" height="120%" filterUnits="userSpaceOnUse" primitiveUnits="userSpaceOnUse"><feComponentTransfer color-interpolation-filters="sRGB"><feFuncR type="discrete" tableValues="0 0"/><feFuncG type="discrete" tableValues="0 0"/><feFuncB type="discrete" tableValues="0 0"/><feFuncA type="linear" slope="0.380392" intercept="0"/></feComponentTransfer><feGaussianBlur stdDeviation="4.8119 4.8119"/></filter><filter id="fx5" x="-10%" y="-10%" width="120%" height="120%" filterUnits="userSpaceOnUse" primitiveUnits="userSpaceOnUse"><feComponentTransfer color-interpolation-filters="sRGB"><feFuncR type="discrete" tableValues="0 0"/><feFuncG type="discrete" tableValues="0 0"/><feFuncB type="discrete" tableValues="0 0"/><feFuncA type="linear" slope="0.380392" intercept="0"/></feComponentTransfer><feGaussianBlur stdDeviation="4.8119 4.8119"/></filter><filter id="fx6" x="-10%" y="-10%" width="120%" height="120%" filterUnits="userSpaceOnUse" primitiveUnits="userSpaceOnUse"><feComponentTransfer color-interpolation-filters="sRGB"><feFuncR type="discrete" tableValues="0 0"/><feFuncG type="discrete" tableValues="0 0"/><feFuncB type="discrete" tableValues="0 0"/><feFuncA type="linear" slope="0.380392" intercept="0"/></feComponentTransfer><feGaussianBlur stdDeviation="4.8119 4.8119"/></filter><filter id="fx7" x="-10%" y="-10%" width="120%" height="120%" filterUnits="userSpaceOnUse" primitiveUnits="userSpaceOnUse"><feComponentTransfer color-interpolation-filters="sRGB"><feFuncR type="discrete" tableValues="0 0"/><feFuncG type="discrete" tableValues="0 0"/><feFuncB type="discrete" tableValues="0 0"/><feFuncA type="linear" slope="0.380392" intercept="0"/></feComponentTransfer><feGaussianBlur stdDeviation="4.8119 4.8119"/></filter><filter id="fx8" x="-10%" y="-10%" width="120%" height="120%" filterUnits="userSpaceOnUse" primitiveUnits="userSpaceOnUse"><feComponentTransfer color-interpolation-filters="sRGB"><feFuncR type="discrete" tableValues="0 0"/><feFuncG type="discrete" tableValues="0 0"/><feFuncB type="discrete" tableValues="0 0"/><feFuncA type="linear" slope="0.380392" intercept="0"/></feComponentTransfer><feGaussianBlur stdDeviation="4.8119 4.8119"/></filter><filter id="fx9" x="-10%" y="-10%" width="120%" height="120%" filterUnits="userSpaceOnUse" primitiveUnits="userSpaceOnUse"><feComponentTransfer color-interpolation-filters="sRGB"><feFuncR type="discrete" tableValues="0 0"/><feFuncG type="discrete" tableValues="0 0"/><feFuncB type="discrete" tableValues="0 0"/><feFuncA type="linear" slope="0.380392" intercept="0"/></feComponentTransfer><feGaussianBlur stdDeviation="4.8119 4.8119"/></filter><filter id="fx10" x="-10%" y="-10%" width="120%" height="120%" filterUnits="userSpaceOnUse" primitiveUnits="userSpaceOnUse"><feComponentTransfer color-interpolation-filters="sRGB"><feFuncR type="discrete" tableValues="0 0"/><feFuncG type="discrete" tableValues="0 0"/><feFuncB type="discrete" tableValues="0 0"/><feFuncA type="linear" slope="0.380392" intercept="0"/></feComponentTransfer><feGaussianBlur stdDeviation="4.8119 4.8119"/></filter><filter id="fx11" x="-10%" y="-10%" width="120%" height="120%" filterUnits="userSpaceOnUse" primitiveUnits="userSpaceOnUse"><feComponentTransfer color-interpolation-filters="sRGB"><feFuncR type="discrete" tableValues="0 0"/><feFuncG type="discrete" tableValues="0 0"/><feFuncB type="discrete" tableValues="0 0"/><feFuncA type="linear" slope="0.380392" intercept="0"/></feComponentTransfer><feGaussianBlur stdDeviation="4.8119 4.8119"/></filter><filter id="fx12" x="-10%" y="-10%" width="120%" height="120%" filterUnits="userSpaceOnUse" primitiveUnits="userSpaceOnUse"><feComponentTransfer color-interpolation-filters="sRGB"><feFuncR type="discrete" tableValues="0 0"/><feFuncG type="discrete" tableValues="0 0"/><feFuncB type="discrete" tableValues="0 0"/><feFuncA type="linear" slope="0.380392" intercept="0"/></feComponentTransfer><feGaussianBlur stdDeviation="4.8119 4.8119"/></filter><clipPath id="clip13"><rect x="473" y="1146" width="1764" height="585"/></clipPath><clipPath id="clip14"><path d="M795 1196 795 1365 1058 1365 1058 1196ZM473 1146 2237 1146 2237 1731 473 1731Z" fill-rule="evenodd" clip-rule="evenodd"/></clipPath><clipPath id="clip15"><rect x="37" y="28" width="179" height="173"/></clipPath><clipPath id="clip16"><path d="M1111 1196 1111 1365 1374 1365 1374 1196ZM473 1146 2237 1146 2237 1731 473 1731Z" fill-rule="evenodd" clip-rule="evenodd"/></clipPath><clipPath id="clip17"><rect x="37" y="28" width="179" height="173"/></clipPath><clipPath id="clip18"><path d="M1527 1196 1527 1365 1790 1365 1790 1196ZM473 1146 2237 1146 2237 1731 473 1731Z" fill-rule="evenodd" clip-rule="evenodd"/></clipPath><clipPath id="clip19"><rect x="37" y="28" width="179" height="173"/></clipPath><clipPath id="clip20"><path d="M795 1493 795 1662 1058 1662 1058 1493ZM473 1146 2237 1146 2237 1731 473 1731Z" fill-rule="evenodd" clip-rule="evenodd"/></clipPath><clipPath id="clip21"><rect x="37" y="28" width="179" height="173"/></clipPath><clipPath id="clip22"><path d="M1111 1493 1111 1662 1374 1662 1374 1493ZM473 1146 2237 1146 2237 1731 473 1731Z" fill-rule="evenodd" clip-rule="evenodd"/></clipPath><clipPath id="clip23"><rect x="37" y="28" width="179" height="173"/></clipPath><clipPath id="clip24"><path d="M1527 1493 1527 1662 1790 1662 1790 1493ZM473 1146 2237 1146 2237 1731 473 1731Z" fill-rule="evenodd" clip-rule="evenodd"/></clipPath><clipPath id="clip25"><rect x="37" y="28" width="179" height="173"/></clipPath><clipPath id="clip26"><path d="M495 1352 495 1521 758 1521 758 1352ZM473 1146 2237 1146 2237 1731 473 1731Z" fill-rule="evenodd" clip-rule="evenodd"/></clipPath></defs><g clip-path="url(#clip13)" transform="translate(-473 -1146)"><g clip-path="url(#clip14)"><g filter="url(#fx0)" transform="translate(772 1180)"><g><rect x="23.0001" y="23.2178" width="263" height="169" stroke="#FFFFFF" stroke-width="14" stroke-linejoin="round" stroke-miterlimit="10" fill="#0070C0"/></g></g><g clip-path="url(#clip15)" filter="url(#fx1)" transform="translate(801 1179)"><g><path d="M4.7832 0 4.7832-44.3809 20.0713-44.3809C23.5225-44.3809 26.1562-44.1689 27.9727-43.7451 30.5156-43.1598 32.6852-42.1003 34.4814-40.5664 36.8226-38.5885 38.5734-36.0607 39.7339-32.9829 40.8944-29.9051 41.4746-26.3883 41.4746-22.4326 41.4746-19.0622 41.081-16.0752 40.2939-13.4717 39.5068-10.8682 38.4977-8.7137 37.2666-7.0083 36.0355-5.3029 34.6883-3.96077 33.2251-2.98193 31.7619-2.00309 29.9959-1.26139 27.9272-0.756836 25.8586-0.252279 23.4821 0 20.7978 0ZM10.6562-5.2373 20.1318-5.2373C23.0583-5.2373 25.354-5.50976 27.019-6.05469 28.6841-6.59961 30.0111-7.36654 31-8.35547 32.3926-9.74805 33.4774-11.62 34.2544-13.9712 35.0314-16.3224 35.4199-19.1732 35.4199-22.5234 35.4199-27.1654 34.658-30.7326 33.1343-33.2251 31.6105-35.7176 29.7588-37.3877 27.5791-38.2353 26.0049-38.8408 23.472-39.1436 19.9805-39.1436L10.6562-39.1436ZM69.7539-3.96582C67.7357-2.25033 65.7931-1.03939 63.9263-0.333008 62.0594 0.373372 60.0563 0.726562 57.917 0.726562 54.3851 0.726562 51.6706-0.136231 49.7734-1.86182 47.8763-3.5874 46.9277-5.79232 46.9277-8.47656 46.9277-10.0508 47.286-11.4888 48.0024-12.7905 48.7189-14.0923 49.6574-15.1367 50.8179-15.9238 51.9783-16.7109 53.2852-17.3063 54.7383-17.71 55.8079-17.9925 57.4225-18.265 59.582-18.5273 63.9818-19.0521 67.221-19.6777 69.2998-20.4043 69.32-21.151 69.3301-21.6253 69.3301-21.8271 69.3301-24.0472 68.8154-25.6113 67.7861-26.5195 66.3935-27.7506 64.3249-28.3662 61.5801-28.3662 59.0169-28.3662 57.1248-27.9172 55.9038-27.019 54.6828-26.1209 53.7796-24.5316 53.1943-22.251L47.8662-22.9775C48.3506-25.2581 49.1478-27.0998 50.2578-28.5024 51.3678-29.9051 52.9723-30.9849 55.0713-31.7417 57.1702-32.4985 59.6022-32.8769 62.3672-32.8769 65.112-32.8769 67.3421-32.554 69.0576-31.9082 70.7731-31.2624 72.0345-30.45 72.8418-29.4712 73.6491-28.4923 74.2142-27.2562 74.5371-25.7627 74.7187-24.8343 74.8096-23.1592 74.8096-20.7373L74.8096-13.4717C74.8096-8.40592 74.9256-5.20199 75.1577-3.85986 75.3898-2.51774 75.8489-1.23112 76.5351 0L70.8437 0C70.2786-1.13021 69.9154-2.45215 69.7539-3.96582ZM69.2998-16.1357C67.3219-15.3284 64.3551-14.6423 60.3994-14.0771 58.1592-13.7542 56.5749-13.3909 55.6465-12.9873 54.7181-12.5837 54.0016-11.9933 53.4971-11.2163 52.9925-10.4393 52.7402-9.5765 52.7402-8.62793 52.7402-7.1748 53.2902-5.96387 54.3901-4.99512 55.4901-4.02637 57.0996-3.54199 59.2187-3.54199 61.3177-3.54199 63.1846-4.00114 64.8193-4.91943 66.4541-5.83773 67.6549-7.09407 68.4219-8.68848 69.0072-9.9196 69.2998-11.736 69.2998-14.1377ZM95.0469-4.87402 95.834-0.0605469C94.3001 0.26237 92.9277 0.423828 91.7168 0.423828 89.7389 0.423828 88.2051 0.111003 87.1152-0.514648 86.0254-1.1403 85.2585-1.96273 84.8144-2.98193 84.3704-4.00114 84.1484-6.14551 84.1484-9.41504L84.1484-27.9121 80.1523-27.9121 80.1523-32.1504 84.1484-32.1504 84.1484-40.1123 89.5674-43.3818 89.5674-32.1504 95.0469-32.1504 95.0469-27.9121 89.5674-27.9121 89.5674-9.1123C89.5674-7.55827 89.6632-6.55924 89.855-6.11523 90.0467-5.67122 90.3595-5.31803 90.7934-5.05566 91.2274-4.79329 91.848-4.66211 92.6553-4.66211 93.2607-4.66211 94.0579-4.73275 95.0469-4.87402ZM121.316-3.96582C119.298-2.25033 117.356-1.03939 115.489-0.333008 113.622 0.373372 111.619 0.726562 109.479 0.726562 105.948 0.726562 103.233-0.136231 101.336-1.86182 99.4388-3.5874 98.4902-5.79232 98.4902-8.47656 98.4902-10.0508 98.8485-11.4888 99.5649-12.7905 100.281-14.0923 101.22-15.1367 102.38-15.9238 103.541-16.7109 104.848-17.3063 106.301-17.71 107.37-17.9925 108.985-18.265 111.145-18.5273 115.544-19.0521 118.784-19.6777 120.862-20.4043 120.882-21.151 120.893-21.6253 120.893-21.8271 120.893-24.0472 120.378-25.6113 119.349-26.5195 117.956-27.7506 115.887-28.3662 113.143-28.3662 110.579-28.3662 108.687-27.9172 107.466-27.019 106.245-26.1209 105.342-24.5316 104.757-22.251L99.4287-22.9775C99.9131-25.2581 100.71-27.0998 101.82-28.5024 102.93-29.9051 104.535-30.9849 106.634-31.7417 108.733-32.4985 111.165-32.8769 113.93-32.8769 116.674-32.8769 118.905-32.554 120.62-31.9082 122.336-31.2624 123.597-30.45 124.404-29.4712 125.212-28.4923 125.777-27.2562 126.1-25.7627 126.281-24.8343 126.372-23.1592 126.372-20.7373L126.372-13.4717C126.372-8.40592 126.488-5.20199 126.72-3.85986 126.952-2.51774 127.411-1.23112 128.098 0L122.406 0C121.841-1.13021 121.478-2.45215 121.316-3.96582ZM120.862-16.1357C118.884-15.3284 115.918-14.6423 111.962-14.0771 109.722-13.7542 108.137-13.3909 107.209-12.9873 106.281-12.5837 105.564-11.9933 105.06-11.2163 104.555-10.4393 104.303-9.5765 104.303-8.62793 104.303-7.1748 104.853-5.96387 105.953-4.99512 107.053-4.02637 108.662-3.54199 110.781-3.54199 112.88-3.54199 114.747-4.00114 116.382-4.91943 118.017-5.83773 119.217-7.09407 119.984-8.68848 120.57-9.9196 120.862-11.736 120.862-14.1377Z" fill="#FFFFFF" transform="matrix(1 0 0 1 53.0446 94)"/><path d="M4.7832 0 4.7832-44.3809 21.5244-44.3809C24.471-44.3809 26.7214-44.2396 28.2754-43.957 30.4551-43.5937 32.2816-42.9025 33.7549-41.8833 35.2282-40.8641 36.4139-39.4362 37.312-37.5996 38.2101-35.763 38.6592-33.7448 38.6592-31.5449 38.6592-27.7708 37.4583-24.577 35.0566-21.9634 32.6549-19.3498 28.3158-18.043 22.0391-18.043L10.6562-18.043 10.6562 0ZM10.6562-23.2803 22.1299-23.2803C25.9242-23.2803 28.6185-23.9867 30.2129-25.3994 31.8073-26.8122 32.6045-28.8001 32.6045-31.3633 32.6045-33.22 32.1353-34.8094 31.1968-36.1313 30.2583-37.4533 29.0221-38.3262 27.4883-38.75 26.4993-39.0124 24.6728-39.1436 22.0088-39.1436L10.6562-39.1436ZM66.3164-3.96582C64.2982-2.25033 62.3556-1.03939 60.4888-0.333008 58.6219 0.373372 56.6188 0.726562 54.4795 0.726562 50.9476 0.726562 48.2331-0.136231 46.3359-1.86182 44.4388-3.5874 43.4902-5.79232 43.4902-8.47656 43.4902-10.0508 43.8485-11.4888 44.5649-12.7905 45.2814-14.0923 46.2199-15.1367 47.3804-15.9238 48.5408-16.7109 49.8476-17.3063 51.3008-17.71 52.3704-17.9925 53.985-18.265 56.1445-18.5273 60.5443-19.0521 63.7835-19.6777 65.8623-20.4043 65.8825-21.151 65.8926-21.6253 65.8926-21.8271 65.8926-24.0472 65.3779-25.6113 64.3486-26.5195 62.956-27.7506 60.8874-28.3662 58.1426-28.3662 55.5794-28.3662 53.6873-27.9172 52.4663-27.019 51.2453-26.1209 50.3421-24.5316 49.7568-22.251L44.4287-22.9775C44.9131-25.2581 45.7103-27.0998 46.8203-28.5024 47.9303-29.9051 49.5348-30.9849 51.6338-31.7417 53.7327-32.4985 56.1647-32.8769 58.9297-32.8769 61.6745-32.8769 63.9046-32.554 65.6201-31.9082 67.3356-31.2624 68.597-30.45 69.4043-29.4712 70.2116-28.4923 70.7767-27.2562 71.0996-25.7627 71.2812-24.8343 71.3721-23.1592 71.3721-20.7373L71.3721-13.4717C71.3721-8.40592 71.4881-5.20199 71.7202-3.85986 71.9523-2.51774 72.4115-1.23112 73.0976 0L67.4062 0C66.8411-1.13021 66.4779-2.45215 66.3164-3.96582ZM65.8623-16.1357C63.8844-15.3284 60.9176-14.6423 56.9619-14.0771 54.7217-13.7542 53.1374-13.3909 52.209-12.9873 51.2806-12.5837 50.5641-11.9933 50.0596-11.2163 49.555-10.4393 49.3027-9.5765 49.3027-8.62793 49.3027-7.1748 49.8527-5.96387 50.9526-4.99512 52.0526-4.02637 53.6621-3.54199 55.7812-3.54199 57.8802-3.54199 59.7471-4.00114 61.3818-4.91943 63.0166-5.83773 64.2174-7.09407 64.9844-8.68848 65.5697-9.9196 65.8623-11.736 65.8623-14.1377ZM78.7129 2.66406 84.0107 3.45117C84.2327 5.08594 84.8483 6.27669 85.8574 7.02344 87.2096 8.03255 89.0563 8.53711 91.3975 8.53711 93.9202 8.53711 95.8678 8.03255 97.2402 7.02344 98.6126 6.01432 99.541 4.60156 100.025 2.78516 100.308 1.67513 100.439-0.655924 100.419-4.20801 98.0374-1.40267 95.0706 0 91.5185 0 87.0986 0 83.6777-1.5944 81.2559-4.7832 78.834-7.972 77.623-11.7965 77.623-16.2568 77.623-19.3245 78.1781-22.1551 79.2881-24.7485 80.3981-27.342 82.0076-29.345 84.1167-30.7578 86.2257-32.1706 88.7031-32.8769 91.5488-32.8769 95.3431-32.8769 98.4713-31.3431 100.934-28.2754L100.934-32.1504 105.959-32.1504 105.959-4.35937C105.959 0.645833 105.449 4.19287 104.43 6.28174 103.411 8.3706 101.796 10.0205 99.5864 11.2314 97.3764 12.4424 94.6569 13.0478 91.4277 13.0479 87.5931 13.0478 84.4951 12.1851 82.1338 10.4595 79.7725 8.73389 78.6322 6.13542 78.7129 2.66406ZM83.2236-16.6504C83.2236-12.4323 84.0612-9.35449 85.7363-7.41699 87.4114-5.47949 89.5104-4.51074 92.0332-4.51074 94.5358-4.51074 96.6348-5.47445 98.3301-7.40185 100.025-9.32926 100.873-12.3516 100.873-16.4687 100.873-20.4043 100-23.3711 98.2544-25.3691 96.5086-27.3672 94.4046-28.3662 91.9424-28.3662 89.5205-28.3662 87.4619-27.3823 85.7666-25.4145 84.0713-23.4468 83.2236-20.5254 83.2236-16.6504ZM136.096-10.3535 141.727-9.65723C140.839-6.36751 139.194-3.81445 136.792-1.99805 134.39-0.181641 131.323 0.726562 127.589 0.726562 122.886 0.726562 119.158-0.721517 116.403-3.61768 113.648-6.51383 112.27-10.5755 112.27-15.8027 112.27-21.2116 113.663-25.4095 116.448-28.3965 119.233-31.3835 122.846-32.8769 127.286-32.8769 131.585-32.8769 135.097-31.4137 137.821-28.4873 140.546-25.5609 141.908-21.4437 141.908-16.1357 141.908-15.8128 141.898-15.3284 141.878-14.6826L117.901-14.6826C118.103-11.1507 119.102-8.44629 120.898-6.56934 122.695-4.69238 124.935-3.75391 127.619-3.75391 129.617-3.75391 131.323-4.27865 132.735-5.32812 134.148-6.3776 135.268-8.05273 136.096-10.3535ZM118.204-19.1631 136.156-19.1631C135.914-21.8675 135.228-23.8958 134.098-25.248 132.362-27.347 130.112-28.3965 127.347-28.3965 124.844-28.3965 122.74-27.5589 121.035-25.8838 119.329-24.2087 118.386-21.9684 118.204-19.1631Z" fill="#FFFFFF" transform="matrix(1 0 0 1 53.0446 168)"/></g></g></g><rect x="795" y="1196" width="263" height="169" stroke="#FFFFFF" stroke-width="13.75" stroke-linejoin="round" stroke-miterlimit="10" fill="#0070C0"/><text fill="#FFFFFF" font-family="Arial,Arial_MSFontService,sans-serif" font-weight="400" font-size="62" transform="matrix(1 0 0 1 854.045 1266)">Data</text><text fill="#FFFFFF" font-family="Arial,Arial_MSFontService,sans-serif" font-weight="400" font-size="62" transform="matrix(1 0 0 1 854.045 1340)">Page</text><g clip-path="url(#clip16)"><g filter="url(#fx2)" transform="translate(1088 1180)"><g><rect x="23" y="23.2178" width="263" height="169" stroke="#FFFFFF" stroke-width="14" stroke-linejoin="round" stroke-miterlimit="10" fill="#0070C0"/></g></g><g clip-path="url(#clip17)" filter="url(#fx3)" transform="translate(1117 1179)"><g><path d="M4.7832 0 4.7832-44.3809 20.0713-44.3809C23.5225-44.3809 26.1562-44.1689 27.9727-43.7451 30.5156-43.1598 32.6852-42.1003 34.4814-40.5664 36.8226-38.5885 38.5734-36.0607 39.7339-32.9829 40.8944-29.9051 41.4746-26.3883 41.4746-22.4326 41.4746-19.0622 41.081-16.0752 40.2939-13.4717 39.5068-10.8682 38.4977-8.7137 37.2666-7.0083 36.0355-5.3029 34.6883-3.96077 33.2251-2.98193 31.7619-2.00309 29.9959-1.26139 27.9272-0.756836 25.8586-0.252279 23.4821 0 20.7978 0ZM10.6562-5.2373 20.1318-5.2373C23.0583-5.2373 25.354-5.50976 27.019-6.05469 28.6841-6.59961 30.0111-7.36654 31-8.35547 32.3926-9.74805 33.4774-11.62 34.2544-13.9712 35.0314-16.3224 35.4199-19.1732 35.4199-22.5234 35.4199-27.1654 34.658-30.7326 33.1343-33.2251 31.6105-35.7176 29.7588-37.3877 27.5791-38.2353 26.0049-38.8408 23.472-39.1436 19.9805-39.1436L10.6562-39.1436ZM69.7539-3.96582C67.7357-2.25033 65.7931-1.03939 63.9263-0.333008 62.0594 0.373372 60.0563 0.726562 57.917 0.726562 54.3851 0.726562 51.6706-0.136231 49.7734-1.86182 47.8763-3.5874 46.9277-5.79232 46.9277-8.47656 46.9277-10.0508 47.286-11.4888 48.0024-12.7905 48.7189-14.0923 49.6574-15.1367 50.8179-15.9238 51.9783-16.7109 53.2852-17.3063 54.7383-17.71 55.8079-17.9925 57.4225-18.265 59.582-18.5273 63.9818-19.0521 67.221-19.6777 69.2998-20.4043 69.32-21.151 69.3301-21.6253 69.3301-21.8271 69.3301-24.0472 68.8154-25.6113 67.7861-26.5195 66.3935-27.7506 64.3249-28.3662 61.5801-28.3662 59.0169-28.3662 57.1248-27.9172 55.9038-27.019 54.6828-26.1209 53.7796-24.5316 53.1943-22.251L47.8662-22.9775C48.3506-25.2581 49.1478-27.0998 50.2578-28.5024 51.3678-29.9051 52.9723-30.9849 55.0713-31.7417 57.1702-32.4985 59.6022-32.8769 62.3672-32.8769 65.112-32.8769 67.3421-32.554 69.0576-31.9082 70.7731-31.2624 72.0345-30.45 72.8418-29.4712 73.6491-28.4923 74.2142-27.2562 74.5371-25.7627 74.7187-24.8343 74.8096-23.1592 74.8096-20.7373L74.8096-13.4717C74.8096-8.40592 74.9256-5.20199 75.1577-3.85986 75.3898-2.51774 75.8489-1.23112 76.5351 0L70.8437 0C70.2786-1.13021 69.9154-2.45215 69.7539-3.96582ZM69.2998-16.1357C67.3219-15.3284 64.3551-14.6423 60.3994-14.0771 58.1592-13.7542 56.5749-13.3909 55.6465-12.9873 54.7181-12.5837 54.0016-11.9933 53.4971-11.2163 52.9925-10.4393 52.7402-9.5765 52.7402-8.62793 52.7402-7.1748 53.2902-5.96387 54.3901-4.99512 55.4901-4.02637 57.0996-3.54199 59.2187-3.54199 61.3177-3.54199 63.1846-4.00114 64.8193-4.91943 66.4541-5.83773 67.6549-7.09407 68.4219-8.68848 69.0072-9.9196 69.2998-11.736 69.2998-14.1377ZM95.0469-4.87402 95.834-0.0605469C94.3001 0.26237 92.9277 0.423828 91.7168 0.423828 89.7389 0.423828 88.2051 0.111003 87.1152-0.514648 86.0254-1.1403 85.2585-1.96273 84.8144-2.98193 84.3704-4.00114 84.1484-6.14551 84.1484-9.41504L84.1484-27.9121 80.1523-27.9121 80.1523-32.1504 84.1484-32.1504 84.1484-40.1123 89.5674-43.3818 89.5674-32.1504 95.0469-32.1504 95.0469-27.9121 89.5674-27.9121 89.5674-9.1123C89.5674-7.55827 89.6632-6.55924 89.855-6.11523 90.0467-5.67122 90.3595-5.31803 90.7934-5.05566 91.2274-4.79329 91.848-4.66211 92.6553-4.66211 93.2607-4.66211 94.0579-4.73275 95.0469-4.87402ZM121.316-3.96582C119.298-2.25033 117.356-1.03939 115.489-0.333008 113.622 0.373372 111.619 0.726562 109.479 0.726562 105.948 0.726562 103.233-0.136231 101.336-1.86182 99.4388-3.5874 98.4902-5.79232 98.4902-8.47656 98.4902-10.0508 98.8485-11.4888 99.5649-12.7905 100.281-14.0923 101.22-15.1367 102.38-15.9238 103.541-16.7109 104.848-17.3063 106.301-17.71 107.37-17.9925 108.985-18.265 111.145-18.5273 115.544-19.0521 118.784-19.6777 120.862-20.4043 120.882-21.151 120.893-21.6253 120.893-21.8271 120.893-24.0472 120.378-25.6113 119.349-26.5195 117.956-27.7506 115.887-28.3662 113.143-28.3662 110.579-28.3662 108.687-27.9172 107.466-27.019 106.245-26.1209 105.342-24.5316 104.757-22.251L99.4287-22.9775C99.9131-25.2581 100.71-27.0998 101.82-28.5024 102.93-29.9051 104.535-30.9849 106.634-31.7417 108.733-32.4985 111.165-32.8769 113.93-32.8769 116.674-32.8769 118.905-32.554 120.62-31.9082 122.336-31.2624 123.597-30.45 124.404-29.4712 125.212-28.4923 125.777-27.2562 126.1-25.7627 126.281-24.8343 126.372-23.1592 126.372-20.7373L126.372-13.4717C126.372-8.40592 126.488-5.20199 126.72-3.85986 126.952-2.51774 127.411-1.23112 128.098 0L122.406 0C121.841-1.13021 121.478-2.45215 121.316-3.96582ZM120.862-16.1357C118.884-15.3284 115.918-14.6423 111.962-14.0771 109.722-13.7542 108.137-13.3909 107.209-12.9873 106.281-12.5837 105.564-11.9933 105.06-11.2163 104.555-10.4393 104.303-9.5765 104.303-8.62793 104.303-7.1748 104.853-5.96387 105.953-4.99512 107.053-4.02637 108.662-3.54199 110.781-3.54199 112.88-3.54199 114.747-4.00114 116.382-4.91943 118.017-5.83773 119.217-7.09407 119.984-8.68848 120.57-9.9196 120.862-11.736 120.862-14.1377Z" fill="#FFFFFF" transform="matrix(1 0 0 1 53.1888 94)"/><path d="M4.7832 0 4.7832-44.3809 21.5244-44.3809C24.471-44.3809 26.7214-44.2396 28.2754-43.957 30.4551-43.5937 32.2816-42.9025 33.7549-41.8833 35.2282-40.8641 36.4139-39.4362 37.312-37.5996 38.2101-35.763 38.6592-33.7448 38.6592-31.5449 38.6592-27.7708 37.4583-24.577 35.0566-21.9634 32.6549-19.3498 28.3158-18.043 22.0391-18.043L10.6562-18.043 10.6562 0ZM10.6562-23.2803 22.1299-23.2803C25.9242-23.2803 28.6185-23.9867 30.2129-25.3994 31.8073-26.8122 32.6045-28.8001 32.6045-31.3633 32.6045-33.22 32.1353-34.8094 31.1968-36.1313 30.2583-37.4533 29.0221-38.3262 27.4883-38.75 26.4993-39.0124 24.6728-39.1436 22.0088-39.1436L10.6562-39.1436ZM66.3164-3.96582C64.2982-2.25033 62.3556-1.03939 60.4888-0.333008 58.6219 0.373372 56.6188 0.726562 54.4795 0.726562 50.9476 0.726562 48.2331-0.136231 46.3359-1.86182 44.4388-3.5874 43.4902-5.79232 43.4902-8.47656 43.4902-10.0508 43.8485-11.4888 44.5649-12.7905 45.2814-14.0923 46.2199-15.1367 47.3804-15.9238 48.5408-16.7109 49.8476-17.3063 51.3008-17.71 52.3704-17.9925 53.985-18.265 56.1445-18.5273 60.5443-19.0521 63.7835-19.6777 65.8623-20.4043 65.8825-21.151 65.8926-21.6253 65.8926-21.8271 65.8926-24.0472 65.3779-25.6113 64.3486-26.5195 62.956-27.7506 60.8874-28.3662 58.1426-28.3662 55.5794-28.3662 53.6873-27.9172 52.4663-27.019 51.2453-26.1209 50.3421-24.5316 49.7568-22.251L44.4287-22.9775C44.9131-25.2581 45.7103-27.0998 46.8203-28.5024 47.9303-29.9051 49.5348-30.9849 51.6338-31.7417 53.7327-32.4985 56.1647-32.8769 58.9297-32.8769 61.6745-32.8769 63.9046-32.554 65.6201-31.9082 67.3356-31.2624 68.597-30.45 69.4043-29.4712 70.2116-28.4923 70.7767-27.2562 71.0996-25.7627 71.2812-24.8343 71.3721-23.1592 71.3721-20.7373L71.3721-13.4717C71.3721-8.40592 71.4881-5.20199 71.7202-3.85986 71.9523-2.51774 72.4115-1.23112 73.0976 0L67.4062 0C66.8411-1.13021 66.4779-2.45215 66.3164-3.96582ZM65.8623-16.1357C63.8844-15.3284 60.9176-14.6423 56.9619-14.0771 54.7217-13.7542 53.1374-13.3909 52.209-12.9873 51.2806-12.5837 50.5641-11.9933 50.0596-11.2163 49.555-10.4393 49.3027-9.5765 49.3027-8.62793 49.3027-7.1748 49.8527-5.96387 50.9526-4.99512 52.0526-4.02637 53.6621-3.54199 55.7812-3.54199 57.8802-3.54199 59.7471-4.00114 61.3818-4.91943 63.0166-5.83773 64.2174-7.09407 64.9844-8.68848 65.5697-9.9196 65.8623-11.736 65.8623-14.1377ZM78.7129 2.66406 84.0107 3.45117C84.2327 5.08594 84.8483 6.27669 85.8574 7.02344 87.2096 8.03255 89.0563 8.53711 91.3975 8.53711 93.9202 8.53711 95.8678 8.03255 97.2402 7.02344 98.6126 6.01432 99.541 4.60156 100.025 2.78516 100.308 1.67513 100.439-0.655924 100.419-4.20801 98.0374-1.40267 95.0706 0 91.5185 0 87.0986 0 83.6777-1.5944 81.2559-4.7832 78.834-7.972 77.623-11.7965 77.623-16.2568 77.623-19.3245 78.1781-22.1551 79.2881-24.7485 80.3981-27.342 82.0076-29.345 84.1167-30.7578 86.2257-32.1706 88.7031-32.8769 91.5488-32.8769 95.3431-32.8769 98.4713-31.3431 100.934-28.2754L100.934-32.1504 105.959-32.1504 105.959-4.35937C105.959 0.645833 105.449 4.19287 104.43 6.28174 103.411 8.3706 101.796 10.0205 99.5864 11.2314 97.3764 12.4424 94.6569 13.0478 91.4277 13.0479 87.5931 13.0478 84.4951 12.1851 82.1338 10.4595 79.7725 8.73389 78.6322 6.13542 78.7129 2.66406ZM83.2236-16.6504C83.2236-12.4323 84.0612-9.35449 85.7363-7.41699 87.4114-5.47949 89.5104-4.51074 92.0332-4.51074 94.5358-4.51074 96.6348-5.47445 98.3301-7.40185 100.025-9.32926 100.873-12.3516 100.873-16.4687 100.873-20.4043 100-23.3711 98.2544-25.3691 96.5086-27.3672 94.4046-28.3662 91.9424-28.3662 89.5205-28.3662 87.4619-27.3823 85.7666-25.4145 84.0713-23.4468 83.2236-20.5254 83.2236-16.6504ZM136.096-10.3535 141.727-9.65723C140.839-6.36751 139.194-3.81445 136.792-1.99805 134.39-0.181641 131.323 0.726562 127.589 0.726562 122.886 0.726562 119.158-0.721517 116.403-3.61768 113.648-6.51383 112.27-10.5755 112.27-15.8027 112.27-21.2116 113.663-25.4095 116.448-28.3965 119.233-31.3835 122.846-32.8769 127.286-32.8769 131.585-32.8769 135.097-31.4137 137.821-28.4873 140.546-25.5609 141.908-21.4437 141.908-16.1357 141.908-15.8128 141.898-15.3284 141.878-14.6826L117.901-14.6826C118.103-11.1507 119.102-8.44629 120.898-6.56934 122.695-4.69238 124.935-3.75391 127.619-3.75391 129.617-3.75391 131.323-4.27865 132.735-5.32812 134.148-6.3776 135.268-8.05273 136.096-10.3535ZM118.204-19.1631 136.156-19.1631C135.914-21.8675 135.228-23.8958 134.098-25.248 132.362-27.347 130.112-28.3965 127.347-28.3965 124.844-28.3965 122.74-27.5589 121.035-25.8838 119.329-24.2087 118.386-21.9684 118.204-19.1631Z" fill="#FFFFFF" transform="matrix(1 0 0 1 53.1888 168)"/></g></g></g><rect x="1111" y="1196" width="263" height="169" stroke="#FFFFFF" stroke-width="13.75" stroke-linejoin="round" stroke-miterlimit="10" fill="#0070C0"/><text fill="#FFFFFF" font-family="Arial,Arial_MSFontService,sans-serif" font-weight="400" font-size="62" transform="matrix(1 0 0 1 1170.19 1266)">Data</text><text fill="#FFFFFF" font-family="Arial,Arial_MSFontService,sans-serif" font-weight="400" font-size="62" transform="matrix(1 0 0 1 1170.19 1340)">Page</text><g clip-path="url(#clip18)"><g filter="url(#fx4)" transform="translate(1504 1180)"><g><rect x="22.9999" y="23.2178" width="263" height="169" stroke="#FFFFFF" stroke-width="14" stroke-linejoin="round" stroke-miterlimit="10" fill="#0070C0"/></g></g><g clip-path="url(#clip19)" filter="url(#fx5)" transform="translate(1533 1179)"><g><path d="M4.7832 0 4.7832-44.3809 20.0713-44.3809C23.5225-44.3809 26.1562-44.1689 27.9727-43.7451 30.5156-43.1598 32.6852-42.1003 34.4814-40.5664 36.8226-38.5885 38.5734-36.0607 39.7339-32.9829 40.8944-29.9051 41.4746-26.3883 41.4746-22.4326 41.4746-19.0622 41.081-16.0752 40.2939-13.4717 39.5068-10.8682 38.4977-8.7137 37.2666-7.0083 36.0355-5.3029 34.6883-3.96077 33.2251-2.98193 31.7619-2.00309 29.9959-1.26139 27.9272-0.756836 25.8586-0.252279 23.4821 0 20.7978 0ZM10.6562-5.2373 20.1318-5.2373C23.0583-5.2373 25.354-5.50976 27.019-6.05469 28.6841-6.59961 30.0111-7.36654 31-8.35547 32.3926-9.74805 33.4774-11.62 34.2544-13.9712 35.0314-16.3224 35.4199-19.1732 35.4199-22.5234 35.4199-27.1654 34.658-30.7326 33.1343-33.2251 31.6105-35.7176 29.7588-37.3877 27.5791-38.2353 26.0049-38.8408 23.472-39.1436 19.9805-39.1436L10.6562-39.1436ZM69.7539-3.96582C67.7357-2.25033 65.7931-1.03939 63.9263-0.333008 62.0594 0.373372 60.0563 0.726562 57.917 0.726562 54.3851 0.726562 51.6706-0.136231 49.7734-1.86182 47.8763-3.5874 46.9277-5.79232 46.9277-8.47656 46.9277-10.0508 47.286-11.4888 48.0024-12.7905 48.7189-14.0923 49.6574-15.1367 50.8179-15.9238 51.9783-16.7109 53.2852-17.3063 54.7383-17.71 55.8079-17.9925 57.4225-18.265 59.582-18.5273 63.9818-19.0521 67.221-19.6777 69.2998-20.4043 69.32-21.151 69.3301-21.6253 69.3301-21.8271 69.3301-24.0472 68.8154-25.6113 67.7861-26.5195 66.3935-27.7506 64.3249-28.3662 61.5801-28.3662 59.0169-28.3662 57.1248-27.9172 55.9038-27.019 54.6828-26.1209 53.7796-24.5316 53.1943-22.251L47.8662-22.9775C48.3506-25.2581 49.1478-27.0998 50.2578-28.5024 51.3678-29.9051 52.9723-30.9849 55.0713-31.7417 57.1702-32.4985 59.6022-32.8769 62.3672-32.8769 65.112-32.8769 67.3421-32.554 69.0576-31.9082 70.7731-31.2624 72.0345-30.45 72.8418-29.4712 73.6491-28.4923 74.2142-27.2562 74.5371-25.7627 74.7187-24.8343 74.8096-23.1592 74.8096-20.7373L74.8096-13.4717C74.8096-8.40592 74.9256-5.20199 75.1577-3.85986 75.3898-2.51774 75.8489-1.23112 76.5351 0L70.8437 0C70.2786-1.13021 69.9154-2.45215 69.7539-3.96582ZM69.2998-16.1357C67.3219-15.3284 64.3551-14.6423 60.3994-14.0771 58.1592-13.7542 56.5749-13.3909 55.6465-12.9873 54.7181-12.5837 54.0016-11.9933 53.4971-11.2163 52.9925-10.4393 52.7402-9.5765 52.7402-8.62793 52.7402-7.1748 53.2902-5.96387 54.3901-4.99512 55.4901-4.02637 57.0996-3.54199 59.2187-3.54199 61.3177-3.54199 63.1846-4.00114 64.8193-4.91943 66.4541-5.83773 67.6549-7.09407 68.4219-8.68848 69.0072-9.9196 69.2998-11.736 69.2998-14.1377ZM95.0469-4.87402 95.834-0.0605469C94.3001 0.26237 92.9277 0.423828 91.7168 0.423828 89.7389 0.423828 88.2051 0.111003 87.1152-0.514648 86.0254-1.1403 85.2585-1.96273 84.8144-2.98193 84.3704-4.00114 84.1484-6.14551 84.1484-9.41504L84.1484-27.9121 80.1523-27.9121 80.1523-32.1504 84.1484-32.1504 84.1484-40.1123 89.5674-43.3818 89.5674-32.1504 95.0469-32.1504 95.0469-27.9121 89.5674-27.9121 89.5674-9.1123C89.5674-7.55827 89.6632-6.55924 89.855-6.11523 90.0467-5.67122 90.3595-5.31803 90.7934-5.05566 91.2274-4.79329 91.848-4.66211 92.6553-4.66211 93.2607-4.66211 94.0579-4.73275 95.0469-4.87402ZM121.316-3.96582C119.298-2.25033 117.356-1.03939 115.489-0.333008 113.622 0.373372 111.619 0.726562 109.479 0.726562 105.948 0.726562 103.233-0.136231 101.336-1.86182 99.4388-3.5874 98.4902-5.79232 98.4902-8.47656 98.4902-10.0508 98.8485-11.4888 99.5649-12.7905 100.281-14.0923 101.22-15.1367 102.38-15.9238 103.541-16.7109 104.848-17.3063 106.301-17.71 107.37-17.9925 108.985-18.265 111.145-18.5273 115.544-19.0521 118.784-19.6777 120.862-20.4043 120.882-21.151 120.893-21.6253 120.893-21.8271 120.893-24.0472 120.378-25.6113 119.349-26.5195 117.956-27.7506 115.887-28.3662 113.143-28.3662 110.579-28.3662 108.687-27.9172 107.466-27.019 106.245-26.1209 105.342-24.5316 104.757-22.251L99.4287-22.9775C99.9131-25.2581 100.71-27.0998 101.82-28.5024 102.93-29.9051 104.535-30.9849 106.634-31.7417 108.733-32.4985 111.165-32.8769 113.93-32.8769 116.674-32.8769 118.905-32.554 120.62-31.9082 122.336-31.2624 123.597-30.45 124.404-29.4712 125.212-28.4923 125.777-27.2562 126.1-25.7627 126.281-24.8343 126.372-23.1592 126.372-20.7373L126.372-13.4717C126.372-8.40592 126.488-5.20199 126.72-3.85986 126.952-2.51774 127.411-1.23112 128.098 0L122.406 0C121.841-1.13021 121.478-2.45215 121.316-3.96582ZM120.862-16.1357C118.884-15.3284 115.918-14.6423 111.962-14.0771 109.722-13.7542 108.137-13.3909 107.209-12.9873 106.281-12.5837 105.564-11.9933 105.06-11.2163 104.555-10.4393 104.303-9.5765 104.303-8.62793 104.303-7.1748 104.853-5.96387 105.953-4.99512 107.053-4.02637 108.662-3.54199 110.781-3.54199 112.88-3.54199 114.747-4.00114 116.382-4.91943 118.017-5.83773 119.217-7.09407 119.984-8.68848 120.57-9.9196 120.862-11.736 120.862-14.1377Z" fill="#FFFFFF" transform="matrix(1 0 0 1 53.1685 94)"/><path d="M4.7832 0 4.7832-44.3809 21.5244-44.3809C24.471-44.3809 26.7214-44.2396 28.2754-43.957 30.4551-43.5937 32.2816-42.9025 33.7549-41.8833 35.2282-40.8641 36.4139-39.4362 37.312-37.5996 38.2101-35.763 38.6592-33.7448 38.6592-31.5449 38.6592-27.7708 37.4583-24.577 35.0566-21.9634 32.6549-19.3498 28.3158-18.043 22.0391-18.043L10.6562-18.043 10.6562 0ZM10.6562-23.2803 22.1299-23.2803C25.9242-23.2803 28.6185-23.9867 30.2129-25.3994 31.8073-26.8122 32.6045-28.8001 32.6045-31.3633 32.6045-33.22 32.1353-34.8094 31.1968-36.1313 30.2583-37.4533 29.0221-38.3262 27.4883-38.75 26.4993-39.0124 24.6728-39.1436 22.0088-39.1436L10.6562-39.1436ZM66.3164-3.96582C64.2982-2.25033 62.3556-1.03939 60.4888-0.333008 58.6219 0.373372 56.6188 0.726562 54.4795 0.726562 50.9476 0.726562 48.2331-0.136231 46.3359-1.86182 44.4388-3.5874 43.4902-5.79232 43.4902-8.47656 43.4902-10.0508 43.8485-11.4888 44.5649-12.7905 45.2814-14.0923 46.2199-15.1367 47.3804-15.9238 48.5408-16.7109 49.8476-17.3063 51.3008-17.71 52.3704-17.9925 53.985-18.265 56.1445-18.5273 60.5443-19.0521 63.7835-19.6777 65.8623-20.4043 65.8825-21.151 65.8926-21.6253 65.8926-21.8271 65.8926-24.0472 65.3779-25.6113 64.3486-26.5195 62.956-27.7506 60.8874-28.3662 58.1426-28.3662 55.5794-28.3662 53.6873-27.9172 52.4663-27.019 51.2453-26.1209 50.3421-24.5316 49.7568-22.251L44.4287-22.9775C44.9131-25.2581 45.7103-27.0998 46.8203-28.5024 47.9303-29.9051 49.5348-30.9849 51.6338-31.7417 53.7327-32.4985 56.1647-32.8769 58.9297-32.8769 61.6745-32.8769 63.9046-32.554 65.6201-31.9082 67.3356-31.2624 68.597-30.45 69.4043-29.4712 70.2116-28.4923 70.7767-27.2562 71.0996-25.7627 71.2812-24.8343 71.3721-23.1592 71.3721-20.7373L71.3721-13.4717C71.3721-8.40592 71.4881-5.20199 71.7202-3.85986 71.9523-2.51774 72.4115-1.23112 73.0976 0L67.4062 0C66.8411-1.13021 66.4779-2.45215 66.3164-3.96582ZM65.8623-16.1357C63.8844-15.3284 60.9176-14.6423 56.9619-14.0771 54.7217-13.7542 53.1374-13.3909 52.209-12.9873 51.2806-12.5837 50.5641-11.9933 50.0596-11.2163 49.555-10.4393 49.3027-9.5765 49.3027-8.62793 49.3027-7.1748 49.8527-5.96387 50.9526-4.99512 52.0526-4.02637 53.6621-3.54199 55.7812-3.54199 57.8802-3.54199 59.7471-4.00114 61.3818-4.91943 63.0166-5.83773 64.2174-7.09407 64.9844-8.68848 65.5697-9.9196 65.8623-11.736 65.8623-14.1377ZM78.7129 2.66406 84.0107 3.45117C84.2327 5.08594 84.8483 6.27669 85.8574 7.02344 87.2096 8.03255 89.0563 8.53711 91.3975 8.53711 93.9202 8.53711 95.8678 8.03255 97.2402 7.02344 98.6126 6.01432 99.541 4.60156 100.025 2.78516 100.308 1.67513 100.439-0.655924 100.419-4.20801 98.0374-1.40267 95.0706 0 91.5185 0 87.0986 0 83.6777-1.5944 81.2559-4.7832 78.834-7.972 77.623-11.7965 77.623-16.2568 77.623-19.3245 78.1781-22.1551 79.2881-24.7485 80.3981-27.342 82.0076-29.345 84.1167-30.7578 86.2257-32.1706 88.7031-32.8769 91.5488-32.8769 95.3431-32.8769 98.4713-31.3431 100.934-28.2754L100.934-32.1504 105.959-32.1504 105.959-4.35937C105.959 0.645833 105.449 4.19287 104.43 6.28174 103.411 8.3706 101.796 10.0205 99.5864 11.2314 97.3764 12.4424 94.6569 13.0478 91.4277 13.0479 87.5931 13.0478 84.4951 12.1851 82.1338 10.4595 79.7725 8.73389 78.6322 6.13542 78.7129 2.66406ZM83.2236-16.6504C83.2236-12.4323 84.0612-9.35449 85.7363-7.41699 87.4114-5.47949 89.5104-4.51074 92.0332-4.51074 94.5358-4.51074 96.6348-5.47445 98.3301-7.40185 100.025-9.32926 100.873-12.3516 100.873-16.4687 100.873-20.4043 100-23.3711 98.2544-25.3691 96.5086-27.3672 94.4046-28.3662 91.9424-28.3662 89.5205-28.3662 87.4619-27.3823 85.7666-25.4145 84.0713-23.4468 83.2236-20.5254 83.2236-16.6504ZM136.096-10.3535 141.727-9.65723C140.839-6.36751 139.194-3.81445 136.792-1.99805 134.39-0.181641 131.323 0.726562 127.589 0.726562 122.886 0.726562 119.158-0.721517 116.403-3.61768 113.648-6.51383 112.27-10.5755 112.27-15.8027 112.27-21.2116 113.663-25.4095 116.448-28.3965 119.233-31.3835 122.846-32.8769 127.286-32.8769 131.585-32.8769 135.097-31.4137 137.821-28.4873 140.546-25.5609 141.908-21.4437 141.908-16.1357 141.908-15.8128 141.898-15.3284 141.878-14.6826L117.901-14.6826C118.103-11.1507 119.102-8.44629 120.898-6.56934 122.695-4.69238 124.935-3.75391 127.619-3.75391 129.617-3.75391 131.323-4.27865 132.735-5.32812 134.148-6.3776 135.268-8.05273 136.096-10.3535ZM118.204-19.1631 136.156-19.1631C135.914-21.8675 135.228-23.8958 134.098-25.248 132.362-27.347 130.112-28.3965 127.347-28.3965 124.844-28.3965 122.74-27.5589 121.035-25.8838 119.329-24.2087 118.386-21.9684 118.204-19.1631Z" fill="#FFFFFF" transform="matrix(1 0 0 1 53.1685 168)"/></g></g></g><rect x="1527" y="1196" width="263" height="169" stroke="#FFFFFF" stroke-width="13.75" stroke-linejoin="round" stroke-miterlimit="10" fill="#0070C0"/><text fill="#FFFFFF" font-family="Arial,Arial_MSFontService,sans-serif" font-weight="400" font-size="62" transform="matrix(1 0 0 1 1586.17 1266)">Data</text><text fill="#FFFFFF" font-family="Arial,Arial_MSFontService,sans-serif" font-weight="400" font-size="62" transform="matrix(1 0 0 1 1586.17 1340)">Page</text><g clip-path="url(#clip20)"><g filter="url(#fx6)" transform="translate(772 1477)"><g><rect x="23.0001" y="23.2178" width="263" height="169" stroke="#FFFFFF" stroke-width="14" stroke-linejoin="round" stroke-miterlimit="10" fill="#74B5DE"/></g></g><g clip-path="url(#clip21)" filter="url(#fx7)" transform="translate(801 1476)"><g><path d="M4.7832 0 4.7832-44.3809 20.0713-44.3809C23.5225-44.3809 26.1562-44.1689 27.9727-43.7451 30.5156-43.1598 32.6852-42.1003 34.4814-40.5664 36.8226-38.5885 38.5734-36.0607 39.7339-32.9829 40.8944-29.9051 41.4746-26.3883 41.4746-22.4326 41.4746-19.0622 41.081-16.0752 40.2939-13.4717 39.5068-10.8682 38.4977-8.7137 37.2666-7.0083 36.0355-5.3029 34.6883-3.96077 33.2251-2.98193 31.7619-2.00309 29.9959-1.26139 27.9272-0.756836 25.8586-0.252279 23.4821 0 20.7978 0ZM10.6562-5.2373 20.1318-5.2373C23.0583-5.2373 25.354-5.50976 27.019-6.05469 28.6841-6.59961 30.0111-7.36654 31-8.35547 32.3926-9.74805 33.4774-11.62 34.2544-13.9712 35.0314-16.3224 35.4199-19.1732 35.4199-22.5234 35.4199-27.1654 34.658-30.7326 33.1343-33.2251 31.6105-35.7176 29.7588-37.3877 27.5791-38.2353 26.0049-38.8408 23.472-39.1436 19.9805-39.1436L10.6562-39.1436ZM69.7539-3.96582C67.7357-2.25033 65.7931-1.03939 63.9263-0.333008 62.0594 0.373372 60.0563 0.726562 57.917 0.726562 54.3851 0.726562 51.6706-0.136231 49.7734-1.86182 47.8763-3.5874 46.9277-5.79232 46.9277-8.47656 46.9277-10.0508 47.286-11.4888 48.0024-12.7905 48.7189-14.0923 49.6574-15.1367 50.8179-15.9238 51.9783-16.7109 53.2852-17.3063 54.7383-17.71 55.8079-17.9925 57.4225-18.265 59.582-18.5273 63.9818-19.0521 67.221-19.6777 69.2998-20.4043 69.32-21.151 69.3301-21.6253 69.3301-21.8271 69.3301-24.0472 68.8154-25.6113 67.7861-26.5195 66.3935-27.7506 64.3249-28.3662 61.5801-28.3662 59.0169-28.3662 57.1248-27.9172 55.9038-27.019 54.6828-26.1209 53.7796-24.5316 53.1943-22.251L47.8662-22.9775C48.3506-25.2581 49.1478-27.0998 50.2578-28.5024 51.3678-29.9051 52.9723-30.9849 55.0713-31.7417 57.1702-32.4985 59.6022-32.8769 62.3672-32.8769 65.112-32.8769 67.3421-32.554 69.0576-31.9082 70.7731-31.2624 72.0345-30.45 72.8418-29.4712 73.6491-28.4923 74.2142-27.2562 74.5371-25.7627 74.7187-24.8343 74.8096-23.1592 74.8096-20.7373L74.8096-13.4717C74.8096-8.40592 74.9256-5.20199 75.1577-3.85986 75.3898-2.51774 75.8489-1.23112 76.5351 0L70.8437 0C70.2786-1.13021 69.9154-2.45215 69.7539-3.96582ZM69.2998-16.1357C67.3219-15.3284 64.3551-14.6423 60.3994-14.0771 58.1592-13.7542 56.5749-13.3909 55.6465-12.9873 54.7181-12.5837 54.0016-11.9933 53.4971-11.2163 52.9925-10.4393 52.7402-9.5765 52.7402-8.62793 52.7402-7.1748 53.2902-5.96387 54.3901-4.99512 55.4901-4.02637 57.0996-3.54199 59.2187-3.54199 61.3177-3.54199 63.1846-4.00114 64.8193-4.91943 66.4541-5.83773 67.6549-7.09407 68.4219-8.68848 69.0072-9.9196 69.2998-11.736 69.2998-14.1377ZM95.0469-4.87402 95.834-0.0605469C94.3001 0.26237 92.9277 0.423828 91.7168 0.423828 89.7389 0.423828 88.2051 0.111003 87.1152-0.514648 86.0254-1.1403 85.2585-1.96273 84.8144-2.98193 84.3704-4.00114 84.1484-6.14551 84.1484-9.41504L84.1484-27.9121 80.1523-27.9121 80.1523-32.1504 84.1484-32.1504 84.1484-40.1123 89.5674-43.3818 89.5674-32.1504 95.0469-32.1504 95.0469-27.9121 89.5674-27.9121 89.5674-9.1123C89.5674-7.55827 89.6632-6.55924 89.855-6.11523 90.0467-5.67122 90.3595-5.31803 90.7934-5.05566 91.2274-4.79329 91.848-4.66211 92.6553-4.66211 93.2607-4.66211 94.0579-4.73275 95.0469-4.87402ZM121.316-3.96582C119.298-2.25033 117.356-1.03939 115.489-0.333008 113.622 0.373372 111.619 0.726562 109.479 0.726562 105.948 0.726562 103.233-0.136231 101.336-1.86182 99.4388-3.5874 98.4902-5.79232 98.4902-8.47656 98.4902-10.0508 98.8485-11.4888 99.5649-12.7905 100.281-14.0923 101.22-15.1367 102.38-15.9238 103.541-16.7109 104.848-17.3063 106.301-17.71 107.37-17.9925 108.985-18.265 111.145-18.5273 115.544-19.0521 118.784-19.6777 120.862-20.4043 120.882-21.151 120.893-21.6253 120.893-21.8271 120.893-24.0472 120.378-25.6113 119.349-26.5195 117.956-27.7506 115.887-28.3662 113.143-28.3662 110.579-28.3662 108.687-27.9172 107.466-27.019 106.245-26.1209 105.342-24.5316 104.757-22.251L99.4287-22.9775C99.9131-25.2581 100.71-27.0998 101.82-28.5024 102.93-29.9051 104.535-30.9849 106.634-31.7417 108.733-32.4985 111.165-32.8769 113.93-32.8769 116.674-32.8769 118.905-32.554 120.62-31.9082 122.336-31.2624 123.597-30.45 124.404-29.4712 125.212-28.4923 125.777-27.2562 126.1-25.7627 126.281-24.8343 126.372-23.1592 126.372-20.7373L126.372-13.4717C126.372-8.40592 126.488-5.20199 126.72-3.85986 126.952-2.51774 127.411-1.23112 128.098 0L122.406 0C121.841-1.13021 121.478-2.45215 121.316-3.96582ZM120.862-16.1357C118.884-15.3284 115.918-14.6423 111.962-14.0771 109.722-13.7542 108.137-13.3909 107.209-12.9873 106.281-12.5837 105.564-11.9933 105.06-11.2163 104.555-10.4393 104.303-9.5765 104.303-8.62793 104.303-7.1748 104.853-5.96387 105.953-4.99512 107.053-4.02637 108.662-3.54199 110.781-3.54199 112.88-3.54199 114.747-4.00114 116.382-4.91943 118.017-5.83773 119.217-7.09407 119.984-8.68848 120.57-9.9196 120.862-11.736 120.862-14.1377Z" transform="matrix(1 0 0 1 53.0446 94)"/><path d="M4.7832 0 4.7832-44.3809 21.5244-44.3809C24.471-44.3809 26.7214-44.2396 28.2754-43.957 30.4551-43.5937 32.2816-42.9025 33.7549-41.8833 35.2282-40.8641 36.4139-39.4362 37.312-37.5996 38.2101-35.763 38.6592-33.7448 38.6592-31.5449 38.6592-27.7708 37.4583-24.577 35.0566-21.9634 32.6549-19.3498 28.3158-18.043 22.0391-18.043L10.6562-18.043 10.6562 0ZM10.6562-23.2803 22.1299-23.2803C25.9242-23.2803 28.6185-23.9867 30.2129-25.3994 31.8073-26.8122 32.6045-28.8001 32.6045-31.3633 32.6045-33.22 32.1353-34.8094 31.1968-36.1313 30.2583-37.4533 29.0221-38.3262 27.4883-38.75 26.4993-39.0124 24.6728-39.1436 22.0088-39.1436L10.6562-39.1436ZM66.3164-3.96582C64.2982-2.25033 62.3556-1.03939 60.4888-0.333008 58.6219 0.373372 56.6188 0.726562 54.4795 0.726562 50.9476 0.726562 48.2331-0.136231 46.3359-1.86182 44.4388-3.5874 43.4902-5.79232 43.4902-8.47656 43.4902-10.0508 43.8485-11.4888 44.5649-12.7905 45.2814-14.0923 46.2199-15.1367 47.3804-15.9238 48.5408-16.7109 49.8476-17.3063 51.3008-17.71 52.3704-17.9925 53.985-18.265 56.1445-18.5273 60.5443-19.0521 63.7835-19.6777 65.8623-20.4043 65.8825-21.151 65.8926-21.6253 65.8926-21.8271 65.8926-24.0472 65.3779-25.6113 64.3486-26.5195 62.956-27.7506 60.8874-28.3662 58.1426-28.3662 55.5794-28.3662 53.6873-27.9172 52.4663-27.019 51.2453-26.1209 50.3421-24.5316 49.7568-22.251L44.4287-22.9775C44.9131-25.2581 45.7103-27.0998 46.8203-28.5024 47.9303-29.9051 49.5348-30.9849 51.6338-31.7417 53.7327-32.4985 56.1647-32.8769 58.9297-32.8769 61.6745-32.8769 63.9046-32.554 65.6201-31.9082 67.3356-31.2624 68.597-30.45 69.4043-29.4712 70.2116-28.4923 70.7767-27.2562 71.0996-25.7627 71.2812-24.8343 71.3721-23.1592 71.3721-20.7373L71.3721-13.4717C71.3721-8.40592 71.4881-5.20199 71.7202-3.85986 71.9523-2.51774 72.4115-1.23112 73.0976 0L67.4062 0C66.8411-1.13021 66.4779-2.45215 66.3164-3.96582ZM65.8623-16.1357C63.8844-15.3284 60.9176-14.6423 56.9619-14.0771 54.7217-13.7542 53.1374-13.3909 52.209-12.9873 51.2806-12.5837 50.5641-11.9933 50.0596-11.2163 49.555-10.4393 49.3027-9.5765 49.3027-8.62793 49.3027-7.1748 49.8527-5.96387 50.9526-4.99512 52.0526-4.02637 53.6621-3.54199 55.7812-3.54199 57.8802-3.54199 59.7471-4.00114 61.3818-4.91943 63.0166-5.83773 64.2174-7.09407 64.9844-8.68848 65.5697-9.9196 65.8623-11.736 65.8623-14.1377ZM78.7129 2.66406 84.0107 3.45117C84.2327 5.08594 84.8483 6.27669 85.8574 7.02344 87.2096 8.03255 89.0563 8.53711 91.3975 8.53711 93.9202 8.53711 95.8678 8.03255 97.2402 7.02344 98.6126 6.01432 99.541 4.60156 100.025 2.78516 100.308 1.67513 100.439-0.655924 100.419-4.20801 98.0374-1.40267 95.0706 0 91.5185 0 87.0986 0 83.6777-1.5944 81.2559-4.7832 78.834-7.972 77.623-11.7965 77.623-16.2568 77.623-19.3245 78.1781-22.1551 79.2881-24.7485 80.3981-27.342 82.0076-29.345 84.1167-30.7578 86.2257-32.1706 88.7031-32.8769 91.5488-32.8769 95.3431-32.8769 98.4713-31.3431 100.934-28.2754L100.934-32.1504 105.959-32.1504 105.959-4.35937C105.959 0.645833 105.449 4.19287 104.43 6.28174 103.411 8.3706 101.796 10.0205 99.5864 11.2314 97.3764 12.4424 94.6569 13.0478 91.4277 13.0479 87.5931 13.0478 84.4951 12.1851 82.1338 10.4595 79.7725 8.73389 78.6322 6.13542 78.7129 2.66406ZM83.2236-16.6504C83.2236-12.4323 84.0612-9.35449 85.7363-7.41699 87.4114-5.47949 89.5104-4.51074 92.0332-4.51074 94.5358-4.51074 96.6348-5.47445 98.3301-7.40185 100.025-9.32926 100.873-12.3516 100.873-16.4687 100.873-20.4043 100-23.3711 98.2544-25.3691 96.5086-27.3672 94.4046-28.3662 91.9424-28.3662 89.5205-28.3662 87.4619-27.3823 85.7666-25.4145 84.0713-23.4468 83.2236-20.5254 83.2236-16.6504ZM136.096-10.3535 141.727-9.65723C140.839-6.36751 139.194-3.81445 136.792-1.99805 134.39-0.181641 131.323 0.726562 127.589 0.726562 122.886 0.726562 119.158-0.721517 116.403-3.61768 113.648-6.51383 112.27-10.5755 112.27-15.8027 112.27-21.2116 113.663-25.4095 116.448-28.3965 119.233-31.3835 122.846-32.8769 127.286-32.8769 131.585-32.8769 135.097-31.4137 137.821-28.4873 140.546-25.5609 141.908-21.4437 141.908-16.1357 141.908-15.8128 141.898-15.3284 141.878-14.6826L117.901-14.6826C118.103-11.1507 119.102-8.44629 120.898-6.56934 122.695-4.69238 124.935-3.75391 127.619-3.75391 129.617-3.75391 131.323-4.27865 132.735-5.32812 134.148-6.3776 135.268-8.05273 136.096-10.3535ZM118.204-19.1631 136.156-19.1631C135.914-21.8675 135.228-23.8958 134.098-25.248 132.362-27.347 130.112-28.3965 127.347-28.3965 124.844-28.3965 122.74-27.5589 121.035-25.8838 119.329-24.2087 118.386-21.9684 118.204-19.1631Z" transform="matrix(1 0 0 1 53.0446 168)"/></g></g></g><rect x="795" y="1493" width="263" height="169" stroke="#FFFFFF" stroke-width="13.75" stroke-linejoin="round" stroke-miterlimit="10" fill="#74B5DE"/><text font-family="Arial,Arial_MSFontService,sans-serif" font-weight="400" font-size="62" transform="matrix(1 0 0 1 854.045 1563)">Data</text><text font-family="Arial,Arial_MSFontService,sans-serif" font-weight="400" font-size="62" transform="matrix(1 0 0 1 854.045 1637)">Page</text><g clip-path="url(#clip22)"><g filter="url(#fx8)" transform="translate(1088 1477)"><g><rect x="23" y="23.2178" width="263" height="169" stroke="#FFFFFF" stroke-width="14" stroke-linejoin="round" stroke-miterlimit="10" fill="#74B5DE"/></g></g><g clip-path="url(#clip23)" filter="url(#fx9)" transform="translate(1117 1476)"><g><path d="M4.7832 0 4.7832-44.3809 20.0713-44.3809C23.5225-44.3809 26.1562-44.1689 27.9727-43.7451 30.5156-43.1598 32.6852-42.1003 34.4814-40.5664 36.8226-38.5885 38.5734-36.0607 39.7339-32.9829 40.8944-29.9051 41.4746-26.3883 41.4746-22.4326 41.4746-19.0622 41.081-16.0752 40.2939-13.4717 39.5068-10.8682 38.4977-8.7137 37.2666-7.0083 36.0355-5.3029 34.6883-3.96077 33.2251-2.98193 31.7619-2.00309 29.9959-1.26139 27.9272-0.756836 25.8586-0.252279 23.4821 0 20.7978 0ZM10.6562-5.2373 20.1318-5.2373C23.0583-5.2373 25.354-5.50976 27.019-6.05469 28.6841-6.59961 30.0111-7.36654 31-8.35547 32.3926-9.74805 33.4774-11.62 34.2544-13.9712 35.0314-16.3224 35.4199-19.1732 35.4199-22.5234 35.4199-27.1654 34.658-30.7326 33.1343-33.2251 31.6105-35.7176 29.7588-37.3877 27.5791-38.2353 26.0049-38.8408 23.472-39.1436 19.9805-39.1436L10.6562-39.1436ZM69.7539-3.96582C67.7357-2.25033 65.7931-1.03939 63.9263-0.333008 62.0594 0.373372 60.0563 0.726562 57.917 0.726562 54.3851 0.726562 51.6706-0.136231 49.7734-1.86182 47.8763-3.5874 46.9277-5.79232 46.9277-8.47656 46.9277-10.0508 47.286-11.4888 48.0024-12.7905 48.7189-14.0923 49.6574-15.1367 50.8179-15.9238 51.9783-16.7109 53.2852-17.3063 54.7383-17.71 55.8079-17.9925 57.4225-18.265 59.582-18.5273 63.9818-19.0521 67.221-19.6777 69.2998-20.4043 69.32-21.151 69.3301-21.6253 69.3301-21.8271 69.3301-24.0472 68.8154-25.6113 67.7861-26.5195 66.3935-27.7506 64.3249-28.3662 61.5801-28.3662 59.0169-28.3662 57.1248-27.9172 55.9038-27.019 54.6828-26.1209 53.7796-24.5316 53.1943-22.251L47.8662-22.9775C48.3506-25.2581 49.1478-27.0998 50.2578-28.5024 51.3678-29.9051 52.9723-30.9849 55.0713-31.7417 57.1702-32.4985 59.6022-32.8769 62.3672-32.8769 65.112-32.8769 67.3421-32.554 69.0576-31.9082 70.7731-31.2624 72.0345-30.45 72.8418-29.4712 73.6491-28.4923 74.2142-27.2562 74.5371-25.7627 74.7187-24.8343 74.8096-23.1592 74.8096-20.7373L74.8096-13.4717C74.8096-8.40592 74.9256-5.20199 75.1577-3.85986 75.3898-2.51774 75.8489-1.23112 76.5351 0L70.8437 0C70.2786-1.13021 69.9154-2.45215 69.7539-3.96582ZM69.2998-16.1357C67.3219-15.3284 64.3551-14.6423 60.3994-14.0771 58.1592-13.7542 56.5749-13.3909 55.6465-12.9873 54.7181-12.5837 54.0016-11.9933 53.4971-11.2163 52.9925-10.4393 52.7402-9.5765 52.7402-8.62793 52.7402-7.1748 53.2902-5.96387 54.3901-4.99512 55.4901-4.02637 57.0996-3.54199 59.2187-3.54199 61.3177-3.54199 63.1846-4.00114 64.8193-4.91943 66.4541-5.83773 67.6549-7.09407 68.4219-8.68848 69.0072-9.9196 69.2998-11.736 69.2998-14.1377ZM95.0469-4.87402 95.834-0.0605469C94.3001 0.26237 92.9277 0.423828 91.7168 0.423828 89.7389 0.423828 88.2051 0.111003 87.1152-0.514648 86.0254-1.1403 85.2585-1.96273 84.8144-2.98193 84.3704-4.00114 84.1484-6.14551 84.1484-9.41504L84.1484-27.9121 80.1523-27.9121 80.1523-32.1504 84.1484-32.1504 84.1484-40.1123 89.5674-43.3818 89.5674-32.1504 95.0469-32.1504 95.0469-27.9121 89.5674-27.9121 89.5674-9.1123C89.5674-7.55827 89.6632-6.55924 89.855-6.11523 90.0467-5.67122 90.3595-5.31803 90.7934-5.05566 91.2274-4.79329 91.848-4.66211 92.6553-4.66211 93.2607-4.66211 94.0579-4.73275 95.0469-4.87402ZM121.316-3.96582C119.298-2.25033 117.356-1.03939 115.489-0.333008 113.622 0.373372 111.619 0.726562 109.479 0.726562 105.948 0.726562 103.233-0.136231 101.336-1.86182 99.4388-3.5874 98.4902-5.79232 98.4902-8.47656 98.4902-10.0508 98.8485-11.4888 99.5649-12.7905 100.281-14.0923 101.22-15.1367 102.38-15.9238 103.541-16.7109 104.848-17.3063 106.301-17.71 107.37-17.9925 108.985-18.265 111.145-18.5273 115.544-19.0521 118.784-19.6777 120.862-20.4043 120.882-21.151 120.893-21.6253 120.893-21.8271 120.893-24.0472 120.378-25.6113 119.349-26.5195 117.956-27.7506 115.887-28.3662 113.143-28.3662 110.579-28.3662 108.687-27.9172 107.466-27.019 106.245-26.1209 105.342-24.5316 104.757-22.251L99.4287-22.9775C99.9131-25.2581 100.71-27.0998 101.82-28.5024 102.93-29.9051 104.535-30.9849 106.634-31.7417 108.733-32.4985 111.165-32.8769 113.93-32.8769 116.674-32.8769 118.905-32.554 120.62-31.9082 122.336-31.2624 123.597-30.45 124.404-29.4712 125.212-28.4923 125.777-27.2562 126.1-25.7627 126.281-24.8343 126.372-23.1592 126.372-20.7373L126.372-13.4717C126.372-8.40592 126.488-5.20199 126.72-3.85986 126.952-2.51774 127.411-1.23112 128.098 0L122.406 0C121.841-1.13021 121.478-2.45215 121.316-3.96582ZM120.862-16.1357C118.884-15.3284 115.918-14.6423 111.962-14.0771 109.722-13.7542 108.137-13.3909 107.209-12.9873 106.281-12.5837 105.564-11.9933 105.06-11.2163 104.555-10.4393 104.303-9.5765 104.303-8.62793 104.303-7.1748 104.853-5.96387 105.953-4.99512 107.053-4.02637 108.662-3.54199 110.781-3.54199 112.88-3.54199 114.747-4.00114 116.382-4.91943 118.017-5.83773 119.217-7.09407 119.984-8.68848 120.57-9.9196 120.862-11.736 120.862-14.1377Z" transform="matrix(1 0 0 1 53.1888 94)"/><path d="M4.7832 0 4.7832-44.3809 21.5244-44.3809C24.471-44.3809 26.7214-44.2396 28.2754-43.957 30.4551-43.5937 32.2816-42.9025 33.7549-41.8833 35.2282-40.8641 36.4139-39.4362 37.312-37.5996 38.2101-35.763 38.6592-33.7448 38.6592-31.5449 38.6592-27.7708 37.4583-24.577 35.0566-21.9634 32.6549-19.3498 28.3158-18.043 22.0391-18.043L10.6562-18.043 10.6562 0ZM10.6562-23.2803 22.1299-23.2803C25.9242-23.2803 28.6185-23.9867 30.2129-25.3994 31.8073-26.8122 32.6045-28.8001 32.6045-31.3633 32.6045-33.22 32.1353-34.8094 31.1968-36.1313 30.2583-37.4533 29.0221-38.3262 27.4883-38.75 26.4993-39.0124 24.6728-39.1436 22.0088-39.1436L10.6562-39.1436ZM66.3164-3.96582C64.2982-2.25033 62.3556-1.03939 60.4888-0.333008 58.6219 0.373372 56.6188 0.726562 54.4795 0.726562 50.9476 0.726562 48.2331-0.136231 46.3359-1.86182 44.4388-3.5874 43.4902-5.79232 43.4902-8.47656 43.4902-10.0508 43.8485-11.4888 44.5649-12.7905 45.2814-14.0923 46.2199-15.1367 47.3804-15.9238 48.5408-16.7109 49.8476-17.3063 51.3008-17.71 52.3704-17.9925 53.985-18.265 56.1445-18.5273 60.5443-19.0521 63.7835-19.6777 65.8623-20.4043 65.8825-21.151 65.8926-21.6253 65.8926-21.8271 65.8926-24.0472 65.3779-25.6113 64.3486-26.5195 62.956-27.7506 60.8874-28.3662 58.1426-28.3662 55.5794-28.3662 53.6873-27.9172 52.4663-27.019 51.2453-26.1209 50.3421-24.5316 49.7568-22.251L44.4287-22.9775C44.9131-25.2581 45.7103-27.0998 46.8203-28.5024 47.9303-29.9051 49.5348-30.9849 51.6338-31.7417 53.7327-32.4985 56.1647-32.8769 58.9297-32.8769 61.6745-32.8769 63.9046-32.554 65.6201-31.9082 67.3356-31.2624 68.597-30.45 69.4043-29.4712 70.2116-28.4923 70.7767-27.2562 71.0996-25.7627 71.2812-24.8343 71.3721-23.1592 71.3721-20.7373L71.3721-13.4717C71.3721-8.40592 71.4881-5.20199 71.7202-3.85986 71.9523-2.51774 72.4115-1.23112 73.0976 0L67.4062 0C66.8411-1.13021 66.4779-2.45215 66.3164-3.96582ZM65.8623-16.1357C63.8844-15.3284 60.9176-14.6423 56.9619-14.0771 54.7217-13.7542 53.1374-13.3909 52.209-12.9873 51.2806-12.5837 50.5641-11.9933 50.0596-11.2163 49.555-10.4393 49.3027-9.5765 49.3027-8.62793 49.3027-7.1748 49.8527-5.96387 50.9526-4.99512 52.0526-4.02637 53.6621-3.54199 55.7812-3.54199 57.8802-3.54199 59.7471-4.00114 61.3818-4.91943 63.0166-5.83773 64.2174-7.09407 64.9844-8.68848 65.5697-9.9196 65.8623-11.736 65.8623-14.1377ZM78.7129 2.66406 84.0107 3.45117C84.2327 5.08594 84.8483 6.27669 85.8574 7.02344 87.2096 8.03255 89.0563 8.53711 91.3975 8.53711 93.9202 8.53711 95.8678 8.03255 97.2402 7.02344 98.6126 6.01432 99.541 4.60156 100.025 2.78516 100.308 1.67513 100.439-0.655924 100.419-4.20801 98.0374-1.40267 95.0706 0 91.5185 0 87.0986 0 83.6777-1.5944 81.2559-4.7832 78.834-7.972 77.623-11.7965 77.623-16.2568 77.623-19.3245 78.1781-22.1551 79.2881-24.7485 80.3981-27.342 82.0076-29.345 84.1167-30.7578 86.2257-32.1706 88.7031-32.8769 91.5488-32.8769 95.3431-32.8769 98.4713-31.3431 100.934-28.2754L100.934-32.1504 105.959-32.1504 105.959-4.35937C105.959 0.645833 105.449 4.19287 104.43 6.28174 103.411 8.3706 101.796 10.0205 99.5864 11.2314 97.3764 12.4424 94.6569 13.0478 91.4277 13.0479 87.5931 13.0478 84.4951 12.1851 82.1338 10.4595 79.7725 8.73389 78.6322 6.13542 78.7129 2.66406ZM83.2236-16.6504C83.2236-12.4323 84.0612-9.35449 85.7363-7.41699 87.4114-5.47949 89.5104-4.51074 92.0332-4.51074 94.5358-4.51074 96.6348-5.47445 98.3301-7.40185 100.025-9.32926 100.873-12.3516 100.873-16.4687 100.873-20.4043 100-23.3711 98.2544-25.3691 96.5086-27.3672 94.4046-28.3662 91.9424-28.3662 89.5205-28.3662 87.4619-27.3823 85.7666-25.4145 84.0713-23.4468 83.2236-20.5254 83.2236-16.6504ZM136.096-10.3535 141.727-9.65723C140.839-6.36751 139.194-3.81445 136.792-1.99805 134.39-0.181641 131.323 0.726562 127.589 0.726562 122.886 0.726562 119.158-0.721517 116.403-3.61768 113.648-6.51383 112.27-10.5755 112.27-15.8027 112.27-21.2116 113.663-25.4095 116.448-28.3965 119.233-31.3835 122.846-32.8769 127.286-32.8769 131.585-32.8769 135.097-31.4137 137.821-28.4873 140.546-25.5609 141.908-21.4437 141.908-16.1357 141.908-15.8128 141.898-15.3284 141.878-14.6826L117.901-14.6826C118.103-11.1507 119.102-8.44629 120.898-6.56934 122.695-4.69238 124.935-3.75391 127.619-3.75391 129.617-3.75391 131.323-4.27865 132.735-5.32812 134.148-6.3776 135.268-8.05273 136.096-10.3535ZM118.204-19.1631 136.156-19.1631C135.914-21.8675 135.228-23.8958 134.098-25.248 132.362-27.347 130.112-28.3965 127.347-28.3965 124.844-28.3965 122.74-27.5589 121.035-25.8838 119.329-24.2087 118.386-21.9684 118.204-19.1631Z" transform="matrix(1 0 0 1 53.1888 168)"/></g></g></g><rect x="1111" y="1493" width="263" height="169" stroke="#FFFFFF" stroke-width="13.75" stroke-linejoin="round" stroke-miterlimit="10" fill="#74B5DE"/><text font-family="Arial,Arial_MSFontService,sans-serif" font-weight="400" font-size="62" transform="matrix(1 0 0 1 1170.19 1563)">Data</text><text font-family="Arial,Arial_MSFontService,sans-serif" font-weight="400" font-size="62" transform="matrix(1 0 0 1 1170.19 1637)">Page</text><g clip-path="url(#clip24)"><g filter="url(#fx10)" transform="translate(1504 1477)"><g><rect x="22.9999" y="23.2178" width="263" height="169" stroke="#FFFFFF" stroke-width="14" stroke-linejoin="round" stroke-miterlimit="10" fill="#74B5DE"/></g></g><g clip-path="url(#clip25)" filter="url(#fx11)" transform="translate(1533 1476)"><g><path d="M4.7832 0 4.7832-44.3809 20.0713-44.3809C23.5225-44.3809 26.1562-44.1689 27.9727-43.7451 30.5156-43.1598 32.6852-42.1003 34.4814-40.5664 36.8226-38.5885 38.5734-36.0607 39.7339-32.9829 40.8944-29.9051 41.4746-26.3883 41.4746-22.4326 41.4746-19.0622 41.081-16.0752 40.2939-13.4717 39.5068-10.8682 38.4977-8.7137 37.2666-7.0083 36.0355-5.3029 34.6883-3.96077 33.2251-2.98193 31.7619-2.00309 29.9959-1.26139 27.9272-0.756836 25.8586-0.252279 23.4821 0 20.7978 0ZM10.6562-5.2373 20.1318-5.2373C23.0583-5.2373 25.354-5.50976 27.019-6.05469 28.6841-6.59961 30.0111-7.36654 31-8.35547 32.3926-9.74805 33.4774-11.62 34.2544-13.9712 35.0314-16.3224 35.4199-19.1732 35.4199-22.5234 35.4199-27.1654 34.658-30.7326 33.1343-33.2251 31.6105-35.7176 29.7588-37.3877 27.5791-38.2353 26.0049-38.8408 23.472-39.1436 19.9805-39.1436L10.6562-39.1436ZM69.7539-3.96582C67.7357-2.25033 65.7931-1.03939 63.9263-0.333008 62.0594 0.373372 60.0563 0.726562 57.917 0.726562 54.3851 0.726562 51.6706-0.136231 49.7734-1.86182 47.8763-3.5874 46.9277-5.79232 46.9277-8.47656 46.9277-10.0508 47.286-11.4888 48.0024-12.7905 48.7189-14.0923 49.6574-15.1367 50.8179-15.9238 51.9783-16.7109 53.2852-17.3063 54.7383-17.71 55.8079-17.9925 57.4225-18.265 59.582-18.5273 63.9818-19.0521 67.221-19.6777 69.2998-20.4043 69.32-21.151 69.3301-21.6253 69.3301-21.8271 69.3301-24.0472 68.8154-25.6113 67.7861-26.5195 66.3935-27.7506 64.3249-28.3662 61.5801-28.3662 59.0169-28.3662 57.1248-27.9172 55.9038-27.019 54.6828-26.1209 53.7796-24.5316 53.1943-22.251L47.8662-22.9775C48.3506-25.2581 49.1478-27.0998 50.2578-28.5024 51.3678-29.9051 52.9723-30.9849 55.0713-31.7417 57.1702-32.4985 59.6022-32.8769 62.3672-32.8769 65.112-32.8769 67.3421-32.554 69.0576-31.9082 70.7731-31.2624 72.0345-30.45 72.8418-29.4712 73.6491-28.4923 74.2142-27.2562 74.5371-25.7627 74.7187-24.8343 74.8096-23.1592 74.8096-20.7373L74.8096-13.4717C74.8096-8.40592 74.9256-5.20199 75.1577-3.85986 75.3898-2.51774 75.8489-1.23112 76.5351 0L70.8437 0C70.2786-1.13021 69.9154-2.45215 69.7539-3.96582ZM69.2998-16.1357C67.3219-15.3284 64.3551-14.6423 60.3994-14.0771 58.1592-13.7542 56.5749-13.3909 55.6465-12.9873 54.7181-12.5837 54.0016-11.9933 53.4971-11.2163 52.9925-10.4393 52.7402-9.5765 52.7402-8.62793 52.7402-7.1748 53.2902-5.96387 54.3901-4.99512 55.4901-4.02637 57.0996-3.54199 59.2187-3.54199 61.3177-3.54199 63.1846-4.00114 64.8193-4.91943 66.4541-5.83773 67.6549-7.09407 68.4219-8.68848 69.0072-9.9196 69.2998-11.736 69.2998-14.1377ZM95.0469-4.87402 95.834-0.0605469C94.3001 0.26237 92.9277 0.423828 91.7168 0.423828 89.7389 0.423828 88.2051 0.111003 87.1152-0.514648 86.0254-1.1403 85.2585-1.96273 84.8144-2.98193 84.3704-4.00114 84.1484-6.14551 84.1484-9.41504L84.1484-27.9121 80.1523-27.9121 80.1523-32.1504 84.1484-32.1504 84.1484-40.1123 89.5674-43.3818 89.5674-32.1504 95.0469-32.1504 95.0469-27.9121 89.5674-27.9121 89.5674-9.1123C89.5674-7.55827 89.6632-6.55924 89.855-6.11523 90.0467-5.67122 90.3595-5.31803 90.7934-5.05566 91.2274-4.79329 91.848-4.66211 92.6553-4.66211 93.2607-4.66211 94.0579-4.73275 95.0469-4.87402ZM121.316-3.96582C119.298-2.25033 117.356-1.03939 115.489-0.333008 113.622 0.373372 111.619 0.726562 109.479 0.726562 105.948 0.726562 103.233-0.136231 101.336-1.86182 99.4388-3.5874 98.4902-5.79232 98.4902-8.47656 98.4902-10.0508 98.8485-11.4888 99.5649-12.7905 100.281-14.0923 101.22-15.1367 102.38-15.9238 103.541-16.7109 104.848-17.3063 106.301-17.71 107.37-17.9925 108.985-18.265 111.145-18.5273 115.544-19.0521 118.784-19.6777 120.862-20.4043 120.882-21.151 120.893-21.6253 120.893-21.8271 120.893-24.0472 120.378-25.6113 119.349-26.5195 117.956-27.7506 115.887-28.3662 113.143-28.3662 110.579-28.3662 108.687-27.9172 107.466-27.019 106.245-26.1209 105.342-24.5316 104.757-22.251L99.4287-22.9775C99.9131-25.2581 100.71-27.0998 101.82-28.5024 102.93-29.9051 104.535-30.9849 106.634-31.7417 108.733-32.4985 111.165-32.8769 113.93-32.8769 116.674-32.8769 118.905-32.554 120.62-31.9082 122.336-31.2624 123.597-30.45 124.404-29.4712 125.212-28.4923 125.777-27.2562 126.1-25.7627 126.281-24.8343 126.372-23.1592 126.372-20.7373L126.372-13.4717C126.372-8.40592 126.488-5.20199 126.72-3.85986 126.952-2.51774 127.411-1.23112 128.098 0L122.406 0C121.841-1.13021 121.478-2.45215 121.316-3.96582ZM120.862-16.1357C118.884-15.3284 115.918-14.6423 111.962-14.0771 109.722-13.7542 108.137-13.3909 107.209-12.9873 106.281-12.5837 105.564-11.9933 105.06-11.2163 104.555-10.4393 104.303-9.5765 104.303-8.62793 104.303-7.1748 104.853-5.96387 105.953-4.99512 107.053-4.02637 108.662-3.54199 110.781-3.54199 112.88-3.54199 114.747-4.00114 116.382-4.91943 118.017-5.83773 119.217-7.09407 119.984-8.68848 120.57-9.9196 120.862-11.736 120.862-14.1377Z" transform="matrix(1 0 0 1 53.1685 94)"/><path d="M4.7832 0 4.7832-44.3809 21.5244-44.3809C24.471-44.3809 26.7214-44.2396 28.2754-43.957 30.4551-43.5937 32.2816-42.9025 33.7549-41.8833 35.2282-40.8641 36.4139-39.4362 37.312-37.5996 38.2101-35.763 38.6592-33.7448 38.6592-31.5449 38.6592-27.7708 37.4583-24.577 35.0566-21.9634 32.6549-19.3498 28.3158-18.043 22.0391-18.043L10.6562-18.043 10.6562 0ZM10.6562-23.2803 22.1299-23.2803C25.9242-23.2803 28.6185-23.9867 30.2129-25.3994 31.8073-26.8122 32.6045-28.8001 32.6045-31.3633 32.6045-33.22 32.1353-34.8094 31.1968-36.1313 30.2583-37.4533 29.0221-38.3262 27.4883-38.75 26.4993-39.0124 24.6728-39.1436 22.0088-39.1436L10.6562-39.1436ZM66.3164-3.96582C64.2982-2.25033 62.3556-1.03939 60.4888-0.333008 58.6219 0.373372 56.6188 0.726562 54.4795 0.726562 50.9476 0.726562 48.2331-0.136231 46.3359-1.86182 44.4388-3.5874 43.4902-5.79232 43.4902-8.47656 43.4902-10.0508 43.8485-11.4888 44.5649-12.7905 45.2814-14.0923 46.2199-15.1367 47.3804-15.9238 48.5408-16.7109 49.8476-17.3063 51.3008-17.71 52.3704-17.9925 53.985-18.265 56.1445-18.5273 60.5443-19.0521 63.7835-19.6777 65.8623-20.4043 65.8825-21.151 65.8926-21.6253 65.8926-21.8271 65.8926-24.0472 65.3779-25.6113 64.3486-26.5195 62.956-27.7506 60.8874-28.3662 58.1426-28.3662 55.5794-28.3662 53.6873-27.9172 52.4663-27.019 51.2453-26.1209 50.3421-24.5316 49.7568-22.251L44.4287-22.9775C44.9131-25.2581 45.7103-27.0998 46.8203-28.5024 47.9303-29.9051 49.5348-30.9849 51.6338-31.7417 53.7327-32.4985 56.1647-32.8769 58.9297-32.8769 61.6745-32.8769 63.9046-32.554 65.6201-31.9082 67.3356-31.2624 68.597-30.45 69.4043-29.4712 70.2116-28.4923 70.7767-27.2562 71.0996-25.7627 71.2812-24.8343 71.3721-23.1592 71.3721-20.7373L71.3721-13.4717C71.3721-8.40592 71.4881-5.20199 71.7202-3.85986 71.9523-2.51774 72.4115-1.23112 73.0976 0L67.4062 0C66.8411-1.13021 66.4779-2.45215 66.3164-3.96582ZM65.8623-16.1357C63.8844-15.3284 60.9176-14.6423 56.9619-14.0771 54.7217-13.7542 53.1374-13.3909 52.209-12.9873 51.2806-12.5837 50.5641-11.9933 50.0596-11.2163 49.555-10.4393 49.3027-9.5765 49.3027-8.62793 49.3027-7.1748 49.8527-5.96387 50.9526-4.99512 52.0526-4.02637 53.6621-3.54199 55.7812-3.54199 57.8802-3.54199 59.7471-4.00114 61.3818-4.91943 63.0166-5.83773 64.2174-7.09407 64.9844-8.68848 65.5697-9.9196 65.8623-11.736 65.8623-14.1377ZM78.7129 2.66406 84.0107 3.45117C84.2327 5.08594 84.8483 6.27669 85.8574 7.02344 87.2096 8.03255 89.0563 8.53711 91.3975 8.53711 93.9202 8.53711 95.8678 8.03255 97.2402 7.02344 98.6126 6.01432 99.541 4.60156 100.025 2.78516 100.308 1.67513 100.439-0.655924 100.419-4.20801 98.0374-1.40267 95.0706 0 91.5185 0 87.0986 0 83.6777-1.5944 81.2559-4.7832 78.834-7.972 77.623-11.7965 77.623-16.2568 77.623-19.3245 78.1781-22.1551 79.2881-24.7485 80.3981-27.342 82.0076-29.345 84.1167-30.7578 86.2257-32.1706 88.7031-32.8769 91.5488-32.8769 95.3431-32.8769 98.4713-31.3431 100.934-28.2754L100.934-32.1504 105.959-32.1504 105.959-4.35937C105.959 0.645833 105.449 4.19287 104.43 6.28174 103.411 8.3706 101.796 10.0205 99.5864 11.2314 97.3764 12.4424 94.6569 13.0478 91.4277 13.0479 87.5931 13.0478 84.4951 12.1851 82.1338 10.4595 79.7725 8.73389 78.6322 6.13542 78.7129 2.66406ZM83.2236-16.6504C83.2236-12.4323 84.0612-9.35449 85.7363-7.41699 87.4114-5.47949 89.5104-4.51074 92.0332-4.51074 94.5358-4.51074 96.6348-5.47445 98.3301-7.40185 100.025-9.32926 100.873-12.3516 100.873-16.4687 100.873-20.4043 100-23.3711 98.2544-25.3691 96.5086-27.3672 94.4046-28.3662 91.9424-28.3662 89.5205-28.3662 87.4619-27.3823 85.7666-25.4145 84.0713-23.4468 83.2236-20.5254 83.2236-16.6504ZM136.096-10.3535 141.727-9.65723C140.839-6.36751 139.194-3.81445 136.792-1.99805 134.39-0.181641 131.323 0.726562 127.589 0.726562 122.886 0.726562 119.158-0.721517 116.403-3.61768 113.648-6.51383 112.27-10.5755 112.27-15.8027 112.27-21.2116 113.663-25.4095 116.448-28.3965 119.233-31.3835 122.846-32.8769 127.286-32.8769 131.585-32.8769 135.097-31.4137 137.821-28.4873 140.546-25.5609 141.908-21.4437 141.908-16.1357 141.908-15.8128 141.898-15.3284 141.878-14.6826L117.901-14.6826C118.103-11.1507 119.102-8.44629 120.898-6.56934 122.695-4.69238 124.935-3.75391 127.619-3.75391 129.617-3.75391 131.323-4.27865 132.735-5.32812 134.148-6.3776 135.268-8.05273 136.096-10.3535ZM118.204-19.1631 136.156-19.1631C135.914-21.8675 135.228-23.8958 134.098-25.248 132.362-27.347 130.112-28.3965 127.347-28.3965 124.844-28.3965 122.74-27.5589 121.035-25.8838 119.329-24.2087 118.386-21.9684 118.204-19.1631Z" transform="matrix(1 0 0 1 53.1685 168)"/></g></g></g><rect x="1527" y="1493" width="263" height="169" stroke="#FFFFFF" stroke-width="13.75" stroke-linejoin="round" stroke-miterlimit="10" fill="#74B5DE"/><text font-family="Arial,Arial_MSFontService,sans-serif" font-weight="400" font-size="62" transform="matrix(1 0 0 1 1586.17 1563)">Data</text><text font-family="Arial,Arial_MSFontService,sans-serif" font-weight="400" font-size="62" transform="matrix(1 0 0 1 1586.17 1637)">Page</text><g clip-path="url(#clip26)"><g filter="url(#fx12)" transform="translate(472 1336)"><g><rect x="23" y="23.2178" width="263" height="169" stroke="#FFFFFF" stroke-width="14" stroke-linejoin="round" stroke-miterlimit="10" fill="#95A5A6"/></g></g></g><rect x="495" y="1352" width="263" height="169" stroke="#FFFFFF" stroke-width="13.75" stroke-linejoin="round" stroke-miterlimit="10" fill="#95A5A6"/><text fill="#FFFFFF" font-family="Arial,Arial_MSFontService,sans-serif" font-weight="400" font-size="62" transform="matrix(1 0 0 1 524.107 1434)">Header</text><text fill="#FFFFFF" font-family="Arial,Arial_MSFontService,sans-serif" font-weight="400" font-size="62" transform="matrix(1 0 0 1 553.326 1508)">Page</text><path d="M658.217 1351.3 658.901 1343.34C658.912 1343.21 658.934 1343.09 658.966 1342.96L660.974 1335.23C661.005 1335.11 661.045 1335 661.093 1334.89L664.359 1327.42C664.404 1327.32 664.455 1327.23 664.513 1327.13L668.971 1319.98 674.726 1312.92 681.546 1306.3 689.357 1300.15 698.087 1294.49 707.669 1289.36 718.037 1284.79 729.126 1280.82 740.869 1277.48 753.202 1274.81 765.365 1272.96C766.616 1272.77 767.784 1273.63 767.975 1274.88 768.165 1276.13 767.305 1277.3 766.054 1277.49L754.169 1279.29 742.12 1281.89 730.669 1285.14 719.883 1288.99 709.83 1293.4 700.576 1298.34 692.189 1303.75 684.733 1309.6 678.271 1315.83 672.861 1322.4 668.404 1329.55 668.558 1329.26 665.292 1336.73 665.411 1336.38 663.402 1344.12 663.467 1343.74 662.783 1351.7C662.675 1352.96 661.565 1353.89 660.304 1353.78 659.043 1353.68 658.108 1352.56 658.217 1351.3ZM765.709 1275.22 746.55 1262.65 793.155 1273.5 748.274 1290.1Z" fill="#CF0E30"/><path d="M915.167 1365.19 907.337 1375.24 898.95 1384.62 890.168 1393.19 881.061 1400.91 871.698 1407.77 862.147 1413.73 852.478 1418.78 842.757 1422.87 833.054 1425.99 823.436 1428.1 813.97 1429.18 804.726 1429.19 797.919 1428.36C796.663 1428.2 795.771 1427.06 795.927 1425.8 796.083 1424.54 797.228 1423.65 798.484 1423.81L804.73 1424.6 813.458 1424.62 822.457 1423.62 831.656 1421.62 840.981 1418.65 850.361 1414.71 859.722 1409.85 868.991 1404.07 878.098 1397.42 886.969 1389.9 895.534 1381.56 903.721 1372.42 911.552 1362.37C912.33 1361.37 913.77 1361.19 914.768 1361.97 915.766 1362.75 915.945 1364.19 915.167 1365.19ZM798.201 1426.08 810.142 1445.64 772.655 1415.9 820.322 1420.1Z" fill="#2980B9"/><path d="M991.222 1189.93 991.763 1185.66C991.783 1185.5 991.819 1185.34 991.872 1185.19L993.315 1181.04C993.362 1180.91 993.421 1180.78 993.492 1180.65L995.793 1176.65C995.854 1176.54 995.923 1176.44 996 1176.35L999.112 1172.51 1003.2 1168.64 1008 1165.03 1013.45 1161.7 1019.52 1158.65 1026.16 1155.89 1033.32 1153.44 1040.97 1151.32 1049.06 1149.53 1057.55 1148.11 1066.39 1147.07 1075.53 1146.43 1084.95 1146.21 1094.41 1146.43 1103.6 1147.07 1112.48 1148.11 1120.99 1149.54 1129.11 1151.34 1136.77 1153.47 1143.95 1155.93 1150.58 1158.7 1156.64 1161.76 1162.07 1165.09 1166.44 1168.38C1167.45 1169.14 1167.65 1170.58 1166.89 1171.59 1166.13 1172.6 1164.69 1172.8 1163.68 1172.03L1159.67 1168.99 1154.57 1165.85 1148.82 1162.93 1142.46 1160.27 1135.54 1157.89 1128.12 1155.81 1120.23 1154.06 1111.94 1152.67 1103.28 1151.64 1094.3 1151.01 1085.05 1150.79 1075.85 1151 1066.92 1151.62 1058.3 1152.63 1050.05 1154.01 1042.2 1155.73 1034.8 1157.78 1027.91 1160.13 1021.57 1162.75 1015.83 1165.62 1010.74 1168.7 1006.34 1171.98 1002.67 1175.4 999.559 1179.24 999.766 1178.93 997.466 1182.94 997.644 1182.55 996.201 1186.7 996.31 1186.23 995.769 1190.51C995.611 1191.76 994.464 1192.65 993.208 1192.49 991.953 1192.33 991.063 1191.19 991.222 1189.93ZM1165.06 1170.21 1170.51 1147.95 1175.86 1195.5 1145.22 1158.75Z" fill="#CF0E30"/><path d="M1195.79 1371.65 1195.79 1371.97 1195.31 1376.5C1195.29 1376.66 1195.25 1376.82 1195.2 1376.98L1193.81 1381.1C1193.77 1381.24 1193.71 1381.37 1193.63 1381.5L1191.38 1385.47C1191.32 1385.58 1191.25 1385.69 1191.17 1385.78L1188.09 1389.59 1184.03 1393.45 1179.24 1397.04 1173.79 1400.36 1167.72 1403.4 1161.08 1406.14 1153.89 1408.58 1146.22 1410.7 1138.1 1412.48 1129.58 1413.9 1120.71 1414.93 1111.51 1415.57 1102.05 1415.79 1092.59 1415.58 1083.4 1414.94 1074.52 1413.91 1066.01 1412.5 1057.9 1410.73 1050.23 1408.62 1043.06 1406.19 1036.43 1403.46 1030.37 1400.45 1024.94 1397.16 1020.38 1393.77C1019.36 1393.02 1019.16 1391.58 1019.91 1390.57 1020.67 1389.55 1022.11 1389.34 1023.12 1390.1L1027.31 1393.24 1032.42 1396.35 1038.17 1399.23 1044.53 1401.85 1051.45 1404.2 1058.87 1406.25 1066.76 1407.98 1075.06 1409.36 1083.72 1410.37 1092.7 1410.99 1101.95 1411.21 1111.2 1411 1120.17 1410.38 1128.83 1409.37 1137.13 1408 1145.01 1406.28 1152.42 1404.24 1159.33 1401.91 1165.68 1399.3 1171.42 1396.44 1176.5 1393.37 1180.89 1390.11 1184.53 1386.72 1187.6 1382.9 1187.39 1383.21 1189.65 1379.24 1189.47 1379.64 1190.86 1375.52 1190.75 1375.99 1191.21 1372.03 1191.2 1371.71C1191.19 1370.44 1192.2 1369.4 1193.47 1369.39 1194.73 1369.37 1195.77 1370.38 1195.79 1371.65ZM1021.75 1391.94 1015.99 1414.12 1011.3 1366.5 1041.43 1403.67Z" fill="#2980B9"/><path d="M1241.22 1189.93 1241.76 1185.66C1241.78 1185.5 1241.82 1185.34 1241.87 1185.19L1243.31 1181.04C1243.36 1180.91 1243.42 1180.78 1243.49 1180.65L1245.79 1176.65C1245.85 1176.54 1245.92 1176.44 1246 1176.35L1249.11 1172.51 1253.2 1168.64 1258 1165.03 1263.45 1161.7 1269.52 1158.65 1276.16 1155.89 1283.32 1153.44 1290.97 1151.32 1299.06 1149.53 1307.55 1148.11 1316.39 1147.07 1325.53 1146.43 1334.95 1146.21 1344.41 1146.43 1353.6 1147.07 1362.48 1148.11 1370.99 1149.54 1379.11 1151.34 1386.77 1153.47 1393.95 1155.93 1400.58 1158.7 1406.64 1161.76 1412.07 1165.09 1416.44 1168.38C1417.45 1169.14 1417.65 1170.58 1416.89 1171.59 1416.13 1172.6 1414.69 1172.8 1413.68 1172.03L1409.67 1168.99 1404.57 1165.85 1398.82 1162.93 1392.46 1160.27 1385.54 1157.89 1378.12 1155.81 1370.23 1154.06 1361.94 1152.67 1353.28 1151.64 1344.3 1151.01 1335.05 1150.79 1325.85 1151 1316.92 1151.62 1308.3 1152.63 1300.05 1154.01 1292.2 1155.73 1284.8 1157.78 1277.91 1160.13 1271.57 1162.75 1265.83 1165.62 1260.74 1168.7 1256.34 1171.98 1252.67 1175.4 1249.56 1179.24 1249.77 1178.93 1247.47 1182.94 1247.64 1182.55 1246.2 1186.7 1246.31 1186.23 1245.77 1190.51C1245.61 1191.76 1244.46 1192.65 1243.21 1192.49 1241.95 1192.33 1241.06 1191.19 1241.22 1189.93ZM1415.06 1170.21 1420.51 1147.95 1425.86 1195.5 1395.22 1158.75Z" fill="#CF0E30"/><path d="M1444.79 1371.65 1444.79 1371.97 1444.31 1376.5C1444.29 1376.66 1444.25 1376.82 1444.2 1376.98L1442.81 1381.1C1442.77 1381.24 1442.71 1381.37 1442.63 1381.5L1440.38 1385.47C1440.32 1385.58 1440.25 1385.69 1440.17 1385.78L1437.09 1389.59 1433.03 1393.45 1428.24 1397.04 1422.79 1400.36 1416.72 1403.4 1410.08 1406.14 1402.89 1408.58 1395.22 1410.7 1387.1 1412.48 1378.58 1413.9 1369.71 1414.93 1360.51 1415.57 1351.05 1415.79 1341.59 1415.58 1332.4 1414.94 1323.52 1413.91 1315.01 1412.5 1306.9 1410.73 1299.23 1408.62 1292.06 1406.19 1285.43 1403.46 1279.37 1400.45 1273.94 1397.16 1269.38 1393.77C1268.36 1393.02 1268.16 1391.58 1268.91 1390.57 1269.67 1389.55 1271.11 1389.34 1272.12 1390.1L1276.31 1393.24 1281.42 1396.35 1287.17 1399.23 1293.53 1401.85 1300.45 1404.2 1307.87 1406.25 1315.76 1407.98 1324.06 1409.36 1332.72 1410.37 1341.7 1410.99 1350.95 1411.21 1360.2 1411 1369.17 1410.38 1377.83 1409.37 1386.13 1408 1394 1406.28 1401.42 1404.24 1408.33 1401.91 1414.68 1399.3 1420.42 1396.44 1425.5 1393.37 1429.89 1390.11 1433.53 1386.72 1436.6 1382.9 1436.39 1383.21 1438.65 1379.24 1438.47 1379.64 1439.86 1375.52 1439.75 1375.99 1440.21 1372.03 1440.2 1371.71C1440.19 1370.44 1441.2 1369.4 1442.47 1369.39 1443.73 1369.37 1444.77 1370.38 1444.79 1371.65ZM1270.75 1391.94 1264.99 1414.12 1260.3 1366.5 1290.43 1403.67Z" fill="#2980B9"/><path d="M1490.22 1189.93 1490.76 1185.66C1490.78 1185.5 1490.82 1185.34 1490.87 1185.19L1492.31 1181.04C1492.36 1180.91 1492.42 1180.78 1492.49 1180.65L1494.79 1176.65C1494.85 1176.54 1494.92 1176.44 1495 1176.35L1498.11 1172.51 1502.2 1168.64 1507 1165.03 1512.45 1161.7 1518.52 1158.65 1525.16 1155.89 1532.32 1153.44 1539.97 1151.32 1548.06 1149.53 1556.55 1148.11 1565.39 1147.07 1574.53 1146.43 1583.95 1146.21 1593.41 1146.43 1602.6 1147.07 1611.48 1148.11 1619.99 1149.54 1628.11 1151.34 1635.77 1153.47 1642.95 1155.93 1649.58 1158.7 1655.64 1161.76 1661.07 1165.09 1665.44 1168.38C1666.45 1169.14 1666.65 1170.58 1665.89 1171.59 1665.13 1172.6 1663.69 1172.8 1662.68 1172.03L1658.67 1168.99 1653.57 1165.85 1647.82 1162.93 1641.46 1160.27 1634.54 1157.89 1627.12 1155.81 1619.23 1154.06 1610.94 1152.67 1602.28 1151.64 1593.3 1151.01 1584.05 1150.79 1574.85 1151 1565.92 1151.62 1557.3 1152.63 1549.05 1154.01 1541.2 1155.73 1533.8 1157.78 1526.91 1160.13 1520.57 1162.75 1514.84 1165.62 1509.74 1168.7 1505.34 1171.98 1501.67 1175.4 1498.56 1179.24 1498.77 1178.93 1496.47 1182.94 1496.64 1182.55 1495.2 1186.7 1495.31 1186.23 1494.77 1190.51C1494.61 1191.76 1493.46 1192.65 1492.21 1192.49 1490.95 1192.33 1490.06 1191.19 1490.22 1189.93ZM1664.06 1170.21 1669.51 1147.95 1674.86 1195.5 1644.22 1158.75Z" fill="#CF0E30"/><path d="M1694.79 1371.65 1694.79 1371.97 1694.31 1376.5C1694.29 1376.66 1694.25 1376.82 1694.2 1376.98L1692.81 1381.1C1692.77 1381.24 1692.71 1381.37 1692.63 1381.5L1690.38 1385.47C1690.32 1385.58 1690.25 1385.69 1690.17 1385.78L1687.09 1389.59 1683.03 1393.45 1678.24 1397.04 1672.79 1400.36 1666.72 1403.4 1660.08 1406.14 1652.89 1408.58 1645.22 1410.7 1637.1 1412.48 1628.58 1413.9 1619.71 1414.93 1610.51 1415.57 1601.05 1415.79 1591.59 1415.58 1582.4 1414.94 1573.52 1413.91 1565.01 1412.5 1556.9 1410.73 1549.23 1408.62 1542.06 1406.19 1535.43 1403.46 1529.37 1400.45 1523.94 1397.16 1519.38 1393.77C1518.36 1393.02 1518.16 1391.58 1518.91 1390.57 1519.67 1389.55 1521.11 1389.34 1522.12 1390.1L1526.31 1393.24 1531.42 1396.35 1537.17 1399.23 1543.53 1401.85 1550.45 1404.2 1557.87 1406.25 1565.76 1407.98 1574.06 1409.36 1582.72 1410.37 1591.7 1410.99 1600.95 1411.21 1610.2 1411 1619.17 1410.38 1627.83 1409.37 1636.13 1408 1644.01 1406.28 1651.42 1404.24 1658.33 1401.91 1664.68 1399.3 1670.42 1396.44 1675.5 1393.37 1679.89 1390.11 1683.53 1386.72 1686.6 1382.9 1686.39 1383.21 1688.65 1379.24 1688.47 1379.64 1689.86 1375.52 1689.75 1375.99 1690.21 1372.03 1690.2 1371.71C1690.19 1370.44 1691.2 1369.4 1692.47 1369.39 1693.73 1369.37 1694.77 1370.38 1694.79 1371.65ZM1520.75 1391.94 1514.99 1414.12 1510.3 1366.5 1540.43 1403.67Z" fill="#2980B9"/><path d="M991.223 1486.04 991.763 1481.85C991.784 1481.69 991.822 1481.53 991.877 1481.38L993.32 1477.32C993.368 1477.18 993.43 1477.05 993.503 1476.93L995.803 1473.01C995.866 1472.9 995.937 1472.8 996.015 1472.71L999.127 1468.95 1003.22 1465.16 1008.02 1461.63 1013.47 1458.37 1019.54 1455.38 1026.17 1452.68 1033.34 1450.29 1040.98 1448.21 1049.07 1446.46 1057.55 1445.07 1066.39 1444.05 1075.54 1443.42 1084.95 1443.21 1094.41 1443.42 1103.6 1444.05 1112.47 1445.07 1120.99 1446.47 1129.1 1448.23 1136.76 1450.32 1143.93 1452.73 1150.57 1455.43 1156.62 1458.42 1162.05 1461.68 1165.97 1464.57C1166.99 1465.32 1167.2 1466.75 1166.45 1467.77 1165.69 1468.79 1164.26 1469 1163.24 1468.25L1159.69 1465.61 1154.59 1462.53 1148.83 1459.67 1142.47 1457.07 1135.55 1454.74 1128.13 1452.71 1120.24 1451 1111.94 1449.63 1103.28 1448.62 1094.3 1448 1085.05 1447.79 1075.85 1448 1066.91 1448.6 1058.29 1449.59 1050.04 1450.94 1042.19 1452.63 1034.79 1454.63 1027.9 1456.93 1021.56 1459.5 1015.82 1462.31 1010.72 1465.33 1006.32 1468.53 1002.66 1471.88 999.544 1475.63 999.756 1475.33 997.455 1479.25 997.639 1478.85 996.195 1482.91 996.309 1482.44 995.768 1486.62C995.606 1487.88 994.457 1488.77 993.202 1488.6 991.947 1488.44 991.061 1487.29 991.223 1486.04ZM1164.6 1466.41 1169.65 1444.05 1175.86 1491.5 1144.56 1455.31Z" fill="#063DE8"/><path d="M1195.79 1668.54 1195.79 1668.86 1195.3 1673.3C1195.29 1673.46 1195.25 1673.63 1195.19 1673.78L1193.81 1677.82C1193.76 1677.96 1193.7 1678.09 1193.62 1678.22L1191.37 1682.11C1191.31 1682.22 1191.23 1682.32 1191.15 1682.42L1188.08 1686.15 1184.01 1689.93 1179.22 1693.44 1173.78 1696.69 1167.71 1699.66 1161.06 1702.35 1153.88 1704.74 1146.21 1706.81 1138.09 1708.55 1129.58 1709.94 1120.7 1710.95 1111.51 1711.58 1102.05 1711.79 1092.59 1711.58 1083.4 1710.96 1074.53 1709.95 1066.02 1708.57 1057.91 1706.84 1050.24 1704.78 1043.07 1702.4 1036.44 1699.73 1030.39 1696.78 1024.96 1693.56 1020.87 1690.59C1019.85 1689.84 1019.62 1688.41 1020.37 1687.39 1021.12 1686.37 1022.55 1686.14 1023.57 1686.89L1027.3 1689.62 1032.4 1692.66 1038.16 1695.48 1044.52 1698.05 1051.44 1700.35 1058.86 1702.36 1066.75 1704.05 1075.05 1705.4 1083.71 1706.39 1092.7 1707 1101.95 1707.21 1111.2 1707 1120.18 1706.4 1128.84 1705.41 1137.14 1704.07 1145.02 1702.39 1152.44 1700.39 1159.34 1698.1 1165.69 1695.55 1171.44 1692.75 1176.52 1689.74 1180.9 1686.56 1184.54 1683.24 1187.62 1679.51 1187.4 1679.81 1189.66 1675.92 1189.47 1676.33 1190.86 1672.29 1190.75 1672.78 1191.21 1668.92 1191.2 1668.6C1191.19 1667.33 1192.2 1666.29 1193.47 1666.28 1194.73 1666.26 1195.77 1667.27 1195.79 1668.54ZM1022.22 1688.74 1016.88 1711.02 1011.3 1663.5 1042.12 1700.11Z" fill="#B760F9"/><path d="M1241.22 1486.04 1241.76 1481.85C1241.78 1481.69 1241.82 1481.53 1241.88 1481.38L1243.32 1477.32C1243.37 1477.18 1243.43 1477.05 1243.5 1476.93L1245.8 1473.01C1245.87 1472.9 1245.94 1472.8 1246.02 1472.71L1249.13 1468.95 1253.22 1465.16 1258.02 1461.63 1263.47 1458.37 1269.54 1455.38 1276.17 1452.68 1283.34 1450.29 1290.98 1448.21 1299.07 1446.46 1307.55 1445.07 1316.39 1444.05 1325.54 1443.42 1334.95 1443.21 1344.41 1443.42 1353.6 1444.05 1362.47 1445.07 1370.99 1446.47 1379.1 1448.23 1386.76 1450.32 1393.93 1452.73 1400.57 1455.43 1406.62 1458.42 1412.05 1461.68 1415.97 1464.57C1416.99 1465.32 1417.2 1466.75 1416.45 1467.77 1415.69 1468.79 1414.26 1469 1413.24 1468.25L1409.69 1465.61 1404.59 1462.53 1398.83 1459.67 1392.47 1457.07 1385.55 1454.74 1378.13 1452.71 1370.24 1451 1361.94 1449.63 1353.28 1448.62 1344.3 1448 1335.05 1447.79 1325.85 1448 1316.91 1448.6 1308.29 1449.59 1300.04 1450.94 1292.18 1452.63 1284.79 1454.63 1277.9 1456.93 1271.56 1459.5 1265.82 1462.31 1260.72 1465.33 1256.32 1468.53 1252.66 1471.88 1249.54 1475.63 1249.76 1475.33 1247.46 1479.25 1247.64 1478.85 1246.2 1482.91 1246.31 1482.44 1245.77 1486.62C1245.61 1487.88 1244.46 1488.77 1243.2 1488.6 1241.95 1488.44 1241.06 1487.29 1241.22 1486.04ZM1414.6 1466.41 1419.65 1444.05 1425.86 1491.5 1394.56 1455.31Z" fill="#063DE8"/><path d="M1444.79 1668.54 1444.79 1668.86 1444.3 1673.3C1444.29 1673.46 1444.25 1673.63 1444.19 1673.78L1442.81 1677.82C1442.76 1677.96 1442.7 1678.09 1442.62 1678.22L1440.37 1682.11C1440.31 1682.22 1440.23 1682.32 1440.15 1682.42L1437.08 1686.15 1433.01 1689.93 1428.22 1693.44 1422.77 1696.69 1416.71 1699.66 1410.06 1702.35 1402.88 1704.74 1395.21 1706.81 1387.09 1708.55 1378.58 1709.94 1369.7 1710.95 1360.51 1711.58 1351.05 1711.79 1341.59 1711.58 1332.4 1710.96 1323.53 1709.95 1315.02 1708.57 1306.91 1706.84 1299.24 1704.78 1292.07 1702.4 1285.44 1699.73 1279.39 1696.78 1273.96 1693.56 1269.87 1690.59C1268.85 1689.84 1268.62 1688.41 1269.37 1687.39 1270.12 1686.37 1271.55 1686.14 1272.57 1686.89L1276.3 1689.62 1281.4 1692.66 1287.16 1695.48 1293.52 1698.05 1300.44 1700.35 1307.86 1702.36 1315.75 1704.05 1324.05 1705.4 1332.71 1706.39 1341.7 1707 1350.95 1707.21 1360.2 1707 1369.18 1706.4 1377.84 1705.41 1386.14 1704.07 1394.02 1702.39 1401.44 1700.39 1408.34 1698.1 1414.69 1695.55 1420.44 1692.75 1425.52 1689.74 1429.9 1686.56 1433.54 1683.24 1436.62 1679.51 1436.4 1679.81 1438.66 1675.92 1438.47 1676.33 1439.86 1672.29 1439.75 1672.78 1440.21 1668.92 1440.2 1668.6C1440.19 1667.33 1441.2 1666.29 1442.47 1666.28 1443.73 1666.26 1444.77 1667.27 1444.79 1668.54ZM1271.22 1688.74 1265.88 1711.02 1260.3 1663.5 1291.12 1700.11Z" fill="#B760F9"/><path d="M1474.22 1486.04 1474.76 1481.85C1474.78 1481.69 1474.82 1481.53 1474.88 1481.38L1476.32 1477.32C1476.37 1477.18 1476.43 1477.05 1476.5 1476.93L1478.8 1473.01C1478.87 1472.9 1478.94 1472.8 1479.02 1472.71L1482.13 1468.95 1486.22 1465.16 1491.02 1461.63 1496.47 1458.37 1502.54 1455.38 1509.17 1452.68 1516.34 1450.29 1523.98 1448.21 1532.07 1446.46 1540.55 1445.07 1549.39 1444.05 1558.54 1443.42 1567.95 1443.21 1577.41 1443.42 1586.6 1444.05 1595.47 1445.07 1603.99 1446.47 1612.1 1448.23 1619.76 1450.32 1626.93 1452.73 1633.57 1455.43 1639.62 1458.42 1645.05 1461.68 1648.97 1464.57C1649.99 1465.32 1650.2 1466.75 1649.45 1467.77 1648.69 1468.79 1647.26 1469 1646.24 1468.25L1642.69 1465.61 1637.59 1462.53 1631.83 1459.67 1625.47 1457.07 1618.55 1454.74 1611.13 1452.71 1603.24 1451 1594.94 1449.63 1586.28 1448.62 1577.3 1448 1568.05 1447.79 1558.85 1448 1549.91 1448.6 1541.29 1449.59 1533.04 1450.94 1525.18 1452.63 1517.79 1454.63 1510.9 1456.93 1504.56 1459.5 1498.82 1462.31 1493.72 1465.33 1489.32 1468.53 1485.66 1471.88 1482.54 1475.63 1482.76 1475.33 1480.46 1479.25 1480.64 1478.85 1479.2 1482.91 1479.31 1482.44 1478.77 1486.62C1478.61 1487.88 1477.46 1488.77 1476.2 1488.6 1474.95 1488.44 1474.06 1487.29 1474.22 1486.04ZM1647.6 1466.41 1652.65 1444.05 1658.86 1491.5 1627.56 1455.31Z" fill="#063DE8"/><path d="M1677.79 1668.54 1677.79 1668.86 1677.3 1673.3C1677.29 1673.46 1677.25 1673.63 1677.19 1673.78L1675.81 1677.82C1675.76 1677.96 1675.7 1678.09 1675.62 1678.22L1673.37 1682.11C1673.31 1682.22 1673.23 1682.32 1673.15 1682.42L1670.08 1686.15 1666.01 1689.93 1661.22 1693.44 1655.78 1696.69 1649.71 1699.66 1643.06 1702.35 1635.88 1704.74 1628.21 1706.81 1620.09 1708.55 1611.58 1709.94 1602.7 1710.95 1593.51 1711.58 1584.05 1711.79 1574.59 1711.58 1565.4 1710.96 1556.53 1709.95 1548.02 1708.57 1539.91 1706.84 1532.24 1704.78 1525.07 1702.4 1518.44 1699.73 1512.39 1696.78 1506.96 1693.56 1502.87 1690.59C1501.85 1689.84 1501.62 1688.41 1502.37 1687.39 1503.12 1686.37 1504.55 1686.14 1505.57 1686.89L1509.3 1689.62 1514.4 1692.66 1520.16 1695.48 1526.52 1698.05 1533.44 1700.35 1540.86 1702.36 1548.75 1704.05 1557.05 1705.4 1565.71 1706.39 1574.7 1707 1583.95 1707.21 1593.2 1707 1602.18 1706.4 1610.84 1705.41 1619.14 1704.07 1627.02 1702.39 1634.44 1700.39 1641.34 1698.1 1647.69 1695.55 1653.44 1692.75 1658.52 1689.74 1662.9 1686.56 1666.54 1683.24 1669.62 1679.51 1669.4 1679.81 1671.66 1675.92 1671.47 1676.33 1672.86 1672.29 1672.75 1672.78 1673.21 1668.92 1673.2 1668.6C1673.19 1667.33 1674.2 1666.29 1675.47 1666.28 1676.73 1666.26 1677.77 1667.27 1677.79 1668.54ZM1504.22 1688.74 1498.88 1711.02 1493.3 1663.5 1524.12 1700.11Z" fill="#B760F9"/><path d="M780.924 1444.51 787.452 1443.67 796.716 1443.6 806.206 1444.62 815.852 1446.68 825.584 1449.75 835.333 1453.8 845.032 1458.81 854.612 1464.74 864.005 1471.57 873.143 1479.28 881.957 1487.83 890.376 1497.2 898.332 1507.36C899.112 1508.36 898.936 1509.8 897.939 1510.58 896.942 1511.36 895.501 1511.18 894.722 1510.18L886.966 1500.26 878.764 1491.12 870.188 1482.78 861.308 1475.28 852.196 1468.64 842.926 1462.88 833.57 1458.03 824.2 1454.12 814.89 1451.16 805.713 1449.17 796.74 1448.19 788.04 1448.21 781.512 1449.06C780.256 1449.22 779.107 1448.33 778.945 1447.08 778.783 1445.82 779.669 1444.68 780.924 1444.51ZM781.218 1446.79 803.373 1452.64 755.731 1457.11 793.045 1427.16Z" fill="#14405C"/><path d="M782.71 1601.08 770.607 1599.26 758.248 1596.61 746.48 1593.29 735.368 1589.34 724.978 1584.79 715.375 1579.68 706.627 1574.04 698.799 1567.91 691.96 1561.33 686.18 1554.32 681.535 1546.91C681.476 1546.81 681.425 1546.72 681.38 1546.61L678.103 1539.14C678.055 1539.03 678.015 1538.91 677.984 1538.8L675.969 1531.05C675.936 1530.93 675.915 1530.8 675.903 1530.67L675.217 1522.7C675.108 1521.44 676.042 1520.33 677.303 1520.22 678.564 1520.11 679.675 1521.04 679.783 1522.3L680.47 1530.28 680.404 1529.9 682.42 1537.64 682.301 1537.3 685.578 1544.77 685.423 1544.48 689.722 1551.41 695.143 1558.03 701.628 1564.31 709.112 1570.19 717.531 1575.63 726.818 1580.59 736.906 1585.02 747.726 1588.88 759.21 1592.13 771.29 1594.73 783.393 1596.55C784.645 1596.74 785.506 1597.91 785.318 1599.16 785.129 1600.41 783.961 1601.27 782.71 1601.08ZM783.052 1598.82 765.593 1583.97 810.5 1600.5 763.912 1611.42Z" fill="#063DE8"/><text fill="#14405C" font-family="Arial,Arial_MSFontService,sans-serif" font-weight="400" font-size="62" transform="matrix(1 0 0 1 1879.48 1606)">Pages with</text><text fill="#14405C" font-family="Arial,Arial_MSFontService,sans-serif" font-weight="400" font-size="62" transform="matrix(1 0 0 1 1879.48 1680)">Free Space</text><text fill="#14405C" font-family="Arial,Arial_MSFontService,sans-serif" font-weight="400" font-size="62" transform="matrix(1 0 0 1 1878.79 1309)">Full Pages</text><path d="M1740.22 1189.93 1740.76 1185.66C1740.78 1185.5 1740.82 1185.34 1740.87 1185.19L1742.31 1181.04C1742.36 1180.91 1742.42 1180.78 1742.49 1180.65L1744.79 1176.65C1744.85 1176.54 1744.92 1176.44 1745 1176.35L1748.11 1172.51 1752.2 1168.64 1757 1165.03 1762.45 1161.7 1768.52 1158.65 1775.16 1155.89 1782.32 1153.44 1789.97 1151.32 1798.06 1149.53 1806.55 1148.11 1815.39 1147.07 1824.53 1146.43 1833.95 1146.21 1843.41 1146.43 1852.6 1147.07 1861.48 1148.11 1869.99 1149.54 1878.11 1151.34 1885.77 1153.47 1892.95 1155.93 1899.58 1158.7 1905.64 1161.76 1911.07 1165.09 1915.44 1168.38C1916.45 1169.14 1916.65 1170.58 1915.89 1171.59 1915.13 1172.6 1913.69 1172.8 1912.68 1172.03L1908.67 1168.99 1903.57 1165.85 1897.82 1162.93 1891.46 1160.27 1884.54 1157.89 1877.12 1155.81 1869.23 1154.06 1860.94 1152.67 1852.28 1151.64 1843.3 1151.01 1834.05 1150.79 1824.85 1151 1815.92 1151.62 1807.3 1152.63 1799.05 1154.01 1791.2 1155.73 1783.8 1157.78 1776.91 1160.13 1770.57 1162.75 1764.83 1165.62 1759.74 1168.7 1755.34 1171.98 1751.67 1175.4 1748.56 1179.24 1748.77 1178.93 1746.47 1182.94 1746.64 1182.55 1745.2 1186.7 1745.31 1186.23 1744.77 1190.51C1744.61 1191.76 1743.46 1192.65 1742.21 1192.49 1740.95 1192.33 1740.06 1191.19 1740.22 1189.93ZM1914.06 1170.21 1919.51 1147.95 1924.86 1195.5 1894.22 1158.75Z" fill="#CF0E30"/><path d="M1891.5 1195.5 1941.5 1195.5" stroke="#14405C" stroke-width="4.58333" stroke-linejoin="round" stroke-miterlimit="10" fill="none" fill-rule="evenodd"/><path d="M1900.5 1210.5 1933.5 1210.5" stroke="#14405C" stroke-width="4.58333" stroke-linejoin="round" stroke-miterlimit="10" fill="none" fill-rule="evenodd"/><path d="M1908.5 1226.5 1925.5 1226.5" stroke="#14405C" stroke-width="4.58333" stroke-linejoin="round" stroke-miterlimit="10" fill="none" fill-rule="evenodd"/><path d="M1875.5 1491.5 1925.5 1491.5" stroke="#14405C" stroke-width="4.58333" stroke-linejoin="round" stroke-miterlimit="10" fill="none" fill-rule="evenodd"/><path d="M1883.5 1507.5 1916.5 1507.5" stroke="#14405C" stroke-width="4.58333" stroke-linejoin="round" stroke-miterlimit="10" fill="none" fill-rule="evenodd"/><path d="M1891.5 1522.5 1908.5 1522.5" stroke="#14405C" stroke-width="4.58333" stroke-linejoin="round" stroke-miterlimit="10" fill="none" fill-rule="evenodd"/><path d="M1723.22 1486.04 1723.76 1481.85C1723.78 1481.69 1723.82 1481.53 1723.88 1481.38L1725.32 1477.32C1725.37 1477.18 1725.43 1477.05 1725.5 1476.93L1727.8 1473.01C1727.87 1472.9 1727.94 1472.8 1728.02 1472.71L1731.13 1468.95 1735.22 1465.16 1740.02 1461.63 1745.47 1458.37 1751.54 1455.38 1758.17 1452.68 1765.34 1450.29 1772.98 1448.21 1781.07 1446.46 1789.55 1445.07 1798.39 1444.05 1807.54 1443.42 1816.95 1443.21 1826.41 1443.42 1835.6 1444.05 1844.47 1445.07 1852.99 1446.47 1861.1 1448.23 1868.76 1450.32 1875.93 1452.73 1882.57 1455.43 1888.62 1458.42 1894.05 1461.68 1897.97 1464.57C1898.99 1465.32 1899.2 1466.75 1898.45 1467.77 1897.69 1468.79 1896.26 1469 1895.24 1468.25L1891.69 1465.61 1886.59 1462.53 1880.83 1459.67 1874.47 1457.07 1867.55 1454.74 1860.13 1452.71 1852.24 1451 1843.94 1449.63 1835.28 1448.62 1826.3 1448 1817.05 1447.79 1807.85 1448 1798.91 1448.6 1790.29 1449.59 1782.04 1450.94 1774.19 1452.63 1766.79 1454.63 1759.9 1456.93 1753.56 1459.5 1747.82 1462.31 1742.72 1465.33 1738.32 1468.53 1734.66 1471.88 1731.54 1475.63 1731.76 1475.33 1729.46 1479.25 1729.64 1478.85 1728.2 1482.91 1728.31 1482.44 1727.77 1486.62C1727.61 1487.88 1726.46 1488.77 1725.2 1488.6 1723.95 1488.44 1723.06 1487.29 1723.22 1486.04ZM1896.6 1466.41 1901.65 1444.05 1907.86 1491.5 1876.56 1455.31Z" fill="#063DE8"/></g></svg>