<svg width="1214" height="921" xmlns="http://www.w3.org/2000/svg" xmlns:xlink="http://www.w3.org/1999/xlink" xml:space="preserve" overflow="hidden"><g transform="translate(-686 -843)"><path d="M775 1090 1197 1090" stroke="#000000" stroke-width="10.3125" stroke-linejoin="round" stroke-miterlimit="10" fill="none" fill-rule="evenodd"/><path d="M776 1372 1217 1372" stroke="#000000" stroke-width="10.3125" stroke-linejoin="round" stroke-miterlimit="10" fill="none" fill-rule="evenodd"/><path d="M778 1651 1212 1651" stroke="#000000" stroke-width="10.3125" stroke-linejoin="round" stroke-miterlimit="10" fill="none" fill-rule="evenodd"/><path d="M769 1093 1192 1367" stroke="#000000" stroke-width="10.3125" stroke-linejoin="round" stroke-miterlimit="10" fill="none" fill-rule="evenodd"/><path d="M779 1102 1197 1641" stroke="#000000" stroke-width="10.3125" stroke-linejoin="round" stroke-miterlimit="10" fill="none" fill-rule="evenodd"/><path d="M0 0 429 282" stroke="#000000" stroke-width="10.3125" stroke-linejoin="round" stroke-miterlimit="10" fill="none" fill-rule="evenodd" transform="matrix(1 0 0 -1 788 1371)"/><path d="M0 0 414 278" stroke="#000000" stroke-width="10.3125" stroke-linejoin="round" stroke-miterlimit="10" fill="none" fill-rule="evenodd" transform="matrix(1 0 0 -1 788 1653)"/><path d="M793 1371 1217 1661" stroke="#000000" stroke-width="10.3125" stroke-linejoin="round" stroke-miterlimit="10" fill="none" fill-rule="evenodd"/><path d="M0 0 413 539" stroke="#000000" stroke-width="10.3125" stroke-linejoin="round" stroke-miterlimit="10" fill="none" fill-rule="evenodd" transform="matrix(1 0 0 -1 784 1641)"/><path d="M688.5 984.815C688.5 1000.45 716.035 1013.13 750 1013.13 783.966 1013.13 811.5 1000.45 811.5 984.815L811.5 1172.18C811.5 1187.82 783.966 1200.5 750 1200.5 716.035 1200.5 688.5 1187.82 688.5 1172.18Z" fill="#D72C2F" fill-rule="evenodd"/><path d="M688.5 984.815C688.5 969.177 716.035 956.5 750 956.5 783.966 956.5 811.5 969.177 811.5 984.815 811.5 1000.45 783.966 1013.13 750 1013.13 716.035 1013.13 688.5 1000.45 688.5 984.815Z" fill="#E78082" fill-rule="evenodd"/><path d="M811.5 984.815C811.5 1000.45 783.966 1013.13 750 1013.13 716.035 1013.13 688.5 1000.45 688.5 984.815 688.5 969.177 716.035 956.5 750 956.5 783.966 956.5 811.5 969.177 811.5 984.815L811.5 1172.18C811.5 1187.82 783.966 1200.5 750 1200.5 716.035 1200.5 688.5 1187.82 688.5 1172.18L688.5 984.815" stroke="#000000" stroke-width="4.58333" stroke-linejoin="round" stroke-miterlimit="10" fill="none" fill-rule="evenodd"/><path d="M1397.5 975.815C1397.5 991.453 1425.03 1004.13 1459 1004.13 1492.97 1004.13 1520.5 991.453 1520.5 975.815L1520.5 1162.18C1520.5 1177.82 1492.97 1190.5 1459 1190.5 1425.03 1190.5 1397.5 1177.82 1397.5 1162.18Z" fill="#D72C2F" fill-rule="evenodd"/><path d="M1397.5 975.815C1397.5 960.177 1425.03 947.5 1459 947.5 1492.97 947.5 1520.5 960.177 1520.5 975.815 1520.5 991.453 1492.97 1004.13 1459 1004.13 1425.03 1004.13 1397.5 991.453 1397.5 975.815Z" fill="#E78082" fill-rule="evenodd"/><path d="M1520.5 975.815C1520.5 991.453 1492.97 1004.13 1459 1004.13 1425.03 1004.13 1397.5 991.453 1397.5 975.815 1397.5 960.177 1425.03 947.5 1459 947.5 1492.97 947.5 1520.5 960.177 1520.5 975.815L1520.5 1162.18C1520.5 1177.82 1492.97 1190.5 1459 1190.5 1425.03 1190.5 1397.5 1177.82 1397.5 1162.18L1397.5 975.815" stroke="#000000" stroke-width="4.58333" stroke-linejoin="round" stroke-miterlimit="10" fill="none" fill-rule="evenodd"/><rect x="1414.5" y="1019.5" width="84.9999" height="31.9999" stroke="#000000" stroke-width="4.58333" stroke-miterlimit="8" fill="#800000"/><rect x="1414.5" y="1069.5" width="84.9999" height="30.9999" stroke="#000000" stroke-width="4.58333" stroke-miterlimit="8" fill="#800000"/><rect x="1413.5" y="1123.5" width="84.9999" height="31.0002" stroke="#000000" stroke-width="4.58333" stroke-miterlimit="8" fill="#800000"/><path d="M1771.5 984.045C1771.5 999.811 1799.26 1012.59 1833.5 1012.59 1867.74 1012.59 1895.5 999.811 1895.5 984.045L1895.5 1170.95C1895.5 1186.72 1867.74 1199.5 1833.5 1199.5 1799.26 1199.5 1771.5 1186.72 1771.5 1170.95Z" fill="#D72C2F" fill-rule="evenodd"/><path d="M1771.5 984.045C1771.5 968.28 1799.26 955.5 1833.5 955.5 1867.74 955.5 1895.5 968.28 1895.5 984.045 1895.5 999.811 1867.74 1012.59 1833.5 1012.59 1799.26 1012.59 1771.5 999.811 1771.5 984.045Z" fill="#E78082" fill-rule="evenodd"/><path d="M1895.5 984.045C1895.5 999.811 1867.74 1012.59 1833.5 1012.59 1799.26 1012.59 1771.5 999.811 1771.5 984.045 1771.5 968.28 1799.26 955.5 1833.5 955.5 1867.74 955.5 1895.5 968.28 1895.5 984.045L1895.5 1170.95C1895.5 1186.72 1867.74 1199.5 1833.5 1199.5 1799.26 1199.5 1771.5 1186.72 1771.5 1170.95L1771.5 984.045" stroke="#000000" stroke-width="4.58333" stroke-linejoin="round" stroke-miterlimit="10" fill="none" fill-rule="evenodd"/><rect x="1556.5" y="999.5" width="170" height="180" stroke="#000000" stroke-width="4.58333" stroke-miterlimit="8" fill="#D72C2F"/><rect x="1574.5" y="1018.5" width="138" height="140" stroke="#000000" stroke-width="4.58333" stroke-miterlimit="8" fill="#800000"/><path d="M0 0 76 0.000360892" stroke="#000000" stroke-width="10.3125" stroke-linejoin="round" stroke-miterlimit="10" fill="none" fill-rule="evenodd" transform="matrix(-1 0 0 1 1788 1092)"/><rect x="1187.5" y="996.5" width="170" height="180" stroke="#000000" stroke-width="4.58333" stroke-miterlimit="8" fill="#D72C2F"/><rect x="1205.5" y="1070.5" width="30.9999" height="30.9999" stroke="#000000" stroke-width="4.58333" stroke-miterlimit="8" fill="#800000"/><rect x="1300.5" y="1020.5" width="30.9999" height="30.9999" stroke="#000000" stroke-width="4.58333" stroke-miterlimit="8" fill="#800000"/><rect x="1299.5" y="1069.5" width="32" height="30.9999" stroke="#000000" stroke-width="4.58333" stroke-miterlimit="8" fill="#800000"/><rect x="1300.5" y="1120.5" width="30.9999" height="30.9999" stroke="#000000" stroke-width="4.58333" stroke-miterlimit="8" fill="#800000"/><path d="M1302 1086 1237 1085" stroke="#000000" stroke-width="10.3125" stroke-linejoin="round" stroke-miterlimit="10" fill="none" fill-rule="evenodd"/><path d="M0 0 61.9999 48.9998" stroke="#000000" stroke-width="10.3125" stroke-linejoin="round" stroke-miterlimit="10" fill="none" fill-rule="evenodd" transform="matrix(-1 0 0 1 1298 1036)"/><path d="M1300 1132 1236 1085" stroke="#000000" stroke-width="10.3125" stroke-linejoin="round" stroke-miterlimit="10" fill="none" fill-rule="evenodd"/><path d="M1331 1036 1413 1036" stroke="#000000" stroke-width="10.3125" stroke-linejoin="round" stroke-miterlimit="10" fill="none" fill-rule="evenodd"/><path d="M1331 1085 1412 1085" stroke="#000000" stroke-width="10.3125" stroke-linejoin="round" stroke-miterlimit="10" fill="none" fill-rule="evenodd"/><path d="M1331 1138 1413 1138" stroke="#000000" stroke-width="10.3125" stroke-linejoin="round" stroke-miterlimit="10" fill="none" fill-rule="evenodd"/><path d="M0 0 71.9998 1.00003" stroke="#000000" stroke-width="10.3125" stroke-linejoin="round" stroke-miterlimit="10" fill="none" fill-rule="evenodd" transform="matrix(1 0 0 -1 1331 1086)"/><path d="M0 0 76 0.000360892" stroke="#000000" stroke-width="10.3125" stroke-linejoin="round" stroke-miterlimit="10" fill="none" fill-rule="evenodd" transform="matrix(-1 0 0 1 1577 1036)"/><path d="M0 0 76 0.000360892" stroke="#000000" stroke-width="10.3125" stroke-linejoin="round" stroke-miterlimit="10" fill="none" fill-rule="evenodd" transform="matrix(-1 0 0 1 1576 1085)"/><path d="M0 0 76 0.000360892" stroke="#000000" stroke-width="10.3125" stroke-linejoin="round" stroke-miterlimit="10" fill="none" fill-rule="evenodd" transform="matrix(-1 0 0 1 1576 1142)"/><path d="M689.5 1266.82C689.5 1282.45 717.035 1295.13 751 1295.13 784.966 1295.13 812.5 1282.45 812.5 1266.82L812.5 1454.18C812.5 1469.82 784.966 1482.5 751 1482.5 717.035 1482.5 689.5 1469.82 689.5 1454.18Z" fill="#D72C2F" fill-rule="evenodd"/><path d="M689.5 1266.82C689.5 1251.18 717.035 1238.5 751 1238.5 784.966 1238.5 812.5 1251.18 812.5 1266.82 812.5 1282.45 784.966 1295.13 751 1295.13 717.035 1295.13 689.5 1282.45 689.5 1266.82Z" fill="#E78082" fill-rule="evenodd"/><path d="M812.5 1266.82C812.5 1282.45 784.966 1295.13 751 1295.13 717.035 1295.13 689.5 1282.45 689.5 1266.82 689.5 1251.18 717.035 1238.5 751 1238.5 784.966 1238.5 812.5 1251.18 812.5 1266.82L812.5 1454.18C812.5 1469.82 784.966 1482.5 751 1482.5 717.035 1482.5 689.5 1469.82 689.5 1454.18L689.5 1266.82" stroke="#000000" stroke-width="4.58333" stroke-linejoin="round" stroke-miterlimit="10" fill="none" fill-rule="evenodd"/><path d="M1398.5 1257.82C1398.5 1273.45 1426.03 1286.13 1460 1286.13 1493.97 1286.13 1521.5 1273.45 1521.5 1257.82L1521.5 1445.18C1521.5 1460.82 1493.97 1473.5 1460 1473.5 1426.03 1473.5 1398.5 1460.82 1398.5 1445.18Z" fill="#D72C2F" fill-rule="evenodd"/><path d="M1398.5 1257.82C1398.5 1242.18 1426.03 1229.5 1460 1229.5 1493.97 1229.5 1521.5 1242.18 1521.5 1257.82 1521.5 1273.45 1493.97 1286.13 1460 1286.13 1426.03 1286.13 1398.5 1273.45 1398.5 1257.82Z" fill="#E78082" fill-rule="evenodd"/><path d="M1521.5 1257.82C1521.5 1273.45 1493.97 1286.13 1460 1286.13 1426.03 1286.13 1398.5 1273.45 1398.5 1257.82 1398.5 1242.18 1426.03 1229.5 1460 1229.5 1493.97 1229.5 1521.5 1242.18 1521.5 1257.82L1521.5 1445.18C1521.5 1460.82 1493.97 1473.5 1460 1473.5 1426.03 1473.5 1398.5 1460.82 1398.5 1445.18L1398.5 1257.82" stroke="#000000" stroke-width="4.58333" stroke-linejoin="round" stroke-miterlimit="10" fill="none" fill-rule="evenodd"/><rect x="1415.5" y="1302.5" width="85.9999" height="30.9999" stroke="#000000" stroke-width="4.58333" stroke-miterlimit="8" fill="#800000"/><rect x="1415.5" y="1352.5" width="84.9999" height="30.9999" stroke="#000000" stroke-width="4.58333" stroke-miterlimit="8" fill="#800000"/><rect x="1415.5" y="1406.5" width="84.9999" height="30.9999" stroke="#000000" stroke-width="4.58333" stroke-miterlimit="8" fill="#800000"/><path d="M1773.5 1266.82C1773.5 1282.45 1801.03 1295.13 1835 1295.13 1868.97 1295.13 1896.5 1282.45 1896.5 1266.82L1896.5 1453.18C1896.5 1468.82 1868.97 1481.5 1835 1481.5 1801.03 1481.5 1773.5 1468.82 1773.5 1453.18Z" fill="#D72C2F" fill-rule="evenodd"/><path d="M1773.5 1266.82C1773.5 1251.18 1801.03 1238.5 1835 1238.5 1868.97 1238.5 1896.5 1251.18 1896.5 1266.82 1896.5 1282.45 1868.97 1295.13 1835 1295.13 1801.03 1295.13 1773.5 1282.45 1773.5 1266.82Z" fill="#E78082" fill-rule="evenodd"/><path d="M1896.5 1266.82C1896.5 1282.45 1868.97 1295.13 1835 1295.13 1801.03 1295.13 1773.5 1282.45 1773.5 1266.82 1773.5 1251.18 1801.03 1238.5 1835 1238.5 1868.97 1238.5 1896.5 1251.18 1896.5 1266.82L1896.5 1453.18C1896.5 1468.82 1868.97 1481.5 1835 1481.5 1801.03 1481.5 1773.5 1468.82 1773.5 1453.18L1773.5 1266.82" stroke="#000000" stroke-width="4.58333" stroke-linejoin="round" stroke-miterlimit="10" fill="none" fill-rule="evenodd"/><rect x="1557.5" y="1282.5" width="171" height="180" stroke="#000000" stroke-width="4.58333" stroke-miterlimit="8" fill="#D72C2F"/><rect x="1576.5" y="1301.5" width="137" height="140" stroke="#000000" stroke-width="4.58333" stroke-miterlimit="8" fill="#800000"/><path d="M0 0 76 0.000360892" stroke="#000000" stroke-width="10.3125" stroke-linejoin="round" stroke-miterlimit="10" fill="none" fill-rule="evenodd" transform="matrix(-1 0 0 1 1789 1375)"/><rect x="1188.5" y="1279.5" width="171" height="180" stroke="#000000" stroke-width="4.58333" stroke-miterlimit="8" fill="#D72C2F"/><rect x="1207.5" y="1353.5" width="30.9999" height="31.0002" stroke="#000000" stroke-width="4.58333" stroke-miterlimit="8" fill="#800000"/><rect x="1301.5" y="1303.5" width="32" height="30.9999" stroke="#000000" stroke-width="4.58333" stroke-miterlimit="8" fill="#800000"/><rect x="1301.5" y="1352.5" width="30.9999" height="30.9999" stroke="#000000" stroke-width="4.58333" stroke-miterlimit="8" fill="#800000"/><rect x="1301.5" y="1403.5" width="30.9999" height="30.9999" stroke="#000000" stroke-width="4.58333" stroke-miterlimit="8" fill="#800000"/><path d="M1304 1369 1238 1368" stroke="#000000" stroke-width="10.3125" stroke-linejoin="round" stroke-miterlimit="10" fill="none" fill-rule="evenodd"/><path d="M0 0 62.9999 49.0002" stroke="#000000" stroke-width="10.3125" stroke-linejoin="round" stroke-miterlimit="10" fill="none" fill-rule="evenodd" transform="matrix(-1 0 0 1 1300 1319)"/><path d="M1301 1415 1238 1368" stroke="#000000" stroke-width="10.3125" stroke-linejoin="round" stroke-miterlimit="10" fill="none" fill-rule="evenodd"/><path d="M1333 1319 1414 1319" stroke="#000000" stroke-width="10.3125" stroke-linejoin="round" stroke-miterlimit="10" fill="none" fill-rule="evenodd"/><path d="M1332 1368 1414 1368" stroke="#000000" stroke-width="10.3125" stroke-linejoin="round" stroke-miterlimit="10" fill="none" fill-rule="evenodd"/><path d="M1333 1421 1414 1421" stroke="#000000" stroke-width="10.3125" stroke-linejoin="round" stroke-miterlimit="10" fill="none" fill-rule="evenodd"/><path d="M0 0 71.9998 0.999672" stroke="#000000" stroke-width="10.3125" stroke-linejoin="round" stroke-miterlimit="10" fill="none" fill-rule="evenodd" transform="matrix(1 0 0 -1 1332 1369)"/><path d="M0 0 76 0.000360892" stroke="#000000" stroke-width="10.3125" stroke-linejoin="round" stroke-miterlimit="10" fill="none" fill-rule="evenodd" transform="matrix(-1 0 0 1 1579 1319)"/><path d="M0 0 76 0.000360892" stroke="#000000" stroke-width="10.3125" stroke-linejoin="round" stroke-miterlimit="10" fill="none" fill-rule="evenodd" transform="matrix(-1 0 0 1 1577 1368)"/><path d="M0 0 76.0003 0.000360892" stroke="#000000" stroke-width="10.3125" stroke-linejoin="round" stroke-miterlimit="10" fill="none" fill-rule="evenodd" transform="matrix(-1 0 0 1 1578 1425)"/><path d="M690.5 1545.82C690.5 1561.45 718.035 1574.13 752 1574.13 785.966 1574.13 813.5 1561.45 813.5 1545.82L813.5 1733.18C813.5 1748.82 785.966 1761.5 752 1761.5 718.035 1761.5 690.5 1748.82 690.5 1733.18Z" fill="#D72C2F" fill-rule="evenodd"/><path d="M690.5 1545.82C690.5 1530.18 718.035 1517.5 752 1517.5 785.966 1517.5 813.5 1530.18 813.5 1545.82 813.5 1561.45 785.966 1574.13 752 1574.13 718.035 1574.13 690.5 1561.45 690.5 1545.82Z" fill="#E78082" fill-rule="evenodd"/><path d="M813.5 1545.82C813.5 1561.45 785.966 1574.13 752 1574.13 718.035 1574.13 690.5 1561.45 690.5 1545.82 690.5 1530.18 718.035 1517.5 752 1517.5 785.966 1517.5 813.5 1530.18 813.5 1545.82L813.5 1733.18C813.5 1748.82 785.966 1761.5 752 1761.5 718.035 1761.5 690.5 1748.82 690.5 1733.18L690.5 1545.82" stroke="#000000" stroke-width="4.58333" stroke-linejoin="round" stroke-miterlimit="10" fill="none" fill-rule="evenodd"/><path d="M1400.5 1536.82C1400.5 1552.45 1428.03 1565.13 1462 1565.13 1495.97 1565.13 1523.5 1552.45 1523.5 1536.82L1523.5 1724.18C1523.5 1739.82 1495.97 1752.5 1462 1752.5 1428.03 1752.5 1400.5 1739.82 1400.5 1724.18Z" fill="#D72C2F" fill-rule="evenodd"/><path d="M1400.5 1536.82C1400.5 1521.18 1428.03 1508.5 1462 1508.5 1495.97 1508.5 1523.5 1521.18 1523.5 1536.82 1523.5 1552.45 1495.97 1565.13 1462 1565.13 1428.03 1565.13 1400.5 1552.45 1400.5 1536.82Z" fill="#E78082" fill-rule="evenodd"/><path d="M1523.5 1536.82C1523.5 1552.45 1495.97 1565.13 1462 1565.13 1428.03 1565.13 1400.5 1552.45 1400.5 1536.82 1400.5 1521.18 1428.03 1508.5 1462 1508.5 1495.97 1508.5 1523.5 1521.18 1523.5 1536.82L1523.5 1724.18C1523.5 1739.82 1495.97 1752.5 1462 1752.5 1428.03 1752.5 1400.5 1739.82 1400.5 1724.18L1400.5 1536.82" stroke="#000000" stroke-width="4.58333" stroke-linejoin="round" stroke-miterlimit="10" fill="none" fill-rule="evenodd"/><rect x="1417.5" y="1581.5" width="84.9999" height="30.9999" stroke="#000000" stroke-width="4.58333" stroke-miterlimit="8" fill="#800000"/><rect x="1416.5" y="1631.5" width="85.9999" height="30.9999" stroke="#000000" stroke-width="4.58333" stroke-miterlimit="8" fill="#800000"/><rect x="1416.5" y="1685.5" width="84.9999" height="30.9999" stroke="#000000" stroke-width="4.58333" stroke-miterlimit="8" fill="#800000"/><path d="M1774.5 1544.82C1774.5 1560.45 1802.03 1573.13 1836 1573.13 1869.97 1573.13 1897.5 1560.45 1897.5 1544.82L1897.5 1732.18C1897.5 1747.82 1869.97 1760.5 1836 1760.5 1802.03 1760.5 1774.5 1747.82 1774.5 1732.18Z" fill="#D72C2F" fill-rule="evenodd"/><path d="M1774.5 1544.82C1774.5 1529.18 1802.03 1516.5 1836 1516.5 1869.97 1516.5 1897.5 1529.18 1897.5 1544.82 1897.5 1560.45 1869.97 1573.13 1836 1573.13 1802.03 1573.13 1774.5 1560.45 1774.5 1544.82Z" fill="#E78082" fill-rule="evenodd"/><path d="M1897.5 1544.82C1897.5 1560.45 1869.97 1573.13 1836 1573.13 1802.03 1573.13 1774.5 1560.45 1774.5 1544.82 1774.5 1529.18 1802.03 1516.5 1836 1516.5 1869.97 1516.5 1897.5 1529.18 1897.5 1544.82L1897.5 1732.18C1897.5 1747.82 1869.97 1760.5 1836 1760.5 1802.03 1760.5 1774.5 1747.82 1774.5 1732.18L1774.5 1544.82" stroke="#000000" stroke-width="4.58333" stroke-linejoin="round" stroke-miterlimit="10" fill="none" fill-rule="evenodd"/><rect x="1559.5" y="1561.5" width="170" height="180" stroke="#000000" stroke-width="4.58333" stroke-miterlimit="8" fill="#D72C2F"/><rect x="1577.5" y="1580.5" width="137" height="140" stroke="#000000" stroke-width="4.58333" stroke-miterlimit="8" fill="#800000"/><path d="M0 0 76 0.000360892" stroke="#000000" stroke-width="10.3125" stroke-linejoin="round" stroke-miterlimit="10" fill="none" fill-rule="evenodd" transform="matrix(-1 0 0 1 1791 1653)"/><rect x="1190.5" y="1558.5" width="170" height="179" stroke="#000000" stroke-width="4.58333" stroke-miterlimit="8" fill="#D72C2F"/><rect x="1208.5" y="1632.5" width="30.9999" height="30.9999" stroke="#000000" stroke-width="4.58333" stroke-miterlimit="8" fill="#800000"/><rect x="1303.5" y="1582.5" width="30.9999" height="30.9999" stroke="#000000" stroke-width="4.58333" stroke-miterlimit="8" fill="#800000"/><rect x="1302.5" y="1631.5" width="30.9999" height="30.9999" stroke="#000000" stroke-width="4.58333" stroke-miterlimit="8" fill="#800000"/><rect x="1303.5" y="1682.5" width="30.9999" height="30.9999" stroke="#000000" stroke-width="4.58333" stroke-miterlimit="8" fill="#800000"/><path d="M1305 1648 1239 1647" stroke="#000000" stroke-width="10.3125" stroke-linejoin="round" stroke-miterlimit="10" fill="none" fill-rule="evenodd"/><path d="M0 0 62.0002 47.9998" stroke="#000000" stroke-width="10.3125" stroke-linejoin="round" stroke-miterlimit="10" fill="none" fill-rule="evenodd" transform="matrix(-1 0 0 1 1301 1598)"/><path d="M1303 1694 1239 1647" stroke="#000000" stroke-width="10.3125" stroke-linejoin="round" stroke-miterlimit="10" fill="none" fill-rule="evenodd"/><path d="M1334 1598 1416 1598" stroke="#000000" stroke-width="10.3125" stroke-linejoin="round" stroke-miterlimit="10" fill="none" fill-rule="evenodd"/><path d="M1334 1647 1415 1647" stroke="#000000" stroke-width="10.3125" stroke-linejoin="round" stroke-miterlimit="10" fill="none" fill-rule="evenodd"/><path d="M1334 1700 1416 1700" stroke="#000000" stroke-width="10.3125" stroke-linejoin="round" stroke-miterlimit="10" fill="none" fill-rule="evenodd"/><path d="M0 0 70.9998 0.999672" stroke="#000000" stroke-width="10.3125" stroke-linejoin="round" stroke-miterlimit="10" fill="none" fill-rule="evenodd" transform="matrix(1 0 0 -1 1334 1648)"/><path d="M0 0 76 0.000360892" stroke="#000000" stroke-width="10.3125" stroke-linejoin="round" stroke-miterlimit="10" fill="none" fill-rule="evenodd" transform="matrix(-1 0 0 1 1580 1598)"/><path d="M0 0 76 0.000360892" stroke="#000000" stroke-width="10.3125" stroke-linejoin="round" stroke-miterlimit="10" fill="none" fill-rule="evenodd" transform="matrix(-1 0 0 1 1579 1646)"/><path d="M0 0 76 0.000360892" stroke="#000000" stroke-width="10.3125" stroke-linejoin="round" stroke-miterlimit="10" fill="none" fill-rule="evenodd" transform="matrix(-1 0 0 1 1579 1703)"/><text font-family="Arial,Arial_MSFontService,sans-serif" font-weight="400" font-size="62" transform="matrix(1 0 0 1 1339.28 922)">h</text><text font-family="Arial,Arial_MSFontService,sans-serif" font-weight="400" font-size="41" transform="matrix(1 0 0 1 1373.66 936)">p</text><text font-family="Arial,Arial_MSFontService,sans-serif" font-weight="400" font-size="62" transform="matrix(1 0 0 1 1614.43 922)">h</text><text font-family="Arial,Arial_MSFontService,sans-serif" font-weight="400" font-size="41" transform="matrix(1 0 0 1 1648.81 936)">r</text><text font-family="Arial,Arial_MSFontService,sans-serif" font-weight="400" font-size="62" transform="matrix(1 0 0 1 990.7 1041)">h</text><text font-family="Arial,Arial_MSFontService,sans-serif" font-weight="400" font-size="41" transform="matrix(1 0 0 1 1025.08 1055)">n</text></g></svg>