<svg width="1634" height="1131" xmlns="http://www.w3.org/2000/svg" xmlns:xlink="http://www.w3.org/1999/xlink" xml:space="preserve" overflow="hidden"><defs><filter id="fx0" x="-10%" y="-10%" width="120%" height="120%" filterUnits="userSpaceOnUse" primitiveUnits="userSpaceOnUse"><feComponentTransfer color-interpolation-filters="sRGB"><feFuncR type="discrete" tableValues="0 0"/><feFuncG type="discrete" tableValues="0 0"/><feFuncB type="discrete" tableValues="0 0"/><feFuncA type="linear" slope="0.380392" intercept="0"/></feComponentTransfer><feGaussianBlur stdDeviation="4.8119 4.8119"/></filter><filter id="fx1" x="-10%" y="-10%" width="120%" height="120%" filterUnits="userSpaceOnUse" primitiveUnits="userSpaceOnUse"><feComponentTransfer color-interpolation-filters="sRGB"><feFuncR type="discrete" tableValues="0 0"/><feFuncG type="discrete" tableValues="0 0"/><feFuncB type="discrete" tableValues="0 0"/><feFuncA type="linear" slope="0.380392" intercept="0"/></feComponentTransfer><feGaussianBlur stdDeviation="4.8119 4.8119"/></filter><filter id="fx2" x="-10%" y="-10%" width="120%" height="120%" filterUnits="userSpaceOnUse" primitiveUnits="userSpaceOnUse"><feComponentTransfer color-interpolation-filters="sRGB"><feFuncR type="discrete" tableValues="0 0"/><feFuncG type="discrete" tableValues="0 0"/><feFuncB type="discrete" tableValues="0 0"/><feFuncA type="linear" slope="0.380392" intercept="0"/></feComponentTransfer><feGaussianBlur stdDeviation="4.8119 4.8119"/></filter><filter id="fx3" x="-10%" y="-10%" width="120%" height="120%" filterUnits="userSpaceOnUse" primitiveUnits="userSpaceOnUse"><feComponentTransfer color-interpolation-filters="sRGB"><feFuncR type="discrete" tableValues="0 0"/><feFuncG type="discrete" tableValues="0 0"/><feFuncB type="discrete" tableValues="0 0"/><feFuncA type="linear" slope="0.380392" intercept="0"/></feComponentTransfer><feGaussianBlur stdDeviation="4.8119 4.8119"/></filter><filter id="fx4" x="-10%" y="-10%" width="120%" height="120%" filterUnits="userSpaceOnUse" primitiveUnits="userSpaceOnUse"><feComponentTransfer color-interpolation-filters="sRGB"><feFuncR type="discrete" tableValues="0 0"/><feFuncG type="discrete" tableValues="0 0"/><feFuncB type="discrete" tableValues="0 0"/><feFuncA type="linear" slope="0.380392" intercept="0"/></feComponentTransfer><feGaussianBlur stdDeviation="4.8119 4.8119"/></filter><filter id="fx5" x="-10%" y="-10%" width="120%" height="120%" filterUnits="userSpaceOnUse" primitiveUnits="userSpaceOnUse"><feComponentTransfer color-interpolation-filters="sRGB"><feFuncR type="discrete" tableValues="0 0"/><feFuncG type="discrete" tableValues="0 0"/><feFuncB type="discrete" tableValues="0 0"/><feFuncA type="linear" slope="0.380392" intercept="0"/></feComponentTransfer><feGaussianBlur stdDeviation="4.8119 4.8119"/></filter><filter id="fx6" x="-10%" y="-10%" width="120%" height="120%" filterUnits="userSpaceOnUse" primitiveUnits="userSpaceOnUse"><feComponentTransfer color-interpolation-filters="sRGB"><feFuncR type="discrete" tableValues="0 0"/><feFuncG type="discrete" tableValues="0 0"/><feFuncB type="discrete" tableValues="0 0"/><feFuncA type="linear" slope="0.380392" intercept="0"/></feComponentTransfer><feGaussianBlur stdDeviation="4.8119 4.8119"/></filter><filter id="fx7" x="-10%" y="-10%" width="120%" height="120%" filterUnits="userSpaceOnUse" primitiveUnits="userSpaceOnUse"><feComponentTransfer color-interpolation-filters="sRGB"><feFuncR type="discrete" tableValues="0 0"/><feFuncG type="discrete" tableValues="0 0"/><feFuncB type="discrete" tableValues="0 0"/><feFuncA type="linear" slope="0.380392" intercept="0"/></feComponentTransfer><feGaussianBlur stdDeviation="4.8119 4.8119"/></filter><filter id="fx8" x="-10%" y="-10%" width="120%" height="120%" filterUnits="userSpaceOnUse" primitiveUnits="userSpaceOnUse"><feComponentTransfer color-interpolation-filters="sRGB"><feFuncR type="discrete" tableValues="0 0"/><feFuncG type="discrete" tableValues="0 0"/><feFuncB type="discrete" tableValues="0 0"/><feFuncA type="linear" slope="0.380392" intercept="0"/></feComponentTransfer><feGaussianBlur stdDeviation="4.8119 4.8119"/></filter><filter id="fx9" x="-10%" y="-10%" width="120%" height="120%" filterUnits="userSpaceOnUse" primitiveUnits="userSpaceOnUse"><feComponentTransfer color-interpolation-filters="sRGB"><feFuncR type="discrete" tableValues="0 0"/><feFuncG type="discrete" tableValues="0 0"/><feFuncB type="discrete" tableValues="0 0"/><feFuncA type="linear" slope="0.380392" intercept="0"/></feComponentTransfer><feGaussianBlur stdDeviation="4.8119 4.8119"/></filter><filter id="fx10" x="-10%" y="-10%" width="120%" height="120%" filterUnits="userSpaceOnUse" primitiveUnits="userSpaceOnUse"><feComponentTransfer color-interpolation-filters="sRGB"><feFuncR type="discrete" tableValues="0 0"/><feFuncG type="discrete" tableValues="0 0"/><feFuncB type="discrete" tableValues="0 0"/><feFuncA type="linear" slope="0.380392" intercept="0"/></feComponentTransfer><feGaussianBlur stdDeviation="4.8119 4.8119"/></filter><filter id="fx11" x="-10%" y="-10%" width="120%" height="120%" filterUnits="userSpaceOnUse" primitiveUnits="userSpaceOnUse"><feComponentTransfer color-interpolation-filters="sRGB"><feFuncR type="discrete" tableValues="0 0"/><feFuncG type="discrete" tableValues="0 0"/><feFuncB type="discrete" tableValues="0 0"/><feFuncA type="linear" slope="0.380392" intercept="0"/></feComponentTransfer><feGaussianBlur stdDeviation="4.8119 4.8119"/></filter><filter id="fx12" x="-10%" y="-10%" width="120%" height="120%" filterUnits="userSpaceOnUse" primitiveUnits="userSpaceOnUse"><feComponentTransfer color-interpolation-filters="sRGB"><feFuncR type="discrete" tableValues="0 0"/><feFuncG type="discrete" tableValues="0 0"/><feFuncB type="discrete" tableValues="0 0"/><feFuncA type="linear" slope="0.380392" intercept="0"/></feComponentTransfer><feGaussianBlur stdDeviation="4.8119 4.8119"/></filter><filter id="fx13" x="-10%" y="-10%" width="120%" height="120%" filterUnits="userSpaceOnUse" primitiveUnits="userSpaceOnUse"><feComponentTransfer color-interpolation-filters="sRGB"><feFuncR type="discrete" tableValues="0 0"/><feFuncG type="discrete" tableValues="0 0"/><feFuncB type="discrete" tableValues="0 0"/><feFuncA type="linear" slope="0.380392" intercept="0"/></feComponentTransfer><feGaussianBlur stdDeviation="4.8119 4.8119"/></filter><filter id="fx14" x="-10%" y="-10%" width="120%" height="120%" filterUnits="userSpaceOnUse" primitiveUnits="userSpaceOnUse"><feComponentTransfer color-interpolation-filters="sRGB"><feFuncR type="discrete" tableValues="0 0"/><feFuncG type="discrete" tableValues="0 0"/><feFuncB type="discrete" tableValues="0 0"/><feFuncA type="linear" slope="0.380392" intercept="0"/></feComponentTransfer><feGaussianBlur stdDeviation="4.8119 4.8119"/></filter><filter id="fx15" x="-10%" y="-10%" width="120%" height="120%" filterUnits="userSpaceOnUse" primitiveUnits="userSpaceOnUse"><feComponentTransfer color-interpolation-filters="sRGB"><feFuncR type="discrete" tableValues="0 0"/><feFuncG type="discrete" tableValues="0 0"/><feFuncB type="discrete" tableValues="0 0"/><feFuncA type="linear" slope="0.380392" intercept="0"/></feComponentTransfer><feGaussianBlur stdDeviation="4.8119 4.8119"/></filter><filter id="fx16" x="-10%" y="-10%" width="120%" height="120%" filterUnits="userSpaceOnUse" primitiveUnits="userSpaceOnUse"><feComponentTransfer color-interpolation-filters="sRGB"><feFuncR type="discrete" tableValues="0 0"/><feFuncG type="discrete" tableValues="0 0"/><feFuncB type="discrete" tableValues="0 0"/><feFuncA type="linear" slope="0.380392" intercept="0"/></feComponentTransfer><feGaussianBlur stdDeviation="4.8119 4.8119"/></filter><filter id="fx17" x="-10%" y="-10%" width="120%" height="120%" filterUnits="userSpaceOnUse" primitiveUnits="userSpaceOnUse"><feComponentTransfer color-interpolation-filters="sRGB"><feFuncR type="discrete" tableValues="0 0"/><feFuncG type="discrete" tableValues="0 0"/><feFuncB type="discrete" tableValues="0 0"/><feFuncA type="linear" slope="0.380392" intercept="0"/></feComponentTransfer><feGaussianBlur stdDeviation="4.8119 4.8119"/></filter><filter id="fx18" x="-10%" y="-10%" width="120%" height="120%" filterUnits="userSpaceOnUse" primitiveUnits="userSpaceOnUse"><feComponentTransfer color-interpolation-filters="sRGB"><feFuncR type="discrete" tableValues="0 0"/><feFuncG type="discrete" tableValues="0 0"/><feFuncB type="discrete" tableValues="0 0"/><feFuncA type="linear" slope="0.380392" intercept="0"/></feComponentTransfer><feGaussianBlur stdDeviation="4.8119 4.8119"/></filter><filter id="fx19" x="-10%" y="-10%" width="120%" height="120%" filterUnits="userSpaceOnUse" primitiveUnits="userSpaceOnUse"><feComponentTransfer color-interpolation-filters="sRGB"><feFuncR type="discrete" tableValues="0 0"/><feFuncG type="discrete" tableValues="0 0"/><feFuncB type="discrete" tableValues="0 0"/><feFuncA type="linear" slope="0.380392" intercept="0"/></feComponentTransfer><feGaussianBlur stdDeviation="4.8119 4.8119"/></filter><filter id="fx20" x="-10%" y="-10%" width="120%" height="120%" filterUnits="userSpaceOnUse" primitiveUnits="userSpaceOnUse"><feComponentTransfer color-interpolation-filters="sRGB"><feFuncR type="discrete" tableValues="0 0"/><feFuncG type="discrete" tableValues="0 0"/><feFuncB type="discrete" tableValues="0 0"/><feFuncA type="linear" slope="0.380392" intercept="0"/></feComponentTransfer><feGaussianBlur stdDeviation="4.8119 4.8119"/></filter><filter id="fx21" x="-10%" y="-10%" width="120%" height="120%" filterUnits="userSpaceOnUse" primitiveUnits="userSpaceOnUse"><feComponentTransfer color-interpolation-filters="sRGB"><feFuncR type="discrete" tableValues="0 0"/><feFuncG type="discrete" tableValues="0 0"/><feFuncB type="discrete" tableValues="0 0"/><feFuncA type="linear" slope="0.380392" intercept="0"/></feComponentTransfer><feGaussianBlur stdDeviation="4.8119 4.8119"/></filter><filter id="fx22" x="-10%" y="-10%" width="120%" height="120%" filterUnits="userSpaceOnUse" primitiveUnits="userSpaceOnUse"><feComponentTransfer color-interpolation-filters="sRGB"><feFuncR type="discrete" tableValues="0 0"/><feFuncG type="discrete" tableValues="0 0"/><feFuncB type="discrete" tableValues="0 0"/><feFuncA type="linear" slope="0.380392" intercept="0"/></feComponentTransfer><feGaussianBlur stdDeviation="4.8119 4.8119"/></filter><filter id="fx23" x="-10%" y="-10%" width="120%" height="120%" filterUnits="userSpaceOnUse" primitiveUnits="userSpaceOnUse"><feComponentTransfer color-interpolation-filters="sRGB"><feFuncR type="discrete" tableValues="0 0"/><feFuncG type="discrete" tableValues="0 0"/><feFuncB type="discrete" tableValues="0 0"/><feFuncA type="linear" slope="0.380392" intercept="0"/></feComponentTransfer><feGaussianBlur stdDeviation="4.8119 4.8119"/></filter><filter id="fx24" x="-10%" y="-10%" width="120%" height="120%" filterUnits="userSpaceOnUse" primitiveUnits="userSpaceOnUse"><feComponentTransfer color-interpolation-filters="sRGB"><feFuncR type="discrete" tableValues="0 0"/><feFuncG type="discrete" tableValues="0 0"/><feFuncB type="discrete" tableValues="0 0"/><feFuncA type="linear" slope="0.380392" intercept="0"/></feComponentTransfer><feGaussianBlur stdDeviation="4.8119 4.8119"/></filter><filter id="fx25" x="-10%" y="-10%" width="120%" height="120%" filterUnits="userSpaceOnUse" primitiveUnits="userSpaceOnUse"><feComponentTransfer color-interpolation-filters="sRGB"><feFuncR type="discrete" tableValues="0 0"/><feFuncG type="discrete" tableValues="0 0"/><feFuncB type="discrete" tableValues="0 0"/><feFuncA type="linear" slope="0.380392" intercept="0"/></feComponentTransfer><feGaussianBlur stdDeviation="4.8119 4.8119"/></filter><filter id="fx26" x="-10%" y="-10%" width="120%" height="120%" filterUnits="userSpaceOnUse" primitiveUnits="userSpaceOnUse"><feComponentTransfer color-interpolation-filters="sRGB"><feFuncR type="discrete" tableValues="0 0"/><feFuncG type="discrete" tableValues="0 0"/><feFuncB type="discrete" tableValues="0 0"/><feFuncA type="linear" slope="0.380392" intercept="0"/></feComponentTransfer><feGaussianBlur stdDeviation="4.8119 4.8119"/></filter><filter id="fx27" x="-10%" y="-10%" width="120%" height="120%" filterUnits="userSpaceOnUse" primitiveUnits="userSpaceOnUse"><feComponentTransfer color-interpolation-filters="sRGB"><feFuncR type="discrete" tableValues="0 0"/><feFuncG type="discrete" tableValues="0 0"/><feFuncB type="discrete" tableValues="0 0"/><feFuncA type="linear" slope="0.380392" intercept="0"/></feComponentTransfer><feGaussianBlur stdDeviation="4.8119 4.8119"/></filter><filter id="fx28" x="-10%" y="-10%" width="120%" height="120%" filterUnits="userSpaceOnUse" primitiveUnits="userSpaceOnUse"><feComponentTransfer color-interpolation-filters="sRGB"><feFuncR type="discrete" tableValues="0 0"/><feFuncG type="discrete" tableValues="0 0"/><feFuncB type="discrete" tableValues="0 0"/><feFuncA type="linear" slope="0.380392" intercept="0"/></feComponentTransfer><feGaussianBlur stdDeviation="4.8119 4.8119"/></filter><filter id="fx29" x="-10%" y="-10%" width="120%" height="120%" filterUnits="userSpaceOnUse" primitiveUnits="userSpaceOnUse"><feComponentTransfer color-interpolation-filters="sRGB"><feFuncR type="discrete" tableValues="0 0"/><feFuncG type="discrete" tableValues="0 0"/><feFuncB type="discrete" tableValues="0 0"/><feFuncA type="linear" slope="0.380392" intercept="0"/></feComponentTransfer><feGaussianBlur stdDeviation="4.8119 4.8119"/></filter><filter id="fx30" x="-10%" y="-10%" width="120%" height="120%" filterUnits="userSpaceOnUse" primitiveUnits="userSpaceOnUse"><feComponentTransfer color-interpolation-filters="sRGB"><feFuncR type="discrete" tableValues="0 0"/><feFuncG type="discrete" tableValues="0 0"/><feFuncB type="discrete" tableValues="0 0"/><feFuncA type="linear" slope="0.380392" intercept="0"/></feComponentTransfer><feGaussianBlur stdDeviation="4.8119 4.8119"/></filter><filter id="fx31" x="-10%" y="-10%" width="120%" height="120%" filterUnits="userSpaceOnUse" primitiveUnits="userSpaceOnUse"><feComponentTransfer color-interpolation-filters="sRGB"><feFuncR type="discrete" tableValues="0 0"/><feFuncG type="discrete" tableValues="0 0"/><feFuncB type="discrete" tableValues="0 0"/><feFuncA type="linear" slope="0.380392" intercept="0"/></feComponentTransfer><feGaussianBlur stdDeviation="4.8119 4.8119"/></filter><filter id="fx32" x="-10%" y="-10%" width="120%" height="120%" filterUnits="userSpaceOnUse" primitiveUnits="userSpaceOnUse"><feComponentTransfer color-interpolation-filters="sRGB"><feFuncR type="discrete" tableValues="0 0"/><feFuncG type="discrete" tableValues="0 0"/><feFuncB type="discrete" tableValues="0 0"/><feFuncA type="linear" slope="0.380392" intercept="0"/></feComponentTransfer><feGaussianBlur stdDeviation="4.8119 4.8119"/></filter><filter id="fx33" x="-10%" y="-10%" width="120%" height="120%" filterUnits="userSpaceOnUse" primitiveUnits="userSpaceOnUse"><feComponentTransfer color-interpolation-filters="sRGB"><feFuncR type="discrete" tableValues="0 0"/><feFuncG type="discrete" tableValues="0 0"/><feFuncB type="discrete" tableValues="0 0"/><feFuncA type="linear" slope="0.380392" intercept="0"/></feComponentTransfer><feGaussianBlur stdDeviation="4.8119 4.8119"/></filter><clipPath id="clip34"><path d="M2057 433 2057 1168 3117.5 1168 3142 1070 3240 1045.5 3240 433ZM1666 304 3300 304 3300 1435 1666 1435Z" fill-rule="evenodd" clip-rule="evenodd"/></clipPath><clipPath id="clip35"><path d="M2056 1017 2056 1162 3239 1162 3239 1017ZM1666 304 3300 304 3300 1435 1666 1435Z" fill-rule="evenodd" clip-rule="evenodd"/></clipPath><clipPath id="clip36"><rect x="43" y="34" width="236" height="91"/></clipPath><clipPath id="clip37"><path d="M2056 439 2056 582 2723 582 2723 439ZM1666 304 3300 304 3300 1435 1666 1435Z" fill-rule="evenodd" clip-rule="evenodd"/></clipPath><clipPath id="clip38"><rect x="43" y="34" width="255" height="91"/></clipPath><clipPath id="clip39"><rect x="-5" y="16" width="418" height="85"/></clipPath><clipPath id="clip40"><path d="M2723 440 2723 583 3240 583 3240 440ZM1666 304 3300 304 3300 1435 1666 1435Z" fill-rule="evenodd" clip-rule="evenodd"/></clipPath><clipPath id="clip41"><rect x="43" y="34" width="251" height="91"/></clipPath><clipPath id="clip42"><path d="M2054 582 2054 726 2266 726 2266 582ZM1666 304 3300 304 3300 1435 1666 1435Z" fill-rule="evenodd" clip-rule="evenodd"/></clipPath><clipPath id="clip43"><rect x="-5" y="16" width="175" height="85"/></clipPath><clipPath id="clip44"><path d="M2259 582 2259 725 2926 725 2926 582ZM1666 304 3300 304 3300 1435 1666 1435Z" fill-rule="evenodd" clip-rule="evenodd"/></clipPath><clipPath id="clip45"><rect x="43" y="34" width="255" height="91"/></clipPath><clipPath id="clip46"><rect x="-5" y="16" width="418" height="85"/></clipPath><clipPath id="clip47"><path d="M2927 582 2927 725 3240 725 3240 582ZM1666 304 3300 304 3300 1435 1666 1435Z" fill-rule="evenodd" clip-rule="evenodd"/></clipPath><clipPath id="clip48"><rect x="43" y="34" width="255" height="91"/></clipPath><clipPath id="clip49"><path d="M2053 723 2053 867 2389 867 2389 723ZM1666 304 3300 304 3300 1435 1666 1435Z" fill-rule="evenodd" clip-rule="evenodd"/></clipPath><clipPath id="clip50"><rect x="-5" y="16" width="287" height="85"/></clipPath><clipPath id="clip51"><path d="M2389 725 2389 868 3056 868 3056 725ZM1666 304 3300 304 3300 1435 1666 1435Z" fill-rule="evenodd" clip-rule="evenodd"/></clipPath><clipPath id="clip52"><rect x="43" y="34" width="251" height="91"/></clipPath><clipPath id="clip53"><rect x="-5" y="16" width="418" height="85"/></clipPath><clipPath id="clip54"><path d="M2998 1027 2998 1150 3152 1150 3152 1027ZM1666 304 3300 304 3300 1435 1666 1435Z" fill-rule="evenodd" clip-rule="evenodd"/></clipPath><clipPath id="clip55"><path d="M2847 1027 2847 1150 3000 1150 3000 1027ZM1666 304 3300 304 3300 1435 1666 1435Z" fill-rule="evenodd" clip-rule="evenodd"/></clipPath><clipPath id="clip56"><path d="M2695 1027 2695 1150 2849 1150 2849 1027ZM1666 304 3300 304 3300 1435 1666 1435Z" fill-rule="evenodd" clip-rule="evenodd"/></clipPath><clipPath id="clip57"><path d="M2543 1027 2543 1150 2697 1150 2697 1027ZM1666 304 3300 304 3300 1435 1666 1435Z" fill-rule="evenodd" clip-rule="evenodd"/></clipPath><clipPath id="clip58"><path d="M2398 1030 2398 1155 2552 1155 2552 1030ZM1666 304 3300 304 3300 1435 1666 1435Z" fill-rule="evenodd" clip-rule="evenodd"/></clipPath><clipPath id="clip59"><path d="M3196.5 1076C3185.18 1076 3176 1084.95 3176 1096 3176 1107.05 3185.18 1116 3196.5 1116 3207.82 1116 3217 1107.05 3217 1096 3217 1084.95 3207.82 1076 3196.5 1076ZM1666 304 3300 304 3300 1435 1666 1435Z" fill-rule="evenodd" clip-rule="evenodd"/></clipPath><clipPath id="clip60"><path d="M3162 1023 3162 1150 3228 1150 3228 1023ZM1666 304 3300 304 3300 1435 1666 1435Z" fill-rule="evenodd" clip-rule="evenodd"/></clipPath><clipPath id="clip61"><path d="M3196.5 1076C3185.18 1076 3176 1084.95 3176 1096 3176 1107.05 3185.18 1116 3196.5 1116 3207.82 1116 3217 1107.05 3217 1096 3217 1084.95 3207.82 1076 3196.5 1076ZM1666 304 3300 304 3300 1435 1666 1435Z" fill-rule="evenodd" clip-rule="evenodd"/></clipPath><clipPath id="clip62"><path d="M3067 739 3067 867 3228 867 3228 739ZM1666 304 3300 304 3300 1435 1666 1435Z" fill-rule="evenodd" clip-rule="evenodd"/></clipPath><clipPath id="clip63"><rect x="13" y="13" width="127" height="60"/></clipPath><clipPath id="clip64"><path d="M2054 877 2054 1004 2438 1004 2438 877ZM1666 304 3300 304 3300 1435 1666 1435Z" fill-rule="evenodd" clip-rule="evenodd"/></clipPath><clipPath id="clip65"><rect x="-5" y="16" width="378" height="85"/></clipPath></defs><g transform="translate(-1666 -304)"><g clip-path="url(#clip34)"><g filter="url(#fx0)" transform="translate(2034 417)"><g><path d="M23 23.218 1206 23.218 1206 635.716 1083.5 758.218 23 758.218Z" fill="#FFFFFF" fill-rule="evenodd"/><path d="M1083.5 758.218 1108 660.215 1206 635.716Z" fill="#CDCDCD" fill-rule="evenodd"/><path d="M1083.5 758.218 1108 660.215 1206 635.716 1083.5 758.218 23 758.218 23 23.218 1206 23.218 1206 635.716" stroke="#FFFFFF" stroke-width="14" stroke-linejoin="round" stroke-miterlimit="10" fill="none" fill-rule="evenodd"/></g></g></g><path d="M2057 433 3240 433 3240 1045.5 3117.5 1168 2057 1168Z" fill="#FFFFFF" fill-rule="evenodd"/><path d="M3117.5 1168 3142 1070 3240 1045.5Z" fill="#CDCDCD" fill-rule="evenodd"/><path d="M3117.5 1168 3142 1070 3240 1045.5 3117.5 1168 2057 1168 2057 433 3240 433 3240 1045.5" stroke="#FFFFFF" stroke-width="13.75" stroke-linejoin="round" stroke-miterlimit="10" fill="none" fill-rule="evenodd"/><g clip-path="url(#clip35)"><g filter="url(#fx1)" transform="translate(2033 1001)"><g><rect x="23" y="23.218" width="1183" height="145" stroke="#FFFFFF" stroke-width="14" stroke-linejoin="round" stroke-miterlimit="10" fill="#79C6C1"/></g></g><g clip-path="url(#clip36)" filter="url(#fx2)" transform="translate(2031 1018)"><g><path d="M5.66016 0 5.66016-49.3916 38.981-49.3916 38.981-43.563 12.1963-43.563 12.1963-28.2671 35.376-28.2671 35.376-22.4385 12.1963-22.4385 12.1963 0ZM44.1139-17.8901C44.1139-24.5161 45.9557-29.4238 49.6393-32.6133 52.7165-35.2637 56.4674-36.5889 60.8923-36.5889 65.8112-36.5889 69.8317-34.9773 72.9538-31.7541 76.0758-28.531 77.6369-24.0781 77.6369-18.3955 77.6369-13.791 76.9462-10.1692 75.5648-7.53003 74.1835-4.89087 72.1732-2.84131 69.5341-1.38135 66.8949 0.0786132 64.0143 0.808594 60.8923 0.808594 55.8835 0.808594 51.8349-0.797363 48.7465-4.00928 45.6581-7.22119 44.1139-11.8481 44.1139-17.8901ZM50.3468-17.8901C50.3468-13.3081 51.3463-9.8772 53.3454-7.59741 55.3444-5.31763 57.86-4.17773 60.8923-4.17773 63.902-4.17773 66.4064-5.32324 68.4054-7.61426 70.4044-9.90527 71.404-13.3979 71.404-18.0923 71.404-22.5171 70.3988-25.8694 68.3886-28.1492 66.3783-30.429 63.8796-31.5688 60.8923-31.5688 57.86-31.5688 55.3444-30.4346 53.3454-28.166 51.3463-25.8975 50.3468-22.4722 50.3468-17.8901ZM82.4993-17.8901C82.4993-24.5161 84.3411-29.4238 88.0247-32.6133 91.1019-35.2637 94.8529-36.5889 99.2777-36.5889 104.197-36.5889 108.217-34.9773 111.339-31.7541 114.461-28.531 116.022-24.0781 116.022-18.3955 116.022-13.791 115.332-10.1692 113.95-7.53003 112.569-4.89087 110.559-2.84131 107.92-1.38135 105.28 0.0786132 102.4 0.808594 99.2777 0.808594 94.2689 0.808594 90.2203-0.797363 87.1319-4.00928 84.0435-7.22119 82.4993-11.8481 82.4993-17.8901ZM88.7323-17.8901C88.7323-13.3081 89.7318-9.8772 91.7308-7.59741 93.7298-5.31763 96.2454-4.17773 99.2777-4.17773 102.287-4.17773 104.792-5.32324 106.791-7.61426 108.79-9.90527 109.789-13.3979 109.789-18.0923 109.789-22.5171 108.784-25.8694 106.774-28.1492 104.764-30.429 102.265-31.5688 99.2777-31.5688 96.2454-31.5688 93.7298-30.4346 91.7308-28.166 89.7318-25.8975 88.7323-22.4722 88.7323-17.8901ZM136.383-5.42432 137.259-0.0673828C135.552 0.291992 134.024 0.47168 132.677 0.47168 130.476 0.47168 128.769 0.123535 127.556-0.572754 126.343-1.26904 125.489-2.18433 124.995-3.3186 124.501-4.45288 124.254-6.83935 124.254-10.478L124.254-31.0635 119.807-31.0635 119.807-35.7803 124.254-35.7803 124.254-44.6411 130.285-48.2798 130.285-35.7803 136.383-35.7803 136.383-31.0635 130.285-31.0635 130.285-10.1411C130.285-8.41162 130.391-7.2998 130.605-6.80566 130.818-6.31152 131.166-5.91846 131.649-5.62646 132.132-5.33447 132.823-5.18848 133.721-5.18848 134.395-5.18848 135.282-5.26709 136.383-5.42432ZM166.542-11.5225 172.809-10.7476C171.82-7.08642 169.99-4.24512 167.317-2.22363 164.644-0.202148 161.23 0.808594 157.075 0.808594 151.841 0.808594 147.692-0.802979 144.626-4.02612 141.56-7.24927 140.027-11.7695 140.027-17.5869 140.027-23.6064 141.577-28.2783 144.676-31.6025 147.776-34.9268 151.796-36.5889 156.738-36.5889 161.522-36.5889 165.43-34.9604 168.462-31.7036 171.495-28.4468 173.011-23.8647 173.011-17.9575 173.011-17.5981 172.999-17.0591 172.977-16.3403L146.293-16.3403C146.518-12.4097 147.63-9.3999 149.629-7.31103 151.628-5.22217 154.121-4.17773 157.108-4.17773 159.332-4.17773 161.23-4.76172 162.802-5.92969 164.374-7.09766 165.621-8.96191 166.542-11.5225ZM146.63-21.3267 166.609-21.3267C166.34-24.3364 165.576-26.5937 164.318-28.0986 162.387-30.4346 159.882-31.6025 156.805-31.6025 154.02-31.6025 151.678-30.6704 149.781-28.8061 147.883-26.9419 146.832-24.4487 146.63-21.3267ZM180.366 0 180.366-35.7803 185.824-35.7803 185.824-30.356C187.217-32.894 188.503-34.5674 189.682-35.376 190.861-36.1846 192.158-36.5889 193.573-36.5889 195.617-36.5889 197.695-35.9375 199.806-34.6348L197.717-29.0083C196.235-29.8843 194.753-30.3223 193.27-30.3223 191.945-30.3223 190.755-29.9236 189.699-29.1262 188.643-28.3289 187.891-27.2227 187.442-25.8076 186.768-23.6514 186.431-21.293 186.431-18.7324L186.431 0Z" transform="matrix(1 0 0 1 57.9507 104)"/></g></g></g><rect x="2056" y="1017" width="1183" height="145" stroke="#FFFFFF" stroke-width="13.75" stroke-linejoin="round" stroke-miterlimit="10" fill="#79C6C1"/><text font-family="Arial,Arial_MSFontService,sans-serif" font-weight="400" font-size="69" transform="matrix(1 0 0 1 2088.95 1115)">Footer</text><g clip-path="url(#clip37)"><g filter="url(#fx3)" transform="translate(2033 423)"><g><rect x="23" y="23.2178" width="667" height="143" stroke="#FFFFFF" stroke-width="14" stroke-linejoin="round" stroke-miterlimit="10" fill="#44516F"/></g></g><g clip-path="url(#clip38)" filter="url(#fx4)" transform="translate(2031 440)"><g><path d="M5.42432 0 5.42432-49.3916 27.3237-49.3916C31.7261-49.3916 35.0728-48.948 37.3638-48.0608 39.6548-47.1736 41.4853-45.6069 42.8555-43.3608 44.2256-41.1147 44.9106-38.6328 44.9106-35.915 44.9106-32.4111 43.7764-29.4575 41.5078-27.0542 39.2393-24.6509 35.7353-23.1235 30.9961-22.4722 32.7256-21.6411 34.0395-20.8213 34.938-20.0127 36.8472-18.2607 38.6553-16.0708 40.3623-13.4429L48.9536 0 40.7329 0 34.1968-10.2759C32.2876-13.2407 30.7153-15.5093 29.48-17.0815 28.2446-18.6538 27.1384-19.7544 26.1614-20.3833 25.1843-21.0122 24.1904-21.4502 23.1797-21.6973 22.4385-21.8545 21.2256-21.9331 19.541-21.9331L11.9604-21.9331 11.9604 0ZM11.9604-27.5933 26.0098-27.5933C28.9971-27.5933 31.333-27.9021 33.0176-28.5198 34.7021-29.1374 35.9824-30.1257 36.8584-31.4846 37.7344-32.8435 38.1724-34.3203 38.1724-35.915 38.1724-38.251 37.3245-40.1714 35.6287-41.6763 33.9329-43.1811 31.2544-43.9336 27.5933-43.9336L11.9604-43.9336ZM78.8857-11.5225 85.1523-10.7476C84.164-7.08642 82.3335-4.24512 79.6606-2.22363 76.9878-0.202148 73.5737 0.808594 69.4184 0.808594 64.1851 0.808594 60.0354-0.802979 56.9695-4.02612 53.9036-7.24927 52.3706-11.7695 52.3706-17.5869 52.3706-23.6064 53.9204-28.2783 57.02-31.6025 60.1196-34.9268 64.1401-36.5889 69.0815-36.5889 73.8657-36.5889 77.7739-34.9604 80.8061-31.7036 83.8384-28.4468 85.3545-23.8647 85.3545-17.9575 85.3545-17.5981 85.3432-17.0591 85.3208-16.3403L58.6372-16.3403C58.8618-12.4097 59.9736-9.3999 61.9727-7.31103 63.9717-5.22217 66.4648-4.17773 69.4521-4.17773 71.6758-4.17773 73.5737-4.76172 75.146-5.92969 76.7183-7.09766 77.9648-8.96191 78.8857-11.5225ZM58.9741-21.3267 78.9531-21.3267C78.6836-24.3364 77.9199-26.5937 76.6621-28.0986 74.7305-30.4346 72.2261-31.6025 69.1489-31.6025 66.3638-31.6025 64.0222-30.6704 62.1243-28.8061 60.2263-26.9419 59.1763-24.4487 58.9741-21.3267ZM116.126-13.106 122.089-12.3311C121.438-8.2207 119.77-5.00317 117.086-2.67847 114.402-0.35376 111.106 0.808594 107.197 0.808594 102.301 0.808594 98.3647-0.791748 95.3886-3.99243 92.4125-7.19311 90.9245-11.7808 90.9245-17.7554 90.9245-21.6187 91.5646-24.999 92.8449-27.8965 94.1252-30.7939 96.0736-32.967 98.6903-34.4158 101.307-35.8645 104.154-36.5889 107.231-36.5889 111.117-36.5889 114.295-35.6062 116.766-33.6409 119.236-31.6755 120.82-28.8848 121.516-25.2686L115.62-24.3589C115.059-26.7622 114.065-28.5703 112.639-29.7832 111.212-30.9961 109.488-31.6025 107.467-31.6025 104.412-31.6025 101.93-30.5076 100.021-28.3176 98.112-26.1277 97.1574-22.6631 97.1574-17.9238 97.1574-13.1172 98.0783-9.62451 99.9201-7.4458 101.762-5.26709 104.165-4.17773 107.13-4.17773 109.511-4.17773 111.499-4.90771 113.093-6.36768 114.688-7.82764 115.699-10.0737 116.126-13.106ZM124.895-17.8901C124.895-24.5161 126.737-29.4238 130.421-32.6133 133.498-35.2637 137.249-36.5889 141.673-36.5889 146.592-36.5889 150.613-34.9773 153.735-31.7541 156.857-28.531 158.418-24.0781 158.418-18.3955 158.418-13.791 157.727-10.1692 156.346-7.53003 154.965-4.89087 152.954-2.84131 150.315-1.38135 147.676 0.0786132 144.796 0.808594 141.673 0.808594 136.665 0.808594 132.616-0.797363 129.528-4.00928 126.439-7.22119 124.895-11.8481 124.895-17.8901ZM131.128-17.8901C131.128-13.3081 132.128-9.8772 134.127-7.59741 136.126-5.31763 138.641-4.17773 141.673-4.17773 144.683-4.17773 147.188-5.32324 149.187-7.61426 151.186-9.90527 152.185-13.3979 152.185-18.0923 152.185-22.5171 151.18-25.8694 149.17-28.1492 147.16-30.429 144.661-31.5688 141.673-31.5688 138.641-31.5688 136.126-30.4346 134.127-28.166 132.128-25.8975 131.128-22.4722 131.128-17.8901ZM165.471 0 165.471-35.7803 170.929-35.7803 170.929-30.356C172.321-32.894 173.607-34.5674 174.786-35.376 175.965-36.1846 177.263-36.5889 178.678-36.5889 180.721-36.5889 182.799-35.9375 184.91-34.6348L182.822-29.0083C181.339-29.8843 179.857-30.3223 178.374-30.3223 177.049-30.3223 175.859-29.9236 174.803-29.1262 173.747-28.3289 172.995-27.2227 172.546-25.8076 171.872-23.6514 171.535-21.293 171.535-18.7324L171.535 0ZM211.668 0 211.668-4.51465C209.399-0.96582 206.064 0.808594 201.662 0.808594 198.809 0.808594 196.187 0.0224608 193.795-1.5498 191.403-3.12207 189.55-5.31763 188.236-8.13647 186.922-10.9553 186.265-14.1953 186.265-17.8564 186.265-21.4277 186.86-24.6677 188.05-27.5764 189.241-30.4851 191.026-32.7144 193.407-34.2642 195.788-35.814 198.45-36.5889 201.392-36.5889 203.548-36.5889 205.469-36.134 207.153-35.2244 208.838-34.3147 210.208-33.1299 211.264-31.6699L211.264-49.3916 217.294-49.3916 217.294 0ZM192.498-17.8564C192.498-13.2744 193.463-9.84912 195.395-7.58057 197.327-5.31201 199.606-4.17773 202.234-4.17773 204.885-4.17773 207.136-5.26147 208.989-7.42895 210.842-9.59643 211.769-12.9038 211.769-17.3511 211.769-22.2476 210.826-25.8413 208.939-28.1323 207.052-30.4233 204.728-31.5688 201.965-31.5688 199.27-31.5688 197.018-30.4683 195.21-28.2671 193.402-26.0659 192.498-22.5957 192.498-17.8564Z" fill="#FFFFFF" transform="matrix(1 0 0 1 57.9507 104)"/></g></g></g><rect x="2056" y="439" width="667" height="143" stroke="#FFFFFF" stroke-width="13.75" stroke-linejoin="round" stroke-miterlimit="10" fill="#44516F"/><text fill="#FFFFFF" font-family="Arial,Arial_MSFontService,sans-serif" font-weight="400" font-size="69" transform="matrix(1 0 0 1 2088.95 536)">Record</text><g clip-path="url(#clip39)" filter="url(#fx5)" transform="translate(2305 461)"><g><path d="M37 57.218 390.449 57.2184" fill="#44516F" fill-rule="evenodd"/><path d="M37 50.218 355.449 50.2183 355.449 64.2183 37 64.218ZM37 78.218C25.402 78.218 16 68.816 16 57.218 16 45.62 25.402 36.218 37 36.218 48.598 36.218 58 45.6201 58 57.218 58 68.816 48.598 78.218 37 78.218ZM348.449 36.2183 390.449 57.2184 348.449 78.2183Z" fill="#FFFFFF"/></g></g><path d="M2342 511 2695.45 511.001" fill="#44516F" fill-rule="evenodd"/><path d="M2342 504.125 2661.07 504.125 2661.07 517.875 2342 517.875ZM2342 531.625C2330.61 531.625 2321.38 522.391 2321.38 511 2321.38 499.609 2330.61 490.375 2342 490.375 2353.39 490.375 2362.62 499.609 2362.62 511 2362.62 522.391 2353.39 531.625 2342 531.625ZM2654.2 490.375 2695.45 511.001 2654.2 531.625Z" fill="#FFFFFF"/><g clip-path="url(#clip40)"><g filter="url(#fx6)" transform="translate(2700 424)"><g><rect x="22.9998" y="23.2178" width="517" height="143" stroke="#FFFFFF" stroke-width="14" stroke-linejoin="round" stroke-miterlimit="10" fill="#44516F"/></g></g><g clip-path="url(#clip41)" filter="url(#fx7)" transform="translate(2698 441)"><g><path d="M5.42432 0 5.42432-49.3916 27.3237-49.3916C31.7261-49.3916 35.0728-48.948 37.3638-48.0608 39.6548-47.1736 41.4853-45.6069 42.8555-43.3608 44.2256-41.1147 44.9106-38.6328 44.9106-35.915 44.9106-32.4111 43.7764-29.4575 41.5078-27.0542 39.2393-24.6509 35.7353-23.1235 30.9961-22.4722 32.7256-21.6411 34.0395-20.8213 34.938-20.0127 36.8472-18.2607 38.6553-16.0708 40.3623-13.4429L48.9536 0 40.7329 0 34.1968-10.2759C32.2876-13.2407 30.7153-15.5093 29.48-17.0815 28.2446-18.6538 27.1384-19.7544 26.1614-20.3833 25.1843-21.0122 24.1904-21.4502 23.1797-21.6973 22.4385-21.8545 21.2256-21.9331 19.541-21.9331L11.9604-21.9331 11.9604 0ZM11.9604-27.5933 26.0098-27.5933C28.9971-27.5933 31.333-27.9021 33.0176-28.5198 34.7021-29.1374 35.9824-30.1257 36.8584-31.4846 37.7344-32.8435 38.1724-34.3203 38.1724-35.915 38.1724-38.251 37.3245-40.1714 35.6287-41.6763 33.9329-43.1811 31.2544-43.9336 27.5933-43.9336L11.9604-43.9336ZM78.8857-11.5225 85.1523-10.7476C84.164-7.08642 82.3335-4.24512 79.6606-2.22363 76.9878-0.202148 73.5737 0.808594 69.4184 0.808594 64.1851 0.808594 60.0354-0.802979 56.9695-4.02612 53.9036-7.24927 52.3706-11.7695 52.3706-17.5869 52.3706-23.6064 53.9204-28.2783 57.02-31.6025 60.1196-34.9268 64.1401-36.5889 69.0815-36.5889 73.8657-36.5889 77.7739-34.9604 80.8061-31.7036 83.8384-28.4468 85.3545-23.8647 85.3545-17.9575 85.3545-17.5981 85.3432-17.0591 85.3208-16.3403L58.6372-16.3403C58.8618-12.4097 59.9736-9.3999 61.9727-7.31103 63.9717-5.22217 66.4648-4.17773 69.4521-4.17773 71.6758-4.17773 73.5737-4.76172 75.146-5.92969 76.7183-7.09766 77.9648-8.96191 78.8857-11.5225ZM58.9741-21.3267 78.9531-21.3267C78.6836-24.3364 77.9199-26.5937 76.6621-28.0986 74.7305-30.4346 72.2261-31.6025 69.1489-31.6025 66.3638-31.6025 64.0222-30.6704 62.1243-28.8061 60.2263-26.9419 59.1763-24.4487 58.9741-21.3267ZM116.126-13.106 122.089-12.3311C121.438-8.2207 119.77-5.00317 117.086-2.67847 114.402-0.35376 111.106 0.808594 107.197 0.808594 102.301 0.808594 98.3647-0.791748 95.3886-3.99243 92.4125-7.19311 90.9245-11.7808 90.9245-17.7554 90.9245-21.6187 91.5646-24.999 92.8449-27.8965 94.1252-30.7939 96.0736-32.967 98.6903-34.4158 101.307-35.8645 104.154-36.5889 107.231-36.5889 111.117-36.5889 114.295-35.6062 116.766-33.6409 119.236-31.6755 120.82-28.8848 121.516-25.2686L115.62-24.3589C115.059-26.7622 114.065-28.5703 112.639-29.7832 111.212-30.9961 109.488-31.6025 107.467-31.6025 104.412-31.6025 101.93-30.5076 100.021-28.3176 98.112-26.1277 97.1574-22.6631 97.1574-17.9238 97.1574-13.1172 98.0783-9.62451 99.9201-7.4458 101.762-5.26709 104.165-4.17773 107.13-4.17773 109.511-4.17773 111.499-4.90771 113.093-6.36768 114.688-7.82764 115.699-10.0737 116.126-13.106ZM124.895-17.8901C124.895-24.5161 126.737-29.4238 130.421-32.6133 133.498-35.2637 137.249-36.5889 141.673-36.5889 146.592-36.5889 150.613-34.9773 153.735-31.7541 156.857-28.531 158.418-24.0781 158.418-18.3955 158.418-13.791 157.727-10.1692 156.346-7.53003 154.965-4.89087 152.954-2.84131 150.315-1.38135 147.676 0.0786132 144.796 0.808594 141.673 0.808594 136.665 0.808594 132.616-0.797363 129.528-4.00928 126.439-7.22119 124.895-11.8481 124.895-17.8901ZM131.128-17.8901C131.128-13.3081 132.128-9.8772 134.127-7.59741 136.126-5.31763 138.641-4.17773 141.673-4.17773 144.683-4.17773 147.188-5.32324 149.187-7.61426 151.186-9.90527 152.185-13.3979 152.185-18.0923 152.185-22.5171 151.18-25.8694 149.17-28.1492 147.16-30.429 144.661-31.5688 141.673-31.5688 138.641-31.5688 136.126-30.4346 134.127-28.166 132.128-25.8975 131.128-22.4722 131.128-17.8901ZM165.471 0 165.471-35.7803 170.929-35.7803 170.929-30.356C172.321-32.894 173.607-34.5674 174.786-35.376 175.965-36.1846 177.263-36.5889 178.678-36.5889 180.721-36.5889 182.799-35.9375 184.91-34.6348L182.822-29.0083C181.339-29.8843 179.857-30.3223 178.374-30.3223 177.049-30.3223 175.859-29.9236 174.803-29.1262 173.747-28.3289 172.995-27.2227 172.546-25.8076 171.872-23.6514 171.535-21.293 171.535-18.7324L171.535 0ZM211.668 0 211.668-4.51465C209.399-0.96582 206.064 0.808594 201.662 0.808594 198.809 0.808594 196.187 0.0224608 193.795-1.5498 191.403-3.12207 189.55-5.31763 188.236-8.13647 186.922-10.9553 186.265-14.1953 186.265-17.8564 186.265-21.4277 186.86-24.6677 188.05-27.5764 189.241-30.4851 191.026-32.7144 193.407-34.2642 195.788-35.814 198.45-36.5889 201.392-36.5889 203.548-36.5889 205.469-36.134 207.153-35.2244 208.838-34.3147 210.208-33.1299 211.264-31.6699L211.264-49.3916 217.294-49.3916 217.294 0ZM192.498-17.8564C192.498-13.2744 193.463-9.84912 195.395-7.58057 197.327-5.31201 199.606-4.17773 202.234-4.17773 204.885-4.17773 207.136-5.26147 208.989-7.42895 210.842-9.59643 211.769-12.9038 211.769-17.3511 211.769-22.2476 210.826-25.8413 208.939-28.1323 207.052-30.4233 204.728-31.5688 201.965-31.5688 199.27-31.5688 197.018-30.4683 195.21-28.2671 193.402-26.0659 192.498-22.5957 192.498-17.8564Z" fill="#FFFFFF" transform="matrix(1 0 0 1 57.5547 104)"/></g></g></g><rect x="2723" y="440" width="517" height="143" stroke="#FFFFFF" stroke-width="13.75" stroke-linejoin="round" stroke-miterlimit="10" fill="#44516F"/><text fill="#FFFFFF" font-family="Arial,Arial_MSFontService,sans-serif" font-weight="400" font-size="69" transform="matrix(1 0 0 1 2755.55 537)">Record</text><g filter="url(#fx8)" transform="translate(2958 483)"><g><path d="M0 0 199.016 0.000360892" fill="#44516F" fill-rule="evenodd" transform="matrix(1 0 0 -1 37 36.218)"/><path d="M1.26937e-05-7 199.016-6.99964 199.016 7.00036-1.26937e-05 7ZM-3.80811e-05 21C-11.598 21-21 11.5979-21-3.80811e-05-21-11.598-11.5979-21 3.80811e-05-21 11.598-21 21-11.5979 21 3.80811e-05 21 11.598 11.5979 21-3.80811e-05 21Z" fill="#FFFFFF" transform="matrix(1 0 0 -1 37 36.218)"/></g></g><path d="M0 0 199.016 0.000360892" fill="#44516F" fill-rule="evenodd" transform="matrix(1 0 0 -1 2995 512)"/><path d="M1.2467e-05-6.875 199.016-6.87464 199.016 6.87536-1.2467e-05 6.875ZM-3.74011e-05 20.625C-11.3909 20.625-20.625 11.3908-20.625-3.74011e-05-20.625-11.3909-11.3908-20.625 3.74011e-05-20.625 11.3909-20.625 20.625-11.3908 20.625 3.74011e-05 20.625 11.3909 11.3908 20.625-3.74011e-05 20.625Z" fill="#FFFFFF" transform="matrix(1 0 0 -1 2995 512)"/><g clip-path="url(#clip42)"><g filter="url(#fx9)" transform="translate(2031 566)"><g><rect x="23" y="23.2178" width="212" height="144" stroke="#FFFFFF" stroke-width="14" stroke-linejoin="round" stroke-miterlimit="10" fill="#44516F"/></g></g></g><rect x="2054" y="582" width="212" height="144" stroke="#FFFFFF" stroke-width="13.75" stroke-linejoin="round" stroke-miterlimit="10" fill="#44516F"/><g clip-path="url(#clip43)" filter="url(#fx10)" transform="translate(2081 604)"><g><path d="M15.9998 57.218 150.828 57.2184" fill="#44516F" fill-rule="evenodd"/><path d="M15.9998 50.218 115.828 50.2183 115.828 64.2183 15.9997 64.218ZM108.828 36.2183 150.828 57.2184 108.828 78.2183Z" fill="#FFFFFF"/></g></g><path d="M2097 654 2231.83 654.001" fill="#44516F" fill-rule="evenodd"/><path d="M2097 647.125 2197.45 647.125 2197.45 660.875 2097 660.875ZM2190.58 633.375 2231.83 654.001 2190.58 674.625Z" fill="#FFFFFF"/><g clip-path="url(#clip44)"><g filter="url(#fx11)" transform="translate(2236 566)"><g><rect x="23.0002" y="23.2178" width="667" height="143" stroke="#FFFFFF" stroke-width="14" stroke-linejoin="round" stroke-miterlimit="10" fill="#BFBFBF"/></g></g><g clip-path="url(#clip45)" filter="url(#fx12)" transform="translate(2234 583)"><g><path d="M5.42432 0 5.42432-49.3916 27.3237-49.3916C31.7261-49.3916 35.0728-48.948 37.3638-48.0608 39.6548-47.1736 41.4853-45.6069 42.8555-43.3608 44.2256-41.1147 44.9106-38.6328 44.9106-35.915 44.9106-32.4111 43.7764-29.4575 41.5078-27.0542 39.2393-24.6509 35.7353-23.1235 30.9961-22.4722 32.7256-21.6411 34.0395-20.8213 34.938-20.0127 36.8472-18.2607 38.6553-16.0708 40.3623-13.4429L48.9536 0 40.7329 0 34.1968-10.2759C32.2876-13.2407 30.7153-15.5093 29.48-17.0815 28.2446-18.6538 27.1384-19.7544 26.1614-20.3833 25.1843-21.0122 24.1904-21.4502 23.1797-21.6973 22.4385-21.8545 21.2256-21.9331 19.541-21.9331L11.9604-21.9331 11.9604 0ZM11.9604-27.5933 26.0098-27.5933C28.9971-27.5933 31.333-27.9021 33.0176-28.5198 34.7021-29.1374 35.9824-30.1257 36.8584-31.4846 37.7344-32.8435 38.1724-34.3203 38.1724-35.915 38.1724-38.251 37.3245-40.1714 35.6287-41.6763 33.9329-43.1811 31.2544-43.9336 27.5933-43.9336L11.9604-43.9336ZM78.8857-11.5225 85.1523-10.7476C84.164-7.08642 82.3335-4.24512 79.6606-2.22363 76.9878-0.202148 73.5737 0.808594 69.4184 0.808594 64.1851 0.808594 60.0354-0.802979 56.9695-4.02612 53.9036-7.24927 52.3706-11.7695 52.3706-17.5869 52.3706-23.6064 53.9204-28.2783 57.02-31.6025 60.1196-34.9268 64.1401-36.5889 69.0815-36.5889 73.8657-36.5889 77.7739-34.9604 80.8061-31.7036 83.8384-28.4468 85.3545-23.8647 85.3545-17.9575 85.3545-17.5981 85.3432-17.0591 85.3208-16.3403L58.6372-16.3403C58.8618-12.4097 59.9736-9.3999 61.9727-7.31103 63.9717-5.22217 66.4648-4.17773 69.4521-4.17773 71.6758-4.17773 73.5737-4.76172 75.146-5.92969 76.7183-7.09766 77.9648-8.96191 78.8857-11.5225ZM58.9741-21.3267 78.9531-21.3267C78.6836-24.3364 77.9199-26.5937 76.6621-28.0986 74.7305-30.4346 72.2261-31.6025 69.1489-31.6025 66.3638-31.6025 64.0222-30.6704 62.1243-28.8061 60.2263-26.9419 59.1763-24.4487 58.9741-21.3267ZM116.126-13.106 122.089-12.3311C121.438-8.2207 119.77-5.00317 117.086-2.67847 114.402-0.35376 111.106 0.808594 107.197 0.808594 102.301 0.808594 98.3647-0.791748 95.3886-3.99243 92.4125-7.19311 90.9245-11.7808 90.9245-17.7554 90.9245-21.6187 91.5646-24.999 92.8449-27.8965 94.1252-30.7939 96.0736-32.967 98.6903-34.4158 101.307-35.8645 104.154-36.5889 107.231-36.5889 111.117-36.5889 114.295-35.6062 116.766-33.6409 119.236-31.6755 120.82-28.8848 121.516-25.2686L115.62-24.3589C115.059-26.7622 114.065-28.5703 112.639-29.7832 111.212-30.9961 109.488-31.6025 107.467-31.6025 104.412-31.6025 101.93-30.5076 100.021-28.3176 98.112-26.1277 97.1574-22.6631 97.1574-17.9238 97.1574-13.1172 98.0783-9.62451 99.9201-7.4458 101.762-5.26709 104.165-4.17773 107.13-4.17773 109.511-4.17773 111.499-4.90771 113.093-6.36768 114.688-7.82764 115.699-10.0737 116.126-13.106ZM124.895-17.8901C124.895-24.5161 126.737-29.4238 130.421-32.6133 133.498-35.2637 137.249-36.5889 141.673-36.5889 146.592-36.5889 150.613-34.9773 153.735-31.7541 156.857-28.531 158.418-24.0781 158.418-18.3955 158.418-13.791 157.727-10.1692 156.346-7.53003 154.965-4.89087 152.954-2.84131 150.315-1.38135 147.676 0.0786132 144.796 0.808594 141.673 0.808594 136.665 0.808594 132.616-0.797363 129.528-4.00928 126.439-7.22119 124.895-11.8481 124.895-17.8901ZM131.128-17.8901C131.128-13.3081 132.128-9.8772 134.127-7.59741 136.126-5.31763 138.641-4.17773 141.673-4.17773 144.683-4.17773 147.188-5.32324 149.187-7.61426 151.186-9.90527 152.185-13.3979 152.185-18.0923 152.185-22.5171 151.18-25.8694 149.17-28.1492 147.16-30.429 144.661-31.5688 141.673-31.5688 138.641-31.5688 136.126-30.4346 134.127-28.166 132.128-25.8975 131.128-22.4722 131.128-17.8901ZM165.471 0 165.471-35.7803 170.929-35.7803 170.929-30.356C172.321-32.894 173.607-34.5674 174.786-35.376 175.965-36.1846 177.263-36.5889 178.678-36.5889 180.721-36.5889 182.799-35.9375 184.91-34.6348L182.822-29.0083C181.339-29.8843 179.857-30.3223 178.374-30.3223 177.049-30.3223 175.859-29.9236 174.803-29.1262 173.747-28.3289 172.995-27.2227 172.546-25.8076 171.872-23.6514 171.535-21.293 171.535-18.7324L171.535 0ZM211.668 0 211.668-4.51465C209.399-0.96582 206.064 0.808594 201.662 0.808594 198.809 0.808594 196.187 0.0224608 193.795-1.5498 191.403-3.12207 189.55-5.31763 188.236-8.13647 186.922-10.9553 186.265-14.1953 186.265-17.8564 186.265-21.4277 186.86-24.6677 188.05-27.5764 189.241-30.4851 191.026-32.7144 193.407-34.2642 195.788-35.814 198.45-36.5889 201.392-36.5889 203.548-36.5889 205.469-36.134 207.153-35.2244 208.838-34.3147 210.208-33.1299 211.264-31.6699L211.264-49.3916 217.294-49.3916 217.294 0ZM192.498-17.8564C192.498-13.2744 193.463-9.84912 195.395-7.58057 197.327-5.31201 199.606-4.17773 202.234-4.17773 204.885-4.17773 207.136-5.26147 208.989-7.42895 210.842-9.59643 211.769-12.9038 211.769-17.3511 211.769-22.2476 210.826-25.8413 208.939-28.1323 207.052-30.4233 204.728-31.5688 201.965-31.5688 199.27-31.5688 197.018-30.4683 195.21-28.2671 193.402-26.0659 192.498-22.5957 192.498-17.8564Z" transform="matrix(1 0 0 1 57.8994 104)"/></g></g></g><rect x="2259" y="582" width="667" height="143" stroke="#FFFFFF" stroke-width="13.75" stroke-linejoin="round" stroke-miterlimit="10" fill="#BFBFBF"/><text font-family="Arial,Arial_MSFontService,sans-serif" font-weight="400" font-size="69" transform="matrix(1 0 0 1 2291.9 679)">Record</text><g clip-path="url(#clip46)" filter="url(#fx13)" transform="translate(2508 604)"><g><path d="M37.0002 57.218 390.449 57.2184" fill="#44516F" fill-rule="evenodd"/><path d="M37.0003 50.218 355.449 50.2183 355.449 64.2183 37.0002 64.218ZM37.0002 78.218C25.4022 78.218 16.0002 68.816 16.0002 57.218 16.0003 45.62 25.4023 36.218 37.0003 36.218 48.5982 36.218 58.0003 45.6201 58.0002 57.218 58.0002 68.816 48.5982 78.218 37.0002 78.218ZM348.449 36.2183 390.449 57.2184 348.449 78.2183Z" fill="#FFFFFF"/></g></g><path d="M2545 654 2898.45 654.001" fill="#44516F" fill-rule="evenodd"/><path d="M2545 647.125 2864.07 647.125 2864.07 660.875 2545 660.875ZM2545 674.625C2533.61 674.625 2524.38 665.391 2524.38 654 2524.38 642.609 2533.61 633.375 2545 633.375 2556.39 633.375 2565.63 642.609 2565.63 654 2565.63 665.391 2556.39 674.625 2545 674.625ZM2857.2 633.375 2898.45 654.001 2857.2 674.625Z" fill="#FFFFFF"/><g clip-path="url(#clip47)"><g filter="url(#fx14)" transform="translate(2904 566)"><g><rect x="23" y="23.2178" width="313" height="143" stroke="#FFFFFF" stroke-width="14" stroke-linejoin="round" stroke-miterlimit="10" fill="#44516F"/></g></g><g clip-path="url(#clip48)" filter="url(#fx15)" transform="translate(2902 583)"><g><path d="M5.42432 0 5.42432-49.3916 27.3237-49.3916C31.7261-49.3916 35.0728-48.948 37.3638-48.0608 39.6548-47.1736 41.4853-45.6069 42.8555-43.3608 44.2256-41.1147 44.9106-38.6328 44.9106-35.915 44.9106-32.4111 43.7764-29.4575 41.5078-27.0542 39.2393-24.6509 35.7353-23.1235 30.9961-22.4722 32.7256-21.6411 34.0395-20.8213 34.938-20.0127 36.8472-18.2607 38.6553-16.0708 40.3623-13.4429L48.9536 0 40.7329 0 34.1968-10.2759C32.2876-13.2407 30.7153-15.5093 29.48-17.0815 28.2446-18.6538 27.1384-19.7544 26.1614-20.3833 25.1843-21.0122 24.1904-21.4502 23.1797-21.6973 22.4385-21.8545 21.2256-21.9331 19.541-21.9331L11.9604-21.9331 11.9604 0ZM11.9604-27.5933 26.0098-27.5933C28.9971-27.5933 31.333-27.9021 33.0176-28.5198 34.7021-29.1374 35.9824-30.1257 36.8584-31.4846 37.7344-32.8435 38.1724-34.3203 38.1724-35.915 38.1724-38.251 37.3245-40.1714 35.6287-41.6763 33.9329-43.1811 31.2544-43.9336 27.5933-43.9336L11.9604-43.9336ZM78.8857-11.5225 85.1523-10.7476C84.164-7.08642 82.3335-4.24512 79.6606-2.22363 76.9878-0.202148 73.5737 0.808594 69.4184 0.808594 64.1851 0.808594 60.0354-0.802979 56.9695-4.02612 53.9036-7.24927 52.3706-11.7695 52.3706-17.5869 52.3706-23.6064 53.9204-28.2783 57.02-31.6025 60.1196-34.9268 64.1401-36.5889 69.0815-36.5889 73.8657-36.5889 77.7739-34.9604 80.8061-31.7036 83.8384-28.4468 85.3545-23.8647 85.3545-17.9575 85.3545-17.5981 85.3432-17.0591 85.3208-16.3403L58.6372-16.3403C58.8618-12.4097 59.9736-9.3999 61.9727-7.31103 63.9717-5.22217 66.4648-4.17773 69.4521-4.17773 71.6758-4.17773 73.5737-4.76172 75.146-5.92969 76.7183-7.09766 77.9648-8.96191 78.8857-11.5225ZM58.9741-21.3267 78.9531-21.3267C78.6836-24.3364 77.9199-26.5937 76.6621-28.0986 74.7305-30.4346 72.2261-31.6025 69.1489-31.6025 66.3638-31.6025 64.0222-30.6704 62.1243-28.8061 60.2263-26.9419 59.1763-24.4487 58.9741-21.3267ZM116.126-13.106 122.089-12.3311C121.438-8.2207 119.77-5.00317 117.086-2.67847 114.402-0.35376 111.106 0.808594 107.197 0.808594 102.301 0.808594 98.3647-0.791748 95.3886-3.99243 92.4125-7.19311 90.9245-11.7808 90.9245-17.7554 90.9245-21.6187 91.5646-24.999 92.8449-27.8965 94.1252-30.7939 96.0736-32.967 98.6903-34.4158 101.307-35.8645 104.154-36.5889 107.231-36.5889 111.117-36.5889 114.295-35.6062 116.766-33.6409 119.236-31.6755 120.82-28.8848 121.516-25.2686L115.62-24.3589C115.059-26.7622 114.065-28.5703 112.639-29.7832 111.212-30.9961 109.488-31.6025 107.467-31.6025 104.412-31.6025 101.93-30.5076 100.021-28.3176 98.112-26.1277 97.1574-22.6631 97.1574-17.9238 97.1574-13.1172 98.0783-9.62451 99.9201-7.4458 101.762-5.26709 104.165-4.17773 107.13-4.17773 109.511-4.17773 111.499-4.90771 113.093-6.36768 114.688-7.82764 115.699-10.0737 116.126-13.106ZM124.895-17.8901C124.895-24.5161 126.737-29.4238 130.421-32.6133 133.498-35.2637 137.249-36.5889 141.673-36.5889 146.592-36.5889 150.613-34.9773 153.735-31.7541 156.857-28.531 158.418-24.0781 158.418-18.3955 158.418-13.791 157.727-10.1692 156.346-7.53003 154.965-4.89087 152.954-2.84131 150.315-1.38135 147.676 0.0786132 144.796 0.808594 141.673 0.808594 136.665 0.808594 132.616-0.797363 129.528-4.00928 126.439-7.22119 124.895-11.8481 124.895-17.8901ZM131.128-17.8901C131.128-13.3081 132.128-9.8772 134.127-7.59741 136.126-5.31763 138.641-4.17773 141.673-4.17773 144.683-4.17773 147.188-5.32324 149.187-7.61426 151.186-9.90527 152.185-13.3979 152.185-18.0923 152.185-22.5171 151.18-25.8694 149.17-28.1492 147.16-30.429 144.661-31.5688 141.673-31.5688 138.641-31.5688 136.126-30.4346 134.127-28.166 132.128-25.8975 131.128-22.4722 131.128-17.8901ZM165.471 0 165.471-35.7803 170.929-35.7803 170.929-30.356C172.321-32.894 173.607-34.5674 174.786-35.376 175.965-36.1846 177.263-36.5889 178.678-36.5889 180.721-36.5889 182.799-35.9375 184.91-34.6348L182.822-29.0083C181.339-29.8843 179.857-30.3223 178.374-30.3223 177.049-30.3223 175.859-29.9236 174.803-29.1262 173.747-28.3289 172.995-27.2227 172.546-25.8076 171.872-23.6514 171.535-21.293 171.535-18.7324L171.535 0ZM211.668 0 211.668-4.51465C209.399-0.96582 206.064 0.808594 201.662 0.808594 198.809 0.808594 196.187 0.0224608 193.795-1.5498 191.403-3.12207 189.55-5.31763 188.236-8.13647 186.922-10.9553 186.265-14.1953 186.265-17.8564 186.265-21.4277 186.86-24.6677 188.05-27.5764 189.241-30.4851 191.026-32.7144 193.407-34.2642 195.788-35.814 198.45-36.5889 201.392-36.5889 203.548-36.5889 205.469-36.134 207.153-35.2244 208.838-34.3147 210.208-33.1299 211.264-31.6699L211.264-49.3916 217.294-49.3916 217.294 0ZM192.498-17.8564C192.498-13.2744 193.463-9.84912 195.395-7.58057 197.327-5.31201 199.606-4.17773 202.234-4.17773 204.885-4.17773 207.136-5.26147 208.989-7.42895 210.842-9.59643 211.769-12.9038 211.769-17.3511 211.769-22.2476 210.826-25.8413 208.939-28.1323 207.052-30.4233 204.728-31.5688 201.965-31.5688 199.27-31.5688 197.018-30.4683 195.21-28.2671 193.402-26.0659 192.498-22.5957 192.498-17.8564Z" fill="#FFFFFF" transform="matrix(1 0 0 1 57.9937 104)"/></g></g></g><rect x="2927" y="582" width="313" height="143" stroke="#FFFFFF" stroke-width="13.75" stroke-linejoin="round" stroke-miterlimit="10" fill="#44516F"/><text fill="#FFFFFF" font-family="Arial,Arial_MSFontService,sans-serif" font-weight="400" font-size="69" transform="matrix(1 0 0 1 2959.99 679)">Record</text><g filter="url(#fx16)" transform="translate(3157 625)"><g><path d="M37.0002 36.218 70.8797 36.2184" fill="#44516F" fill-rule="evenodd"/><path d="M37.0003 29.218 70.8798 29.2184 70.8797 43.2184 37.0002 43.218ZM37 57.218C25.402 57.2179 16.0001 47.8158 16.0002 36.2178 16.0004 24.6198 25.4025 15.2179 37.0005 15.218 48.5984 15.2181 58.0004 24.6203 58.0002 36.2182 58.0001 47.8162 48.598 57.2181 37 57.218Z" fill="#FFFFFF"/></g></g><path d="M3194 654 3227.88 654.001" fill="#44516F" fill-rule="evenodd"/><path d="M3194 647.125 3227.88 647.126 3227.88 660.876 3194 660.875ZM3194 674.625C3182.61 674.625 3173.38 665.391 3173.38 654 3173.38 642.609 3182.61 633.375 3194 633.375 3205.39 633.375 3214.63 642.61 3214.63 654 3214.62 665.391 3205.39 674.625 3194 674.625Z" fill="#FFFFFF"/><g clip-path="url(#clip49)"><g filter="url(#fx17)" transform="translate(2030 707)"><g><rect x="22.9998" y="23.2178" width="336" height="144" stroke="#FFFFFF" stroke-width="14" stroke-linejoin="round" stroke-miterlimit="10" fill="#44516F"/></g></g></g><rect x="2053" y="723" width="336" height="144" stroke="#FFFFFF" stroke-width="13.75" stroke-linejoin="round" stroke-miterlimit="10" fill="#44516F"/><g clip-path="url(#clip50)" filter="url(#fx18)" transform="translate(2081 746)"><g><path d="M15.9998 57.218 261.034 57.2183" fill="#44516F" fill-rule="evenodd"/><path d="M15.9998 50.218 226.035 50.2183 226.035 64.2183 15.9997 64.218ZM219.035 36.2183 261.034 57.2183 219.034 78.2183Z" fill="#FFFFFF"/></g></g><path d="M2097 796 2342.03 796" fill="#44516F" fill-rule="evenodd"/><path d="M2097 789.125 2307.66 789.125 2307.66 802.875 2097 802.875ZM2300.78 775.375 2342.03 796 2300.78 816.625Z" fill="#FFFFFF"/><g clip-path="url(#clip51)"><g filter="url(#fx19)" transform="translate(2366 709)"><g><rect x="23" y="23.2178" width="667" height="143" stroke="#FFFFFF" stroke-width="14" stroke-linejoin="round" stroke-miterlimit="10" fill="#44516F"/></g></g><g clip-path="url(#clip52)" filter="url(#fx20)" transform="translate(2365 726)"><g><path d="M5.42432 0 5.42432-49.3916 27.3237-49.3916C31.7261-49.3916 35.0728-48.948 37.3638-48.0608 39.6548-47.1736 41.4853-45.6069 42.8555-43.3608 44.2256-41.1147 44.9106-38.6328 44.9106-35.915 44.9106-32.4111 43.7764-29.4575 41.5078-27.0542 39.2393-24.6509 35.7353-23.1235 30.9961-22.4722 32.7256-21.6411 34.0395-20.8213 34.938-20.0127 36.8472-18.2607 38.6553-16.0708 40.3623-13.4429L48.9536 0 40.7329 0 34.1968-10.2759C32.2876-13.2407 30.7153-15.5093 29.48-17.0815 28.2446-18.6538 27.1384-19.7544 26.1614-20.3833 25.1843-21.0122 24.1904-21.4502 23.1797-21.6973 22.4385-21.8545 21.2256-21.9331 19.541-21.9331L11.9604-21.9331 11.9604 0ZM11.9604-27.5933 26.0098-27.5933C28.9971-27.5933 31.333-27.9021 33.0176-28.5198 34.7021-29.1374 35.9824-30.1257 36.8584-31.4846 37.7344-32.8435 38.1724-34.3203 38.1724-35.915 38.1724-38.251 37.3245-40.1714 35.6287-41.6763 33.9329-43.1811 31.2544-43.9336 27.5933-43.9336L11.9604-43.9336ZM78.8857-11.5225 85.1523-10.7476C84.164-7.08642 82.3335-4.24512 79.6606-2.22363 76.9878-0.202148 73.5737 0.808594 69.4184 0.808594 64.1851 0.808594 60.0354-0.802979 56.9695-4.02612 53.9036-7.24927 52.3706-11.7695 52.3706-17.5869 52.3706-23.6064 53.9204-28.2783 57.02-31.6025 60.1196-34.9268 64.1401-36.5889 69.0815-36.5889 73.8657-36.5889 77.7739-34.9604 80.8061-31.7036 83.8384-28.4468 85.3545-23.8647 85.3545-17.9575 85.3545-17.5981 85.3432-17.0591 85.3208-16.3403L58.6372-16.3403C58.8618-12.4097 59.9736-9.3999 61.9727-7.31103 63.9717-5.22217 66.4648-4.17773 69.4521-4.17773 71.6758-4.17773 73.5737-4.76172 75.146-5.92969 76.7183-7.09766 77.9648-8.96191 78.8857-11.5225ZM58.9741-21.3267 78.9531-21.3267C78.6836-24.3364 77.9199-26.5937 76.6621-28.0986 74.7305-30.4346 72.2261-31.6025 69.1489-31.6025 66.3638-31.6025 64.0222-30.6704 62.1243-28.8061 60.2263-26.9419 59.1763-24.4487 58.9741-21.3267ZM116.126-13.106 122.089-12.3311C121.438-8.2207 119.77-5.00317 117.086-2.67847 114.402-0.35376 111.106 0.808594 107.197 0.808594 102.301 0.808594 98.3647-0.791748 95.3886-3.99243 92.4125-7.19311 90.9245-11.7808 90.9245-17.7554 90.9245-21.6187 91.5646-24.999 92.8449-27.8965 94.1252-30.7939 96.0736-32.967 98.6903-34.4158 101.307-35.8645 104.154-36.5889 107.231-36.5889 111.117-36.5889 114.295-35.6062 116.766-33.6409 119.236-31.6755 120.82-28.8848 121.516-25.2686L115.62-24.3589C115.059-26.7622 114.065-28.5703 112.639-29.7832 111.212-30.9961 109.488-31.6025 107.467-31.6025 104.412-31.6025 101.93-30.5076 100.021-28.3176 98.112-26.1277 97.1574-22.6631 97.1574-17.9238 97.1574-13.1172 98.0783-9.62451 99.9201-7.4458 101.762-5.26709 104.165-4.17773 107.13-4.17773 109.511-4.17773 111.499-4.90771 113.093-6.36768 114.688-7.82764 115.699-10.0737 116.126-13.106ZM124.895-17.8901C124.895-24.5161 126.737-29.4238 130.421-32.6133 133.498-35.2637 137.249-36.5889 141.673-36.5889 146.592-36.5889 150.613-34.9773 153.735-31.7541 156.857-28.531 158.418-24.0781 158.418-18.3955 158.418-13.791 157.727-10.1692 156.346-7.53003 154.965-4.89087 152.954-2.84131 150.315-1.38135 147.676 0.0786132 144.796 0.808594 141.673 0.808594 136.665 0.808594 132.616-0.797363 129.528-4.00928 126.439-7.22119 124.895-11.8481 124.895-17.8901ZM131.128-17.8901C131.128-13.3081 132.128-9.8772 134.127-7.59741 136.126-5.31763 138.641-4.17773 141.673-4.17773 144.683-4.17773 147.188-5.32324 149.187-7.61426 151.186-9.90527 152.185-13.3979 152.185-18.0923 152.185-22.5171 151.18-25.8694 149.17-28.1492 147.16-30.429 144.661-31.5688 141.673-31.5688 138.641-31.5688 136.126-30.4346 134.127-28.166 132.128-25.8975 131.128-22.4722 131.128-17.8901ZM165.471 0 165.471-35.7803 170.929-35.7803 170.929-30.356C172.321-32.894 173.607-34.5674 174.786-35.376 175.965-36.1846 177.263-36.5889 178.678-36.5889 180.721-36.5889 182.799-35.9375 184.91-34.6348L182.822-29.0083C181.339-29.8843 179.857-30.3223 178.374-30.3223 177.049-30.3223 175.859-29.9236 174.803-29.1262 173.747-28.3289 172.995-27.2227 172.546-25.8076 171.872-23.6514 171.535-21.293 171.535-18.7324L171.535 0ZM211.668 0 211.668-4.51465C209.399-0.96582 206.064 0.808594 201.662 0.808594 198.809 0.808594 196.187 0.0224608 193.795-1.5498 191.403-3.12207 189.55-5.31763 188.236-8.13647 186.922-10.9553 186.265-14.1953 186.265-17.8564 186.265-21.4277 186.86-24.6677 188.05-27.5764 189.241-30.4851 191.026-32.7144 193.407-34.2642 195.788-35.814 198.45-36.5889 201.392-36.5889 203.548-36.5889 205.469-36.134 207.153-35.2244 208.838-34.3147 210.208-33.1299 211.264-31.6699L211.264-49.3916 217.294-49.3916 217.294 0ZM192.498-17.8564C192.498-13.2744 193.463-9.84912 195.395-7.58057 197.327-5.31201 199.606-4.17773 202.234-4.17773 204.885-4.17773 207.136-5.26147 208.989-7.42895 210.842-9.59643 211.769-12.9038 211.769-17.3511 211.769-22.2476 210.826-25.8413 208.939-28.1323 207.052-30.4233 204.728-31.5688 201.965-31.5688 199.27-31.5688 197.018-30.4683 195.21-28.2671 193.402-26.0659 192.498-22.5957 192.498-17.8564Z" fill="#FFFFFF" transform="matrix(1 0 0 1 57.2524 103)"/></g></g></g><rect x="2389" y="725" width="667" height="143" stroke="#FFFFFF" stroke-width="13.75" stroke-linejoin="round" stroke-miterlimit="10" fill="#44516F"/><text fill="#FFFFFF" font-family="Arial,Arial_MSFontService,sans-serif" font-weight="400" font-size="69" transform="matrix(1 0 0 1 2422.25 822)">Record</text><g clip-path="url(#clip53)" filter="url(#fx21)" transform="translate(2639 746)"><g><path d="M37 57.218 390.449 57.2183" fill="#44516F" fill-rule="evenodd"/><path d="M37 50.218 355.449 50.2183 355.449 64.2183 37 64.218ZM37 78.218C25.402 78.2179 16 68.8159 16 57.2179 16 45.62 25.402 36.2179 37 36.218 48.598 36.218 58 45.62 58 57.218 58 68.816 48.598 78.218 37 78.218ZM348.449 36.2183 390.449 57.2183 348.449 78.2183Z" fill="#FFFFFF"/></g></g><path d="M2676 796 3029.45 796" fill="#44516F" fill-rule="evenodd"/><path d="M2676 789.125 2995.07 789.125 2995.07 802.875 2676 802.875ZM2676 816.625C2664.61 816.625 2655.38 807.391 2655.38 796 2655.38 784.609 2664.61 775.375 2676 775.375 2687.39 775.375 2696.62 784.609 2696.62 796 2696.62 807.391 2687.39 816.625 2676 816.625ZM2988.2 775.375 3029.45 796 2988.2 816.625Z" fill="#FFFFFF"/><g clip-path="url(#clip54)"><g filter="url(#fx22)" transform="translate(2975 1011)"><g><rect x="22.9998" y="23.218" width="154" height="123" stroke="#FFFFFF" stroke-width="14" stroke-linejoin="round" stroke-miterlimit="10"/></g></g></g><rect x="2998" y="1027" width="154" height="123" stroke="#FFFFFF" stroke-width="13.75" stroke-linejoin="round" stroke-miterlimit="10"/><g clip-path="url(#clip55)"><g filter="url(#fx23)" transform="translate(2824 1011)"><g><rect x="23" y="23.218" width="153" height="123" stroke="#FFFFFF" stroke-width="14" stroke-linejoin="round" stroke-miterlimit="10"/></g></g></g><rect x="2847" y="1027" width="153" height="123" stroke="#FFFFFF" stroke-width="13.75" stroke-linejoin="round" stroke-miterlimit="10"/><g clip-path="url(#clip56)"><g filter="url(#fx24)" transform="translate(2672 1011)"><g><rect x="23" y="23.218" width="154" height="123" stroke="#FFFFFF" stroke-width="14" stroke-linejoin="round" stroke-miterlimit="10"/></g></g></g><rect x="2695" y="1027" width="154" height="123" stroke="#FFFFFF" stroke-width="13.75" stroke-linejoin="round" stroke-miterlimit="10"/><g clip-path="url(#clip57)"><g filter="url(#fx25)" transform="translate(2520 1011)"><g><rect x="23" y="23.218" width="154" height="123" stroke="#FFFFFF" stroke-width="14" stroke-linejoin="round" stroke-miterlimit="10" fill="#00B0F0"/></g></g></g><rect x="2543" y="1027" width="154" height="123" stroke="#FFFFFF" stroke-width="13.75" stroke-linejoin="round" stroke-miterlimit="10" fill="#00B0F0"/><g clip-path="url(#clip58)"><g filter="url(#fx26)" transform="translate(2375 1014)"><g><rect x="23" y="23.2178" width="154" height="125" stroke="#FFFFFF" stroke-width="14" stroke-linejoin="round" stroke-miterlimit="10"/></g></g></g><rect x="2398" y="1030" width="154" height="125" stroke="#FFFFFF" stroke-width="13.75" stroke-linejoin="round" stroke-miterlimit="10"/><text fill="#FFFFFF" font-family="Arial,Arial_MSFontService,sans-serif" font-weight="400" font-size="55" transform="matrix(1 0 0 1 3048.5 1111)">16</text><text fill="#FFFFFF" font-family="Arial,Arial_MSFontService,sans-serif" font-weight="400" font-size="55" transform="matrix(1 0 0 1 2897.55 1111)">24</text><text fill="#FFFFFF" font-family="Arial,Arial_MSFontService,sans-serif" font-weight="400" font-size="55" transform="matrix(1 0 0 1 2746.59 1111)">32</text><text fill="#FFFFFF" font-family="Arial,Arial_MSFontService,sans-serif" font-weight="400" font-size="55" transform="matrix(1 0 0 1 2595.64 1111)">42</text><text fill="#FFFFFF" font-family="Arial,Arial_MSFontService,sans-serif" font-weight="400" font-size="55" transform="matrix(1 0 0 1 2451.53 1114)">18</text><g clip-path="url(#clip59)"><g filter="url(#fx27)" transform="translate(3153 1060)"><g><path d="M23 43.2179C23 32.1721 32.1782 23.2178 43.5001 23.2178 54.822 23.2178 64.0003 32.1721 64.0003 43.2179 64.0003 54.2636 54.822 63.218 43.5001 63.218 32.1782 63.218 23 54.2636 23 43.2179Z" stroke="#FFFFFF" stroke-width="14" stroke-linejoin="round" stroke-miterlimit="10" fill-rule="evenodd"/></g></g></g><path d="M3176 1096C3176 1084.95 3185.18 1076 3196.5 1076 3207.82 1076 3217 1084.95 3217 1096 3217 1107.05 3207.82 1116 3196.5 1116 3185.18 1116 3176 1107.05 3176 1096Z" stroke="#FFFFFF" stroke-width="13.75" stroke-linejoin="round" stroke-miterlimit="10" fill-rule="evenodd"/><text fill="#541B27" font-family="Arial,Arial_MSFontService,sans-serif" font-weight="400" font-size="69" transform="matrix(1 0 0 1 2844.71 1244)">Slot Directory</text><path d="M2462.92 1035.2 2462.96 1015.37 2463.07 996.134 2463.15 986.941 2463.25 978.142 2463.36 969.81 2463.48 962.022 2463.61 954.855 2463.75 948.387 2463.9 942.693 2464.06 937.849 2464.22 933.925 2464.39 930.983 2464.57 929.038C2464.59 928.77 2464.64 928.505 2464.72 928.246L2464.88 927.636 2465.05 927.026 2464.91 927.817 2465.07 926.039 2465.23 923.336 2465.38 919.527 2465.54 914.752 2465.69 909.106 2465.83 902.674 2465.96 895.536 2466.08 887.772 2466.19 879.461 2466.28 870.682 2466.33 863.721 2475.49 863.778 2475.45 870.782 2475.35 879.582 2475.24 887.915 2475.12 895.705 2474.99 902.874 2474.85 909.347 2474.7 915.048 2474.54 919.906 2474.38 923.861 2474.2 926.897 2474.03 928.676C2474.01 928.944 2473.96 929.209 2473.89 929.468L2473.72 930.078 2473.55 930.688 2473.7 929.896 2473.54 931.508 2473.38 934.305 2473.22 938.145 2473.07 942.934 2472.92 948.587 2472.78 955.024 2472.65 962.165 2472.52 969.93 2472.42 978.242 2472.32 987.023 2472.24 996.188 2472.12 1015.39 2472.08 1035.22ZM2447.97 868.225 2471.1 822.5 2493.8 868.44Z" fill="#92D050"/><path d="M2773.92 1042.27 2773.92 994.916 2773.92 971.703 2773.92 949.048 2773.92 927.136 2773.92 906.155 2773.92 886.289 2773.92 867.725 2773.92 858.989 2773.92 850.648 2773.92 842.726 2773.92 835.245 2773.92 828.23 2773.92 821.702 2773.92 815.686 2773.92 810.204 2773.92 805.28 2773.92 800.937 2773.92 797.199 2773.92 794.088 2773.92 791.628 2773.92 789.842 2773.92 788.753 2773.92 788.385 2773.92 788.017 2773.92 786.929 2773.92 785.143 2773.92 782.683 2773.92 779.572 2773.92 775.834 2773.92 771.491 2773.92 766.567 2773.92 761.085 2773.92 755.069 2773.92 748.542 2773.92 741.526 2773.92 734.045 2773.92 726.123 2773.92 717.782 2773.92 709.046 2773.92 690.482 2773.92 670.616 2773.92 649.635 2773.92 627.724 2773.92 605.068 2773.92 581.855 2773.92 575.75 2783.08 575.75 2783.08 581.855 2783.08 605.068 2783.08 627.724 2783.08 649.635 2783.08 670.616 2783.08 690.482 2783.08 709.046 2783.08 717.782 2783.08 726.123 2783.08 734.045 2783.08 741.526 2783.08 748.542 2783.08 755.069 2783.08 761.086 2783.08 766.567 2783.08 771.491 2783.08 775.834 2783.08 779.572 2783.08 782.683 2783.08 785.143 2783.08 786.929 2783.08 788.018 2783.08 788.385 2783.08 788.754 2783.08 789.842 2783.08 791.628 2783.08 794.088 2783.08 797.199 2783.08 800.937 2783.08 805.28 2783.08 810.204 2783.08 815.686 2783.08 821.702 2783.08 828.23 2783.08 835.245 2783.08 842.726 2783.08 850.648 2783.08 858.989 2783.08 867.725 2783.08 886.289 2783.08 906.155 2783.08 927.137 2783.08 949.048 2783.08 971.703 2783.08 994.916 2783.08 1042.27ZM2755.58 580.333 2778.5 534.5 2801.42 580.333Z" fill="#92D050"/><path d="M2902.92 1030.32 2903.54 997.782 2904.3 981.704 2905.32 966.054 2906.59 950.913 2908.09 936.409 2909.79 922.665 2911.68 909.806 2913.74 897.954 2915.95 887.229 2918.29 877.746 2919.53 873.444 2920.79 869.54 2922.08 865.992 2923.41 862.805 2924.8 859.982 2926.26 857.517 2927.84 855.4C2927.99 855.204 2928.15 855.021 2928.33 854.851L2929.63 853.624C2929.9 853.376 2930.19 853.16 2930.5 852.98L2931.8 852.232C2932.24 851.981 2932.72 851.804 2933.21 851.708L2934.52 851.455 2935.83 851.202 2934.42 851.726 2935.72 850.978 2934.86 851.622 2936.16 850.395 2935.66 850.944 2936.95 849.254 2937.94 847.543 2939.03 845.301 2940.17 842.571 2941.33 839.391 2942.49 835.789 2943.64 831.792 2945.9 822.654 2948.04 812.246 2950.05 800.653 2951.91 788.015 2953.59 774.467 2955.06 760.143 2956.32 745.175 2957.33 729.691 2957.57 722.576 2966.74 722.893 2966.48 730.29 2965.45 745.941 2964.18 761.084 2962.68 775.595 2960.98 789.349 2959.08 802.223 2957.02 814.098 2954.79 824.858 2952.44 834.332 2951.21 838.603 2949.94 842.535 2948.62 846.121 2947.25 849.36 2945.81 852.256 2944.24 854.82 2942.94 856.51C2942.79 856.706 2942.63 856.89 2942.45 857.059L2941.15 858.286C2940.89 858.534 2940.6 858.751 2940.28 858.93L2938.98 859.678C2938.54 859.929 2938.06 860.106 2937.57 860.202L2936.26 860.455 2934.96 860.708 2936.36 860.184 2935.06 860.932 2935.93 860.288 2934.63 861.515 2935.12 860.966 2934.12 862.23 2933.02 864.041 2931.86 866.355 2930.69 869.136 2929.51 872.355 2928.34 875.984 2927.19 879.95 2924.93 889.08 2922.77 899.523 2920.75 911.139 2918.89 923.792 2917.21 937.35 2915.73 951.68 2914.47 966.652 2913.46 982.136 2912.71 997.959 2912.08 1030.5ZM2939.12 726.69 2963.28 681.5 2984.94 727.943Z" fill="#92D050"/><path d="M0.0522658-4.58304 17.239-4.38703 34.5207-3.80079 51.7841-2.83056 69.0206-1.48261 103.331 2.31584 137.484 7.55404 171.362 14.1785 204.899 22.1393 238.028 31.387 270.682 41.8719 302.795 53.5446 334.299 66.3557 365.129 80.2561 395.217 95.1966 424.497 111.128 452.903 128.002 480.366 145.769 506.822 164.381 532.203 183.789 556.442 203.946 579.472 224.801 601.226 246.308 621.637 268.419 640.637 291.086 649.623 302.658 658.194 314.309 666.379 326.074 674.169 337.949 681.555 349.927 688.529 362.003 695.081 374.17 701.204 386.423 706.888 398.756 712.125 411.162 716.906 423.636 721.222 436.171 725.064 448.762 728.423 461.402 731.291 474.085 733.658 486.804 735.516 499.554 736.855 512.327 737.667 525.117 737.942 537.918 737.362 588.441 735.669 638.522 732.937 687.812 731.203 712.062 729.238 735.943 727.051 759.43 724.65 782.475 722.045 805.028 719.244 827.04 716.258 848.464 713.094 869.25 709.763 889.349 706.273 908.713 702.633 927.293 698.852 945.042 694.938 961.911 690.901 977.853 686.747 992.821 682.485 1006.77 678.121 1019.65 673.661 1031.42 669.109 1042.04 664.463 1051.46 659.718 1059.65 654.856 1066.59 649.836 1072.22C649.671 1072.41 649.491 1072.58 649.297 1072.73L644.587 1076.52C644.396 1076.67 644.193 1076.81 643.979 1076.93L641.616 1078.27 638.72 1079.49C638.514 1079.58 638.301 1079.65 638.085 1079.7L635.717 1080.28C635.481 1080.34 635.239 1080.38 634.997 1080.4L632.628 1080.6 622.637 1080.31 612.964 1079.41 603.452 1077.96 594.171 1076 585.192 1073.56 576.585 1070.69 568.418 1067.41 560.761 1063.76C560.339 1063.56 559.95 1063.29 559.607 1062.97L554.669 1058.36 560.926 1051.66 565.865 1056.27 564.711 1055.49 571.841 1058.9 579.497 1061.99 587.602 1064.72 596.075 1067.03 604.84 1068.9 613.817 1070.29 622.929 1071.15 631.872 1071.46 634.242 1071.27 633.522 1071.38 635.891 1070.8 635.256 1071.01 637.091 1070.3 639.454 1068.96 638.846 1069.37 643.556 1065.59 643.017 1066.1 647.362 1061.3 651.791 1055.05 656.244 1047.4 660.685 1038.42 665.09 1028.17 669.44 1016.71 673.719 1004.09 677.914 990.369 682.015 975.602 686.009 959.839 689.887 943.132 693.638 925.531 697.252 907.087 700.72 887.85 704.032 867.87 707.179 847.198 710.151 825.883 712.939 803.976 715.533 781.525 717.924 758.58 720.102 735.191 722.06 711.408 723.784 687.304 726.508 638.212 728.196 588.335 728.777 538.112 728.518 525.695 727.738 513.28 726.445 500.873 724.646 488.479 722.35 476.104 719.564 463.754 716.296 451.435 712.554 439.154 708.346 426.915 703.679 414.725 698.562 402.591 693.003 390.519 687.01 378.515 680.59 366.586 673.752 354.737 666.504 342.976 658.854 331.308 650.81 319.74 642.381 308.279 633.611 296.973 614.9 274.636 594.78 252.826 573.318 231.595 550.58 210.993 526.634 191.071 501.547 171.878 475.387 153.465 448.22 135.883 420.115 119.18 391.139 103.406 361.36 88.6123 330.845 74.8468 299.662 62.1594 267.879 50.5994 235.563 40.2159 202.781 31.0579 169.602 23.1746 136.093 16.6146 102.322 11.4268 68.3053 7.65611 51.2691 6.32163 34.2093 5.36059 17.1345 4.77904-0.0522658 4.58304ZM543.271 1073.32 531.139 1023.53 578.247 1043.7Z" fill="#92D050" transform="matrix(-1.83697e-16 -1 -1 1.83697e-16 3080.03 1042.64)"/><g clip-path="url(#clip60)"><g filter="url(#fx28)" transform="translate(3139 1007)"><g><rect x="23.0002" y="23.2179" width="66" height="127" stroke="#FFFFFF" stroke-width="14" stroke-linejoin="round" stroke-miterlimit="10"/></g></g></g><rect x="3162" y="1023" width="66" height="127" stroke="#FFFFFF" stroke-width="13.75" stroke-linejoin="round" stroke-miterlimit="10"/><g clip-path="url(#clip61)"><g filter="url(#fx29)" transform="translate(3153 1060)"><g><path d="M23 43.2179C23 32.1721 32.1782 23.2178 43.5001 23.2178 54.822 23.2178 64.0003 32.1721 64.0003 43.2179 64.0003 54.2636 54.822 63.218 43.5001 63.218 32.1782 63.218 23 54.2636 23 43.2179Z" stroke="#FFFFFF" stroke-width="14" stroke-linejoin="round" stroke-miterlimit="10" fill-rule="evenodd"/></g></g></g><path d="M3176 1096C3176 1084.95 3185.18 1076 3196.5 1076 3207.82 1076 3217 1084.95 3217 1096 3217 1107.05 3207.82 1116 3196.5 1116 3185.18 1116 3176 1107.05 3176 1096Z" stroke="#FFFFFF" stroke-width="13.75" stroke-linejoin="round" stroke-miterlimit="10" fill-rule="evenodd"/><g clip-path="url(#clip62)"><g filter="url(#fx30)" transform="translate(3044 723)"><g><rect x="23" y="23.2179" width="161" height="128" stroke="#FFFFFF" stroke-width="14" stroke-linejoin="round" stroke-miterlimit="10" fill="#44516F"/></g></g><g clip-path="url(#clip63)" filter="url(#fx31)" transform="translate(3068 769)"><g><path d="M2.20117 0 2.20117-20.043 11.0879-20.043C12.8743-20.043 14.2324-19.863 15.1621-19.5029 16.0918-19.1429 16.8346-18.5072 17.3906-17.5957 17.9466-16.6842 18.2246-15.6771 18.2246-14.5742 18.2246-13.1523 17.7643-11.9538 16.8437-10.9785 15.9232-10.0033 14.5013-9.38346 12.5781-9.11914 13.2799-8.7819 13.8131-8.44922 14.1777-8.12109 14.9525-7.41016 15.6862-6.52148 16.3789-5.45508L19.8652 0 16.5293 0 13.877-4.16992C13.1022-5.37305 12.4642-6.29362 11.9629-6.93164 11.4616-7.56966 11.0127-8.01628 10.6162-8.27148 10.2197-8.52669 9.8164-8.70443 9.40625-8.80469 9.10547-8.86849 8.61328-8.90039 7.92969-8.90039L4.85352-8.90039 4.85352 0ZM4.85352-11.1973 10.5547-11.1973C11.7669-11.1973 12.7148-11.3226 13.3984-11.5732 14.082-11.8239 14.6016-12.2249 14.957-12.7764 15.3125-13.3278 15.4902-13.9271 15.4902-14.5742 15.4902-15.5221 15.1462-16.3014 14.458-16.9121 13.7699-17.5228 12.6829-17.8281 11.1973-17.8281L4.85352-17.8281ZM31.8372-4.67578 34.3802-4.36133C33.9792-2.87565 33.2363-1.72266 32.1517-0.902344 31.0671-0.0820313 29.6816 0.328125 27.9954 0.328125 25.8717 0.328125 24.1878-0.325846 22.9437-1.63379 21.6995-2.94173 21.0775-4.77604 21.0775-7.13672 21.0775-9.57943 21.7064-11.4753 22.9642-12.8242 24.222-14.1732 25.8535-14.8477 27.8587-14.8477 29.8001-14.8477 31.3861-14.1868 32.6165-12.8652 33.847-11.5436 34.4622-9.68424 34.4622-7.28711 34.4622-7.14128 34.4577-6.92253 34.4486-6.63086L23.6204-6.63086C23.7116-5.03581 24.1628-3.81445 24.974-2.9668 25.7852-2.11914 26.7969-1.69531 28.0091-1.69531 28.9115-1.69531 29.6816-1.93229 30.3197-2.40625 30.9577-2.88021 31.4635-3.63672 31.8372-4.67578ZM23.7572-8.6543 31.8646-8.6543C31.7552-9.87565 31.4453-10.7917 30.9349-11.4023 30.151-12.3503 29.1348-12.8242 27.8861-12.8242 26.7559-12.8242 25.8057-12.446 25.0355-11.6895 24.2653-10.9329 23.8392-9.92122 23.7572-8.6543ZM46.8411-5.31836 49.2611-5.00391C48.9967-3.33594 48.32-2.03027 47.2308-1.08691 46.1416-0.143555 44.804 0.328125 43.2181 0.328125 41.2311 0.328125 39.6338-0.321289 38.4261-1.62012 37.2184-2.91895 36.6146-4.7806 36.6146-7.20508 36.6146-8.77279 36.8743-10.1445 37.3939-11.3203 37.9134-12.4961 38.7041-13.3779 39.7659-13.9658 40.8278-14.5537 41.9831-14.8477 43.2318-14.8477 44.8086-14.8477 46.0983-14.4489 47.1009-13.6514 48.1035-12.8538 48.7461-11.7214 49.0286-10.2539L46.6361-9.88476C46.4082-10.86 46.0049-11.5937 45.4261-12.0859 44.8473-12.5781 44.1478-12.8242 43.3275-12.8242 42.0879-12.8242 41.0807-12.3799 40.306-11.4912 39.5312-10.6025 39.1439-9.19661 39.1439-7.27344 39.1439-5.32292 39.5176-3.9056 40.265-3.02148 41.0124-2.13737 41.9876-1.69531 43.1908-1.69531 44.1569-1.69531 44.9635-1.99154 45.6107-2.58398 46.2578-3.17643 46.668-4.08789 46.8411-5.31836ZM50.2005-7.25977C50.2005-9.94857 50.9479-11.9401 52.4427-13.2344 53.6914-14.3099 55.2135-14.8477 57.0091-14.8477 59.0052-14.8477 60.6367-14.1937 61.9036-12.8857 63.1706-11.5778 63.804-9.77083 63.804-7.46484 63.804-5.59635 63.5238-4.12663 62.9632-3.05566 62.4027-1.9847 61.5869-1.15299 60.5159-0.560547 59.445 0.031901 58.276 0.328125 57.0091 0.328125 54.9766 0.328125 53.3337-0.323568 52.0804-1.62695 50.8271-2.93034 50.2005-4.80794 50.2005-7.25977ZM52.7298-7.25977C52.7298-5.40039 53.1354-4.00814 53.9466-3.08301 54.7578-2.15788 55.7786-1.69531 57.0091-1.69531 58.2305-1.69531 59.2467-2.16016 60.0579-3.08984 60.8691-4.01953 61.2747-5.43685 61.2747-7.3418 61.2747-9.13737 60.8669-10.4977 60.0511-11.4229 59.2353-12.348 58.2214-12.8105 57.0091-12.8105 55.7786-12.8105 54.7578-12.3503 53.9466-11.4297 53.1354-10.5091 52.7298-9.11914 52.7298-7.25977ZM66.5579 0 66.5579-14.5195 68.7728-14.5195 68.7728-12.3184C69.3379-13.3483 69.8597-14.0273 70.3382-14.3555 70.8167-14.6836 71.3431-14.8477 71.9173-14.8477 72.7467-14.8477 73.5898-14.5833 74.4466-14.0547L73.599-11.7715C72.9974-12.127 72.3958-12.3047 71.7943-12.3047 71.2565-12.3047 70.7734-12.1429 70.345-11.8193 69.9167-11.4958 69.6113-11.0469 69.429-10.4727 69.1556-9.59766 69.0189-8.64062 69.0189-7.60156L69.0189 0ZM85.1719 0 85.1719-1.83203C84.2513-0.391927 82.8978 0.328125 81.1113 0.328125 79.9538 0.328125 78.8896 0.00911456 77.9189-0.628906 76.9482-1.26693 76.1963-2.15788 75.6631-3.30176 75.1299-4.44564 74.8633-5.76042 74.8633-7.24609 74.8633-8.69531 75.1048-10.0101 75.5879-11.1904 76.071-12.3708 76.7956-13.2754 77.7617-13.9043 78.7279-14.5332 79.8079-14.8477 81.0019-14.8477 81.8769-14.8477 82.6562-14.6631 83.3398-14.2939 84.0234-13.9248 84.5794-13.444 85.0078-12.8516L85.0078-20.043 87.4551-20.043 87.4551 0ZM77.3926-7.24609C77.3926-5.38672 77.7845-3.99674 78.5684-3.07617 79.3522-2.1556 80.2773-1.69531 81.3437-1.69531 82.4193-1.69531 83.333-2.13509 84.085-3.01465 84.8369-3.89421 85.2129-5.23633 85.2129-7.04102 85.2129-9.02799 84.8301-10.4863 84.0644-11.416 83.2988-12.3457 82.3555-12.8105 81.2344-12.8105 80.1406-12.8105 79.2269-12.3639 78.4932-11.4707 77.7594-10.5775 77.3926-9.16927 77.3926-7.24609Z" fill="#FFFFFF" transform="matrix(1 0 0 1 32.2795 52)"/></g></g></g><rect x="3067" y="739" width="161" height="128" stroke="#FFFFFF" stroke-width="13.75" stroke-linejoin="round" stroke-miterlimit="10" fill="#44516F"/><text fill="#FFFFFF" font-family="Arial,Arial_MSFontService,sans-serif" font-weight="400" font-size="28" transform="matrix(1 0 0 1 3100.28 813)">Record</text><g clip-path="url(#clip64)"><g filter="url(#fx32)" transform="translate(2031 861)"><g><rect x="23" y="23.2178" width="384" height="127" stroke="#FFFFFF" stroke-width="14" stroke-linejoin="round" stroke-miterlimit="10" fill="#44516F"/></g></g></g><rect x="2054" y="877" width="384" height="127" stroke="#FFFFFF" stroke-width="13.75" stroke-linejoin="round" stroke-miterlimit="10" fill="#44516F"/><g clip-path="url(#clip65)" filter="url(#fx33)" transform="translate(2045 873)"><g><path d="M37 57.2178 353.114 57.2182" fill="#44516F" fill-rule="evenodd"/><path d="M37 50.2178 318.114 50.2182 318.114 64.2182 37 64.2178ZM37 78.2178C25.402 78.2178 16 68.8158 16 57.2178 16 45.6198 25.402 36.2178 37 36.2178 48.598 36.2178 58 45.6199 58 57.2179 58 68.8158 48.598 78.2178 37 78.2178ZM311.114 36.2181 353.114 57.2182 311.114 78.2181Z" fill="#FFFFFF"/></g></g><path d="M2082 923 2398.11 923" fill="#44516F" fill-rule="evenodd"/><path d="M2082 916.125 2363.74 916.125 2363.74 929.875 2082 929.875ZM2082 943.625C2070.61 943.625 2061.38 934.391 2061.38 923 2061.38 911.609 2070.61 902.375 2082 902.375 2093.39 902.375 2102.62 911.609 2102.62 923 2102.62 934.391 2093.39 943.625 2082 943.625ZM2356.86 902.375 2398.11 923 2356.86 943.625Z" fill="#FFFFFF"/><path d="M3211.65 1086.91 3188.16 1086.55 3164.71 1085.5 3141.64 1083.79 3119.11 1081.48 3097.33 1078.62 3076.45 1075.24 3056.68 1071.4 3038.17 1067.14 3029.41 1064.85 3021.07 1062.48 3013.14 1060.02 3005.63 1057.49 2998.57 1054.88 2991.98 1052.19 2985.88 1049.43 2980.28 1046.61 2975.2 1043.71 2970.67 1040.73 2966.69 1037.67 2963.28 1034.49 2960.47 1031.17C2960.32 1030.99 2960.18 1030.8 2960.06 1030.6L2958.29 1027.67C2958.14 1027.42 2958.02 1027.16 2957.92 1026.88L2956.84 1023.94C2956.72 1023.61 2956.64 1023.27 2956.6 1022.93L2956.23 1019.98 2955.62 1017.54 2956.34 1019.13 2954.24 1016.19 2955 1017.01 2951.56 1014.08 2952.13 1014.5 2947.39 1011.59 2941.81 1008.92 2934.9 1006.19 2926.76 1003.44 2917.44 1000.71 2907.02 998.01 2895.54 995.349 2883.06 992.739 2869.62 990.188 2855.27 987.702 2840.07 985.288 2824.05 982.954 2807.27 980.704 2789.77 978.545 2771.59 976.484 2752.78 974.525 2733.38 972.675 2713.45 970.94 2693.02 969.325 2672.15 967.837 2650.87 966.481 2607.26 964.188 2562.59 962.493 2512.65 961.408 2512.85 952.243 2562.94 953.333 2607.74 955.034 2651.45 957.333 2672.8 958.694 2693.75 960.187 2714.25 961.808 2734.25 963.55 2753.73 965.408 2772.62 967.375 2790.89 969.448 2808.49 971.619 2825.38 973.883 2841.51 976.235 2856.84 978.67 2871.33 981.182 2884.93 983.767 2897.61 986.419 2909.32 989.137 2920.02 991.916 2929.69 994.759 2938.28 997.669 2945.79 1000.66 2952.19 1003.78 2956.93 1006.69C2957.13 1006.81 2957.32 1006.95 2957.5 1007.1L2960.95 1010.04C2961.23 1010.28 2961.49 1010.56 2961.71 1010.86L2963.8 1013.81C2964.14 1014.28 2964.39 1014.82 2964.53 1015.4L2965.33 1018.85 2965.69 1021.8 2965.45 1020.79 2966.53 1023.73 2966.15 1022.94 2967.91 1025.87 2967.5 1025.3 2969.56 1027.81 2972.3 1030.42 2975.71 1033.08 2979.76 1035.75 2984.42 1038.43 2989.65 1041.08 2995.44 1043.7 3001.75 1046.28 3008.56 1048.8 3015.85 1051.27 3023.58 1053.66 3031.73 1055.98 3040.23 1058.2 3058.42 1062.4 3077.92 1066.19 3098.52 1069.53 3120.05 1072.37 3142.31 1074.65 3165.12 1076.34 3188.3 1077.39 3211.79 1077.75ZM2517.15 979.778 2471.5 956.5 2517.51 933.946Z" fill="#92D050"/><path d="M2622.93 1041.62 2623.66 1030.12 2625.91 1018.08 2629.62 1006.13 2634.71 994.315 2641.14 982.646 2648.83 971.147 2657.73 959.834 2667.79 948.721 2678.97 937.826 2691.2 927.164 2704.45 916.752 2718.67 906.607 2733.81 896.75 2749.83 887.199 2766.67 877.975 2784.31 869.098 2802.68 860.588 2821.74 852.468 2841.46 844.758 2861.77 837.481 2882.65 830.658 2904.03 824.311 2925.87 818.461 2948.14 813.133 2970.78 808.346 2993.74 804.125 3016.99 800.491 3040.47 797.466 3064.13 795.074 3087.94 793.337 3094.49 793.115 3094.79 802.277 3088.61 802.479 3065.05 804.194 3041.64 806.558 3018.4 809.548 2995.4 813.141 2972.67 817.315 2950.27 822.048 2928.24 827.316 2906.64 833.098 2885.49 839.371 2864.86 846.111 2844.8 853.296 2825.34 860.902 2806.53 868.906 2788.43 877.286 2771.08 886.016 2754.52 895.073 2738.81 904.433 2723.99 914.071 2710.11 923.961 2697.22 934.077 2685.36 944.393 2674.58 954.88 2664.93 965.509 2656.44 976.252 2649.16 987.079 2643.12 997.961 2638.37 1008.87 2634.92 1019.79 2632.81 1030.71 2632.07 1042.21ZM3089.4 774.922 3135.88 796.5 3090.73 820.736Z" fill="#00B0F0"/><text fill="#541B27" font-family="Arial,Arial_MSFontService,sans-serif" font-weight="400" font-size="69" transform="matrix(1 0 0 1 1707.61 1295)">Record Id:</text><text fill="#541B27" font-family="Arial,Arial_MSFontService,sans-serif" font-weight="400" font-size="69" transform="matrix(1 0 0 1 1707.61 1377)">(Page 2, Record 4)</text><path d="M0.0747542-4.58272 44.5538-3.85717 88.8295-1.73763 132.404 1.68282 174.933 6.3114 195.732 9.05431 216.105 12.0608 236.046 15.3233 255.509 18.8304 274.453 22.5707 292.834 26.533 310.61 30.7059 327.739 35.0784 344.177 39.6395 359.882 44.3783 374.813 49.2844 388.927 54.3475 402.184 59.5578 414.543 64.9065 425.962 70.3856 436.405 75.9888 445.83 81.7121 454.202 87.5552 461.481 93.5234C461.76 93.7529 462.012 94.0146 462.229 94.3031L468.817 103.035 461.499 108.556 454.911 99.8239 455.659 100.604 448.948 95.0672 441.068 89.5446 432.067 84.0643 421.995 78.6492 410.9 73.3184 398.83 68.0887 385.831 62.9755 371.951 57.9927 357.233 53.154 341.725 48.4723 325.471 43.9602 308.515 39.6299 290.902 35.4938 272.677 31.5637 253.883 27.8518 234.565 24.3696 214.767 21.1292 194.533 18.1422 173.941 15.4242 131.686 10.8213 88.3907 7.41853 44.4043 5.30827-0.0747542 4.58272ZM475.577 95.7201 475.061 126.462 450.778 107.604Z" fill="#FF3300" transform="matrix(1 0 0 -1 2145.5 1276.96)"/></g></svg>