<svg width="1705" height="860" xmlns="http://www.w3.org/2000/svg" xmlns:xlink="http://www.w3.org/1999/xlink" xml:space="preserve" overflow="hidden"><defs><filter id="fx0" x="-10%" y="-10%" width="120%" height="120%" filterUnits="userSpaceOnUse" primitiveUnits="userSpaceOnUse"><feComponentTransfer color-interpolation-filters="sRGB"><feFuncR type="discrete" tableValues="0 0"/><feFuncG type="discrete" tableValues="0 0"/><feFuncB type="discrete" tableValues="0 0"/><feFuncA type="linear" slope="0.380392" intercept="0"/></feComponentTransfer><feGaussianBlur stdDeviation="4.8119 4.8119"/></filter><filter id="fx1" x="-10%" y="-10%" width="120%" height="120%" filterUnits="userSpaceOnUse" primitiveUnits="userSpaceOnUse"><feComponentTransfer color-interpolation-filters="sRGB"><feFuncR type="discrete" tableValues="0 0"/><feFuncG type="discrete" tableValues="0 0"/><feFuncB type="discrete" tableValues="0 0"/><feFuncA type="linear" slope="0.380392" intercept="0"/></feComponentTransfer><feGaussianBlur stdDeviation="4.8119 4.8119"/></filter><filter id="fx2" x="-10%" y="-10%" width="120%" height="120%" filterUnits="userSpaceOnUse" primitiveUnits="userSpaceOnUse"><feComponentTransfer color-interpolation-filters="sRGB"><feFuncR type="discrete" tableValues="0 0"/><feFuncG type="discrete" tableValues="0 0"/><feFuncB type="discrete" tableValues="0 0"/><feFuncA type="linear" slope="0.380392" intercept="0"/></feComponentTransfer><feGaussianBlur stdDeviation="4.8119 4.8119"/></filter><filter id="fx3" x="-10%" y="-10%" width="120%" height="120%" filterUnits="userSpaceOnUse" primitiveUnits="userSpaceOnUse"><feComponentTransfer color-interpolation-filters="sRGB"><feFuncR type="discrete" tableValues="0 0"/><feFuncG type="discrete" tableValues="0 0"/><feFuncB type="discrete" tableValues="0 0"/><feFuncA type="linear" slope="0.380392" intercept="0"/></feComponentTransfer><feGaussianBlur stdDeviation="4.8119 4.8119"/></filter><filter id="fx4" x="-10%" y="-10%" width="120%" height="120%" filterUnits="userSpaceOnUse" primitiveUnits="userSpaceOnUse"><feComponentTransfer color-interpolation-filters="sRGB"><feFuncR type="discrete" tableValues="0 0"/><feFuncG type="discrete" tableValues="0 0"/><feFuncB type="discrete" tableValues="0 0"/><feFuncA type="linear" slope="0.380392" intercept="0"/></feComponentTransfer><feGaussianBlur stdDeviation="4.8119 4.8119"/></filter><filter id="fx5" x="-10%" y="-10%" width="120%" height="120%" filterUnits="userSpaceOnUse" primitiveUnits="userSpaceOnUse"><feComponentTransfer color-interpolation-filters="sRGB"><feFuncR type="discrete" tableValues="0 0"/><feFuncG type="discrete" tableValues="0 0"/><feFuncB type="discrete" tableValues="0 0"/><feFuncA type="linear" slope="0.380392" intercept="0"/></feComponentTransfer><feGaussianBlur stdDeviation="4.8119 4.8119"/></filter><filter id="fx6" x="-10%" y="-10%" width="120%" height="120%" filterUnits="userSpaceOnUse" primitiveUnits="userSpaceOnUse"><feComponentTransfer color-interpolation-filters="sRGB"><feFuncR type="discrete" tableValues="0 0"/><feFuncG type="discrete" tableValues="0 0"/><feFuncB type="discrete" tableValues="0 0"/><feFuncA type="linear" slope="0.380392" intercept="0"/></feComponentTransfer><feGaussianBlur stdDeviation="4.8119 4.8119"/></filter><filter id="fx7" x="-10%" y="-10%" width="120%" height="120%" filterUnits="userSpaceOnUse" primitiveUnits="userSpaceOnUse"><feComponentTransfer color-interpolation-filters="sRGB"><feFuncR type="discrete" tableValues="0 0"/><feFuncG type="discrete" tableValues="0 0"/><feFuncB type="discrete" tableValues="0 0"/><feFuncA type="linear" slope="0.380392" intercept="0"/></feComponentTransfer><feGaussianBlur stdDeviation="4.8119 4.8119"/></filter><filter id="fx8" x="-10%" y="-10%" width="120%" height="120%" filterUnits="userSpaceOnUse" primitiveUnits="userSpaceOnUse"><feComponentTransfer color-interpolation-filters="sRGB"><feFuncR type="discrete" tableValues="0 0"/><feFuncG type="discrete" tableValues="0 0"/><feFuncB type="discrete" tableValues="0 0"/><feFuncA type="linear" slope="0.380392" intercept="0"/></feComponentTransfer><feGaussianBlur stdDeviation="4.8119 4.8119"/></filter><filter id="fx9" x="-10%" y="-10%" width="120%" height="120%" filterUnits="userSpaceOnUse" primitiveUnits="userSpaceOnUse"><feComponentTransfer color-interpolation-filters="sRGB"><feFuncR type="discrete" tableValues="0 0"/><feFuncG type="discrete" tableValues="0 0"/><feFuncB type="discrete" tableValues="0 0"/><feFuncA type="linear" slope="0.380392" intercept="0"/></feComponentTransfer><feGaussianBlur stdDeviation="4.8119 4.8119"/></filter><filter id="fx10" x="-10%" y="-10%" width="120%" height="120%" filterUnits="userSpaceOnUse" primitiveUnits="userSpaceOnUse"><feComponentTransfer color-interpolation-filters="sRGB"><feFuncR type="discrete" tableValues="0 0"/><feFuncG type="discrete" tableValues="0 0"/><feFuncB type="discrete" tableValues="0 0"/><feFuncA type="linear" slope="0.380392" intercept="0"/></feComponentTransfer><feGaussianBlur stdDeviation="4.8119 4.8119"/></filter><filter id="fx11" x="-10%" y="-10%" width="120%" height="120%" filterUnits="userSpaceOnUse" primitiveUnits="userSpaceOnUse"><feComponentTransfer color-interpolation-filters="sRGB"><feFuncR type="discrete" tableValues="0 0"/><feFuncG type="discrete" tableValues="0 0"/><feFuncB type="discrete" tableValues="0 0"/><feFuncA type="linear" slope="0.380392" intercept="0"/></feComponentTransfer><feGaussianBlur stdDeviation="4.8119 4.8119"/></filter><filter id="fx12" x="-10%" y="-10%" width="120%" height="120%" filterUnits="userSpaceOnUse" primitiveUnits="userSpaceOnUse"><feComponentTransfer color-interpolation-filters="sRGB"><feFuncR type="discrete" tableValues="0 0"/><feFuncG type="discrete" tableValues="0 0"/><feFuncB type="discrete" tableValues="0 0"/><feFuncA type="linear" slope="0.380392" intercept="0"/></feComponentTransfer><feGaussianBlur stdDeviation="4.8119 4.8119"/></filter><filter id="fx13" x="-10%" y="-10%" width="120%" height="120%" filterUnits="userSpaceOnUse" primitiveUnits="userSpaceOnUse"><feComponentTransfer color-interpolation-filters="sRGB"><feFuncR type="discrete" tableValues="0 0"/><feFuncG type="discrete" tableValues="0 0"/><feFuncB type="discrete" tableValues="0 0"/><feFuncA type="linear" slope="0.380392" intercept="0"/></feComponentTransfer><feGaussianBlur stdDeviation="4.8119 4.8119"/></filter><filter id="fx14" x="-10%" y="-10%" width="120%" height="120%" filterUnits="userSpaceOnUse" primitiveUnits="userSpaceOnUse"><feComponentTransfer color-interpolation-filters="sRGB"><feFuncR type="discrete" tableValues="0 0"/><feFuncG type="discrete" tableValues="0 0"/><feFuncB type="discrete" tableValues="0 0"/><feFuncA type="linear" slope="0.380392" intercept="0"/></feComponentTransfer><feGaussianBlur stdDeviation="4.8119 4.8119"/></filter><filter id="fx15" x="-10%" y="-10%" width="120%" height="120%" filterUnits="userSpaceOnUse" primitiveUnits="userSpaceOnUse"><feComponentTransfer color-interpolation-filters="sRGB"><feFuncR type="discrete" tableValues="0 0"/><feFuncG type="discrete" tableValues="0 0"/><feFuncB type="discrete" tableValues="0 0"/><feFuncA type="linear" slope="0.380392" intercept="0"/></feComponentTransfer><feGaussianBlur stdDeviation="4.8119 4.8119"/></filter><filter id="fx16" x="-10%" y="-10%" width="120%" height="120%" filterUnits="userSpaceOnUse" primitiveUnits="userSpaceOnUse"><feComponentTransfer color-interpolation-filters="sRGB"><feFuncR type="discrete" tableValues="0 0"/><feFuncG type="discrete" tableValues="0 0"/><feFuncB type="discrete" tableValues="0 0"/><feFuncA type="linear" slope="0.380392" intercept="0"/></feComponentTransfer><feGaussianBlur stdDeviation="4.8119 4.8119"/></filter><filter id="fx17" x="-10%" y="-10%" width="120%" height="120%" filterUnits="userSpaceOnUse" primitiveUnits="userSpaceOnUse"><feComponentTransfer color-interpolation-filters="sRGB"><feFuncR type="discrete" tableValues="0 0"/><feFuncG type="discrete" tableValues="0 0"/><feFuncB type="discrete" tableValues="0 0"/><feFuncA type="linear" slope="0.380392" intercept="0"/></feComponentTransfer><feGaussianBlur stdDeviation="4.8119 4.8119"/></filter><filter id="fx18" x="-10%" y="-10%" width="120%" height="120%" filterUnits="userSpaceOnUse" primitiveUnits="userSpaceOnUse"><feComponentTransfer color-interpolation-filters="sRGB"><feFuncR type="discrete" tableValues="0 0"/><feFuncG type="discrete" tableValues="0 0"/><feFuncB type="discrete" tableValues="0 0"/><feFuncA type="linear" slope="0.380392" intercept="0"/></feComponentTransfer><feGaussianBlur stdDeviation="4.8119 4.8119"/></filter><filter id="fx19" x="-10%" y="-10%" width="120%" height="120%" filterUnits="userSpaceOnUse" primitiveUnits="userSpaceOnUse"><feComponentTransfer color-interpolation-filters="sRGB"><feFuncR type="discrete" tableValues="0 0"/><feFuncG type="discrete" tableValues="0 0"/><feFuncB type="discrete" tableValues="0 0"/><feFuncA type="linear" slope="0.380392" intercept="0"/></feComponentTransfer><feGaussianBlur stdDeviation="4.8119 4.8119"/></filter><filter id="fx20" x="-10%" y="-10%" width="120%" height="120%" filterUnits="userSpaceOnUse" primitiveUnits="userSpaceOnUse"><feComponentTransfer color-interpolation-filters="sRGB"><feFuncR type="discrete" tableValues="0 0"/><feFuncG type="discrete" tableValues="0 0"/><feFuncB type="discrete" tableValues="0 0"/><feFuncA type="linear" slope="0.380392" intercept="0"/></feComponentTransfer><feGaussianBlur stdDeviation="4.8119 4.8119"/></filter><filter id="fx21" x="-10%" y="-10%" width="120%" height="120%" filterUnits="userSpaceOnUse" primitiveUnits="userSpaceOnUse"><feComponentTransfer color-interpolation-filters="sRGB"><feFuncR type="discrete" tableValues="0 0"/><feFuncG type="discrete" tableValues="0 0"/><feFuncB type="discrete" tableValues="0 0"/><feFuncA type="linear" slope="0.380392" intercept="0"/></feComponentTransfer><feGaussianBlur stdDeviation="4.8119 4.8119"/></filter><filter id="fx22" x="-10%" y="-10%" width="120%" height="120%" filterUnits="userSpaceOnUse" primitiveUnits="userSpaceOnUse"><feComponentTransfer color-interpolation-filters="sRGB"><feFuncR type="discrete" tableValues="0 0"/><feFuncG type="discrete" tableValues="0 0"/><feFuncB type="discrete" tableValues="0 0"/><feFuncA type="linear" slope="0.380392" intercept="0"/></feComponentTransfer><feGaussianBlur stdDeviation="4.8119 4.8119"/></filter><filter id="fx23" x="-10%" y="-10%" width="120%" height="120%" filterUnits="userSpaceOnUse" primitiveUnits="userSpaceOnUse"><feComponentTransfer color-interpolation-filters="sRGB"><feFuncR type="discrete" tableValues="0 0"/><feFuncG type="discrete" tableValues="0 0"/><feFuncB type="discrete" tableValues="0 0"/><feFuncA type="linear" slope="0.380392" intercept="0"/></feComponentTransfer><feGaussianBlur stdDeviation="4.8119 4.8119"/></filter><filter id="fx24" x="-10%" y="-10%" width="120%" height="120%" filterUnits="userSpaceOnUse" primitiveUnits="userSpaceOnUse"><feComponentTransfer color-interpolation-filters="sRGB"><feFuncR type="discrete" tableValues="0 0"/><feFuncG type="discrete" tableValues="0 0"/><feFuncB type="discrete" tableValues="0 0"/><feFuncA type="linear" slope="0.380392" intercept="0"/></feComponentTransfer><feGaussianBlur stdDeviation="4.8119 4.8119"/></filter><filter id="fx25" x="-10%" y="-10%" width="120%" height="120%" filterUnits="userSpaceOnUse" primitiveUnits="userSpaceOnUse"><feComponentTransfer color-interpolation-filters="sRGB"><feFuncR type="discrete" tableValues="0 0"/><feFuncG type="discrete" tableValues="0 0"/><feFuncB type="discrete" tableValues="0 0"/><feFuncA type="linear" slope="0.380392" intercept="0"/></feComponentTransfer><feGaussianBlur stdDeviation="4.8119 4.8119"/></filter><filter id="fx26" x="-10%" y="-10%" width="120%" height="120%" filterUnits="userSpaceOnUse" primitiveUnits="userSpaceOnUse"><feComponentTransfer color-interpolation-filters="sRGB"><feFuncR type="discrete" tableValues="0 0"/><feFuncG type="discrete" tableValues="0 0"/><feFuncB type="discrete" tableValues="0 0"/><feFuncA type="linear" slope="0.380392" intercept="0"/></feComponentTransfer><feGaussianBlur stdDeviation="4.8119 4.8119"/></filter><filter id="fx27" x="-10%" y="-10%" width="120%" height="120%" filterUnits="userSpaceOnUse" primitiveUnits="userSpaceOnUse"><feComponentTransfer color-interpolation-filters="sRGB"><feFuncR type="discrete" tableValues="0 0"/><feFuncG type="discrete" tableValues="0 0"/><feFuncB type="discrete" tableValues="0 0"/><feFuncA type="linear" slope="0.380392" intercept="0"/></feComponentTransfer><feGaussianBlur stdDeviation="4.8119 4.8119"/></filter><filter id="fx28" x="-10%" y="-10%" width="120%" height="120%" filterUnits="userSpaceOnUse" primitiveUnits="userSpaceOnUse"><feComponentTransfer color-interpolation-filters="sRGB"><feFuncR type="discrete" tableValues="0 0"/><feFuncG type="discrete" tableValues="0 0"/><feFuncB type="discrete" tableValues="0 0"/><feFuncA type="linear" slope="0.380392" intercept="0"/></feComponentTransfer><feGaussianBlur stdDeviation="4.8119 4.8119"/></filter><filter id="fx29" x="-10%" y="-10%" width="120%" height="120%" filterUnits="userSpaceOnUse" primitiveUnits="userSpaceOnUse"><feComponentTransfer color-interpolation-filters="sRGB"><feFuncR type="discrete" tableValues="0 0"/><feFuncG type="discrete" tableValues="0 0"/><feFuncB type="discrete" tableValues="0 0"/><feFuncA type="linear" slope="0.380392" intercept="0"/></feComponentTransfer><feGaussianBlur stdDeviation="4.8119 4.8119"/></filter><filter id="fx30" x="-10%" y="-10%" width="120%" height="120%" filterUnits="userSpaceOnUse" primitiveUnits="userSpaceOnUse"><feComponentTransfer color-interpolation-filters="sRGB"><feFuncR type="discrete" tableValues="0 0"/><feFuncG type="discrete" tableValues="0 0"/><feFuncB type="discrete" tableValues="0 0"/><feFuncA type="linear" slope="0.380392" intercept="0"/></feComponentTransfer><feGaussianBlur stdDeviation="4.8119 4.8119"/></filter><filter id="fx31" x="-10%" y="-10%" width="120%" height="120%" filterUnits="userSpaceOnUse" primitiveUnits="userSpaceOnUse"><feComponentTransfer color-interpolation-filters="sRGB"><feFuncR type="discrete" tableValues="0 0"/><feFuncG type="discrete" tableValues="0 0"/><feFuncB type="discrete" tableValues="0 0"/><feFuncA type="linear" slope="0.380392" intercept="0"/></feComponentTransfer><feGaussianBlur stdDeviation="4.8119 4.8119"/></filter><filter id="fx32" x="-10%" y="-10%" width="120%" height="120%" filterUnits="userSpaceOnUse" primitiveUnits="userSpaceOnUse"><feComponentTransfer color-interpolation-filters="sRGB"><feFuncR type="discrete" tableValues="0 0"/><feFuncG type="discrete" tableValues="0 0"/><feFuncB type="discrete" tableValues="0 0"/><feFuncA type="linear" slope="0.380392" intercept="0"/></feComponentTransfer><feGaussianBlur stdDeviation="4.8119 4.8119"/></filter><filter id="fx33" x="-10%" y="-10%" width="120%" height="120%" filterUnits="userSpaceOnUse" primitiveUnits="userSpaceOnUse"><feComponentTransfer color-interpolation-filters="sRGB"><feFuncR type="discrete" tableValues="0 0"/><feFuncG type="discrete" tableValues="0 0"/><feFuncB type="discrete" tableValues="0 0"/><feFuncA type="linear" slope="0.380392" intercept="0"/></feComponentTransfer><feGaussianBlur stdDeviation="4.8119 4.8119"/></filter><filter id="fx34" x="-10%" y="-10%" width="120%" height="120%" filterUnits="userSpaceOnUse" primitiveUnits="userSpaceOnUse"><feComponentTransfer color-interpolation-filters="sRGB"><feFuncR type="discrete" tableValues="0 0"/><feFuncG type="discrete" tableValues="0 0"/><feFuncB type="discrete" tableValues="0 0"/><feFuncA type="linear" slope="0.380392" intercept="0"/></feComponentTransfer><feGaussianBlur stdDeviation="4.8119 4.8119"/></filter><filter id="fx35" x="-10%" y="-10%" width="120%" height="120%" filterUnits="userSpaceOnUse" primitiveUnits="userSpaceOnUse"><feComponentTransfer color-interpolation-filters="sRGB"><feFuncR type="discrete" tableValues="0 0"/><feFuncG type="discrete" tableValues="0 0"/><feFuncB type="discrete" tableValues="0 0"/><feFuncA type="linear" slope="0.380392" intercept="0"/></feComponentTransfer><feGaussianBlur stdDeviation="4.8119 4.8119"/></filter><filter id="fx36" x="-10%" y="-10%" width="120%" height="120%" filterUnits="userSpaceOnUse" primitiveUnits="userSpaceOnUse"><feComponentTransfer color-interpolation-filters="sRGB"><feFuncR type="discrete" tableValues="0 0"/><feFuncG type="discrete" tableValues="0 0"/><feFuncB type="discrete" tableValues="0 0"/><feFuncA type="linear" slope="0.380392" intercept="0"/></feComponentTransfer><feGaussianBlur stdDeviation="4.8119 4.8119"/></filter><clipPath id="clip37"><path d="M2101 510 2101 655 3218 655 3218 510ZM1542 400 3247 400 3247 1260 1542 1260Z" fill-rule="evenodd" clip-rule="evenodd"/></clipPath><clipPath id="clip38"><rect x="34" y="25" width="360" height="91"/></clipPath><clipPath id="clip39"><path d="M2492 532 2492 632 2533 632 2533 532ZM1542 400 3247 400 3247 1260 1542 1260Z" fill-rule="evenodd" clip-rule="evenodd"/></clipPath><clipPath id="clip40"><path d="M2574 532 2574 632 2615 632 2615 532ZM1542 400 3247 400 3247 1260 1542 1260Z" fill-rule="evenodd" clip-rule="evenodd"/></clipPath><clipPath id="clip41"><path d="M2657 532 2657 632 2698 632 2698 532ZM1542 400 3247 400 3247 1260 1542 1260Z" fill-rule="evenodd" clip-rule="evenodd"/></clipPath><clipPath id="clip42"><path d="M2739 532 2739 632 2780 632 2780 532ZM1542 400 3247 400 3247 1260 1542 1260Z" fill-rule="evenodd" clip-rule="evenodd"/></clipPath><clipPath id="clip43"><path d="M2822 532 2822 632 2863 632 2863 532ZM1542 400 3247 400 3247 1260 1542 1260Z" fill-rule="evenodd" clip-rule="evenodd"/></clipPath><clipPath id="clip44"><path d="M2904 532 2904 632 2945 632 2945 532ZM1542 400 3247 400 3247 1260 1542 1260Z" fill-rule="evenodd" clip-rule="evenodd"/></clipPath><clipPath id="clip45"><path d="M2987 532 2987 632 3028 632 3028 532ZM1542 400 3247 400 3247 1260 1542 1260Z" fill-rule="evenodd" clip-rule="evenodd"/></clipPath><clipPath id="clip46"><path d="M3069 532 3069 632 3110 632 3110 532ZM1542 400 3247 400 3247 1260 1542 1260Z" fill-rule="evenodd" clip-rule="evenodd"/></clipPath><clipPath id="clip47"><path d="M3152 532 3152 632 3193 632 3193 532ZM1542 400 3247 400 3247 1260 1542 1260Z" fill-rule="evenodd" clip-rule="evenodd"/></clipPath><clipPath id="clip48"><path d="M2106 650 2106 1230 3119.33 1230 3138.67 1152.67 3216 1133.33 3216 650ZM1542 400 3247 400 3247 1260 1542 1260Z" fill-rule="evenodd" clip-rule="evenodd"/></clipPath><clipPath id="clip49"><path d="M2590 652 2590 797 3215 797 3215 652ZM1542 400 3247 400 3247 1260 1542 1260Z" fill-rule="evenodd" clip-rule="evenodd"/></clipPath><clipPath id="clip50"><rect x="37" y="28" width="224" height="85"/></clipPath><clipPath id="clip51"><rect x="-5" y="16" width="393" height="85"/></clipPath><clipPath id="clip52"><path d="M2106 798 2106 943 2732 943 2732 798ZM1542 400 3247 400 3247 1260 1542 1260Z" fill-rule="evenodd" clip-rule="evenodd"/></clipPath><clipPath id="clip53"><rect x="37" y="28" width="224" height="85"/></clipPath><clipPath id="clip54"><rect x="-5" y="16" width="393" height="85"/></clipPath><clipPath id="clip55"><path d="M2732 799 2732 944 3217 944 3217 799ZM1542 400 3247 400 3247 1260 1542 1260Z" fill-rule="evenodd" clip-rule="evenodd"/></clipPath><clipPath id="clip56"><rect x="37" y="28" width="224" height="85"/></clipPath><clipPath id="clip57"><path d="M2105 943 2105 1088 2303 1088 2303 943ZM1542 400 3247 400 3247 1260 1542 1260Z" fill-rule="evenodd" clip-rule="evenodd"/></clipPath><clipPath id="clip58"><rect x="-5" y="16" width="169" height="85"/></clipPath><clipPath id="clip59"><path d="M2297 943 2297 1088 2922 1088 2922 943ZM1542 400 3247 400 3247 1260 1542 1260Z" fill-rule="evenodd" clip-rule="evenodd"/></clipPath><clipPath id="clip60"><rect x="37" y="28" width="224" height="85"/></clipPath><clipPath id="clip61"><rect x="-5" y="16" width="393" height="85"/></clipPath><clipPath id="clip62"><path d="M2923 943 2923 1088 3217 1088 3217 943ZM1542 400 3247 400 3247 1260 1542 1260Z" fill-rule="evenodd" clip-rule="evenodd"/></clipPath><clipPath id="clip63"><rect x="37" y="28" width="224" height="85"/></clipPath><clipPath id="clip64"><path d="M2103 1085 2103 1231 2419 1231 2419 1085ZM1542 400 3247 400 3247 1260 1542 1260Z" fill-rule="evenodd" clip-rule="evenodd"/></clipPath><clipPath id="clip65"><rect x="-5" y="16" width="272" height="85"/></clipPath><clipPath id="clip66"><path d="M2416 1085 2416 1230 3041 1230 3041 1085ZM1542 400 3247 400 3247 1260 1542 1260Z" fill-rule="evenodd" clip-rule="evenodd"/></clipPath><clipPath id="clip67"><rect x="37" y="28" width="224" height="85"/></clipPath><clipPath id="clip68"><rect x="-5" y="16" width="393" height="85"/></clipPath><clipPath id="clip69"><path d="M2099 652 2099 797 2588 797 2588 652ZM1542 400 3247 400 3247 1260 1542 1260Z" fill-rule="evenodd" clip-rule="evenodd"/></clipPath><clipPath id="clip70"><rect x="37" y="28" width="224" height="85"/></clipPath><clipPath id="clip71"><rect x="-5" y="16" width="230" height="85"/></clipPath></defs><g transform="translate(-1542 -400)"><text fill="#541B27" font-family="Arial,Arial_MSFontService,sans-serif" font-weight="400" font-size="48" transform="matrix(1 0 0 1 1575.25 501)">Record id:</text><text fill="#541B27" font-family="Arial,Arial_MSFontService,sans-serif" font-weight="400" font-size="48" transform="matrix(1 0 0 1 1575.25 559)">(Page 2, Record 4)</text><g clip-path="url(#clip37)"><g filter="url(#fx0)" transform="translate(2078 494)"><g><rect x="23" y="23.218" width="1117" height="145" stroke="#FFFFFF" stroke-width="14" stroke-linejoin="round" stroke-miterlimit="10" fill="#79C6C1"/></g></g><g clip-path="url(#clip38)" filter="url(#fx1)" transform="translate(2085 525)"><g><path d="M4.24316 0 4.24316-39.3701 19.0942-39.3701C21.7082-39.3701 23.7044-39.2448 25.083-38.9941 27.0166-38.6719 28.6369-38.0587 29.9438-37.1545 31.2508-36.2504 32.3027-34.9837 33.0994-33.3545 33.8961-31.7253 34.2944-29.9349 34.2944-27.9834 34.2944-24.6354 33.2292-21.8022 31.0986-19.4836 28.9681-17.1651 25.1188-16.0059 19.5508-16.0059L9.45312-16.0059 9.45312 0ZM9.45312-20.6519 19.6313-20.6519C22.9972-20.6519 25.3874-21.2785 26.8018-22.5317 28.2161-23.785 28.9233-25.5485 28.9233-27.8223 28.9233-29.4694 28.5071-30.8793 27.6746-32.052 26.842-33.2247 25.7454-33.999 24.3848-34.375 23.5075-34.6077 21.8872-34.7241 19.5239-34.7241L9.45312-34.7241ZM58.903-3.51807C57.1126-1.99626 55.3894-0.922038 53.7333-0.29541 52.0772 0.331217 50.3003 0.644531 48.4025 0.644531 45.2694 0.644531 42.8613-0.12085 41.1784-1.65161 39.4954-3.18237 38.654-5.13835 38.654-7.51953 38.654-8.91601 38.9718-10.1916 39.6073-11.3464 40.2429-12.5012 41.0754-13.4277 42.1049-14.126 43.1344-14.8242 44.2936-15.3524 45.5827-15.7104 46.5316-15.9611 47.9639-16.2028 49.8796-16.4355 53.7825-16.901 56.6561-17.4561 58.5002-18.1006 58.5181-18.763 58.527-19.1838 58.527-19.3628 58.527-21.3322 58.0705-22.7197 57.1574-23.5254 55.922-24.6175 54.0869-25.1636 51.652-25.1636 49.3783-25.1636 47.6998-24.7652 46.6166-23.9685 45.5334-23.1718 44.7323-21.7619 44.2131-19.7388L39.4865-20.3833C39.9162-22.4064 40.6234-24.0401 41.6081-25.2844 42.5928-26.5287 44.0161-27.4866 45.8781-28.158 47.7401-28.8293 49.8975-29.165 52.3503-29.165 54.7851-29.165 56.7635-28.8786 58.2853-28.3057 59.8071-27.7327 60.9261-27.0121 61.6423-26.1438 62.3584-25.2755 62.8597-24.1789 63.1462-22.854 63.3073-22.0304 63.3879-20.5444 63.3879-18.396L63.3879-11.9507C63.3879-7.45687 63.4908-4.61466 63.6967-3.42407 63.9026-2.23348 64.3099-1.09212 64.9186 0L59.8698 0C59.3685-1.0026 59.0462-2.17529 58.903-3.51807ZM58.5002-14.314C56.7456-13.5978 54.1138-12.9891 50.6047-12.4878 48.6173-12.2013 47.2119-11.8791 46.3883-11.521 45.5648-11.1629 44.9292-10.6392 44.4816-9.94995 44.034-9.26066 43.8102-8.49528 43.8102-7.65381 43.8102-6.36475 44.2981-5.29053 45.2738-4.43115 46.2496-3.57178 47.6774-3.14209 49.5573-3.14209 51.4193-3.14209 53.0754-3.5494 54.5256-4.36401 55.9757-5.17863 57.041-6.29313 57.7214-7.70752 58.2406-8.79964 58.5002-10.411 58.5002-12.5415ZM69.7705 2.36328 74.4702 3.06152C74.6672 4.51172 75.2132 5.56803 76.1084 6.23047 77.3079 7.12565 78.9461 7.57324 81.0229 7.57324 83.2609 7.57324 84.9886 7.12565 86.2061 6.23047 87.4235 5.33529 88.2471 4.08203 88.6768 2.4707 88.9274 1.486 89.0438-0.581869 89.0259-3.73291 86.9132-1.2443 84.2814 0 81.1304 0 77.2095 0 74.1748-1.41439 72.0264-4.24316 69.8779-7.07194 68.8037-10.4647 68.8037-14.4214 68.8037-17.1427 69.2961-19.6537 70.2808-21.9543 71.2655-24.255 72.6933-26.0319 74.5642-27.2852 76.4351-28.5384 78.6328-29.165 81.1572-29.165 84.5231-29.165 87.2982-27.8044 89.4824-25.083L89.4824-28.5205 93.9404-28.5205 93.9404-3.86719C93.9404 0.572916 93.4884 3.71948 92.5842 5.57251 91.6801 7.42554 90.2478 8.88916 88.2874 9.96338 86.3269 11.0376 83.9144 11.5747 81.0498 11.5747 77.6481 11.5747 74.8999 10.8093 72.8052 9.27856 70.7104 7.7478 69.6989 5.44271 69.7705 2.36328ZM73.772-14.7705C73.772-11.0286 74.515-8.29834 76.001-6.57959 77.487-4.86084 79.349-4.00146 81.5869-4.00146 83.807-4.00146 85.6689-4.85636 87.1729-6.56616 88.6768-8.27596 89.4287-10.957 89.4287-14.6094 89.4287-18.1006 88.6544-20.7324 87.1057-22.5049 85.557-24.2773 83.6906-25.1636 81.5063-25.1636 79.3579-25.1636 77.5317-24.2908 76.0278-22.5452 74.5239-20.7996 73.772-18.208 73.772-14.7705ZM120.545-9.18457 125.54-8.56689C124.753-5.6486 123.293-3.38379 121.163-1.77246 119.032-0.161133 116.311 0.644531 112.999 0.644531 108.827 0.644531 105.52-0.640055 103.076-3.20923 100.632-5.7784 99.41-9.38151 99.41-14.0186 99.41-18.8167 100.645-22.5407 103.116-25.1904 105.587-27.8402 108.791-29.165 112.73-29.165 116.544-29.165 119.659-27.867 122.076-25.271 124.493-22.675 125.701-19.0226 125.701-14.314 125.701-14.0275 125.693-13.5978 125.675-13.0249L104.405-13.0249C104.584-9.89176 105.47-7.49267 107.064-5.82764 108.657-4.1626 110.645-3.33008 113.026-3.33008 114.798-3.33008 116.311-3.79557 117.564-4.72656 118.818-5.65755 119.811-7.14355 120.545-9.18457ZM104.674-16.9995 120.599-16.9995C120.384-19.3986 119.775-21.1979 118.773-22.3975 117.233-24.2594 115.237-25.1904 112.784-25.1904 110.564-25.1904 108.698-24.4474 107.185-22.9614 105.672-21.4754 104.835-19.4881 104.674-16.9995ZM147.633 0 147.633-39.3701 152.843-39.3701 152.843-23.2031 173.307-23.2031 173.307-39.3701 178.517-39.3701 178.517 0 173.307 0 173.307-18.5571 152.843-18.5571 152.843 0ZM205.91-9.18457 210.905-8.56689C210.117-5.6486 208.658-3.38379 206.527-1.77246 204.397-0.161133 201.676 0.644531 198.363 0.644531 194.192 0.644531 190.884-0.640055 188.44-3.20923 185.996-5.7784 184.775-9.38151 184.775-14.0186 184.775-18.8167 186.01-22.5407 188.481-25.1904 190.951-27.8402 194.156-29.165 198.095-29.165 201.908-29.165 205.024-27.867 207.441-25.271 209.858-22.675 211.066-19.0226 211.066-14.314 211.066-14.0275 211.057-13.5978 211.039-13.0249L189.77-13.0249C189.949-9.89176 190.835-7.49267 192.428-5.82764 194.022-4.1626 196.009-3.33008 198.39-3.33008 200.163-3.33008 201.676-3.79557 202.929-4.72656 204.182-5.65755 205.176-7.14355 205.91-9.18457ZM190.038-16.9995 205.964-16.9995C205.749-19.3986 205.14-21.1979 204.137-22.3975 202.598-24.2594 200.601-25.1904 198.149-25.1904 195.929-25.1904 194.062-24.4474 192.549-22.9614 191.036-21.4754 190.199-19.4881 190.038-16.9995ZM235.361-3.51807C233.571-1.99626 231.848-0.922038 230.192-0.29541 228.536 0.331217 226.759 0.644531 224.861 0.644531 221.728 0.644531 219.32-0.12085 217.637-1.65161 215.954-3.18237 215.112-5.13835 215.112-7.51953 215.112-8.91601 215.43-10.1916 216.066-11.3464 216.701-12.5012 217.534-13.4277 218.563-14.126 219.593-14.8242 220.752-15.3524 222.041-15.7104 222.99-15.9611 224.422-16.2028 226.338-16.4355 230.241-16.901 233.114-17.4561 234.958-18.1006 234.976-18.763 234.985-19.1838 234.985-19.3628 234.985-21.3322 234.529-22.7197 233.616-23.5254 232.38-24.6175 230.545-25.1636 228.11-25.1636 225.837-25.1636 224.158-24.7652 223.075-23.9685 221.992-23.1718 221.191-21.7619 220.671-19.7388L215.945-20.3833C216.374-22.4064 217.082-24.0401 218.066-25.2844 219.051-26.5287 220.474-27.4866 222.336-28.158 224.198-28.8293 226.356-29.165 228.809-29.165 231.243-29.165 233.222-28.8786 234.744-28.3057 236.265-27.7327 237.384-27.0121 238.101-26.1438 238.817-25.2755 239.318-24.1789 239.604-22.854 239.766-22.0304 239.846-20.5444 239.846-18.396L239.846-11.9507C239.846-7.45687 239.949-4.61466 240.155-3.42407 240.361-2.23348 240.768-1.09212 241.377 0L236.328 0C235.827-1.0026 235.505-2.17529 235.361-3.51807ZM234.958-14.314C233.204-13.5978 230.572-12.9891 227.063-12.4878 225.076-12.2013 223.67-11.8791 222.847-11.521 222.023-11.1629 221.388-10.6392 220.94-9.94995 220.492-9.26066 220.269-8.49528 220.269-7.65381 220.269-6.36475 220.756-5.29053 221.732-4.43115 222.708-3.57178 224.136-3.14209 226.016-3.14209 227.878-3.14209 229.534-3.5494 230.984-4.36401 232.434-5.17863 233.499-6.29313 234.18-7.70752 234.699-8.79964 234.958-10.411 234.958-12.5415ZM265.618 0 265.618-3.59863C263.81-0.769857 261.151 0.644531 257.642 0.644531 255.369 0.644531 253.278 0.0179036 251.372-1.23535 249.465-2.48861 247.988-4.23869 246.94-6.4856 245.893-8.7325 245.369-11.3151 245.369-14.2334 245.369-17.0801 245.844-19.6627 246.793-21.9812 247.742-24.2997 249.165-26.0767 251.063-27.312 252.961-28.5474 255.082-29.165 257.428-29.165 259.146-29.165 260.677-28.8025 262.02-28.0774 263.363-27.3523 264.455-26.4079 265.296-25.2441L265.296-39.3701 270.103-39.3701 270.103 0ZM250.338-14.2334C250.338-10.5811 251.108-7.85075 252.647-6.04248 254.187-4.23421 256.004-3.33008 258.099-3.33008 260.212-3.33008 262.006-4.19393 263.483-5.92163 264.961-7.64933 265.699-10.2856 265.699-13.8306 265.699-17.7336 264.947-20.5981 263.443-22.4243 261.939-24.2505 260.086-25.1636 257.884-25.1636 255.736-25.1636 253.941-24.2863 252.5-22.5317 251.058-20.7772 250.338-18.0111 250.338-14.2334ZM297.004-9.18457 301.999-8.56689C301.211-5.6486 299.752-3.38379 297.621-1.77246 295.491-0.161133 292.769 0.644531 289.457 0.644531 285.286 0.644531 281.978-0.640055 279.534-3.20923 277.09-5.7784 275.868-9.38151 275.868-14.0186 275.868-18.8167 277.104-22.5407 279.574-25.1904 282.045-27.8402 285.25-29.165 289.189-29.165 293.002-29.165 296.117-27.867 298.534-25.271 300.951-22.675 302.16-19.0226 302.16-14.314 302.16-14.0275 302.151-13.5978 302.133-13.0249L280.863-13.0249C281.042-9.89176 281.929-7.49267 283.522-5.82764 285.116-4.1626 287.103-3.33008 289.484-3.33008 291.257-3.33008 292.769-3.79557 294.023-4.72656 295.276-5.65755 296.27-7.14355 297.004-9.18457ZM281.132-16.9995 297.057-16.9995C296.842-19.3986 296.234-21.1979 295.231-22.3975 293.691-24.2594 291.695-25.1904 289.242-25.1904 287.022-25.1904 285.156-24.4474 283.643-22.9614 282.13-21.4754 281.293-19.4881 281.132-16.9995ZM307.791 0 307.791-28.5205 312.141-28.5205 312.141-24.1968C313.251-26.2199 314.276-27.5537 315.216-28.1982 316.156-28.8428 317.19-29.165 318.318-29.165 319.947-29.165 321.603-28.6458 323.286-27.6074L321.621-23.1226C320.439-23.8208 319.258-24.1699 318.076-24.1699 317.02-24.1699 316.071-23.8521 315.229-23.2166 314.388-22.581 313.788-21.6992 313.43-20.5713 312.893-18.8525 312.625-16.9727 312.625-14.9316L312.625 0Z" transform="matrix(1 0 0 1 49.4023 85)"/></g></g></g><rect x="2101" y="510" width="1117" height="145" stroke="#FFFFFF" stroke-width="13.75" stroke-linejoin="round" stroke-miterlimit="10" fill="#79C6C1"/><text font-family="Arial,Arial_MSFontService,sans-serif" font-weight="400" font-size="55" transform="matrix(1 0 0 1 2134.4 603)">Page Header</text><g clip-path="url(#clip39)"><g filter="url(#fx2)" transform="translate(2469 516)"><g><rect x="22.9998" y="23.218" width="41.0003" height="100" stroke="#FFFFFF" stroke-width="14" stroke-linejoin="round" stroke-miterlimit="10" fill="#AD0001"/></g></g></g><rect x="2492" y="532" width="41.0002" height="100" stroke="#FFFFFF" stroke-width="13.75" stroke-linejoin="round" stroke-miterlimit="10" fill="#AD0001"/><g clip-path="url(#clip40)"><g filter="url(#fx3)" transform="translate(2551 516)"><g><rect x="23" y="23.218" width="40.9999" height="100" stroke="#FFFFFF" stroke-width="14" stroke-linejoin="round" stroke-miterlimit="10" fill="#AD0001"/></g></g></g><rect x="2574" y="532" width="41" height="100" stroke="#FFFFFF" stroke-width="13.75" stroke-linejoin="round" stroke-miterlimit="10" fill="#AD0001"/><g clip-path="url(#clip41)"><g filter="url(#fx4)" transform="translate(2634 516)"><g><rect x="22.9998" y="23.218" width="41.0003" height="100" stroke="#FFFFFF" stroke-width="14" stroke-linejoin="round" stroke-miterlimit="10" fill="#74B5DE"/></g></g></g><rect x="2657" y="532" width="41.0002" height="100" stroke="#FFFFFF" stroke-width="13.75" stroke-linejoin="round" stroke-miterlimit="10" fill="#74B5DE"/><g clip-path="url(#clip42)"><g filter="url(#fx5)" transform="translate(2716 516)"><g><rect x="23" y="23.218" width="40.9999" height="100" stroke="#FFFFFF" stroke-width="14" stroke-linejoin="round" stroke-miterlimit="10" fill="#AD0001"/></g></g></g><rect x="2739" y="532" width="41" height="100" stroke="#FFFFFF" stroke-width="13.75" stroke-linejoin="round" stroke-miterlimit="10" fill="#AD0001"/><g clip-path="url(#clip43)"><g filter="url(#fx6)" transform="translate(2799 516)"><g><rect x="22.9998" y="23.218" width="41.0003" height="100" stroke="#FFFFFF" stroke-width="14" stroke-linejoin="round" stroke-miterlimit="10" fill="#AD0001"/></g></g></g><rect x="2822" y="532" width="41.0002" height="100" stroke="#FFFFFF" stroke-width="13.75" stroke-linejoin="round" stroke-miterlimit="10" fill="#AD0001"/><g clip-path="url(#clip44)"><g filter="url(#fx7)" transform="translate(2881 516)"><g><rect x="23" y="23.218" width="40.9999" height="100" stroke="#FFFFFF" stroke-width="14" stroke-linejoin="round" stroke-miterlimit="10" fill="#74B5DE"/></g></g></g><rect x="2904" y="532" width="41" height="100" stroke="#FFFFFF" stroke-width="13.75" stroke-linejoin="round" stroke-miterlimit="10" fill="#74B5DE"/><g clip-path="url(#clip45)"><g filter="url(#fx8)" transform="translate(2964 516)"><g><rect x="22.9998" y="23.218" width="41.0003" height="100" stroke="#FFFFFF" stroke-width="14" stroke-linejoin="round" stroke-miterlimit="10" fill="#74B5DE"/></g></g></g><rect x="2987" y="532" width="41.0002" height="100" stroke="#FFFFFF" stroke-width="13.75" stroke-linejoin="round" stroke-miterlimit="10" fill="#74B5DE"/><g clip-path="url(#clip46)"><g filter="url(#fx9)" transform="translate(3046 516)"><g><rect x="23" y="23.218" width="40.9999" height="100" stroke="#FFFFFF" stroke-width="14" stroke-linejoin="round" stroke-miterlimit="10" fill="#74B5DE"/></g></g></g><rect x="3069" y="532" width="41" height="100" stroke="#FFFFFF" stroke-width="13.75" stroke-linejoin="round" stroke-miterlimit="10" fill="#74B5DE"/><g clip-path="url(#clip47)"><g filter="url(#fx10)" transform="translate(3129 516)"><g><rect x="22.9998" y="23.218" width="41.0003" height="100" stroke="#FFFFFF" stroke-width="14" stroke-linejoin="round" stroke-miterlimit="10" fill="#74B5DE"/></g></g></g><rect x="3152" y="532" width="41.0002" height="100" stroke="#FFFFFF" stroke-width="13.75" stroke-linejoin="round" stroke-miterlimit="10" fill="#74B5DE"/><g clip-path="url(#clip48)"><g filter="url(#fx11)" transform="translate(2083 634)"><g><path d="M23.0002 23.2179 1133 23.2179 1133 506.549 1036.33 603.218 23.0002 603.218Z" fill="#FFFFFF" fill-rule="evenodd"/><path d="M1036.33 603.218 1055.67 525.883 1133 506.549Z" fill="#CDCDCD" fill-rule="evenodd"/><path d="M1036.33 603.218 1055.67 525.883 1133 506.549 1036.33 603.218 23.0002 603.218 23.0002 23.2179 1133 23.2179 1133 506.549" stroke="#FFFFFF" stroke-width="14" stroke-linejoin="round" stroke-miterlimit="10" fill="none" fill-rule="evenodd"/></g></g></g><path d="M2106 650 3216 650 3216 1133.33 3119.33 1230 2106 1230Z" fill="#FFFFFF" fill-rule="evenodd"/><path d="M3119.33 1230 3138.67 1152.67 3216 1133.33Z" fill="#CDCDCD" fill-rule="evenodd"/><path d="M3119.33 1230 3138.67 1152.67 3216 1133.33 3119.33 1230 2106 1230 2106 650 3216 650 3216 1133.33" stroke="#FFFFFF" stroke-width="13.75" stroke-linejoin="round" stroke-miterlimit="10" fill="none" fill-rule="evenodd"/><g clip-path="url(#clip49)"><g filter="url(#fx12)" transform="translate(2567 636)"><g><rect x="23.0002" y="23.218" width="625" height="145" stroke="#FFFFFF" stroke-width="14" stroke-linejoin="round" stroke-miterlimit="10" fill="#44516F"/></g></g><g clip-path="url(#clip50)" filter="url(#fx13)" transform="translate(2571 662)"><g><path d="M4.7168 0 4.7168-42.9492 23.7598-42.9492C27.5879-42.9492 30.498-42.5635 32.4902-41.792 34.4824-41.0205 36.0742-39.6582 37.2656-37.7051 38.457-35.7519 39.0527-33.5937 39.0527-31.2305 39.0527-28.1836 38.0664-25.6152 36.0937-23.5254 34.1211-21.4355 31.0742-20.1074 26.9531-19.541 28.457-18.8184 29.5996-18.1055 30.3809-17.4023 32.041-15.8789 33.6133-13.9746 35.0977-11.6895L42.5684 0 35.4199 0 29.7363-8.93555C28.0762-11.5137 26.709-13.4863 25.6348-14.8535 24.5605-16.2207 23.5986-17.1777 22.749-17.7246 21.8994-18.2715 21.0352-18.6523 20.1562-18.8672 19.5117-19.0039 18.457-19.0723 16.9922-19.0723L10.4004-19.0723 10.4004 0ZM10.4004-23.9941 22.6172-23.9941C25.2148-23.9941 27.2461-24.2627 28.7109-24.7998 30.1758-25.3369 31.2891-26.1963 32.0508-27.3779 32.8125-28.5596 33.1934-29.8437 33.1934-31.2305 33.1934-33.2617 32.4561-34.9316 30.9814-36.2402 29.5068-37.5488 27.1777-38.2031 23.9941-38.2031L10.4004-38.2031ZM68.2226-10.0195 73.6719-9.3457C72.8125-6.16211 71.2207-3.69141 68.8965-1.93359 66.5723-0.175781 63.6035 0.703125 59.9902 0.703125 55.4394 0.703125 51.831-0.698242 49.165-3.50098 46.499-6.30371 45.166-10.2344 45.166-15.293 45.166-20.5273 46.5137-24.5898 49.209-27.4805 51.9043-30.3711 55.4004-31.8164 59.6973-31.8164 63.8574-31.8164 67.2558-30.4004 69.8926-27.5684 72.5293-24.7363 73.8476-20.752 73.8476-15.6152 73.8476-15.3027 73.8379-14.834 73.8184-14.209L50.6152-14.209C50.8105-10.791 51.7773-8.17383 53.5156-6.35742 55.2539-4.54102 57.4219-3.63281 60.0195-3.63281 61.9531-3.63281 63.6035-4.14062 64.9707-5.15625 66.3379-6.17187 67.4219-7.79297 68.2226-10.0195ZM50.9082-18.5449 68.2812-18.5449C68.0469-21.1621 67.3828-23.125 66.2891-24.4336 64.6094-26.4648 62.4316-27.4805 59.7559-27.4805 57.334-27.4805 55.2978-26.6699 53.6475-25.0488 51.9971-23.4277 51.084-21.2598 50.9082-18.5449ZM100.456-11.3965 105.641-10.7227C105.075-7.14844 103.625-4.35059 101.291-2.3291 98.9567-0.307617 96.0905 0.703125 92.692 0.703125 88.4342 0.703125 85.0114-0.688477 82.4235-3.47168 79.8356-6.25488 78.5417-10.2441 78.5417-15.4395 78.5417-18.7988 79.0983-21.7383 80.2116-24.2578 81.3249-26.7773 83.0192-28.667 85.2946-29.9268 87.57-31.1865 90.0456-31.8164 92.7213-31.8164 96.1003-31.8164 98.8639-30.9619 101.012-29.2529 103.161-27.5439 104.538-25.1172 105.143-21.9727L100.016-21.1816C99.528-23.2715 98.6637-24.8437 97.4235-25.8984 96.1833-26.9531 94.6842-27.4805 92.9264-27.4805 90.2702-27.4805 88.112-26.5283 86.4518-24.624 84.7917-22.7197 83.9616-19.707 83.9616-15.5859 83.9616-11.4062 84.7624-8.36914 86.3639-6.47461 87.9655-4.58008 90.0553-3.63281 92.6335-3.63281 94.7038-3.63281 96.4323-4.26758 97.819-5.53711 99.2057-6.80664 100.085-8.75976 100.456-11.3965ZM107.982-15.5566C107.982-21.3184 109.583-25.5859 112.786-28.3594 115.462-30.6641 118.724-31.8164 122.572-31.8164 126.849-31.8164 130.345-30.415 133.06-27.6123 135.775-24.8096 137.132-20.9375 137.132-15.9961 137.132-11.9922 136.532-8.84277 135.33-6.54785 134.129-4.25293 132.381-2.4707 130.086-1.20117 127.791 0.0683593 125.286 0.703125 122.572 0.703125 118.216 0.703125 114.696-0.693359 112.01-3.48633 109.325-6.2793 107.982-10.3027 107.982-15.5566ZM113.402-15.5566C113.402-11.5723 114.271-8.58887 116.009-6.60644 117.747-4.62402 119.935-3.63281 122.572-3.63281 125.189-3.63281 127.367-4.62891 129.105-6.62109 130.843-8.61328 131.712-11.6504 131.712-15.7324 131.712-19.5801 130.838-22.4951 129.09-24.4775 127.342-26.46 125.169-27.4512 122.572-27.4512 119.935-27.4512 117.747-26.4648 116.009-24.4922 114.271-22.5195 113.402-19.541 113.402-15.5566ZM143.115 0 143.115-31.1133 147.861-31.1133 147.861-26.3965C149.072-28.6035 150.19-30.0586 151.216-30.7617 152.241-31.4648 153.369-31.8164 154.6-31.8164 156.377-31.8164 158.184-31.25 160.02-30.1172L158.203-25.2246C156.914-25.9863 155.625-26.3672 154.336-26.3672 153.184-26.3672 152.148-26.0205 151.23-25.3271 150.312-24.6338 149.658-23.6719 149.268-22.4414 148.682-20.5664 148.389-18.5156 148.389-16.2891L148.389 0ZM183.411 0 183.411-3.92578C181.439-0.839844 178.538 0.703125 174.71 0.703125 172.23 0.703125 169.95 0.0195312 167.869-1.34766 165.789-2.71484 164.178-4.62402 163.035-7.07519 161.893-9.52637 161.322-12.3437 161.322-15.5273 161.322-18.6328 161.839-21.4502 162.874-23.9795 163.909-26.5088 165.462-28.4473 167.533-29.7949 169.603-31.1426 171.917-31.8164 174.476-31.8164 176.351-31.8164 178.021-31.4209 179.486-30.6299 180.951-29.8389 182.142-28.8086 183.06-27.5391L183.06-42.9492 188.304-42.9492 188.304 0ZM166.742-15.5273C166.742-11.543 167.581-8.56445 169.261-6.5918 170.941-4.61914 172.923-3.63281 175.208-3.63281 177.513-3.63281 179.471-4.5752 181.082-6.45996 182.694-8.34473 183.499-11.2207 183.499-15.0879 183.499-19.3457 182.679-22.4707 181.038-24.4629 179.398-26.4551 177.376-27.4512 174.974-27.4512 172.63-27.4512 170.672-26.4941 169.1-24.5801 167.528-22.666 166.742-19.6484 166.742-15.5273Z" fill="#FFFFFF" transform="matrix(1 0 0 1 51.8779 92)"/></g></g></g><rect x="2590" y="652" width="625" height="145" stroke="#FFFFFF" stroke-width="13.75" stroke-linejoin="round" stroke-miterlimit="10" fill="#44516F"/><text fill="#FFFFFF" font-family="Arial,Arial_MSFontService,sans-serif" font-weight="400" font-size="60" transform="matrix(1 0 0 1 2622.88 746)">Record</text><g clip-path="url(#clip51)" filter="url(#fx14)" transform="translate(2821 674)"><g><path d="M37 57.2178 368.549 57.2181" fill="#44516F" fill-rule="evenodd"/><path d="M37 50.2178 333.549 50.2181 333.549 64.2181 37 64.2178ZM37 78.2178C25.402 78.2178 16 68.8157 16 57.2178 16 45.6198 25.402 36.2178 37 36.2178 48.598 36.2178 58 45.6198 58 57.2178 58 68.8158 48.598 78.2178 37 78.2178ZM326.549 36.2181 368.549 57.2181 326.549 78.2181Z" fill="#FFFFFF"/></g></g><path d="M2858 724 3189.55 724" fill="#44516F" fill-rule="evenodd"/><path d="M2858 717.125 3155.17 717.125 3155.17 730.875 2858 730.875ZM2858 744.625C2846.61 744.625 2837.38 735.391 2837.38 724 2837.38 712.609 2846.61 703.375 2858 703.375 2869.39 703.375 2878.62 712.609 2878.62 724 2878.62 735.391 2869.39 744.625 2858 744.625ZM3148.3 703.375 3189.55 724 3148.3 744.625Z" fill="#FFFFFF"/><g clip-path="url(#clip52)"><g filter="url(#fx15)" transform="translate(2083 782)"><g><rect x="23.0002" y="23.2177" width="626" height="145" stroke="#FFFFFF" stroke-width="14" stroke-linejoin="round" stroke-miterlimit="10" fill="#A6A6A6"/></g></g><g clip-path="url(#clip53)" filter="url(#fx16)" transform="translate(2087 808)"><g><path d="M4.7168 0 4.7168-42.9492 23.7598-42.9492C27.5879-42.9492 30.498-42.5635 32.4902-41.792 34.4824-41.0205 36.0742-39.6582 37.2656-37.7051 38.457-35.7519 39.0527-33.5937 39.0527-31.2305 39.0527-28.1836 38.0664-25.6152 36.0937-23.5254 34.1211-21.4355 31.0742-20.1074 26.9531-19.541 28.457-18.8184 29.5996-18.1055 30.3809-17.4023 32.041-15.8789 33.6133-13.9746 35.0977-11.6895L42.5684 0 35.4199 0 29.7363-8.93555C28.0762-11.5137 26.709-13.4863 25.6348-14.8535 24.5605-16.2207 23.5986-17.1777 22.749-17.7246 21.8994-18.2715 21.0352-18.6523 20.1562-18.8672 19.5117-19.0039 18.457-19.0723 16.9922-19.0723L10.4004-19.0723 10.4004 0ZM10.4004-23.9941 22.6172-23.9941C25.2148-23.9941 27.2461-24.2627 28.7109-24.7998 30.1758-25.3369 31.2891-26.1963 32.0508-27.3779 32.8125-28.5596 33.1934-29.8437 33.1934-31.2305 33.1934-33.2617 32.4561-34.9316 30.9814-36.2402 29.5068-37.5488 27.1777-38.2031 23.9941-38.2031L10.4004-38.2031ZM68.2226-10.0195 73.6719-9.3457C72.8125-6.16211 71.2207-3.69141 68.8965-1.93359 66.5723-0.175781 63.6035 0.703125 59.9902 0.703125 55.4394 0.703125 51.831-0.698242 49.165-3.50098 46.499-6.30371 45.166-10.2344 45.166-15.293 45.166-20.5273 46.5137-24.5898 49.209-27.4805 51.9043-30.3711 55.4004-31.8164 59.6973-31.8164 63.8574-31.8164 67.2558-30.4004 69.8926-27.5684 72.5293-24.7363 73.8476-20.752 73.8476-15.6152 73.8476-15.3027 73.8379-14.834 73.8184-14.209L50.6152-14.209C50.8105-10.791 51.7773-8.17383 53.5156-6.35742 55.2539-4.54102 57.4219-3.63281 60.0195-3.63281 61.9531-3.63281 63.6035-4.14062 64.9707-5.15625 66.3379-6.17187 67.4219-7.79297 68.2226-10.0195ZM50.9082-18.5449 68.2812-18.5449C68.0469-21.1621 67.3828-23.125 66.2891-24.4336 64.6094-26.4648 62.4316-27.4805 59.7559-27.4805 57.334-27.4805 55.2978-26.6699 53.6475-25.0488 51.9971-23.4277 51.084-21.2598 50.9082-18.5449ZM100.456-11.3965 105.641-10.7227C105.075-7.14844 103.625-4.35059 101.291-2.3291 98.9567-0.307617 96.0905 0.703125 92.692 0.703125 88.4342 0.703125 85.0114-0.688477 82.4235-3.47168 79.8356-6.25488 78.5417-10.2441 78.5417-15.4395 78.5417-18.7988 79.0983-21.7383 80.2116-24.2578 81.3249-26.7773 83.0192-28.667 85.2946-29.9268 87.57-31.1865 90.0456-31.8164 92.7213-31.8164 96.1003-31.8164 98.8639-30.9619 101.012-29.2529 103.161-27.5439 104.538-25.1172 105.143-21.9727L100.016-21.1816C99.528-23.2715 98.6637-24.8437 97.4235-25.8984 96.1833-26.9531 94.6842-27.4805 92.9264-27.4805 90.2702-27.4805 88.112-26.5283 86.4518-24.624 84.7917-22.7197 83.9616-19.707 83.9616-15.5859 83.9616-11.4062 84.7624-8.36914 86.3639-6.47461 87.9655-4.58008 90.0553-3.63281 92.6335-3.63281 94.7038-3.63281 96.4323-4.26758 97.819-5.53711 99.2057-6.80664 100.085-8.75976 100.456-11.3965ZM107.982-15.5566C107.982-21.3184 109.583-25.5859 112.786-28.3594 115.462-30.6641 118.724-31.8164 122.572-31.8164 126.849-31.8164 130.345-30.415 133.06-27.6123 135.775-24.8096 137.132-20.9375 137.132-15.9961 137.132-11.9922 136.532-8.84277 135.33-6.54785 134.129-4.25293 132.381-2.4707 130.086-1.20117 127.791 0.0683593 125.286 0.703125 122.572 0.703125 118.216 0.703125 114.696-0.693359 112.01-3.48633 109.325-6.2793 107.982-10.3027 107.982-15.5566ZM113.402-15.5566C113.402-11.5723 114.271-8.58887 116.009-6.60644 117.747-4.62402 119.935-3.63281 122.572-3.63281 125.189-3.63281 127.367-4.62891 129.105-6.62109 130.843-8.61328 131.712-11.6504 131.712-15.7324 131.712-19.5801 130.838-22.4951 129.09-24.4775 127.342-26.46 125.169-27.4512 122.572-27.4512 119.935-27.4512 117.747-26.4648 116.009-24.4922 114.271-22.5195 113.402-19.541 113.402-15.5566ZM143.115 0 143.115-31.1133 147.861-31.1133 147.861-26.3965C149.072-28.6035 150.19-30.0586 151.216-30.7617 152.241-31.4648 153.369-31.8164 154.6-31.8164 156.377-31.8164 158.184-31.25 160.02-30.1172L158.203-25.2246C156.914-25.9863 155.625-26.3672 154.336-26.3672 153.184-26.3672 152.148-26.0205 151.23-25.3271 150.312-24.6338 149.658-23.6719 149.268-22.4414 148.682-20.5664 148.389-18.5156 148.389-16.2891L148.389 0ZM183.411 0 183.411-3.92578C181.439-0.839844 178.538 0.703125 174.71 0.703125 172.23 0.703125 169.95 0.0195312 167.869-1.34766 165.789-2.71484 164.178-4.62402 163.035-7.07519 161.893-9.52637 161.322-12.3437 161.322-15.5273 161.322-18.6328 161.839-21.4502 162.874-23.9795 163.909-26.5088 165.462-28.4473 167.533-29.7949 169.603-31.1426 171.917-31.8164 174.476-31.8164 176.351-31.8164 178.021-31.4209 179.486-30.6299 180.951-29.8389 182.142-28.8086 183.06-27.5391L183.06-42.9492 188.304-42.9492 188.304 0ZM166.742-15.5273C166.742-11.543 167.581-8.56445 169.261-6.5918 170.941-4.61914 172.923-3.63281 175.208-3.63281 177.513-3.63281 179.471-4.5752 181.082-6.45996 182.694-8.34473 183.499-11.2207 183.499-15.0879 183.499-19.3457 182.679-22.4707 181.038-24.4629 179.398-26.4551 177.376-27.4512 174.974-27.4512 172.63-27.4512 170.672-26.4941 169.1-24.5801 167.528-22.666 166.742-19.6484 166.742-15.5273Z" transform="matrix(1 0 0 1 52.1997 92)"/></g></g></g><rect x="2106" y="798" width="626" height="145" stroke="#FFFFFF" stroke-width="13.75" stroke-linejoin="round" stroke-miterlimit="10" fill="#A6A6A6"/><text font-family="Arial,Arial_MSFontService,sans-serif" font-weight="400" font-size="60" transform="matrix(1 0 0 1 2139.2 893)">Record</text><g clip-path="url(#clip54)" filter="url(#fx17)" transform="translate(2338 820)"><g><path d="M37 57.2179 368.549 57.2183" fill="#44516F" fill-rule="evenodd"/><path d="M37 50.2179 333.549 50.2182 333.549 64.2182 37 64.2179ZM37 78.2179C25.402 78.2179 16 68.8159 16 57.2179 16 45.6199 25.402 36.2179 37 36.2179 48.598 36.2179 58 45.6199 58 57.2179 58 68.8159 48.598 78.2179 37 78.2179ZM326.549 36.2182 368.549 57.2183 326.549 78.2182Z" fill="#FFFFFF"/></g></g><path d="M2375 870 2706.55 870" fill="#44516F" fill-rule="evenodd"/><path d="M2375 863.125 2672.17 863.125 2672.17 876.875 2375 876.875ZM2375 890.625C2363.61 890.625 2354.38 881.391 2354.38 870 2354.38 858.609 2363.61 849.375 2375 849.375 2386.39 849.375 2395.62 858.609 2395.62 870 2395.62 881.391 2386.39 890.625 2375 890.625ZM2665.3 849.375 2706.55 870 2665.3 890.625Z" fill="#FFFFFF"/><g clip-path="url(#clip55)"><g filter="url(#fx18)" transform="translate(2709 783)"><g><rect x="23.0002" y="23.2177" width="485" height="145" stroke="#FFFFFF" stroke-width="14" stroke-linejoin="round" stroke-miterlimit="10" fill="#44516F"/></g></g><g clip-path="url(#clip56)" filter="url(#fx19)" transform="translate(2713 809)"><g><path d="M4.7168 0 4.7168-42.9492 23.7598-42.9492C27.5879-42.9492 30.498-42.5635 32.4902-41.792 34.4824-41.0205 36.0742-39.6582 37.2656-37.7051 38.457-35.7519 39.0527-33.5937 39.0527-31.2305 39.0527-28.1836 38.0664-25.6152 36.0937-23.5254 34.1211-21.4355 31.0742-20.1074 26.9531-19.541 28.457-18.8184 29.5996-18.1055 30.3809-17.4023 32.041-15.8789 33.6133-13.9746 35.0977-11.6895L42.5684 0 35.4199 0 29.7363-8.93555C28.0762-11.5137 26.709-13.4863 25.6348-14.8535 24.5605-16.2207 23.5986-17.1777 22.749-17.7246 21.8994-18.2715 21.0352-18.6523 20.1562-18.8672 19.5117-19.0039 18.457-19.0723 16.9922-19.0723L10.4004-19.0723 10.4004 0ZM10.4004-23.9941 22.6172-23.9941C25.2148-23.9941 27.2461-24.2627 28.7109-24.7998 30.1758-25.3369 31.2891-26.1963 32.0508-27.3779 32.8125-28.5596 33.1934-29.8437 33.1934-31.2305 33.1934-33.2617 32.4561-34.9316 30.9814-36.2402 29.5068-37.5488 27.1777-38.2031 23.9941-38.2031L10.4004-38.2031ZM68.2226-10.0195 73.6719-9.3457C72.8125-6.16211 71.2207-3.69141 68.8965-1.93359 66.5723-0.175781 63.6035 0.703125 59.9902 0.703125 55.4394 0.703125 51.831-0.698242 49.165-3.50098 46.499-6.30371 45.166-10.2344 45.166-15.293 45.166-20.5273 46.5137-24.5898 49.209-27.4805 51.9043-30.3711 55.4004-31.8164 59.6973-31.8164 63.8574-31.8164 67.2558-30.4004 69.8926-27.5684 72.5293-24.7363 73.8476-20.752 73.8476-15.6152 73.8476-15.3027 73.8379-14.834 73.8184-14.209L50.6152-14.209C50.8105-10.791 51.7773-8.17383 53.5156-6.35742 55.2539-4.54102 57.4219-3.63281 60.0195-3.63281 61.9531-3.63281 63.6035-4.14062 64.9707-5.15625 66.3379-6.17187 67.4219-7.79297 68.2226-10.0195ZM50.9082-18.5449 68.2812-18.5449C68.0469-21.1621 67.3828-23.125 66.2891-24.4336 64.6094-26.4648 62.4316-27.4805 59.7559-27.4805 57.334-27.4805 55.2978-26.6699 53.6475-25.0488 51.9971-23.4277 51.084-21.2598 50.9082-18.5449ZM100.456-11.3965 105.641-10.7227C105.075-7.14844 103.625-4.35059 101.291-2.3291 98.9567-0.307617 96.0905 0.703125 92.692 0.703125 88.4342 0.703125 85.0114-0.688477 82.4235-3.47168 79.8356-6.25488 78.5417-10.2441 78.5417-15.4395 78.5417-18.7988 79.0983-21.7383 80.2116-24.2578 81.3249-26.7773 83.0192-28.667 85.2946-29.9268 87.57-31.1865 90.0456-31.8164 92.7213-31.8164 96.1003-31.8164 98.8639-30.9619 101.012-29.2529 103.161-27.5439 104.538-25.1172 105.143-21.9727L100.016-21.1816C99.528-23.2715 98.6637-24.8437 97.4235-25.8984 96.1833-26.9531 94.6842-27.4805 92.9264-27.4805 90.2702-27.4805 88.112-26.5283 86.4518-24.624 84.7917-22.7197 83.9616-19.707 83.9616-15.5859 83.9616-11.4062 84.7624-8.36914 86.3639-6.47461 87.9655-4.58008 90.0553-3.63281 92.6335-3.63281 94.7038-3.63281 96.4323-4.26758 97.819-5.53711 99.2057-6.80664 100.085-8.75976 100.456-11.3965ZM107.982-15.5566C107.982-21.3184 109.583-25.5859 112.786-28.3594 115.462-30.6641 118.724-31.8164 122.572-31.8164 126.849-31.8164 130.345-30.415 133.06-27.6123 135.775-24.8096 137.132-20.9375 137.132-15.9961 137.132-11.9922 136.532-8.84277 135.33-6.54785 134.129-4.25293 132.381-2.4707 130.086-1.20117 127.791 0.0683593 125.286 0.703125 122.572 0.703125 118.216 0.703125 114.696-0.693359 112.01-3.48633 109.325-6.2793 107.982-10.3027 107.982-15.5566ZM113.402-15.5566C113.402-11.5723 114.271-8.58887 116.009-6.60644 117.747-4.62402 119.935-3.63281 122.572-3.63281 125.189-3.63281 127.367-4.62891 129.105-6.62109 130.843-8.61328 131.712-11.6504 131.712-15.7324 131.712-19.5801 130.838-22.4951 129.09-24.4775 127.342-26.46 125.169-27.4512 122.572-27.4512 119.935-27.4512 117.747-26.4648 116.009-24.4922 114.271-22.5195 113.402-19.541 113.402-15.5566ZM143.115 0 143.115-31.1133 147.861-31.1133 147.861-26.3965C149.072-28.6035 150.19-30.0586 151.216-30.7617 152.241-31.4648 153.369-31.8164 154.6-31.8164 156.377-31.8164 158.184-31.25 160.02-30.1172L158.203-25.2246C156.914-25.9863 155.625-26.3672 154.336-26.3672 153.184-26.3672 152.148-26.0205 151.23-25.3271 150.312-24.6338 149.658-23.6719 149.268-22.4414 148.682-20.5664 148.389-18.5156 148.389-16.2891L148.389 0ZM183.411 0 183.411-3.92578C181.439-0.839844 178.538 0.703125 174.71 0.703125 172.23 0.703125 169.95 0.0195312 167.869-1.34766 165.789-2.71484 164.178-4.62402 163.035-7.07519 161.893-9.52637 161.322-12.3437 161.322-15.5273 161.322-18.6328 161.839-21.4502 162.874-23.9795 163.909-26.5088 165.462-28.4473 167.533-29.7949 169.603-31.1426 171.917-31.8164 174.476-31.8164 176.351-31.8164 178.021-31.4209 179.486-30.6299 180.951-29.8389 182.142-28.8086 183.06-27.5391L183.06-42.9492 188.304-42.9492 188.304 0ZM166.742-15.5273C166.742-11.543 167.581-8.56445 169.261-6.5918 170.941-4.61914 172.923-3.63281 175.208-3.63281 177.513-3.63281 179.471-4.5752 181.082-6.45996 182.694-8.34473 183.499-11.2207 183.499-15.0879 183.499-19.3457 182.679-22.4707 181.038-24.4629 179.398-26.4551 177.376-27.4512 174.974-27.4512 172.63-27.4512 170.672-26.4941 169.1-24.5801 167.528-22.666 166.742-19.6484 166.742-15.5273Z" fill="#FFFFFF" transform="matrix(1 0 0 1 51.502 92)"/></g></g></g><rect x="2732" y="799" width="485" height="145" stroke="#FFFFFF" stroke-width="13.75" stroke-linejoin="round" stroke-miterlimit="10" fill="#44516F"/><text fill="#FFFFFF" font-family="Arial,Arial_MSFontService,sans-serif" font-weight="400" font-size="60" transform="matrix(1 0 0 1 2764.5 894)">Record</text><g filter="url(#fx20)" transform="translate(2950 842)"><g><path d="M0 0 186.685 0.000360892" fill="#44516F" fill-rule="evenodd" transform="matrix(1 0 0 -1 36.9998 36.2183)"/><path d="M1.35321e-05-7 186.685-6.99964 186.685 7.00036-1.35321e-05 7ZM-4.05964e-05 21C-11.598 21-21 11.5979-21-4.05964e-05-21-11.598-11.5979-21 4.05964e-05-21 11.598-21 21-11.5979 21 4.05964e-05 21 11.598 11.5979 21-4.05964e-05 21Z" fill="#FFFFFF" transform="matrix(1 0 0 -1 36.9998 36.2183)"/></g></g><path d="M0 0 186.685 0.000360892" fill="#44516F" fill-rule="evenodd" transform="matrix(1 0 0 -1 2987 871)"/><path d="M1.32905e-05-6.875 186.685-6.87464 186.685 6.87536-1.32905e-05 6.875ZM-3.98715e-05 20.625C-11.3909 20.625-20.625 11.3908-20.625-3.98715e-05-20.625-11.3909-11.3908-20.625 3.98715e-05-20.625 11.3909-20.625 20.625-11.3908 20.625 3.98715e-05 20.625 11.3909 11.3908 20.625-3.98715e-05 20.625Z" fill="#FFFFFF" transform="matrix(1 0 0 -1 2987 871)"/><g clip-path="url(#clip57)"><g filter="url(#fx21)" transform="translate(2082 927)"><g><rect x="23.0002" y="23.2178" width="198" height="145" stroke="#FFFFFF" stroke-width="14" stroke-linejoin="round" stroke-miterlimit="10" fill="#44516F"/></g></g></g><rect x="2105" y="943" width="198" height="145" stroke="#FFFFFF" stroke-width="13.75" stroke-linejoin="round" stroke-miterlimit="10" fill="#44516F"/><g clip-path="url(#clip58)" filter="url(#fx22)" transform="translate(2129 965)"><g><path d="M16 57.218 142.474 57.2183" fill="#44516F" fill-rule="evenodd"/><path d="M16 50.218 107.474 50.2182 107.474 64.2182 16 64.218ZM100.474 36.2182 142.474 57.2183 100.474 78.2182Z" fill="#FFFFFF"/></g></g><path d="M2145 1015 2271.47 1015" fill="#44516F" fill-rule="evenodd"/><path d="M2145 1008.13 2237.1 1008.13 2237.1 1021.88 2145 1021.88ZM2230.22 994.375 2271.47 1015 2230.22 1035.63Z" fill="#FFFFFF"/><g clip-path="url(#clip59)"><g filter="url(#fx23)" transform="translate(2274 927)"><g><rect x="23" y="23.2178" width="625" height="145" stroke="#FFFFFF" stroke-width="14" stroke-linejoin="round" stroke-miterlimit="10" fill="#44516F"/></g></g><g clip-path="url(#clip60)" filter="url(#fx24)" transform="translate(2278 953)"><g><path d="M4.7168 0 4.7168-42.9492 23.7598-42.9492C27.5879-42.9492 30.498-42.5635 32.4902-41.792 34.4824-41.0205 36.0742-39.6582 37.2656-37.7051 38.457-35.7519 39.0527-33.5937 39.0527-31.2305 39.0527-28.1836 38.0664-25.6152 36.0937-23.5254 34.1211-21.4355 31.0742-20.1074 26.9531-19.541 28.457-18.8184 29.5996-18.1055 30.3809-17.4023 32.041-15.8789 33.6133-13.9746 35.0977-11.6895L42.5684 0 35.4199 0 29.7363-8.93555C28.0762-11.5137 26.709-13.4863 25.6348-14.8535 24.5605-16.2207 23.5986-17.1777 22.749-17.7246 21.8994-18.2715 21.0352-18.6523 20.1562-18.8672 19.5117-19.0039 18.457-19.0723 16.9922-19.0723L10.4004-19.0723 10.4004 0ZM10.4004-23.9941 22.6172-23.9941C25.2148-23.9941 27.2461-24.2627 28.7109-24.7998 30.1758-25.3369 31.2891-26.1963 32.0508-27.3779 32.8125-28.5596 33.1934-29.8437 33.1934-31.2305 33.1934-33.2617 32.4561-34.9316 30.9814-36.2402 29.5068-37.5488 27.1777-38.2031 23.9941-38.2031L10.4004-38.2031ZM68.2226-10.0195 73.6719-9.3457C72.8125-6.16211 71.2207-3.69141 68.8965-1.93359 66.5723-0.175781 63.6035 0.703125 59.9902 0.703125 55.4394 0.703125 51.831-0.698242 49.165-3.50098 46.499-6.30371 45.166-10.2344 45.166-15.293 45.166-20.5273 46.5137-24.5898 49.209-27.4805 51.9043-30.3711 55.4004-31.8164 59.6973-31.8164 63.8574-31.8164 67.2558-30.4004 69.8926-27.5684 72.5293-24.7363 73.8476-20.752 73.8476-15.6152 73.8476-15.3027 73.8379-14.834 73.8184-14.209L50.6152-14.209C50.8105-10.791 51.7773-8.17383 53.5156-6.35742 55.2539-4.54102 57.4219-3.63281 60.0195-3.63281 61.9531-3.63281 63.6035-4.14062 64.9707-5.15625 66.3379-6.17187 67.4219-7.79297 68.2226-10.0195ZM50.9082-18.5449 68.2812-18.5449C68.0469-21.1621 67.3828-23.125 66.2891-24.4336 64.6094-26.4648 62.4316-27.4805 59.7559-27.4805 57.334-27.4805 55.2978-26.6699 53.6475-25.0488 51.9971-23.4277 51.084-21.2598 50.9082-18.5449ZM100.456-11.3965 105.641-10.7227C105.075-7.14844 103.625-4.35059 101.291-2.3291 98.9567-0.307617 96.0905 0.703125 92.692 0.703125 88.4342 0.703125 85.0114-0.688477 82.4235-3.47168 79.8356-6.25488 78.5417-10.2441 78.5417-15.4395 78.5417-18.7988 79.0983-21.7383 80.2116-24.2578 81.3249-26.7773 83.0192-28.667 85.2946-29.9268 87.57-31.1865 90.0456-31.8164 92.7213-31.8164 96.1003-31.8164 98.8639-30.9619 101.012-29.2529 103.161-27.5439 104.538-25.1172 105.143-21.9727L100.016-21.1816C99.528-23.2715 98.6637-24.8437 97.4235-25.8984 96.1833-26.9531 94.6842-27.4805 92.9264-27.4805 90.2702-27.4805 88.112-26.5283 86.4518-24.624 84.7917-22.7197 83.9616-19.707 83.9616-15.5859 83.9616-11.4062 84.7624-8.36914 86.3639-6.47461 87.9655-4.58008 90.0553-3.63281 92.6335-3.63281 94.7038-3.63281 96.4323-4.26758 97.819-5.53711 99.2057-6.80664 100.085-8.75976 100.456-11.3965ZM107.982-15.5566C107.982-21.3184 109.583-25.5859 112.786-28.3594 115.462-30.6641 118.724-31.8164 122.572-31.8164 126.849-31.8164 130.345-30.415 133.06-27.6123 135.775-24.8096 137.132-20.9375 137.132-15.9961 137.132-11.9922 136.532-8.84277 135.33-6.54785 134.129-4.25293 132.381-2.4707 130.086-1.20117 127.791 0.0683593 125.286 0.703125 122.572 0.703125 118.216 0.703125 114.696-0.693359 112.01-3.48633 109.325-6.2793 107.982-10.3027 107.982-15.5566ZM113.402-15.5566C113.402-11.5723 114.271-8.58887 116.009-6.60644 117.747-4.62402 119.935-3.63281 122.572-3.63281 125.189-3.63281 127.367-4.62891 129.105-6.62109 130.843-8.61328 131.712-11.6504 131.712-15.7324 131.712-19.5801 130.838-22.4951 129.09-24.4775 127.342-26.46 125.169-27.4512 122.572-27.4512 119.935-27.4512 117.747-26.4648 116.009-24.4922 114.271-22.5195 113.402-19.541 113.402-15.5566ZM143.115 0 143.115-31.1133 147.861-31.1133 147.861-26.3965C149.072-28.6035 150.19-30.0586 151.216-30.7617 152.241-31.4648 153.369-31.8164 154.6-31.8164 156.377-31.8164 158.184-31.25 160.02-30.1172L158.203-25.2246C156.914-25.9863 155.625-26.3672 154.336-26.3672 153.184-26.3672 152.148-26.0205 151.23-25.3271 150.312-24.6338 149.658-23.6719 149.268-22.4414 148.682-20.5664 148.389-18.5156 148.389-16.2891L148.389 0ZM183.411 0 183.411-3.92578C181.439-0.839844 178.538 0.703125 174.71 0.703125 172.23 0.703125 169.95 0.0195312 167.869-1.34766 165.789-2.71484 164.178-4.62402 163.035-7.07519 161.893-9.52637 161.322-12.3437 161.322-15.5273 161.322-18.6328 161.839-21.4502 162.874-23.9795 163.909-26.5088 165.462-28.4473 167.533-29.7949 169.603-31.1426 171.917-31.8164 174.476-31.8164 176.351-31.8164 178.021-31.4209 179.486-30.6299 180.951-29.8389 182.142-28.8086 183.06-27.5391L183.06-42.9492 188.304-42.9492 188.304 0ZM166.742-15.5273C166.742-11.543 167.581-8.56445 169.261-6.5918 170.941-4.61914 172.923-3.63281 175.208-3.63281 177.513-3.63281 179.471-4.5752 181.082-6.45996 182.694-8.34473 183.499-11.2207 183.499-15.0879 183.499-19.3457 182.679-22.4707 181.038-24.4629 179.398-26.4551 177.376-27.4512 174.974-27.4512 172.63-27.4512 170.672-26.4941 169.1-24.5801 167.528-22.666 166.742-19.6484 166.742-15.5273Z" fill="#FFFFFF" transform="matrix(1 0 0 1 51.574 92)"/></g></g></g><rect x="2297" y="943" width="625" height="145" stroke="#FFFFFF" stroke-width="13.75" stroke-linejoin="round" stroke-miterlimit="10" fill="#44516F"/><text fill="#FFFFFF" font-family="Arial,Arial_MSFontService,sans-serif" font-weight="400" font-size="60" transform="matrix(1 0 0 1 2329.57 1037)">Record</text><g clip-path="url(#clip61)" filter="url(#fx25)" transform="translate(2528 965)"><g><path d="M37 57.218 368.549 57.2183" fill="#44516F" fill-rule="evenodd"/><path d="M37 50.218 333.549 50.2183 333.549 64.2183 37 64.218ZM37 78.218C25.402 78.2179 16 68.8159 16 57.2179 16 45.62 25.402 36.2179 37 36.218 48.598 36.218 58 45.62 58 57.218 58 68.816 48.598 78.218 37 78.218ZM326.549 36.2183 368.549 57.2183 326.549 78.2183Z" fill="#FFFFFF"/></g></g><path d="M2565 1015 2896.55 1015" fill="#44516F" fill-rule="evenodd"/><path d="M2565 1008.13 2862.17 1008.13 2862.17 1021.88 2565 1021.88ZM2565 1035.63C2553.61 1035.63 2544.38 1026.39 2544.38 1015 2544.38 1003.61 2553.61 994.375 2565 994.375 2576.39 994.375 2585.62 1003.61 2585.62 1015 2585.62 1026.39 2576.39 1035.63 2565 1035.63ZM2855.3 994.375 2896.55 1015 2855.3 1035.63Z" fill="#FFFFFF"/><g clip-path="url(#clip62)"><g filter="url(#fx26)" transform="translate(2900 927)"><g><rect x="23" y="23.2178" width="294" height="145" stroke="#FFFFFF" stroke-width="14" stroke-linejoin="round" stroke-miterlimit="10" fill="#44516F"/></g></g><g clip-path="url(#clip63)" filter="url(#fx27)" transform="translate(2904 953)"><g><path d="M4.7168 0 4.7168-42.9492 23.7598-42.9492C27.5879-42.9492 30.498-42.5635 32.4902-41.792 34.4824-41.0205 36.0742-39.6582 37.2656-37.7051 38.457-35.7519 39.0527-33.5937 39.0527-31.2305 39.0527-28.1836 38.0664-25.6152 36.0937-23.5254 34.1211-21.4355 31.0742-20.1074 26.9531-19.541 28.457-18.8184 29.5996-18.1055 30.3809-17.4023 32.041-15.8789 33.6133-13.9746 35.0977-11.6895L42.5684 0 35.4199 0 29.7363-8.93555C28.0762-11.5137 26.709-13.4863 25.6348-14.8535 24.5605-16.2207 23.5986-17.1777 22.749-17.7246 21.8994-18.2715 21.0352-18.6523 20.1562-18.8672 19.5117-19.0039 18.457-19.0723 16.9922-19.0723L10.4004-19.0723 10.4004 0ZM10.4004-23.9941 22.6172-23.9941C25.2148-23.9941 27.2461-24.2627 28.7109-24.7998 30.1758-25.3369 31.2891-26.1963 32.0508-27.3779 32.8125-28.5596 33.1934-29.8437 33.1934-31.2305 33.1934-33.2617 32.4561-34.9316 30.9814-36.2402 29.5068-37.5488 27.1777-38.2031 23.9941-38.2031L10.4004-38.2031ZM68.2226-10.0195 73.6719-9.3457C72.8125-6.16211 71.2207-3.69141 68.8965-1.93359 66.5723-0.175781 63.6035 0.703125 59.9902 0.703125 55.4394 0.703125 51.831-0.698242 49.165-3.50098 46.499-6.30371 45.166-10.2344 45.166-15.293 45.166-20.5273 46.5137-24.5898 49.209-27.4805 51.9043-30.3711 55.4004-31.8164 59.6973-31.8164 63.8574-31.8164 67.2558-30.4004 69.8926-27.5684 72.5293-24.7363 73.8476-20.752 73.8476-15.6152 73.8476-15.3027 73.8379-14.834 73.8184-14.209L50.6152-14.209C50.8105-10.791 51.7773-8.17383 53.5156-6.35742 55.2539-4.54102 57.4219-3.63281 60.0195-3.63281 61.9531-3.63281 63.6035-4.14062 64.9707-5.15625 66.3379-6.17187 67.4219-7.79297 68.2226-10.0195ZM50.9082-18.5449 68.2812-18.5449C68.0469-21.1621 67.3828-23.125 66.2891-24.4336 64.6094-26.4648 62.4316-27.4805 59.7559-27.4805 57.334-27.4805 55.2978-26.6699 53.6475-25.0488 51.9971-23.4277 51.084-21.2598 50.9082-18.5449ZM100.456-11.3965 105.641-10.7227C105.075-7.14844 103.625-4.35059 101.291-2.3291 98.9567-0.307617 96.0905 0.703125 92.692 0.703125 88.4342 0.703125 85.0114-0.688477 82.4235-3.47168 79.8356-6.25488 78.5417-10.2441 78.5417-15.4395 78.5417-18.7988 79.0983-21.7383 80.2116-24.2578 81.3249-26.7773 83.0192-28.667 85.2946-29.9268 87.57-31.1865 90.0456-31.8164 92.7213-31.8164 96.1003-31.8164 98.8639-30.9619 101.012-29.2529 103.161-27.5439 104.538-25.1172 105.143-21.9727L100.016-21.1816C99.528-23.2715 98.6637-24.8437 97.4235-25.8984 96.1833-26.9531 94.6842-27.4805 92.9264-27.4805 90.2702-27.4805 88.112-26.5283 86.4518-24.624 84.7917-22.7197 83.9616-19.707 83.9616-15.5859 83.9616-11.4062 84.7624-8.36914 86.3639-6.47461 87.9655-4.58008 90.0553-3.63281 92.6335-3.63281 94.7038-3.63281 96.4323-4.26758 97.819-5.53711 99.2057-6.80664 100.085-8.75976 100.456-11.3965ZM107.982-15.5566C107.982-21.3184 109.583-25.5859 112.786-28.3594 115.462-30.6641 118.724-31.8164 122.572-31.8164 126.849-31.8164 130.345-30.415 133.06-27.6123 135.775-24.8096 137.132-20.9375 137.132-15.9961 137.132-11.9922 136.532-8.84277 135.33-6.54785 134.129-4.25293 132.381-2.4707 130.086-1.20117 127.791 0.0683593 125.286 0.703125 122.572 0.703125 118.216 0.703125 114.696-0.693359 112.01-3.48633 109.325-6.2793 107.982-10.3027 107.982-15.5566ZM113.402-15.5566C113.402-11.5723 114.271-8.58887 116.009-6.60644 117.747-4.62402 119.935-3.63281 122.572-3.63281 125.189-3.63281 127.367-4.62891 129.105-6.62109 130.843-8.61328 131.712-11.6504 131.712-15.7324 131.712-19.5801 130.838-22.4951 129.09-24.4775 127.342-26.46 125.169-27.4512 122.572-27.4512 119.935-27.4512 117.747-26.4648 116.009-24.4922 114.271-22.5195 113.402-19.541 113.402-15.5566ZM143.115 0 143.115-31.1133 147.861-31.1133 147.861-26.3965C149.072-28.6035 150.19-30.0586 151.216-30.7617 152.241-31.4648 153.369-31.8164 154.6-31.8164 156.377-31.8164 158.184-31.25 160.02-30.1172L158.203-25.2246C156.914-25.9863 155.625-26.3672 154.336-26.3672 153.184-26.3672 152.148-26.0205 151.23-25.3271 150.312-24.6338 149.658-23.6719 149.268-22.4414 148.682-20.5664 148.389-18.5156 148.389-16.2891L148.389 0ZM183.411 0 183.411-3.92578C181.439-0.839844 178.538 0.703125 174.71 0.703125 172.23 0.703125 169.95 0.0195312 167.869-1.34766 165.789-2.71484 164.178-4.62402 163.035-7.07519 161.893-9.52637 161.322-12.3437 161.322-15.5273 161.322-18.6328 161.839-21.4502 162.874-23.9795 163.909-26.5088 165.462-28.4473 167.533-29.7949 169.603-31.1426 171.917-31.8164 174.476-31.8164 176.351-31.8164 178.021-31.4209 179.486-30.6299 180.951-29.8389 182.142-28.8086 183.06-27.5391L183.06-42.9492 188.304-42.9492 188.304 0ZM166.742-15.5273C166.742-11.543 167.581-8.56445 169.261-6.5918 170.941-4.61914 172.923-3.63281 175.208-3.63281 177.513-3.63281 179.471-4.5752 181.082-6.45996 182.694-8.34473 183.499-11.2207 183.499-15.0879 183.499-19.3457 182.679-22.4707 181.038-24.4629 179.398-26.4551 177.376-27.4512 174.974-27.4512 172.63-27.4512 170.672-26.4941 169.1-24.5801 167.528-22.666 166.742-19.6484 166.742-15.5273Z" fill="#FFFFFF" transform="matrix(1 0 0 1 52.2744 92)"/></g></g></g><rect x="2923" y="943" width="294" height="145" stroke="#FFFFFF" stroke-width="13.75" stroke-linejoin="round" stroke-miterlimit="10" fill="#44516F"/><text fill="#FFFFFF" font-family="Arial,Arial_MSFontService,sans-serif" font-weight="400" font-size="60" transform="matrix(1 0 0 1 2956.27 1037)">Record</text><g filter="url(#fx28)" transform="translate(3137 986)"><g><path d="M36.9998 36.218 68.7803 36.2183" fill="#44516F" fill-rule="evenodd"/><path d="M36.9998 29.218 68.7804 29.2183 68.7802 43.2183 36.9997 43.218ZM36.9995 57.218C25.4015 57.2178 15.9996 47.8157 15.9998 36.2177 15.9999 24.6197 25.402 15.2178 37 15.218 48.598 15.2181 57.9999 24.6202 57.9998 36.2182 57.9996 47.8162 48.5975 57.2181 36.9995 57.218Z" fill="#FFFFFF"/></g></g><path d="M3174 1015 3205.78 1015" fill="#44516F" fill-rule="evenodd"/><path d="M3174 1008.13 3205.78 1008.13 3205.78 1021.88 3174 1021.88ZM3174 1035.63C3162.61 1035.62 3153.37 1026.39 3153.37 1015 3153.38 1003.61 3162.61 994.375 3174 994.375 3185.39 994.375 3194.62 1003.61 3194.62 1015 3194.62 1026.39 3185.39 1035.63 3174 1035.63Z" fill="#FFFFFF"/><g clip-path="url(#clip64)"><g filter="url(#fx29)" transform="translate(2080 1069)"><g><rect x="23" y="23.2178" width="316" height="146" stroke="#FFFFFF" stroke-width="14" stroke-linejoin="round" stroke-miterlimit="10" fill="#44516F"/></g></g></g><rect x="2103" y="1085" width="316" height="146" stroke="#FFFFFF" stroke-width="13.75" stroke-linejoin="round" stroke-miterlimit="10" fill="#44516F"/><g clip-path="url(#clip65)" filter="url(#fx30)" transform="translate(2129 1110)"><g><path d="M16 57.218 245.853 57.2184" fill="#44516F" fill-rule="evenodd"/><path d="M16 50.218 210.853 50.2183 210.853 64.2183 16 64.218ZM203.853 36.2183 245.853 57.2184 203.853 78.2183Z" fill="#FFFFFF"/></g></g><path d="M2145 1160 2374.85 1160" fill="#44516F" fill-rule="evenodd"/><path d="M2145 1153.13 2340.48 1153.13 2340.48 1166.88 2145 1166.88ZM2333.6 1139.38 2374.85 1160 2333.6 1180.63Z" fill="#FFFFFF"/><g clip-path="url(#clip66)"><g filter="url(#fx31)" transform="translate(2393 1069)"><g><rect x="22.9998" y="23.2178" width="625" height="145" stroke="#FFFFFF" stroke-width="14" stroke-linejoin="round" stroke-miterlimit="10" fill="#44516F"/></g></g><g clip-path="url(#clip67)" filter="url(#fx32)" transform="translate(2397 1095)"><g><path d="M4.7168 0 4.7168-42.9492 23.7598-42.9492C27.5879-42.9492 30.498-42.5635 32.4902-41.792 34.4824-41.0205 36.0742-39.6582 37.2656-37.7051 38.457-35.7519 39.0527-33.5937 39.0527-31.2305 39.0527-28.1836 38.0664-25.6152 36.0937-23.5254 34.1211-21.4355 31.0742-20.1074 26.9531-19.541 28.457-18.8184 29.5996-18.1055 30.3809-17.4023 32.041-15.8789 33.6133-13.9746 35.0977-11.6895L42.5684 0 35.4199 0 29.7363-8.93555C28.0762-11.5137 26.709-13.4863 25.6348-14.8535 24.5605-16.2207 23.5986-17.1777 22.749-17.7246 21.8994-18.2715 21.0352-18.6523 20.1562-18.8672 19.5117-19.0039 18.457-19.0723 16.9922-19.0723L10.4004-19.0723 10.4004 0ZM10.4004-23.9941 22.6172-23.9941C25.2148-23.9941 27.2461-24.2627 28.7109-24.7998 30.1758-25.3369 31.2891-26.1963 32.0508-27.3779 32.8125-28.5596 33.1934-29.8437 33.1934-31.2305 33.1934-33.2617 32.4561-34.9316 30.9814-36.2402 29.5068-37.5488 27.1777-38.2031 23.9941-38.2031L10.4004-38.2031ZM68.2226-10.0195 73.6719-9.3457C72.8125-6.16211 71.2207-3.69141 68.8965-1.93359 66.5723-0.175781 63.6035 0.703125 59.9902 0.703125 55.4394 0.703125 51.831-0.698242 49.165-3.50098 46.499-6.30371 45.166-10.2344 45.166-15.293 45.166-20.5273 46.5137-24.5898 49.209-27.4805 51.9043-30.3711 55.4004-31.8164 59.6973-31.8164 63.8574-31.8164 67.2558-30.4004 69.8926-27.5684 72.5293-24.7363 73.8476-20.752 73.8476-15.6152 73.8476-15.3027 73.8379-14.834 73.8184-14.209L50.6152-14.209C50.8105-10.791 51.7773-8.17383 53.5156-6.35742 55.2539-4.54102 57.4219-3.63281 60.0195-3.63281 61.9531-3.63281 63.6035-4.14062 64.9707-5.15625 66.3379-6.17187 67.4219-7.79297 68.2226-10.0195ZM50.9082-18.5449 68.2812-18.5449C68.0469-21.1621 67.3828-23.125 66.2891-24.4336 64.6094-26.4648 62.4316-27.4805 59.7559-27.4805 57.334-27.4805 55.2978-26.6699 53.6475-25.0488 51.9971-23.4277 51.084-21.2598 50.9082-18.5449ZM100.456-11.3965 105.641-10.7227C105.075-7.14844 103.625-4.35059 101.291-2.3291 98.9567-0.307617 96.0905 0.703125 92.692 0.703125 88.4342 0.703125 85.0114-0.688477 82.4235-3.47168 79.8356-6.25488 78.5417-10.2441 78.5417-15.4395 78.5417-18.7988 79.0983-21.7383 80.2116-24.2578 81.3249-26.7773 83.0192-28.667 85.2946-29.9268 87.57-31.1865 90.0456-31.8164 92.7213-31.8164 96.1003-31.8164 98.8639-30.9619 101.012-29.2529 103.161-27.5439 104.538-25.1172 105.143-21.9727L100.016-21.1816C99.528-23.2715 98.6637-24.8437 97.4235-25.8984 96.1833-26.9531 94.6842-27.4805 92.9264-27.4805 90.2702-27.4805 88.112-26.5283 86.4518-24.624 84.7917-22.7197 83.9616-19.707 83.9616-15.5859 83.9616-11.4062 84.7624-8.36914 86.3639-6.47461 87.9655-4.58008 90.0553-3.63281 92.6335-3.63281 94.7038-3.63281 96.4323-4.26758 97.819-5.53711 99.2057-6.80664 100.085-8.75976 100.456-11.3965ZM107.982-15.5566C107.982-21.3184 109.583-25.5859 112.786-28.3594 115.462-30.6641 118.724-31.8164 122.572-31.8164 126.849-31.8164 130.345-30.415 133.06-27.6123 135.775-24.8096 137.132-20.9375 137.132-15.9961 137.132-11.9922 136.532-8.84277 135.33-6.54785 134.129-4.25293 132.381-2.4707 130.086-1.20117 127.791 0.0683593 125.286 0.703125 122.572 0.703125 118.216 0.703125 114.696-0.693359 112.01-3.48633 109.325-6.2793 107.982-10.3027 107.982-15.5566ZM113.402-15.5566C113.402-11.5723 114.271-8.58887 116.009-6.60644 117.747-4.62402 119.935-3.63281 122.572-3.63281 125.189-3.63281 127.367-4.62891 129.105-6.62109 130.843-8.61328 131.712-11.6504 131.712-15.7324 131.712-19.5801 130.838-22.4951 129.09-24.4775 127.342-26.46 125.169-27.4512 122.572-27.4512 119.935-27.4512 117.747-26.4648 116.009-24.4922 114.271-22.5195 113.402-19.541 113.402-15.5566ZM143.115 0 143.115-31.1133 147.861-31.1133 147.861-26.3965C149.072-28.6035 150.19-30.0586 151.216-30.7617 152.241-31.4648 153.369-31.8164 154.6-31.8164 156.377-31.8164 158.184-31.25 160.02-30.1172L158.203-25.2246C156.914-25.9863 155.625-26.3672 154.336-26.3672 153.184-26.3672 152.148-26.0205 151.23-25.3271 150.312-24.6338 149.658-23.6719 149.268-22.4414 148.682-20.5664 148.389-18.5156 148.389-16.2891L148.389 0ZM183.411 0 183.411-3.92578C181.439-0.839844 178.538 0.703125 174.71 0.703125 172.23 0.703125 169.95 0.0195312 167.869-1.34766 165.789-2.71484 164.178-4.62402 163.035-7.07519 161.893-9.52637 161.322-12.3437 161.322-15.5273 161.322-18.6328 161.839-21.4502 162.874-23.9795 163.909-26.5088 165.462-28.4473 167.533-29.7949 169.603-31.1426 171.917-31.8164 174.476-31.8164 176.351-31.8164 178.021-31.4209 179.486-30.6299 180.951-29.8389 182.142-28.8086 183.06-27.5391L183.06-42.9492 188.304-42.9492 188.304 0ZM166.742-15.5273C166.742-11.543 167.581-8.56445 169.261-6.5918 170.941-4.61914 172.923-3.63281 175.208-3.63281 177.513-3.63281 179.471-4.5752 181.082-6.45996 182.694-8.34473 183.499-11.2207 183.499-15.0879 183.499-19.3457 182.679-22.4707 181.038-24.4629 179.398-26.4551 177.376-27.4512 174.974-27.4512 172.63-27.4512 170.672-26.4941 169.1-24.5801 167.528-22.666 166.742-19.6484 166.742-15.5273Z" fill="#FFFFFF" transform="matrix(1 0 0 1 51.6506 92)"/></g></g></g><rect x="2416" y="1085" width="625" height="145" stroke="#FFFFFF" stroke-width="13.75" stroke-linejoin="round" stroke-miterlimit="10" fill="#44516F"/><text fill="#FFFFFF" font-family="Arial,Arial_MSFontService,sans-serif" font-weight="400" font-size="60" transform="matrix(1 0 0 1 2448.65 1180)">Record</text><g clip-path="url(#clip68)" filter="url(#fx33)" transform="translate(2647 1107)"><g><path d="M37 57.2179 368.549 57.2183" fill="#44516F" fill-rule="evenodd"/><path d="M37 50.2179 333.549 50.2182 333.549 64.2182 37 64.2179ZM37 78.2179C25.402 78.2179 16 68.8159 16 57.2179 16 45.6199 25.402 36.2179 37 36.2179 48.598 36.2179 58 45.6199 58 57.2179 58 68.8159 48.598 78.2179 37 78.2179ZM326.549 36.2182 368.549 57.2183 326.549 78.2182Z" fill="#FFFFFF"/></g></g><path d="M2684 1157 3015.55 1157" fill="#44516F" fill-rule="evenodd"/><path d="M2684 1150.13 2981.17 1150.13 2981.17 1163.88 2684 1163.88ZM2684 1177.63C2672.61 1177.63 2663.38 1168.39 2663.38 1157 2663.38 1145.61 2672.61 1136.38 2684 1136.38 2695.39 1136.38 2704.62 1145.61 2704.62 1157 2704.62 1168.39 2695.39 1177.63 2684 1177.63ZM2974.3 1136.38 3015.55 1157 2974.3 1177.63Z" fill="#FFFFFF"/><g clip-path="url(#clip69)"><g filter="url(#fx34)" transform="translate(2076 636)"><g><rect x="23" y="23.218" width="489" height="145" stroke="#FFFFFF" stroke-width="14" stroke-linejoin="round" stroke-miterlimit="10" fill="#44516F"/></g></g><g clip-path="url(#clip70)" filter="url(#fx35)" transform="translate(2080 662)"><g><path d="M4.7168 0 4.7168-42.9492 23.7598-42.9492C27.5879-42.9492 30.498-42.5635 32.4902-41.792 34.4824-41.0205 36.0742-39.6582 37.2656-37.7051 38.457-35.7519 39.0527-33.5937 39.0527-31.2305 39.0527-28.1836 38.0664-25.6152 36.0937-23.5254 34.1211-21.4355 31.0742-20.1074 26.9531-19.541 28.457-18.8184 29.5996-18.1055 30.3809-17.4023 32.041-15.8789 33.6133-13.9746 35.0977-11.6895L42.5684 0 35.4199 0 29.7363-8.93555C28.0762-11.5137 26.709-13.4863 25.6348-14.8535 24.5605-16.2207 23.5986-17.1777 22.749-17.7246 21.8994-18.2715 21.0352-18.6523 20.1562-18.8672 19.5117-19.0039 18.457-19.0723 16.9922-19.0723L10.4004-19.0723 10.4004 0ZM10.4004-23.9941 22.6172-23.9941C25.2148-23.9941 27.2461-24.2627 28.7109-24.7998 30.1758-25.3369 31.2891-26.1963 32.0508-27.3779 32.8125-28.5596 33.1934-29.8437 33.1934-31.2305 33.1934-33.2617 32.4561-34.9316 30.9814-36.2402 29.5068-37.5488 27.1777-38.2031 23.9941-38.2031L10.4004-38.2031ZM68.2226-10.0195 73.6719-9.3457C72.8125-6.16211 71.2207-3.69141 68.8965-1.93359 66.5723-0.175781 63.6035 0.703125 59.9902 0.703125 55.4394 0.703125 51.831-0.698242 49.165-3.50098 46.499-6.30371 45.166-10.2344 45.166-15.293 45.166-20.5273 46.5137-24.5898 49.209-27.4805 51.9043-30.3711 55.4004-31.8164 59.6973-31.8164 63.8574-31.8164 67.2558-30.4004 69.8926-27.5684 72.5293-24.7363 73.8476-20.752 73.8476-15.6152 73.8476-15.3027 73.8379-14.834 73.8184-14.209L50.6152-14.209C50.8105-10.791 51.7773-8.17383 53.5156-6.35742 55.2539-4.54102 57.4219-3.63281 60.0195-3.63281 61.9531-3.63281 63.6035-4.14062 64.9707-5.15625 66.3379-6.17187 67.4219-7.79297 68.2226-10.0195ZM50.9082-18.5449 68.2812-18.5449C68.0469-21.1621 67.3828-23.125 66.2891-24.4336 64.6094-26.4648 62.4316-27.4805 59.7559-27.4805 57.334-27.4805 55.2978-26.6699 53.6475-25.0488 51.9971-23.4277 51.084-21.2598 50.9082-18.5449ZM100.456-11.3965 105.641-10.7227C105.075-7.14844 103.625-4.35059 101.291-2.3291 98.9567-0.307617 96.0905 0.703125 92.692 0.703125 88.4342 0.703125 85.0114-0.688477 82.4235-3.47168 79.8356-6.25488 78.5417-10.2441 78.5417-15.4395 78.5417-18.7988 79.0983-21.7383 80.2116-24.2578 81.3249-26.7773 83.0192-28.667 85.2946-29.9268 87.57-31.1865 90.0456-31.8164 92.7213-31.8164 96.1003-31.8164 98.8639-30.9619 101.012-29.2529 103.161-27.5439 104.538-25.1172 105.143-21.9727L100.016-21.1816C99.528-23.2715 98.6637-24.8437 97.4235-25.8984 96.1833-26.9531 94.6842-27.4805 92.9264-27.4805 90.2702-27.4805 88.112-26.5283 86.4518-24.624 84.7917-22.7197 83.9616-19.707 83.9616-15.5859 83.9616-11.4062 84.7624-8.36914 86.3639-6.47461 87.9655-4.58008 90.0553-3.63281 92.6335-3.63281 94.7038-3.63281 96.4323-4.26758 97.819-5.53711 99.2057-6.80664 100.085-8.75976 100.456-11.3965ZM107.982-15.5566C107.982-21.3184 109.583-25.5859 112.786-28.3594 115.462-30.6641 118.724-31.8164 122.572-31.8164 126.849-31.8164 130.345-30.415 133.06-27.6123 135.775-24.8096 137.132-20.9375 137.132-15.9961 137.132-11.9922 136.532-8.84277 135.33-6.54785 134.129-4.25293 132.381-2.4707 130.086-1.20117 127.791 0.0683593 125.286 0.703125 122.572 0.703125 118.216 0.703125 114.696-0.693359 112.01-3.48633 109.325-6.2793 107.982-10.3027 107.982-15.5566ZM113.402-15.5566C113.402-11.5723 114.271-8.58887 116.009-6.60644 117.747-4.62402 119.935-3.63281 122.572-3.63281 125.189-3.63281 127.367-4.62891 129.105-6.62109 130.843-8.61328 131.712-11.6504 131.712-15.7324 131.712-19.5801 130.838-22.4951 129.09-24.4775 127.342-26.46 125.169-27.4512 122.572-27.4512 119.935-27.4512 117.747-26.4648 116.009-24.4922 114.271-22.5195 113.402-19.541 113.402-15.5566ZM143.115 0 143.115-31.1133 147.861-31.1133 147.861-26.3965C149.072-28.6035 150.19-30.0586 151.216-30.7617 152.241-31.4648 153.369-31.8164 154.6-31.8164 156.377-31.8164 158.184-31.25 160.02-30.1172L158.203-25.2246C156.914-25.9863 155.625-26.3672 154.336-26.3672 153.184-26.3672 152.148-26.0205 151.23-25.3271 150.312-24.6338 149.658-23.6719 149.268-22.4414 148.682-20.5664 148.389-18.5156 148.389-16.2891L148.389 0ZM183.411 0 183.411-3.92578C181.439-0.839844 178.538 0.703125 174.71 0.703125 172.23 0.703125 169.95 0.0195312 167.869-1.34766 165.789-2.71484 164.178-4.62402 163.035-7.07519 161.893-9.52637 161.322-12.3437 161.322-15.5273 161.322-18.6328 161.839-21.4502 162.874-23.9795 163.909-26.5088 165.462-28.4473 167.533-29.7949 169.603-31.1426 171.917-31.8164 174.476-31.8164 176.351-31.8164 178.021-31.4209 179.486-30.6299 180.951-29.8389 182.142-28.8086 183.06-27.5391L183.06-42.9492 188.304-42.9492 188.304 0ZM166.742-15.5273C166.742-11.543 167.581-8.56445 169.261-6.5918 170.941-4.61914 172.923-3.63281 175.208-3.63281 177.513-3.63281 179.471-4.5752 181.082-6.45996 182.694-8.34473 183.499-11.2207 183.499-15.0879 183.499-19.3457 182.679-22.4707 181.038-24.4629 179.398-26.4551 177.376-27.4512 174.974-27.4512 172.63-27.4512 170.672-26.4941 169.1-24.5801 167.528-22.666 166.742-19.6484 166.742-15.5273Z" fill="#FFFFFF" transform="matrix(1 0 0 1 52.1206 92)"/></g></g></g><rect x="2099" y="652" width="489" height="145" stroke="#FFFFFF" stroke-width="13.75" stroke-linejoin="round" stroke-miterlimit="10" fill="#44516F"/><text fill="#FFFFFF" font-family="Arial,Arial_MSFontService,sans-serif" font-weight="400" font-size="60" transform="matrix(1 0 0 1 2132.12 747)">Record</text><g clip-path="url(#clip71)" filter="url(#fx36)" transform="translate(2328 684)"><g><path d="M37 57.2178 204.922 57.2181" fill="#44516F" fill-rule="evenodd"/><path d="M37 50.2178 169.922 50.2181 169.922 64.2181 37 64.2178ZM37 78.2178C25.402 78.2177 16 68.8157 16 57.2177 16 45.6197 25.4021 36.2178 37 36.2178 48.598 36.2178 58 45.6198 58 57.2178 58 68.8158 48.5979 78.2178 37 78.2178ZM162.922 36.218 204.922 57.2181 162.922 78.218Z" fill="#FFFFFF"/></g></g><path d="M2365 734 2532.92 734" fill="#44516F" fill-rule="evenodd"/><path d="M2365 727.125 2498.55 727.125 2498.55 740.875 2365 740.875ZM2365 754.625C2353.61 754.625 2344.38 745.391 2344.38 734 2344.38 722.609 2353.61 713.375 2365 713.375 2376.39 713.375 2385.62 722.609 2385.62 734 2385.62 745.391 2376.39 754.625 2365 754.625ZM2491.67 713.375 2532.92 734 2491.67 754.625Z" fill="#FFFFFF"/><text fill="#541B27" font-family="Arial,Arial_MSFontService,sans-serif" font-weight="400" font-size="69" transform="matrix(1 0 0 1 2895.92 488)">Bitmap</text><path d="M1963.02 584.946 1964.81 585.15C1965.13 585.186 1965.45 585.257 1965.75 585.361L1967.54 585.963C1967.8 586.052 1968.06 586.164 1968.3 586.299L1970.08 587.287C1970.28 587.398 1970.47 587.523 1970.65 587.662L1972.42 589.023C1972.63 589.182 1972.82 589.358 1973 589.55L1976.49 593.34C1976.65 593.517 1976.8 593.707 1976.93 593.908L1980.34 599.036 1983.89 605.828 1987.2 613.651 1990.29 622.438 1993.16 632.105 1995.78 642.565 1998.13 653.724 2000.2 665.488 2001.95 677.758 2003.37 690.436 2004.41 703.421 2005.06 716.615 2005.28 729.916 2005.54 732.916 2005.42 732.211 2006.22 735.501 2006.02 734.876 2007.33 738.164 2008.9 740.921 2010.96 743.77 2013.51 746.698 2016.57 749.687 2020.12 752.72 2024.16 755.785 2028.68 758.869 2033.67 761.962 2039.13 765.058 2045.03 768.151 2051.38 771.235 2058.16 774.306 2065.35 777.361 2072.96 780.397 2080.97 783.411 2089.37 786.4 2098.16 789.362 2116.87 795.206 2136.96 800.906 2158.42 806.458 2181.15 811.849 2205.1 817.063 2230.19 822.087 2256.36 826.908 2283.55 831.512 2311.67 835.886 2340.66 840.017 2370.47 843.891 2401.01 847.497 2432.22 850.82 2464.04 853.849 2496.39 856.569 2529.21 858.968 2562.43 861.033 2595.99 862.752 2629.82 864.111 2663.84 865.097 2698 865.698 2709.31 865.765 2709.25 874.932 2697.84 874.864 2663.58 874.26 2629.45 873.27 2595.52 871.906 2561.86 870.182 2528.54 868.11 2495.62 865.703 2463.17 862.974 2431.25 859.935 2399.93 856.6 2369.28 852.981 2339.37 849.092 2310.26 844.943 2282.01 840.55 2254.7 835.923 2228.39 831.075 2203.15 826.019 2179.03 820.768 2156.12 815.332 2134.46 809.724 2114.13 803.955 2095.23 798.048 2086.3 795.036 2077.74 791.99 2069.56 788.91 2061.77 785.798 2054.37 782.654 2047.37 779.478 2040.78 776.27 2034.6 773.028 2028.84 769.751 2023.51 766.437 2018.61 763.08 2014.14 759.675 2010.13 756.214 2006.57 752.686 2003.49 749.076 2000.89 745.372 1998.82 741.564 1997.5 738.276C1997.42 738.073 1997.36 737.864 1997.31 737.651L1996.51 734.36C1996.46 734.128 1996.42 733.893 1996.4 733.655L1996.12 730.069 1995.9 717.063 1995.27 704.154 1994.26 691.449 1992.88 679.053 1991.17 667.073 1989.16 655.615 1986.89 644.789 1984.37 634.703 1981.64 625.471 1978.76 617.21 1975.75 610.045 1972.71 604.111 1969.3 598.983 1969.75 599.552 1966.25 595.762 1966.83 596.288 1965.06 594.927 1965.63 595.301 1963.85 594.313 1964.61 594.649 1962.83 594.047 1963.77 594.258 1961.98 594.054ZM2704.78 856.572 2732.2 870.485 2704.62 884.071Z" fill="#D6272A"/></g></svg>