<?xml version="1.0" encoding="UTF-8" standalone="no"?>
<!DOCTYPE svg PUBLIC "-//W3C//DTD SVG 1.1//EN" "http://www.w3.org/Graphics/SVG/1.1/DTD/svg11.dtd">
<!-- Generated by Microsoft Visio, SVG Export BusMux.svg Page-1 -->
<svg xmlns="http://www.w3.org/2000/svg" xmlns:xlink="http://www.w3.org/1999/xlink" xmlns:ev="http://www.w3.org/2001/xml-events"
		xmlns:v="http://schemas.microsoft.com/visio/2003/SVGExtensions/" width="6.89063in" height="4.65083in"
		viewBox="0 0 496.125 334.86" xml:space="preserve" color-interpolation-filters="sRGB" class="st10">
	<v:documentProperties v:langID="1033" v:viewMarkup="false"/>
<rect width="100%" height="100%" fill="white"/>
	<style type="text/css">
	<![CDATA[
		.st1 {fill:#cedbee;stroke:none;stroke-linecap:round;stroke-linejoin:round;stroke-width:0.72}
		.st2 {stroke:none;stroke-linecap:round;stroke-linejoin:round;stroke-width:0.75}
		.st3 {fill:#000000;font-family:Arial;font-size:0.833336em}
		.st4 {stroke:#000000;stroke-linecap:round;stroke-linejoin:round;stroke-width:1.2}
		.st5 {stroke:#000000;stroke-linecap:round;stroke-linejoin:round;stroke-width:0.744215}
		.st6 {stroke:#000000;stroke-linecap:round;stroke-linejoin:round;stroke-width:0.72}
		.st7 {fill:#000000;font-family:Arial;font-size:0.75em}
		.st8 {fill:#000000;stroke:#000000;stroke-linecap:round;stroke-linejoin:round;stroke-width:0.24}
		.st9 {fill:#cffad2;stroke:#000000;stroke-linecap:round;stroke-linejoin:round;stroke-width:0.24}
		.st10 {fill:none;fill-rule:evenodd;font-size:12px;overflow:visible;stroke-linecap:square;stroke-miterlimit:3}
	]]>
	</style>

	<g v:mID="0" v:index="1" v:groupContext="foregroundPage">
		<title>Page-1</title>
		<v:pageProperties v:drawingScale="1" v:pageScale="1" v:drawingUnits="19" v:shadowOffsetX="9" v:shadowOffsetY="-9"/>
		<g id="shape1-1" v:mID="1" v:groupContext="shape" transform="translate(63,-105.789)">
			<title>Sheet.1</title>
			<path d="M0 201.79 L0 334.86 L40.5 311.72 L40.5 224.93 L0 201.79 Z" class="st1"/>
		</g>
		<g id="shape2-3" v:mID="2" v:groupContext="shape" transform="translate(65.25,-208.164)">
			<title>Sheet.2</title>
			<desc>I0</desc>
			<v:textBlock v:margins="rect(0,0,0,0)"/>
			<v:textRect cx="9" cy="330.36" width="18" height="9"/>
			<path d="M18 325.86 L0 325.86 L0 334.86 L18 334.86 L18 325.86" class="st2"/>
			<text x="0" y="333.36" class="st3" v:langID="1033"><v:paragraph/><v:tabList/>I0</text>		</g>
		<g id="shape3-7" v:mID="3" v:groupContext="shape" transform="translate(36,-213.789)">
			<title>Sheet.3</title>
			<path d="M26.83 334.86 L0 334.86" class="st4"/>
		</g>
		<g id="shape4-10" v:mID="4" v:groupContext="shape" transform="translate(48.375,-210.414)">
			<title>Sheet.4</title>
			<path d="M4.5 328.11 L0 334.86" class="st5"/>
		</g>
		<g id="shape5-13" v:mID="5" v:groupContext="shape" transform="translate(406.86,223.446) rotate(90)">
			<title>Sheet.5</title>
			<path d="M0 334.86 L10.12 334.86" class="st6"/>
		</g>
		<g id="shape6-16" v:mID="6" v:groupContext="shape" transform="translate(421.485,215.571) rotate(90)">
			<title>Sheet.6</title>
			<path d="M0 334.86 L31.5 334.86" class="st6"/>
		</g>
		<g id="shape7-19" v:mID="7" v:groupContext="shape" transform="translate(72,568.431) rotate(180)">
			<title>Sheet.7</title>
			<path d="M0 334.86 L36 334.86" class="st6"/>
		</g>
		<g id="shape8-22" v:mID="8" v:groupContext="shape" transform="translate(86.625,581.931) rotate(180)">
			<title>Sheet.8</title>
			<path d="M0 334.86 L50.63 334.86" class="st6"/>
		</g>
		<g id="shape9-25" v:mID="9" v:groupContext="shape" transform="translate(65.25,-113.664)">
			<title>Sheet.9</title>
			<desc>S1</desc>
			<v:textBlock v:margins="rect(0,0,0,0)"/>
			<v:textRect cx="9" cy="330.36" width="18" height="9"/>
			<path d="M18 325.86 L0 325.86 L0 334.86 L18 334.86 L18 325.86" class="st2"/>
			<text x="0" y="333.36" class="st3" v:langID="1033"><v:paragraph/><v:tabList/>S1</text>		</g>
		<g id="shape10-29" v:mID="10" v:groupContext="shape" transform="translate(78.75,-121.539)">
			<title>Sheet.10</title>
			<desc>S0</desc>
			<v:textBlock v:margins="rect(0,0,0,0)"/>
			<v:textRect cx="9" cy="330.36" width="18" height="9"/>
			<path d="M18 325.86 L0 325.86 L0 334.86 L18 334.86 L18 325.86" class="st2"/>
			<text x="0" y="333.36" class="st3" v:langID="1033"><v:paragraph/><v:tabList/>S0</text>		</g>
		<g id="shape11-33" v:mID="11" v:groupContext="shape" transform="translate(0,-209.289)">
			<title>Sheet.11</title>
			<desc>A[7:0]</desc>
			<v:textBlock v:margins="rect(0,0,0,0)"/>
			<v:textRect cx="16.3125" cy="330.36" width="32.63" height="9"/>
			<path d="M32.62 325.86 L0 325.86 L0 334.86 L32.62 334.86 L32.62 325.86" class="st2"/>
			<text x="6.5" y="333.36" class="st3" v:langID="1033"><v:paragraph v:horizAlign="2"/><v:tabList/>A[7:0]</text>		</g>
		<g id="shape12-37" v:mID="12" v:groupContext="shape" transform="translate(47.25,-218.289)">
			<title>Sheet.12</title>
			<desc>8</desc>
			<v:textBlock v:margins="rect(0,0,0,0)"/>
			<v:textRect cx="9" cy="330.36" width="18" height="9"/>
			<path d="M18 325.86 L0 325.86 L0 334.86 L18 334.86 L18 325.86" class="st2"/>
			<text x="0" y="333.36" class="st3" v:langID="1033"><v:paragraph/><v:tabList/>8</text>		</g>
		<g id="shape13-41" v:mID="13" v:groupContext="shape" transform="translate(65.25,-185.664)">
			<title>Sheet.13</title>
			<desc>I1</desc>
			<v:textBlock v:margins="rect(0,0,0,0)"/>
			<v:textRect cx="9" cy="330.36" width="18" height="9"/>
			<path d="M18 325.86 L0 325.86 L0 334.86 L18 334.86 L18 325.86" class="st2"/>
			<text x="0" y="333.36" class="st3" v:langID="1033"><v:paragraph/><v:tabList/>I1</text>		</g>
		<g id="shape14-45" v:mID="14" v:groupContext="shape" transform="translate(36,-191.289)">
			<title>Sheet.14</title>
			<path d="M26.83 334.86 L0 334.86" class="st4"/>
		</g>
		<g id="shape15-48" v:mID="15" v:groupContext="shape" transform="translate(48.375,-187.914)">
			<title>Sheet.15</title>
			<path d="M4.5 328.11 L0 334.86" class="st5"/>
		</g>
		<g id="shape16-51" v:mID="16" v:groupContext="shape" transform="translate(0,-186.789)">
			<title>Sheet.16</title>
			<desc>B[7:0]</desc>
			<v:textBlock v:margins="rect(0,0,0,0)"/>
			<v:textRect cx="16.3125" cy="330.36" width="32.63" height="9"/>
			<path d="M32.62 325.86 L0 325.86 L0 334.86 L32.62 334.86 L32.62 325.86" class="st2"/>
			<text x="6.5" y="333.36" class="st3" v:langID="1033"><v:paragraph v:horizAlign="2"/><v:tabList/>B[7:0]</text>		</g>
		<g id="shape17-55" v:mID="17" v:groupContext="shape" transform="translate(47.25,-195.789)">
			<title>Sheet.17</title>
			<desc>8</desc>
			<v:textBlock v:margins="rect(0,0,0,0)"/>
			<v:textRect cx="9" cy="330.36" width="18" height="9"/>
			<path d="M18 325.86 L0 325.86 L0 334.86 L18 334.86 L18 325.86" class="st2"/>
			<text x="0" y="333.36" class="st3" v:langID="1033"><v:paragraph/><v:tabList/>8</text>		</g>
		<g id="shape18-59" v:mID="18" v:groupContext="shape" transform="translate(65.25,-163.164)">
			<title>Sheet.18</title>
			<desc>I2</desc>
			<v:textBlock v:margins="rect(0,0,0,0)"/>
			<v:textRect cx="9" cy="330.36" width="18" height="9"/>
			<path d="M18 325.86 L0 325.86 L0 334.86 L18 334.86 L18 325.86" class="st2"/>
			<text x="0" y="333.36" class="st3" v:langID="1033"><v:paragraph/><v:tabList/>I2</text>		</g>
		<g id="shape19-63" v:mID="19" v:groupContext="shape" transform="translate(36,-168.789)">
			<title>Sheet.19</title>
			<path d="M26.83 334.86 L0 334.86" class="st4"/>
		</g>
		<g id="shape20-66" v:mID="20" v:groupContext="shape" transform="translate(48.375,-165.414)">
			<title>Sheet.20</title>
			<path d="M4.5 328.11 L0 334.86" class="st5"/>
		</g>
		<g id="shape21-69" v:mID="21" v:groupContext="shape" transform="translate(0,-164.289)">
			<title>Sheet.21</title>
			<desc>C[7:0]</desc>
			<v:textBlock v:margins="rect(0,0,0,0)"/>
			<v:textRect cx="16.3125" cy="330.36" width="32.63" height="9"/>
			<path d="M32.62 325.86 L0 325.86 L0 334.86 L32.62 334.86 L32.62 325.86" class="st2"/>
			<text x="5.94" y="333.36" class="st3" v:langID="1033"><v:paragraph v:horizAlign="2"/><v:tabList/>C[7:0]</text>		</g>
		<g id="shape22-73" v:mID="22" v:groupContext="shape" transform="translate(47.25,-173.289)">
			<title>Sheet.22</title>
			<desc>8</desc>
			<v:textBlock v:margins="rect(0,0,0,0)"/>
			<v:textRect cx="9" cy="330.36" width="18" height="9"/>
			<path d="M18 325.86 L0 325.86 L0 334.86 L18 334.86 L18 325.86" class="st2"/>
			<text x="0" y="333.36" class="st3" v:langID="1033"><v:paragraph/><v:tabList/>8</text>		</g>
		<g id="shape23-77" v:mID="23" v:groupContext="shape" transform="translate(65.25,-140.664)">
			<title>Sheet.23</title>
			<desc>I3</desc>
			<v:textBlock v:margins="rect(0,0,0,0)"/>
			<v:textRect cx="9" cy="330.36" width="18" height="9"/>
			<path d="M18 325.86 L0 325.86 L0 334.86 L18 334.86 L18 325.86" class="st2"/>
			<text x="0" y="333.36" class="st3" v:langID="1033"><v:paragraph/><v:tabList/>I3</text>		</g>
		<g id="shape24-81" v:mID="24" v:groupContext="shape" transform="translate(36,-146.289)">
			<title>Sheet.24</title>
			<path d="M26.83 334.86 L0 334.86" class="st4"/>
		</g>
		<g id="shape25-84" v:mID="25" v:groupContext="shape" transform="translate(48.375,-142.914)">
			<title>Sheet.25</title>
			<path d="M4.5 328.11 L0 334.86" class="st5"/>
		</g>
		<g id="shape26-87" v:mID="26" v:groupContext="shape" transform="translate(0,-141.789)">
			<title>Sheet.26</title>
			<desc>D[7:0]</desc>
			<v:textBlock v:margins="rect(0,0,0,0)"/>
			<v:textRect cx="16.3125" cy="330.36" width="32.63" height="9"/>
			<path d="M32.62 325.86 L0 325.86 L0 334.86 L32.62 334.86 L32.62 325.86" class="st2"/>
			<text x="5.94" y="333.36" class="st3" v:langID="1033"><v:paragraph v:horizAlign="2"/><v:tabList/>D[7:0]</text>		</g>
		<g id="shape27-91" v:mID="27" v:groupContext="shape" transform="translate(47.25,-150.789)">
			<title>Sheet.27</title>
			<desc>8</desc>
			<v:textBlock v:margins="rect(0,0,0,0)"/>
			<v:textRect cx="9" cy="330.36" width="18" height="9"/>
			<path d="M18 325.86 L0 325.86 L0 334.86 L18 334.86 L18 325.86" class="st2"/>
			<text x="0" y="333.36" class="st3" v:langID="1033"><v:paragraph/><v:tabList/>8</text>		</g>
		<g id="shape28-95" v:mID="28" v:groupContext="shape" transform="translate(103.5,-180.039)">
			<title>Sheet.28</title>
			<path d="M26.83 334.86 L0 334.86" class="st4"/>
		</g>
		<g id="shape29-98" v:mID="29" v:groupContext="shape" transform="translate(115.875,-176.664)">
			<title>Sheet.29</title>
			<path d="M4.5 328.11 L0 334.86" class="st5"/>
		</g>
		<g id="shape30-101" v:mID="30" v:groupContext="shape" transform="translate(127.688,-175.539)">
			<title>Sheet.30</title>
			<desc>Y[7:0]</desc>
			<v:textBlock v:margins="rect(0,0,0,0)"/>
			<v:textRect cx="16.3125" cy="330.36" width="32.63" height="9"/>
			<path d="M32.62 325.86 L0 325.86 L0 334.86 L32.62 334.86 L32.62 325.86" class="st2"/>
			<text x="6.5" y="333.36" class="st3" v:langID="1033"><v:paragraph v:horizAlign="2"/><v:tabList/>Y[7:0]</text>		</g>
		<g id="shape31-105" v:mID="31" v:groupContext="shape" transform="translate(114.75,-184.539)">
			<title>Sheet.31</title>
			<desc>8</desc>
			<v:textBlock v:margins="rect(0,0,0,0)"/>
			<v:textRect cx="9" cy="330.36" width="18" height="9"/>
			<path d="M18 325.86 L0 325.86 L0 334.86 L18 334.86 L18 325.86" class="st2"/>
			<text x="0" y="333.36" class="st3" v:langID="1033"><v:paragraph/><v:tabList/>8</text>		</g>
		<g id="shape32-109" v:mID="32" v:groupContext="shape" transform="translate(391.669,-247.539)">
			<title>Sheet.32</title>
			<path d="M0 253.54 L0 334.86 L24.75 320.72 L24.75 267.68 L0 253.54 Z" class="st1"/>
		</g>
		<g id="shape33-111" v:mID="33" v:groupContext="shape" transform="translate(416.419,-296.235)">
			<title>Sheet.33</title>
			<path d="M20.08 334.86 L0 334.86" class="st5"/>
		</g>
		<g id="shape34-114" v:mID="34" v:groupContext="shape" transform="translate(394.96,-297.36)">
			<title>Sheet.34</title>
			<desc>I1</desc>
			<v:textBlock v:margins="rect(0,0,0,0)"/>
			<v:textRect cx="9" cy="330.36" width="18" height="9"/>
			<path d="M18 325.86 L0 325.86 L0 334.86 L18 334.86 L18 325.86" class="st2"/>
			<text x="0" y="333.36" class="st3" v:langID="1033"><v:paragraph/><v:tabList/>I1</text>		</g>
		<g id="shape35-118" v:mID="35" v:groupContext="shape" transform="translate(394.96,-308.61)">
			<title>Sheet.35</title>
			<desc>I0</desc>
			<v:textBlock v:margins="rect(0,0,0,0)"/>
			<v:textRect cx="9" cy="330.36" width="18" height="9"/>
			<path d="M18 325.86 L0 325.86 L0 334.86 L18 334.86 L18 325.86" class="st2"/>
			<text x="0" y="333.36" class="st3" v:langID="1033"><v:paragraph/><v:tabList/>I0</text>		</g>
		<g id="shape36-122" v:mID="36" v:groupContext="shape" transform="translate(394.96,-286.11)">
			<title>Sheet.36</title>
			<desc>I2</desc>
			<v:textBlock v:margins="rect(0,0,0,0)"/>
			<v:textRect cx="9" cy="330.36" width="18" height="9"/>
			<path d="M18 325.86 L0 325.86 L0 334.86 L18 334.86 L18 325.86" class="st2"/>
			<text x="0" y="333.36" class="st3" v:langID="1033"><v:paragraph/><v:tabList/>I2</text>		</g>
		<g id="shape37-126" v:mID="37" v:groupContext="shape" transform="translate(394.96,-274.86)">
			<title>Sheet.37</title>
			<desc>I3</desc>
			<v:textBlock v:margins="rect(0,0,0,0)"/>
			<v:textRect cx="9" cy="330.36" width="18" height="9"/>
			<path d="M18 325.86 L0 325.86 L0 334.86 L18 334.86 L18 325.86" class="st2"/>
			<text x="0" y="333.36" class="st3" v:langID="1033"><v:paragraph/><v:tabList/>I3</text>		</g>
		<g id="shape38-130" v:mID="38" v:groupContext="shape" transform="translate(310.585,-313.11)">
			<title>Sheet.38</title>
			<path d="M80.92 334.86 L0 334.86" class="st5"/>
		</g>
		<g id="shape39-133" v:mID="39" v:groupContext="shape" transform="translate(297.085,-301.86)">
			<title>Sheet.39</title>
			<path d="M94.42 334.86 L0 334.86" class="st5"/>
		</g>
		<g id="shape40-136" v:mID="40" v:groupContext="shape" transform="translate(283.585,-290.61)">
			<title>Sheet.40</title>
			<path d="M107.92 334.86 L0 334.86" class="st5"/>
		</g>
		<g id="shape41-139" v:mID="41" v:groupContext="shape" transform="translate(270.085,-279.36)">
			<title>Sheet.41</title>
			<path d="M121.42 334.86 L0 334.86" class="st5"/>
		</g>
		<g id="shape42-142" v:mID="42" v:groupContext="shape" transform="translate(733.279,83.4642) rotate(90)">
			<title>Sheet.42</title>
			<path d="M0 334.86 L8.04 334.86" class="st6"/>
		</g>
		<g id="shape43-145" v:mID="43" v:groupContext="shape" transform="translate(745.654,76.3928) rotate(90)">
			<title>Sheet.43</title>
			<path d="M0 334.86 L26.36 334.86" class="st6"/>
		</g>
		<g id="shape44-148" v:mID="44" v:groupContext="shape" transform="translate(398.419,426.36) rotate(180)">
			<title>Sheet.44</title>
			<path d="M0 334.86 L150.83 334.86" class="st6"/>
		</g>
		<g id="shape45-151" v:mID="45" v:groupContext="shape" transform="translate(410.794,437.61) rotate(180)">
			<title>Sheet.45</title>
			<path d="M0 334.86 L163.21 334.86" class="st6"/>
		</g>
		<g id="shape46-154" v:mID="46" v:groupContext="shape" transform="translate(392.794,-253.204)">
			<title>Sheet.46</title>
			<desc>S1</desc>
			<v:textBlock v:margins="rect(0,0,0,0)"/>
			<v:textRect cx="9" cy="330.36" width="18" height="9"/>
			<path d="M18 325.86 L0 325.86 L0 334.86 L18 334.86 L18 325.86" class="st2"/>
			<text x="0" y="333.06" class="st7" v:langID="1033"><v:paragraph/><v:tabList/>S1</text>		</g>
		<g id="shape47-158" v:mID="47" v:groupContext="shape" transform="translate(404.044,-260.235)">
			<title>Sheet.47</title>
			<desc>S0</desc>
			<v:textBlock v:margins="rect(0,0,0,0)"/>
			<v:textRect cx="9" cy="330.36" width="18" height="9"/>
			<path d="M18 325.86 L0 325.86 L0 334.86 L18 334.86 L18 325.86" class="st2"/>
			<text x="0" y="333.06" class="st7" v:langID="1033"><v:paragraph/><v:tabList/>S0</text>		</g>
		<g id="shape48-162" v:mID="48" v:groupContext="shape" transform="translate(391.585,-139.539)">
			<title>Sheet.48</title>
			<path d="M0 253.54 L0 334.86 L24.75 320.72 L24.75 267.68 L0 253.54 Z" class="st1"/>
		</g>
		<g id="shape49-164" v:mID="49" v:groupContext="shape" transform="translate(416.335,-188.235)">
			<title>Sheet.49</title>
			<path d="M20.17 334.86 L0 334.86" class="st5"/>
		</g>
		<g id="shape50-167" v:mID="50" v:groupContext="shape" transform="translate(393.835,-189.36)">
			<title>Sheet.50</title>
			<desc>I1</desc>
			<v:textBlock v:margins="rect(0,0,0,0)"/>
			<v:textRect cx="9" cy="330.36" width="18" height="9"/>
			<path d="M18 325.86 L0 325.86 L0 334.86 L18 334.86 L18 325.86" class="st2"/>
			<text x="0" y="333.36" class="st3" v:langID="1033"><v:paragraph/><v:tabList/>I1</text>		</g>
		<g id="shape51-171" v:mID="51" v:groupContext="shape" transform="translate(393.835,-200.61)">
			<title>Sheet.51</title>
			<desc>I0</desc>
			<v:textBlock v:margins="rect(0,0,0,0)"/>
			<v:textRect cx="9" cy="330.36" width="18" height="9"/>
			<path d="M18 325.86 L0 325.86 L0 334.86 L18 334.86 L18 325.86" class="st2"/>
			<text x="0" y="333.36" class="st3" v:langID="1033"><v:paragraph/><v:tabList/>I0</text>		</g>
		<g id="shape52-175" v:mID="52" v:groupContext="shape" transform="translate(393.835,-178.11)">
			<title>Sheet.52</title>
			<desc>I2</desc>
			<v:textBlock v:margins="rect(0,0,0,0)"/>
			<v:textRect cx="9" cy="330.36" width="18" height="9"/>
			<path d="M18 325.86 L0 325.86 L0 334.86 L18 334.86 L18 325.86" class="st2"/>
			<text x="0" y="333.36" class="st3" v:langID="1033"><v:paragraph/><v:tabList/>I2</text>		</g>
		<g id="shape53-179" v:mID="53" v:groupContext="shape" transform="translate(393.835,-166.86)">
			<title>Sheet.53</title>
			<desc>I3</desc>
			<v:textBlock v:margins="rect(0,0,0,0)"/>
			<v:textRect cx="9" cy="330.36" width="18" height="9"/>
			<path d="M18 325.86 L0 325.86 L0 334.86 L18 334.86 L18 325.86" class="st2"/>
			<text x="0" y="333.36" class="st3" v:langID="1033"><v:paragraph/><v:tabList/>I3</text>		</g>
		<g id="shape54-183" v:mID="54" v:groupContext="shape" transform="translate(733.195,191.464) rotate(90)">
			<title>Sheet.54</title>
			<path d="M0 334.86 L8.04 334.86" class="st6"/>
		</g>
		<g id="shape55-186" v:mID="55" v:groupContext="shape" transform="translate(745.57,184.393) rotate(90)">
			<title>Sheet.55</title>
			<path d="M0 334.86 L26.36 334.86" class="st6"/>
		</g>
		<g id="shape56-189" v:mID="56" v:groupContext="shape" transform="translate(398.335,534.36) rotate(180)">
			<title>Sheet.56</title>
			<path d="M0 334.86 L63 334.86" class="st6"/>
		</g>
		<g id="shape57-192" v:mID="57" v:groupContext="shape" transform="translate(410.71,545.61) rotate(180)">
			<title>Sheet.57</title>
			<path d="M0 334.86 L64.12 334.86" class="st6"/>
		</g>
		<g id="shape58-195" v:mID="58" v:groupContext="shape" transform="translate(392.71,-145.204)">
			<title>Sheet.58</title>
			<desc>S1</desc>
			<v:textBlock v:margins="rect(0,0,0,0)"/>
			<v:textRect cx="9" cy="330.36" width="18" height="9"/>
			<path d="M18 325.86 L0 325.86 L0 334.86 L18 334.86 L18 325.86" class="st2"/>
			<text x="0" y="333.06" class="st7" v:langID="1033"><v:paragraph/><v:tabList/>S1</text>		</g>
		<g id="shape59-199" v:mID="59" v:groupContext="shape" transform="translate(403.96,-152.235)">
			<title>Sheet.59</title>
			<desc>S0</desc>
			<v:textBlock v:margins="rect(0,0,0,0)"/>
			<v:textRect cx="9" cy="330.36" width="18" height="9"/>
			<path d="M18 325.86 L0 325.86 L0 334.86 L18 334.86 L18 325.86" class="st2"/>
			<text x="0" y="333.06" class="st7" v:langID="1033"><v:paragraph/><v:tabList/>S0</text>		</g>
		<g id="shape60-203" v:mID="60" v:groupContext="shape" transform="translate(364.585,-313.11)">
			<title>Sheet.60</title>
			<desc>A(0)</desc>
			<v:textBlock v:margins="rect(0,0,0,0)"/>
			<v:textRect cx="13.5" cy="330.36" width="27" height="9"/>
			<path d="M27 325.86 L0 325.86 L0 334.86 L27 334.86 L27 325.86" class="st2"/>
			<text x="0" y="333.36" class="st3" v:langID="1033"><v:paragraph/><v:tabList/>A(0)</text>		</g>
		<g id="shape61-207" v:mID="61" v:groupContext="shape" transform="translate(364.585,-301.86)">
			<title>Sheet.61</title>
			<desc>B(0)</desc>
			<v:textBlock v:margins="rect(0,0,0,0)"/>
			<v:textRect cx="13.5" cy="330.36" width="27" height="9"/>
			<path d="M27 325.86 L0 325.86 L0 334.86 L27 334.86 L27 325.86" class="st2"/>
			<text x="0" y="333.36" class="st3" v:langID="1033"><v:paragraph/><v:tabList/>B(0)</text>		</g>
		<g id="shape62-211" v:mID="62" v:groupContext="shape" transform="translate(364.585,-290.61)">
			<title>Sheet.62</title>
			<desc>C(0)</desc>
			<v:textBlock v:margins="rect(0,0,0,0)"/>
			<v:textRect cx="13.5" cy="330.36" width="27" height="9"/>
			<path d="M27 325.86 L0 325.86 L0 334.86 L27 334.86 L27 325.86" class="st2"/>
			<text x="0" y="333.36" class="st3" v:langID="1033"><v:paragraph/><v:tabList/>C(0)</text>		</g>
		<g id="shape63-215" v:mID="63" v:groupContext="shape" transform="translate(364.585,-279.36)">
			<title>Sheet.63</title>
			<desc>D(0)</desc>
			<v:textBlock v:margins="rect(0,0,0,0)"/>
			<v:textRect cx="13.5" cy="330.36" width="27" height="9"/>
			<path d="M27 325.86 L0 325.86 L0 334.86 L27 334.86 L27 325.86" class="st2"/>
			<text x="0" y="333.36" class="st3" v:langID="1033"><v:paragraph/><v:tabList/>D(0)</text>		</g>
		<g id="shape64-219" v:mID="64" v:groupContext="shape" transform="translate(310.585,-205.11)">
			<title>Sheet.64</title>
			<path d="M80.92 334.86 L0 334.86" class="st5"/>
		</g>
		<g id="shape65-222" v:mID="65" v:groupContext="shape" transform="translate(297.085,-193.86)">
			<title>Sheet.65</title>
			<path d="M94.42 334.86 L0 334.86" class="st5"/>
		</g>
		<g id="shape66-225" v:mID="66" v:groupContext="shape" transform="translate(283.585,-182.61)">
			<title>Sheet.66</title>
			<path d="M107.92 334.86 L0 334.86" class="st5"/>
		</g>
		<g id="shape67-228" v:mID="67" v:groupContext="shape" transform="translate(270.085,-171.36)">
			<title>Sheet.67</title>
			<path d="M121.42 334.86 L0 334.86" class="st5"/>
		</g>
		<g id="shape68-231" v:mID="68" v:groupContext="shape" transform="translate(364.585,-205.11)">
			<title>Sheet.68</title>
			<desc>A(1)</desc>
			<v:textBlock v:margins="rect(0,0,0,0)"/>
			<v:textRect cx="13.5" cy="330.36" width="27" height="9"/>
			<path d="M27 325.86 L0 325.86 L0 334.86 L27 334.86 L27 325.86" class="st2"/>
			<text x="0" y="333.36" class="st3" v:langID="1033"><v:paragraph/><v:tabList/>A(1)</text>		</g>
		<g id="shape69-235" v:mID="69" v:groupContext="shape" transform="translate(364.585,-193.86)">
			<title>Sheet.69</title>
			<desc>B(1)</desc>
			<v:textBlock v:margins="rect(0,0,0,0)"/>
			<v:textRect cx="13.5" cy="330.36" width="27" height="9"/>
			<path d="M27 325.86 L0 325.86 L0 334.86 L27 334.86 L27 325.86" class="st2"/>
			<text x="0" y="333.36" class="st3" v:langID="1033"><v:paragraph/><v:tabList/>B(1)</text>		</g>
		<g id="shape70-239" v:mID="70" v:groupContext="shape" transform="translate(364.585,-182.61)">
			<title>Sheet.70</title>
			<desc>C(1)</desc>
			<v:textBlock v:margins="rect(0,0,0,0)"/>
			<v:textRect cx="13.5" cy="330.36" width="27" height="9"/>
			<path d="M27 325.86 L0 325.86 L0 334.86 L27 334.86 L27 325.86" class="st2"/>
			<text x="0" y="333.36" class="st3" v:langID="1033"><v:paragraph/><v:tabList/>C(1)</text>		</g>
		<g id="shape71-243" v:mID="71" v:groupContext="shape" transform="translate(364.585,-171.36)">
			<title>Sheet.71</title>
			<desc>D(1)</desc>
			<v:textBlock v:margins="rect(0,0,0,0)"/>
			<v:textRect cx="13.5" cy="330.36" width="27" height="9"/>
			<path d="M27 325.86 L0 325.86 L0 334.86 L27 334.86 L27 325.86" class="st2"/>
			<text x="0" y="333.36" class="st3" v:langID="1033"><v:paragraph/><v:tabList/>D(1)</text>		</g>
		<g id="shape72-247" v:mID="72" v:groupContext="shape" transform="translate(391.585,-15.7886)">
			<title>Sheet.72</title>
			<path d="M0 253.54 L0 334.86 L24.75 320.72 L24.75 267.68 L0 253.54 Z" class="st1"/>
		</g>
		<g id="shape73-249" v:mID="73" v:groupContext="shape" transform="translate(416.335,-64.485)">
			<title>Sheet.73</title>
			<path d="M20.17 334.86 L0 334.86" class="st5"/>
		</g>
		<g id="shape74-252" v:mID="74" v:groupContext="shape" transform="translate(393.835,-65.61)">
			<title>Sheet.74</title>
			<desc>I1</desc>
			<v:textBlock v:margins="rect(0,0,0,0)"/>
			<v:textRect cx="9" cy="330.36" width="18" height="9"/>
			<path d="M18 325.86 L0 325.86 L0 334.86 L18 334.86 L18 325.86" class="st2"/>
			<text x="0" y="333.36" class="st3" v:langID="1033"><v:paragraph/><v:tabList/>I1</text>		</g>
		<g id="shape75-256" v:mID="75" v:groupContext="shape" transform="translate(393.835,-76.86)">
			<title>Sheet.75</title>
			<desc>I0</desc>
			<v:textBlock v:margins="rect(0,0,0,0)"/>
			<v:textRect cx="9" cy="330.36" width="18" height="9"/>
			<path d="M18 325.86 L0 325.86 L0 334.86 L18 334.86 L18 325.86" class="st2"/>
			<text x="0" y="333.36" class="st3" v:langID="1033"><v:paragraph/><v:tabList/>I0</text>		</g>
		<g id="shape76-260" v:mID="76" v:groupContext="shape" transform="translate(393.835,-54.36)">
			<title>Sheet.76</title>
			<desc>I2</desc>
			<v:textBlock v:margins="rect(0,0,0,0)"/>
			<v:textRect cx="9" cy="330.36" width="18" height="9"/>
			<path d="M18 325.86 L0 325.86 L0 334.86 L18 334.86 L18 325.86" class="st2"/>
			<text x="0" y="333.36" class="st3" v:langID="1033"><v:paragraph/><v:tabList/>I2</text>		</g>
		<g id="shape77-264" v:mID="77" v:groupContext="shape" transform="translate(393.835,-43.11)">
			<title>Sheet.77</title>
			<desc>I3</desc>
			<v:textBlock v:margins="rect(0,0,0,0)"/>
			<v:textRect cx="9" cy="330.36" width="18" height="9"/>
			<path d="M18 325.86 L0 325.86 L0 334.86 L18 334.86 L18 325.86" class="st2"/>
			<text x="0" y="333.36" class="st3" v:langID="1033"><v:paragraph/><v:tabList/>I3</text>		</g>
		<g id="shape78-268" v:mID="78" v:groupContext="shape" transform="translate(733.195,315.214) rotate(90)">
			<title>Sheet.78</title>
			<path d="M0 334.86 L8.04 334.86" class="st6"/>
		</g>
		<g id="shape79-271" v:mID="79" v:groupContext="shape" transform="translate(745.57,308.143) rotate(90)">
			<title>Sheet.79</title>
			<path d="M0 334.86 L26.36 334.86" class="st6"/>
		</g>
		<g id="shape80-274" v:mID="80" v:groupContext="shape" transform="translate(398.335,658.11) rotate(180)">
			<title>Sheet.80</title>
			<path d="M0 334.86 L63 334.86" class="st6"/>
		</g>
		<g id="shape81-277" v:mID="81" v:groupContext="shape" transform="translate(410.71,669.36) rotate(180)">
			<title>Sheet.81</title>
			<path d="M0 334.86 L64.12 334.86" class="st6"/>
		</g>
		<g id="shape82-280" v:mID="82" v:groupContext="shape" transform="translate(392.71,-21.4538)">
			<title>Sheet.82</title>
			<desc>S1</desc>
			<v:textBlock v:margins="rect(0,0,0,0)"/>
			<v:textRect cx="9" cy="330.36" width="18" height="9"/>
			<path d="M18 325.86 L0 325.86 L0 334.86 L18 334.86 L18 325.86" class="st2"/>
			<text x="0" y="333.06" class="st7" v:langID="1033"><v:paragraph/><v:tabList/>S1</text>		</g>
		<g id="shape83-284" v:mID="83" v:groupContext="shape" transform="translate(403.96,-28.485)">
			<title>Sheet.83</title>
			<desc>S0</desc>
			<v:textBlock v:margins="rect(0,0,0,0)"/>
			<v:textRect cx="9" cy="330.36" width="18" height="9"/>
			<path d="M18 325.86 L0 325.86 L0 334.86 L18 334.86 L18 325.86" class="st2"/>
			<text x="0" y="333.06" class="st7" v:langID="1033"><v:paragraph/><v:tabList/>S0</text>		</g>
		<g id="shape84-288" v:mID="84" v:groupContext="shape" transform="translate(310.585,-81.36)">
			<title>Sheet.84</title>
			<path d="M80.92 334.86 L0 334.86" class="st5"/>
		</g>
		<g id="shape85-291" v:mID="85" v:groupContext="shape" transform="translate(297.085,-70.11)">
			<title>Sheet.85</title>
			<path d="M94.42 334.86 L0 334.86" class="st5"/>
		</g>
		<g id="shape86-294" v:mID="86" v:groupContext="shape" transform="translate(283.585,-58.86)">
			<title>Sheet.86</title>
			<path d="M107.92 334.86 L0 334.86" class="st5"/>
		</g>
		<g id="shape87-297" v:mID="87" v:groupContext="shape" transform="translate(270.085,-47.61)">
			<title>Sheet.87</title>
			<path d="M121.42 334.86 L0 334.86" class="st5"/>
		</g>
		<g id="shape88-300" v:mID="88" v:groupContext="shape" transform="translate(364.585,-81.36)">
			<title>Sheet.88</title>
			<desc>A(7)</desc>
			<v:textBlock v:margins="rect(0,0,0,0)"/>
			<v:textRect cx="13.5" cy="330.36" width="27" height="9"/>
			<path d="M27 325.86 L0 325.86 L0 334.86 L27 334.86 L27 325.86" class="st2"/>
			<text x="0" y="333.36" class="st3" v:langID="1033"><v:paragraph/><v:tabList/>A(7)</text>		</g>
		<g id="shape89-304" v:mID="89" v:groupContext="shape" transform="translate(364.585,-70.11)">
			<title>Sheet.89</title>
			<desc>B(7)</desc>
			<v:textBlock v:margins="rect(0,0,0,0)"/>
			<v:textRect cx="13.5" cy="330.36" width="27" height="9"/>
			<path d="M27 325.86 L0 325.86 L0 334.86 L27 334.86 L27 325.86" class="st2"/>
			<text x="0" y="333.36" class="st3" v:langID="1033"><v:paragraph/><v:tabList/>B(7)</text>		</g>
		<g id="shape90-308" v:mID="90" v:groupContext="shape" transform="translate(364.585,-58.86)">
			<title>Sheet.90</title>
			<desc>C(7)</desc>
			<v:textBlock v:margins="rect(0,0,0,0)"/>
			<v:textRect cx="13.5" cy="330.36" width="27" height="9"/>
			<path d="M27 325.86 L0 325.86 L0 334.86 L27 334.86 L27 325.86" class="st2"/>
			<text x="0" y="333.36" class="st3" v:langID="1033"><v:paragraph/><v:tabList/>C(7)</text>		</g>
		<g id="shape91-312" v:mID="91" v:groupContext="shape" transform="translate(364.585,-47.61)">
			<title>Sheet.91</title>
			<desc>D(7)</desc>
			<v:textBlock v:margins="rect(0,0,0,0)"/>
			<v:textRect cx="13.5" cy="330.36" width="27" height="9"/>
			<path d="M27 325.86 L0 325.86 L0 334.86 L27 334.86 L27 325.86" class="st2"/>
			<text x="0" y="333.36" class="st3" v:langID="1033"><v:paragraph/><v:tabList/>D(7)</text>		</g>
		<g id="shape92-316" v:mID="92" v:groupContext="shape" transform="translate(681.445,102.75) rotate(90)">
			<title>Sheet.92</title>
			<path d="M0 334.86 L231.75 334.86" class="st6"/>
		</g>
		<g id="shape93-319" v:mID="93" v:groupContext="shape" transform="translate(670.195,91.4999) rotate(90)">
			<title>Sheet.93</title>
			<path d="M0 334.86 L231.75 334.86" class="st6"/>
		</g>
		<g id="shape94-322" v:mID="94" v:groupContext="shape" transform="translate(334.491,-134.516)">
			<title>Circle</title>
			<v:userDefs>
				<v:ud v:nameU="visVersion" v:val="VT0(11):26"/>
			</v:userDefs>
			<path d="M0 334.02 a0.84375 0.84375 0 0 1 1.6875 0 a0.84375 0.84375 0 1 1 -1.6875 0 Z" class="st8"/>
		</g>
		<g id="shape95-324" v:mID="95" v:groupContext="shape" transform="translate(345.741,-123.266)">
			<title>Circle.95</title>
			<v:userDefs>
				<v:ud v:nameU="visVersion" v:val="VT0(11):26"/>
			</v:userDefs>
			<path d="M0 334.02 a0.84375 0.84375 0 0 1 1.6875 0 a0.84375 0.84375 0 1 1 -1.6875 0 Z" class="st8"/>
		</g>
		<g id="shape96-326" v:mID="96" v:groupContext="shape" transform="translate(334.491,-242.516)">
			<title>Circle.96</title>
			<v:userDefs>
				<v:ud v:nameU="visVersion" v:val="VT0(11):26"/>
			</v:userDefs>
			<path d="M0 334.02 a0.84375 0.84375 0 0 1 1.6875 0 a0.84375 0.84375 0 1 1 -1.6875 0 Z" class="st8"/>
		</g>
		<g id="shape97-328" v:mID="97" v:groupContext="shape" transform="translate(345.741,-231.266)">
			<title>Circle.97</title>
			<v:userDefs>
				<v:ud v:nameU="visVersion" v:val="VT0(11):26"/>
			</v:userDefs>
			<path d="M0 334.02 a0.84375 0.84375 0 0 1 1.6875 0 a0.84375 0.84375 0 1 1 -1.6875 0 Z" class="st8"/>
		</g>
		<g id="shape98-330" v:mID="98" v:groupContext="shape" transform="translate(310.585,-81.36)">
			<title>Sheet.98</title>
			<path d="M0 334.86 L0 87.36" class="st4"/>
		</g>
		<g id="shape99-333" v:mID="99" v:groupContext="shape" transform="translate(247.585,-328.86)">
			<title>Sheet.99</title>
			<path d="M0 334.86 L6.61 334.86 L63 334.86" class="st4"/>
		</g>
		<g id="shape100-336" v:mID="100" v:groupContext="shape" transform="translate(310.585,-81.36)">
			<title>Sheet.100</title>
			<path d="M4.42 334.86 L0 330.36" class="st5"/>
		</g>
		<g id="shape101-339" v:mID="101" v:groupContext="shape" transform="translate(310.585,-205.11)">
			<title>Sheet.101</title>
			<path d="M4.42 334.86 L0 330.36" class="st5"/>
		</g>
		<g id="shape102-342" v:mID="102" v:groupContext="shape" transform="translate(310.585,-313.11)">
			<title>Sheet.102</title>
			<path d="M4.42 334.86 L0 330.36" class="st5"/>
		</g>
		<g id="shape103-345" v:mID="103" v:groupContext="shape" transform="translate(297.169,-70.11)">
			<title>Sheet.103</title>
			<path d="M0 334.86 L0 89.61" class="st4"/>
		</g>
		<g id="shape104-348" v:mID="104" v:groupContext="shape" transform="translate(297.169,-70.11)">
			<title>Sheet.104</title>
			<path d="M4.42 334.86 L0 330.36" class="st5"/>
		</g>
		<g id="shape105-351" v:mID="105" v:groupContext="shape" transform="translate(297.169,-193.86)">
			<title>Sheet.105</title>
			<path d="M4.42 334.86 L0 330.36" class="st5"/>
		</g>
		<g id="shape106-354" v:mID="106" v:groupContext="shape" transform="translate(297.169,-301.86)">
			<title>Sheet.106</title>
			<path d="M4.42 334.86 L0 330.36" class="st5"/>
		</g>
		<g id="shape107-357" v:mID="107" v:groupContext="shape" transform="translate(283.669,-58.86)">
			<title>Sheet.107</title>
			<path d="M0 334.86 L0 91.86" class="st4"/>
		</g>
		<g id="shape108-360" v:mID="108" v:groupContext="shape" transform="translate(283.669,-58.86)">
			<title>Sheet.108</title>
			<path d="M4.42 334.86 L0 330.36" class="st5"/>
		</g>
		<g id="shape109-363" v:mID="109" v:groupContext="shape" transform="translate(283.669,-182.61)">
			<title>Sheet.109</title>
			<path d="M4.42 334.86 L0 330.36" class="st5"/>
		</g>
		<g id="shape110-366" v:mID="110" v:groupContext="shape" transform="translate(283.669,-290.61)">
			<title>Sheet.110</title>
			<path d="M4.42 334.86 L0 330.36" class="st5"/>
		</g>
		<g id="shape111-369" v:mID="111" v:groupContext="shape" transform="translate(270.085,-47.61)">
			<title>Sheet.111</title>
			<path d="M0 334.86 L0 94.11" class="st4"/>
		</g>
		<g id="shape112-372" v:mID="112" v:groupContext="shape" transform="translate(270.085,-47.61)">
			<title>Sheet.112</title>
			<path d="M4.42 334.86 L0 330.36" class="st5"/>
		</g>
		<g id="shape113-375" v:mID="113" v:groupContext="shape" transform="translate(270.085,-171.36)">
			<title>Sheet.113</title>
			<path d="M4.42 334.86 L0 330.36" class="st5"/>
		</g>
		<g id="shape114-378" v:mID="114" v:groupContext="shape" transform="translate(270.085,-279.36)">
			<title>Sheet.114</title>
			<path d="M4.42 334.86 L0 330.36" class="st5"/>
		</g>
		<g id="shape115-381" v:mID="115" v:groupContext="shape" transform="translate(247.5,-315.36)">
			<title>Sheet.115</title>
			<path d="M0 334.86 L5.19 334.86 L49.5 334.86" class="st4"/>
		</g>
		<g id="shape116-384" v:mID="116" v:groupContext="shape" transform="translate(247.5,-301.86)">
			<title>Sheet.116</title>
			<path d="M0 334.86 L3.78 334.86 L36 334.86" class="st4"/>
		</g>
		<g id="shape117-387" v:mID="117" v:groupContext="shape" transform="translate(247.5,-288.36)">
			<title>Sheet.117</title>
			<path d="M0 334.86 L2.36 334.86 L22.5 334.86" class="st4"/>
		</g>
		<g id="shape118-390" v:mID="118" v:groupContext="shape" transform="translate(436.5,-64.485)">
			<title>Sheet.118</title>
			<path d="M0 334.86 L0 70.48" class="st4"/>
		</g>
		<g id="shape119-393" v:mID="119" v:groupContext="shape" transform="translate(432.085,-64.485)">
			<title>Sheet.119</title>
			<path d="M4.42 330.36 L0 334.86" class="st5"/>
		</g>
		<g id="shape120-396" v:mID="120" v:groupContext="shape" transform="translate(432,-188.235)">
			<title>Sheet.120</title>
			<path d="M4.42 330.36 L0 334.86" class="st5"/>
		</g>
		<g id="shape121-399" v:mID="121" v:groupContext="shape" transform="translate(432,-296.235)">
			<title>Sheet.121</title>
			<path d="M4.42 330.36 L0 334.86" class="st5"/>
		</g>
		<g id="shape122-402" v:mID="122" v:groupContext="shape" transform="translate(436.5,-328.86)">
			<title>Sheet.122</title>
			<path d="M0 334.86 L2.83 334.86 L27 334.86" class="st4"/>
		</g>
		<g id="shape123-405" v:mID="123" v:groupContext="shape" transform="translate(408.375,-290.61)">
			<title>Sheet.123</title>
			<desc>Y</desc>
			<v:textBlock v:margins="rect(0,0,0,0)"/>
			<v:textRect cx="4.5" cy="330.36" width="9" height="9"/>
			<path d="M9 325.86 L0 325.86 L0 334.86 L9 334.86 L9 325.86" class="st2"/>
			<text x="0" y="333.36" class="st3" v:langID="1033"><v:paragraph/><v:tabList/>Y</text>		</g>
		<g id="shape124-409" v:mID="124" v:groupContext="shape" transform="translate(408.375,-182.61)">
			<title>Sheet.124</title>
			<desc>Y</desc>
			<v:textBlock v:margins="rect(0,0,0,0)"/>
			<v:textRect cx="4.5" cy="330.36" width="9" height="9"/>
			<path d="M9 325.86 L0 325.86 L0 334.86 L9 334.86 L9 325.86" class="st2"/>
			<text x="0" y="333.36" class="st3" v:langID="1033"><v:paragraph/><v:tabList/>Y</text>		</g>
		<g id="shape125-413" v:mID="125" v:groupContext="shape" transform="translate(408.375,-58.86)">
			<title>Sheet.125</title>
			<desc>Y</desc>
			<v:textBlock v:margins="rect(0,0,0,0)"/>
			<v:textRect cx="4.5" cy="330.36" width="9" height="9"/>
			<path d="M9 325.86 L0 325.86 L0 334.86 L9 334.86 L9 325.86" class="st2"/>
			<text x="0" y="333.36" class="st3" v:langID="1033"><v:paragraph/><v:tabList/>Y</text>		</g>
		<g id="shape126-417" v:mID="126" v:groupContext="shape" transform="translate(463.5,-324.36)">
			<title>Sheet.126</title>
			<desc>Y[7:0]</desc>
			<v:textBlock v:margins="rect(0,0,0,0)"/>
			<v:textRect cx="16.3125" cy="330.36" width="32.63" height="9"/>
			<path d="M32.62 325.86 L0 325.86 L0 334.86 L32.62 334.86 L32.62 325.86" class="st2"/>
			<text x="6.5" y="333.36" class="st3" v:langID="1033"><v:paragraph v:horizAlign="2"/><v:tabList/>Y[7:0]</text>		</g>
		<g id="shape127-421" v:mID="127" v:groupContext="shape" transform="translate(211.5,-324.36)">
			<title>Sheet.127</title>
			<desc>A[7:0]</desc>
			<v:textBlock v:margins="rect(0,0,0,0)"/>
			<v:textRect cx="16.3125" cy="330.36" width="32.63" height="9"/>
			<path d="M32.62 325.86 L0 325.86 L0 334.86 L32.62 334.86 L32.62 325.86" class="st2"/>
			<text x="6.5" y="333.36" class="st3" v:langID="1033"><v:paragraph v:horizAlign="2"/><v:tabList/>A[7:0]</text>		</g>
		<g id="shape128-425" v:mID="128" v:groupContext="shape" transform="translate(211.5,-310.86)">
			<title>Sheet.128</title>
			<desc>B[7:0]</desc>
			<v:textBlock v:margins="rect(0,0,0,0)"/>
			<v:textRect cx="16.3125" cy="330.36" width="32.63" height="9"/>
			<path d="M32.62 325.86 L0 325.86 L0 334.86 L32.62 334.86 L32.62 325.86" class="st2"/>
			<text x="6.5" y="333.36" class="st3" v:langID="1033"><v:paragraph v:horizAlign="2"/><v:tabList/>B[7:0]</text>		</g>
		<g id="shape129-429" v:mID="129" v:groupContext="shape" transform="translate(211.5,-297.36)">
			<title>Sheet.129</title>
			<desc>C[7:0]</desc>
			<v:textBlock v:margins="rect(0,0,0,0)"/>
			<v:textRect cx="16.3125" cy="330.36" width="32.63" height="9"/>
			<path d="M32.62 325.86 L0 325.86 L0 334.86 L32.62 334.86 L32.62 325.86" class="st2"/>
			<text x="5.94" y="333.36" class="st3" v:langID="1033"><v:paragraph v:horizAlign="2"/><v:tabList/>C[7:0]</text>		</g>
		<g id="shape130-433" v:mID="130" v:groupContext="shape" transform="translate(211.5,-283.86)">
			<title>Sheet.130</title>
			<desc>D[7:0]</desc>
			<v:textBlock v:margins="rect(0,0,0,0)"/>
			<v:textRect cx="16.3125" cy="330.36" width="32.63" height="9"/>
			<path d="M32.62 325.86 L0 325.86 L0 334.86 L32.62 334.86 L32.62 325.86" class="st2"/>
			<text x="5.94" y="333.36" class="st3" v:langID="1033"><v:paragraph v:horizAlign="2"/><v:tabList/>D[7:0]</text>		</g>
		<g id="shape131-437" v:mID="131" v:groupContext="shape" transform="translate(231.75,-227.048)">
			<title>Sheet.131</title>
			<desc>S0</desc>
			<v:textBlock v:margins="rect(0,0,0,0)"/>
			<v:textRect cx="9" cy="330.36" width="18" height="9"/>
			<path d="M18 325.86 L0 325.86 L0 334.86 L18 334.86 L18 325.86" class="st2"/>
			<text x="0" y="333.36" class="st3" v:langID="1033"><v:paragraph/><v:tabList/>S0</text>		</g>
		<g id="shape132-441" v:mID="132" v:groupContext="shape" transform="translate(231.75,-238.86)">
			<title>Sheet.132</title>
			<desc>S1</desc>
			<v:textBlock v:margins="rect(0,0,0,0)"/>
			<v:textRect cx="9" cy="330.36" width="18" height="9"/>
			<path d="M18 325.86 L0 325.86 L0 334.86 L18 334.86 L18 325.86" class="st2"/>
			<text x="0" y="333.36" class="st3" v:langID="1033"><v:paragraph/><v:tabList/>S1</text>		</g>
		<g id="shape133-445" v:mID="133" v:groupContext="shape" transform="translate(399.656,-116.516)">
			<title>Circle.133</title>
			<v:userDefs>
				<v:ud v:nameU="visVersion" v:val="VT0(11):26"/>
			</v:userDefs>
			<path d="M0 334.02 a0.84375 0.84375 0 0 1 1.6875 0 a0.84375 0.84375 0 1 1 -1.6875 0 Z" class="st8"/>
		</g>
		<g id="shape134-447" v:mID="134" v:groupContext="shape" transform="translate(399.656,-110.048)">
			<title>Circle.134</title>
			<v:userDefs>
				<v:ud v:nameU="visVersion" v:val="VT0(11):26"/>
			</v:userDefs>
			<path d="M0 334.02 a0.84375 0.84375 0 0 1 1.6875 0 a0.84375 0.84375 0 1 1 -1.6875 0 Z" class="st8"/>
		</g>
		<g id="shape135-449" v:mID="135" v:groupContext="shape" transform="translate(399.656,-103.298)">
			<title>Circle.135</title>
			<v:userDefs>
				<v:ud v:nameU="visVersion" v:val="VT0(11):26"/>
			</v:userDefs>
			<path d="M0 334.02 a0.84375 0.84375 0 0 1 1.6875 0 a0.84375 0.84375 0 1 1 -1.6875 0 Z" class="st8"/>
		</g>
		<g id="shape136-451" v:mID="136" v:groupContext="shape" transform="translate(216,-164.61) scale(-1,1)">
			<title>45 degree single</title>
			<v:userDefs>
				<v:ud v:nameU="visVersion" v:val="VT0(11):26"/>
			</v:userDefs>
			<path d="M0 316.86 L16.2 298.86 L16.2 310.74 L36 310.74 L36 322.98 L16.2 322.98 L16.2 334.86 L0 316.86 Z" class="st9"/>
		</g>
		<g id="shape137-453" v:mID="137" v:groupContext="shape" transform="translate(21.375,-97.11)">
			<title>Sheet.137</title>
			<desc>S1</desc>
			<v:textBlock v:margins="rect(0,0,0,0)"/>
			<v:textRect cx="9" cy="330.36" width="18" height="9"/>
			<path d="M18 325.86 L0 325.86 L0 334.86 L18 334.86 L18 325.86" class="st2"/>
			<text x="0" y="333.36" class="st3" v:langID="1033"><v:paragraph/><v:tabList/>S1</text>		</g>
		<g id="shape138-457" v:mID="138" v:groupContext="shape" transform="translate(21.375,-82.485)">
			<title>Sheet.138</title>
			<desc>S0</desc>
			<v:textBlock v:margins="rect(0,0,0,0)"/>
			<v:textRect cx="9" cy="330.36" width="18" height="9"/>
			<path d="M18 325.86 L0 325.86 L0 334.86 L18 334.86 L18 325.86" class="st2"/>
			<text x="0" y="333.36" class="st3" v:langID="1033"><v:paragraph/><v:tabList/>S0</text>		</g>
	</g>
</svg>
