<?xml version="1.0" encoding="UTF-8" standalone="no"?>
<!DOCTYPE svg PUBLIC "-//W3C//DTD SVG 1.1//EN" "http://www.w3.org/Graphics/SVG/1.1/DTD/svg11.dtd">
<!-- Generated by Microsoft Visio, SVG Export flipflops.svg Page-1 -->
<svg xmlns="http://www.w3.org/2000/svg" xmlns:xlink="http://www.w3.org/1999/xlink"
     xmlns:ev="http://www.w3.org/2001/xml-events"
     xmlns:v="http://schemas.microsoft.com/visio/2003/SVGExtensions/" width="5.9575in" height="2.7075in"
     viewBox="0 0 428.94 194.94" xml:space="preserve" color-interpolation-filters="sRGB" class="st6">
	<v:documentProperties v:langID="1033" v:viewMarkup="false">
		<v:userDefs>
			<v:ud v:nameU="msvConvertTheme"/>
		</v:userDefs>
	</v:documentProperties>

    <style type="text/css">
	<![CDATA[
		.st1 {fill:#fddeb0;stroke:#000000;stroke-linecap:round;stroke-linejoin:round;stroke-width:0.24}
		.st2 {fill:none;stroke:none;stroke-linecap:round;stroke-linejoin:round;stroke-width:0.72}
		.st3 {fill:#000000;font-family:Arial;font-size:0.833336em}
		.st4 {stroke:#000000;stroke-linecap:round;stroke-linejoin:round;stroke-width:0.72}
		.st5 {stroke:#000000;stroke-dasharray:0,2.16;stroke-linecap:round;stroke-linejoin:round;stroke-width:0.72}
		.st6 {fill:none;fill-rule:evenodd;font-size:12px;overflow:visible;stroke-linecap:square;stroke-miterlimit:3}
	]]>
	</style>
    <rect width="100%" height="100%" fill="white"/>

    <g v:mID="0" v:index="1" v:groupContext="foregroundPage">
		<title>Page-1</title>
        <v:pageProperties v:drawingScale="1" v:pageScale="1" v:drawingUnits="19" v:shadowOffsetX="9"
                          v:shadowOffsetY="-9"/>
        <g id="shape70-1" v:mID="70" v:groupContext="shape" transform="translate(90.72,-135.72)">
			<title>Rectangle.70</title>
            <rect x="0" y="136.44" width="40.5" height="58.5" class="st1"/>
		</g>
        <g id="shape71-3" v:mID="71" v:groupContext="shape" transform="translate(90.72,-181.845)">
			<title>Sheet.71</title>
            <desc>J</desc>
            <v:textBlock v:margins="rect(4,4,4,4)"/>
            <v:textRect cx="7.875" cy="192.128" width="15.75" height="5.625"/>
            <rect x="0" y="189.315" width="15.75" height="5.625" class="st2"/>
            <text x="4" y="195.13" class="st3" v:langID="1033"><v:paragraph/>
                <v:tabList/>J</text>		</g>
        <g id="shape72-6" v:mID="72" v:groupContext="shape" transform="translate(90.72,220.41) rotate(180)">
			<title>Sheet.72</title>
            <path d="M0 194.94 L9 194.94" class="st4"/>
		</g>
        <g id="shape73-9" v:mID="73" v:groupContext="shape" transform="translate(94.095,-164.97)">
			<title>Sheet.73</title>
            <desc>CLK</desc>
            <v:textBlock v:margins="rect(4,4,4,4)"/>
            <v:textRect cx="14.0625" cy="191.565" width="28.13" height="6.75"/>
            <rect x="0" y="188.19" width="28.125" height="6.75" class="st2"/>
            <text x="4" y="194.57" class="st3" v:langID="1033"><v:paragraph/>
                <v:tabList/>CLK</text>		</g>
        <g id="shape74-12" v:mID="74" v:groupContext="shape" transform="translate(140.22,204.66) rotate(180)">
			<title>Sheet.74</title>
            <path d="M0 194.94 L9 194.94" class="st4"/>
		</g>
        <g id="shape75-15" v:mID="75" v:groupContext="shape" transform="translate(114.345,-176.22)">
			<title>Sheet.75</title>
            <desc>Q</desc>
            <v:textBlock v:margins="rect(4,4,4,4)"/>
            <v:textRect cx="8.4375" cy="185.94" width="16.88" height="18"/>
            <rect x="0" y="176.94" width="16.875" height="18" class="st2"/>
            <text x="4.55" y="188.94" class="st3" v:langID="1033"><v:paragraph v:horizAlign="1"/>
                <v:tabList/>Q</text>		</g>
        <g id="shape76-18" v:mID="76" v:groupContext="shape" transform="translate(-42.6234,163.313) rotate(-135)">
			<title>Sheet.76</title>
            <path d="M0 194.94 L6.36 194.94" class="st4"/>
		</g>
        <g id="shape77-21" v:mID="77" v:groupContext="shape" transform="translate(-47.1234,-107.873) rotate(-45)">
			<title>Sheet.77</title>
            <path d="M0 194.94 L6.36 194.94" class="st4"/>
		</g>
        <g id="shape78-24" v:mID="78" v:groupContext="shape" transform="translate(-83.97,68.22) rotate(-90)">
			<title>Sheet.78</title>
            <path d="M0 194.94 L9 194.94" class="st4"/>
		</g>
        <g id="shape79-27" v:mID="79" v:groupContext="shape" transform="translate(95.22,-135.72)">
			<title>Sheet.79</title>
            <desc>RST</desc>
            <v:textBlock v:margins="rect(4,4,4,4)"/>
            <v:textRect cx="18" cy="189.315" width="36" height="11.25"/>
            <rect x="0" y="183.69" width="36" height="11.25" class="st2"/>
            <text x="4" y="192.32" class="st3" v:langID="1033"><v:paragraph/>
                <v:tabList/>RST</text>		</g>
        <g id="shape80-30" v:mID="80" v:groupContext="shape" transform="translate(81.72,-126.72)">
			<title>Sheet.80</title>
            <path d="M0 194.94 L29.25 194.94" class="st4"/>
		</g>
        <g id="shape81-33" v:mID="81" v:groupContext="shape" transform="translate(90.72,204.66) rotate(180)">
			<title>Sheet.81</title>
            <path d="M0 194.94 L9 194.94" class="st4"/>
		</g>
        <g id="shape84-36" v:mID="84" v:groupContext="shape" transform="translate(90.72,-151.47)">
			<title>Sheet.84</title>
            <desc>K</desc>
            <v:textBlock v:margins="rect(4,4,4,4)"/>
            <v:textRect cx="7.875" cy="192.128" width="15.75" height="5.625"/>
            <rect x="0" y="189.315" width="15.75" height="5.625" class="st2"/>
            <text x="4" y="195.13" class="st3" v:langID="1033"><v:paragraph/>
                <v:tabList/>K</text>		</g>
        <g id="shape85-39" v:mID="85" v:groupContext="shape" transform="translate(90.72,236.16) rotate(180)">
			<title>Sheet.85</title>
            <path d="M0 194.94 L9 194.94" class="st4"/>
		</g>
        <g id="shape86-42" v:mID="86" v:groupContext="shape" transform="translate(324.72,-135.72)">
			<title>Rectangle.86</title>
            <rect x="0" y="136.44" width="40.5" height="58.5" class="st1"/>
		</g>
        <g id="shape87-44" v:mID="87" v:groupContext="shape" transform="translate(324.72,-181.845)">
			<title>Sheet.87</title>
            <desc>T</desc>
            <v:textBlock v:margins="rect(4,4,4,4)"/>
            <v:textRect cx="7.875" cy="192.128" width="15.75" height="5.625"/>
            <rect x="0" y="189.315" width="15.75" height="5.625" class="st2"/>
            <text x="4" y="195.13" class="st3" v:langID="1033"><v:paragraph/>
                <v:tabList/>T</text>		</g>
        <g id="shape88-47" v:mID="88" v:groupContext="shape" transform="translate(324.72,227.16) rotate(180)">
			<title>Sheet.88</title>
            <path d="M0 194.94 L9 194.94" class="st4"/>
		</g>
        <g id="shape89-50" v:mID="89" v:groupContext="shape" transform="translate(328.095,-158.22)">
			<title>Sheet.89</title>
            <desc>CLK</desc>
            <v:textBlock v:margins="rect(4,4,4,4)"/>
            <v:textRect cx="14.0625" cy="191.565" width="28.13" height="6.75"/>
            <rect x="0" y="188.19" width="28.125" height="6.75" class="st2"/>
            <text x="4" y="194.57" class="st3" v:langID="1033"><v:paragraph/>
                <v:tabList/>CLK</text>		</g>
        <g id="shape90-53" v:mID="90" v:groupContext="shape" transform="translate(378.72,204.66) rotate(180)">
			<title>Sheet.90</title>
            <path d="M0 194.94 L13.5 194.94" class="st4"/>
		</g>
        <g id="shape91-56" v:mID="91" v:groupContext="shape" transform="translate(348.345,-176.22)">
			<title>Sheet.91</title>
            <desc>Q</desc>
            <v:textBlock v:margins="rect(4,4,4,4)"/>
            <v:textRect cx="8.4375" cy="185.94" width="16.88" height="18"/>
            <rect x="0" y="176.94" width="16.875" height="18" class="st2"/>
            <text x="4.55" y="188.94" class="st3" v:langID="1033"><v:paragraph v:horizAlign="1"/>
                <v:tabList/>Q</text>		</g>
        <g id="shape92-59" v:mID="92" v:groupContext="shape" transform="translate(191.377,170.063) rotate(-135)">
			<title>Sheet.92</title>
            <path d="M0 194.94 L6.36 194.94" class="st4"/>
		</g>
        <g id="shape93-62" v:mID="93" v:groupContext="shape" transform="translate(186.877,-101.123) rotate(-45)">
			<title>Sheet.93</title>
            <path d="M0 194.94 L6.36 194.94" class="st4"/>
		</g>
        <g id="shape94-65" v:mID="94" v:groupContext="shape" transform="translate(150.03,68.22) rotate(-90)">
			<title>Sheet.94</title>
            <path d="M0 194.94 L9 194.94" class="st4"/>
		</g>
        <g id="shape95-68" v:mID="95" v:groupContext="shape" transform="translate(329.22,-135.72)">
			<title>Sheet.95</title>
            <desc>RST</desc>
            <v:textBlock v:margins="rect(4,4,4,4)"/>
            <v:textRect cx="18" cy="189.315" width="36" height="11.25"/>
            <rect x="0" y="183.69" width="36" height="11.25" class="st2"/>
            <text x="4" y="192.32" class="st3" v:langID="1033"><v:paragraph/>
                <v:tabList/>RST</text>		</g>
        <g id="shape96-71" v:mID="96" v:groupContext="shape" transform="translate(315.72,-126.72)">
			<title>Sheet.96</title>
            <path d="M0 194.94 L29.25 194.94" class="st4"/>
		</g>
        <g id="shape97-74" v:mID="97" v:groupContext="shape" transform="translate(324.72,204.66) rotate(180)">
			<title>Sheet.97</title>
            <path d="M0 194.94 L9 194.94" class="st4"/>
		</g>
        <g id="shape100-77" v:mID="100" v:groupContext="shape" transform="translate(267.66,99.72) rotate(90)">
			<title>Sheet.100</title>
            <path d="M0 194.94 L94.5 194.94" class="st5"/>
		</g>
        <g id="shape82-80" v:mID="82" v:groupContext="shape" transform="translate(59.22,-95.22)">
			<title>Sheet.82</title>
            <path d="M0 194.94 L13.5 194.94 L13.5 181.44 L27 181.44 L27 194.94" class="st4"/>
		</g>
        <g id="shape83-83" v:mID="83" v:groupContext="shape" transform="translate(86.22,-95.22)">
			<title>Sheet.83</title>
            <path d="M0 194.94 L13.5 194.94 L13.5 181.44 L27 181.44 L27 194.94" class="st4"/>
		</g>
        <g id="shape136-86" v:mID="136" v:groupContext="shape" transform="translate(113.22,-95.22)">
			<title>Sheet.136</title>
            <path d="M0 194.94 L13.5 194.94 L13.5 181.44 L27 181.44 L27 194.94" class="st4"/>
		</g>
        <g id="shape137-89" v:mID="137" v:groupContext="shape" transform="translate(140.22,-95.22)">
			<title>Sheet.137</title>
            <path d="M0 194.94 L13.5 194.94 L13.5 181.44 L27 181.44 L27 194.94" class="st4"/>
		</g>
        <g id="shape138-92" v:mID="138" v:groupContext="shape" transform="translate(167.22,-95.22)">
			<title>Sheet.138</title>
            <path d="M0 194.94 L13.5 194.94 L13.5 181.44 L27 181.44 L27 194.94" class="st4"/>
		</g>
        <g id="shape139-95" v:mID="139" v:groupContext="shape" transform="translate(32.22,-95.22)">
			<title>Sheet.139</title>
            <path d="M0 194.94 L13.5 194.94 L13.5 181.44 L27 181.44 L27 194.94" class="st4"/>
		</g>
        <g id="shape106-98" v:mID="106" v:groupContext="shape" transform="translate(0.72,-95.22)">
			<title>Sheet.106</title>
            <desc>CLK</desc>
            <v:textBlock v:margins="rect(4,4,4,4)"/>
            <v:textRect cx="15.75" cy="188.19" width="31.5" height="13.5"/>
            <rect x="0" y="181.44" width="31.5" height="13.5" class="st2"/>
            <text x="8.05" y="191.19" class="st3" v:langID="1033"><v:paragraph v:horizAlign="2"/>
                <v:tabList/>CLK</text>		</g>
        <g id="shape107-101" v:mID="107" v:groupContext="shape" transform="translate(32.22,-50.22)">
			<title>Sheet.107</title>
            <path d="M0 194.94 L27 194.94 L27 181.44 L54 181.44 L54 194.94 L108 194.94 L108 181.44 L135 181.44 L135 194.94 L162 194.94"
                  class="st4"/>
		</g>
        <g id="shape108-104" v:mID="108" v:groupContext="shape" transform="translate(32.22,-27.72)">
			<title>Sheet.108</title>
            <path d="M0 194.94 L54 194.94 L54 181.44 L81 181.44 L81 194.94 L108 194.94 L108 181.44 L135 181.44 L135 194.94 L162 194.94"
                  class="st4"/>
		</g>
        <g id="shape141-107" v:mID="141" v:groupContext="shape" transform="translate(32.22,-5.22)">
			<title>Sheet.141</title>
            <path d="M0 194.94 L13.5 194.94" class="st4"/>
		</g>
        <g id="shape142-110" v:mID="142" v:groupContext="shape" transform="translate(45.72,-5.22)">
			<title>Sheet.142</title>
            <path d="M0 194.94 L27 194.94 L27 181.44 L54 181.44 L54 194.94 L108 194.94 L108 181.44 L148.5 181.44"
                  class="st4"/>
		</g>
        <g id="shape143-113" v:mID="143" v:groupContext="shape" transform="translate(0.72,-50.22)">
			<title>Sheet.143</title>
            <desc>J</desc>
            <v:textBlock v:margins="rect(4,4,4,4)"/>
            <v:textRect cx="15.75" cy="188.19" width="31.5" height="13.5"/>
            <rect x="0" y="181.44" width="31.5" height="13.5" class="st2"/>
            <text x="22.5" y="191.19" class="st3" v:langID="1033"><v:paragraph v:horizAlign="2"/>
                <v:tabList/>J</text>		</g>
        <g id="shape144-116" v:mID="144" v:groupContext="shape" transform="translate(0.72,-27.72)">
			<title>Sheet.144</title>
            <desc>K</desc>
            <v:textBlock v:margins="rect(4,4,4,4)"/>
            <v:textRect cx="15.75" cy="188.19" width="31.5" height="13.5"/>
            <rect x="0" y="181.44" width="31.5" height="13.5" class="st2"/>
            <text x="20.83" y="191.19" class="st3" v:langID="1033"><v:paragraph v:horizAlign="2"/>
                <v:tabList/>K</text>		</g>
        <g id="shape145-119" v:mID="145" v:groupContext="shape" transform="translate(0.72,-5.22)">
			<title>Sheet.145</title>
            <desc>Q</desc>
            <v:textBlock v:margins="rect(4,4,4,4)"/>
            <v:textRect cx="15.75" cy="188.19" width="31.5" height="13.5"/>
            <rect x="0" y="181.44" width="31.5" height="13.5" class="st2"/>
            <text x="19.72" y="191.19" class="st3" v:langID="1033"><v:paragraph v:horizAlign="2"/>
                <v:tabList/>Q</text>		</g>
        <g id="shape153-122" v:mID="153" v:groupContext="shape" transform="translate(32.22,-5.22)">
			<title>Sheet.153</title>
            <path d="M0 181.44 L2.25 194.94 L4.5 181.44 L6.75 194.94 L9 181.44 L11.25 194.94 L13.5 181.44 L15.75 194.94 L18 181.44"
                  class="st4"/>
		</g>
        <g id="shape154-125" v:mID="154" v:groupContext="shape" transform="translate(32.22,-5.22)">
			<title>Sheet.154</title>
            <path d="M0 194.94 L2.25 181.44 L4.5 194.94 L6.75 181.44 L9 194.94 L11.25 181.44 L13.5 194.94" class="st4"/>
		</g>
        <g id="shape150-128" v:mID="150" v:groupContext="shape" transform="translate(32.22,-5.22)">
			<title>Sheet.150</title>
            <path d="M0 181.44 L18 181.44 L18 194.94" class="st4"/>
		</g>
        <g id="shape151-131" v:mID="151" v:groupContext="shape" transform="translate(294.66,99.72) rotate(90)">
			<title>Sheet.151</title>
            <path d="M0 194.94 L94.5 194.94" class="st5"/>
		</g>
        <g id="shape152-134" v:mID="152" v:groupContext="shape" transform="translate(321.66,99.72) rotate(90)">
			<title>Sheet.152</title>
            <path d="M0 194.94 L94.5 194.94" class="st5"/>
		</g>
        <g id="shape155-137" v:mID="155" v:groupContext="shape" transform="translate(348.66,99.72) rotate(90)">
			<title>Sheet.155</title>
            <path d="M0 194.94 L94.5 194.94" class="st5"/>
		</g>
        <g id="shape156-140" v:mID="156" v:groupContext="shape" transform="translate(375.66,99.72) rotate(90)">
			<title>Sheet.156</title>
            <path d="M0 194.94 L94.5 194.94" class="st5"/>
		</g>
        <g id="shape157-143" v:mID="157" v:groupContext="shape" transform="translate(32.22,-72.72)">
			<title>Sheet.157</title>
            <path d="M0 194.94 L18 194.94 L18 181.44 L27 181.44 L27 194.94 L162 194.94" class="st4"/>
		</g>
        <g id="shape158-146" v:mID="158" v:groupContext="shape" transform="translate(0.72,-72.72)">
			<title>Sheet.158</title>
            <desc>RST</desc>
            <v:textBlock v:margins="rect(4,4,4,4)"/>
            <v:textRect cx="15.75" cy="188.19" width="31.5" height="13.5"/>
            <rect x="0" y="181.44" width="31.5" height="13.5" class="st2"/>
            <text x="7.5" y="191.19" class="st3" v:langID="1033"><v:paragraph v:horizAlign="2"/>
                <v:tabList/>RST</text>		</g>
        <g id="shape159-149" v:mID="159" v:groupContext="shape" transform="translate(45.72,-5.22)">
			<title>Sheet.159</title>
            <path d="M0 194.94 L2.25 181.44 L4.5 194.94" class="st4"/>
		</g>
        <g id="shape160-152" v:mID="160" v:groupContext="shape" transform="translate(245.16,110.97) rotate(90)">
			<title>Sheet.160</title>
            <path d="M0 194.94 L83.25 194.94" class="st5"/>
		</g>
        <g id="shape140-155" v:mID="140" v:groupContext="shape" transform="translate(293.22,-95.22)">
			<title>Sheet.140</title>
            <path d="M0 194.94 L13.5 194.94 L13.5 181.44 L27 181.44 L27 194.94" class="st4"/>
		</g>
        <g id="shape161-158" v:mID="161" v:groupContext="shape" transform="translate(320.22,-95.22)">
			<title>Sheet.161</title>
            <path d="M0 194.94 L13.5 194.94 L13.5 181.44 L27 181.44 L27 194.94" class="st4"/>
		</g>
        <g id="shape162-161" v:mID="162" v:groupContext="shape" transform="translate(347.22,-95.22)">
			<title>Sheet.162</title>
            <path d="M0 194.94 L13.5 194.94 L13.5 181.44 L27 181.44 L27 194.94" class="st4"/>
		</g>
        <g id="shape163-164" v:mID="163" v:groupContext="shape" transform="translate(374.22,-95.22)">
			<title>Sheet.163</title>
            <path d="M0 194.94 L13.5 194.94 L13.5 181.44 L27 181.44 L27 194.94" class="st4"/>
		</g>
        <g id="shape164-167" v:mID="164" v:groupContext="shape" transform="translate(401.22,-95.22)">
			<title>Sheet.164</title>
            <path d="M0 194.94 L13.5 194.94 L13.5 181.44 L27 181.44 L27 194.94" class="st4"/>
		</g>
        <g id="shape165-170" v:mID="165" v:groupContext="shape" transform="translate(266.22,-95.22)">
			<title>Sheet.165</title>
            <path d="M0 194.94 L13.5 194.94 L13.5 181.44 L27 181.44 L27 194.94" class="st4"/>
		</g>
        <g id="shape166-173" v:mID="166" v:groupContext="shape" transform="translate(234.72,-95.22)">
			<title>Sheet.166</title>
            <desc>CLK</desc>
            <v:textBlock v:margins="rect(4,4,4,4)"/>
            <v:textRect cx="15.75" cy="188.19" width="31.5" height="13.5"/>
            <rect x="0" y="181.44" width="31.5" height="13.5" class="st2"/>
            <text x="8.05" y="191.19" class="st3" v:langID="1033"><v:paragraph v:horizAlign="2"/>
                <v:tabList/>CLK</text>		</g>
        <g id="shape167-176" v:mID="167" v:groupContext="shape" transform="translate(266.22,-27.72)">
			<title>Sheet.167</title>
            <path d="M0 194.94 L40.5 194.94 L40.5 181.44 L67.5 181.44 L67.5 194.94 L121.5 194.94 L121.5 181.44 L162 181.44"
                  class="st4"/>
		</g>
        <g id="shape168-179" v:mID="168" v:groupContext="shape" transform="translate(234.72,-27.72)">
			<title>Sheet.168</title>
            <desc>Q</desc>
            <v:textBlock v:margins="rect(4,4,4,4)"/>
            <v:textRect cx="15.75" cy="188.19" width="31.5" height="13.5"/>
            <rect x="0" y="181.44" width="31.5" height="13.5" class="st2"/>
            <text x="19.72" y="191.19" class="st3" v:langID="1033"><v:paragraph v:horizAlign="2"/>
                <v:tabList/>Q</text>		</g>
        <g id="shape169-182" v:mID="169" v:groupContext="shape" transform="translate(266.22,-72.72)">
			<title>Sheet.169</title>
            <path d="M0 194.94 L18 194.94 L18 181.44 L27 181.44 L27 194.94 L162 194.94" class="st4"/>
		</g>
        <g id="shape170-185" v:mID="170" v:groupContext="shape" transform="translate(234.72,-72.72)">
			<title>Sheet.170</title>
            <desc>RST</desc>
            <v:textBlock v:margins="rect(4,4,4,4)"/>
            <v:textRect cx="15.75" cy="188.19" width="31.5" height="13.5"/>
            <rect x="0" y="181.44" width="31.5" height="13.5" class="st2"/>
            <text x="7.5" y="191.19" class="st3" v:langID="1033"><v:paragraph v:horizAlign="2"/>
                <v:tabList/>RST</text>		</g>
        <g id="shape171-188" v:mID="171" v:groupContext="shape" transform="translate(266.22,-50.22)">
			<title>Sheet.171</title>
            <path d="M0 194.94 L27 194.94 L27 181.44 L81 181.44 L81 194.94 L108 194.94 L108 181.44 L135 181.44 L135 194.94 L162 194.94"
                  class="st4"/>
		</g>
        <g id="shape172-191" v:mID="172" v:groupContext="shape" transform="translate(234.72,-50.22)">
			<title>Sheet.172</title>
            <desc>T</desc>
            <v:textBlock v:margins="rect(4,4,4,4)"/>
            <v:textRect cx="15.75" cy="188.19" width="31.5" height="13.5"/>
            <rect x="0" y="181.44" width="31.5" height="13.5" class="st2"/>
            <text x="21.39" y="191.19" class="st3" v:langID="1033"><v:paragraph v:horizAlign="2"/>
                <v:tabList/>T</text>		</g>
        <g id="shape173-194" v:mID="173" v:groupContext="shape" transform="translate(266.22,-27.72)">
			<title>Sheet.173</title>
            <path d="M0 194.94 L13.5 194.94" class="st4"/>
		</g>
        <g id="shape174-197" v:mID="174" v:groupContext="shape" transform="translate(266.22,-27.72)">
			<title>Sheet.174</title>
            <path d="M0 181.44 L2.25 194.94 L4.5 181.44 L6.75 194.94 L9 181.44 L11.25 194.94 L13.5 181.44 L15.75 194.94 L18 181.44"
                  class="st4"/>
		</g>
        <g id="shape175-200" v:mID="175" v:groupContext="shape" transform="translate(266.22,-27.72)">
			<title>Sheet.175</title>
            <path d="M0 194.94 L2.25 181.44 L4.5 194.94 L6.75 181.44 L9 194.94 L11.25 181.44 L13.5 194.94" class="st4"/>
		</g>
        <g id="shape176-203" v:mID="176" v:groupContext="shape" transform="translate(266.22,-27.72)">
			<title>Sheet.176</title>
            <path d="M0 181.44 L18 181.44 L18 194.94" class="st4"/>
		</g>
        <g id="shape177-206" v:mID="177" v:groupContext="shape" transform="translate(279.72,-27.72)">
			<title>Sheet.177</title>
            <path d="M0 194.94 L2.25 181.44 L4.5 194.94" class="st4"/>
		</g>
        <g id="shape178-209" v:mID="178" v:groupContext="shape" transform="translate(479.16,113.22) rotate(90)">
			<title>Sheet.178</title>
            <path d="M0 194.94 L54 194.94" class="st5"/>
		</g>
        <g id="shape179-212" v:mID="179" v:groupContext="shape" transform="translate(501.66,95.22) rotate(90)">
			<title>Sheet.179</title>
            <path d="M0 194.94 L76.5 194.94" class="st5"/>
		</g>
        <g id="shape180-215" v:mID="180" v:groupContext="shape" transform="translate(528.66,95.22) rotate(90)">
			<title>Sheet.180</title>
            <path d="M0 194.94 L76.5 194.94" class="st5"/>
		</g>
        <g id="shape181-218" v:mID="181" v:groupContext="shape" transform="translate(555.66,95.22) rotate(90)">
			<title>Sheet.181</title>
            <path d="M0 194.94 L76.5 194.94" class="st5"/>
		</g>
        <g id="shape182-221" v:mID="182" v:groupContext="shape" transform="translate(582.66,95.22) rotate(90)">
			<title>Sheet.182</title>
            <path d="M0 194.94 L76.5 194.94" class="st5"/>
		</g>
        <g id="shape183-224" v:mID="183" v:groupContext="shape" transform="translate(609.66,95.22) rotate(90)">
			<title>Sheet.183</title>
            <path d="M0 194.94 L76.5 194.94" class="st5"/>
		</g>
	</g>
</svg>

