<svg xmlns="http://www.w3.org/2000/svg" viewBox="0 0 369.08 249.46"><defs><style>.a{fill:#fff;}.a,.c,.d{stroke:#231f20;stroke-miterlimit:10;}.b{fill:#231f20;}.d{fill:none;}</style></defs><title>SwimlaneActivity</title><rect class="a" x="0.5" y="0.5" width="122.69" height="248.46"/><rect class="a" x="123.19" y="0.5" width="122.69" height="248.46"/><rect class="a" x="245.88" y="0.5" width="122.69" height="248.46"/><path class="b" d="M93,131.13H90.9v-8.72H93v.46H91.38v7.8H93Z"/><path class="b" d="M94.06,122.77c0-.31.1-.47.31-.47a.29.29,0,0,1,.24.12.67.67,0,0,1,.08.35.66.66,0,0,1-.08.34.27.27,0,0,1-.24.13C94.16,123.24,94.06,123.08,94.06,122.77Zm.55,6.78h-.48v-5.31h.48Z"/><path class="b" d="M100.09,129.55v-3.44a1.67,1.67,0,0,0-.34-1.17,1.35,1.35,0,0,0-1-.36,1.79,1.79,0,0,0-1.39.48,2.24,2.24,0,0,0-.45,1.56v2.93h-.48v-5.31h.41l.09.73h0a2,2,0,0,1,1.84-.83c1.21,0,1.81.65,1.81,1.94v3.47Z"/><path class="b" d="M103.45,129.55l-2-5.31h.5l1.37,3.61a11.57,11.57,0,0,1,.41,1.21h0c.13-.44.27-.85.41-1.22l1.37-3.6h.5l-2,5.31Z"/><path class="b" d="M110.1,129.55l-.12-.84h0a2.54,2.54,0,0,1-.82.72,2.11,2.11,0,0,1-1,.22,1.77,1.77,0,0,1-1.22-.4,1.44,1.44,0,0,1-.43-1.11,1.36,1.36,0,0,1,.65-1.21,3.6,3.6,0,0,1,1.87-.45l1,0v-.35a1.74,1.74,0,0,0-.31-1.14,1.17,1.17,0,0,0-1-.39,3.38,3.38,0,0,0-1.53.41l-.18-.42a4.09,4.09,0,0,1,1.73-.41,1.75,1.75,0,0,1,1.31.45,2,2,0,0,1,.43,1.42v3.53Zm-1.95-.34a1.69,1.69,0,0,0,1.83-1.84v-.52l-.93,0a3.53,3.53,0,0,0-1.59.35,1,1,0,0,0-.48.92,1,1,0,0,0,.31.77A1.2,1.2,0,0,0,108.15,129.21Z"/><path class="b" d="M112.66,129.55h-.48V122h.48Z"/><path class="b" d="M114.37,122.77c0-.31.1-.47.31-.47a.26.26,0,0,1,.23.12.58.58,0,0,1,.09.35.57.57,0,0,1-.09.34.25.25,0,0,1-.23.13C114.47,123.24,114.37,123.08,114.37,122.77Zm.55,6.78h-.48v-5.31h.48Z"/><path class="b" d="M118.64,124.14a2.2,2.2,0,0,1,1,.21,2,2,0,0,1,.75.72h0c0-.41,0-.81,0-1.21V122h.48v7.6h-.32l-.12-.81h0a2,2,0,0,1-1.74.91A2.08,2.08,0,0,1,117,129a3,3,0,0,1-.58-2,3.26,3.26,0,0,1,.58-2.1A2,2,0,0,1,118.64,124.14Zm0,.44a1.51,1.51,0,0,0-1.31.61,3,3,0,0,0-.43,1.77c0,1.51.58,2.26,1.75,2.26a1.62,1.62,0,0,0,1.32-.52,2.8,2.8,0,0,0,.42-1.73v-.08a3,3,0,0,0-.41-1.77A1.58,1.58,0,0,0,118.64,124.58Z"/><path class="b" d="M127.19,124.14a2.23,2.23,0,0,1,1,.21,2,2,0,0,1,.75.72h0c0-.41,0-.81,0-1.21V122h.48v7.6h-.32l-.12-.81h0a2,2,0,0,1-1.74.91,2.08,2.08,0,0,1-1.68-.69,3,3,0,0,1-.58-2,3.26,3.26,0,0,1,.58-2.1A2,2,0,0,1,127.19,124.14Zm0,.44a1.48,1.48,0,0,0-1.3.61,3,3,0,0,0-.44,1.77c0,1.51.58,2.26,1.75,2.26a1.62,1.62,0,0,0,1.32-.52,2.8,2.8,0,0,0,.42-1.73v-.08a3,3,0,0,0-.41-1.77A1.58,1.58,0,0,0,127.19,124.58Z"/><path class="b" d="M134.42,129.55l-.12-.84h0a2.54,2.54,0,0,1-.82.72,2.11,2.11,0,0,1-1,.22,1.73,1.73,0,0,1-1.21-.4,1.41,1.41,0,0,1-.44-1.11,1.38,1.38,0,0,1,.65-1.21,3.6,3.6,0,0,1,1.87-.45l1,0v-.35A1.74,1.74,0,0,0,134,125a1.17,1.17,0,0,0-1-.39,3.38,3.38,0,0,0-1.53.41l-.18-.42a4.13,4.13,0,0,1,1.73-.41,1.75,1.75,0,0,1,1.31.45,2,2,0,0,1,.43,1.42v3.53Zm-1.95-.34a1.69,1.69,0,0,0,1.83-1.84v-.52l-.93,0a3.53,3.53,0,0,0-1.59.35,1,1,0,0,0-.48.92,1,1,0,0,0,.31.77A1.2,1.2,0,0,0,132.47,129.21Z"/><path class="b" d="M137.9,129.22a3.73,3.73,0,0,0,.8-.08v.39a2.47,2.47,0,0,1-.81.12,1.32,1.32,0,0,1-1-.38,1.75,1.75,0,0,1-.33-1.18v-3.43h-.79v-.28l.79-.22.24-1.2H137v1.28h1.56v.42H137V128a1.51,1.51,0,0,0,.22.91A.78.78,0,0,0,137.9,129.22Z"/><path class="b" d="M143.07,129.55l-.12-.84h0a2.54,2.54,0,0,1-.82.72,2.11,2.11,0,0,1-1,.22,1.77,1.77,0,0,1-1.22-.4,1.44,1.44,0,0,1-.43-1.11,1.37,1.37,0,0,1,.64-1.21,3.66,3.66,0,0,1,1.88-.45l1,0v-.35a1.74,1.74,0,0,0-.31-1.14,1.17,1.17,0,0,0-1-.39,3.38,3.38,0,0,0-1.53.41l-.18-.42a4.09,4.09,0,0,1,1.73-.41,1.71,1.71,0,0,1,1.3.45,2,2,0,0,1,.44,1.42v3.53Zm-1.95-.34a1.81,1.81,0,0,0,1.34-.49,1.79,1.79,0,0,0,.49-1.35v-.52l-.93,0a3.49,3.49,0,0,0-1.59.35,1,1,0,0,0-.48.92,1,1,0,0,0,.31.77A1.2,1.2,0,0,0,141.12,129.21Z"/><path class="b" d="M144.51,130.67h1.61v-7.8h-1.61v-.46h2.09v8.72h-2.09Z"/><path class="b" d="M224.11,131.13H222v-8.72h2.09v.46H222.5v7.8h1.61Z"/><path class="b" d="M226.41,129.55l-2-5.31h.5l1.37,3.61a11.57,11.57,0,0,1,.41,1.21h0c.13-.44.27-.85.41-1.22l1.37-3.6h.5l-2,5.31Z"/><path class="b" d="M233.06,129.55l-.12-.84h0a2.54,2.54,0,0,1-.82.72,2.14,2.14,0,0,1-1,.22,1.77,1.77,0,0,1-1.22-.4,1.44,1.44,0,0,1-.43-1.11,1.37,1.37,0,0,1,.64-1.21,3.66,3.66,0,0,1,1.88-.45l1,0v-.35a1.74,1.74,0,0,0-.31-1.14,1.2,1.2,0,0,0-1-.39,3.38,3.38,0,0,0-1.53.41l-.18-.42a4.09,4.09,0,0,1,1.73-.41,1.71,1.71,0,0,1,1.3.45,2,2,0,0,1,.44,1.42v3.53Zm-1.95-.34a1.69,1.69,0,0,0,1.83-1.84v-.52l-.93,0a3.49,3.49,0,0,0-1.59.35,1,1,0,0,0-.48.92,1,1,0,0,0,.31.77A1.2,1.2,0,0,0,231.11,129.21Z"/><path class="b" d="M235.62,129.55h-.48V122h.48Z"/><path class="b" d="M237.33,122.77c0-.31.1-.47.31-.47a.26.26,0,0,1,.23.12.58.58,0,0,1,.09.35.57.57,0,0,1-.09.34.25.25,0,0,1-.23.13C237.43,123.24,237.33,123.08,237.33,122.77Zm.55,6.78h-.48v-5.31h.48Z"/><path class="b" d="M241.6,124.14a2.23,2.23,0,0,1,1,.21,2,2,0,0,1,.75.72h0c0-.41,0-.81,0-1.21V122h.48v7.6h-.32l-.12-.81h0a2,2,0,0,1-1.74.91,2.08,2.08,0,0,1-1.68-.69,3,3,0,0,1-.58-2,3.26,3.26,0,0,1,.58-2.1A2,2,0,0,1,241.6,124.14Zm0,.44a1.51,1.51,0,0,0-1.31.61,3,3,0,0,0-.43,1.77c0,1.51.58,2.26,1.75,2.26a1.62,1.62,0,0,0,1.32-.52,2.8,2.8,0,0,0,.42-1.73v-.08a3,3,0,0,0-.41-1.77A1.58,1.58,0,0,0,241.6,124.58Z"/><path class="b" d="M250.15,124.14a2.23,2.23,0,0,1,1,.21,2,2,0,0,1,.75.72h0c0-.41,0-.81,0-1.21V122h.48v7.6h-.32l-.12-.81h0a2,2,0,0,1-1.74.91,2.08,2.08,0,0,1-1.68-.69,3,3,0,0,1-.58-2,3.26,3.26,0,0,1,.58-2.1A2,2,0,0,1,250.15,124.14Zm0,.44a1.51,1.51,0,0,0-1.31.61,3,3,0,0,0-.43,1.77c0,1.51.58,2.26,1.75,2.26a1.62,1.62,0,0,0,1.32-.52,2.8,2.8,0,0,0,.42-1.73v-.08a3,3,0,0,0-.41-1.77A1.58,1.58,0,0,0,250.15,124.58Z"/><path class="b" d="M257.38,129.55l-.12-.84h0a2.54,2.54,0,0,1-.82.72,2.11,2.11,0,0,1-1,.22,1.77,1.77,0,0,1-1.22-.4,1.44,1.44,0,0,1-.43-1.11,1.36,1.36,0,0,1,.65-1.21,3.6,3.6,0,0,1,1.87-.45l1,0v-.35A1.74,1.74,0,0,0,257,125a1.17,1.17,0,0,0-1-.39,3.38,3.38,0,0,0-1.53.41l-.18-.42a4.09,4.09,0,0,1,1.73-.41,1.75,1.75,0,0,1,1.31.45,2.06,2.06,0,0,1,.43,1.42v3.53Zm-1.95-.34a1.81,1.81,0,0,0,1.34-.49,1.79,1.79,0,0,0,.49-1.35v-.52l-.93,0a3.53,3.53,0,0,0-1.59.35,1,1,0,0,0-.48.92,1,1,0,0,0,.31.77A1.2,1.2,0,0,0,255.43,129.21Z"/><path class="b" d="M260.86,129.22a3.8,3.8,0,0,0,.8-.08v.39a2.55,2.55,0,0,1-.81.12,1.32,1.32,0,0,1-1-.38,1.75,1.75,0,0,1-.33-1.18v-3.43h-.79v-.28l.79-.22.24-1.2H260v1.28h1.56v.42H260V128a1.59,1.59,0,0,0,.21.91A.81.81,0,0,0,260.86,129.22Z"/><path class="b" d="M266,129.55l-.12-.84h0a2.47,2.47,0,0,1-.83.72,2.07,2.07,0,0,1-1,.22,1.77,1.77,0,0,1-1.22-.4,1.44,1.44,0,0,1-.43-1.11,1.37,1.37,0,0,1,.64-1.21,3.64,3.64,0,0,1,1.88-.45l1,0v-.35a1.8,1.8,0,0,0-.31-1.14,1.2,1.2,0,0,0-1-.39,3.38,3.38,0,0,0-1.53.41l-.18-.42a4.09,4.09,0,0,1,1.73-.41,1.71,1.71,0,0,1,1.3.45,2,2,0,0,1,.44,1.42v3.53Zm-1.95-.34a1.69,1.69,0,0,0,1.83-1.84v-.52l-.93,0a3.54,3.54,0,0,0-1.6.35,1,1,0,0,0-.47.92,1,1,0,0,0,.3.77A1.23,1.23,0,0,0,264.08,129.21Z"/><path class="b" d="M267.46,130.67h1.62v-7.8h-1.62v-.46h2.09v8.72h-2.09Z"/><rect class="a" x="11.85" y="63.48" width="100" height="37.17" rx="12"/><path class="b" d="M44.18,72.21a2.7,2.7,0,0,0-2.11.86,3.41,3.41,0,0,0-.77,2.35A3.53,3.53,0,0,0,42,77.8a2.58,2.58,0,0,0,2.08.84,5.4,5.4,0,0,0,1.65-.23v.44A5.31,5.31,0,0,1,44,79.1a3,3,0,0,1-2.37-1,3.93,3.93,0,0,1-.86-2.72,4.23,4.23,0,0,1,.41-1.92,3,3,0,0,1,1.19-1.28,3.47,3.47,0,0,1,1.79-.45,4.28,4.28,0,0,1,1.87.39l-.2.45A3.6,3.6,0,0,0,44.18,72.21Z"/><path class="b" d="M51.62,76.34a3,3,0,0,1-.63,2,2.42,2.42,0,0,1-3,.39,2.1,2.1,0,0,1-.82-1,3.52,3.52,0,0,1-.28-1.46,3,3,0,0,1,.63-2,2.15,2.15,0,0,1,1.73-.73,2.11,2.11,0,0,1,1.71.74A3,3,0,0,1,51.62,76.34Zm-4.19,0a2.72,2.72,0,0,0,.48,1.71,1.82,1.82,0,0,0,2.72,0,2.72,2.72,0,0,0,.48-1.71,2.61,2.61,0,0,0-.49-1.7,1.82,1.82,0,0,0-2.72,0A2.73,2.73,0,0,0,47.43,76.34Z"/><path class="b" d="M59.72,79V75.52a1.68,1.68,0,0,0-.31-1.13,1.13,1.13,0,0,0-.92-.36,1.51,1.51,0,0,0-1.21.45,2.12,2.12,0,0,0-.39,1.41V79H56.4V75.37c0-.89-.41-1.34-1.23-1.34a1.43,1.43,0,0,0-1.22.49,2.54,2.54,0,0,0-.38,1.55V79h-.48V73.7h.4l.1.72h0a1.46,1.46,0,0,1,.62-.61,1.82,1.82,0,0,1,.9-.22,1.54,1.54,0,0,1,1.61.94h0a1.76,1.76,0,0,1,.69-.69,2,2,0,0,1,1-.25,1.69,1.69,0,0,1,1.3.47,2.1,2.1,0,0,1,.43,1.47V79Z"/><path class="b" d="M64.18,79.1a1.94,1.94,0,0,1-1.78-.92h0l0,.41c0,.24,0,.51,0,.79v2h-.49V73.7h.41l.1.75h0a1.91,1.91,0,0,1,1.74-.86,2,2,0,0,1,1.64.71,3.19,3.19,0,0,1,.57,2,3.09,3.09,0,0,1-.6,2A2,2,0,0,1,64.18,79.1Zm0-.43a1.49,1.49,0,0,0,1.27-.6,2.89,2.89,0,0,0,.44-1.7c0-1.56-.56-2.34-1.69-2.34a1.7,1.7,0,0,0-1.36.51,2.56,2.56,0,0,0-.43,1.66v.16a2.93,2.93,0,0,0,.42,1.78A1.62,1.62,0,0,0,64.17,78.67Z"/><path class="b" d="M68.35,79h-.48V71.41h.48Z"/><path class="b" d="M72.27,79.1a2.32,2.32,0,0,1-1.8-.71,2.83,2.83,0,0,1-.65-2,3.13,3.13,0,0,1,.62-2,2.08,2.08,0,0,1,1.69-.77,1.82,1.82,0,0,1,1.48.66A2.69,2.69,0,0,1,74.15,76v.39H70.33a2.44,2.44,0,0,0,.51,1.67,1.77,1.77,0,0,0,1.43.58,3.64,3.64,0,0,0,1.67-.34v.44a4.18,4.18,0,0,1-.83.27A4.32,4.32,0,0,1,72.27,79.1ZM72.13,74a1.58,1.58,0,0,0-1.23.51A2.34,2.34,0,0,0,70.36,76h3.28a2.38,2.38,0,0,0-.4-1.45A1.35,1.35,0,0,0,72.13,74Z"/><path class="b" d="M77,78.67a3.8,3.8,0,0,0,.8-.08V79a2.55,2.55,0,0,1-.81.12,1.29,1.29,0,0,1-1-.38,1.75,1.75,0,0,1-.34-1.18V74.11h-.78v-.28l.78-.22.25-1.2h.25V73.7h1.56v.41H76.13v3.36a1.59,1.59,0,0,0,.21.91A.81.81,0,0,0,77,78.67Z"/><path class="b" d="M81.11,79.1a2.34,2.34,0,0,1-1.81-.71,2.88,2.88,0,0,1-.64-2,3.13,3.13,0,0,1,.62-2A2.08,2.08,0,0,1,81,73.59a1.83,1.83,0,0,1,1.48.66A2.69,2.69,0,0,1,83,76v.39H79.16a2.49,2.49,0,0,0,.52,1.67,1.77,1.77,0,0,0,1.43.58,3.64,3.64,0,0,0,1.67-.34v.44A4.18,4.18,0,0,1,82,79,4.46,4.46,0,0,1,81.11,79.1ZM81,74a1.58,1.58,0,0,0-1.23.51A2.41,2.41,0,0,0,79.19,76h3.29a2.31,2.31,0,0,0-.41-1.45A1.32,1.32,0,0,0,81,74Z"/><path class="b" d="M27,85.59a3.8,3.8,0,0,1,.72.07l-.09.46A3.1,3.1,0,0,0,27,86a1.32,1.32,0,0,0-1.11.58,2.34,2.34,0,0,0-.44,1.45V91h-.48V85.7h.41l.05,1h0a2.26,2.26,0,0,1,.7-.82A1.63,1.63,0,0,1,27,85.59Z"/><path class="b" d="M31,91.1a2.32,2.32,0,0,1-1.8-.71,2.88,2.88,0,0,1-.65-2,3.08,3.08,0,0,1,.63-2,2.06,2.06,0,0,1,1.68-.77,1.8,1.8,0,0,1,1.48.66A2.69,2.69,0,0,1,32.84,88v.39H29a2.54,2.54,0,0,0,.51,1.67,1.77,1.77,0,0,0,1.43.58,4.66,4.66,0,0,0,.8-.06,4.71,4.71,0,0,0,.87-.28v.44a4,4,0,0,1-.83.27A4.32,4.32,0,0,1,31,91.1ZM30.82,86a1.58,1.58,0,0,0-1.23.51A2.34,2.34,0,0,0,29.05,88h3.28a2.31,2.31,0,0,0-.4-1.45A1.35,1.35,0,0,0,30.82,86Z"/><path class="b" d="M38.45,85.7V86l-1.1.07a1.87,1.87,0,0,1,.44,1.2,1.61,1.61,0,0,1-.51,1.24,1.92,1.92,0,0,1-1.37.48,3,3,0,0,1-.51,0,1.24,1.24,0,0,0-.44.36.7.7,0,0,0-.15.43.42.42,0,0,0,.19.37,1.31,1.31,0,0,0,.65.12h.93a2.14,2.14,0,0,1,1.32.35,1.21,1.21,0,0,1,.46,1,1.49,1.49,0,0,1-.68,1.3,3.5,3.5,0,0,1-1.94.46A2.65,2.65,0,0,1,34.19,93,1.24,1.24,0,0,1,33.64,92,1.25,1.25,0,0,1,34,91a1.79,1.79,0,0,1,.92-.5.79.79,0,0,1-.38-.29.66.66,0,0,1-.15-.43,1.15,1.15,0,0,1,.68-.94,1.45,1.45,0,0,1-.72-.59,1.77,1.77,0,0,1-.26-.94,1.71,1.71,0,0,1,.5-1.28,1.92,1.92,0,0,1,1.37-.48,2.42,2.42,0,0,1,.81.11Zm-4.3,6.2c0,.73.54,1.09,1.63,1.09,1.39,0,2.09-.44,2.09-1.33a.76.76,0,0,0-.33-.69,1.93,1.93,0,0,0-1.06-.22h-.87C34.64,90.75,34.15,91.14,34.15,91.9Zm.41-4.55a1.24,1.24,0,0,0,.37,1,1.71,1.71,0,0,0,2,0,1.32,1.32,0,0,0,.35-1,1.35,1.35,0,0,0-.36-1,1.46,1.46,0,0,0-1-.34,1.33,1.33,0,0,0-1,.37A1.37,1.37,0,0,0,34.56,87.35Z"/><path class="b" d="M39.47,84.22c0-.31.1-.47.31-.47a.26.26,0,0,1,.23.12.58.58,0,0,1,.09.35.61.61,0,0,1-.09.35.26.26,0,0,1-.23.12C39.57,84.69,39.47,84.54,39.47,84.22ZM40,91h-.48V85.7H40Z"/><path class="b" d="M45.09,89.62a1.27,1.27,0,0,1-.54,1.1A2.69,2.69,0,0,1,43,91.1a3.65,3.65,0,0,1-1.69-.33v-.52a3.69,3.69,0,0,0,1.69.4,2.26,2.26,0,0,0,1.19-.26.78.78,0,0,0,.41-.7.86.86,0,0,0-.32-.67,3.87,3.87,0,0,0-1.07-.54A6.15,6.15,0,0,1,42.1,88a1.66,1.66,0,0,1-.48-.47,1.2,1.2,0,0,1-.17-.64,1.09,1.09,0,0,1,.5-.94,2.46,2.46,0,0,1,1.4-.35,4.27,4.27,0,0,1,1.63.32l-.18.44A3.89,3.89,0,0,0,43.35,86a2,2,0,0,0-1,.22.66.66,0,0,0-.38.59.83.83,0,0,0,.3.67,4.07,4.07,0,0,0,1.15.55,6.17,6.17,0,0,1,1,.47,1.58,1.58,0,0,1,.49.47A1.15,1.15,0,0,1,45.09,89.62Z"/><path class="b" d="M47.86,90.67a3.8,3.8,0,0,0,.8-.08V91a2.51,2.51,0,0,1-.81.12,1.29,1.29,0,0,1-1-.38,1.75,1.75,0,0,1-.33-1.18V86.11h-.79v-.28l.79-.22.24-1.2H47V85.7h1.56v.41H47v3.36a1.51,1.51,0,0,0,.22.91A.78.78,0,0,0,47.86,90.67Z"/><path class="b" d="M51.9,85.59a3.8,3.8,0,0,1,.72.07l-.09.46a3.1,3.1,0,0,0-.69-.08,1.31,1.31,0,0,0-1.11.58,2.34,2.34,0,0,0-.44,1.45V91h-.48V85.7h.41l.05,1h0a2.26,2.26,0,0,1,.7-.82A1.63,1.63,0,0,1,51.9,85.59Z"/><path class="b" d="M56.92,91l-.12-.84h0a2.59,2.59,0,0,1-.82.73,2.23,2.23,0,0,1-1,.21,1.73,1.73,0,0,1-1.22-.4,1.44,1.44,0,0,1-.43-1.11,1.33,1.33,0,0,1,.65-1.2,3.5,3.5,0,0,1,1.87-.46l1,0v-.35a1.76,1.76,0,0,0-.31-1.14,1.17,1.17,0,0,0-1-.39,3.38,3.38,0,0,0-1.53.41L53.81,86a4.09,4.09,0,0,1,1.73-.41,1.71,1.71,0,0,1,1.31.46,2,2,0,0,1,.43,1.41V91Zm-2-.34a1.81,1.81,0,0,0,1.34-.49,1.79,1.79,0,0,0,.49-1.35V88.3l-.93,0a3.49,3.49,0,0,0-1.59.35,1.13,1.13,0,0,0-.17,1.7A1.25,1.25,0,0,0,55,90.66Z"/><path class="b" d="M60.4,90.67a3.8,3.8,0,0,0,.8-.08V91a2.55,2.55,0,0,1-.81.12,1.29,1.29,0,0,1-1-.38A1.75,1.75,0,0,1,59,89.54V86.11h-.79v-.28l.79-.22.24-1.2h.25V85.7h1.56v.41H59.51v3.36a1.59,1.59,0,0,0,.21.91A.81.81,0,0,0,60.4,90.67Z"/><path class="b" d="M62.28,84.22c0-.31.1-.47.31-.47a.26.26,0,0,1,.23.12.58.58,0,0,1,.09.35.61.61,0,0,1-.09.35.26.26,0,0,1-.23.12C62.38,84.69,62.28,84.54,62.28,84.22ZM62.83,91h-.48V85.7h.48Z"/><path class="b" d="M69,88.34a3,3,0,0,1-.63,2,2.42,2.42,0,0,1-3,.39,2.1,2.1,0,0,1-.82-1,3.52,3.52,0,0,1-.28-1.46,3,3,0,0,1,.63-2,2.16,2.16,0,0,1,1.73-.73,2.11,2.11,0,0,1,1.71.74A3,3,0,0,1,69,88.34Zm-4.19,0a2.72,2.72,0,0,0,.48,1.71,1.82,1.82,0,0,0,2.72,0,2.72,2.72,0,0,0,.48-1.71,2.61,2.61,0,0,0-.49-1.7,1.82,1.82,0,0,0-2.72,0A2.73,2.73,0,0,0,64.81,88.34Z"/><path class="b" d="M74.17,91V87.56a1.64,1.64,0,0,0-.34-1.16,1.32,1.32,0,0,0-1-.37,1.83,1.83,0,0,0-1.4.48A2.29,2.29,0,0,0,71,88.07V91h-.48V85.7h.41l.09.72h0a2,2,0,0,1,1.84-.83c1.2,0,1.81.65,1.81,1.94V91Z"/><path class="b" d="M80.94,86.11H79.69V91H79.2V86.11h-1v-.28l1-.18v-.41a2.29,2.29,0,0,1,.36-1.43,1.39,1.39,0,0,1,1.17-.46,3.29,3.29,0,0,1,.88.13l-.11.42a2.63,2.63,0,0,0-.77-.12.91.91,0,0,0-.81.34,1.88,1.88,0,0,0-.23,1.08v.5h1.25Z"/><path class="b" d="M86.35,88.34a3,3,0,0,1-.63,2A2.17,2.17,0,0,1,84,91.1a2.23,2.23,0,0,1-1.23-.34,2.08,2.08,0,0,1-.81-1,3.52,3.52,0,0,1-.29-1.46,3,3,0,0,1,.63-2,2.39,2.39,0,0,1,3.45,0A3,3,0,0,1,86.35,88.34Zm-4.19,0a2.72,2.72,0,0,0,.48,1.71,1.82,1.82,0,0,0,2.72,0,2.72,2.72,0,0,0,.48-1.71,2.67,2.67,0,0,0-.48-1.7A1.65,1.65,0,0,0,84,86a1.6,1.6,0,0,0-1.35.61A2.67,2.67,0,0,0,82.16,88.34Z"/><path class="b" d="M89.91,85.59a3.8,3.8,0,0,1,.72.07l-.09.46a3.1,3.1,0,0,0-.69-.08,1.32,1.32,0,0,0-1.11.58,2.34,2.34,0,0,0-.44,1.45V91h-.48V85.7h.41l0,1h0a2.26,2.26,0,0,1,.7-.82A1.63,1.63,0,0,1,89.91,85.59Z"/><path class="b" d="M98.34,91V87.52a1.74,1.74,0,0,0-.3-1.13,1.14,1.14,0,0,0-.93-.36,1.5,1.5,0,0,0-1.2.45,2.12,2.12,0,0,0-.39,1.41V91H95V87.37c0-.89-.41-1.34-1.23-1.34a1.41,1.41,0,0,0-1.21.49,2.47,2.47,0,0,0-.39,1.55V91h-.48V85.7h.4l.1.72h0a1.54,1.54,0,0,1,.63-.61,1.81,1.81,0,0,1,.89-.22,1.52,1.52,0,0,1,1.61.94h0a1.85,1.85,0,0,1,.7-.69,1.92,1.92,0,0,1,1-.25,1.72,1.72,0,0,1,1.31.47,2.1,2.1,0,0,1,.43,1.47V91Z"/><rect class="a" x="134.54" y="63.48" width="100" height="37.17" rx="12"/><path class="b" d="M160.68,77.86h.54L158.55,85h-.44l-2.66-7.14H156l1.8,4.86a17.2,17.2,0,0,1,.55,1.65c.07-.24.2-.62.39-1.13Z"/><path class="b" d="M165.33,85l-.12-.84h0a2.48,2.48,0,0,1-.82.73,2.2,2.2,0,0,1-1,.21,1.7,1.7,0,0,1-1.21-.4,1.45,1.45,0,0,1-.44-1.11,1.35,1.35,0,0,1,.65-1.2,3.5,3.5,0,0,1,1.87-.46l1,0v-.35a1.78,1.78,0,0,0-.31-1.14,1.17,1.17,0,0,0-1-.39,3.38,3.38,0,0,0-1.53.41l-.18-.42A4.13,4.13,0,0,1,164,79.6a1.71,1.71,0,0,1,1.31.46,2,2,0,0,1,.43,1.41V85Zm-2-.34a1.69,1.69,0,0,0,1.83-1.84V82.3l-.93,0a3.53,3.53,0,0,0-1.59.35,1,1,0,0,0-.48.92,1,1,0,0,0,.31.78A1.25,1.25,0,0,0,163.38,84.66Z"/><path class="b" d="M167.89,85h-.48V77.41h.48Z"/><path class="b" d="M169.6,78.22c0-.31.1-.47.31-.47a.29.29,0,0,1,.24.12.81.81,0,0,1,0,.7.29.29,0,0,1-.24.12C169.7,78.69,169.6,78.54,169.6,78.22Zm.55,6.78h-.48V79.7h.48Z"/><path class="b" d="M173.87,79.59a2.2,2.2,0,0,1,1,.21,2,2,0,0,1,.75.72h0c0-.41,0-.81,0-1.21v-1.9h.48V85h-.32l-.12-.81h0a2,2,0,0,1-1.74.91,2.11,2.11,0,0,1-1.68-.68,3.06,3.06,0,0,1-.58-2,3.34,3.34,0,0,1,.58-2.1A2,2,0,0,1,173.87,79.59Zm0,.44a1.5,1.5,0,0,0-1.3.61,3,3,0,0,0-.44,1.77c0,1.51.59,2.26,1.75,2.26a1.59,1.59,0,0,0,1.32-.52,2.78,2.78,0,0,0,.42-1.73v-.08a3,3,0,0,0-.41-1.77A1.58,1.58,0,0,0,173.87,80Z"/><path class="b" d="M181.11,85l-.13-.84h0a2.48,2.48,0,0,1-.82.73,2.2,2.2,0,0,1-1,.21,1.7,1.7,0,0,1-1.21-.4,1.45,1.45,0,0,1-.44-1.11,1.35,1.35,0,0,1,.65-1.2,3.52,3.52,0,0,1,1.87-.46l1,0v-.35a1.78,1.78,0,0,0-.31-1.14,1.17,1.17,0,0,0-1-.39,3.31,3.31,0,0,0-1.52.41L178,80a4.13,4.13,0,0,1,1.73-.41,1.7,1.7,0,0,1,1.31.46,2,2,0,0,1,.43,1.41V85Zm-2-.34A1.69,1.69,0,0,0,181,82.82V82.3l-.92,0a3.54,3.54,0,0,0-1.6.35,1,1,0,0,0-.48.92,1,1,0,0,0,.31.78A1.25,1.25,0,0,0,179.15,84.66Z"/><path class="b" d="M184.58,84.67a3.73,3.73,0,0,0,.8-.08V85a2.47,2.47,0,0,1-.81.12,1.3,1.3,0,0,1-1-.38,1.75,1.75,0,0,1-.33-1.18V80.11h-.79v-.28l.79-.22.24-1.2h.25V79.7h1.56v.41h-1.56v3.36a1.58,1.58,0,0,0,.22.91A.79.79,0,0,0,184.58,84.67Z"/><path class="b" d="M188.67,85.1a2.32,2.32,0,0,1-1.8-.71,2.88,2.88,0,0,1-.65-2,3.08,3.08,0,0,1,.63-2,2.06,2.06,0,0,1,1.68-.77,1.8,1.8,0,0,1,1.48.66,2.69,2.69,0,0,1,.54,1.77v.39h-3.82a2.54,2.54,0,0,0,.51,1.67,1.77,1.77,0,0,0,1.43.58,4.66,4.66,0,0,0,.8-.06,4.71,4.71,0,0,0,.87-.28v.44a4,4,0,0,1-.83.27A4.32,4.32,0,0,1,188.67,85.1ZM188.53,80a1.58,1.58,0,0,0-1.23.51,2.34,2.34,0,0,0-.54,1.46H190a2.31,2.31,0,0,0-.4-1.45A1.35,1.35,0,0,0,188.53,80Z"/><path class="b" d="M196.56,79.59a2.23,2.23,0,0,1,1,.21,2,2,0,0,1,.75.72h0c0-.41,0-.81,0-1.21v-1.9h.48V85h-.32l-.12-.81h0a2,2,0,0,1-1.74.91,2.11,2.11,0,0,1-1.68-.68,3,3,0,0,1-.58-2,3.35,3.35,0,0,1,.57-2.1A2,2,0,0,1,196.56,79.59Zm0,.44a1.52,1.52,0,0,0-1.31.61,3,3,0,0,0-.43,1.77c0,1.51.58,2.26,1.75,2.26a1.59,1.59,0,0,0,1.32-.52,2.78,2.78,0,0,0,.42-1.73v-.08a3,3,0,0,0-.41-1.77A1.6,1.6,0,0,0,196.56,80Z"/><path class="b" d="M203.79,85l-.12-.84h0a2.59,2.59,0,0,1-.82.73,2.26,2.26,0,0,1-1,.21,1.73,1.73,0,0,1-1.22-.4,1.44,1.44,0,0,1-.43-1.11,1.33,1.33,0,0,1,.65-1.2,3.5,3.5,0,0,1,1.87-.46l1,0v-.35a1.78,1.78,0,0,0-.31-1.14,1.17,1.17,0,0,0-1-.39,3.38,3.38,0,0,0-1.53.41l-.18-.42a4.09,4.09,0,0,1,1.73-.41,1.71,1.71,0,0,1,1.31.46,2,2,0,0,1,.43,1.41V85Zm-1.95-.34a1.81,1.81,0,0,0,1.34-.49,1.79,1.79,0,0,0,.49-1.35V82.3l-.93,0a3.49,3.49,0,0,0-1.59.35,1.13,1.13,0,0,0-.17,1.7A1.25,1.25,0,0,0,201.84,84.66Z"/><path class="b" d="M207.27,84.67a3.8,3.8,0,0,0,.8-.08V85a2.55,2.55,0,0,1-.81.12,1.29,1.29,0,0,1-1-.38,1.75,1.75,0,0,1-.33-1.18V80.11h-.79v-.28l.79-.22.24-1.2h.25V79.7h1.56v.41h-1.56v3.36a1.59,1.59,0,0,0,.21.91A.81.81,0,0,0,207.27,84.67Z"/><path class="b" d="M212.44,85l-.12-.84h0a2.51,2.51,0,0,1-.83.73,2.19,2.19,0,0,1-1,.21,1.73,1.73,0,0,1-1.22-.4,1.44,1.44,0,0,1-.43-1.11,1.34,1.34,0,0,1,.64-1.2,3.52,3.52,0,0,1,1.87-.46l1,0v-.35a1.84,1.84,0,0,0-.31-1.14,1.2,1.2,0,0,0-1-.39,3.38,3.38,0,0,0-1.53.41l-.18-.42a4.09,4.09,0,0,1,1.73-.41,1.69,1.69,0,0,1,1.3.46,2,2,0,0,1,.43,1.41V85Zm-2-.34a1.7,1.7,0,0,0,1.84-1.84V82.3l-.93,0a3.54,3.54,0,0,0-1.6.35,1.15,1.15,0,0,0-.17,1.7A1.27,1.27,0,0,0,210.48,84.66Z"/><rect class="a" x="134.54" y="165.52" width="100" height="37.17" rx="12"/><path class="b" d="M160.17,184.53h-2.9l-1,2.52h-.55l2.87-7.17h.31l2.82,7.17h-.56Zm-2.72-.45H160l-1-2.58q-.12-.3-.3-.84a6.52,6.52,0,0,1-.28.85Z"/><path class="b" d="M164.73,187.14a2.3,2.3,0,0,1-1.78-.71,3.47,3.47,0,0,1,0-4.06,2.33,2.33,0,0,1,1.83-.73,3.68,3.68,0,0,1,1.32.24l-.14.42a3.83,3.83,0,0,0-1.19-.22,1.82,1.82,0,0,0-1.48.6,2.61,2.61,0,0,0-.5,1.73,2.56,2.56,0,0,0,.5,1.69,1.72,1.72,0,0,0,1.41.6,3.51,3.51,0,0,0,1.34-.25v.44A3,3,0,0,1,164.73,187.14Z"/><path class="b" d="M168.77,186.71a3.84,3.84,0,0,0,.8-.07V187a2.83,2.83,0,0,1-.81.11,1.32,1.32,0,0,1-1-.37,1.77,1.77,0,0,1-.33-1.18v-3.43h-.79v-.28l.79-.22.24-1.21h.25v1.29h1.56v.42h-1.56v3.36a1.53,1.53,0,0,0,.21.9A.78.78,0,0,0,168.77,186.71Z"/><path class="b" d="M170.65,180.26c0-.31.1-.46.31-.46a.26.26,0,0,1,.23.12.55.55,0,0,1,.09.34.58.58,0,0,1-.09.35.25.25,0,0,1-.23.13C170.75,180.74,170.65,180.58,170.65,180.26Zm.55,6.79h-.48v-5.31h.48Z"/><path class="b" d="M174.14,187.05l-2-5.31h.5l1.37,3.61a10.84,10.84,0,0,1,.41,1.21h0c.13-.44.27-.85.41-1.22l1.37-3.6h.5l-2.05,5.31Z"/><path class="b" d="M180.79,187.05l-.12-.84h0a2.54,2.54,0,0,1-.82.72,2.26,2.26,0,0,1-1,.21,1.73,1.73,0,0,1-1.22-.4,1.4,1.4,0,0,1-.43-1.1,1.37,1.37,0,0,1,.64-1.21,3.53,3.53,0,0,1,1.88-.46l1,0v-.36a1.84,1.84,0,0,0-.31-1.14,1.19,1.19,0,0,0-1-.38,3.26,3.26,0,0,0-1.53.41l-.18-.42a4,4,0,0,1,1.73-.41,1.71,1.71,0,0,1,1.3.45,2,2,0,0,1,.44,1.42v3.53Zm-1.95-.35a1.68,1.68,0,0,0,1.83-1.83v-.52l-.93,0a3.48,3.48,0,0,0-1.59.34,1,1,0,0,0-.48.92,1,1,0,0,0,.31.78A1.25,1.25,0,0,0,178.84,186.7Z"/><path class="b" d="M184.27,186.71a3.84,3.84,0,0,0,.8-.07V187a2.88,2.88,0,0,1-.81.11,1.32,1.32,0,0,1-1-.37,1.77,1.77,0,0,1-.34-1.18v-3.43h-.78v-.28l.78-.22.25-1.21h.25v1.29h1.56v.42h-1.56v3.36a1.53,1.53,0,0,0,.21.9A.78.78,0,0,0,184.27,186.71Z"/><path class="b" d="M188.36,187.14a2.31,2.31,0,0,1-1.81-.71,2.86,2.86,0,0,1-.64-2,3.15,3.15,0,0,1,.62-2,2.07,2.07,0,0,1,1.69-.76,1.82,1.82,0,0,1,1.48.65,2.72,2.72,0,0,1,.54,1.78v.39h-3.83a2.51,2.51,0,0,0,.52,1.67,1.8,1.8,0,0,0,1.43.57,4.74,4.74,0,0,0,.8-.06,4.56,4.56,0,0,0,.87-.27v.44a3.55,3.55,0,0,1-.83.26A4.46,4.46,0,0,1,188.36,187.14Zm-.14-5.07a1.58,1.58,0,0,0-1.23.5,2.43,2.43,0,0,0-.55,1.46h3.29a2.26,2.26,0,0,0-.41-1.44A1.29,1.29,0,0,0,188.22,182.07Z"/><path class="b" d="M194.72,181.74v3.44a1.64,1.64,0,0,0,.34,1.16,1.35,1.35,0,0,0,1,.36,1.84,1.84,0,0,0,1.4-.47,2.29,2.29,0,0,0,.44-1.56v-2.93h.48v5.31H198l-.09-.74h0a2,2,0,0,1-1.84.83c-1.2,0-1.81-.64-1.81-1.93v-3.47Z"/><path class="b" d="M203.49,185.66a1.26,1.26,0,0,1-.54,1.1,2.62,2.62,0,0,1-1.54.38,3.8,3.8,0,0,1-1.69-.32v-.53a3.69,3.69,0,0,0,1.69.4,2.17,2.17,0,0,0,1.19-.26.77.77,0,0,0,.41-.69.88.88,0,0,0-.32-.68,3.63,3.63,0,0,0-1.07-.53,6.77,6.77,0,0,1-1.12-.5,1.44,1.44,0,0,1-.48-.47,1.14,1.14,0,0,1-.17-.63,1.1,1.1,0,0,1,.5-1,2.46,2.46,0,0,1,1.4-.34,4.09,4.09,0,0,1,1.63.32l-.18.44a3.7,3.7,0,0,0-1.45-.32,2.16,2.16,0,0,0-1,.21.66.66,0,0,0-.38.6.83.83,0,0,0,.3.66,4,4,0,0,0,1.15.56,5.56,5.56,0,0,1,1.05.46,1.7,1.7,0,0,1,.49.47A1.17,1.17,0,0,1,203.49,185.66Z"/><path class="b" d="M207,187.14a2.29,2.29,0,0,1-1.8-.71,2.86,2.86,0,0,1-.65-2,3.15,3.15,0,0,1,.62-2,2.07,2.07,0,0,1,1.69-.76,1.81,1.81,0,0,1,1.48.65,2.72,2.72,0,0,1,.54,1.78v.39h-3.82a2.45,2.45,0,0,0,.51,1.67,1.8,1.8,0,0,0,1.43.57,4.74,4.74,0,0,0,.8-.06,4.56,4.56,0,0,0,.87-.27v.44a3.55,3.55,0,0,1-.83.26A4.32,4.32,0,0,1,207,187.14Zm-.14-5.07a1.58,1.58,0,0,0-1.23.5,2.37,2.37,0,0,0-.54,1.46h3.28a2.33,2.33,0,0,0-.4-1.44A1.32,1.32,0,0,0,206.86,182.07Z"/><path class="b" d="M212.44,181.64a4.76,4.76,0,0,1,.72.06l-.09.47a2.71,2.71,0,0,0-.69-.08,1.34,1.34,0,0,0-1.12.57,2.36,2.36,0,0,0-.43,1.46v2.93h-.48v-5.31h.41l0,1h0a2.22,2.22,0,0,1,.7-.83A1.67,1.67,0,0,1,212.44,181.64Z"/><circle class="c" cx="61.85" cy="36.45" r="8.77"/><circle class="c" cx="184.54" cy="229.62" r="8.77"/><circle class="d" cx="184.54" cy="229.62" r="11.69"/><rect class="d" x="174.01" y="122.12" width="21.05" height="21.05" transform="translate(147.85 -91.64) rotate(45)"/><path class="b" d="M62.22,176a2.68,2.68,0,0,0-2.11.86,3.37,3.37,0,0,0-.78,2.35,3.58,3.58,0,0,0,.73,2.38,2.61,2.61,0,0,0,2.08.84,5.4,5.4,0,0,0,1.65-.23v.44a5.27,5.27,0,0,1-1.77.25,3,3,0,0,1-2.36-1,3.92,3.92,0,0,1-.87-2.71,4.31,4.31,0,0,1,.41-1.92A3,3,0,0,1,60.39,176a3.54,3.54,0,0,1,1.8-.45,4.31,4.31,0,0,1,1.87.39l-.2.45A3.63,3.63,0,0,0,62.22,176Z"/><path class="b" d="M65.74,182.78h-.48v-7.59h.48Z"/><path class="b" d="M67.45,176c0-.31.11-.47.31-.47a.27.27,0,0,1,.24.13.55.55,0,0,1,.08.34.61.61,0,0,1-.08.35.29.29,0,0,1-.24.13C67.56,176.48,67.45,176.32,67.45,176Zm.56,6.78h-.49v-5.3H68Z"/><path class="b" d="M71.9,182.88a2.26,2.26,0,0,1-1.78-.72,2.86,2.86,0,0,1-.64-2,3,3,0,0,1,.66-2,2.37,2.37,0,0,1,1.84-.74,3.66,3.66,0,0,1,1.31.24l-.13.43a4,4,0,0,0-1.19-.23,1.79,1.79,0,0,0-1.48.61,2.61,2.61,0,0,0-.51,1.73,2.52,2.52,0,0,0,.51,1.68,1.7,1.7,0,0,0,1.4.61,3.3,3.3,0,0,0,1.34-.26v.45A3,3,0,0,1,71.9,182.88Z"/><path class="b" d="M75,180.45l2.71-3h.58l-2.09,2.26,2.27,3H77.9l-2-2.68-.87.79v1.89h-.49v-7.59H75V179l0,1.46Z"/><path class="b" d="M33.83,194.88a2.28,2.28,0,0,1-1.79-.72,2.86,2.86,0,0,1-.64-2,2.91,2.91,0,0,1,.67-2,2.34,2.34,0,0,1,1.83-.74,3.68,3.68,0,0,1,1.32.24l-.13.43a4,4,0,0,0-1.2-.23,1.81,1.81,0,0,0-1.48.61,2.61,2.61,0,0,0-.5,1.73,2.51,2.51,0,0,0,.5,1.68,1.72,1.72,0,0,0,1.41.61,3.3,3.3,0,0,0,1.34-.26v.45A3,3,0,0,1,33.83,194.88Z"/><path class="b" d="M40.85,192.12a3,3,0,0,1-.63,2,2.42,2.42,0,0,1-3,.39,2.1,2.1,0,0,1-.82-1,3.52,3.52,0,0,1-.28-1.46,3,3,0,0,1,.63-2,2.19,2.19,0,0,1,1.73-.73,2.15,2.15,0,0,1,1.72.74A3,3,0,0,1,40.85,192.12Zm-4.19,0a2.72,2.72,0,0,0,.48,1.71,1.82,1.82,0,0,0,2.72,0,2.72,2.72,0,0,0,.48-1.71,2.61,2.61,0,0,0-.49-1.7,1.66,1.66,0,0,0-1.36-.61,1.62,1.62,0,0,0-1.36.61A2.73,2.73,0,0,0,36.66,192.12Z"/><path class="b" d="M46,194.78v-3.44a1.64,1.64,0,0,0-.34-1.16,1.32,1.32,0,0,0-1-.37,1.83,1.83,0,0,0-1.4.48,2.29,2.29,0,0,0-.44,1.56v2.93h-.48v-5.3h.41l.09.72h0a2,2,0,0,1,1.84-.83c1.21,0,1.81.65,1.81,1.94v3.47Z"/><path class="b" d="M50.19,189.9H48.94v4.88h-.49V189.9h-1v-.29l1-.18V189a2.29,2.29,0,0,1,.36-1.43,1.39,1.39,0,0,1,1.18-.46,3.41,3.41,0,0,1,.88.13l-.12.42a2.58,2.58,0,0,0-.77-.12.88.88,0,0,0-.8.34,1.87,1.87,0,0,0-.24,1.08v.5h1.25Zm1-1.9c0-.31.1-.47.3-.47a.27.27,0,0,1,.24.13.55.55,0,0,1,.08.34.61.61,0,0,1-.08.35.29.29,0,0,1-.24.13Q51.15,188.48,51.15,188Zm.55,6.78h-.49v-5.3h.49Z"/><path class="b" d="M55.56,189.37a4.85,4.85,0,0,1,.73.07l-.1.47a2.59,2.59,0,0,0-.68-.09,1.35,1.35,0,0,0-1.12.58,2.33,2.33,0,0,0-.43,1.45v2.93h-.49v-5.3h.41l0,1h0a2.26,2.26,0,0,1,.7-.82A1.58,1.58,0,0,1,55.56,189.37Z"/><path class="b" d="M64,194.78V191.3a1.68,1.68,0,0,0-.31-1.13,1.13,1.13,0,0,0-.92-.36,1.51,1.51,0,0,0-1.21.45,2.12,2.12,0,0,0-.39,1.41v3.11h-.49v-3.62q0-1.35-1.23-1.35a1.46,1.46,0,0,0-1.22.49,2.54,2.54,0,0,0-.38,1.55v2.93h-.48v-5.3h.4l.1.72h0a1.52,1.52,0,0,1,.62-.61,1.93,1.93,0,0,1,.9-.22,1.53,1.53,0,0,1,1.61.95h0a1.72,1.72,0,0,1,.69-.7,2,2,0,0,1,1-.25,1.69,1.69,0,0,1,1.3.47,2.1,2.1,0,0,1,.44,1.47v3.47Z"/><path class="b" d="M69.42,194.78l-.13-.84h0a2.49,2.49,0,0,1-.83.73,2.2,2.2,0,0,1-1,.21,1.7,1.7,0,0,1-1.21-.4,1.45,1.45,0,0,1-.44-1.11,1.36,1.36,0,0,1,.65-1.2,3.52,3.52,0,0,1,1.87-.46l1,0v-.35a1.84,1.84,0,0,0-.3-1.14,1.2,1.2,0,0,0-1-.39,3.31,3.31,0,0,0-1.53.41l-.18-.42a4.08,4.08,0,0,1,1.72-.41,1.7,1.7,0,0,1,1.31.46,2,2,0,0,1,.43,1.41v3.53Zm-2-.34a1.68,1.68,0,0,0,1.83-1.83v-.53l-.92,0a3.68,3.68,0,0,0-1.6.35,1.15,1.15,0,0,0-.17,1.7A1.27,1.27,0,0,0,67.46,194.44Z"/><path class="b" d="M72.89,194.45a3.13,3.13,0,0,0,.8-.08v.39a2.47,2.47,0,0,1-.81.12,1.3,1.3,0,0,1-1-.37,1.74,1.74,0,0,1-.34-1.19V189.9h-.78v-.29l.78-.22.25-1.2H72v1.29h1.56v.42H72v3.36a1.57,1.57,0,0,0,.22.9A.79.79,0,0,0,72.89,194.45Z"/><path class="b" d="M74.77,188c0-.31.11-.47.31-.47a.27.27,0,0,1,.24.13.63.63,0,0,1,.08.34.7.7,0,0,1-.08.35.29.29,0,0,1-.24.13C74.88,188.48,74.77,188.32,74.77,188Zm.55,6.78h-.48v-5.3h.48Z"/><path class="b" d="M81.49,192.12a3,3,0,0,1-.63,2,2.17,2.17,0,0,1-1.74.73,2.23,2.23,0,0,1-1.23-.34,2.14,2.14,0,0,1-.81-1,3.52,3.52,0,0,1-.29-1.46,3,3,0,0,1,.63-2,2.19,2.19,0,0,1,1.73-.73,2.15,2.15,0,0,1,1.72.74A3,3,0,0,1,81.49,192.12Zm-4.19,0a2.72,2.72,0,0,0,.48,1.71,1.82,1.82,0,0,0,2.72,0,2.72,2.72,0,0,0,.48-1.71,2.67,2.67,0,0,0-.48-1.7,1.68,1.68,0,0,0-1.37-.61,1.61,1.61,0,0,0-1.35.61A2.67,2.67,0,0,0,77.3,192.12Z"/><path class="b" d="M86.66,194.78v-3.44a1.69,1.69,0,0,0-.33-1.16,1.36,1.36,0,0,0-1-.37,1.8,1.8,0,0,0-1.39.48,2.24,2.24,0,0,0-.45,1.56v2.93H83v-5.3h.41l.09.72h0a2,2,0,0,1,1.84-.83c1.21,0,1.81.65,1.81,1.94v3.47Z"/><path class="b" d="M91.94,194.78h-.48v-7.59h.48Z"/><path class="b" d="M93.65,188c0-.31.1-.47.31-.47a.25.25,0,0,1,.23.13.55.55,0,0,1,.09.34.61.61,0,0,1-.09.35.26.26,0,0,1-.23.13C93.75,188.48,93.65,188.32,93.65,188Zm.55,6.78h-.48v-5.3h.48Z"/><path class="b" d="M99.68,194.78v-3.44a1.64,1.64,0,0,0-.34-1.16,1.32,1.32,0,0,0-1-.37,1.83,1.83,0,0,0-1.4.48,2.29,2.29,0,0,0-.44,1.56v2.93H96v-5.3h.41l.09.72h0a2,2,0,0,1,1.84-.83c1.21,0,1.81.65,1.81,1.94v3.47Z"/><path class="b" d="M102.35,192.45l2.71-3h.59l-2.09,2.26,2.27,3h-.58l-2-2.68-.87.79v1.89h-.48v-7.59h.48V191l0,1.46Z"/><polygon class="d" points="108.16 205.41 6.99 205.41 6.99 205.36 28.57 186.86 6.99 166.23 6.99 166.18 108.16 166.18 108.16 205.41"/><path class="b" d="M263.79,78.07a1.71,1.71,0,0,1-.66,1.42,2.71,2.71,0,0,1-1.74.52,5.51,5.51,0,0,1-2-.28v-.5a5,5,0,0,0,2,.32,2.19,2.19,0,0,0,1.39-.4,1.28,1.28,0,0,0,.51-1.06,1.17,1.17,0,0,0-.17-.67,1.56,1.56,0,0,0-.55-.48,6.91,6.91,0,0,0-1.13-.48,3.94,3.94,0,0,1-1.52-.81,1.64,1.64,0,0,1-.41-1.16,1.59,1.59,0,0,1,.62-1.31,2.49,2.49,0,0,1,1.62-.51,4.63,4.63,0,0,1,1.89.39l-.18.43a4.41,4.41,0,0,0-1.7-.38,2,2,0,0,0-1.26.37,1.21,1.21,0,0,0-.47,1,1.39,1.39,0,0,0,.14.65,1.36,1.36,0,0,0,.47.45,6.32,6.32,0,0,0,1.13.49,6.08,6.08,0,0,1,1.25.56,1.69,1.69,0,0,1,.61.61A1.67,1.67,0,0,1,263.79,78.07Z"/><path class="b" d="M267.32,80a2.31,2.31,0,0,1-1.81-.71,2.88,2.88,0,0,1-.64-2,3.1,3.1,0,0,1,.62-2,2.07,2.07,0,0,1,1.69-.76,1.79,1.79,0,0,1,1.47.65,2.67,2.67,0,0,1,.55,1.78v.39h-3.83a2.56,2.56,0,0,0,.51,1.67,1.83,1.83,0,0,0,1.44.57,4.74,4.74,0,0,0,.8-.06,4.56,4.56,0,0,0,.87-.27v.44a3.55,3.55,0,0,1-.83.26A4.46,4.46,0,0,1,267.32,80Zm-.14-5.07a1.55,1.55,0,0,0-1.23.5,2.43,2.43,0,0,0-.55,1.46h3.28a2.26,2.26,0,0,0-.4-1.44A1.29,1.29,0,0,0,267.18,74.94Z"/><path class="b" d="M274.36,79.92V76.47a1.69,1.69,0,0,0-.33-1.16,1.39,1.39,0,0,0-1-.36,1.8,1.8,0,0,0-1.39.48,2.24,2.24,0,0,0-.44,1.56v2.93h-.49V74.61h.41l.09.73h0a2,2,0,0,1,1.85-.83c1.2,0,1.8.64,1.8,1.93v3.48Z"/><path class="b" d="M278.5,74.51a2.2,2.2,0,0,1,1,.21,1.93,1.93,0,0,1,.75.71h0q0-.62,0-1.2V72.32h.48v7.6h-.32l-.12-.81h0a2,2,0,0,1-1.74.9,2.07,2.07,0,0,1-1.68-.68,3,3,0,0,1-.58-2,3.31,3.31,0,0,1,.58-2.11A2,2,0,0,1,278.5,74.51Zm0,.44a1.48,1.48,0,0,0-1.3.61,3,3,0,0,0-.44,1.77c0,1.5.59,2.25,1.75,2.25a1.59,1.59,0,0,0,1.32-.52,2.77,2.77,0,0,0,.42-1.72v-.09a3,3,0,0,0-.41-1.77A1.57,1.57,0,0,0,278.5,75Z"/><path class="b" d="M287.23,80a2.29,2.29,0,0,1-1.78-.71,2.91,2.91,0,0,1-.65-2,3,3,0,0,1,.67-2.05,2.36,2.36,0,0,1,1.83-.73,3.9,3.9,0,0,1,1.32.23l-.13.43a3.93,3.93,0,0,0-1.2-.22,1.83,1.83,0,0,0-1.48.6,2.66,2.66,0,0,0-.5,1.73,2.62,2.62,0,0,0,.5,1.69,1.75,1.75,0,0,0,1.41.6,3.47,3.47,0,0,0,1.34-.25v.44A3,3,0,0,1,287.23,80Z"/><path class="b" d="M294.25,77.25a3,3,0,0,1-.63,2,2.17,2.17,0,0,1-1.74.73,2.31,2.31,0,0,1-1.23-.33,2.22,2.22,0,0,1-.81-1,3.52,3.52,0,0,1-.29-1.46,3,3,0,0,1,.63-2,2.18,2.18,0,0,1,1.73-.72,2.14,2.14,0,0,1,1.72.73A3,3,0,0,1,294.25,77.25Zm-4.19,0a2.72,2.72,0,0,0,.48,1.71,1.82,1.82,0,0,0,2.72,0,2.72,2.72,0,0,0,.48-1.71,2.67,2.67,0,0,0-.48-1.7,1.67,1.67,0,0,0-1.37-.6,1.63,1.63,0,0,0-1.35.6A2.67,2.67,0,0,0,290.06,77.25Z"/><path class="b" d="M299.42,79.92V76.47a1.64,1.64,0,0,0-.34-1.16,1.35,1.35,0,0,0-1-.36,1.79,1.79,0,0,0-1.39.48A2.24,2.24,0,0,0,296.2,77v2.93h-.48V74.61h.41l.09.73h0a2,2,0,0,1,1.84-.83c1.21,0,1.81.64,1.81,1.93v3.48Z"/><path class="b" d="M303.59,75h-1.25v4.89h-.48V75h-1v-.29l1-.18v-.41a2.31,2.31,0,0,1,.36-1.43,1.41,1.41,0,0,1,1.17-.46,3,3,0,0,1,.88.14l-.11.42a2.36,2.36,0,0,0-.78-.13.92.92,0,0,0-.8.34,1.87,1.87,0,0,0-.24,1.08v.5h1.25Zm1-1.9c0-.31.1-.47.31-.47a.26.26,0,0,1,.23.13.55.55,0,0,1,.09.34.58.58,0,0,1-.09.35.26.26,0,0,1-.23.13C304.65,73.61,304.55,73.45,304.55,73.13Zm.55,6.79h-.48V74.61h.48Z"/><path class="b" d="M309,74.51a4.76,4.76,0,0,1,.72.06l-.09.47a2.61,2.61,0,0,0-.69-.09,1.35,1.35,0,0,0-1.11.58,2.37,2.37,0,0,0-.44,1.46v2.93h-.48V74.61h.41l0,1h0a2.22,2.22,0,0,1,.7-.83A1.63,1.63,0,0,1,309,74.51Z"/><path class="b" d="M317.4,79.92V76.43a1.75,1.75,0,0,0-.3-1.13,1.14,1.14,0,0,0-.93-.35,1.52,1.52,0,0,0-1.21.44,2.13,2.13,0,0,0-.39,1.42v3.11h-.49V76.29c0-.9-.41-1.34-1.23-1.34a1.47,1.47,0,0,0-1.22.48,2.55,2.55,0,0,0-.38,1.56v2.93h-.48V74.61h.4l.1.73h0a1.57,1.57,0,0,1,.63-.62,1.89,1.89,0,0,1,.89-.21,1.52,1.52,0,0,1,1.61.94h0a1.81,1.81,0,0,1,.7-.7,2,2,0,0,1,1-.24,1.69,1.69,0,0,1,1.3.46,2.1,2.1,0,0,1,.44,1.47v3.48Z"/><path class="b" d="M322.82,79.92l-.12-.84h0a2.54,2.54,0,0,1-.82.72,2.23,2.23,0,0,1-1,.21,1.73,1.73,0,0,1-1.22-.4,1.41,1.41,0,0,1-.43-1.11,1.36,1.36,0,0,1,.64-1.2,3.56,3.56,0,0,1,1.88-.46l1,0v-.36a1.78,1.78,0,0,0-.31-1.14,1.18,1.18,0,0,0-1-.38,3.26,3.26,0,0,0-1.53.41l-.18-.42a4,4,0,0,1,1.73-.41,1.71,1.71,0,0,1,1.3.45,2,2,0,0,1,.44,1.42v3.53Zm-1.95-.35a1.68,1.68,0,0,0,1.83-1.83v-.52l-.93,0a3.59,3.59,0,0,0-1.59.35,1,1,0,0,0-.48.92,1,1,0,0,0,.31.78A1.25,1.25,0,0,0,320.87,79.57Z"/><path class="b" d="M326.3,79.58a3.84,3.84,0,0,0,.8-.07v.39a2.88,2.88,0,0,1-.81.11,1.32,1.32,0,0,1-1-.37,1.77,1.77,0,0,1-.34-1.18V75h-.78v-.29l.78-.21.25-1.21h.25v1.29H327V75h-1.56v3.36a1.55,1.55,0,0,0,.21.9A.78.78,0,0,0,326.3,79.58Z"/><path class="b" d="M328.18,73.13c0-.31.1-.47.3-.47a.28.28,0,0,1,.24.13.55.55,0,0,1,.09.34.58.58,0,0,1-.09.35.28.28,0,0,1-.24.13Q328.18,73.61,328.18,73.13Zm.55,6.79h-.49V74.61h.49Z"/><path class="b" d="M334.9,77.25a3,3,0,0,1-.63,2,2.17,2.17,0,0,1-1.74.73,2.26,2.26,0,0,1-1.23-.33,2.18,2.18,0,0,1-.82-1,3.52,3.52,0,0,1-.28-1.46,3,3,0,0,1,.63-2,2.17,2.17,0,0,1,1.73-.72,2.1,2.1,0,0,1,1.71.73A3,3,0,0,1,334.9,77.25Zm-4.19,0a2.72,2.72,0,0,0,.48,1.71,1.82,1.82,0,0,0,2.72,0,2.72,2.72,0,0,0,.48-1.71,2.61,2.61,0,0,0-.49-1.7,1.84,1.84,0,0,0-2.72,0A2.67,2.67,0,0,0,330.71,77.25Z"/><path class="b" d="M340.07,79.92V76.47a1.69,1.69,0,0,0-.34-1.16,1.38,1.38,0,0,0-1.05-.36,1.8,1.8,0,0,0-1.39.48,2.29,2.29,0,0,0-.44,1.56v2.93h-.48V74.61h.41l.09.73h0a2,2,0,0,1,1.84-.83c1.2,0,1.81.64,1.81,1.93v3.48Z"/><path class="b" d="M291.07,92a2.29,2.29,0,0,1-1.8-.71,2.83,2.83,0,0,1-.65-2,3.15,3.15,0,0,1,.62-2,2.07,2.07,0,0,1,1.69-.76,1.81,1.81,0,0,1,1.48.65,2.72,2.72,0,0,1,.54,1.78v.39h-3.82a2.45,2.45,0,0,0,.51,1.67,1.8,1.8,0,0,0,1.43.57,4.74,4.74,0,0,0,.8-.06,4.56,4.56,0,0,0,.87-.27v.44a3.55,3.55,0,0,1-.83.26A4.32,4.32,0,0,1,291.07,92Zm-.14-5.07a1.58,1.58,0,0,0-1.23.5,2.37,2.37,0,0,0-.54,1.46h3.28a2.38,2.38,0,0,0-.4-1.45A1.34,1.34,0,0,0,290.93,86.94Z"/><path class="b" d="M301.05,91.92V88.43a1.75,1.75,0,0,0-.31-1.13,1.13,1.13,0,0,0-.92-.35,1.51,1.51,0,0,0-1.21.44,2.13,2.13,0,0,0-.39,1.42v3.11h-.49V88.29c0-.9-.41-1.34-1.24-1.34a1.45,1.45,0,0,0-1.21.48A2.48,2.48,0,0,0,294.9,89v2.93h-.49V86.61h.41l.1.73h0a1.48,1.48,0,0,1,.62-.62,1.93,1.93,0,0,1,.9-.21,1.53,1.53,0,0,1,1.61.94h0a1.79,1.79,0,0,1,.69-.7,2,2,0,0,1,1-.24,1.69,1.69,0,0,1,1.3.46,2.1,2.1,0,0,1,.43,1.47v3.48Z"/><path class="b" d="M306.47,91.92l-.13-.84h0a2.44,2.44,0,0,1-.82.72,2.2,2.2,0,0,1-1,.21,1.7,1.7,0,0,1-1.21-.4,1.42,1.42,0,0,1-.44-1.11,1.36,1.36,0,0,1,.65-1.2,3.52,3.52,0,0,1,1.87-.46l1,0v-.36a1.84,1.84,0,0,0-.3-1.14,1.2,1.2,0,0,0-1-.38,3.19,3.19,0,0,0-1.52.41l-.18-.42a3.91,3.91,0,0,1,1.72-.41,1.73,1.73,0,0,1,1.31.45,2,2,0,0,1,.43,1.42v3.53Zm-2-.35a1.68,1.68,0,0,0,1.83-1.83v-.52l-.92,0a3.68,3.68,0,0,0-1.6.35,1.15,1.15,0,0,0-.17,1.7A1.25,1.25,0,0,0,304.51,91.57Z"/><path class="b" d="M308.47,85.13c0-.31.1-.47.31-.47a.29.29,0,0,1,.24.13.63.63,0,0,1,.08.34.67.67,0,0,1-.08.35.27.27,0,0,1-.24.13C308.57,85.61,308.47,85.45,308.47,85.13Zm.55,6.79h-.48V86.61H309Z"/><path class="b" d="M311.28,91.92h-.48v-7.6h.48Z"/><polygon class="d" points="253.44 100.6 253.44 100.65 339.39 100.65 361.02 83.07 339.39 63.48 253.44 63.48 253.44 63.53 253.44 100.6"/><path class="b" d="M57.49,6.86v4.62a2.61,2.61,0,0,1-.71,1.93,2.75,2.75,0,0,1-2,.69,2.61,2.61,0,0,1-1.94-.7,2.63,2.63,0,0,1-.69-1.94V6.86h.5v4.62a2,2,0,0,0,2.19,2.18,2.11,2.11,0,0,0,1.58-.57A2.07,2.07,0,0,0,57,11.53V6.86Z"/><path class="b" d="M62.6,12.62a1.28,1.28,0,0,1-.54,1.1,2.67,2.67,0,0,1-1.54.38,3.65,3.65,0,0,1-1.69-.33v-.52a3.72,3.72,0,0,0,1.69.4,2.3,2.3,0,0,0,1.2-.26.8.8,0,0,0,.4-.7A.83.83,0,0,0,61.8,12a3.73,3.73,0,0,0-1.07-.54A7,7,0,0,1,59.61,11a1.66,1.66,0,0,1-.48-.47A1.2,1.2,0,0,1,59,9.88a1.07,1.07,0,0,1,.51-.94,2.42,2.42,0,0,1,1.39-.35,4.23,4.23,0,0,1,1.63.32l-.18.44A3.89,3.89,0,0,0,60.86,9a2.16,2.16,0,0,0-1,.21.68.68,0,0,0-.38.6.8.8,0,0,0,.3.66,3.77,3.77,0,0,0,1.15.56,5.46,5.46,0,0,1,1.05.47,1.48,1.48,0,0,1,.49.47A1.12,1.12,0,0,1,62.6,12.62Z"/><path class="b" d="M66.11,14.1a2.32,2.32,0,0,1-1.8-.71,2.9,2.9,0,0,1-.65-2,3.11,3.11,0,0,1,.63-2A2.08,2.08,0,0,1,66,8.59a1.83,1.83,0,0,1,1.48.65A2.72,2.72,0,0,1,68,11v.39H64.17a2.54,2.54,0,0,0,.51,1.67,1.77,1.77,0,0,0,1.43.58,4.66,4.66,0,0,0,.8-.06,5.63,5.63,0,0,0,.87-.28v.44A4,4,0,0,1,67,14,5.28,5.28,0,0,1,66.11,14.1ZM66,9a1.58,1.58,0,0,0-1.23.51A2.34,2.34,0,0,0,64.2,11h3.28a2.3,2.3,0,0,0-.4-1.44A1.32,1.32,0,0,0,66,9Z"/><path class="b" d="M71.55,8.59a3.8,3.8,0,0,1,.72.07l-.09.46A3.1,3.1,0,0,0,71.49,9a1.32,1.32,0,0,0-1.11.58,2.34,2.34,0,0,0-.44,1.45V14h-.48V8.69h.41l0,1h0a2.26,2.26,0,0,1,.7-.82A1.63,1.63,0,0,1,71.55,8.59Z"/><path class="b" d="M133.57,10.89V14h-.5V6.86h1.7a3.25,3.25,0,0,1,2,.49,1.74,1.74,0,0,1,.64,1.48A1.94,1.94,0,0,1,137,10a2.09,2.09,0,0,1-1.15.71L137.78,14h-.6l-1.84-3.11Zm0-.43h1.36a2.16,2.16,0,0,0,1.4-.4,1.46,1.46,0,0,0,.5-1.19,1.4,1.4,0,0,0-.49-1.19,2.62,2.62,0,0,0-1.59-.37h-1.18Z"/><path class="b" d="M141,14.1a2.32,2.32,0,0,1-1.8-.71,2.9,2.9,0,0,1-.65-2,3.11,3.11,0,0,1,.63-2,2.09,2.09,0,0,1,1.68-.76,1.83,1.83,0,0,1,1.48.65,2.72,2.72,0,0,1,.54,1.78v.39h-3.82a2.54,2.54,0,0,0,.51,1.67,1.78,1.78,0,0,0,1.43.58,4.66,4.66,0,0,0,.8-.06,5.63,5.63,0,0,0,.87-.28v.44a4,4,0,0,1-.83.27A5.28,5.28,0,0,1,141,14.1ZM140.89,9a1.58,1.58,0,0,0-1.23.51,2.34,2.34,0,0,0-.54,1.45h3.28a2.3,2.3,0,0,0-.4-1.44A1.31,1.31,0,0,0,140.89,9Z"/><path class="b" d="M148.52,8.69V9l-1.1.07a1.87,1.87,0,0,1,.44,1.2,1.61,1.61,0,0,1-.51,1.24A1.92,1.92,0,0,1,146,12a3,3,0,0,1-.51,0,1.33,1.33,0,0,0-.44.36.7.7,0,0,0-.15.43.42.42,0,0,0,.19.37,1.31,1.31,0,0,0,.65.12h.93a2.08,2.08,0,0,1,1.32.35,1.19,1.19,0,0,1,.46,1,1.47,1.47,0,0,1-.68,1.3,3.5,3.5,0,0,1-1.94.45,2.73,2.73,0,0,1-1.55-.38,1.24,1.24,0,0,1-.55-1.08,1.29,1.29,0,0,1,.34-.91,1.78,1.78,0,0,1,.92-.49.86.86,0,0,1-.38-.29.66.66,0,0,1-.15-.43,1.14,1.14,0,0,1,.68-.94,1.47,1.47,0,0,1-.72-.6,1.71,1.71,0,0,1-.26-.93,1.68,1.68,0,0,1,.51-1.28A1.88,1.88,0,0,1,146,8.59a2.46,2.46,0,0,1,.81.1Zm-4.3,6.21c0,.73.55,1.09,1.63,1.09,1.39,0,2.09-.44,2.09-1.33a.76.76,0,0,0-.33-.69,1.93,1.93,0,0,0-1.06-.22h-.87C144.71,13.75,144.22,14.13,144.22,14.9Zm.41-4.55a1.2,1.2,0,0,0,.37,1,1.41,1.41,0,0,0,1,.34,1.46,1.46,0,0,0,1-.33,1.32,1.32,0,0,0,.35-1,1.35,1.35,0,0,0-.36-1A1.41,1.41,0,0,0,146,9a1.33,1.33,0,0,0-1,.37A1.37,1.37,0,0,0,144.63,10.35Z"/><path class="b" d="M149.54,7.22c0-.31.1-.47.31-.47a.26.26,0,0,1,.23.12.58.58,0,0,1,.09.35.63.63,0,0,1-.09.35.26.26,0,0,1-.23.12C149.64,7.69,149.54,7.53,149.54,7.22Zm.55,6.78h-.48V8.69h.48Z"/><path class="b" d="M155.16,12.62a1.28,1.28,0,0,1-.54,1.1,2.69,2.69,0,0,1-1.54.38,3.65,3.65,0,0,1-1.69-.33v-.52a3.69,3.69,0,0,0,1.69.4,2.26,2.26,0,0,0,1.19-.26.79.79,0,0,0,.41-.7.86.86,0,0,0-.32-.67,3.73,3.73,0,0,0-1.07-.54,7,7,0,0,1-1.12-.49,1.66,1.66,0,0,1-.48-.47,1.2,1.2,0,0,1-.17-.64,1.09,1.09,0,0,1,.5-.94,2.46,2.46,0,0,1,1.4-.35,4.27,4.27,0,0,1,1.63.32l-.18.44A3.89,3.89,0,0,0,153.42,9a2.16,2.16,0,0,0-1,.21.68.68,0,0,0-.38.6.8.8,0,0,0,.3.66,3.77,3.77,0,0,0,1.15.56,5.46,5.46,0,0,1,1,.47A1.48,1.48,0,0,1,155,12,1.12,1.12,0,0,1,155.16,12.62Z"/><path class="b" d="M157.93,13.67a3.8,3.8,0,0,0,.8-.08V14a2.47,2.47,0,0,1-.81.12,1.34,1.34,0,0,1-1-.38,1.75,1.75,0,0,1-.33-1.18V9.11h-.79V8.83l.79-.22.24-1.2H157V8.69h1.56v.42H157v3.36a1.51,1.51,0,0,0,.22.91A.78.78,0,0,0,157.93,13.67Z"/><path class="b" d="M162,8.59a3.8,3.8,0,0,1,.72.07l-.09.46a3.1,3.1,0,0,0-.69-.08,1.31,1.31,0,0,0-1.11.58,2.34,2.34,0,0,0-.44,1.45V14h-.48V8.69h.41l.05,1h0a2.26,2.26,0,0,1,.7-.82A1.63,1.63,0,0,1,162,8.59Z"/><path class="b" d="M167,14l-.12-.84h0a2.71,2.71,0,0,1-.82.73,2.23,2.23,0,0,1-1,.21,1.77,1.77,0,0,1-1.22-.4,1.44,1.44,0,0,1-.43-1.11,1.36,1.36,0,0,1,.65-1.21,3.6,3.6,0,0,1,1.87-.45l1,0v-.35a1.74,1.74,0,0,0-.31-1.14,1.17,1.17,0,0,0-1-.39,3.38,3.38,0,0,0-1.53.41L163.88,9a4.09,4.09,0,0,1,1.73-.41,1.75,1.75,0,0,1,1.31.45,2.06,2.06,0,0,1,.43,1.42V14Zm-2-.34a1.69,1.69,0,0,0,1.83-1.84V11.3l-.93,0a3.49,3.49,0,0,0-1.59.35,1,1,0,0,0-.48.92,1,1,0,0,0,.31.77A1.2,1.2,0,0,0,165,13.66Z"/><path class="b" d="M170.47,13.67a3.8,3.8,0,0,0,.8-.08V14a2.55,2.55,0,0,1-.81.12,1.32,1.32,0,0,1-1-.38,1.75,1.75,0,0,1-.33-1.18V9.11h-.79V8.83l.79-.22.24-1.2h.25V8.69h1.56v.42h-1.56v3.36a1.59,1.59,0,0,0,.21.91A.81.81,0,0,0,170.47,13.67Z"/><path class="b" d="M172.35,7.22c0-.31.1-.47.31-.47a.26.26,0,0,1,.23.12.58.58,0,0,1,.09.35.63.63,0,0,1-.09.35.26.26,0,0,1-.23.12C172.45,7.69,172.35,7.53,172.35,7.22ZM172.9,14h-.48V8.69h.48Z"/><path class="b" d="M179.07,11.34a3,3,0,0,1-.63,2,2.42,2.42,0,0,1-3,.39,2.12,2.12,0,0,1-.82-1,3.47,3.47,0,0,1-.28-1.45,3,3,0,0,1,.63-2,2.16,2.16,0,0,1,1.73-.73,2.11,2.11,0,0,1,1.71.74A3,3,0,0,1,179.07,11.34Zm-4.19,0a2.72,2.72,0,0,0,.48,1.71,1.82,1.82,0,0,0,2.72,0,2.72,2.72,0,0,0,.48-1.71,2.61,2.61,0,0,0-.49-1.7,1.83,1.83,0,0,0-2.72,0A2.74,2.74,0,0,0,174.88,11.34Z"/><path class="b" d="M184.24,14V10.56a1.67,1.67,0,0,0-.34-1.17,1.35,1.35,0,0,0-1-.36,1.83,1.83,0,0,0-1.4.48,2.29,2.29,0,0,0-.44,1.56V14h-.48V8.69H181l.09.73h0a2,2,0,0,1,1.84-.83c1.2,0,1.81.65,1.81,1.94V14Z"/><path class="b" d="M193.1,12.16a1.71,1.71,0,0,1-.66,1.42,2.78,2.78,0,0,1-1.75.52,5.45,5.45,0,0,1-2-.29v-.5a5,5,0,0,0,2,.33,2.28,2.28,0,0,0,1.4-.4,1.28,1.28,0,0,0,.51-1.06,1.17,1.17,0,0,0-.17-.67,1.58,1.58,0,0,0-.55-.49,7.8,7.8,0,0,0-1.14-.47,3.89,3.89,0,0,1-1.51-.81,1.63,1.63,0,0,1-.42-1.17,1.61,1.61,0,0,1,.63-1.31,2.55,2.55,0,0,1,1.62-.5,4.71,4.71,0,0,1,1.88.38l-.18.43A4.32,4.32,0,0,0,191,7.2a1.94,1.94,0,0,0-1.25.37,1.16,1.16,0,0,0-.47,1,1.28,1.28,0,0,0,.14.65,1.38,1.38,0,0,0,.47.46,7.14,7.14,0,0,0,1.12.48,6.52,6.52,0,0,1,1.26.56,1.8,1.8,0,0,1,.61.62A1.64,1.64,0,0,1,193.1,12.16Z"/><path class="b" d="M194.9,8.69v3.44a1.69,1.69,0,0,0,.34,1.17,1.35,1.35,0,0,0,1,.36,1.84,1.84,0,0,0,1.4-.48,2.24,2.24,0,0,0,.44-1.56V8.69h.48V14h-.41l-.08-.73h0a2,2,0,0,1-1.85.83c-1.2,0-1.81-.65-1.81-1.94V8.69Z"/><path class="b" d="M202.62,8.59a2,2,0,0,1,1.68.7,3.25,3.25,0,0,1,.56,2.05,3.16,3.16,0,0,1-.59,2,2,2,0,0,1-1.67.72,2.16,2.16,0,0,1-1-.24,1.76,1.76,0,0,1-.72-.66h0l-.14.8h-.3V6.4h.48V8.31c0,.29,0,.55,0,.79v.42h0a2,2,0,0,1,.73-.7A2.21,2.21,0,0,1,202.62,8.59Zm0,.44a1.57,1.57,0,0,0-1.34.54,3,3,0,0,0-.41,1.77v.08a2.73,2.73,0,0,0,.43,1.73,1.61,1.61,0,0,0,1.31.52,1.5,1.5,0,0,0,1.31-.61,2.93,2.93,0,0,0,.44-1.73C204.35,9.8,203.77,9,202.61,9Z"/><path class="b" d="M209.62,12.62a1.28,1.28,0,0,1-.54,1.1,2.67,2.67,0,0,1-1.54.38,3.65,3.65,0,0,1-1.69-.33v-.52a3.72,3.72,0,0,0,1.69.4,2.27,2.27,0,0,0,1.2-.26.81.81,0,0,0,.41-.7.84.84,0,0,0-.33-.67,3.73,3.73,0,0,0-1.07-.54,6.36,6.36,0,0,1-1.11-.49,1.58,1.58,0,0,1-.49-.47,1.19,1.19,0,0,1-.16-.64,1.07,1.07,0,0,1,.5-.94,2.43,2.43,0,0,1,1.4-.35,4.3,4.3,0,0,1,1.63.32l-.18.44A3.93,3.93,0,0,0,207.89,9a2.11,2.11,0,0,0-1,.21.68.68,0,0,0-.39.6.8.8,0,0,0,.3.66,3.9,3.9,0,0,0,1.15.56,5.46,5.46,0,0,1,1.05.47,1.48,1.48,0,0,1,.49.47A1.12,1.12,0,0,1,209.62,12.62Z"/><path class="b" d="M210.1,8.69h.5l1.12,3c.35.92.56,1.53.65,1.85h0c.14-.42.36-1,.67-1.88l1.12-3h.5l-2.38,6.17a5,5,0,0,1-.48,1,1.32,1.32,0,0,1-.46.39,1.34,1.34,0,0,1-.63.13,2.15,2.15,0,0,1-.62-.1v-.42a2.37,2.37,0,0,0,.61.08.81.81,0,0,0,.44-.12,1.21,1.21,0,0,0,.35-.36,5.14,5.14,0,0,0,.35-.78c.14-.36.22-.59.26-.7Z"/><path class="b" d="M218.87,12.62a1.28,1.28,0,0,1-.54,1.1,2.67,2.67,0,0,1-1.54.38,3.65,3.65,0,0,1-1.69-.33v-.52a3.72,3.72,0,0,0,1.69.4,2.23,2.23,0,0,0,1.19-.26.79.79,0,0,0,.41-.7.86.86,0,0,0-.32-.67,3.73,3.73,0,0,0-1.07-.54,7,7,0,0,1-1.12-.49,1.66,1.66,0,0,1-.48-.47,1.2,1.2,0,0,1-.17-.64,1.09,1.09,0,0,1,.5-.94,2.46,2.46,0,0,1,1.4-.35,4.23,4.23,0,0,1,1.63.32l-.18.44A3.89,3.89,0,0,0,217.13,9a2.16,2.16,0,0,0-1,.21.68.68,0,0,0-.38.6.8.8,0,0,0,.3.66,3.77,3.77,0,0,0,1.15.56,5.46,5.46,0,0,1,1.05.47,1.48,1.48,0,0,1,.49.47A1.12,1.12,0,0,1,218.87,12.62Z"/><path class="b" d="M221.64,13.67a3.73,3.73,0,0,0,.8-.08V14a2.47,2.47,0,0,1-.81.12,1.34,1.34,0,0,1-1-.38,1.75,1.75,0,0,1-.33-1.18V9.11h-.79V8.83l.79-.22.24-1.2h.25V8.69h1.56v.42h-1.56v3.36a1.51,1.51,0,0,0,.22.91A.78.78,0,0,0,221.64,13.67Z"/><path class="b" d="M225.73,14.1a2.32,2.32,0,0,1-1.8-.71,2.9,2.9,0,0,1-.65-2,3.11,3.11,0,0,1,.63-2,2.06,2.06,0,0,1,1.68-.76,1.83,1.83,0,0,1,1.48.65,2.72,2.72,0,0,1,.54,1.78v.39h-3.82a2.54,2.54,0,0,0,.51,1.67,1.77,1.77,0,0,0,1.43.58,4.74,4.74,0,0,0,.8-.06,5.63,5.63,0,0,0,.87-.28v.44a4,4,0,0,1-.83.27A5.28,5.28,0,0,1,225.73,14.1ZM225.59,9a1.58,1.58,0,0,0-1.23.51,2.34,2.34,0,0,0-.54,1.45h3.28a2.3,2.3,0,0,0-.4-1.44A1.32,1.32,0,0,0,225.59,9Z"/><path class="b" d="M235.71,14V10.52a1.66,1.66,0,0,0-.31-1.13,1.13,1.13,0,0,0-.92-.36,1.51,1.51,0,0,0-1.21.45,2.12,2.12,0,0,0-.39,1.41V14h-.49V10.37c0-.89-.41-1.34-1.23-1.34a1.43,1.43,0,0,0-1.22.49,2.54,2.54,0,0,0-.38,1.55V14h-.48V8.69h.4l.1.73h0a1.52,1.52,0,0,1,.62-.61,1.82,1.82,0,0,1,.9-.22,1.53,1.53,0,0,1,1.61.94h0a1.86,1.86,0,0,1,.69-.7,2.08,2.08,0,0,1,1-.24,1.73,1.73,0,0,1,1.3.46,2.13,2.13,0,0,1,.44,1.48V14Z"/><path class="b" d="M273.11,14h-3.9V6.86h3.9v.46h-3.4V10h3.21v.46h-3.21v3.06h3.4Z"/><path class="b" d="M274.17,11.5v-.4h2.32v.4Z"/><path class="b" d="M284.45,14V10.52a1.72,1.72,0,0,0-.3-1.13,1.14,1.14,0,0,0-.93-.36,1.5,1.5,0,0,0-1.2.45,2.12,2.12,0,0,0-.39,1.41V14h-.5V10.37c0-.89-.41-1.34-1.23-1.34a1.43,1.43,0,0,0-1.21.49,2.47,2.47,0,0,0-.38,1.55V14h-.49V8.69h.4l.11.73h0a1.46,1.46,0,0,1,.62-.61,1.81,1.81,0,0,1,.89-.22,1.53,1.53,0,0,1,1.62.94h0a1.86,1.86,0,0,1,.69-.7,2,2,0,0,1,1-.24,1.75,1.75,0,0,1,1.31.46,2.13,2.13,0,0,1,.43,1.48V14Z"/><path class="b" d="M289.87,14l-.12-.84h0a2.6,2.6,0,0,1-.82.73,2.2,2.2,0,0,1-1,.21,1.75,1.75,0,0,1-1.21-.4,1.45,1.45,0,0,1-.44-1.11,1.38,1.38,0,0,1,.65-1.21,3.6,3.6,0,0,1,1.87-.45l1,0v-.35a1.74,1.74,0,0,0-.31-1.14,1.17,1.17,0,0,0-1-.39,3.38,3.38,0,0,0-1.53.41L286.76,9a4.13,4.13,0,0,1,1.73-.41,1.75,1.75,0,0,1,1.31.45,2,2,0,0,1,.43,1.42V14Zm-1.95-.34a1.69,1.69,0,0,0,1.83-1.84V11.3l-.93,0a3.53,3.53,0,0,0-1.59.35,1.12,1.12,0,0,0-.17,1.69A1.2,1.2,0,0,0,287.92,13.66Z"/><path class="b" d="M291.88,7.22c0-.31.1-.47.31-.47a.29.29,0,0,1,.24.12.67.67,0,0,1,.08.35.72.72,0,0,1-.08.35.29.29,0,0,1-.24.12C292,7.69,291.88,7.53,291.88,7.22Zm.55,6.78H292V8.69h.48Z"/><path class="b" d="M294.69,14h-.48V6.4h.48Z"/><path class="b" d="M302.36,12.62a1.28,1.28,0,0,1-.54,1.1,2.69,2.69,0,0,1-1.54.38,3.65,3.65,0,0,1-1.69-.33v-.52a3.69,3.69,0,0,0,1.69.4,2.26,2.26,0,0,0,1.19-.26.79.79,0,0,0,.41-.7.86.86,0,0,0-.32-.67,3.87,3.87,0,0,0-1.07-.54,7,7,0,0,1-1.12-.49,1.54,1.54,0,0,1-.48-.47,1.2,1.2,0,0,1-.17-.64,1.09,1.09,0,0,1,.5-.94,2.46,2.46,0,0,1,1.4-.35,4.27,4.27,0,0,1,1.63.32l-.18.44A3.89,3.89,0,0,0,300.62,9a2.16,2.16,0,0,0-1,.21.68.68,0,0,0-.38.6.8.8,0,0,0,.3.66,3.77,3.77,0,0,0,1.15.56,5.46,5.46,0,0,1,1,.47,1.58,1.58,0,0,1,.49.47A1.12,1.12,0,0,1,302.36,12.62Z"/><path class="b" d="M304.15,8.69v3.44a1.74,1.74,0,0,0,.33,1.17,1.39,1.39,0,0,0,1,.36,1.8,1.8,0,0,0,1.39-.48,2.24,2.24,0,0,0,.45-1.56V8.69h.48V14h-.41l-.09-.73h0a2,2,0,0,1-1.84.83c-1.21,0-1.81-.65-1.81-1.94V8.69Z"/><path class="b" d="M311.87,8.59a2,2,0,0,1,1.67.7,3.19,3.19,0,0,1,.57,2.05,3.1,3.1,0,0,1-.6,2,2,2,0,0,1-1.66.72,2.13,2.13,0,0,1-1-.24,1.64,1.64,0,0,1-.72-.66h0l-.14.8h-.3V6.4h.48V8.31c0,.29,0,.55,0,.79l0,.42h0a1.88,1.88,0,0,1,.73-.7A2.18,2.18,0,0,1,311.87,8.59Zm0,.44a1.58,1.58,0,0,0-1.35.54,3,3,0,0,0-.4,1.77v.08a2.8,2.8,0,0,0,.42,1.73,1.62,1.62,0,0,0,1.32.52,1.51,1.51,0,0,0,1.31-.61,2.93,2.93,0,0,0,.44-1.73C313.6,9.8,313,9,311.86,9Z"/><path class="b" d="M318.87,12.62a1.28,1.28,0,0,1-.54,1.1,2.69,2.69,0,0,1-1.54.38,3.65,3.65,0,0,1-1.69-.33v-.52a3.69,3.69,0,0,0,1.69.4,2.26,2.26,0,0,0,1.19-.26.81.81,0,0,0,.41-.7.86.86,0,0,0-.32-.67,3.87,3.87,0,0,0-1.07-.54,7,7,0,0,1-1.12-.49,1.54,1.54,0,0,1-.48-.47,1.2,1.2,0,0,1-.17-.64,1.09,1.09,0,0,1,.5-.94,2.46,2.46,0,0,1,1.4-.35,4.27,4.27,0,0,1,1.63.32l-.18.44A3.89,3.89,0,0,0,317.13,9a2.14,2.14,0,0,0-1,.21.68.68,0,0,0-.38.6.82.82,0,0,0,.29.66,4,4,0,0,0,1.16.56,5,5,0,0,1,1,.47,1.52,1.52,0,0,1,.5.47A1.21,1.21,0,0,1,318.87,12.62Z"/><path class="b" d="M319.35,8.69h.5l1.12,3c.34.92.56,1.53.65,1.85h0c.13-.42.36-1,.67-1.88l1.12-3h.5l-2.38,6.17a5,5,0,0,1-.48,1,1.41,1.41,0,0,1-.46.39,1.39,1.39,0,0,1-.63.13,2.05,2.05,0,0,1-.62-.1v-.42A2.37,2.37,0,0,0,320,16a.83.83,0,0,0,.44-.12,1.18,1.18,0,0,0,.34-.36,6.14,6.14,0,0,0,.36-.78l.26-.7Z"/><path class="b" d="M328.12,12.62a1.27,1.27,0,0,1-.55,1.1,2.66,2.66,0,0,1-1.53.38,3.62,3.62,0,0,1-1.69-.33v-.52a3.66,3.66,0,0,0,1.69.4,2.26,2.26,0,0,0,1.19-.26.81.81,0,0,0,.41-.7.84.84,0,0,0-.33-.67,3.64,3.64,0,0,0-1.06-.54,6.55,6.55,0,0,1-1.12-.49,1.58,1.58,0,0,1-.49-.47,1.19,1.19,0,0,1-.16-.64,1.09,1.09,0,0,1,.5-.94,2.43,2.43,0,0,1,1.4-.35,4.3,4.3,0,0,1,1.63.32l-.18.44A3.93,3.93,0,0,0,326.38,9a2.14,2.14,0,0,0-1,.21.67.67,0,0,0-.38.6.82.82,0,0,0,.29.66,3.86,3.86,0,0,0,1.16.56,5.31,5.31,0,0,1,1,.47A1.48,1.48,0,0,1,328,12,1.13,1.13,0,0,1,328.12,12.62Z"/><path class="b" d="M330.89,13.67a3.8,3.8,0,0,0,.8-.08V14a2.55,2.55,0,0,1-.81.12,1.32,1.32,0,0,1-1-.38,1.7,1.7,0,0,1-.34-1.18V9.11h-.78V8.83l.78-.22.25-1.2H330V8.69h1.55v.42H330v3.36a1.59,1.59,0,0,0,.21.91A.8.8,0,0,0,330.89,13.67Z"/><path class="b" d="M335,14.1a2.34,2.34,0,0,1-1.81-.71,2.9,2.9,0,0,1-.64-2,3.11,3.11,0,0,1,.62-2,2.1,2.1,0,0,1,1.69-.76,1.85,1.85,0,0,1,1.48.65,2.72,2.72,0,0,1,.54,1.78v.39H333a2.54,2.54,0,0,0,.51,1.67,1.81,1.81,0,0,0,1.44.58,4.74,4.74,0,0,0,.8-.06,6,6,0,0,0,.87-.28v.44a4.18,4.18,0,0,1-.83.27A5.49,5.49,0,0,1,335,14.1ZM334.84,9a1.56,1.56,0,0,0-1.23.51,2.4,2.4,0,0,0-.55,1.45h3.28a2.3,2.3,0,0,0-.4-1.44A1.29,1.29,0,0,0,334.84,9Z"/><path class="b" d="M345,14V10.52a1.72,1.72,0,0,0-.3-1.13,1.14,1.14,0,0,0-.93-.36,1.5,1.5,0,0,0-1.2.45,2.12,2.12,0,0,0-.39,1.41V14h-.5V10.37c0-.89-.41-1.34-1.23-1.34a1.43,1.43,0,0,0-1.21.49,2.47,2.47,0,0,0-.38,1.55V14h-.49V8.69h.4l.1.73h0a1.54,1.54,0,0,1,.63-.61,1.81,1.81,0,0,1,.89-.22,1.51,1.51,0,0,1,1.61.94h0a2,2,0,0,1,.7-.7,2,2,0,0,1,1-.24,1.75,1.75,0,0,1,1.31.46,2.13,2.13,0,0,1,.43,1.48V14Z"/><line class="d" x1="0.5" y1="20.5" x2="368.58" y2="20.5"/><line class="d" x1="61.85" y1="45.22" x2="61.85" y2="62.28"/><path class="b" d="M57.05,55.44a.49.49,0,0,1,.69.16l4.11,6.45L66,55.6a.49.49,0,0,1,.69-.16.5.5,0,0,1,.15.69l-4.53,7.12a.5.5,0,0,1-.42.23.54.54,0,0,1-.43-.23l-4.53-7.12a.5.5,0,0,1-.08-.26A.52.52,0,0,1,57.05,55.44Z"/><line class="d" x1="111.85" y1="82.06" x2="133.34" y2="82.06"/><path class="b" d="M126.5,86.86a.5.5,0,0,1,.15-.69l6.46-4.11L126.65,78a.5.5,0,1,1,.54-.84l7.12,4.53a.5.5,0,0,1,.23.42.54.54,0,0,1-.23.43L127.19,87a.5.5,0,0,1-.27.07A.51.51,0,0,1,126.5,86.86Z"/><line class="d" x1="108.16" y1="183.08" x2="133.34" y2="183.08"/><path class="b" d="M126.5,187.88a.5.5,0,0,1,.15-.69l6.46-4.11L126.65,179a.5.5,0,0,1,.54-.85l7.12,4.54a.5.5,0,0,1,0,.84L127.19,188a.5.5,0,0,1-.69-.15Z"/><line class="d" x1="184.54" y1="202.69" x2="184.54" y2="216.72"/><path class="b" d="M179.74,209.89a.5.5,0,0,1,.69.15l4.11,6.46,4.11-6.46a.5.5,0,0,1,.84.54L185,217.69a.49.49,0,0,1-.84,0l-4.54-7.11a.52.52,0,0,1-.07-.27A.51.51,0,0,1,179.74,209.89Z"/><polyline class="d" points="169.65 132.65 61.84 132.65 61.85 101.85"/><path class="b" d="M66.65,108.68a.5.5,0,0,1-.69-.15l-4.11-6.45-4.11,6.45a.5.5,0,0,1-.85-.54l4.53-7.11a.51.51,0,0,1,.43-.23.48.48,0,0,1,.42.23L66.8,108a.56.56,0,0,1,.08.27A.48.48,0,0,1,66.65,108.68Z"/><line class="d" x1="184.54" y1="100.65" x2="184.54" y2="116.56"/><path class="b" d="M179.74,109.73a.5.5,0,0,1,.69.15l4.11,6.45,4.11-6.45a.5.5,0,1,1,.84.54L185,117.53a.5.5,0,0,1-.84,0l-4.54-7.11a.54.54,0,0,1-.07-.27A.48.48,0,0,1,179.74,109.73Z"/><polyline class="d" points="199.43 132.65 279.19 132.65 279.19 101.85"/><path class="b" d="M284,108.68a.5.5,0,0,1-.69-.15l-4.11-6.45-4.11,6.45a.5.5,0,1,1-.84-.54l4.53-7.11a.5.5,0,0,1,.84,0l4.54,7.11a.54.54,0,0,1,.07.27A.48.48,0,0,1,284,108.68Z"/><polyline class="d" points="313.19 100.65 313.19 153.63 61.84 153.63 61.85 164.98"/><path class="b" d="M57.05,158.15a.5.5,0,0,1,.69.15l4.11,6.45L66,158.3a.5.5,0,0,1,.84.54L62.27,166a.5.5,0,0,1-.42.23.54.54,0,0,1-.43-.23l-4.53-7.11a.56.56,0,0,1-.08-.27A.49.49,0,0,1,57.05,158.15Z"/></svg>