<svg width="1721" height="854" xmlns="http://www.w3.org/2000/svg" xmlns:xlink="http://www.w3.org/1999/xlink" xml:space="preserve" overflow="hidden"><defs><filter id="fx0" x="-10%" y="-10%" width="120%" height="120%" filterUnits="userSpaceOnUse" primitiveUnits="userSpaceOnUse"><feComponentTransfer color-interpolation-filters="sRGB"><feFuncR type="discrete" tableValues="0 0"/><feFuncG type="discrete" tableValues="0 0"/><feFuncB type="discrete" tableValues="0 0"/><feFuncA type="linear" slope="0.380392" intercept="0"/></feComponentTransfer><feGaussianBlur stdDeviation="4.8119 4.8119"/></filter><filter id="fx1" x="-10%" y="-10%" width="120%" height="120%" filterUnits="userSpaceOnUse" primitiveUnits="userSpaceOnUse"><feComponentTransfer color-interpolation-filters="sRGB"><feFuncR type="discrete" tableValues="0 0"/><feFuncG type="discrete" tableValues="0 0"/><feFuncB type="discrete" tableValues="0 0"/><feFuncA type="linear" slope="0.380392" intercept="0"/></feComponentTransfer><feGaussianBlur stdDeviation="4.8119 4.8119"/></filter><filter id="fx2" x="-10%" y="-10%" width="120%" height="120%" filterUnits="userSpaceOnUse" primitiveUnits="userSpaceOnUse"><feComponentTransfer color-interpolation-filters="sRGB"><feFuncR type="discrete" tableValues="0 0"/><feFuncG type="discrete" tableValues="0 0"/><feFuncB type="discrete" tableValues="0 0"/><feFuncA type="linear" slope="0.380392" intercept="0"/></feComponentTransfer><feGaussianBlur stdDeviation="4.8119 4.8119"/></filter><filter id="fx3" x="-10%" y="-10%" width="120%" height="120%" filterUnits="userSpaceOnUse" primitiveUnits="userSpaceOnUse"><feComponentTransfer color-interpolation-filters="sRGB"><feFuncR type="discrete" tableValues="0 0"/><feFuncG type="discrete" tableValues="0 0"/><feFuncB type="discrete" tableValues="0 0"/><feFuncA type="linear" slope="0.380392" intercept="0"/></feComponentTransfer><feGaussianBlur stdDeviation="4.8119 4.8119"/></filter><filter id="fx4" x="-10%" y="-10%" width="120%" height="120%" filterUnits="userSpaceOnUse" primitiveUnits="userSpaceOnUse"><feComponentTransfer color-interpolation-filters="sRGB"><feFuncR type="discrete" tableValues="0 0"/><feFuncG type="discrete" tableValues="0 0"/><feFuncB type="discrete" tableValues="0 0"/><feFuncA type="linear" slope="0.380392" intercept="0"/></feComponentTransfer><feGaussianBlur stdDeviation="4.8119 4.8119"/></filter><filter id="fx5" x="-10%" y="-10%" width="120%" height="120%" filterUnits="userSpaceOnUse" primitiveUnits="userSpaceOnUse"><feComponentTransfer color-interpolation-filters="sRGB"><feFuncR type="discrete" tableValues="0 0"/><feFuncG type="discrete" tableValues="0 0"/><feFuncB type="discrete" tableValues="0 0"/><feFuncA type="linear" slope="0.380392" intercept="0"/></feComponentTransfer><feGaussianBlur stdDeviation="4.8119 4.8119"/></filter><filter id="fx6" x="-10%" y="-10%" width="120%" height="120%" filterUnits="userSpaceOnUse" primitiveUnits="userSpaceOnUse"><feComponentTransfer color-interpolation-filters="sRGB"><feFuncR type="discrete" tableValues="0 0"/><feFuncG type="discrete" tableValues="0 0"/><feFuncB type="discrete" tableValues="0 0"/><feFuncA type="linear" slope="0.380392" intercept="0"/></feComponentTransfer><feGaussianBlur stdDeviation="4.8119 4.8119"/></filter><filter id="fx7" x="-10%" y="-10%" width="120%" height="120%" filterUnits="userSpaceOnUse" primitiveUnits="userSpaceOnUse"><feComponentTransfer color-interpolation-filters="sRGB"><feFuncR type="discrete" tableValues="0 0"/><feFuncG type="discrete" tableValues="0 0"/><feFuncB type="discrete" tableValues="0 0"/><feFuncA type="linear" slope="0.380392" intercept="0"/></feComponentTransfer><feGaussianBlur stdDeviation="4.8119 4.8119"/></filter><filter id="fx8" x="-10%" y="-10%" width="120%" height="120%" filterUnits="userSpaceOnUse" primitiveUnits="userSpaceOnUse"><feComponentTransfer color-interpolation-filters="sRGB"><feFuncR type="discrete" tableValues="0 0"/><feFuncG type="discrete" tableValues="0 0"/><feFuncB type="discrete" tableValues="0 0"/><feFuncA type="linear" slope="0.380392" intercept="0"/></feComponentTransfer><feGaussianBlur stdDeviation="4.8119 4.8119"/></filter><filter id="fx9" x="-10%" y="-10%" width="120%" height="120%" filterUnits="userSpaceOnUse" primitiveUnits="userSpaceOnUse"><feComponentTransfer color-interpolation-filters="sRGB"><feFuncR type="discrete" tableValues="0 0"/><feFuncG type="discrete" tableValues="0 0"/><feFuncB type="discrete" tableValues="0 0"/><feFuncA type="linear" slope="0.380392" intercept="0"/></feComponentTransfer><feGaussianBlur stdDeviation="4.8119 4.8119"/></filter><filter id="fx10" x="-10%" y="-10%" width="120%" height="120%" filterUnits="userSpaceOnUse" primitiveUnits="userSpaceOnUse"><feComponentTransfer color-interpolation-filters="sRGB"><feFuncR type="discrete" tableValues="0 0"/><feFuncG type="discrete" tableValues="0 0"/><feFuncB type="discrete" tableValues="0 0"/><feFuncA type="linear" slope="0.380392" intercept="0"/></feComponentTransfer><feGaussianBlur stdDeviation="4.8119 4.8119"/></filter><filter id="fx11" x="-10%" y="-10%" width="120%" height="120%" filterUnits="userSpaceOnUse" primitiveUnits="userSpaceOnUse"><feComponentTransfer color-interpolation-filters="sRGB"><feFuncR type="discrete" tableValues="0 0"/><feFuncG type="discrete" tableValues="0 0"/><feFuncB type="discrete" tableValues="0 0"/><feFuncA type="linear" slope="0.380392" intercept="0"/></feComponentTransfer><feGaussianBlur stdDeviation="4.8119 4.8119"/></filter><filter id="fx12" x="-10%" y="-10%" width="120%" height="120%" filterUnits="userSpaceOnUse" primitiveUnits="userSpaceOnUse"><feComponentTransfer color-interpolation-filters="sRGB"><feFuncR type="discrete" tableValues="0 0"/><feFuncG type="discrete" tableValues="0 0"/><feFuncB type="discrete" tableValues="0 0"/><feFuncA type="linear" slope="0.380392" intercept="0"/></feComponentTransfer><feGaussianBlur stdDeviation="4.8119 4.8119"/></filter><filter id="fx13" x="-10%" y="-10%" width="120%" height="120%" filterUnits="userSpaceOnUse" primitiveUnits="userSpaceOnUse"><feComponentTransfer color-interpolation-filters="sRGB"><feFuncR type="discrete" tableValues="0 0"/><feFuncG type="discrete" tableValues="0 0"/><feFuncB type="discrete" tableValues="0 0"/><feFuncA type="linear" slope="0.380392" intercept="0"/></feComponentTransfer><feGaussianBlur stdDeviation="4.8119 4.8119"/></filter><filter id="fx14" x="-10%" y="-10%" width="120%" height="120%" filterUnits="userSpaceOnUse" primitiveUnits="userSpaceOnUse"><feComponentTransfer color-interpolation-filters="sRGB"><feFuncR type="discrete" tableValues="0 0"/><feFuncG type="discrete" tableValues="0 0"/><feFuncB type="discrete" tableValues="0 0"/><feFuncA type="linear" slope="0.380392" intercept="0"/></feComponentTransfer><feGaussianBlur stdDeviation="4.8119 4.8119"/></filter><filter id="fx15" x="-10%" y="-10%" width="120%" height="120%" filterUnits="userSpaceOnUse" primitiveUnits="userSpaceOnUse"><feComponentTransfer color-interpolation-filters="sRGB"><feFuncR type="discrete" tableValues="0 0"/><feFuncG type="discrete" tableValues="0 0"/><feFuncB type="discrete" tableValues="0 0"/><feFuncA type="linear" slope="0.380392" intercept="0"/></feComponentTransfer><feGaussianBlur stdDeviation="4.8119 4.8119"/></filter><filter id="fx16" x="-10%" y="-10%" width="120%" height="120%" filterUnits="userSpaceOnUse" primitiveUnits="userSpaceOnUse"><feComponentTransfer color-interpolation-filters="sRGB"><feFuncR type="discrete" tableValues="0 0"/><feFuncG type="discrete" tableValues="0 0"/><feFuncB type="discrete" tableValues="0 0"/><feFuncA type="linear" slope="0.380392" intercept="0"/></feComponentTransfer><feGaussianBlur stdDeviation="4.8119 4.8119"/></filter><filter id="fx17" x="-10%" y="-10%" width="120%" height="120%" filterUnits="userSpaceOnUse" primitiveUnits="userSpaceOnUse"><feComponentTransfer color-interpolation-filters="sRGB"><feFuncR type="discrete" tableValues="0 0"/><feFuncG type="discrete" tableValues="0 0"/><feFuncB type="discrete" tableValues="0 0"/><feFuncA type="linear" slope="0.380392" intercept="0"/></feComponentTransfer><feGaussianBlur stdDeviation="4.8119 4.8119"/></filter><filter id="fx18" x="-10%" y="-10%" width="120%" height="120%" filterUnits="userSpaceOnUse" primitiveUnits="userSpaceOnUse"><feComponentTransfer color-interpolation-filters="sRGB"><feFuncR type="discrete" tableValues="0 0"/><feFuncG type="discrete" tableValues="0 0"/><feFuncB type="discrete" tableValues="0 0"/><feFuncA type="linear" slope="0.380392" intercept="0"/></feComponentTransfer><feGaussianBlur stdDeviation="4.8119 4.8119"/></filter><filter id="fx19" x="-10%" y="-10%" width="120%" height="120%" filterUnits="userSpaceOnUse" primitiveUnits="userSpaceOnUse"><feComponentTransfer color-interpolation-filters="sRGB"><feFuncR type="discrete" tableValues="0 0"/><feFuncG type="discrete" tableValues="0 0"/><feFuncB type="discrete" tableValues="0 0"/><feFuncA type="linear" slope="0.380392" intercept="0"/></feComponentTransfer><feGaussianBlur stdDeviation="4.8119 4.8119"/></filter><filter id="fx20" x="-10%" y="-10%" width="120%" height="120%" filterUnits="userSpaceOnUse" primitiveUnits="userSpaceOnUse"><feComponentTransfer color-interpolation-filters="sRGB"><feFuncR type="discrete" tableValues="0 0"/><feFuncG type="discrete" tableValues="0 0"/><feFuncB type="discrete" tableValues="0 0"/><feFuncA type="linear" slope="0.380392" intercept="0"/></feComponentTransfer><feGaussianBlur stdDeviation="4.8119 4.8119"/></filter><filter id="fx21" x="-10%" y="-10%" width="120%" height="120%" filterUnits="userSpaceOnUse" primitiveUnits="userSpaceOnUse"><feComponentTransfer color-interpolation-filters="sRGB"><feFuncR type="discrete" tableValues="0 0"/><feFuncG type="discrete" tableValues="0 0"/><feFuncB type="discrete" tableValues="0 0"/><feFuncA type="linear" slope="0.380392" intercept="0"/></feComponentTransfer><feGaussianBlur stdDeviation="4.8119 4.8119"/></filter><clipPath id="clip22"><path d="M2122 514 2122 1258 3107 1258 3131.8 1158.8 3231 1134 3231 514ZM1542 433 3263 433 3263 1287 1542 1287Z" fill-rule="evenodd" clip-rule="evenodd"/></clipPath><clipPath id="clip23"><path d="M2122 514 2122 661 2606 661 2606 514ZM1542 433 3263 433 3263 1287 1542 1287Z" fill-rule="evenodd" clip-rule="evenodd"/></clipPath><clipPath id="clip24"><rect x="43" y="34" width="442" height="103"/></clipPath><clipPath id="clip25"><path d="M2606 515 2606 661 3231 661 3231 515ZM1542 433 3263 433 3263 1287 1542 1287Z" fill-rule="evenodd" clip-rule="evenodd"/></clipPath><clipPath id="clip26"><rect x="37" y="28" width="224" height="85"/></clipPath><clipPath id="clip27"><rect x="-5" y="16" width="393" height="85"/></clipPath><clipPath id="clip28"><path d="M2122 662 2122 807 2747 807 2747 662ZM1542 433 3263 433 3263 1287 1542 1287Z" fill-rule="evenodd" clip-rule="evenodd"/></clipPath><clipPath id="clip29"><rect x="37" y="28" width="224" height="85"/></clipPath><clipPath id="clip30"><rect x="-5" y="16" width="393" height="85"/></clipPath><clipPath id="clip31"><rect x="-5" y="16" width="169" height="85"/></clipPath><clipPath id="clip32"><path d="M2312 806 2312 952 2938 952 2938 806ZM1542 433 3263 433 3263 1287 1542 1287Z" fill-rule="evenodd" clip-rule="evenodd"/></clipPath><clipPath id="clip33"><rect x="37" y="28" width="224" height="85"/></clipPath><clipPath id="clip34"><rect x="-5" y="16" width="393" height="85"/></clipPath><clipPath id="clip35"><path d="M2939 806 2939 952 3233 952 3233 806ZM1542 433 3263 433 3263 1287 1542 1287Z" fill-rule="evenodd" clip-rule="evenodd"/></clipPath><clipPath id="clip36"><rect x="37" y="28" width="224" height="85"/></clipPath><clipPath id="clip37"><path d="M2119 949 2119 1094 2435 1094 2435 949ZM1542 433 3263 433 3263 1287 1542 1287Z" fill-rule="evenodd" clip-rule="evenodd"/></clipPath><clipPath id="clip38"><rect x="-5" y="16" width="272" height="85"/></clipPath><clipPath id="clip39"><path d="M2431 949 2431 1094 3057 1094 3057 949ZM1542 433 3263 433 3263 1287 1542 1287Z" fill-rule="evenodd" clip-rule="evenodd"/></clipPath><clipPath id="clip40"><rect x="37" y="28" width="224" height="85"/></clipPath><clipPath id="clip41"><rect x="-5" y="16" width="393" height="85"/></clipPath></defs><g transform="translate(-1542 -433)"><text fill="#541B27" font-family="Arial,Arial_MSFontService,sans-serif" font-weight="400" font-size="48" transform="matrix(1 0 0 1 1575.25 501)">Record id:</text><text fill="#541B27" font-family="Arial,Arial_MSFontService,sans-serif" font-weight="400" font-size="48" transform="matrix(1 0 0 1 1575.25 559)">(Page 2, Record 4)</text><g clip-path="url(#clip22)"><g filter="url(#fx0)" transform="translate(2099 498)"><g><path d="M23 23.2178 1132 23.2178 1132 643.216 1008 767.218 23 767.218Z" fill="#FFFFFF" fill-rule="evenodd"/><path d="M1008 767.218 1032.8 668.016 1132 643.216Z" fill="#CDCDCD" fill-rule="evenodd"/><path d="M1008 767.218 1032.8 668.016 1132 643.216 1008 767.218 23 767.218 23 23.2178 1132 23.2178 1132 643.216" stroke="#FFFFFF" stroke-width="14" stroke-linejoin="round" stroke-miterlimit="10" fill="none" fill-rule="evenodd"/></g></g></g><path d="M2122 514 3231 514 3231 1134 3107 1258 2122 1258Z" fill="#FFFFFF" fill-rule="evenodd"/><path d="M3107 1258 3131.8 1158.8 3231 1134Z" fill="#CDCDCD" fill-rule="evenodd"/><path d="M3107 1258 3131.8 1158.8 3231 1134 3107 1258 2122 1258 2122 514 3231 514 3231 1134" stroke="#FFFFFF" stroke-width="13.75" stroke-linejoin="round" stroke-miterlimit="10" fill="none" fill-rule="evenodd"/><g clip-path="url(#clip23)"><g filter="url(#fx1)" transform="translate(2099 498)"><g><rect x="23" y="23.2178" width="484" height="147" stroke="#FFFFFF" stroke-width="14" stroke-linejoin="round" stroke-miterlimit="10" fill="#79C6C1"/></g></g><g clip-path="url(#clip24)" filter="url(#fx2)" transform="translate(2103 517)"><g><path d="M5.32324 0 5.32324-49.3916 23.9546-49.3916C27.2339-49.3916 29.7383-49.2344 31.4678-48.9199 33.8936-48.5156 35.9263-47.7463 37.5659-46.6121 39.2056-45.4778 40.5251-43.8887 41.5247-41.8447 42.5242-39.8008 43.0239-37.5547 43.0239-35.1064 43.0239-30.9062 41.6875-27.3518 39.0146-24.4431 36.3418-21.5344 31.5127-20.0801 24.5273-20.0801L11.8594-20.0801 11.8594 0ZM11.8594-25.9087 24.6284-25.9087C28.8511-25.9087 31.8496-26.6948 33.624-28.2671 35.3984-29.8394 36.2856-32.0518 36.2856-34.9043 36.2856-36.9707 35.7634-38.7395 34.719-40.2107 33.6746-41.6819 32.2988-42.6533 30.5918-43.125 29.4912-43.417 27.4585-43.563 24.4937-43.563L11.8594-43.563ZM73.7298-4.41357C71.4837-2.50439 69.3219-1.15674 67.2442-0.370605 65.1666 0.415527 62.9373 0.808594 60.5565 0.808594 56.6258 0.808594 53.6048-0.151611 51.4935-2.07202 49.3822-3.99243 48.3265-6.44629 48.3265-9.43359 48.3265-11.1855 48.7252-12.7859 49.5225-14.2346 50.3199-15.6833 51.3643-16.8457 52.6558-17.7217 53.9473-18.5977 55.4017-19.2603 57.0189-19.7095 58.2093-20.0239 60.0062-20.3271 62.4095-20.6191 67.306-21.2031 70.911-21.8994 73.2244-22.708 73.2469-23.5391 73.2581-24.0669 73.2581-24.2915 73.2581-26.7622 72.6854-28.5029 71.5399-29.5137 69.9901-30.8838 67.6878-31.5688 64.6331-31.5688 61.7806-31.5688 59.6749-31.0691 58.316-30.0696 56.9571-29.0701 55.952-27.3013 55.3006-24.7632L49.3709-25.5718C49.91-28.1099 50.7972-30.1594 52.0326-31.7205 53.2679-33.2815 55.0535-34.4832 57.3895-35.3254 59.7254-36.1677 62.432-36.5889 65.5091-36.5889 68.5638-36.5889 71.0457-36.2295 72.9549-35.5107 74.8641-34.792 76.2679-33.8879 77.1663-32.7986 78.0648-31.7092 78.6937-30.3335 79.0531-28.6714 79.2552-27.6382 79.3563-25.7739 79.3563-23.0786L79.3563-14.9927C79.3563-9.35498 79.4854-5.78931 79.7437-4.29565 80.002-2.802 80.513-1.37012 81.2767 0L74.9427 0C74.3138-1.25781 73.9095-2.729 73.7298-4.41357ZM73.2244-17.9575C71.0233-17.0591 67.7215-16.2954 63.3192-15.6665 60.826-15.3071 59.0628-14.9028 58.0296-14.4536 56.9964-14.0044 56.1991-13.3474 55.6375-12.4827 55.076-11.6179 54.7952-10.6577 54.7952-9.60205 54.7952-7.98486 55.4073-6.63721 56.6314-5.55908 57.8555-4.48096 59.6468-3.94189 62.0052-3.94189 64.3411-3.94189 66.4188-4.45288 68.2381-5.47485 70.0574-6.49683 71.3939-7.89502 72.2474-9.66943 72.8988-11.0395 73.2244-13.061 73.2244-15.7339ZM87.6553 2.96484 93.5513 3.84082C93.7983 5.66016 94.4834 6.98535 95.6064 7.81641 97.1113 8.93945 99.1665 9.50098 101.772 9.50098 104.58 9.50098 106.747 8.93945 108.274 7.81641 109.802 6.69336 110.835 5.12109 111.374 3.09961 111.688 1.86426 111.834-0.72998 111.812-4.6831 109.162-1.56104 105.86 0 101.907 0 96.9878 0 93.1807-1.77441 90.4854-5.32324 87.79-8.87207 86.4424-13.1284 86.4424-18.0923 86.4424-21.5063 87.0601-24.6565 88.2954-27.5427 89.5308-30.429 91.322-32.6582 93.6692-34.2305 96.0164-35.8027 98.7734-36.5889 101.94-36.5889 106.163-36.5889 109.645-34.8818 112.385-31.4678L112.385-35.7803 117.978-35.7803 117.978-4.85156C117.978 0.71875 117.41 4.66626 116.276 6.99097 115.142 9.31567 113.345 11.1519 110.885 12.4995 108.426 13.8472 105.399 14.521 101.806 14.521 97.5381 14.521 94.0903 13.5608 91.4624 11.6404 88.8345 9.71997 87.5654 6.82812 87.6553 2.96484ZM92.6753-18.5303C92.6753-13.8359 93.6074-10.4106 95.4717-8.25439 97.3359-6.09814 99.6719-5.02002 102.479-5.02002 105.265-5.02002 107.601-6.09253 109.487-8.23755 111.374-10.3826 112.317-13.7461 112.317-18.3281 112.317-22.708 111.346-26.0098 109.403-28.2334 107.46-30.457 105.119-31.5688 102.378-31.5688 99.6831-31.5688 97.3921-30.4739 95.5054-28.2839 93.6187-26.094 92.6753-22.8428 92.6753-18.5303ZM151.646-11.5225 157.913-10.7476C156.924-7.08642 155.094-4.24512 152.421-2.22363 149.748-0.202148 146.334 0.808594 142.179 0.808594 136.945 0.808594 132.796-0.802979 129.73-4.02612 126.664-7.24927 125.131-11.7695 125.131-17.5869 125.131-23.6064 126.681-28.2783 129.78-31.6025 132.88-34.9268 136.901-36.5889 141.842-36.5889 146.626-36.5889 150.534-34.9604 153.567-31.7036 156.599-28.4468 158.115-23.8647 158.115-17.9575 158.115-17.5981 158.104-17.0591 158.081-16.3403L131.398-16.3403C131.622-12.4097 132.734-9.3999 134.733-7.31103 136.732-5.22217 139.225-4.17773 142.213-4.17773 144.436-4.17773 146.334-4.76172 147.906-5.92969 149.479-7.09766 150.725-8.96191 151.646-11.5225ZM131.735-21.3267 151.714-21.3267C151.444-24.3364 150.68-26.5937 149.423-28.0986 147.491-30.4346 144.986-31.6025 141.909-31.6025 139.124-31.6025 136.783-30.6704 134.885-28.8061 132.987-26.9419 131.937-24.4487 131.735-21.3267ZM185.421 0 185.421-49.3916 191.957-49.3916 191.957-29.1094 217.63-29.1094 217.63-49.3916 224.166-49.3916 224.166 0 217.63 0 217.63-23.2808 191.957-23.2808 191.957 0ZM258.782-11.5225 265.048-10.7476C264.06-7.08642 262.229-4.24512 259.556-2.22363 256.884-0.202148 253.47 0.808594 249.314 0.808594 244.081 0.808594 239.931-0.802979 236.865-4.02612 233.799-7.24927 232.266-11.7695 232.266-17.5869 232.266-23.6064 233.816-28.2783 236.916-31.6025 240.015-34.9268 244.036-36.5889 248.977-36.5889 253.762-36.5889 257.67-34.9604 260.702-31.7036 263.734-28.4468 265.25-23.8647 265.25-17.9575 265.25-17.5981 265.239-17.0591 265.217-16.3403L238.533-16.3403C238.758-12.4097 239.869-9.3999 241.868-7.31103 243.868-5.22217 246.361-4.17773 249.348-4.17773 251.572-4.17773 253.47-4.76172 255.042-5.92969 256.614-7.09766 257.861-8.96191 258.782-11.5225ZM238.87-21.3267 258.849-21.3267C258.579-24.3364 257.816-26.5937 256.558-28.0986 254.626-30.4346 252.122-31.6025 249.045-31.6025 246.26-31.6025 243.918-30.6704 242.02-28.8061 240.122-26.9419 239.072-24.4487 238.87-21.3267ZM296.021-4.41357C293.775-2.50439 291.614-1.15674 289.536-0.370605 287.458 0.415527 285.229 0.808594 282.848 0.808594 278.917 0.808594 275.896-0.151611 273.785-2.07202 271.674-3.99243 270.618-6.44629 270.618-9.43359 270.618-11.1855 271.017-12.7859 271.814-14.2346 272.612-15.6833 273.656-16.8457 274.948-17.7217 276.239-18.5977 277.693-19.2603 279.311-19.7095 280.501-20.0239 282.298-20.3271 284.701-20.6191 289.598-21.2031 293.203-21.8994 295.516-22.708 295.539-23.5391 295.55-24.0669 295.55-24.2915 295.55-26.7622 294.977-28.5029 293.832-29.5137 292.282-30.8838 289.979-31.5688 286.925-31.5688 284.072-31.5688 281.967-31.0691 280.608-30.0696 279.249-29.0701 278.244-27.3013 277.592-24.7632L271.663-25.5718C272.202-28.1099 273.089-30.1594 274.324-31.7205 275.56-33.2815 277.345-34.4832 279.681-35.3254 282.017-36.1677 284.724-36.5889 287.801-36.5889 290.855-36.5889 293.337-36.2295 295.247-35.5107 297.156-34.792 298.56-33.8879 299.458-32.7986 300.356-31.7092 300.985-30.3335 301.345-28.6714 301.547-27.6382 301.648-25.7739 301.648-23.0786L301.648-14.9927C301.648-9.35498 301.777-5.78931 302.035-4.29565 302.294-2.802 302.805-1.37012 303.568 0L297.234 0C296.605-1.25781 296.201-2.729 296.021-4.41357ZM295.516-17.9575C293.315-17.0591 290.013-16.2954 285.611-15.6665 283.118-15.3071 281.354-14.9028 280.321-14.4536 279.288-14.0044 278.491-13.3474 277.929-12.4827 277.368-11.6179 277.087-10.6577 277.087-9.60205 277.087-7.98486 277.699-6.63721 278.923-5.55908 280.147-4.48096 281.938-3.94189 284.297-3.94189 286.633-3.94189 288.71-4.45288 290.53-5.47485 292.349-6.49683 293.686-7.89502 294.539-9.66943 295.19-11.0395 295.516-13.061 295.516-15.7339ZM334.272 0 334.272-4.51465C332.004-0.96582 328.668 0.808594 324.266 0.808594 321.413 0.808594 318.791 0.0224608 316.399-1.5498 314.007-3.12207 312.154-5.31763 310.84-8.13647 309.526-10.9553 308.869-14.1953 308.869-17.8564 308.869-21.4277 309.464-24.6677 310.654-27.5764 311.845-30.4851 313.63-32.7144 316.011-34.2642 318.392-35.814 321.054-36.5889 323.996-36.5889 326.152-36.5889 328.073-36.134 329.757-35.2244 331.442-34.3147 332.812-33.1299 333.868-31.6699L333.868-49.3916 339.899-49.3916 339.899 0ZM315.102-17.8564C315.102-13.2744 316.068-9.84912 317.999-7.58057 319.931-5.31201 322.211-4.17773 324.839-4.17773 327.489-4.17773 329.741-5.26147 331.594-7.42895 333.447-9.59643 334.373-12.9038 334.373-17.3511 334.373-22.2476 333.43-25.8413 331.543-28.1323 329.656-30.4233 327.332-31.5688 324.569-31.5688 321.874-31.5688 319.622-30.4683 317.814-28.2671 316.006-26.0659 315.102-22.5957 315.102-17.8564ZM373.938-11.5225 380.204-10.7476C379.216-7.08642 377.386-4.24512 374.713-2.22363 372.04-0.202148 368.626 0.808594 364.471 0.808594 359.237 0.808594 355.087-0.802979 352.022-4.02612 348.956-7.24927 347.423-11.7695 347.423-17.5869 347.423-23.6064 348.972-28.2783 352.072-31.6025 355.172-34.9268 359.192-36.5889 364.134-36.5889 368.918-36.5889 372.826-34.9604 375.858-31.7036 378.89-28.4468 380.407-23.8647 380.407-17.9575 380.407-17.5981 380.395-17.0591 380.373-16.3403L353.689-16.3403C353.914-12.4097 355.026-9.3999 357.025-7.31103 359.024-5.22217 361.517-4.17773 364.504-4.17773 366.728-4.17773 368.626-4.76172 370.198-5.92969 371.77-7.09766 373.017-8.96191 373.938-11.5225ZM354.026-21.3267 374.005-21.3267C373.736-24.3364 372.972-26.5937 371.714-28.0986 369.783-30.4346 367.278-31.6025 364.201-31.6025 361.416-31.6025 359.074-30.6704 357.176-28.8061 355.278-26.9419 354.228-24.4487 354.026-21.3267ZM387.762 0 387.762-35.7803 393.22-35.7803 393.22-30.356C394.613-32.894 395.899-34.5674 397.078-35.376 398.257-36.1846 399.554-36.5889 400.969-36.5889 403.013-36.5889 405.091-35.9375 407.202-34.6348L405.113-29.0083C403.631-29.8843 402.148-30.3223 400.666-30.3223 399.341-30.3223 398.15-29.9236 397.095-29.1262 396.039-28.3289 395.287-27.2227 394.837-25.8076 394.164-23.6514 393.827-21.293 393.827-18.7324L393.827 0Z" transform="matrix(1 0 0 1 57.6997 103)"/></g></g></g><rect x="2122" y="514" width="484" height="147" stroke="#FFFFFF" stroke-width="13.75" stroke-linejoin="round" stroke-miterlimit="10" fill="#79C6C1"/><text font-family="Arial,Arial_MSFontService,sans-serif" font-weight="400" font-size="69" transform="matrix(1 0 0 1 2160.7 613)">Page Header </text><g clip-path="url(#clip25)"><g filter="url(#fx3)" transform="translate(2583 499)"><g><rect x="23" y="23.2178" width="625" height="146" stroke="#FFFFFF" stroke-width="14" stroke-linejoin="round" stroke-miterlimit="10" fill="#44516F"/></g></g><g clip-path="url(#clip26)" filter="url(#fx4)" transform="translate(2587 525)"><g><path d="M4.7168 0 4.7168-42.9492 23.7598-42.9492C27.5879-42.9492 30.498-42.5635 32.4902-41.792 34.4824-41.0205 36.0742-39.6582 37.2656-37.7051 38.457-35.7519 39.0527-33.5937 39.0527-31.2305 39.0527-28.1836 38.0664-25.6152 36.0937-23.5254 34.1211-21.4355 31.0742-20.1074 26.9531-19.541 28.457-18.8184 29.5996-18.1055 30.3809-17.4023 32.041-15.8789 33.6133-13.9746 35.0977-11.6895L42.5684 0 35.4199 0 29.7363-8.93555C28.0762-11.5137 26.709-13.4863 25.6348-14.8535 24.5605-16.2207 23.5986-17.1777 22.749-17.7246 21.8994-18.2715 21.0352-18.6523 20.1562-18.8672 19.5117-19.0039 18.457-19.0723 16.9922-19.0723L10.4004-19.0723 10.4004 0ZM10.4004-23.9941 22.6172-23.9941C25.2148-23.9941 27.2461-24.2627 28.7109-24.7998 30.1758-25.3369 31.2891-26.1963 32.0508-27.3779 32.8125-28.5596 33.1934-29.8437 33.1934-31.2305 33.1934-33.2617 32.4561-34.9316 30.9814-36.2402 29.5068-37.5488 27.1777-38.2031 23.9941-38.2031L10.4004-38.2031ZM68.2226-10.0195 73.6719-9.3457C72.8125-6.16211 71.2207-3.69141 68.8965-1.93359 66.5723-0.175781 63.6035 0.703125 59.9902 0.703125 55.4394 0.703125 51.831-0.698242 49.165-3.50098 46.499-6.30371 45.166-10.2344 45.166-15.293 45.166-20.5273 46.5137-24.5898 49.209-27.4805 51.9043-30.3711 55.4004-31.8164 59.6973-31.8164 63.8574-31.8164 67.2558-30.4004 69.8926-27.5684 72.5293-24.7363 73.8476-20.752 73.8476-15.6152 73.8476-15.3027 73.8379-14.834 73.8184-14.209L50.6152-14.209C50.8105-10.791 51.7773-8.17383 53.5156-6.35742 55.2539-4.54102 57.4219-3.63281 60.0195-3.63281 61.9531-3.63281 63.6035-4.14062 64.9707-5.15625 66.3379-6.17187 67.4219-7.79297 68.2226-10.0195ZM50.9082-18.5449 68.2812-18.5449C68.0469-21.1621 67.3828-23.125 66.2891-24.4336 64.6094-26.4648 62.4316-27.4805 59.7559-27.4805 57.334-27.4805 55.2978-26.6699 53.6475-25.0488 51.9971-23.4277 51.084-21.2598 50.9082-18.5449ZM100.456-11.3965 105.641-10.7227C105.075-7.14844 103.625-4.35059 101.291-2.3291 98.9567-0.307617 96.0905 0.703125 92.692 0.703125 88.4342 0.703125 85.0114-0.688477 82.4235-3.47168 79.8356-6.25488 78.5417-10.2441 78.5417-15.4395 78.5417-18.7988 79.0983-21.7383 80.2116-24.2578 81.3249-26.7773 83.0192-28.667 85.2946-29.9268 87.57-31.1865 90.0456-31.8164 92.7213-31.8164 96.1003-31.8164 98.8639-30.9619 101.012-29.2529 103.161-27.5439 104.538-25.1172 105.143-21.9727L100.016-21.1816C99.528-23.2715 98.6637-24.8437 97.4235-25.8984 96.1833-26.9531 94.6842-27.4805 92.9264-27.4805 90.2702-27.4805 88.112-26.5283 86.4518-24.624 84.7917-22.7197 83.9616-19.707 83.9616-15.5859 83.9616-11.4062 84.7624-8.36914 86.3639-6.47461 87.9655-4.58008 90.0553-3.63281 92.6335-3.63281 94.7038-3.63281 96.4323-4.26758 97.819-5.53711 99.2057-6.80664 100.085-8.75976 100.456-11.3965ZM107.982-15.5566C107.982-21.3184 109.583-25.5859 112.786-28.3594 115.462-30.6641 118.724-31.8164 122.572-31.8164 126.849-31.8164 130.345-30.415 133.06-27.6123 135.775-24.8096 137.132-20.9375 137.132-15.9961 137.132-11.9922 136.532-8.84277 135.33-6.54785 134.129-4.25293 132.381-2.4707 130.086-1.20117 127.791 0.0683593 125.286 0.703125 122.572 0.703125 118.216 0.703125 114.696-0.693359 112.01-3.48633 109.325-6.2793 107.982-10.3027 107.982-15.5566ZM113.402-15.5566C113.402-11.5723 114.271-8.58887 116.009-6.60644 117.747-4.62402 119.935-3.63281 122.572-3.63281 125.189-3.63281 127.367-4.62891 129.105-6.62109 130.843-8.61328 131.712-11.6504 131.712-15.7324 131.712-19.5801 130.838-22.4951 129.09-24.4775 127.342-26.46 125.169-27.4512 122.572-27.4512 119.935-27.4512 117.747-26.4648 116.009-24.4922 114.271-22.5195 113.402-19.541 113.402-15.5566ZM143.115 0 143.115-31.1133 147.861-31.1133 147.861-26.3965C149.072-28.6035 150.19-30.0586 151.216-30.7617 152.241-31.4648 153.369-31.8164 154.6-31.8164 156.377-31.8164 158.184-31.25 160.02-30.1172L158.203-25.2246C156.914-25.9863 155.625-26.3672 154.336-26.3672 153.184-26.3672 152.148-26.0205 151.23-25.3271 150.312-24.6338 149.658-23.6719 149.268-22.4414 148.682-20.5664 148.389-18.5156 148.389-16.2891L148.389 0ZM183.411 0 183.411-3.92578C181.439-0.839844 178.538 0.703125 174.71 0.703125 172.23 0.703125 169.95 0.0195312 167.869-1.34766 165.789-2.71484 164.178-4.62402 163.035-7.07519 161.893-9.52637 161.322-12.3437 161.322-15.5273 161.322-18.6328 161.839-21.4502 162.874-23.9795 163.909-26.5088 165.462-28.4473 167.533-29.7949 169.603-31.1426 171.917-31.8164 174.476-31.8164 176.351-31.8164 178.021-31.4209 179.486-30.6299 180.951-29.8389 182.142-28.8086 183.06-27.5391L183.06-42.9492 188.304-42.9492 188.304 0ZM166.742-15.5273C166.742-11.543 167.581-8.56445 169.261-6.5918 170.941-4.61914 172.923-3.63281 175.208-3.63281 177.513-3.63281 179.471-4.5752 181.082-6.45996 182.694-8.34473 183.499-11.2207 183.499-15.0879 183.499-19.3457 182.679-22.4707 181.038-24.4629 179.398-26.4551 177.376-27.4512 174.974-27.4512 172.63-27.4512 170.672-26.4941 169.1-24.5801 167.528-22.666 166.742-19.6484 166.742-15.5273Z" fill="#FFFFFF" transform="matrix(1 0 0 1 51.6375 92)"/></g></g></g><rect x="2606" y="515" width="625" height="146" stroke="#FFFFFF" stroke-width="13.75" stroke-linejoin="round" stroke-miterlimit="10" fill="#44516F"/><text fill="#FFFFFF" font-family="Arial,Arial_MSFontService,sans-serif" font-weight="400" font-size="60" transform="matrix(1 0 0 1 2638.64 610)">Record</text><g clip-path="url(#clip27)" filter="url(#fx5)" transform="translate(2837 538)"><g><path d="M37 57.218 368.549 57.2184" fill="#44516F" fill-rule="evenodd"/><path d="M37 50.218 333.549 50.2183 333.549 64.2183 37 64.218ZM37 78.218C25.402 78.218 16 68.816 16 57.218 16 45.62 25.402 36.218 37 36.218 48.598 36.218 58 45.6201 58 57.218 58 68.816 48.598 78.218 37 78.218ZM326.549 36.2183 368.549 57.2184 326.549 78.2183Z" fill="#FFFFFF"/></g></g><path d="M2874 588 3205.55 588.001" fill="#44516F" fill-rule="evenodd"/><path d="M2874 581.125 3171.17 581.125 3171.17 594.875 2874 594.875ZM2874 608.625C2862.61 608.625 2853.38 599.391 2853.38 588 2853.38 576.609 2862.61 567.375 2874 567.375 2885.39 567.375 2894.62 576.609 2894.62 588 2894.62 599.391 2885.39 608.625 2874 608.625ZM3164.3 567.375 3205.55 588.001 3164.3 608.625Z" fill="#FFFFFF"/><g clip-path="url(#clip28)"><g filter="url(#fx6)" transform="translate(2099 646)"><g><rect x="23" y="23.2179" width="625" height="145" stroke="#FFFFFF" stroke-width="14" stroke-linejoin="round" stroke-miterlimit="10" fill="#44516F"/></g></g><g clip-path="url(#clip29)" filter="url(#fx7)" transform="translate(2103 672)"><g><path d="M4.7168 0 4.7168-42.9492 23.7598-42.9492C27.5879-42.9492 30.498-42.5635 32.4902-41.792 34.4824-41.0205 36.0742-39.6582 37.2656-37.7051 38.457-35.7519 39.0527-33.5937 39.0527-31.2305 39.0527-28.1836 38.0664-25.6152 36.0937-23.5254 34.1211-21.4355 31.0742-20.1074 26.9531-19.541 28.457-18.8184 29.5996-18.1055 30.3809-17.4023 32.041-15.8789 33.6133-13.9746 35.0977-11.6895L42.5684 0 35.4199 0 29.7363-8.93555C28.0762-11.5137 26.709-13.4863 25.6348-14.8535 24.5605-16.2207 23.5986-17.1777 22.749-17.7246 21.8994-18.2715 21.0352-18.6523 20.1562-18.8672 19.5117-19.0039 18.457-19.0723 16.9922-19.0723L10.4004-19.0723 10.4004 0ZM10.4004-23.9941 22.6172-23.9941C25.2148-23.9941 27.2461-24.2627 28.7109-24.7998 30.1758-25.3369 31.2891-26.1963 32.0508-27.3779 32.8125-28.5596 33.1934-29.8437 33.1934-31.2305 33.1934-33.2617 32.4561-34.9316 30.9814-36.2402 29.5068-37.5488 27.1777-38.2031 23.9941-38.2031L10.4004-38.2031ZM68.2226-10.0195 73.6719-9.3457C72.8125-6.16211 71.2207-3.69141 68.8965-1.93359 66.5723-0.175781 63.6035 0.703125 59.9902 0.703125 55.4394 0.703125 51.831-0.698242 49.165-3.50098 46.499-6.30371 45.166-10.2344 45.166-15.293 45.166-20.5273 46.5137-24.5898 49.209-27.4805 51.9043-30.3711 55.4004-31.8164 59.6973-31.8164 63.8574-31.8164 67.2558-30.4004 69.8926-27.5684 72.5293-24.7363 73.8476-20.752 73.8476-15.6152 73.8476-15.3027 73.8379-14.834 73.8184-14.209L50.6152-14.209C50.8105-10.791 51.7773-8.17383 53.5156-6.35742 55.2539-4.54102 57.4219-3.63281 60.0195-3.63281 61.9531-3.63281 63.6035-4.14062 64.9707-5.15625 66.3379-6.17187 67.4219-7.79297 68.2226-10.0195ZM50.9082-18.5449 68.2812-18.5449C68.0469-21.1621 67.3828-23.125 66.2891-24.4336 64.6094-26.4648 62.4316-27.4805 59.7559-27.4805 57.334-27.4805 55.2978-26.6699 53.6475-25.0488 51.9971-23.4277 51.084-21.2598 50.9082-18.5449ZM100.456-11.3965 105.641-10.7227C105.075-7.14844 103.625-4.35059 101.291-2.3291 98.9567-0.307617 96.0905 0.703125 92.692 0.703125 88.4342 0.703125 85.0114-0.688477 82.4235-3.47168 79.8356-6.25488 78.5417-10.2441 78.5417-15.4395 78.5417-18.7988 79.0983-21.7383 80.2116-24.2578 81.3249-26.7773 83.0192-28.667 85.2946-29.9268 87.57-31.1865 90.0456-31.8164 92.7213-31.8164 96.1003-31.8164 98.8639-30.9619 101.012-29.2529 103.161-27.5439 104.538-25.1172 105.143-21.9727L100.016-21.1816C99.528-23.2715 98.6637-24.8437 97.4235-25.8984 96.1833-26.9531 94.6842-27.4805 92.9264-27.4805 90.2702-27.4805 88.112-26.5283 86.4518-24.624 84.7917-22.7197 83.9616-19.707 83.9616-15.5859 83.9616-11.4062 84.7624-8.36914 86.3639-6.47461 87.9655-4.58008 90.0553-3.63281 92.6335-3.63281 94.7038-3.63281 96.4323-4.26758 97.819-5.53711 99.2057-6.80664 100.085-8.75976 100.456-11.3965ZM107.982-15.5566C107.982-21.3184 109.583-25.5859 112.786-28.3594 115.462-30.6641 118.724-31.8164 122.572-31.8164 126.849-31.8164 130.345-30.415 133.06-27.6123 135.775-24.8096 137.132-20.9375 137.132-15.9961 137.132-11.9922 136.532-8.84277 135.33-6.54785 134.129-4.25293 132.381-2.4707 130.086-1.20117 127.791 0.0683593 125.286 0.703125 122.572 0.703125 118.216 0.703125 114.696-0.693359 112.01-3.48633 109.325-6.2793 107.982-10.3027 107.982-15.5566ZM113.402-15.5566C113.402-11.5723 114.271-8.58887 116.009-6.60644 117.747-4.62402 119.935-3.63281 122.572-3.63281 125.189-3.63281 127.367-4.62891 129.105-6.62109 130.843-8.61328 131.712-11.6504 131.712-15.7324 131.712-19.5801 130.838-22.4951 129.09-24.4775 127.342-26.46 125.169-27.4512 122.572-27.4512 119.935-27.4512 117.747-26.4648 116.009-24.4922 114.271-22.5195 113.402-19.541 113.402-15.5566ZM143.115 0 143.115-31.1133 147.861-31.1133 147.861-26.3965C149.072-28.6035 150.19-30.0586 151.216-30.7617 152.241-31.4648 153.369-31.8164 154.6-31.8164 156.377-31.8164 158.184-31.25 160.02-30.1172L158.203-25.2246C156.914-25.9863 155.625-26.3672 154.336-26.3672 153.184-26.3672 152.148-26.0205 151.23-25.3271 150.312-24.6338 149.658-23.6719 149.268-22.4414 148.682-20.5664 148.389-18.5156 148.389-16.2891L148.389 0ZM183.411 0 183.411-3.92578C181.439-0.839844 178.538 0.703125 174.71 0.703125 172.23 0.703125 169.95 0.0195312 167.869-1.34766 165.789-2.71484 164.178-4.62402 163.035-7.07519 161.893-9.52637 161.322-12.3437 161.322-15.5273 161.322-18.6328 161.839-21.4502 162.874-23.9795 163.909-26.5088 165.462-28.4473 167.533-29.7949 169.603-31.1426 171.917-31.8164 174.476-31.8164 176.351-31.8164 178.021-31.4209 179.486-30.6299 180.951-29.8389 182.142-28.8086 183.06-27.5391L183.06-42.9492 188.304-42.9492 188.304 0ZM166.742-15.5273C166.742-11.543 167.581-8.56445 169.261-6.5918 170.941-4.61914 172.923-3.63281 175.208-3.63281 177.513-3.63281 179.471-4.5752 181.082-6.45996 182.694-8.34473 183.499-11.2207 183.499-15.0879 183.499-19.3457 182.679-22.4707 181.038-24.4629 179.398-26.4551 177.376-27.4512 174.974-27.4512 172.63-27.4512 170.672-26.4941 169.1-24.5801 167.528-22.666 166.742-19.6484 166.742-15.5273Z" fill="#FFFFFF" transform="matrix(1 0 0 1 51.959 92)"/></g></g></g><rect x="2122" y="662" width="625" height="145" stroke="#FFFFFF" stroke-width="13.75" stroke-linejoin="round" stroke-miterlimit="10" fill="#44516F"/><text fill="#FFFFFF" font-family="Arial,Arial_MSFontService,sans-serif" font-weight="400" font-size="60" transform="matrix(1 0 0 1 2154.96 756)">Record</text><g clip-path="url(#clip30)" filter="url(#fx8)" transform="translate(2354 684)"><g><path d="M37.0002 57.2178 368.55 57.2181" fill="#44516F" fill-rule="evenodd"/><path d="M37.0003 50.2178 333.55 50.2181 333.55 64.2181 37.0002 64.2178ZM37.0002 78.2178C25.4022 78.2178 16.0002 68.8157 16.0002 57.2178 16.0003 45.6198 25.4023 36.2178 37.0003 36.2178 48.5982 36.2178 58.0003 45.6198 58.0002 57.2178 58.0002 68.8158 48.5982 78.2178 37.0002 78.2178ZM326.55 36.2181 368.55 57.2181 326.55 78.2181Z" fill="#FFFFFF"/></g></g><path d="M2391 734 2722.55 734" fill="#44516F" fill-rule="evenodd"/><path d="M2391 727.125 2688.17 727.125 2688.17 740.875 2391 740.875ZM2391 754.625C2379.61 754.625 2370.38 745.391 2370.38 734 2370.38 722.609 2379.61 713.375 2391 713.375 2402.39 713.375 2411.63 722.609 2411.63 734 2411.63 745.391 2402.39 754.625 2391 754.625ZM2681.3 713.375 2722.55 734 2681.3 754.625Z" fill="#FFFFFF"/><g filter="url(#fx9)" transform="translate(2966 814)"><g><path d="M0 0 186.685 0.000360892" fill="#44516F" fill-rule="evenodd" transform="matrix(1 0 0 -1 37 36.2181)"/><path d="M1.35321e-05-7 186.685-6.99964 186.685 7.00036-1.35321e-05 7ZM-4.05964e-05 21C-11.598 21-21 11.5979-21-4.05964e-05-21-11.598-11.5979-21 4.05964e-05-21 11.598-21 21-11.5979 21 4.05964e-05 21 11.598 11.5979 21-4.05964e-05 21Z" fill="#FFFFFF" transform="matrix(1 0 0 -1 37 36.2181)"/></g></g><path d="M0 0 186.685 0.000360892" fill="#44516F" fill-rule="evenodd" transform="matrix(1 0 0 -1 3003 843)"/><path d="M1.32905e-05-6.875 186.685-6.87464 186.685 6.87536-1.32905e-05 6.875ZM-3.98715e-05 20.625C-11.3909 20.625-20.625 11.3908-20.625-3.98715e-05-20.625-11.3909-11.3908-20.625 3.98715e-05-20.625 11.3909-20.625 20.625-11.3908 20.625 3.98715e-05 20.625 11.3909 11.3908 20.625-3.98715e-05 20.625Z" fill="#FFFFFF" transform="matrix(1 0 0 -1 3003 843)"/><g clip-path="url(#clip31)" filter="url(#fx10)" transform="translate(2145 937)"><g><path d="M16.0002 57.2178 142.475 57.2181" fill="#44516F" fill-rule="evenodd"/><path d="M16.0003 50.2178 107.475 50.218 107.475 64.218 16.0002 64.2178ZM100.475 36.218 142.475 57.2181 100.475 78.218Z" fill="#FFFFFF"/></g></g><path d="M2161 987 2287.47 987" fill="#44516F" fill-rule="evenodd"/><path d="M2161 980.125 2253.1 980.125 2253.1 993.875 2161 993.875ZM2246.22 966.375 2287.47 987 2246.22 1007.63Z" fill="#FFFFFF"/><g clip-path="url(#clip32)"><g filter="url(#fx11)" transform="translate(2289 790)"><g><rect x="23" y="23.218" width="626" height="146" stroke="#FFFFFF" stroke-width="14" stroke-linejoin="round" stroke-miterlimit="10" fill="#44516F"/></g></g><g clip-path="url(#clip33)" filter="url(#fx12)" transform="translate(2293 816)"><g><path d="M4.7168 0 4.7168-42.9492 23.7598-42.9492C27.5879-42.9492 30.498-42.5635 32.4902-41.792 34.4824-41.0205 36.0742-39.6582 37.2656-37.7051 38.457-35.7519 39.0527-33.5937 39.0527-31.2305 39.0527-28.1836 38.0664-25.6152 36.0937-23.5254 34.1211-21.4355 31.0742-20.1074 26.9531-19.541 28.457-18.8184 29.5996-18.1055 30.3809-17.4023 32.041-15.8789 33.6133-13.9746 35.0977-11.6895L42.5684 0 35.4199 0 29.7363-8.93555C28.0762-11.5137 26.709-13.4863 25.6348-14.8535 24.5605-16.2207 23.5986-17.1777 22.749-17.7246 21.8994-18.2715 21.0352-18.6523 20.1562-18.8672 19.5117-19.0039 18.457-19.0723 16.9922-19.0723L10.4004-19.0723 10.4004 0ZM10.4004-23.9941 22.6172-23.9941C25.2148-23.9941 27.2461-24.2627 28.7109-24.7998 30.1758-25.3369 31.2891-26.1963 32.0508-27.3779 32.8125-28.5596 33.1934-29.8437 33.1934-31.2305 33.1934-33.2617 32.4561-34.9316 30.9814-36.2402 29.5068-37.5488 27.1777-38.2031 23.9941-38.2031L10.4004-38.2031ZM68.2226-10.0195 73.6719-9.3457C72.8125-6.16211 71.2207-3.69141 68.8965-1.93359 66.5723-0.175781 63.6035 0.703125 59.9902 0.703125 55.4394 0.703125 51.831-0.698242 49.165-3.50098 46.499-6.30371 45.166-10.2344 45.166-15.293 45.166-20.5273 46.5137-24.5898 49.209-27.4805 51.9043-30.3711 55.4004-31.8164 59.6973-31.8164 63.8574-31.8164 67.2558-30.4004 69.8926-27.5684 72.5293-24.7363 73.8476-20.752 73.8476-15.6152 73.8476-15.3027 73.8379-14.834 73.8184-14.209L50.6152-14.209C50.8105-10.791 51.7773-8.17383 53.5156-6.35742 55.2539-4.54102 57.4219-3.63281 60.0195-3.63281 61.9531-3.63281 63.6035-4.14062 64.9707-5.15625 66.3379-6.17187 67.4219-7.79297 68.2226-10.0195ZM50.9082-18.5449 68.2812-18.5449C68.0469-21.1621 67.3828-23.125 66.2891-24.4336 64.6094-26.4648 62.4316-27.4805 59.7559-27.4805 57.334-27.4805 55.2978-26.6699 53.6475-25.0488 51.9971-23.4277 51.084-21.2598 50.9082-18.5449ZM100.456-11.3965 105.641-10.7227C105.075-7.14844 103.625-4.35059 101.291-2.3291 98.9567-0.307617 96.0905 0.703125 92.692 0.703125 88.4342 0.703125 85.0114-0.688477 82.4235-3.47168 79.8356-6.25488 78.5417-10.2441 78.5417-15.4395 78.5417-18.7988 79.0983-21.7383 80.2116-24.2578 81.3249-26.7773 83.0192-28.667 85.2946-29.9268 87.57-31.1865 90.0456-31.8164 92.7213-31.8164 96.1003-31.8164 98.8639-30.9619 101.012-29.2529 103.161-27.5439 104.538-25.1172 105.143-21.9727L100.016-21.1816C99.528-23.2715 98.6637-24.8437 97.4235-25.8984 96.1833-26.9531 94.6842-27.4805 92.9264-27.4805 90.2702-27.4805 88.112-26.5283 86.4518-24.624 84.7917-22.7197 83.9616-19.707 83.9616-15.5859 83.9616-11.4062 84.7624-8.36914 86.3639-6.47461 87.9655-4.58008 90.0553-3.63281 92.6335-3.63281 94.7038-3.63281 96.4323-4.26758 97.819-5.53711 99.2057-6.80664 100.085-8.75976 100.456-11.3965ZM107.982-15.5566C107.982-21.3184 109.583-25.5859 112.786-28.3594 115.462-30.6641 118.724-31.8164 122.572-31.8164 126.849-31.8164 130.345-30.415 133.06-27.6123 135.775-24.8096 137.132-20.9375 137.132-15.9961 137.132-11.9922 136.532-8.84277 135.33-6.54785 134.129-4.25293 132.381-2.4707 130.086-1.20117 127.791 0.0683593 125.286 0.703125 122.572 0.703125 118.216 0.703125 114.696-0.693359 112.01-3.48633 109.325-6.2793 107.982-10.3027 107.982-15.5566ZM113.402-15.5566C113.402-11.5723 114.271-8.58887 116.009-6.60644 117.747-4.62402 119.935-3.63281 122.572-3.63281 125.189-3.63281 127.367-4.62891 129.105-6.62109 130.843-8.61328 131.712-11.6504 131.712-15.7324 131.712-19.5801 130.838-22.4951 129.09-24.4775 127.342-26.46 125.169-27.4512 122.572-27.4512 119.935-27.4512 117.747-26.4648 116.009-24.4922 114.271-22.5195 113.402-19.541 113.402-15.5566ZM143.115 0 143.115-31.1133 147.861-31.1133 147.861-26.3965C149.072-28.6035 150.19-30.0586 151.216-30.7617 152.241-31.4648 153.369-31.8164 154.6-31.8164 156.377-31.8164 158.184-31.25 160.02-30.1172L158.203-25.2246C156.914-25.9863 155.625-26.3672 154.336-26.3672 153.184-26.3672 152.148-26.0205 151.23-25.3271 150.312-24.6338 149.658-23.6719 149.268-22.4414 148.682-20.5664 148.389-18.5156 148.389-16.2891L148.389 0ZM183.411 0 183.411-3.92578C181.439-0.839844 178.538 0.703125 174.71 0.703125 172.23 0.703125 169.95 0.0195312 167.869-1.34766 165.789-2.71484 164.178-4.62402 163.035-7.07519 161.893-9.52637 161.322-12.3437 161.322-15.5273 161.322-18.6328 161.839-21.4502 162.874-23.9795 163.909-26.5088 165.462-28.4473 167.533-29.7949 169.603-31.1426 171.917-31.8164 174.476-31.8164 176.351-31.8164 178.021-31.4209 179.486-30.6299 180.951-29.8389 182.142-28.8086 183.06-27.5391L183.06-42.9492 188.304-42.9492 188.304 0ZM166.742-15.5273C166.742-11.543 167.581-8.56445 169.261-6.5918 170.941-4.61914 172.923-3.63281 175.208-3.63281 177.513-3.63281 179.471-4.5752 181.082-6.45996 182.694-8.34473 183.499-11.2207 183.499-15.0879 183.499-19.3457 182.679-22.4707 181.038-24.4629 179.398-26.4551 177.376-27.4512 174.974-27.4512 172.63-27.4512 170.672-26.4941 169.1-24.5801 167.528-22.666 166.742-19.6484 166.742-15.5273Z" fill="#FFFFFF" transform="matrix(1 0 0 1 52.3335 92)"/></g></g></g><rect x="2312" y="806" width="626" height="146" stroke="#FFFFFF" stroke-width="13.75" stroke-linejoin="round" stroke-miterlimit="10" fill="#44516F"/><text fill="#FFFFFF" font-family="Arial,Arial_MSFontService,sans-serif" font-weight="400" font-size="60" transform="matrix(1 0 0 1 2345.33 901)">Record</text><g clip-path="url(#clip34)" filter="url(#fx13)" transform="translate(2544 829)"><g><path d="M36.9998 57.2178 368.549 57.2182" fill="#44516F" fill-rule="evenodd"/><path d="M36.9998 50.2178 333.549 50.2182 333.549 64.2182 36.9997 64.2178ZM36.9997 78.2178C25.4018 78.2178 15.9997 68.8158 15.9998 57.2178 15.9998 45.6198 25.4018 36.2178 36.9998 36.2178 48.5978 36.2178 57.9998 45.6199 57.9998 57.2179 57.9997 68.8158 48.5977 78.2178 36.9997 78.2178ZM326.549 36.2182 368.549 57.2182 326.549 78.2181Z" fill="#FFFFFF"/></g></g><path d="M2581 879 2912.55 879" fill="#44516F" fill-rule="evenodd"/><path d="M2581 872.125 2878.17 872.125 2878.17 885.875 2581 885.875ZM2581 899.625C2569.61 899.625 2560.37 890.391 2560.37 879 2560.37 867.609 2569.61 858.375 2581 858.375 2592.39 858.375 2601.62 867.609 2601.62 879 2601.62 890.391 2592.39 899.625 2581 899.625ZM2871.3 858.375 2912.55 879 2871.3 899.625Z" fill="#FFFFFF"/><g clip-path="url(#clip35)"><g filter="url(#fx14)" transform="translate(2916 790)"><g><rect x="23" y="23.218" width="294" height="146" stroke="#FFFFFF" stroke-width="14" stroke-linejoin="round" stroke-miterlimit="10" fill="#44516F"/></g></g><g clip-path="url(#clip36)" filter="url(#fx15)" transform="translate(2920 816)"><g><path d="M4.7168 0 4.7168-42.9492 23.7598-42.9492C27.5879-42.9492 30.498-42.5635 32.4902-41.792 34.4824-41.0205 36.0742-39.6582 37.2656-37.7051 38.457-35.7519 39.0527-33.5937 39.0527-31.2305 39.0527-28.1836 38.0664-25.6152 36.0937-23.5254 34.1211-21.4355 31.0742-20.1074 26.9531-19.541 28.457-18.8184 29.5996-18.1055 30.3809-17.4023 32.041-15.8789 33.6133-13.9746 35.0977-11.6895L42.5684 0 35.4199 0 29.7363-8.93555C28.0762-11.5137 26.709-13.4863 25.6348-14.8535 24.5605-16.2207 23.5986-17.1777 22.749-17.7246 21.8994-18.2715 21.0352-18.6523 20.1562-18.8672 19.5117-19.0039 18.457-19.0723 16.9922-19.0723L10.4004-19.0723 10.4004 0ZM10.4004-23.9941 22.6172-23.9941C25.2148-23.9941 27.2461-24.2627 28.7109-24.7998 30.1758-25.3369 31.2891-26.1963 32.0508-27.3779 32.8125-28.5596 33.1934-29.8437 33.1934-31.2305 33.1934-33.2617 32.4561-34.9316 30.9814-36.2402 29.5068-37.5488 27.1777-38.2031 23.9941-38.2031L10.4004-38.2031ZM68.2226-10.0195 73.6719-9.3457C72.8125-6.16211 71.2207-3.69141 68.8965-1.93359 66.5723-0.175781 63.6035 0.703125 59.9902 0.703125 55.4394 0.703125 51.831-0.698242 49.165-3.50098 46.499-6.30371 45.166-10.2344 45.166-15.293 45.166-20.5273 46.5137-24.5898 49.209-27.4805 51.9043-30.3711 55.4004-31.8164 59.6973-31.8164 63.8574-31.8164 67.2558-30.4004 69.8926-27.5684 72.5293-24.7363 73.8476-20.752 73.8476-15.6152 73.8476-15.3027 73.8379-14.834 73.8184-14.209L50.6152-14.209C50.8105-10.791 51.7773-8.17383 53.5156-6.35742 55.2539-4.54102 57.4219-3.63281 60.0195-3.63281 61.9531-3.63281 63.6035-4.14062 64.9707-5.15625 66.3379-6.17187 67.4219-7.79297 68.2226-10.0195ZM50.9082-18.5449 68.2812-18.5449C68.0469-21.1621 67.3828-23.125 66.2891-24.4336 64.6094-26.4648 62.4316-27.4805 59.7559-27.4805 57.334-27.4805 55.2978-26.6699 53.6475-25.0488 51.9971-23.4277 51.084-21.2598 50.9082-18.5449ZM100.456-11.3965 105.641-10.7227C105.075-7.14844 103.625-4.35059 101.291-2.3291 98.9567-0.307617 96.0905 0.703125 92.692 0.703125 88.4342 0.703125 85.0114-0.688477 82.4235-3.47168 79.8356-6.25488 78.5417-10.2441 78.5417-15.4395 78.5417-18.7988 79.0983-21.7383 80.2116-24.2578 81.3249-26.7773 83.0192-28.667 85.2946-29.9268 87.57-31.1865 90.0456-31.8164 92.7213-31.8164 96.1003-31.8164 98.8639-30.9619 101.012-29.2529 103.161-27.5439 104.538-25.1172 105.143-21.9727L100.016-21.1816C99.528-23.2715 98.6637-24.8437 97.4235-25.8984 96.1833-26.9531 94.6842-27.4805 92.9264-27.4805 90.2702-27.4805 88.112-26.5283 86.4518-24.624 84.7917-22.7197 83.9616-19.707 83.9616-15.5859 83.9616-11.4062 84.7624-8.36914 86.3639-6.47461 87.9655-4.58008 90.0553-3.63281 92.6335-3.63281 94.7038-3.63281 96.4323-4.26758 97.819-5.53711 99.2057-6.80664 100.085-8.75976 100.456-11.3965ZM107.982-15.5566C107.982-21.3184 109.583-25.5859 112.786-28.3594 115.462-30.6641 118.724-31.8164 122.572-31.8164 126.849-31.8164 130.345-30.415 133.06-27.6123 135.775-24.8096 137.132-20.9375 137.132-15.9961 137.132-11.9922 136.532-8.84277 135.33-6.54785 134.129-4.25293 132.381-2.4707 130.086-1.20117 127.791 0.0683593 125.286 0.703125 122.572 0.703125 118.216 0.703125 114.696-0.693359 112.01-3.48633 109.325-6.2793 107.982-10.3027 107.982-15.5566ZM113.402-15.5566C113.402-11.5723 114.271-8.58887 116.009-6.60644 117.747-4.62402 119.935-3.63281 122.572-3.63281 125.189-3.63281 127.367-4.62891 129.105-6.62109 130.843-8.61328 131.712-11.6504 131.712-15.7324 131.712-19.5801 130.838-22.4951 129.09-24.4775 127.342-26.46 125.169-27.4512 122.572-27.4512 119.935-27.4512 117.747-26.4648 116.009-24.4922 114.271-22.5195 113.402-19.541 113.402-15.5566ZM143.115 0 143.115-31.1133 147.861-31.1133 147.861-26.3965C149.072-28.6035 150.19-30.0586 151.216-30.7617 152.241-31.4648 153.369-31.8164 154.6-31.8164 156.377-31.8164 158.184-31.25 160.02-30.1172L158.203-25.2246C156.914-25.9863 155.625-26.3672 154.336-26.3672 153.184-26.3672 152.148-26.0205 151.23-25.3271 150.312-24.6338 149.658-23.6719 149.268-22.4414 148.682-20.5664 148.389-18.5156 148.389-16.2891L148.389 0ZM183.411 0 183.411-3.92578C181.439-0.839844 178.538 0.703125 174.71 0.703125 172.23 0.703125 169.95 0.0195312 167.869-1.34766 165.789-2.71484 164.178-4.62402 163.035-7.07519 161.893-9.52637 161.322-12.3437 161.322-15.5273 161.322-18.6328 161.839-21.4502 162.874-23.9795 163.909-26.5088 165.462-28.4473 167.533-29.7949 169.603-31.1426 171.917-31.8164 174.476-31.8164 176.351-31.8164 178.021-31.4209 179.486-30.6299 180.951-29.8389 182.142-28.8086 183.06-27.5391L183.06-42.9492 188.304-42.9492 188.304 0ZM166.742-15.5273C166.742-11.543 167.581-8.56445 169.261-6.5918 170.941-4.61914 172.923-3.63281 175.208-3.63281 177.513-3.63281 179.471-4.5752 181.082-6.45996 182.694-8.34473 183.499-11.2207 183.499-15.0879 183.499-19.3457 182.679-22.4707 181.038-24.4629 179.398-26.4551 177.376-27.4512 174.974-27.4512 172.63-27.4512 170.672-26.4941 169.1-24.5801 167.528-22.666 166.742-19.6484 166.742-15.5273Z" fill="#FFFFFF" transform="matrix(1 0 0 1 52.0339 92)"/></g></g></g><rect x="2939" y="806" width="294" height="146" stroke="#FFFFFF" stroke-width="13.75" stroke-linejoin="round" stroke-miterlimit="10" fill="#44516F"/><text fill="#FFFFFF" font-family="Arial,Arial_MSFontService,sans-serif" font-weight="400" font-size="60" transform="matrix(1 0 0 1 2972.03 901)">Record</text><g filter="url(#fx16)" transform="translate(3153 850)"><g><path d="M37 36.2178 68.7805 36.2182" fill="#44516F" fill-rule="evenodd"/><path d="M37.0001 29.2178 68.7806 29.2182 68.7805 43.2182 36.9999 43.2178ZM36.9998 57.2178C25.4018 57.2177 15.9999 47.8156 16 36.2176 16.0001 24.6196 25.4023 15.2177 37.0002 15.2178 48.5982 15.218 58.0001 24.6201 58 36.2181 57.9999 47.8161 48.5977 57.218 36.9998 57.2178Z" fill="#FFFFFF"/></g></g><path d="M3190 879 3221.78 879" fill="#44516F" fill-rule="evenodd"/><path d="M3190 872.125 3221.78 872.125 3221.78 885.875 3190 885.875ZM3190 899.625C3178.61 899.625 3169.37 890.391 3169.38 879 3169.38 867.609 3178.61 858.375 3190 858.375 3201.39 858.375 3210.63 867.609 3210.62 879 3210.62 890.391 3201.39 899.625 3190 899.625Z" fill="#FFFFFF"/><g clip-path="url(#clip37)"><g filter="url(#fx17)" transform="translate(2096 933)"><g><rect x="22.9998" y="23.218" width="316" height="145" stroke="#FFFFFF" stroke-width="14" stroke-linejoin="round" stroke-miterlimit="10" fill="#44516F"/></g></g></g><rect x="2119" y="949" width="316" height="145" stroke="#FFFFFF" stroke-width="13.75" stroke-linejoin="round" stroke-miterlimit="10" fill="#44516F"/><g clip-path="url(#clip38)" filter="url(#fx18)" transform="translate(2145 973)"><g><path d="M16.0002 57.2179 245.853 57.2183" fill="#44516F" fill-rule="evenodd"/><path d="M16.0003 50.2179 210.853 50.2182 210.853 64.2182 16.0002 64.2179ZM203.853 36.2182 245.853 57.2183 203.853 78.2182Z" fill="#FFFFFF"/></g></g><path d="M2161 1023 2390.85 1023" fill="#44516F" fill-rule="evenodd"/><path d="M2161 1016.12 2356.48 1016.13 2356.48 1029.88 2161 1029.88ZM2349.6 1002.38 2390.85 1023 2349.6 1043.63Z" fill="#FFFFFF"/><g clip-path="url(#clip39)"><g filter="url(#fx19)" transform="translate(2408 933)"><g><rect x="23" y="23.218" width="626" height="145" stroke="#FFFFFF" stroke-width="14" stroke-linejoin="round" stroke-miterlimit="10" fill="#44516F"/></g></g><g clip-path="url(#clip40)" filter="url(#fx20)" transform="translate(2412 959)"><g><path d="M4.7168 0 4.7168-42.9492 23.7598-42.9492C27.5879-42.9492 30.498-42.5635 32.4902-41.792 34.4824-41.0205 36.0742-39.6582 37.2656-37.7051 38.457-35.7519 39.0527-33.5937 39.0527-31.2305 39.0527-28.1836 38.0664-25.6152 36.0937-23.5254 34.1211-21.4355 31.0742-20.1074 26.9531-19.541 28.457-18.8184 29.5996-18.1055 30.3809-17.4023 32.041-15.8789 33.6133-13.9746 35.0977-11.6895L42.5684 0 35.4199 0 29.7363-8.93555C28.0762-11.5137 26.709-13.4863 25.6348-14.8535 24.5605-16.2207 23.5986-17.1777 22.749-17.7246 21.8994-18.2715 21.0352-18.6523 20.1562-18.8672 19.5117-19.0039 18.457-19.0723 16.9922-19.0723L10.4004-19.0723 10.4004 0ZM10.4004-23.9941 22.6172-23.9941C25.2148-23.9941 27.2461-24.2627 28.7109-24.7998 30.1758-25.3369 31.2891-26.1963 32.0508-27.3779 32.8125-28.5596 33.1934-29.8437 33.1934-31.2305 33.1934-33.2617 32.4561-34.9316 30.9814-36.2402 29.5068-37.5488 27.1777-38.2031 23.9941-38.2031L10.4004-38.2031ZM68.2226-10.0195 73.6719-9.3457C72.8125-6.16211 71.2207-3.69141 68.8965-1.93359 66.5723-0.175781 63.6035 0.703125 59.9902 0.703125 55.4394 0.703125 51.831-0.698242 49.165-3.50098 46.499-6.30371 45.166-10.2344 45.166-15.293 45.166-20.5273 46.5137-24.5898 49.209-27.4805 51.9043-30.3711 55.4004-31.8164 59.6973-31.8164 63.8574-31.8164 67.2558-30.4004 69.8926-27.5684 72.5293-24.7363 73.8476-20.752 73.8476-15.6152 73.8476-15.3027 73.8379-14.834 73.8184-14.209L50.6152-14.209C50.8105-10.791 51.7773-8.17383 53.5156-6.35742 55.2539-4.54102 57.4219-3.63281 60.0195-3.63281 61.9531-3.63281 63.6035-4.14062 64.9707-5.15625 66.3379-6.17187 67.4219-7.79297 68.2226-10.0195ZM50.9082-18.5449 68.2812-18.5449C68.0469-21.1621 67.3828-23.125 66.2891-24.4336 64.6094-26.4648 62.4316-27.4805 59.7559-27.4805 57.334-27.4805 55.2978-26.6699 53.6475-25.0488 51.9971-23.4277 51.084-21.2598 50.9082-18.5449ZM100.456-11.3965 105.641-10.7227C105.075-7.14844 103.625-4.35059 101.291-2.3291 98.9567-0.307617 96.0905 0.703125 92.692 0.703125 88.4342 0.703125 85.0114-0.688477 82.4235-3.47168 79.8356-6.25488 78.5417-10.2441 78.5417-15.4395 78.5417-18.7988 79.0983-21.7383 80.2116-24.2578 81.3249-26.7773 83.0192-28.667 85.2946-29.9268 87.57-31.1865 90.0456-31.8164 92.7213-31.8164 96.1003-31.8164 98.8639-30.9619 101.012-29.2529 103.161-27.5439 104.538-25.1172 105.143-21.9727L100.016-21.1816C99.528-23.2715 98.6637-24.8437 97.4235-25.8984 96.1833-26.9531 94.6842-27.4805 92.9264-27.4805 90.2702-27.4805 88.112-26.5283 86.4518-24.624 84.7917-22.7197 83.9616-19.707 83.9616-15.5859 83.9616-11.4062 84.7624-8.36914 86.3639-6.47461 87.9655-4.58008 90.0553-3.63281 92.6335-3.63281 94.7038-3.63281 96.4323-4.26758 97.819-5.53711 99.2057-6.80664 100.085-8.75976 100.456-11.3965ZM107.982-15.5566C107.982-21.3184 109.583-25.5859 112.786-28.3594 115.462-30.6641 118.724-31.8164 122.572-31.8164 126.849-31.8164 130.345-30.415 133.06-27.6123 135.775-24.8096 137.132-20.9375 137.132-15.9961 137.132-11.9922 136.532-8.84277 135.33-6.54785 134.129-4.25293 132.381-2.4707 130.086-1.20117 127.791 0.0683593 125.286 0.703125 122.572 0.703125 118.216 0.703125 114.696-0.693359 112.01-3.48633 109.325-6.2793 107.982-10.3027 107.982-15.5566ZM113.402-15.5566C113.402-11.5723 114.271-8.58887 116.009-6.60644 117.747-4.62402 119.935-3.63281 122.572-3.63281 125.189-3.63281 127.367-4.62891 129.105-6.62109 130.843-8.61328 131.712-11.6504 131.712-15.7324 131.712-19.5801 130.838-22.4951 129.09-24.4775 127.342-26.46 125.169-27.4512 122.572-27.4512 119.935-27.4512 117.747-26.4648 116.009-24.4922 114.271-22.5195 113.402-19.541 113.402-15.5566ZM143.115 0 143.115-31.1133 147.861-31.1133 147.861-26.3965C149.072-28.6035 150.19-30.0586 151.216-30.7617 152.241-31.4648 153.369-31.8164 154.6-31.8164 156.377-31.8164 158.184-31.25 160.02-30.1172L158.203-25.2246C156.914-25.9863 155.625-26.3672 154.336-26.3672 153.184-26.3672 152.148-26.0205 151.23-25.3271 150.312-24.6338 149.658-23.6719 149.268-22.4414 148.682-20.5664 148.389-18.5156 148.389-16.2891L148.389 0ZM183.411 0 183.411-3.92578C181.439-0.839844 178.538 0.703125 174.71 0.703125 172.23 0.703125 169.95 0.0195312 167.869-1.34766 165.789-2.71484 164.178-4.62402 163.035-7.07519 161.893-9.52637 161.322-12.3437 161.322-15.5273 161.322-18.6328 161.839-21.4502 162.874-23.9795 163.909-26.5088 165.462-28.4473 167.533-29.7949 169.603-31.1426 171.917-31.8164 174.476-31.8164 176.351-31.8164 178.021-31.4209 179.486-30.6299 180.951-29.8389 182.142-28.8086 183.06-27.5391L183.06-42.9492 188.304-42.9492 188.304 0ZM166.742-15.5273C166.742-11.543 167.581-8.56445 169.261-6.5918 170.941-4.61914 172.923-3.63281 175.208-3.63281 177.513-3.63281 179.471-4.5752 181.082-6.45996 182.694-8.34473 183.499-11.2207 183.499-15.0879 183.499-19.3457 182.679-22.4707 181.038-24.4629 179.398-26.4551 177.376-27.4512 174.974-27.4512 172.63-27.4512 170.672-26.4941 169.1-24.5801 167.528-22.666 166.742-19.6484 166.742-15.5273Z" fill="#FFFFFF" transform="matrix(1 0 0 1 52.4102 92)"/></g></g></g><rect x="2431" y="949" width="626" height="145" stroke="#FFFFFF" stroke-width="13.75" stroke-linejoin="round" stroke-miterlimit="10" fill="#44516F"/><text fill="#FFFFFF" font-family="Arial,Arial_MSFontService,sans-serif" font-weight="400" font-size="60" transform="matrix(1 0 0 1 2464.41 1043)">Record</text><g clip-path="url(#clip41)" filter="url(#fx21)" transform="translate(2663 971)"><g><path d="M37.0002 57.2178 368.55 57.2181" fill="#44516F" fill-rule="evenodd"/><path d="M37.0003 50.2178 333.55 50.2181 333.55 64.2181 37.0002 64.2178ZM37.0002 78.2178C25.4022 78.2178 16.0002 68.8157 16.0002 57.2178 16.0003 45.6198 25.4023 36.2178 37.0003 36.2178 48.5982 36.2178 58.0003 45.6198 58.0002 57.2178 58.0002 68.8158 48.5982 78.2178 37.0002 78.2178ZM326.55 36.2181 368.55 57.2181 326.55 78.2181Z" fill="#FFFFFF"/></g></g><path d="M2700 1021 3031.55 1021" fill="#44516F" fill-rule="evenodd"/><path d="M2700 1014.12 2997.17 1014.13 2997.17 1027.88 2700 1027.88ZM2700 1041.62C2688.61 1041.62 2679.38 1032.39 2679.38 1021 2679.38 1009.61 2688.61 1000.37 2700 1000.37 2711.39 1000.37 2720.63 1009.61 2720.63 1021 2720.63 1032.39 2711.39 1041.62 2700 1041.62ZM2990.3 1000.38 3031.55 1021 2990.3 1041.63Z" fill="#FFFFFF"/><path d="M1962.65 584.919 1969.01 585.129 1975.65 585.769 1982.25 586.824 1988.8 588.278 2001.58 592.284 2014.15 597.738 2026.26 604.494 2037.83 612.44 2048.77 621.464 2058.98 631.46 2068.37 642.321 2076.83 653.945 2084.28 666.228 2090.62 679.069 2095.74 692.367 2099.54 706.02 2101.91 719.924 2102.53 727.064 2102.75 734.106 2103.06 740.811 2103.94 747.172 2105.38 753.53 2107.37 759.876 2109.89 766.198 2112.92 772.484 2116.45 778.719 2120.47 784.887 2124.96 790.974 2129.9 796.964 2135.27 802.84 2141.06 808.589 2147.23 814.193 2153.79 819.639 2168.02 830.048 2183.44 839.585 2199.96 848.2 2217.42 855.78 2235.66 862.217 2254.52 867.403 2273.85 871.231 2283.54 872.59 2290.49 873.092 2289.81 882.234 2282.26 881.667 2272.06 880.221 2252.09 876.24 2232.61 870.86 2213.76 864.187 2195.71 856.325 2178.61 847.377 2162.6 837.444 2147.93 826.687 2141.07 820.979 2134.59 815.087 2128.5 809.019 2122.82 802.789 2117.58 796.406 2112.79 789.882 2108.47 783.228 2104.66 776.454 2101.36 769.573 2098.61 762.595 2096.44 755.535 2094.86 748.408 2093.9 741.231 2093.58 734.372 2093.4 727.849 2092.87 721.45 2090.7 708.463 2087.18 695.649 2082.39 683.115 2076.44 670.974 2069.42 659.334 2061.42 648.307 2052.56 638.002 2042.93 628.527 2032.64 619.989 2021.78 612.493 2010.48 606.139 1998.83 601.028 1986.81 597.224 1980.79 595.874 1974.76 594.892 1968.71 594.291 1962.35 594.081ZM2286.36 863.673 2313.03 878.977 2284.79 891.128Z" fill="#D6272A"/></g></svg>