<?xml version="1.0" encoding="UTF-8" standalone="no"?>
<!DOCTYPE svg PUBLIC "-//W3C//DTD SVG 1.1//EN"
 "http://www.w3.org/Graphics/SVG/1.1/DTD/svg11.dtd">
<!-- Generated by graphviz version 2.43.0 (0)
 -->
<!-- Pages: 1 -->
<svg width="155pt" height="260pt"
 viewBox="0.00 0.00 155.00 260.00" xmlns="http://www.w3.org/2000/svg" xmlns:xlink="http://www.w3.org/1999/xlink">
<g id="graph0" class="graph" transform="scale(1 1) rotate(0) translate(4 256)">
<polygon fill="white" stroke="transparent" points="-4,4 -4,-256 151,-256 151,4 -4,4"/>
<!-- a -->
<g id="node1" class="node">
<title>a</title>
<ellipse fill="none" stroke="black" cx="82" cy="-234" rx="27" ry="18"/>
<text text-anchor="middle" x="82" y="-230.3" font-family="Times,serif" font-size="14.00">a</text>
</g>
<!-- b -->
<g id="node2" class="node">
<title>b</title>
<ellipse fill="none" stroke="black" cx="27" cy="-162" rx="27" ry="18"/>
<text text-anchor="middle" x="27" y="-158.3" font-family="Times,serif" font-size="14.00">b</text>
</g>
<!-- a&#45;&gt;b -->
<g id="edge1" class="edge">
<title>a&#45;&gt;b</title>
<path fill="none" stroke="black" d="M70.07,-217.81C62.79,-208.55 53.34,-196.52 45.15,-186.09"/>
<polygon fill="black" stroke="black" points="47.84,-183.86 38.91,-178.16 42.34,-188.18 47.84,-183.86"/>
</g>
<!-- e -->
<g id="node3" class="node">
<title>e</title>
<ellipse fill="none" stroke="black" cx="120" cy="-90" rx="27" ry="18"/>
<text text-anchor="middle" x="120" y="-86.3" font-family="Times,serif" font-size="14.00">e</text>
</g>
<!-- a&#45;&gt;e -->
<g id="edge2" class="edge">
<title>a&#45;&gt;e</title>
<path fill="none" stroke="black" d="M86.51,-216.15C93.02,-191.81 105.13,-146.57 112.86,-117.67"/>
<polygon fill="black" stroke="black" points="116.29,-118.39 115.5,-107.82 109.53,-116.57 116.29,-118.39"/>
</g>
<!-- c -->
<g id="node4" class="node">
<title>c</title>
<ellipse fill="none" stroke="black" cx="48" cy="-90" rx="27" ry="18"/>
<text text-anchor="middle" x="48" y="-86.3" font-family="Times,serif" font-size="14.00">c</text>
</g>
<!-- a&#45;&gt;c -->
<g id="edge3" class="edge">
<title>a&#45;&gt;c</title>
<path fill="none" stroke="black" d="M78.69,-215.86C75.13,-197.88 69.16,-168.84 63,-144 60.87,-135.42 58.33,-126.13 55.94,-117.76"/>
<polygon fill="black" stroke="black" points="59.29,-116.74 53.15,-108.11 52.57,-118.69 59.29,-116.74"/>
</g>
<!-- b&#45;&gt;c -->
<g id="edge4" class="edge">
<title>b&#45;&gt;c</title>
<path fill="none" stroke="black" d="M32.08,-144.05C34.48,-136.06 37.4,-126.33 40.08,-117.4"/>
<polygon fill="black" stroke="black" points="43.44,-118.37 42.96,-107.79 36.74,-116.36 43.44,-118.37"/>
</g>
<!-- d -->
<g id="node5" class="node">
<title>d</title>
<ellipse fill="none" stroke="black" cx="84" cy="-18" rx="27" ry="18"/>
<text text-anchor="middle" x="84" y="-14.3" font-family="Times,serif" font-size="14.00">d</text>
</g>
<!-- e&#45;&gt;d -->
<g id="edge5" class="edge">
<title>e&#45;&gt;d</title>
<path fill="none" stroke="black" d="M111.65,-72.77C107.29,-64.28 101.85,-53.71 96.96,-44.2"/>
<polygon fill="black" stroke="black" points="99.99,-42.44 92.3,-35.15 93.77,-45.64 99.99,-42.44"/>
</g>
<!-- c&#45;&gt;d -->
<g id="edge6" class="edge">
<title>c&#45;&gt;d</title>
<path fill="none" stroke="black" d="M56.35,-72.77C60.71,-64.28 66.15,-53.71 71.04,-44.2"/>
<polygon fill="black" stroke="black" points="74.23,-45.64 75.7,-35.15 68.01,-42.44 74.23,-45.64"/>
</g>
</g>
</svg>
