<svg width="2252" height="824" xmlns="http://www.w3.org/2000/svg" xmlns:xlink="http://www.w3.org/1999/xlink" xml:space="preserve" overflow="hidden"><g transform="translate(-153 -419)"><rect x="873.5" y="423.5" width="82.0002" height="110" stroke="#000000" stroke-width="9.16667" stroke-linejoin="round" stroke-miterlimit="10" fill="#44516F"/><text fill="#FFFFFF" font-family="PT Sans Narrow,PT Sans Narrow_MSFontService,sans-serif" font-weight="700" font-stretch="condensed" font-size="55" transform="matrix(1 0 0 1 887.789 497)">17</text><rect x="955.5" y="423.5" width="33" height="110" stroke="#000000" stroke-width="9.16667" stroke-linejoin="round" stroke-miterlimit="10" fill="#79C6C1"/><path d="M965.5 478C965.5 474.41 968.634 471.5 972.5 471.5 976.366 471.5 979.5 474.41 979.5 478 979.5 481.59 976.366 484.5 972.5 484.5 968.634 484.5 965.5 481.59 965.5 478Z" stroke="#000000" stroke-width="4.58333" stroke-linejoin="round" stroke-miterlimit="10" fill="#FFFFFF" fill-rule="evenodd"/><rect x="837.5" y="423.5" width="33" height="110" stroke="#000000" stroke-width="9.16667" stroke-linejoin="round" stroke-miterlimit="10" fill="#79C6C1"/><path d="M847.5 478C847.5 474.41 850.41 471.5 854 471.5 857.59 471.5 860.5 474.41 860.5 478 860.5 481.59 857.59 484.5 854 484.5 850.41 484.5 847.5 481.59 847.5 478Z" stroke="#000000" stroke-width="4.58333" stroke-linejoin="round" stroke-miterlimit="10" fill="#FFFFFF" fill-rule="evenodd"/><rect x="989.5" y="423.5" width="81.9998" height="110" stroke="#000000" stroke-width="9.16667" stroke-linejoin="round" stroke-miterlimit="10" fill="#44516F"/><rect x="1071.5" y="423.5" width="33" height="110" stroke="#000000" stroke-width="9.16667" stroke-linejoin="round" stroke-miterlimit="10" fill="#79C6C1"/><path d="M1081.5 478C1081.5 474.41 1084.41 471.5 1088 471.5 1091.59 471.5 1094.5 474.41 1094.5 478 1094.5 481.59 1091.59 484.5 1088 484.5 1084.41 484.5 1081.5 481.59 1081.5 478Z" stroke="#000000" stroke-width="4.58333" stroke-linejoin="round" stroke-miterlimit="10" fill="#FFFFFF" fill-rule="evenodd"/><rect x="1104.5" y="423.5" width="83.0002" height="110" stroke="#000000" stroke-width="9.16667" stroke-linejoin="round" stroke-miterlimit="10" fill="#44516F"/><rect x="1187.5" y="423.5" width="33" height="110" stroke="#000000" stroke-width="9.16667" stroke-linejoin="round" stroke-miterlimit="10" fill="#79C6C1"/><path d="M1197.5 478C1197.5 474.41 1200.41 471.5 1204 471.5 1207.59 471.5 1210.5 474.41 1210.5 478 1210.5 481.59 1207.59 484.5 1204 484.5 1200.41 484.5 1197.5 481.59 1197.5 478Z" stroke="#000000" stroke-width="4.58333" stroke-linejoin="round" stroke-miterlimit="10" fill="#FFFFFF" fill-rule="evenodd"/><rect x="1220.5" y="423.5" width="82.9999" height="110" stroke="#000000" stroke-width="9.16667" stroke-linejoin="round" stroke-miterlimit="10" fill="#44516F"/><rect x="1303.5" y="423.5" width="33" height="110" stroke="#000000" stroke-width="9.16667" stroke-linejoin="round" stroke-miterlimit="10" fill="#79C6C1"/><path d="M1313.5 478C1313.5 474.41 1316.41 471.5 1320 471.5 1323.59 471.5 1326.5 474.41 1326.5 478 1326.5 481.59 1323.59 484.5 1320 484.5 1316.41 484.5 1313.5 481.59 1313.5 478Z" stroke="#000000" stroke-width="4.58333" stroke-linejoin="round" stroke-miterlimit="10" fill="#FFFFFF" fill-rule="evenodd"/><rect x="524.5" y="616.5" width="81.9998" height="110" stroke="#000000" stroke-width="9.16667" stroke-linejoin="round" stroke-miterlimit="10" fill="#44516F"/><text fill="#FFFFFF" font-family="PT Sans Narrow,PT Sans Narrow_MSFontService,sans-serif" font-weight="700" font-stretch="condensed" font-size="55" transform="matrix(1 0 0 1 551.692 690)">5</text><rect x="606.5" y="616.5" width="33" height="110" stroke="#000000" stroke-width="9.16667" stroke-linejoin="round" stroke-miterlimit="10" fill="#79C6C1"/><path d="M616.5 672C616.5 668.41 619.41 665.5 623 665.5 626.59 665.5 629.5 668.41 629.5 672 629.5 675.59 626.59 678.5 623 678.5 619.41 678.5 616.5 675.59 616.5 672Z" stroke="#000000" stroke-width="4.58333" stroke-linejoin="round" stroke-miterlimit="10" fill="#FFFFFF" fill-rule="evenodd"/><rect x="488.5" y="616.5" width="33" height="110" stroke="#000000" stroke-width="9.16667" stroke-linejoin="round" stroke-miterlimit="10" fill="#79C6C1"/><path d="M498.5 672C498.5 668.41 501.41 665.5 505 665.5 508.59 665.5 511.5 668.41 511.5 672 511.5 675.59 508.59 678.5 505 678.5 501.41 678.5 498.5 675.59 498.5 672Z" stroke="#000000" stroke-width="4.58333" stroke-linejoin="round" stroke-miterlimit="10" fill="#FFFFFF" fill-rule="evenodd"/><rect x="639.5" y="616.5" width="83.0002" height="110" stroke="#000000" stroke-width="9.16667" stroke-linejoin="round" stroke-miterlimit="10" fill="#44516F"/><text fill="#FFFFFF" font-family="PT Sans Narrow,PT Sans Narrow_MSFontService,sans-serif" font-weight="700" font-stretch="condensed" font-size="55" transform="matrix(1 0 0 1 654.38 690)">13</text><rect x="722.5" y="616.5" width="33" height="110" stroke="#000000" stroke-width="9.16667" stroke-linejoin="round" stroke-miterlimit="10" fill="#79C6C1"/><path d="M732.5 672C732.5 668.41 735.41 665.5 739 665.5 742.59 665.5 745.5 668.41 745.5 672 745.5 675.59 742.59 678.5 739 678.5 735.41 678.5 732.5 675.59 732.5 672Z" stroke="#000000" stroke-width="4.58333" stroke-linejoin="round" stroke-miterlimit="10" fill="#FFFFFF" fill-rule="evenodd"/><rect x="755.5" y="616.5" width="82.9998" height="110" stroke="#000000" stroke-width="9.16667" stroke-linejoin="round" stroke-miterlimit="10" fill="#44516F"/><rect x="838.5" y="616.5" width="33" height="110" stroke="#000000" stroke-width="9.16667" stroke-linejoin="round" stroke-miterlimit="10" fill="#79C6C1"/><path d="M848.5 672C848.5 668.41 851.41 665.5 855 665.5 858.59 665.5 861.5 668.41 861.5 672 861.5 675.59 858.59 678.5 855 678.5 851.41 678.5 848.5 675.59 848.5 672Z" stroke="#000000" stroke-width="4.58333" stroke-linejoin="round" stroke-miterlimit="10" fill="#FFFFFF" fill-rule="evenodd"/><rect x="871.5" y="616.5" width="82.0002" height="110" stroke="#000000" stroke-width="9.16667" stroke-linejoin="round" stroke-miterlimit="10" fill="#44516F"/><rect x="953.5" y="616.5" width="33" height="110" stroke="#000000" stroke-width="9.16667" stroke-linejoin="round" stroke-miterlimit="10" fill="#79C6C1"/><path d="M963.5 672C963.5 668.41 966.41 665.5 970 665.5 973.59 665.5 976.5 668.41 976.5 672 976.5 675.59 973.59 678.5 970 678.5 966.41 678.5 963.5 675.59 963.5 672Z" stroke="#000000" stroke-width="4.58333" stroke-linejoin="round" stroke-miterlimit="10" fill="#FFFFFF" fill-rule="evenodd"/><rect x="1222.5" y="610.5" width="83.0002" height="110" stroke="#000000" stroke-width="9.16667" stroke-linejoin="round" stroke-miterlimit="10" fill="#44516F"/><text fill="#FFFFFF" font-family="PT Sans Narrow,PT Sans Narrow_MSFontService,sans-serif" font-weight="700" font-stretch="condensed" font-size="55" transform="matrix(1 0 0 1 1237.06 684)">24</text><rect x="1305.5" y="610.5" width="33" height="110" stroke="#000000" stroke-width="9.16667" stroke-linejoin="round" stroke-miterlimit="10" fill="#79C6C1"/><path d="M1315.5 665C1315.5 661.41 1318.41 658.5 1322 658.5 1325.59 658.5 1328.5 661.41 1328.5 665 1328.5 668.59 1325.59 671.5 1322 671.5 1318.41 671.5 1315.5 668.59 1315.5 665Z" stroke="#000000" stroke-width="4.58333" stroke-linejoin="round" stroke-miterlimit="10" fill="#FFFFFF" fill-rule="evenodd"/><rect x="1186.5" y="610.5" width="33" height="110" stroke="#000000" stroke-width="9.16667" stroke-linejoin="round" stroke-miterlimit="10" fill="#79C6C1"/><path d="M1196.5 665C1196.5 661.41 1199.41 658.5 1203 658.5 1206.59 658.5 1209.5 661.41 1209.5 665 1209.5 668.59 1206.59 671.5 1203 671.5 1199.41 671.5 1196.5 668.59 1196.5 665Z" stroke="#000000" stroke-width="4.58333" stroke-linejoin="round" stroke-miterlimit="10" fill="#FFFFFF" fill-rule="evenodd"/><rect x="1338.5" y="610.5" width="82.9999" height="110" stroke="#000000" stroke-width="9.16667" stroke-linejoin="round" stroke-miterlimit="10" fill="#44516F"/><text fill="#FFFFFF" font-family="PT Sans Narrow,PT Sans Narrow_MSFontService,sans-serif" font-weight="700" font-stretch="condensed" font-size="55" transform="matrix(1 0 0 1 1352.93 684)">30</text><rect x="1421.5" y="610.5" width="33" height="110" stroke="#000000" stroke-width="9.16667" stroke-linejoin="round" stroke-miterlimit="10" fill="#79C6C1"/><path d="M1431.5 665C1431.5 661.41 1434.41 658.5 1438 658.5 1441.59 658.5 1444.5 661.41 1444.5 665 1444.5 668.59 1441.59 671.5 1438 671.5 1434.41 671.5 1431.5 668.59 1431.5 665Z" stroke="#000000" stroke-width="4.58333" stroke-linejoin="round" stroke-miterlimit="10" fill="#FFFFFF" fill-rule="evenodd"/><rect x="1454.5" y="610.5" width="82.0001" height="110" stroke="#000000" stroke-width="9.16667" stroke-linejoin="round" stroke-miterlimit="10" fill="#44516F"/><rect x="1536.5" y="610.5" width="33" height="110" stroke="#000000" stroke-width="9.16667" stroke-linejoin="round" stroke-miterlimit="10" fill="#79C6C1"/><path d="M1546.5 665C1546.5 661.41 1549.41 658.5 1553 658.5 1556.59 658.5 1559.5 661.41 1559.5 665 1559.5 668.59 1556.59 671.5 1553 671.5 1549.41 671.5 1546.5 668.59 1546.5 665Z" stroke="#000000" stroke-width="4.58333" stroke-linejoin="round" stroke-miterlimit="10" fill="#FFFFFF" fill-rule="evenodd"/><rect x="1569.5" y="610.5" width="82.9999" height="110" stroke="#000000" stroke-width="9.16667" stroke-linejoin="round" stroke-miterlimit="10" fill="#44516F"/><rect x="1652.5" y="610.5" width="33" height="110" stroke="#000000" stroke-width="9.16667" stroke-linejoin="round" stroke-miterlimit="10" fill="#79C6C1"/><path d="M1662.5 665C1662.5 661.41 1665.41 658.5 1669 658.5 1672.59 658.5 1675.5 661.41 1675.5 665 1675.5 668.59 1672.59 671.5 1669 671.5 1665.41 671.5 1662.5 668.59 1662.5 665Z" stroke="#000000" stroke-width="4.58333" stroke-linejoin="round" stroke-miterlimit="10" fill="#FFFFFF" fill-rule="evenodd"/><rect x="165.5" y="963.5" width="86.0003" height="110" stroke="#000000" stroke-width="9.16667" stroke-linejoin="round" stroke-miterlimit="10" fill="#D9D9D9"/><text font-family="PT Sans Narrow,PT Sans Narrow_MSFontService,sans-serif" font-weight="400" font-stretch="condensed" font-size="46" transform="matrix(1 0 0 1 191.217 1034)">2*</text><rect x="251.5" y="963.5" width="85.9999" height="110" stroke="#000000" stroke-width="9.16667" stroke-linejoin="round" stroke-miterlimit="10" fill="#D9D9D9"/><text font-family="PT Sans Narrow,PT Sans Narrow_MSFontService,sans-serif" font-weight="400" font-stretch="condensed" font-size="46" transform="matrix(1 0 0 1 276.884 1034)">3*</text><rect x="337.5" y="963.5" width="84.9999" height="110" stroke="#000000" stroke-width="9.16667" stroke-linejoin="round" stroke-miterlimit="10" fill="#D9D9D9"/><rect x="422.5" y="963.5" width="85.9999" height="110" stroke="#000000" stroke-width="9.16667" stroke-linejoin="round" stroke-miterlimit="10" fill="#D9D9D9"/><rect x="541.5" y="963.5" width="85.9999" height="110" stroke="#000000" stroke-width="9.16667" stroke-linejoin="round" stroke-miterlimit="10" fill="#D9D9D9"/><text font-family="PT Sans Narrow,PT Sans Narrow_MSFontService,sans-serif" font-weight="400" font-stretch="condensed" font-size="46" transform="matrix(1 0 0 1 566.825 1034)">5*</text><rect x="627.5" y="963.5" width="85.0002" height="110" stroke="#000000" stroke-width="9.16667" stroke-linejoin="round" stroke-miterlimit="10" fill="#D9D9D9"/><text font-family="PT Sans Narrow,PT Sans Narrow_MSFontService,sans-serif" font-weight="400" font-stretch="condensed" font-size="46" transform="matrix(1 0 0 1 652.492 1034)">7*</text><rect x="712.5" y="963.5" width="85.9999" height="110" stroke="#000000" stroke-width="9.16667" stroke-linejoin="round" stroke-miterlimit="10" fill="#D9D9D9"/><text font-family="PT Sans Narrow,PT Sans Narrow_MSFontService,sans-serif" font-weight="400" font-stretch="condensed" font-size="46" transform="matrix(1 0 0 1 738.159 1034)">8*</text><rect x="798.5" y="963.5" width="85.9999" height="110" stroke="#000000" stroke-width="9.16667" stroke-linejoin="round" stroke-miterlimit="10" fill="#D9D9D9"/><rect x="916.5" y="963.5" width="85.9999" height="110" stroke="#000000" stroke-width="9.16667" stroke-linejoin="round" stroke-miterlimit="10" fill="#D9D9D9"/><text font-family="PT Sans Narrow,PT Sans Narrow_MSFontService,sans-serif" font-weight="400" font-stretch="condensed" font-size="46" transform="matrix(1 0 0 1 932.12 1034)">14*</text><rect x="1002.5" y="963.5" width="86.0002" height="110" stroke="#000000" stroke-width="9.16667" stroke-linejoin="round" stroke-miterlimit="10" fill="#D9D9D9"/><text font-family="PT Sans Narrow,PT Sans Narrow_MSFontService,sans-serif" font-weight="400" font-stretch="condensed" font-size="46" transform="matrix(1 0 0 1 1017.79 1034)">16*</text><rect x="1088.5" y="963.5" width="85.9999" height="110" stroke="#000000" stroke-width="9.16667" stroke-linejoin="round" stroke-miterlimit="10" fill="#D9D9D9"/><rect x="1174.5" y="963.5" width="84.9999" height="110" stroke="#000000" stroke-width="9.16667" stroke-linejoin="round" stroke-miterlimit="10" fill="#D9D9D9"/><rect x="1292.5" y="963.5" width="85.9999" height="110" stroke="#000000" stroke-width="9.16667" stroke-linejoin="round" stroke-miterlimit="10" fill="#D9D9D9"/><text font-family="PT Sans Narrow,PT Sans Narrow_MSFontService,sans-serif" font-weight="400" font-stretch="condensed" font-size="46" transform="matrix(1 0 0 1 1307.73 1034)">19*</text><rect x="1378.5" y="963.5" width="84.9999" height="110" stroke="#000000" stroke-width="9.16667" stroke-linejoin="round" stroke-miterlimit="10" fill="#D9D9D9"/><text font-family="PT Sans Narrow,PT Sans Narrow_MSFontService,sans-serif" font-weight="400" font-stretch="condensed" font-size="46" transform="matrix(1 0 0 1 1393.39 1034)">20*</text><rect x="1463.5" y="963.5" width="86.0002" height="110" stroke="#000000" stroke-width="9.16667" stroke-linejoin="round" stroke-miterlimit="10" fill="#D9D9D9"/><text font-family="PT Sans Narrow,PT Sans Narrow_MSFontService,sans-serif" font-weight="400" font-stretch="condensed" font-size="46" transform="matrix(1 0 0 1 1479.06 1034)">22*</text><rect x="1549.5" y="963.5" width="85.9999" height="110" stroke="#000000" stroke-width="9.16667" stroke-linejoin="round" stroke-miterlimit="10" fill="#D9D9D9"/><rect x="1668.5" y="963.5" width="84.9999" height="110" stroke="#000000" stroke-width="9.16667" stroke-linejoin="round" stroke-miterlimit="10" fill="#D9D9D9"/><text font-family="PT Sans Narrow,PT Sans Narrow_MSFontService,sans-serif" font-weight="400" font-stretch="condensed" font-size="46" transform="matrix(1 0 0 1 1683.33 1034)">24*</text><rect x="1753.5" y="963.5" width="85.9999" height="110" stroke="#000000" stroke-width="9.16667" stroke-linejoin="round" stroke-miterlimit="10" fill="#D9D9D9"/><text font-family="PT Sans Narrow,PT Sans Narrow_MSFontService,sans-serif" font-weight="400" font-stretch="condensed" font-size="46" transform="matrix(1 0 0 1 1769 1034)">27*</text><rect x="1839.5" y="963.5" width="85.9999" height="110" stroke="#000000" stroke-width="9.16667" stroke-linejoin="round" stroke-miterlimit="10" fill="#D9D9D9"/><text font-family="PT Sans Narrow,PT Sans Narrow_MSFontService,sans-serif" font-weight="400" font-stretch="condensed" font-size="46" transform="matrix(1 0 0 1 1854.67 1034)">29*</text><rect x="1925.5" y="963.5" width="85.0002" height="110" stroke="#000000" stroke-width="9.16667" stroke-linejoin="round" stroke-miterlimit="10" fill="#D9D9D9"/><path d="M1.82903-1.38072 198.22 258.778 194.562 261.54-1.82903 1.38072ZM200.946 250.978 210.199 278.449 186.314 262.024Z" transform="matrix(-1 0 0 1 504.699 685.5)"/><path d="M625.762 678.13 668.762 941.107 664.238 941.846 621.238 678.87ZM674.807 935.474 670.198 964.093 656.714 938.432Z"/><path d="M741.062 676.824 1030.74 946.792 1027.61 950.145 737.937 680.177ZM1032.07 938.638 1045.94 964.093 1019.57 952.049Z"/><path d="M1205.34 670.13 1409.53 943.952 1405.86 946.691 1201.66 672.87ZM1412.3 936.167 1421.39 963.692 1397.61 947.127Z"/><path d="M1322.7 669.548 1778.15 949.733 1775.75 953.637 1320.3 673.452ZM1777.85 941.476 1796.47 963.692 1768.24 957.091Z"/><rect x="2050.5" y="964.5" width="86" height="110" stroke="#000000" stroke-width="9.16667" stroke-linejoin="round" stroke-miterlimit="10" fill="#D9D9D9"/><text font-family="PT Sans Narrow,PT Sans Narrow_MSFontService,sans-serif" font-weight="400" font-stretch="condensed" font-size="46" transform="matrix(1 0 0 1 2065.53 1034)">33*</text><rect x="2136.5" y="964.5" width="85.0002" height="110" stroke="#000000" stroke-width="9.16667" stroke-linejoin="round" stroke-miterlimit="10" fill="#D9D9D9"/><text font-family="PT Sans Narrow,PT Sans Narrow_MSFontService,sans-serif" font-weight="400" font-stretch="condensed" font-size="46" transform="matrix(1 0 0 1 2151.19 1034)">34*</text><rect x="2221.5" y="964.5" width="86" height="110" stroke="#000000" stroke-width="9.16667" stroke-linejoin="round" stroke-miterlimit="10" fill="#D9D9D9"/><text font-family="PT Sans Narrow,PT Sans Narrow_MSFontService,sans-serif" font-weight="400" font-stretch="condensed" font-size="46" transform="matrix(1 0 0 1 2236.86 1034)">38*</text><rect x="2307.5" y="964.5" width="86" height="110" stroke="#000000" stroke-width="9.16667" stroke-linejoin="round" stroke-miterlimit="10" fill="#D9D9D9"/><text font-family="PT Sans Narrow,PT Sans Narrow_MSFontService,sans-serif" font-weight="400" font-stretch="condensed" font-size="46" transform="matrix(1 0 0 1 2322.53 1034)">39*</text><path d="M1438.34 669.368 2158.32 953.406 2156.64 957.67 1436.66 673.632ZM2156.58 945.328 2178.8 963.947 2149.85 962.382Z"/><path d="M1.39104-1.82119 155.884 116.182 153.102 119.825-1.39104 1.82119ZM156.415 107.936 172.705 131.914 145.286 122.506Z" transform="matrix(-1 0 0 1 854.205 484.5)"/><path d="M978.191 480.315 1358.99 600.656 1357.61 605.026 976.81 484.685ZM1356.69 592.719 1380.15 609.747 1351.16 610.201Z"/><text font-family="Arial,Arial_MSFontService,sans-serif" font-weight="400" font-size="50" transform="matrix(1 0 0 1 570.131 486)">Root Node</text><path d="M0.100845-2.28945 7.82515-1.94921 15.6823-0.940721 23.4067 0.690039 30.9394 2.89772 38.2218 5.63784 45.1955 8.86673 51.802 12.5416 57.9827 16.6205 63.6788 21.0626 68.831 25.828 73.379 30.8783 77.2611 36.1763 80.4131 41.6859 82.767 47.3712C82.8088 47.473 82.8432 47.5779 82.87 47.6846L84.2497 53.1936C84.2795 53.3125 84.2996 53.4336 84.3101 53.5557L84.7834 59.1081C84.7941 59.2341 84.7944 59.3606 84.7843 59.4866L84.3372 65.039C84.3279 65.1548 84.3098 65.2696 84.2831 65.3826L82.98 70.8916 80.7846 76.6145 77.8227 82.1628 74.1621 87.4968 69.8667 92.5792 64.9972 97.3726 59.612 101.839 53.7681 105.939 47.5217 109.634 40.9284 112.88 34.0434 115.637C33.9179 115.687 33.7878 115.727 33.6554 115.754L27.6351 116.993 26.7111 112.504 32.7314 111.265 32.3434 111.381 38.9074 108.767 45.1924 105.686 51.1395 102.185 56.6902 98.3077 61.7864 94.1017 66.3712 89.6146 70.3887 84.8952 73.7854 79.9931 76.5112 74.9578 78.5198 69.8366 79.8228 64.3276 79.7687 64.6712 80.2157 59.1188 80.2166 59.4974 79.7433 53.945 79.8037 54.3071 78.424 48.7981 78.527 49.1116 76.4295 43.9527 73.5592 38.8787 69.9688 33.9406 65.7149 29.1892 60.8567 24.6741 55.4548 20.4437 49.5707 16.5451 43.2664 13.0243 36.6042 9.92623 29.6465 7.29493 22.4557 5.17364 15.0941 3.60471 7.62346 2.62968-0.100845 2.28945ZM33.2339 123.013 4.58333 118.605 30.1481 104.941Z" fill="#00B050" transform="matrix(1.83697e-16 1 1 -1.83697e-16 467.5 1071.5)"/><path d="M588.365 1071.88 588.025 1073.91C587.988 1074.13 587.919 1074.34 587.82 1074.54L586.829 1076.55C586.754 1076.7 586.662 1076.85 586.556 1076.98L584.956 1078.96C584.878 1079.05 584.792 1079.14 584.699 1079.23L582.535 1081.16 579.632 1083.2 576.288 1085.1 572.538 1086.87 568.419 1088.51 559.272 1091.34 549.055 1093.53 538.155 1094.94 526.903 1095.44 515.662 1095.06 504.797 1093.96 494.629 1092.26C494.463 1092.23 494.301 1092.19 494.145 1092.12L486.783 1089.13 488.51 1084.88 495.872 1087.88 495.388 1087.74 505.258 1089.4 515.821 1090.48 526.702 1090.86 537.572 1090.39 548.1 1089.05 557.921 1086.96 566.728 1084.25 570.586 1082.73 574.032 1081.11 577.015 1079.44 579.483 1077.74 581.648 1075.81 581.391 1076.08 582.991 1074.1 582.718 1074.52 583.71 1072.51 583.505 1073.15 583.845 1071.12ZM487.308 1097.25 467.5 1076.08 496.045 1081.13Z" fill="#D6272A"/><path d="M0.100845-2.28945 7.82515-1.94921 15.6823-0.940721 23.4067 0.690039 30.9394 2.89772 38.2218 5.63784 45.1955 8.86673 51.802 12.5416 57.9827 16.6205 63.6788 21.0626 68.831 25.828 73.379 30.8783 77.2611 36.1763 80.4131 41.6859 82.767 47.3712C82.8088 47.473 82.8432 47.5779 82.87 47.6846L84.2497 53.1936C84.2795 53.3125 84.2996 53.4336 84.3101 53.5557L84.7834 59.1081C84.7941 59.2341 84.7944 59.3606 84.7843 59.4866L84.3372 65.039C84.3279 65.1548 84.3098 65.2696 84.2831 65.3826L82.98 70.8916 80.7846 76.6145 77.8227 82.1628 74.1621 87.4968 69.8667 92.5792 64.9972 97.3726 59.612 101.839 53.7681 105.939 47.5217 109.634 40.9284 112.88 34.0434 115.637C33.9179 115.687 33.7878 115.727 33.6554 115.754L27.6351 116.993 26.7111 112.504 32.7314 111.265 32.3434 111.381 38.9074 108.767 45.1924 105.686 51.1395 102.185 56.6902 98.3077 61.7864 94.1017 66.3712 89.6146 70.3887 84.8952 73.7854 79.9931 76.5112 74.9578 78.5198 69.8366 79.8228 64.3276 79.7687 64.6712 80.2157 59.1188 80.2166 59.4974 79.7433 53.945 79.8037 54.3071 78.424 48.7981 78.527 49.1116 76.4295 43.9527 73.5592 38.8787 69.9688 33.9406 65.7149 29.1892 60.8567 24.6741 55.4548 20.4437 49.5707 16.5451 43.2664 13.0243 36.6042 9.92623 29.6465 7.29493 22.4557 5.17364 15.0941 3.60471 7.62346 2.62968-0.100845 2.28945ZM33.2339 123.013 4.58333 118.605 30.1481 104.941Z" fill="#00B050" transform="matrix(1.83697e-16 1 1 -1.83697e-16 843.5 1071.5)"/><path d="M964.375 1071.81 964.035 1074.28C964.009 1074.47 963.96 1074.65 963.889 1074.83L962.897 1077.27C962.839 1077.42 962.767 1077.55 962.682 1077.68L961.082 1080.09C961.015 1080.19 960.941 1080.28 960.859 1080.37L958.694 1082.72 955.804 1085.19 952.459 1087.5 948.701 1089.67 944.569 1091.67 935.402 1095.12 925.153 1097.79 914.217 1099.5 902.925 1100.12 891.64 1099.63 880.735 1098.23 870.529 1096.06C870.351 1096.02 870.178 1095.96 870.014 1095.88L861.076 1091.58 863.065 1087.45 872.003 1091.75 871.488 1091.58 881.32 1093.69 891.842 1095.05 902.68 1095.54 913.511 1094.97 924.003 1093.35 933.792 1090.82 942.577 1087.54 946.423 1085.69 949.861 1083.73 952.843 1081.69 955.324 1079.62 957.488 1077.27 957.265 1077.55 958.865 1075.14 958.65 1075.55 959.641 1073.1 959.495 1073.65 959.835 1071.19ZM860.413 1099.63 843.5 1076.08 871.156 1084.77Z" fill="#D6272A"/><path d="M0.100845-2.28945 7.82515-1.94921 15.6823-0.940721 23.4067 0.690039 30.9394 2.89772 38.2218 5.63784 45.1955 8.86673 51.802 12.5416 57.9827 16.6205 63.6788 21.0626 68.831 25.828 73.379 30.8783 77.2611 36.1763 80.4131 41.6859 82.767 47.3712C82.8088 47.473 82.8432 47.5779 82.87 47.6846L84.2497 53.1936C84.2795 53.3125 84.2996 53.4336 84.3101 53.5557L84.7834 59.1081C84.7941 59.2341 84.7944 59.3606 84.7843 59.4866L84.3372 65.039C84.3279 65.1548 84.3098 65.2696 84.2831 65.3826L82.98 70.8916 80.7846 76.6145 77.8227 82.1628 74.1621 87.4968 69.8667 92.5792 64.9972 97.3726 59.612 101.839 53.7681 105.939 47.5217 109.634 40.9284 112.88 34.0434 115.637C33.9179 115.687 33.7878 115.727 33.6554 115.754L27.6351 116.993 26.7111 112.504 32.7314 111.265 32.3434 111.381 38.9074 108.767 45.1924 105.686 51.1395 102.185 56.6902 98.3077 61.7864 94.1017 66.3712 89.6146 70.3887 84.8952 73.7854 79.9931 76.5112 74.9578 78.5198 69.8366 79.8228 64.3276 79.7687 64.6712 80.2157 59.1188 80.2166 59.4974 79.7433 53.945 79.8037 54.3071 78.424 48.7981 78.527 49.1116 76.4295 43.9527 73.5592 38.8787 69.9688 33.9406 65.7149 29.1892 60.8567 24.6741 55.4548 20.4437 49.5707 16.5451 43.2664 13.0243 36.6042 9.92623 29.6465 7.29493 22.4557 5.17364 15.0941 3.60471 7.62346 2.62968-0.100845 2.28945ZM33.2339 123.013 4.58333 118.605 30.1481 104.941Z" fill="#00B050" transform="matrix(1.83697e-16 1 1 -1.83697e-16 1219.5 1071.5)"/><path d="M1340.38 1071.79 1340.04 1074.47C1340.02 1074.65 1339.97 1074.82 1339.91 1074.98L1338.92 1077.65C1338.87 1077.78 1338.81 1077.92 1338.73 1078.04L1337.13 1080.66C1337.07 1080.76 1337 1080.86 1336.92 1080.95L1334.76 1083.51 1331.88 1086.19 1328.53 1088.71 1324.77 1091.06 1320.64 1093.24 1311.46 1097 1301.2 1099.91 1290.25 1101.79 1278.94 1102.46 1267.63 1101.92 1256.7 1100.37 1246.48 1097.95C1246.3 1097.91 1246.12 1097.85 1245.96 1097.76L1236.14 1092.69 1238.24 1088.62 1248.06 1093.69 1247.54 1093.49 1257.35 1095.83 1267.85 1097.34 1278.67 1097.88 1289.48 1097.27 1299.96 1095.5 1309.73 1092.76 1318.51 1089.18 1322.35 1087.17 1325.79 1085.04 1328.77 1082.82 1331.26 1080.55 1333.42 1077.99 1333.22 1078.28 1334.82 1075.65 1334.63 1076.05 1335.62 1073.38 1335.49 1073.9 1335.83 1071.21ZM1234.9 1100.64 1219.5 1076.08 1246.55 1086.49Z" fill="#D6272A"/><path d="M0.100844-2.28945 7.82515-1.94921 15.6823-0.940729 23.4067 0.69002 30.9394 2.89769 38.2218 5.63779 45.1955 8.86666 51.802 12.5415 57.9827 16.6204 63.6788 21.0625 68.831 25.8279 73.379 30.8781 77.2611 36.1761 80.4131 41.6857 82.767 47.3709C82.8088 47.4727 82.8432 47.5776 82.87 47.6843L84.2497 53.1933C84.2794 53.3121 84.2996 53.4333 84.3101 53.5554L84.7834 59.1077C84.7941 59.2336 84.7944 59.3604 84.7843 59.4863L84.3372 65.0387C84.3279 65.1543 84.3098 65.2693 84.2831 65.3822L82.98 70.8912 80.7846 76.6141 77.8227 82.1623 74.162 87.4963 69.8667 92.5786 64.9972 97.372 59.612 101.838 53.7681 105.939 47.5217 109.633 40.9284 112.88 34.0434 115.637C33.9177 115.687 33.788 115.726 33.6554 115.753L27.6351 116.992 26.7111 112.503 32.7314 111.264 32.3434 111.38 38.9074 108.766 45.1924 105.686 51.1395 102.184 56.6902 98.3071 61.7864 94.1012 66.3712 89.6141 70.3887 84.8947 73.7854 79.9926 76.5112 74.9574 78.5198 69.8362 79.8228 64.3272 79.7687 64.6708 80.2157 59.1185 80.2166 59.497 79.7433 53.9447 79.8037 54.3068 78.424 48.7978 78.527 49.1113 76.4296 43.9524 73.5592 38.8785 69.9688 33.9404 65.7149 29.189 60.8567 24.6739 55.4548 20.4436 49.5707 16.545 43.2664 13.0243 36.6042 9.92619 29.6465 7.2949 22.4557 5.17362 15.0941 3.6047 7.62346 2.62968-0.100844 2.28945ZM33.2339 123.012 4.58333 118.605 30.1481 104.94Z" fill="#00B050" transform="matrix(1.83697e-16 1 1 -1.83697e-16 1594.5 1071.5)"/><path d="M1715.38 1071.77 1715.04 1074.67C1715.02 1074.83 1714.98 1074.99 1714.93 1075.15L1713.94 1078.03C1713.89 1078.16 1713.84 1078.29 1713.77 1078.41L1712.17 1081.25C1712.11 1081.35 1712.05 1081.44 1711.98 1081.53L1709.81 1084.3 1706.94 1087.19 1703.6 1089.91 1699.84 1092.45 1695.71 1094.81 1686.52 1098.88 1676.25 1102.04 1665.28 1104.07 1653.95 1104.8 1642.62 1104.2 1631.67 1102.5 1621.43 1099.85C1621.25 1099.8 1621.07 1099.73 1620.9 1099.64L1610.15 1093.73 1612.36 1089.71 1623.11 1095.62 1622.59 1095.41 1632.38 1097.97 1642.86 1099.63 1653.66 1100.22 1664.45 1099.56 1674.91 1097.65 1684.67 1094.69 1693.44 1090.83 1697.28 1088.65 1700.72 1086.34 1703.71 1083.94 1706.2 1081.47 1708.37 1078.71 1708.18 1078.99 1709.78 1076.16 1709.61 1076.54 1710.6 1073.66 1710.49 1074.14 1710.83 1071.23ZM1608.35 1101.55 1594.5 1076.08 1620.86 1088.14Z" fill="#D6272A"/><path d="M0.106106-2.28921 7.85427-1.93008 15.7449-0.864745 23.5012 0.858013 31.0639 3.19006 38.374 6.08418 45.373 9.49404 52.0022 13.3742 58.2028 17.6801 63.9156 22.3682 69.081 27.3958 73.6384 32.7216 77.526 38.3051 80.6793 44.107 83.031 50.0874 84.5094 56.2044C84.5364 56.318 84.5548 56.4336 84.5642 56.55L85.039 62.4107C85.0489 62.5336 85.049 62.6572 85.039 62.7802L84.5657 68.6409C84.5563 68.757 84.5381 68.8722 84.5112 68.9855L83.1315 74.8004 80.812 80.8251 77.6822 86.6676 73.8135 92.2859 69.2732 97.6404 64.1254 102.691 58.4317 107.398 52.2527 111.72 45.6477 115.613 38.6758 119.035 31.3955 121.941C31.2822 121.986 31.1655 122.022 31.0465 122.049L23.3746 123.759 22.3772 119.286 30.049 117.575 29.7001 117.683 36.6598 114.919 43.3238 111.663 49.6295 107.961 55.5153 103.862 60.9197 99.4154 65.7823 94.6704 70.0439 89.6788 73.6477 84.4927 76.5403 79.1639 78.672 73.7423 80.0517 67.9274 79.9972 68.272 80.4706 62.4112 80.4706 62.7808 79.9958 56.9201 80.0506 57.2656 78.7611 51.753 76.6477 46.2871 73.7601 40.9177 70.152 35.6968 65.8804 30.6765 61.0045 25.9083 55.5851 21.4423 49.6835 17.3278 43.3621 13.6127 36.6831 10.3442 29.7092 7.56862 22.5028 5.33129 15.1265 3.67668 7.64205 2.64834-0.106106 2.28921ZM28.8676 129.837 0.25479 125.191 25.9326 111.741Z" fill="#00B050" transform="matrix(1.83697e-16 1 1 -1.83697e-16 1968.5 1073.5)"/><path d="M0.303893 2.27143-2.38042 2.63056-1.84599 2.49196-4.50931 3.53879-4.10655 3.33248-6.72787 5.02116-6.44249 4.80393-9.00081 7.08863-11.2751 9.72114-13.502 12.8795-15.6412 16.5165-17.6592 20.5827-21.2412 29.8635-23.9923 40.2034-25.7635 51.2843-26.3818 62.7219-25.7322 74.144-23.9222 85.2129-21.1188 95.5585-17.4964 104.797-17.9876 104.033-14.5175 107.604-17.8042 110.798-21.2744 107.228C-21.4874 107.008-21.6545 106.749-21.7657 106.464L-25.5439 96.7523-28.4463 85.9474-30.3085 74.3986-30.9582 62.4695-30.2886 50.5561-28.4201 39.0194-25.5155 28.2089-21.7621 18.5398-19.5874 14.1854-17.2399 10.2272-14.7281 6.70725-12.0537 3.67006-9.49541 1.38537C-9.40621 1.30571-9.31057 1.23291-9.21003 1.16814L-6.58871-0.520547C-6.46161-0.60243-6.32667-0.671552-6.18595-0.726862L-3.52264-1.7737C-3.35075-1.84126-3.17126-1.8878-2.98821-1.9123L-0.303893-2.27143ZM-13.0477 99.4364 0.25479 125.191-25.8402 112.569Z" fill="#D6272A" transform="matrix(-6.12323e-17 -1 -1 6.12323e-17 2093.69 1073.75)"/><text fill="#FFFFFF" font-family="Arial,Arial_MSFontService,sans-serif" font-weight="400" font-size="48" transform="matrix(1 0 0 1 1356.37 528)">Page 1</text><text fill="#FFFFFF" font-family="Arial,Arial_MSFontService,sans-serif" font-weight="400" font-size="48" transform="matrix(1 0 0 1 304.478 709)">Page 4</text><text fill="#FFFFFF" font-family="Arial,Arial_MSFontService,sans-serif" font-weight="400" font-size="48" transform="matrix(1 0 0 1 1705.49 709)">Page 6</text><text fill="#FFFFFF" font-family="Arial,Arial_MSFontService,sans-serif" font-weight="400" font-size="48" transform="matrix(1 0 0 1 185.945 1202)">Page 2</text><text fill="#FFFFFF" font-family="Arial,Arial_MSFontService,sans-serif" font-weight="400" font-size="48" transform="matrix(1 0 0 1 570.486 1202)">Page 3</text><text fill="#FFFFFF" font-family="Arial,Arial_MSFontService,sans-serif" font-weight="400" font-size="48" transform="matrix(1 0 0 1 937.16 1202)">Page 5</text><text fill="#FFFFFF" font-family="Arial,Arial_MSFontService,sans-serif" font-weight="400" font-size="48" transform="matrix(1 0 0 1 1300.66 1202)">Page 7</text><text fill="#FFFFFF" font-family="Arial,Arial_MSFontService,sans-serif" font-weight="400" font-size="48" transform="matrix(1 0 0 1 1682.02 1202)">Page 8</text><text fill="#FFFFFF" font-family="Arial,Arial_MSFontService,sans-serif" font-weight="400" font-size="48" transform="matrix(1 0 0 1 2063.38 1195)">Page 9</text></g></svg>