<svg width="2202" height="976" xmlns="http://www.w3.org/2000/svg" xmlns:xlink="http://www.w3.org/1999/xlink" xml:space="preserve" overflow="hidden"><defs><filter id="fx0" x="-10%" y="-10%" width="120%" height="120%" filterUnits="userSpaceOnUse" primitiveUnits="userSpaceOnUse"><feComponentTransfer color-interpolation-filters="sRGB"><feFuncR type="discrete" tableValues="0 0"/><feFuncG type="discrete" tableValues="0 0"/><feFuncB type="discrete" tableValues="0 0"/><feFuncA type="linear" slope="0.380392" intercept="0"/></feComponentTransfer><feGaussianBlur stdDeviation="4.8119 4.8119"/></filter><filter id="fx1" x="-10%" y="-10%" width="120%" height="120%" filterUnits="userSpaceOnUse" primitiveUnits="userSpaceOnUse"><feComponentTransfer color-interpolation-filters="sRGB"><feFuncR type="discrete" tableValues="0 0"/><feFuncG type="discrete" tableValues="0 0"/><feFuncB type="discrete" tableValues="0 0"/><feFuncA type="linear" slope="0.380392" intercept="0"/></feComponentTransfer><feGaussianBlur stdDeviation="4.8119 4.8119"/></filter><filter id="fx2" x="-10%" y="-10%" width="120%" height="120%" filterUnits="userSpaceOnUse" primitiveUnits="userSpaceOnUse"><feComponentTransfer color-interpolation-filters="sRGB"><feFuncR type="discrete" tableValues="0 0"/><feFuncG type="discrete" tableValues="0 0"/><feFuncB type="discrete" tableValues="0 0"/><feFuncA type="linear" slope="0.380392" intercept="0"/></feComponentTransfer><feGaussianBlur stdDeviation="4.8119 4.8119"/></filter><filter id="fx3" x="-10%" y="-10%" width="120%" height="120%" filterUnits="userSpaceOnUse" primitiveUnits="userSpaceOnUse"><feComponentTransfer color-interpolation-filters="sRGB"><feFuncR type="discrete" tableValues="0 0"/><feFuncG type="discrete" tableValues="0 0"/><feFuncB type="discrete" tableValues="0 0"/><feFuncA type="linear" slope="0.380392" intercept="0"/></feComponentTransfer><feGaussianBlur stdDeviation="4.8119 4.8119"/></filter><filter id="fx4" x="-10%" y="-10%" width="120%" height="120%" filterUnits="userSpaceOnUse" primitiveUnits="userSpaceOnUse"><feComponentTransfer color-interpolation-filters="sRGB"><feFuncR type="discrete" tableValues="0 0"/><feFuncG type="discrete" tableValues="0 0"/><feFuncB type="discrete" tableValues="0 0"/><feFuncA type="linear" slope="0.380392" intercept="0"/></feComponentTransfer><feGaussianBlur stdDeviation="4.8119 4.8119"/></filter><filter id="fx5" x="-10%" y="-10%" width="120%" height="120%" filterUnits="userSpaceOnUse" primitiveUnits="userSpaceOnUse"><feComponentTransfer color-interpolation-filters="sRGB"><feFuncR type="discrete" tableValues="0 0"/><feFuncG type="discrete" tableValues="0 0"/><feFuncB type="discrete" tableValues="0 0"/><feFuncA type="linear" slope="0.380392" intercept="0"/></feComponentTransfer><feGaussianBlur stdDeviation="4.8119 4.8119"/></filter><filter id="fx6" x="-10%" y="-10%" width="120%" height="120%" filterUnits="userSpaceOnUse" primitiveUnits="userSpaceOnUse"><feComponentTransfer color-interpolation-filters="sRGB"><feFuncR type="discrete" tableValues="0 0"/><feFuncG type="discrete" tableValues="0 0"/><feFuncB type="discrete" tableValues="0 0"/><feFuncA type="linear" slope="0.380392" intercept="0"/></feComponentTransfer><feGaussianBlur stdDeviation="4.8119 4.8119"/></filter><filter id="fx7" x="-10%" y="-10%" width="120%" height="120%" filterUnits="userSpaceOnUse" primitiveUnits="userSpaceOnUse"><feComponentTransfer color-interpolation-filters="sRGB"><feFuncR type="discrete" tableValues="0 0"/><feFuncG type="discrete" tableValues="0 0"/><feFuncB type="discrete" tableValues="0 0"/><feFuncA type="linear" slope="0.380392" intercept="0"/></feComponentTransfer><feGaussianBlur stdDeviation="4.8119 4.8119"/></filter><filter id="fx8" x="-10%" y="-10%" width="120%" height="120%" filterUnits="userSpaceOnUse" primitiveUnits="userSpaceOnUse"><feComponentTransfer color-interpolation-filters="sRGB"><feFuncR type="discrete" tableValues="0 0"/><feFuncG type="discrete" tableValues="0 0"/><feFuncB type="discrete" tableValues="0 0"/><feFuncA type="linear" slope="0.34902" intercept="0"/></feComponentTransfer><feGaussianBlur stdDeviation="4.8119 4.8119"/></filter><filter id="fx9" x="-10%" y="-10%" width="120%" height="120%" filterUnits="userSpaceOnUse" primitiveUnits="userSpaceOnUse"><feComponentTransfer color-interpolation-filters="sRGB"><feFuncR type="discrete" tableValues="0 0"/><feFuncG type="discrete" tableValues="0 0"/><feFuncB type="discrete" tableValues="0 0"/><feFuncA type="linear" slope="0.34902" intercept="0"/></feComponentTransfer><feGaussianBlur stdDeviation="4.8119 4.8119"/></filter><filter id="fx10" x="-10%" y="-10%" width="120%" height="120%" filterUnits="userSpaceOnUse" primitiveUnits="userSpaceOnUse"><feComponentTransfer color-interpolation-filters="sRGB"><feFuncR type="discrete" tableValues="0 0"/><feFuncG type="discrete" tableValues="0 0"/><feFuncB type="discrete" tableValues="0 0"/><feFuncA type="linear" slope="0.34902" intercept="0"/></feComponentTransfer><feGaussianBlur stdDeviation="4.8119 4.8119"/></filter><filter id="fx11" x="-10%" y="-10%" width="120%" height="120%" filterUnits="userSpaceOnUse" primitiveUnits="userSpaceOnUse"><feComponentTransfer color-interpolation-filters="sRGB"><feFuncR type="discrete" tableValues="0 0"/><feFuncG type="discrete" tableValues="0 0"/><feFuncB type="discrete" tableValues="0 0"/><feFuncA type="linear" slope="0.34902" intercept="0"/></feComponentTransfer><feGaussianBlur stdDeviation="4.8119 4.8119"/></filter><filter id="fx12" x="-10%" y="-10%" width="120%" height="120%" filterUnits="userSpaceOnUse" primitiveUnits="userSpaceOnUse"><feComponentTransfer color-interpolation-filters="sRGB"><feFuncR type="discrete" tableValues="0 0"/><feFuncG type="discrete" tableValues="0 0"/><feFuncB type="discrete" tableValues="0 0"/><feFuncA type="linear" slope="0.34902" intercept="0"/></feComponentTransfer><feGaussianBlur stdDeviation="4.8119 4.8119"/></filter><filter id="fx13" x="-10%" y="-10%" width="120%" height="120%" filterUnits="userSpaceOnUse" primitiveUnits="userSpaceOnUse"><feComponentTransfer color-interpolation-filters="sRGB"><feFuncR type="discrete" tableValues="0 0"/><feFuncG type="discrete" tableValues="0 0"/><feFuncB type="discrete" tableValues="0 0"/><feFuncA type="linear" slope="0.34902" intercept="0"/></feComponentTransfer><feGaussianBlur stdDeviation="4.8119 4.8119"/></filter><filter id="fx14" x="-10%" y="-10%" width="120%" height="120%" filterUnits="userSpaceOnUse" primitiveUnits="userSpaceOnUse"><feComponentTransfer color-interpolation-filters="sRGB"><feFuncR type="discrete" tableValues="0 0"/><feFuncG type="discrete" tableValues="0 0"/><feFuncB type="discrete" tableValues="0 0"/><feFuncA type="linear" slope="0.34902" intercept="0"/></feComponentTransfer><feGaussianBlur stdDeviation="4.8119 4.8119"/></filter><filter id="fx15" x="-10%" y="-10%" width="120%" height="120%" filterUnits="userSpaceOnUse" primitiveUnits="userSpaceOnUse"><feComponentTransfer color-interpolation-filters="sRGB"><feFuncR type="discrete" tableValues="0 0"/><feFuncG type="discrete" tableValues="0 0"/><feFuncB type="discrete" tableValues="0 0"/><feFuncA type="linear" slope="0.34902" intercept="0"/></feComponentTransfer><feGaussianBlur stdDeviation="4.8119 4.8119"/></filter><filter id="fx16" x="-10%" y="-10%" width="120%" height="120%" filterUnits="userSpaceOnUse" primitiveUnits="userSpaceOnUse"><feComponentTransfer color-interpolation-filters="sRGB"><feFuncR type="discrete" tableValues="0 0"/><feFuncG type="discrete" tableValues="0 0"/><feFuncB type="discrete" tableValues="0 0"/><feFuncA type="linear" slope="0.34902" intercept="0"/></feComponentTransfer><feGaussianBlur stdDeviation="4.8119 4.8119"/></filter><filter id="fx17" x="-10%" y="-10%" width="120%" height="120%" filterUnits="userSpaceOnUse" primitiveUnits="userSpaceOnUse"><feComponentTransfer color-interpolation-filters="sRGB"><feFuncR type="discrete" tableValues="0 0"/><feFuncG type="discrete" tableValues="0 0"/><feFuncB type="discrete" tableValues="0 0"/><feFuncA type="linear" slope="0.34902" intercept="0"/></feComponentTransfer><feGaussianBlur stdDeviation="4.8119 4.8119"/></filter><filter id="fx18" x="-10%" y="-10%" width="120%" height="120%" filterUnits="userSpaceOnUse" primitiveUnits="userSpaceOnUse"><feComponentTransfer color-interpolation-filters="sRGB"><feFuncR type="discrete" tableValues="0 0"/><feFuncG type="discrete" tableValues="0 0"/><feFuncB type="discrete" tableValues="0 0"/><feFuncA type="linear" slope="0.34902" intercept="0"/></feComponentTransfer><feGaussianBlur stdDeviation="4.8119 4.8119"/></filter><filter id="fx19" x="-10%" y="-10%" width="120%" height="120%" filterUnits="userSpaceOnUse" primitiveUnits="userSpaceOnUse"><feComponentTransfer color-interpolation-filters="sRGB"><feFuncR type="discrete" tableValues="0 0"/><feFuncG type="discrete" tableValues="0 0"/><feFuncB type="discrete" tableValues="0 0"/><feFuncA type="linear" slope="0.380392" intercept="0"/></feComponentTransfer><feGaussianBlur stdDeviation="4.8119 4.8119"/></filter><filter id="fx20" x="-10%" y="-10%" width="120%" height="120%" filterUnits="userSpaceOnUse" primitiveUnits="userSpaceOnUse"><feComponentTransfer color-interpolation-filters="sRGB"><feFuncR type="discrete" tableValues="0 0"/><feFuncG type="discrete" tableValues="0 0"/><feFuncB type="discrete" tableValues="0 0"/><feFuncA type="linear" slope="0.380392" intercept="0"/></feComponentTransfer><feGaussianBlur stdDeviation="4.8119 4.8119"/></filter><filter id="fx21" x="-10%" y="-10%" width="120%" height="120%" filterUnits="userSpaceOnUse" primitiveUnits="userSpaceOnUse"><feComponentTransfer color-interpolation-filters="sRGB"><feFuncR type="discrete" tableValues="0 0"/><feFuncG type="discrete" tableValues="0 0"/><feFuncB type="discrete" tableValues="0 0"/><feFuncA type="linear" slope="0.380392" intercept="0"/></feComponentTransfer><feGaussianBlur stdDeviation="4.8119 4.8119"/></filter><filter id="fx22" x="-10%" y="-10%" width="120%" height="120%" filterUnits="userSpaceOnUse" primitiveUnits="userSpaceOnUse"><feComponentTransfer color-interpolation-filters="sRGB"><feFuncR type="discrete" tableValues="0 0"/><feFuncG type="discrete" tableValues="0 0"/><feFuncB type="discrete" tableValues="0 0"/><feFuncA type="linear" slope="0.380392" intercept="0"/></feComponentTransfer><feGaussianBlur stdDeviation="4.8119 4.8119"/></filter><filter id="fx23" x="-10%" y="-10%" width="120%" height="120%" filterUnits="userSpaceOnUse" primitiveUnits="userSpaceOnUse"><feComponentTransfer color-interpolation-filters="sRGB"><feFuncR type="discrete" tableValues="0 0"/><feFuncG type="discrete" tableValues="0 0"/><feFuncB type="discrete" tableValues="0 0"/><feFuncA type="linear" slope="0.380392" intercept="0"/></feComponentTransfer><feGaussianBlur stdDeviation="4.8119 4.8119"/></filter><filter id="fx24" x="-10%" y="-10%" width="120%" height="120%" filterUnits="userSpaceOnUse" primitiveUnits="userSpaceOnUse"><feComponentTransfer color-interpolation-filters="sRGB"><feFuncR type="discrete" tableValues="0 0"/><feFuncG type="discrete" tableValues="0 0"/><feFuncB type="discrete" tableValues="0 0"/><feFuncA type="linear" slope="0.380392" intercept="0"/></feComponentTransfer><feGaussianBlur stdDeviation="4.8119 4.8119"/></filter><filter id="fx25" x="-10%" y="-10%" width="120%" height="120%" filterUnits="userSpaceOnUse" primitiveUnits="userSpaceOnUse"><feComponentTransfer color-interpolation-filters="sRGB"><feFuncR type="discrete" tableValues="0 0"/><feFuncG type="discrete" tableValues="0 0"/><feFuncB type="discrete" tableValues="0 0"/><feFuncA type="linear" slope="0.34902" intercept="0"/></feComponentTransfer><feGaussianBlur stdDeviation="4.8119 4.8119"/></filter><filter id="fx26" x="-10%" y="-10%" width="120%" height="120%" filterUnits="userSpaceOnUse" primitiveUnits="userSpaceOnUse"><feComponentTransfer color-interpolation-filters="sRGB"><feFuncR type="discrete" tableValues="0 0"/><feFuncG type="discrete" tableValues="0 0"/><feFuncB type="discrete" tableValues="0 0"/><feFuncA type="linear" slope="0.34902" intercept="0"/></feComponentTransfer><feGaussianBlur stdDeviation="4.8119 4.8119"/></filter><filter id="fx27" x="-10%" y="-10%" width="120%" height="120%" filterUnits="userSpaceOnUse" primitiveUnits="userSpaceOnUse"><feComponentTransfer color-interpolation-filters="sRGB"><feFuncR type="discrete" tableValues="0 0"/><feFuncG type="discrete" tableValues="0 0"/><feFuncB type="discrete" tableValues="0 0"/><feFuncA type="linear" slope="0.34902" intercept="0"/></feComponentTransfer><feGaussianBlur stdDeviation="4.8119 4.8119"/></filter><clipPath id="clip28"><rect x="71" y="834" width="2202" height="976"/></clipPath><clipPath id="clip29"><path d="M93.0002 853 93.0002 1781 2209 1781 2209 853ZM71 834 2273 834 2273 1810 71 1810Z" fill-rule="evenodd" clip-rule="evenodd"/></clipPath><clipPath id="clip30"><path d="M282 1177 282 1346 700.833 1346 706.466 1323.47 729 1317.83 729 1177ZM71 834 2273 834 2273 1810 71 1810Z" fill-rule="evenodd" clip-rule="evenodd"/></clipPath><clipPath id="clip31"><path d="M1393 1179 1393 1347 1811 1347 1816.6 1324.6 1839 1319 1839 1179ZM71 834 2273 834 2273 1810 71 1810Z" fill-rule="evenodd" clip-rule="evenodd"/></clipPath><clipPath id="clip32"><path d="M774 933 774 1102 1192.83 1102 1198.47 1079.47 1221 1073.83 1221 933ZM71 834 2273 834 2273 1810 71 1810Z" fill-rule="evenodd" clip-rule="evenodd"/></clipPath><clipPath id="clip33"><path d="M683 1469 683 1637 1102 1637 1107.6 1614.6 1130 1609 1130 1469ZM71 834 2273 834 2273 1810 71 1810Z" fill-rule="evenodd" clip-rule="evenodd"/></clipPath><clipPath id="clip34"><path d="M1209 1470 1209 1639 1627.83 1639 1633.47 1616.47 1656 1610.83 1656 1470ZM71 834 2273 834 2273 1810 71 1810Z" fill-rule="evenodd" clip-rule="evenodd"/></clipPath><clipPath id="clip35"><path d="M1744 1470 1744 1639 2161.83 1639 2167.47 1616.47 2190 1610.83 2190 1470ZM71 834 2273 834 2273 1810 71 1810Z" fill-rule="evenodd" clip-rule="evenodd"/></clipPath><clipPath id="clip36"><path d="M150 1472 150 1641 567.833 1641 573.466 1618.47 596 1612.83 596 1472ZM71 834 2273 834 2273 1810 71 1810Z" fill-rule="evenodd" clip-rule="evenodd"/></clipPath><clipPath id="clip37"><path d="M180.5 1496.5 180.5 1614.5 373.5 1614.5 373.5 1496.5ZM71 834 2273 834 2273 1810 71 1810Z" fill-rule="evenodd" clip-rule="evenodd"/></clipPath><clipPath id="clip38"><rect x="22" y="19" width="179" height="79"/></clipPath><linearGradient x1="277" y1="1614.5" x2="277" y2="1496.5" gradientUnits="userSpaceOnUse" spreadMethod="reflect" id="fill39"><stop offset="0" stop-color="#BDBDBD"/><stop offset="0.8" stop-color="#F7F7F7"/><stop offset="1" stop-color="#F8F8F8"/></linearGradient><clipPath id="clip40"><path d="M373.5 1496.5 373.5 1614.5 565.5 1614.5 565.5 1496.5ZM71 834 2273 834 2273 1810 71 1810Z" fill-rule="evenodd" clip-rule="evenodd"/></clipPath><clipPath id="clip41"><rect x="25" y="19" width="173" height="79"/></clipPath><linearGradient x1="469.5" y1="1614.5" x2="469.5" y2="1496.5" gradientUnits="userSpaceOnUse" spreadMethod="reflect" id="fill42"><stop offset="0" stop-color="#BDBDBD"/><stop offset="0.8" stop-color="#F7F7F7"/><stop offset="1" stop-color="#F8F8F8"/></linearGradient><clipPath id="clip43"><path d="M710.5 1492.5 710.5 1610.5 902.5 1610.5 902.5 1492.5ZM71 834 2273 834 2273 1810 71 1810Z" fill-rule="evenodd" clip-rule="evenodd"/></clipPath><clipPath id="clip44"><rect x="22" y="19" width="182" height="79"/></clipPath><linearGradient x1="806.5" y1="1610.5" x2="806.5" y2="1492.5" gradientUnits="userSpaceOnUse" spreadMethod="reflect" id="fill45"><stop offset="0" stop-color="#BDBDBD"/><stop offset="0.8" stop-color="#F7F7F7"/><stop offset="1" stop-color="#F8F8F8"/></linearGradient><clipPath id="clip46"><path d="M902.5 1492.5 902.5 1610.5 1094.5 1610.5 1094.5 1492.5ZM71 834 2273 834 2273 1810 71 1810Z" fill-rule="evenodd" clip-rule="evenodd"/></clipPath><clipPath id="clip47"><rect x="22" y="19" width="188" height="79"/></clipPath><linearGradient x1="998.5" y1="1610.5" x2="998.5" y2="1492.5" gradientUnits="userSpaceOnUse" spreadMethod="reflect" id="fill48"><stop offset="0" stop-color="#BDBDBD"/><stop offset="0.8" stop-color="#F7F7F7"/><stop offset="1" stop-color="#F8F8F8"/></linearGradient><clipPath id="clip49"><path d="M1239.5 1494.5 1239.5 1612.5 1431.5 1612.5 1431.5 1494.5ZM71 834 2273 834 2273 1810 71 1810Z" fill-rule="evenodd" clip-rule="evenodd"/></clipPath><clipPath id="clip50"><rect x="25" y="19" width="200" height="79"/></clipPath><linearGradient x1="1335.5" y1="1612.5" x2="1335.5" y2="1494.5" gradientUnits="userSpaceOnUse" spreadMethod="reflect" id="fill51"><stop offset="0" stop-color="#BDBDBD"/><stop offset="0.8" stop-color="#F7F7F7"/><stop offset="1" stop-color="#F8F8F8"/></linearGradient><clipPath id="clip52"><path d="M1430.5 1494.5 1430.5 1612.5 1622.5 1612.5 1622.5 1494.5ZM71 834 2273 834 2273 1810 71 1810Z" fill-rule="evenodd" clip-rule="evenodd"/></clipPath><linearGradient x1="1526.5" y1="1612.5" x2="1526.5" y2="1494.5" gradientUnits="userSpaceOnUse" spreadMethod="reflect" id="fill53"><stop offset="0" stop-color="#BDBDBD"/><stop offset="0.8" stop-color="#F7F7F7"/><stop offset="1" stop-color="#F8F8F8"/></linearGradient><clipPath id="clip54"><rect x="22" y="19" width="385" height="112"/></clipPath><clipPath id="clip55"><rect x="22" y="22" width="385" height="109"/></clipPath><clipPath id="clip56"><rect x="22" y="22" width="385" height="109"/></clipPath><clipPath id="clip57"><path d="M1767.5 1492.5 1767.5 1610.5 1959.5 1610.5 1959.5 1492.5ZM71 834 2273 834 2273 1810 71 1810Z" fill-rule="evenodd" clip-rule="evenodd"/></clipPath><clipPath id="clip58"><rect x="22" y="19" width="182" height="79"/></clipPath><linearGradient x1="1863.5" y1="1610.5" x2="1863.5" y2="1492.5" gradientUnits="userSpaceOnUse" spreadMethod="reflect" id="fill59"><stop offset="0" stop-color="#BDBDBD"/><stop offset="0.8" stop-color="#F7F7F7"/><stop offset="1" stop-color="#F8F8F8"/></linearGradient><clipPath id="clip60"><path d="M1958.5 1492.5 1958.5 1610.5 2150.5 1610.5 2150.5 1492.5ZM71 834 2273 834 2273 1810 71 1810Z" fill-rule="evenodd" clip-rule="evenodd"/></clipPath><linearGradient x1="2054.5" y1="1610.5" x2="2054.5" y2="1492.5" gradientUnits="userSpaceOnUse" spreadMethod="reflect" id="fill61"><stop offset="0" stop-color="#BDBDBD"/><stop offset="0.8" stop-color="#F7F7F7"/><stop offset="1" stop-color="#F8F8F8"/></linearGradient></defs><g clip-path="url(#clip28)" transform="translate(-71 -834)"><g clip-path="url(#clip29)"><g filter="url(#fx0)" transform="translate(70 837)"><g><rect x="23.0002" y="23.2177" width="2116" height="928" stroke="#FFFFFF" stroke-width="14" stroke-linejoin="round" stroke-miterlimit="10" fill="#FFFFFF"/></g></g></g><rect x="93.0002" y="853" width="2116" height="928" stroke="#FFFFFF" stroke-width="13.75" stroke-linejoin="round" stroke-miterlimit="10" fill="#FFFFFF"/><g clip-path="url(#clip30)"><g filter="url(#fx1)" transform="translate(259 1161)"><g><path d="M22.9999 23.2179 470 23.2179 470 164.051 441.833 192.218 22.9999 192.218Z" fill="#FFFFFF" fill-rule="evenodd"/><path d="M441.833 192.218 447.466 169.684 470 164.051Z" fill="#CDCDCD" fill-rule="evenodd"/><path d="M441.833 192.218 447.466 169.684 470 164.051 441.833 192.218 22.9999 192.218 22.9999 23.2179 470 23.2179 470 164.051" stroke="#FFFFFF" stroke-width="14" stroke-linejoin="round" stroke-miterlimit="10" fill="none" fill-rule="evenodd"/></g></g></g><path d="M282 1177 729 1177 729 1317.83 700.833 1346 282 1346Z" fill="#FFFFFF" fill-rule="evenodd"/><path d="M700.833 1346 706.466 1323.47 729 1317.83Z" fill="#CDCDCD" fill-rule="evenodd"/><path d="M700.833 1346 706.466 1323.47 729 1317.83 700.833 1346 282 1346 282 1177 729 1177 729 1317.83" stroke="#FFFFFF" stroke-width="13.75" stroke-linejoin="round" stroke-miterlimit="10" fill="none" fill-rule="evenodd"/><g clip-path="url(#clip31)"><g filter="url(#fx2)" transform="translate(1370 1163)"><g><path d="M22.9999 23.2179 469 23.2179 469 163.218 441 191.218 22.9999 191.218Z" fill="#FFFFFF" fill-rule="evenodd"/><path d="M441 191.218 446.6 168.817 469 163.218Z" fill="#CDCDCD" fill-rule="evenodd"/><path d="M441 191.218 446.6 168.817 469 163.218 441 191.218 22.9999 191.218 22.9999 23.2179 469 23.2179 469 163.218" stroke="#FFFFFF" stroke-width="14" stroke-linejoin="round" stroke-miterlimit="10" fill="none" fill-rule="evenodd"/></g></g></g><path d="M1393 1179 1839 1179 1839 1319 1811 1347 1393 1347Z" fill="#FFFFFF" fill-rule="evenodd"/><path d="M1811 1347 1816.6 1324.6 1839 1319Z" fill="#CDCDCD" fill-rule="evenodd"/><path d="M1811 1347 1816.6 1324.6 1839 1319 1811 1347 1393 1347 1393 1179 1839 1179 1839 1319" stroke="#FFFFFF" stroke-width="13.75" stroke-linejoin="round" stroke-miterlimit="10" fill="none" fill-rule="evenodd"/><g clip-path="url(#clip32)"><g filter="url(#fx3)" transform="translate(751 917)"><g><path d="M23.0001 23.2178 470 23.2178 470 164.05 441.833 192.217 23.0001 192.217Z" fill="#FFFFFF" fill-rule="evenodd"/><path d="M441.833 192.217 447.466 169.684 470 164.05Z" fill="#CDCDCD" fill-rule="evenodd"/><path d="M441.833 192.217 447.466 169.684 470 164.05 441.833 192.217 23.0001 192.217 23.0001 23.2178 470 23.2178 470 164.05" stroke="#FFFFFF" stroke-width="14" stroke-linejoin="round" stroke-miterlimit="10" fill="none" fill-rule="evenodd"/></g></g></g><path d="M774 933 1221 933 1221 1073.83 1192.83 1102 774 1102Z" fill="#FFFFFF" fill-rule="evenodd"/><path d="M1192.83 1102 1198.47 1079.47 1221 1073.83Z" fill="#CDCDCD" fill-rule="evenodd"/><path d="M1192.83 1102 1198.47 1079.47 1221 1073.83 1192.83 1102 774 1102 774 933 1221 933 1221 1073.83" stroke="#FFFFFF" stroke-width="13.75" stroke-linejoin="round" stroke-miterlimit="10" fill="none" fill-rule="evenodd"/><g clip-path="url(#clip33)"><g filter="url(#fx4)" transform="translate(660 1453)"><g><path d="M23.0001 23.2177 470 23.2177 470 163.217 441.999 191.218 23.0001 191.218Z" fill="#FFFFFF" fill-rule="evenodd"/><path d="M441.999 191.218 447.6 168.817 470 163.217Z" fill="#CDCDCD" fill-rule="evenodd"/><path d="M441.999 191.218 447.6 168.817 470 163.217 441.999 191.218 23.0001 191.218 23.0001 23.2177 470 23.2177 470 163.217" stroke="#FFFFFF" stroke-width="14" stroke-linejoin="round" stroke-miterlimit="10" fill="none" fill-rule="evenodd"/></g></g></g><path d="M683 1469 1130 1469 1130 1609 1102 1637 683 1637Z" fill="#FFFFFF" fill-rule="evenodd"/><path d="M1102 1637 1107.6 1614.6 1130 1609Z" fill="#CDCDCD" fill-rule="evenodd"/><path d="M1102 1637 1107.6 1614.6 1130 1609 1102 1637 683 1637 683 1469 1130 1469 1130 1609" stroke="#FFFFFF" stroke-width="13.75" stroke-linejoin="round" stroke-miterlimit="10" fill="none" fill-rule="evenodd"/><g clip-path="url(#clip34)"><g filter="url(#fx5)" transform="translate(1186 1454)"><g><path d="M23 23.2178 470 23.2178 470 164.05 441.833 192.217 23 192.217Z" fill="#FFFFFF" fill-rule="evenodd"/><path d="M441.833 192.217 447.466 169.684 470 164.05Z" fill="#CDCDCD" fill-rule="evenodd"/><path d="M441.833 192.217 447.466 169.684 470 164.05 441.833 192.217 23 192.217 23 23.2178 470 23.2178 470 164.05" stroke="#FFFFFF" stroke-width="14" stroke-linejoin="round" stroke-miterlimit="10" fill="none" fill-rule="evenodd"/></g></g></g><path d="M1209 1470 1656 1470 1656 1610.83 1627.83 1639 1209 1639Z" fill="#FFFFFF" fill-rule="evenodd"/><path d="M1627.83 1639 1633.47 1616.47 1656 1610.83Z" fill="#CDCDCD" fill-rule="evenodd"/><path d="M1627.83 1639 1633.47 1616.47 1656 1610.83 1627.83 1639 1209 1639 1209 1470 1656 1470 1656 1610.83" stroke="#FFFFFF" stroke-width="13.75" stroke-linejoin="round" stroke-miterlimit="10" fill="none" fill-rule="evenodd"/><g clip-path="url(#clip35)"><g filter="url(#fx6)" transform="translate(1721 1454)"><g><path d="M22.9999 23.2178 469 23.2178 469 164.051 440.833 192.218 22.9999 192.218Z" fill="#FFFFFF" fill-rule="evenodd"/><path d="M440.833 192.218 446.466 169.684 469 164.051Z" fill="#CDCDCD" fill-rule="evenodd"/><path d="M440.833 192.218 446.466 169.684 469 164.051 440.833 192.218 22.9999 192.218 22.9999 23.2178 469 23.2178 469 164.051" stroke="#FFFFFF" stroke-width="14" stroke-linejoin="round" stroke-miterlimit="10" fill="none" fill-rule="evenodd"/></g></g></g><path d="M1744 1470 2190 1470 2190 1610.83 2161.83 1639 1744 1639Z" fill="#FFFFFF" fill-rule="evenodd"/><path d="M2161.83 1639 2167.47 1616.47 2190 1610.83Z" fill="#CDCDCD" fill-rule="evenodd"/><path d="M2161.83 1639 2167.47 1616.47 2190 1610.83 2161.83 1639 1744 1639 1744 1470 2190 1470 2190 1610.83" stroke="#FFFFFF" stroke-width="13.75" stroke-linejoin="round" stroke-miterlimit="10" fill="none" fill-rule="evenodd"/><g clip-path="url(#clip36)"><g filter="url(#fx7)" transform="translate(127 1456)"><g><path d="M22.9999 23.2178 469 23.2178 469 164.051 440.833 192.218 22.9999 192.218Z" fill="#FFFFFF" fill-rule="evenodd"/><path d="M440.833 192.218 446.466 169.684 469 164.051Z" fill="#CDCDCD" fill-rule="evenodd"/><path d="M440.833 192.218 446.466 169.684 469 164.051 440.833 192.218 22.9999 192.218 22.9999 23.2178 469 23.2178 469 164.051" stroke="#FFFFFF" stroke-width="14" stroke-linejoin="round" stroke-miterlimit="10" fill="none" fill-rule="evenodd"/></g></g></g><path d="M150 1472 596 1472 596 1612.83 567.833 1641 150 1641Z" fill="#FFFFFF" fill-rule="evenodd"/><path d="M567.833 1641 573.466 1618.47 596 1612.83Z" fill="#CDCDCD" fill-rule="evenodd"/><path d="M567.833 1641 573.466 1618.47 596 1612.83 567.833 1641 150 1641 150 1472 596 1472 596 1612.83" stroke="#FFFFFF" stroke-width="13.75" stroke-linejoin="round" stroke-miterlimit="10" fill="none" fill-rule="evenodd"/><rect x="1021.5" y="959.5" width="107" height="118" stroke="#002060" stroke-width="9.16667" stroke-linejoin="round" stroke-miterlimit="10" fill="#541B27"/><rect x="1128.5" y="959.5" width="47.0001" height="118" stroke="#002060" stroke-width="9.16667" stroke-linejoin="round" stroke-miterlimit="10" fill="#D72C2F"/><path d="M1139.5 1018.5C1139.5 1011.32 1145.1 1005.5 1152 1005.5 1158.9 1005.5 1164.5 1011.32 1164.5 1018.5 1164.5 1025.68 1158.9 1031.5 1152 1031.5 1145.1 1031.5 1139.5 1025.68 1139.5 1018.5Z" stroke="#000000" stroke-width="9.16667" stroke-linejoin="round" stroke-miterlimit="10" fill="none" fill-rule="evenodd"/><rect x="867.5" y="959.5" width="107" height="118" stroke="#002060" stroke-width="9.16667" stroke-linejoin="round" stroke-miterlimit="10" fill="#541B27"/><text fill="#FFFFFF" font-family="Arial,Arial_MSFontService,sans-serif" font-weight="400" font-size="62" transform="matrix(1 0 0 1 885.93 1041)">17</text><rect x="974.5" y="959.5" width="47.0001" height="118" stroke="#002060" stroke-width="9.16667" stroke-linejoin="round" stroke-miterlimit="10" fill="#D72C2F"/><path d="M985.5 1018.5C985.5 1011.32 991.096 1005.5 998 1005.5 1004.9 1005.5 1010.5 1011.32 1010.5 1018.5 1010.5 1025.68 1004.9 1031.5 998 1031.5 991.096 1031.5 985.5 1025.68 985.5 1018.5Z" stroke="#000000" stroke-width="9.16667" stroke-linejoin="round" stroke-miterlimit="10" fill="#FFFFFF" fill-rule="evenodd"/><rect x="820.5" y="959.5" width="46.0001" height="118" stroke="#002060" stroke-width="9.16667" stroke-linejoin="round" stroke-miterlimit="10" fill="#D72C2F"/><path d="M830.5 1018.5C830.5 1011.32 836.32 1005.5 843.5 1005.5 850.68 1005.5 856.5 1011.32 856.5 1018.5 856.5 1025.68 850.68 1031.5 843.5 1031.5 836.32 1031.5 830.5 1025.68 830.5 1018.5Z" stroke="#000000" stroke-width="9.16667" stroke-linejoin="round" stroke-miterlimit="10" fill="#FFFFFF" fill-rule="evenodd"/><rect x="527.5" y="1207.5" width="107" height="118" stroke="#002060" stroke-width="9.16667" stroke-linejoin="round" stroke-miterlimit="10" fill="#541B27"/><rect x="635.5" y="1207.5" width="46.0001" height="118" stroke="#002060" stroke-width="9.16667" stroke-linejoin="round" stroke-miterlimit="10" fill="#D72C2F"/><path d="M645.5 1266.5C645.5 1259.32 651.32 1253.5 658.5 1253.5 665.68 1253.5 671.5 1259.32 671.5 1266.5 671.5 1273.68 665.68 1279.5 658.5 1279.5 651.32 1279.5 645.5 1273.68 645.5 1266.5Z" stroke="#000000" stroke-width="9.16667" stroke-linejoin="round" stroke-miterlimit="10" fill="none" fill-rule="evenodd"/><rect x="373.5" y="1207.5" width="107" height="118" stroke="#002060" stroke-width="9.16667" stroke-linejoin="round" stroke-miterlimit="10" fill="#541B27"/><text fill="#FFFFFF" font-family="Arial,Arial_MSFontService,sans-serif" font-weight="400" font-size="62" transform="matrix(1 0 0 1 409.685 1289)">5</text><rect x="481.5" y="1207.5" width="46.0001" height="118" stroke="#002060" stroke-width="9.16667" stroke-linejoin="round" stroke-miterlimit="10" fill="#D72C2F"/><path d="M491.5 1266.5C491.5 1259.32 497.32 1253.5 504.5 1253.5 511.68 1253.5 517.5 1259.32 517.5 1266.5 517.5 1273.68 511.68 1279.5 504.5 1279.5 497.32 1279.5 491.5 1273.68 491.5 1266.5Z" stroke="#000000" stroke-width="9.16667" stroke-linejoin="round" stroke-miterlimit="10" fill="#FFFFFF" fill-rule="evenodd"/><rect x="327.5" y="1207.5" width="46.0001" height="118" stroke="#002060" stroke-width="9.16667" stroke-linejoin="round" stroke-miterlimit="10" fill="#D72C2F"/><path d="M337.5 1266.5C337.5 1259.32 343.32 1253.5 350.5 1253.5 357.68 1253.5 363.5 1259.32 363.5 1266.5 363.5 1273.68 357.68 1279.5 350.5 1279.5 343.32 1279.5 337.5 1273.68 337.5 1266.5Z" stroke="#000000" stroke-width="9.16667" stroke-linejoin="round" stroke-miterlimit="10" fill="#FFFFFF" fill-rule="evenodd"/><rect x="1642.5" y="1216.5" width="107" height="118" stroke="#002060" stroke-width="9.16667" stroke-linejoin="round" stroke-miterlimit="10" fill="#541B27"/><rect x="1749.5" y="1216.5" width="46.0001" height="118" stroke="#002060" stroke-width="9.16667" stroke-linejoin="round" stroke-miterlimit="10" fill="#D72C2F"/><path d="M1759.5 1275.5C1759.5 1268.32 1765.32 1262.5 1772.5 1262.5 1779.68 1262.5 1785.5 1268.32 1785.5 1275.5 1785.5 1282.68 1779.68 1288.5 1772.5 1288.5 1765.32 1288.5 1759.5 1282.68 1759.5 1275.5Z" stroke="#000000" stroke-width="9.16667" stroke-linejoin="round" stroke-miterlimit="10" fill="none" fill-rule="evenodd"/><rect x="1488.5" y="1216.5" width="107" height="118" stroke="#002060" stroke-width="9.16667" stroke-linejoin="round" stroke-miterlimit="10" fill="#541B27"/><text fill="#FFFFFF" font-family="Arial,Arial_MSFontService,sans-serif" font-weight="400" font-size="62" transform="matrix(1 0 0 1 1506.8 1298)">24</text><rect x="1595.5" y="1216.5" width="46.0001" height="118" stroke="#002060" stroke-width="9.16667" stroke-linejoin="round" stroke-miterlimit="10" fill="#D72C2F"/><path d="M1605.5 1275.5C1605.5 1268.32 1611.32 1262.5 1618.5 1262.5 1625.68 1262.5 1631.5 1268.32 1631.5 1275.5 1631.5 1282.68 1625.68 1288.5 1618.5 1288.5 1611.32 1288.5 1605.5 1282.68 1605.5 1275.5Z" stroke="#000000" stroke-width="9.16667" stroke-linejoin="round" stroke-miterlimit="10" fill="#FFFFFF" fill-rule="evenodd"/><rect x="1441.5" y="1216.5" width="46.0001" height="118" stroke="#002060" stroke-width="9.16667" stroke-linejoin="round" stroke-miterlimit="10" fill="#D72C2F"/><path d="M1451.5 1275.5C1451.5 1268.32 1457.32 1262.5 1464.5 1262.5 1471.68 1262.5 1477.5 1268.32 1477.5 1275.5 1477.5 1282.68 1471.68 1288.5 1464.5 1288.5 1457.32 1288.5 1451.5 1282.68 1451.5 1275.5Z" stroke="#000000" stroke-width="9.16667" stroke-linejoin="round" stroke-miterlimit="10" fill="#FFFFFF" fill-rule="evenodd"/><g clip-path="url(#clip37)"><g filter="url(#fx8)" transform="translate(163 1487)"><g><rect x="17.5" y="17.8004" width="193" height="118" stroke="#F9F9F9" stroke-width="3" stroke-linejoin="round" stroke-miterlimit="10" fill="#FF0000"/></g></g><g clip-path="url(#clip38)" filter="url(#fx9)" transform="translate(166 1510)"><g><path d="M9.58935 8.62842C7.60075 6.1193 5.91911 3.1831 4.54443-0.180176 3.16976-3.54346 2.48242-7.02685 2.48242-10.6304 2.48242-13.8068 2.99626-16.8498 4.02393-19.7593 5.2251-23.1359 7.08024-26.4992 9.58935-29.8491L12.1719-29.8491C10.557-27.0731 9.48926-25.0911 8.96875-23.9033 8.15462-22.0615 7.514-20.1396 7.04687-18.1377 6.47298-15.6419 6.18603-13.1328 6.18603-10.6104 6.18603-4.19075 8.18131 2.22217 12.1719 8.62842ZM34.3901-3.46338 34.3901 0 14.9912 0C14.9645-0.867513 15.1047-1.70166 15.4116-2.50244 15.9054-3.82373 16.6962-5.125 17.7839-6.40625 18.8717-7.6875 20.4432-9.16894 22.4985-10.8506 25.6883-13.4665 27.8437-15.5385 28.9648-17.0666 30.0859-18.5948 30.6465-20.0395 30.6465-21.4009 30.6465-22.8289 30.136-24.0334 29.115-25.0144 28.094-25.9954 26.7627-26.4858 25.1211-26.4858 23.3861-26.4858 21.998-25.9653 20.957-24.9243 19.916-23.8833 19.3888-22.4419 19.3755-20.6001L15.6719-20.9805C15.9255-23.7432 16.8797-25.8485 18.5347-27.2966 20.1896-28.7447 22.4118-29.4687 25.2012-29.4687 28.0172-29.4687 30.2461-28.688 31.8877-27.1265 33.5293-25.5649 34.3501-23.6297 34.3501-21.3208 34.3501-20.1463 34.1099-18.9919 33.6294-17.8574 33.1489-16.723 32.3515-15.5285 31.2371-14.2739 30.1226-13.0194 28.2708-11.2977 25.6816-9.10889 23.5195-7.29378 22.1315-6.06258 21.5176-5.41528 20.9036-4.76798 20.3965-4.11735 19.9961-3.46338ZM40.3102 0 40.3102-4.104 44.4142-4.104 44.4142 0C44.4142 1.50814 44.1473 2.72599 43.6134 3.65356 43.0796 4.58114 42.2321 5.2985 41.071 5.80566L40.07 4.26416C40.8307 3.9305 41.3913 3.44002 41.7516 2.79272 42.112 2.14543 42.3122 1.21452 42.3522 0ZM60.7645-8.32812 64.2679-8.80859C64.3613-6.56641 64.7817-5.03157 65.5291-4.2041 66.2765-3.37663 67.3109-2.96289 68.6322-2.96289 69.6064-2.96289 70.4473-3.18644 71.1546-3.63354 71.862-4.08065 72.3491-4.68791 72.616-5.45532 72.883-6.22274 73.0164-7.44726 73.0164-9.12891L73.0164-29.3486 76.9002-29.3486 76.9002-9.34912C76.9002-6.89339 76.6033-4.99154 76.0094-3.64355 75.4154-2.29557 74.4745-1.2679 73.1866-0.560547 71.8987 0.14681 70.3872 0.500488 68.6522 0.500488 66.0763 0.500488 64.1044-0.240234 62.7364-1.72168 61.3684-3.20312 60.7111-5.40527 60.7645-8.32812ZM81.5697-10.6304C81.5697-14.5675 82.6641-17.4837 84.8529-19.3789 86.6813-20.9538 88.9101-21.7412 91.5394-21.7412 94.4622-21.7412 96.8512-20.7836 98.7064-18.8684 100.562-16.9532 101.489-14.3073 101.489-10.9307 101.489-8.19466 101.079-6.04256 100.258-4.47436 99.4371-2.90617 98.2426-1.68831 96.6744-0.820801 95.1062 0.0467122 93.3945 0.480469 91.5394 0.480469 88.5631 0.480469 86.1575-0.473796 84.3223-2.38232 82.4872-4.29085 81.5697-7.0402 81.5697-10.6304ZM85.2733-10.6304C85.2733-7.90771 85.8672-5.86906 87.055-4.5144 88.2428-3.15975 89.7376-2.48242 91.5394-2.48242 93.3278-2.48242 94.8159-3.16309 96.0037-4.52441 97.1916-5.88574 97.7855-7.9611 97.7855-10.7505 97.7855-13.3797 97.1882-15.3717 95.9937-16.7263 94.7992-18.081 93.3144-18.7583 91.5394-18.7583 89.7376-18.7583 88.2428-18.0843 87.055-16.7363 85.8672-15.3883 85.2733-13.353 85.2733-10.6304ZM120.382-6.84668 124.105-6.38623C123.518-4.21077 122.43-2.52246 120.842-1.32129 119.254-0.120117 117.225 0.480469 114.756 0.480469 111.647 0.480469 109.181-0.477132 107.359-2.39233 105.537-4.30754 104.626-6.99349 104.626-10.4502 104.626-14.027 105.547-16.8031 107.389-18.7783 109.231-20.7536 111.62-21.7412 114.556-21.7412 117.399-21.7412 119.721-20.7736 121.523-18.8384 123.325-16.9032 124.226-14.1805 124.226-10.6704 124.226-10.4569 124.219-10.1366 124.206-9.70947L108.35-9.70947C108.484-7.37386 109.144-5.58545 110.332-4.34424 111.52-3.10303 113.001-2.48242 114.776-2.48242 116.098-2.48242 117.225-2.82943 118.16-3.52344 119.094-4.21745 119.835-5.32519 120.382-6.84668ZM108.55-12.6724 120.422-12.6724C120.262-14.4608 119.808-15.8021 119.061-16.6963 117.913-18.0843 116.425-18.7783 114.596-18.7783 112.941-18.7783 111.55-18.2244 110.422-17.1167 109.294-16.0089 108.67-14.5275 108.55-12.6724ZM131.107 8.62842 128.524 8.62842C132.515 2.22217 134.51-4.19075 134.51-10.6104 134.51-13.1195 134.223-15.6086 133.649-18.0776 133.195-20.0796 132.561-22.0015 131.747-23.8433 131.227-25.0444 130.152-27.0464 128.524-29.8491L131.107-29.8491C133.616-26.4992 135.471-23.1359 136.672-19.7593 137.7-16.8498 138.214-13.8068 138.214-10.6304 138.214-7.02685 137.523-3.54346 136.142-0.180176 134.76 3.1831 133.082 6.1193 131.107 8.62842Z" fill="#541B27" transform="matrix(1 0 0 1 40.8025 68)"/></g></g></g><rect x="180.5" y="1496.5" width="193" height="118" stroke="#F9F9F9" stroke-width="3.4375" stroke-linejoin="round" stroke-miterlimit="10" fill="url(#fill39)"/><text fill="#541B27" font-family="Arial,Arial_MSFontService,sans-serif" font-weight="400" font-size="41" transform="matrix(1 0 0 1 206.803 1570)">(2, Joe)</text><g clip-path="url(#clip40)"><g filter="url(#fx10)" transform="translate(356 1487)"><g><rect x="17.5002" y="17.8004" width="192" height="118" stroke="#F9F9F9" stroke-width="3" stroke-linejoin="round" stroke-miterlimit="10" fill="#FF0000"/></g></g><g clip-path="url(#clip41)" filter="url(#fx11)" transform="translate(359 1510)"><g><path d="M9.58935 8.62842C7.60075 6.1193 5.91911 3.1831 4.54443-0.180176 3.16976-3.54346 2.48242-7.02685 2.48242-10.6304 2.48242-13.8068 2.99626-16.8498 4.02393-19.7593 5.2251-23.1359 7.08024-26.4992 9.58935-29.8491L12.1719-29.8491C10.557-27.0731 9.48926-25.0911 8.96875-23.9033 8.15462-22.0615 7.514-20.1396 7.04687-18.1377 6.47298-15.6419 6.18603-13.1328 6.18603-10.6104 6.18603-4.19075 8.18131 2.22217 12.1719 8.62842ZM15.4717-7.74756 19.0752-8.22803C19.4889-6.18603 20.193-4.7146 21.1873-3.81372 22.1816-2.91284 23.3927-2.4624 24.8208-2.4624 26.5158-2.4624 27.9472-3.04964 29.115-4.22412 30.2828-5.3986 30.8667-6.85335 30.8667-8.58838 30.8667-10.2433 30.3262-11.608 29.2451-12.6824 28.1641-13.7568 26.7894-14.2939 25.1211-14.2939 24.4404-14.2939 23.5929-14.1605 22.5786-13.8936L22.979-17.0566C23.2192-17.0299 23.4128-17.0166 23.5596-17.0166 25.0944-17.0166 26.4757-17.417 27.7036-18.2178 28.9315-19.0186 29.5454-20.2531 29.5454-21.9214 29.5454-23.2427 29.0983-24.3371 28.2041-25.2046 27.3099-26.0721 26.1554-26.5059 24.7407-26.5059 23.3394-26.5059 22.1715-26.0654 21.2373-25.1846 20.3031-24.3037 19.7025-22.9824 19.4355-21.2207L15.832-21.8613C16.2725-24.277 17.2734-26.1488 18.835-27.4768 20.3965-28.8048 22.3384-29.4687 24.6606-29.4687 26.2622-29.4687 27.737-29.1251 29.085-28.4377 30.4329-27.7504 31.4639-26.8128 32.178-25.625 32.892-24.4372 33.249-23.1759 33.249-21.8413 33.249-20.5734 32.9087-19.4189 32.228-18.3779 31.5474-17.3369 30.5397-16.5094 29.2051-15.8955 30.9401-15.4951 32.2881-14.6643 33.249-13.4031 34.21-12.1418 34.6904-10.5636 34.6904-8.66846 34.6904-6.10596 33.7562-3.93384 31.8877-2.1521 30.0192-0.370361 27.6569 0.520508 24.8008 0.520508 22.2249 0.520508 20.0862-0.246908 18.3845-1.78174 16.6829-3.31657 15.7119-5.30517 15.4717-7.74756ZM40.3102 0 40.3102-4.104 44.4142-4.104 44.4142 0C44.4142 1.50814 44.1473 2.72599 43.6134 3.65356 43.0796 4.58114 42.2321 5.2985 41.071 5.80566L40.07 4.26416C40.8307 3.9305 41.3913 3.44002 41.7516 2.79272 42.112 2.14543 42.3122 1.21452 42.3522 0ZM60.7645-8.32812 64.2679-8.80859C64.3613-6.56641 64.7817-5.03157 65.5291-4.2041 66.2765-3.37663 67.3109-2.96289 68.6322-2.96289 69.6064-2.96289 70.4473-3.18644 71.1546-3.63354 71.862-4.08065 72.3491-4.68791 72.616-5.45532 72.883-6.22274 73.0164-7.44726 73.0164-9.12891L73.0164-29.3486 76.9002-29.3486 76.9002-9.34912C76.9002-6.89339 76.6033-4.99154 76.0094-3.64355 75.4154-2.29557 74.4745-1.2679 73.1866-0.560547 71.8987 0.14681 70.3872 0.500488 68.6522 0.500488 66.0763 0.500488 64.1044-0.240234 62.7364-1.72168 61.3684-3.20312 60.7111-5.40527 60.7645-8.32812ZM82.931-25.2046 82.931-29.3486 86.5345-29.3486 86.5345-25.2046ZM82.931 0 82.931-21.2607 86.5345-21.2607 86.5345 0ZM92.0776 0 92.0776-21.2607 95.3008-21.2607 95.3008-18.2778C95.9681-19.3188 96.8556-20.1563 97.9634-20.7903 99.0711-21.4242 100.332-21.7412 101.747-21.7412 103.322-21.7412 104.613-21.4142 105.621-20.7603 106.628-20.1063 107.339-19.1921 107.753-18.0176 109.435-20.5 111.623-21.7412 114.319-21.7412 116.428-21.7412 118.05-21.1573 119.184-19.9895 120.319-18.8217 120.886-17.0233 120.886-14.5942L120.886 0 117.302 0 117.302-13.3931C117.302-14.8345 117.185-15.8721 116.952-16.5061 116.718-17.1401 116.295-17.6506 115.681-18.0376 115.067-18.4246 114.346-18.6182 113.519-18.6182 112.024-18.6182 110.783-18.121 109.795-17.1267 108.807-16.1324 108.313-14.5409 108.313-12.352L108.313 0 104.71 0 104.71-13.8135C104.71-15.415 104.416-16.6162 103.829-17.417 103.242-18.2178 102.281-18.6182 100.946-18.6182 99.932-18.6182 98.9944-18.3512 98.1335-17.8174 97.2727-17.2835 96.6488-16.5028 96.2617-15.4751 95.8747-14.4474 95.6811-12.966 95.6811-11.0308L95.6811 0ZM128.815 8.62842 126.232 8.62842C130.223 2.22217 132.218-4.19075 132.218-10.6104 132.218-13.1195 131.931-15.6086 131.357-18.0776 130.904-20.0796 130.27-22.0015 129.456-23.8433 128.935-25.0444 127.861-27.0464 126.232-29.8491L128.815-29.8491C131.324-26.4992 133.179-23.1359 134.38-19.7593 135.408-16.8498 135.922-13.8068 135.922-10.6304 135.922-7.02685 135.231-3.54346 133.85-0.180176 132.468 3.1831 130.79 6.1193 128.815 8.62842Z" fill="#541B27" transform="matrix(1 0 0 1 41.3823 68)"/></g></g></g><rect x="373.5" y="1496.5" width="192" height="118" stroke="#F9F9F9" stroke-width="3.4375" stroke-linejoin="round" stroke-miterlimit="10" fill="url(#fill42)"/><text fill="#541B27" font-family="Arial,Arial_MSFontService,sans-serif" font-weight="400" font-size="41" transform="matrix(1 0 0 1 400.382 1570)">(3, Jim)</text><g clip-path="url(#clip43)"><g filter="url(#fx12)" transform="translate(693 1483)"><g><rect x="17.5001" y="17.8005" width="192" height="118" stroke="#F9F9F9" stroke-width="3" stroke-linejoin="round" stroke-miterlimit="10" fill="#FF0000"/></g></g><g clip-path="url(#clip44)" filter="url(#fx13)" transform="translate(693 1506)"><g><path d="M9.58935 8.62842C7.60075 6.1193 5.91911 3.1831 4.54443-0.180176 3.16976-3.54346 2.48242-7.02685 2.48242-10.6304 2.48242-13.8068 2.99626-16.8498 4.02393-19.7593 5.2251-23.1359 7.08024-26.4992 9.58935-29.8491L12.1719-29.8491C10.557-27.0731 9.48926-25.0911 8.96875-23.9033 8.15462-22.0615 7.514-20.1396 7.04687-18.1377 6.47298-15.6419 6.18603-13.1328 6.18603-10.6104 6.18603-4.19075 8.18131 2.22217 12.1719 8.62842ZM15.4517-7.6875 19.2353-8.00781C19.5156-6.16601 20.1663-4.78133 21.1873-3.85376 22.2082-2.92619 23.4394-2.4624 24.8809-2.4624 26.6159-2.4624 28.084-3.11637 29.2852-4.42432 30.4863-5.73226 31.0869-7.46728 31.0869-9.62939 31.0869-11.6847 30.5097-13.3063 29.3552-14.4941 28.2008-15.682 26.6893-16.2759 24.8208-16.2759 23.6597-16.2759 22.612-16.0123 21.6777-15.4851 20.7435-14.9579 20.0094-14.2739 19.4756-13.4331L16.0923-13.8735 18.9351-28.9482 33.5293-28.9482 33.5293-25.5049 21.8179-25.5049 20.2363-17.6172C21.998-18.8451 23.8465-19.459 25.7817-19.459 28.3442-19.459 30.5063-18.5714 32.2681-16.7964 34.0298-15.0213 34.9106-12.7391 34.9106-9.94971 34.9106-7.29378 34.1366-4.99821 32.5884-3.06299 30.7065-0.687337 28.1374 0.500488 24.8809 0.500488 22.2116 0.500488 20.0328-0.246908 18.3445-1.7417 16.6562-3.23649 15.6919-5.21842 15.4517-7.6875ZM40.3102 0 40.3102-4.104 44.4142-4.104 44.4142 0C44.4142 1.50814 44.1473 2.72599 43.6134 3.65356 43.0796 4.58114 42.2321 5.2985 41.071 5.80566L40.07 4.26416C40.8307 3.9305 41.3913 3.44002 41.7516 2.79272 42.112 2.14543 42.3122 1.21452 42.3522 0ZM62.5863 0 62.5863-29.3486 66.47-29.3486 66.47-14.7944 81.0443-29.3486 86.3094-29.3486 73.9974-17.457 86.8499 0 81.7249 0 71.2747-14.8545 66.47-10.1699 66.47 0ZM103.66-2.62256C102.325-1.48812 101.04-0.687337 99.8057-0.220215 98.5712 0.246908 97.2466 0.480469 95.8319 0.480469 93.4962 0.480469 91.7012-0.0900879 90.4466-1.2312 89.192-2.37231 88.5648-3.8304 88.5648-5.60547 88.5648-6.64648 88.8017-7.59741 89.2755-8.45825 89.7493-9.31909 90.3699-10.0098 91.1373-10.5303 91.9047-11.0508 92.7689-11.4445 93.7298-11.7114 94.4372-11.8983 95.5049-12.0784 96.9329-12.252 99.8424-12.599 101.985-13.0127 103.359-13.4932 103.373-13.987 103.379-14.3006 103.379-14.4341 103.379-15.9022 103.039-16.9365 102.358-17.5371 101.437-18.3512 100.069-18.7583 98.2542-18.7583 96.5592-18.7583 95.308-18.4613 94.5006-17.8674 93.6931-17.2735 93.0959-16.2225 92.7088-14.7144L89.1854-15.1948C89.5057-16.703 90.0329-17.9208 90.7669-18.8484 91.501-19.776 92.562-20.49 93.95-20.9905 95.338-21.491 96.9463-21.7412 98.7747-21.7412 100.59-21.7412 102.065-21.5277 103.199-21.1006 104.333-20.6735 105.168-20.1363 105.701-19.489 106.235-18.8417 106.609-18.0243 106.823-17.0366 106.943-16.4227 107.003-15.3149 107.003-13.7134L107.003-8.90869C107.003-5.55876 107.079-3.44002 107.233-2.55249 107.386-1.66496 107.69-0.814128 108.144 0L104.38 0C104.007-0.747396 103.766-1.62158 103.66-2.62256ZM103.359-10.6704C102.051-10.1366 100.089-9.68278 97.4735-9.30908 95.992-9.09554 94.9443-8.8553 94.3304-8.58838 93.7165-8.32145 93.2427-7.93107 92.909-7.41724 92.5753-6.9034 92.4085-6.33284 92.4085-5.70557 92.4085-4.74463 92.7722-3.94385 93.4996-3.30322 94.227-2.6626 95.2913-2.34228 96.6927-2.34228 98.0807-2.34228 99.3153-2.64591 100.396-3.25317 101.477-3.86043 102.271-4.69124 102.779-5.7456 103.166-6.55973 103.359-7.7609 103.359-9.34912ZM112.542 8.18799 112.142 4.80469C112.93 5.01823 113.617 5.125 114.204 5.125 115.005 5.125 115.645 4.99154 116.126 4.72461 116.606 4.45768 117 4.08398 117.307 3.60352 117.534 3.24316 117.901 2.34896 118.408 0.920898 118.475 0.720703 118.582 0.427083 118.729 0.0400391L110.661-21.2607 114.544-21.2607 118.969-8.94873C119.543-7.38721 120.056-5.7456 120.51-4.02393 120.924-5.67887 121.418-7.29378 121.992-8.86865L126.536-21.2607 130.14-21.2607 122.052 0.360352C121.184 2.69596 120.51 4.3042 120.03 5.18506 119.389 6.37288 118.655 7.24373 117.828 7.79761 117 8.35148 116.013 8.62842 114.865 8.62842 114.171 8.62842 113.397 8.48161 112.542 8.18799ZM135.69 8.62842 133.107 8.62842C137.098 2.22217 139.093-4.19075 139.093-10.6104 139.093-13.1195 138.806-15.6086 138.232-18.0776 137.779-20.0796 137.145-22.0015 136.331-23.8433 135.81-25.0444 134.736-27.0464 133.107-29.8491L135.69-29.8491C138.199-26.4992 140.054-23.1359 141.255-19.7593 142.283-16.8498 142.797-13.8068 142.797-10.6304 142.797-7.02685 142.106-3.54346 140.725-0.180176 139.343 3.1831 137.665 6.1193 135.69 8.62842Z" fill="#541B27" transform="matrix(1 0 0 1 40.6584 69)"/></g></g></g><rect x="710.5" y="1492.5" width="192" height="118" stroke="#F9F9F9" stroke-width="3.4375" stroke-linejoin="round" stroke-miterlimit="10" fill="url(#fill45)"/><text fill="#541B27" font-family="Arial,Arial_MSFontService,sans-serif" font-weight="400" font-size="41" transform="matrix(1 0 0 1 733.658 1566)">(5, Kay)</text><g clip-path="url(#clip46)"><g filter="url(#fx14)" transform="translate(885 1483)"><g><rect x="17.4998" y="17.8005" width="192" height="118" stroke="#F9F9F9" stroke-width="3" stroke-linejoin="round" stroke-miterlimit="10" fill="#FF0000"/></g></g><g clip-path="url(#clip47)" filter="url(#fx15)" transform="translate(883 1506)"><g><path d="M9.58935 8.62842C7.60075 6.1193 5.91911 3.1831 4.54443-0.180176 3.16976-3.54346 2.48242-7.02685 2.48242-10.6304 2.48242-13.8068 2.99626-16.8498 4.02393-19.7593 5.2251-23.1359 7.08024-26.4992 9.58935-29.8491L12.1719-29.8491C10.557-27.0731 9.48926-25.0911 8.96875-23.9033 8.15462-22.0615 7.514-20.1396 7.04687-18.1377 6.47298-15.6419 6.18603-13.1328 6.18603-10.6104 6.18603-4.19075 8.18131 2.22217 12.1719 8.62842ZM15.6919-25.5049 15.6919-28.9683 34.6904-28.9683 34.6904-26.1655C32.8219-24.1769 30.9701-21.5343 29.135-18.2378 27.2999-14.9412 25.8818-11.5513 24.8809-8.06787 24.1602-5.61214 23.6997-2.92285 23.4995 0L19.7959 0C19.8359-2.30892 20.2897-5.09831 21.1572-8.36816 22.0247-11.638 23.2693-14.7911 24.8909-17.8274 26.5124-20.8637 28.2375-23.4228 30.0659-25.5049ZM40.3102 0 40.3102-4.104 44.4142-4.104 44.4142 0C44.4142 1.50814 44.1473 2.72599 43.6134 3.65356 43.0796 4.58114 42.2321 5.2985 41.071 5.80566L40.07 4.26416C40.8307 3.9305 41.3913 3.44002 41.7516 2.79272 42.112 2.14543 42.3122 1.21452 42.3522 0ZM62.7464 0 62.7464-29.3486 72.8563-29.3486C75.1385-29.3486 76.8802-29.2085 78.0814-28.9282 79.763-28.5412 81.1977-27.8405 82.3856-26.8262 83.9337-25.5182 85.0915-23.8466 85.859-21.8113 86.6264-19.776 87.0101-17.4504 87.0101-14.8345 87.0101-12.6056 86.7498-10.6304 86.2293-8.90869 85.7088-7.18701 85.0415-5.76229 84.2274-4.63452 83.4132-3.50675 82.5224-2.61922 81.5548-1.97192 80.5872-1.32463 79.4193-0.834147 78.0513-0.500488 76.6833-0.166829 75.1118 0 73.3367 0ZM66.6302-3.46338 72.8963-3.46338C74.8315-3.46338 76.3497-3.64355 77.4508-4.00391 78.5518-4.36426 79.4294-4.87142 80.0833-5.52539 81.0042-6.44629 81.7216-7.68416 82.2354-9.23901 82.7493-10.7939 83.0062-12.679 83.0062-14.8945 83.0062-17.9642 82.5023-20.3232 81.4947-21.9714 80.4871-23.6197 79.2625-24.7241 77.8211-25.2847 76.7801-25.6851 75.1051-25.8853 72.7962-25.8853L66.6302-25.8853ZM105.951-2.62256C104.617-1.48812 103.332-0.687337 102.097-0.220215 100.863 0.246908 99.5382 0.480469 98.1235 0.480469 95.7879 0.480469 93.9928-0.0900879 92.7383-1.2312 91.4837-2.37231 90.8564-3.8304 90.8564-5.60547 90.8564-6.64648 91.0933-7.59741 91.5671-8.45825 92.0409-9.31909 92.6615-10.0098 93.4289-10.5303 94.1964-11.0508 95.0605-11.4445 96.0215-11.7114 96.7288-11.8983 97.7965-12.0784 99.2246-12.252 102.134-12.599 104.276-13.0127 105.651-13.4932 105.664-13.987 105.671-14.3006 105.671-14.4341 105.671-15.9022 105.331-16.9365 104.65-17.5371 103.729-18.3512 102.361-18.7583 100.546-18.7583 98.8509-18.7583 97.5997-18.4613 96.7922-17.8674 95.9848-17.2735 95.3875-16.2225 95.0005-14.7144L91.477-15.1948C91.7973-16.703 92.3245-17.9208 93.0586-18.8484 93.7926-19.776 94.8537-20.49 96.2417-20.9905 97.6297-21.491 99.2379-21.7412 101.066-21.7412 102.882-21.7412 104.356-21.5277 105.491-21.1006 106.625-20.6735 107.459-20.1363 107.993-19.489 108.527-18.8417 108.901-18.0243 109.114-17.0366 109.234-16.4227 109.294-15.3149 109.294-13.7134L109.294-8.90869C109.294-5.55876 109.371-3.44002 109.525-2.55249 109.678-1.66496 109.982-0.814128 110.436 0L106.672 0C106.298-0.747396 106.058-1.62158 105.951-2.62256ZM105.651-10.6704C104.343-10.1366 102.381-9.68278 99.7651-9.30908 98.2837-9.09554 97.236-8.8553 96.6221-8.58838 96.0081-8.32145 95.5343-7.93107 95.2007-7.41724 94.867-6.9034 94.7002-6.33284 94.7002-5.70557 94.7002-4.74463 95.0639-3.94385 95.7913-3.30322 96.5186-2.6626 97.583-2.34228 98.9844-2.34228 100.372-2.34228 101.607-2.64591 102.688-3.25317 103.769-3.86043 104.563-4.69124 105.07-5.7456 105.457-6.55973 105.651-7.7609 105.651-9.34912ZM114.994 0 114.994-21.2607 118.237-21.2607 118.237-18.2378C119.799-20.5734 122.055-21.7412 125.004-21.7412 126.285-21.7412 127.463-21.511 128.538-21.0505 129.612-20.5901 130.416-19.9862 130.95-19.2388 131.484-18.4914 131.857-17.6038 132.071-16.5762 132.204-15.9089 132.271-14.741 132.271-13.0728L132.271 0 128.668 0 128.668-12.9326C128.668-14.4007 128.527-15.4985 128.247-16.2258 127.967-16.9532 127.47-17.5338 126.756-17.9675 126.042-18.4013 125.204-18.6182 124.243-18.6182 122.708-18.6182 121.384-18.131 120.269-17.1567 119.155-16.1825 118.598-14.334 118.598-11.6113L118.598 0ZM140.273 8.62842 137.691 8.62842C141.681 2.22217 143.677-4.19075 143.677-10.6104 143.677-13.1195 143.39-15.6086 142.816-18.0776 142.362-20.0796 141.728-22.0015 140.914-23.8433 140.393-25.0444 139.319-27.0464 137.691-29.8491L140.273-29.8491C142.782-26.4992 144.638-23.1359 145.839-19.7593 146.866-16.8498 147.38-13.8068 147.38-10.6304 147.38-7.02685 146.69-3.54346 145.308-0.180176 143.927 3.1831 142.249 6.1193 140.273 8.62842Z" fill="#541B27" transform="matrix(1 0 0 1 40.8007 69)"/></g></g></g><rect x="902.5" y="1492.5" width="192" height="118" stroke="#F9F9F9" stroke-width="3.4375" stroke-linejoin="round" stroke-miterlimit="10" fill="url(#fill48)"/><text fill="#541B27" font-family="Arial,Arial_MSFontService,sans-serif" font-weight="400" font-size="41" transform="matrix(1 0 0 1 923.801 1566)">(7, Dan)</text><g clip-path="url(#clip49)"><g filter="url(#fx16)" transform="translate(1222 1485)"><g><rect x="17.5001" y="17.8007" width="192" height="118" stroke="#F9F9F9" stroke-width="3" stroke-linejoin="round" stroke-miterlimit="10" fill="#FF0000"/></g></g><g clip-path="url(#clip50)" filter="url(#fx17)" transform="translate(1211 1508)"><g><path d="M9.58935 8.62842C7.60075 6.1193 5.91911 3.1831 4.54443-0.180176 3.16976-3.54346 2.48242-7.02685 2.48242-10.6304 2.48242-13.8068 2.99626-16.8498 4.02393-19.7593 5.2251-23.1359 7.08024-26.4992 9.58935-29.8491L12.1719-29.8491C10.557-27.0731 9.48926-25.0911 8.96875-23.9033 8.15462-22.0615 7.514-20.1396 7.04687-18.1377 6.47298-15.6419 6.18603-13.1328 6.18603-10.6104 6.18603-4.19075 8.18131 2.22217 12.1719 8.62842ZM34.3901-3.46338 34.3901 0 14.9912 0C14.9645-0.867513 15.1047-1.70166 15.4116-2.50244 15.9054-3.82373 16.6962-5.125 17.7839-6.40625 18.8717-7.6875 20.4432-9.16894 22.4985-10.8506 25.6883-13.4665 27.8437-15.5385 28.9648-17.0666 30.0859-18.5948 30.6465-20.0395 30.6465-21.4009 30.6465-22.8289 30.136-24.0334 29.115-25.0144 28.094-25.9954 26.7627-26.4858 25.1211-26.4858 23.3861-26.4858 21.998-25.9653 20.957-24.9243 19.916-23.8833 19.3888-22.4419 19.3755-20.6001L15.6719-20.9805C15.9255-23.7432 16.8797-25.8485 18.5347-27.2966 20.1896-28.7447 22.4118-29.4687 25.2012-29.4687 28.0172-29.4687 30.2461-28.688 31.8877-27.1265 33.5293-25.5649 34.3501-23.6297 34.3501-21.3208 34.3501-20.1463 34.1099-18.9919 33.6294-17.8574 33.1489-16.723 32.3515-15.5285 31.2371-14.2739 30.1226-13.0194 28.2708-11.2977 25.6816-9.10889 23.5195-7.29378 22.1315-6.06258 21.5176-5.41528 20.9036-4.76798 20.3965-4.11735 19.9961-3.46338ZM38.3683-14.4741C38.3683-17.9442 38.7253-20.7369 39.4394-22.8523 40.1534-24.9677 41.2144-26.5993 42.6225-27.7471 44.0305-28.8949 45.8022-29.4687 47.9377-29.4687 49.5125-29.4687 50.8939-29.1518 52.0817-28.5178 53.2695-27.8839 54.2505-26.9696 55.0246-25.7751 55.7987-24.5806 56.4059-23.1259 56.8464-21.4109 57.2868-19.6959 57.507-17.3836 57.507-14.4741 57.507-11.0308 57.1533-8.25138 56.446-6.13599 55.7386-4.02059 54.6809-2.38566 53.2729-1.2312 51.8648-0.0767416 50.0864 0.500488 47.9377 0.500488 45.1082 0.500488 42.8861-0.513835 41.2712-2.54248 39.3359-4.98486 38.3683-8.96208 38.3683-14.4741ZM42.0719-14.4741C42.0719-9.65609 42.6358-6.44963 43.7636-4.85474 44.8914-3.25985 46.2827-2.4624 47.9377-2.4624 49.5926-2.4624 50.984-3.26318 52.1117-4.86475 53.2395-6.46631 53.8034-9.66943 53.8034-14.4741 53.8034-19.3055 53.2395-22.5153 52.1117-24.1035 50.984-25.6917 49.5793-26.4858 47.8976-26.4858 46.2427-26.4858 44.9214-25.7852 43.9338-24.3838 42.6925-22.5954 42.0719-19.2922 42.0719-14.4741ZM63.2269 0 63.2269-4.104 67.3309-4.104 67.3309 0C67.3309 1.50814 67.064 2.72599 66.5301 3.65356 65.9962 4.58114 65.1488 5.2985 63.9876 5.80566L62.9866 4.26416C63.7474 3.9305 64.3079 3.44002 64.6683 2.79272 65.0286 2.14543 65.2288 1.21452 65.2689 0ZM93.1304 0 93.1304-25.8853 83.4609-25.8853 83.4609-29.3486 106.724-29.3486 106.724-25.8853 97.0142-25.8853 97.0142 0ZM110.431-25.2046 110.431-29.3486 114.035-29.3486 114.035-25.2046ZM110.431 0 110.431-21.2607 114.035-21.2607 114.035 0ZM119.578 0 119.578-21.2607 122.801-21.2607 122.801-18.2778C123.468-19.3188 124.356-20.1563 125.463-20.7903 126.571-21.4242 127.832-21.7412 129.247-21.7412 130.822-21.7412 132.113-21.4142 133.121-20.7603 134.128-20.1063 134.839-19.1921 135.253-18.0176 136.935-20.5 139.123-21.7412 141.819-21.7412 143.928-21.7412 145.55-21.1573 146.684-19.9895 147.819-18.8217 148.386-17.0233 148.386-14.5942L148.386 0 144.802 0 144.802-13.3931C144.802-14.8345 144.685-15.8721 144.452-16.5061 144.218-17.1401 143.795-17.6506 143.181-18.0376 142.567-18.4246 141.846-18.6182 141.019-18.6182 139.524-18.6182 138.283-18.121 137.295-17.1267 136.307-16.1324 135.813-14.5409 135.813-12.352L135.813 0 132.21 0 132.21-13.8135C132.21-15.415 131.916-16.6162 131.329-17.417 130.742-18.2178 129.781-18.6182 128.446-18.6182 127.432-18.6182 126.494-18.3512 125.634-17.8174 124.773-17.2835 124.149-16.5028 123.762-15.4751 123.375-14.4474 123.181-12.966 123.181-11.0308L123.181 0ZM156.315 8.62842 153.732 8.62842C157.723 2.22217 159.718-4.19075 159.718-10.6104 159.718-13.1195 159.431-15.6086 158.857-18.0776 158.404-20.0796 157.77-22.0015 156.956-23.8433 156.435-25.0444 155.361-27.0464 153.732-29.8491L156.315-29.8491C158.824-26.4992 160.679-23.1359 161.88-19.7593 162.908-16.8498 163.422-13.8068 163.422-10.6304 163.422-7.02685 162.731-3.54346 161.35-0.180176 159.968 3.1831 158.29 6.1193 156.315 8.62842Z" fill="#541B27" transform="matrix(1 0 0 1 41.4934 68)"/></g></g></g><rect x="1239.5" y="1494.5" width="192" height="118" stroke="#F9F9F9" stroke-width="3.4375" stroke-linejoin="round" stroke-miterlimit="10" fill="url(#fill51)"/><text fill="#541B27" font-family="Arial,Arial_MSFontService,sans-serif" font-weight="400" font-size="41" transform="matrix(1 0 0 1 1252.49 1568)">(20, Tim)</text><g clip-path="url(#clip52)"><g filter="url(#fx18)" transform="translate(1413 1485)"><g><rect x="17.4999" y="17.8007" width="192" height="118" stroke="#F9F9F9" stroke-width="3" stroke-linejoin="round" stroke-miterlimit="10" fill="#FF0000"/></g></g></g><rect x="1430.5" y="1494.5" width="192" height="118" stroke="#F9F9F9" stroke-width="3.4375" stroke-linejoin="round" stroke-miterlimit="10" fill="url(#fill53)"/><path d="M2.17182-0.731378 67.9084 194.473 63.5648 195.936-2.17182 0.731378ZM77.3048 186.473 73.0504 216.923 51.2429 195.249Z" transform="matrix(-1 0 0 1 350.55 1288.5)"/><path d="M505.823 1277.63 789.01 1477.75 786.365 1481.49 503.178 1281.37ZM791.879 1465.75 806.402 1492.85 776.009 1488.2Z"/><path d="M1.96549-1.17838 119.126 194.241 115.195 196.598-1.96549 1.17838ZM126.597 184.418 128.944 215.074 103.011 198.559Z" transform="matrix(-1 0 0 1 1464.44 1279.5)"/><path d="M1620.01 1277.77 1847.53 1476.06 1844.51 1479.52 1616.99 1281.23ZM1851.6 1464.41 1863.3 1492.85 1833.53 1485.14Z"/><path d="M0.768981-2.1588 472.613 165.916 471.076 170.234-0.768981 2.1588ZM472.141 153.584 493.432 175.765 462.913 179.49Z" transform="matrix(-1 0 0 1 843.932 1031.5)"/><path d="M998.205 1029.32 1520.08 1198.04 1518.67 1202.4 996.795 1033.68ZM1519.25 1185.72 1541.18 1207.26 1510.79 1211.89Z"/><g filter="url(#fx19)" transform="translate(449 1417)"><g><path d="M16.0141 85.938 16.2581 82.8708C16.2762 82.6434 16.3117 82.4169 16.3641 82.1949L17.0859 79.1337 18.4553 75.4881 20.3187 71.9536 22.6333 68.5333 25.365 65.2221 28.4875 62.012 31.9801 58.8959 39.9137 52.996 49.2518 47.3477 59.7706 42.0582 71.3596 37.1498 83.9064 32.655 97.2964 28.6126 111.413 25.0648 126.139 22.0559 141.355 19.6319 156.942 17.8396 172.78 16.7266 188.75 16.3414 204.721 16.6963 220.557 17.7397 236.138 19.4255 251.344 21.7077 266.058 24.5415 280.157 27.8824 293.525 31.6873 306.044 35.914 317.596 40.5227 328.068 45.4769 337.348 50.7464C337.642 50.9138 337.916 51.1138 338.165 51.3427L347.785 60.1787 341.697 66.8071 332.077 57.9711 332.895 58.5674 324.213 53.6095 314.257 48.8802 303.161 44.4399 291.059 40.3427 278.08 36.6394 264.353 33.3786 250.007 30.6077 235.167 28.373 219.962 26.7201 204.518 25.694 188.964 25.3388 173.408 25.7047 157.967 26.781 142.768 28.5202 127.938 30.8743 113.604 33.7941 99.894 37.2296 86.9371 41.1294 74.8633 45.4397 63.8047 50.1034 53.8954 55.0572 45.2715 60.2275 37.956 65.6256 34.9184 68.3083 32.2814 70.9809 30.055 73.6243 28.244 76.2186 26.8448 78.7465 25.8457 81.1993 25.1238 84.2606 25.2297 83.5846 24.9857 86.6518ZM353.782 52.1643 357.214 82.7181 330.712 67.1313Z" fill="#C00000"/></g></g><path d="M464.931 1495.71 465.175 1492.65C465.193 1492.41 465.23 1492.18 465.283 1491.96L466.005 1488.9 467.378 1485.24 469.245 1481.7 471.565 1478.27 474.301 1474.95 477.428 1471.74 480.925 1468.62 488.864 1462.71 498.209 1457.06 508.733 1451.77 520.327 1446.86 532.878 1442.36 546.272 1438.31 560.393 1434.77 575.122 1431.76 590.342 1429.33 605.932 1427.54 621.774 1426.43 637.748 1426.04 653.723 1426.4 669.562 1427.44 685.147 1429.12 700.357 1431.41 715.073 1434.24 729.177 1437.58 742.548 1441.39 755.07 1445.62 766.627 1450.23 777.103 1455.18 786.389 1460.46C786.688 1460.63 786.968 1460.83 787.222 1461.06L796.842 1469.9 790.641 1476.65 781.021 1467.81 781.853 1468.42 773.177 1463.47 763.226 1458.74 752.134 1454.3 740.036 1450.2 727.061 1446.5 713.337 1443.24 698.994 1440.47 684.158 1438.24 668.957 1436.59 653.517 1435.56 637.966 1435.2 622.414 1435.57 606.977 1436.65 591.781 1438.38 576.955 1440.74 562.624 1443.66 548.918 1447.09 535.965 1450.99 523.896 1455.3 512.842 1459.96 502.938 1464.91 494.321 1470.08 487.011 1475.47 483.978 1478.15 481.345 1480.82 479.124 1483.45 477.317 1486.04 475.922 1488.56 474.927 1491 474.205 1494.06 474.313 1493.37 474.069 1496.44ZM802.782 1461.95 806.214 1492.5 779.712 1476.91Z" fill="#C00000"/><g filter="url(#fx20)" transform="translate(978 1417)"><g><path d="M0.37745 4.48414-2.52186 4.72819-1.81009 4.61024-4.70373 5.3321-4.08274 5.12827-6.96505 6.31254-9.31419 7.69211-11.7403 9.48638-14.2231 11.7001-16.7405 14.3287-19.2719 17.3613-24.3724 24.6742-29.2609 33.3002-33.9465 43.2151-38.3581 54.2811-42.4354 66.363-46.1244 79.3285-49.3741 93.0473-52.1361 107.391-54.3629 122.23-56.0083 137.44-57.0266 152.891-57.3729 168.458-57.0081 184.016-55.9536 199.454-54.2552 214.654-51.959 229.488-49.1118 243.83-45.7613 257.553-41.9561 270.527-37.7463 282.625-33.1839 293.717-28.3247 303.669-23.2304 312.348-23.8274 311.548-14.4614 321.563-21.0348 327.71-30.4009 317.695C-30.629 317.451-30.8293 317.182-30.9979 316.894L-36.4155 307.611-41.5092 297.136-46.2476 285.58-50.5933 273.057-54.5051 259.685-57.94 245.58-60.8534 230.863-63.1998 215.651-64.9329 200.065-66.0057 184.224-66.3706 168.256-66.007 152.297-64.9558 136.469-63.2629 120.893-60.9733 105.686-58.1311 90.9699-54.7799 76.8621-50.9614 63.4807-46.7157 50.942-42.0792 39.3604-37.0822 28.8473-31.7443 19.5113-26.1653 11.5751-23.2153 8.07747-20.172 4.94653-17.0262 2.20222-13.767-0.129194-10.3855-2.01216-7.50317-3.19644C-7.30138-3.27934-7.09384-3.34747-6.88217-3.40027L-3.98853-4.12214C-3.75476-4.18046-3.51684-4.21989-3.27676-4.24009L-0.37745-4.48414ZM-14.3967 310.535 1.72759 336.714-28.8899 333.906Z" fill="#C00000" transform="matrix(1.83697e-16 1 1 -1.83697e-16 20.4999 82.7181)"/></g></g><path d="M0.38444 4.56718-2.51487 4.81123-1.78992 4.69109-4.68356 5.41296-4.05107 5.20535-6.93338 6.38962-9.27296 7.76453-11.6913 9.55383-14.168 11.7626-16.6806 14.3866-19.2081 17.4149-24.3042 24.722-29.1885 33.3414-33.8712 43.2508-38.2807 54.312-42.3565 66.3897-46.0442 79.3513-49.2931 93.0665-52.0543 107.406-54.2805 122.243-55.9254 137.449-56.9434 152.897-57.2896 168.46-56.9248 184.014-55.8705 199.449-54.1724 214.645-51.8766 229.476-49.03 243.814-45.6803 257.533-41.8762 270.504-37.6676 282.598-33.1068 293.685-28.2498 303.633-23.1584 312.306-23.7666 311.491-14.4006 321.506-21.0957 327.767-30.4617 317.752C-30.6941 317.503-30.8981 317.23-31.0699 316.936L-36.4904 307.648-41.5863 297.167-46.3263 285.607-50.6732 273.081-54.5861 259.705-58.0217 245.597-60.9358 230.876-63.2826 215.66-65.016 200.071-66.089 184.226-66.4539 168.254-66.0901 152.292-65.0387 136.46-63.3453 120.88-61.0551 105.671-58.2122 90.9507-54.86 76.8393-51.0404 63.4541-46.7931 50.9111-42.1545 39.3247-37.1546 28.806-31.8126 19.4635-26.2291 11.5215-23.2752 8.01959-20.2271 4.884-17.0752 2.13478-13.8082-0.201613-10.4171-2.08924-7.53484-3.27352C-7.32932-3.35796-7.11793-3.42735-6.90234-3.48113L-4.0087-4.203C-3.7706-4.26239-3.52828-4.30255-3.28375-4.32313L-0.38444-4.56718ZM-14.3967 310.535 1.72759 336.714-28.8899 333.906Z" fill="#C00000" transform="matrix(1.83697e-16 1 1 -1.83697e-16 998.5 1492.5)"/><g filter="url(#fx21)" transform="translate(1506 1417)"><g><path d="M16.0151 84.0783 16.2592 81.098C16.2783 80.8641 16.3158 80.6321 16.3711 80.404L17.093 77.4296C17.1433 77.2222 17.2083 77.0188 17.2875 76.8206L18.4718 73.8579 20.345 70.4025 22.6682 67.0655 25.4064 63.8397 28.5333 60.7158 32.0286 57.6856 39.9638 51.9517 49.3009 46.4641 59.8169 41.326 71.4022 36.5584 83.9449 32.1926 97.3305 28.2662 111.443 24.8202 126.164 21.8977 141.374 19.5432 156.956 17.8024 172.789 16.7215 188.753 16.3474 204.721 16.7023 220.557 17.7457 236.138 19.4313 251.344 21.7133 266.057 24.5467 280.157 27.8874 293.525 31.6918 306.043 35.9181 317.596 40.5263 328.068 45.4801 337.348 50.749C337.642 50.9164 337.916 51.1164 338.165 51.3453L347.784 60.1794 341.696 66.808 332.077 57.9739 332.895 58.5702 324.213 53.6128 314.257 48.884 303.161 44.4441 291.059 40.3473 278.08 36.6443 264.353 33.3839 250.007 30.6133 235.167 28.3788 219.963 26.7261 204.519 25.7 188.961 25.345 173.4 25.7007 157.953 26.747 142.749 28.4377 127.914 30.7259 113.575 33.564 99.8603 36.9033 86.8991 40.6939 74.8212 44.8837 63.7589 49.4168 53.8468 54.2317 45.222 59.2559 37.908 64.4997 34.8731 67.1039 32.2405 69.696 30.0206 72.256 28.2181 74.7631 26.8289 77.1983 25.6446 80.1611 25.8391 79.5522 25.1172 82.5266 25.2292 81.8326 24.9851 84.8128ZM353.78 52.1644 357.214 82.718 330.71 67.1332Z" fill="#C00000"/></g></g><path d="M1521.93 1493.85 1522.18 1490.87C1522.2 1490.64 1522.23 1490.4 1522.29 1490.17L1523.01 1487.19C1523.06 1486.98 1523.13 1486.77 1523.21 1486.57L1524.39 1483.61 1526.27 1480.14 1528.6 1476.8 1531.34 1473.57 1534.47 1470.44 1537.97 1467.4 1545.92 1461.67 1555.26 1456.17 1565.78 1451.03 1577.37 1446.26 1589.92 1441.9 1603.31 1437.97 1617.42 1434.52 1632.15 1431.6 1647.36 1429.24 1662.95 1427.5 1678.78 1426.42 1694.75 1426.05 1710.72 1426.4 1726.56 1427.44 1742.15 1429.13 1757.36 1431.41 1772.07 1434.25 1786.18 1437.59 1799.55 1441.39 1812.07 1445.62 1823.63 1450.23 1834.1 1455.19 1843.39 1460.46C1843.69 1460.63 1843.97 1460.83 1844.22 1461.07L1853.84 1469.9 1847.64 1476.65 1838.02 1467.82 1838.85 1468.42 1830.18 1463.47 1820.23 1458.74 1809.13 1454.31 1797.04 1450.21 1784.06 1446.51 1770.34 1443.25 1755.99 1440.48 1741.16 1438.24 1725.96 1436.59 1710.52 1435.57 1694.96 1435.21 1679.41 1435.57 1663.96 1436.61 1648.76 1438.3 1633.93 1440.59 1619.59 1443.43 1605.88 1446.77 1592.93 1450.55 1580.85 1454.74 1569.8 1459.27 1559.89 1464.09 1551.27 1469.11 1543.96 1474.34 1540.93 1476.95 1538.3 1479.53 1536.09 1482.09 1534.29 1484.59 1532.91 1487.01 1531.72 1489.97 1531.92 1489.35 1531.2 1492.33 1531.31 1491.62 1531.07 1494.6ZM1859.78 1461.95 1863.21 1492.5 1836.71 1476.92Z" fill="#C00000"/><g clip-path="url(#clip54)" filter="url(#fx22)" transform="translate(426 1578)"><g><path d="M384.7 40.0749 384.456 43.1421C384.438 43.3695 384.402 43.596 384.35 43.818L383.628 46.8792 382.258 50.5248 380.395 54.0594 378.081 57.4796 375.349 60.7909 372.226 64.0009 368.734 67.117 360.8 73.017 351.462 78.6653 340.943 83.9548 329.354 88.8632 316.807 93.3579 303.417 97.4003 289.301 100.948 274.575 103.957 259.359 106.381 243.772 108.173 227.934 109.286 211.964 109.672 195.993 109.317 180.157 108.273 164.576 106.587 149.369 104.305 134.656 101.471 120.556 98.1305 107.188 94.3257 94.6702 90.099 83.118 85.4903 72.6461 80.536 63.366 75.2666C63.072 75.0991 62.7978 74.8991 62.5486 74.6702L52.9284 65.8343 59.0164 59.2059 68.6367 68.0418 67.8192 67.4455 76.5012 72.4035 86.4573 77.1327 97.5527 81.5731 109.655 85.6703 122.634 89.3736 136.361 92.6343 150.707 95.4052 165.547 97.6399 180.751 99.2928 196.195 100.319 211.75 100.674 227.306 100.308 242.747 99.232 257.946 97.4927 272.776 95.1386 287.11 92.2188 300.82 88.7833 313.777 84.8836 325.85 80.5732 336.909 75.9095 346.818 70.9557 355.442 65.7855 362.758 60.3874 365.795 57.7047 368.432 55.032 370.659 52.3887 372.47 49.7944 373.869 47.2665 374.868 44.8136 375.59 41.7524 375.484 42.4283 375.728 39.3611ZM46.9318 73.8486 43.4999 43.2948 70.002 58.8816Z" fill="#C00000"/></g></g><path d="M810.783 1610.86 810.539 1613.93C810.52 1614.16 810.484 1614.39 810.431 1614.62L809.709 1617.68 808.336 1621.34 806.469 1624.88 804.149 1628.31 801.413 1631.63 798.286 1634.84 794.789 1637.96 786.85 1643.87 777.505 1649.52 766.981 1654.81 755.387 1659.72 742.835 1664.22 729.441 1668.26 715.321 1671.81 700.592 1674.82 685.372 1677.25 669.782 1679.04 653.94 1680.15 637.966 1680.54 621.991 1680.18 606.152 1679.14 590.567 1677.45 575.357 1675.17 560.641 1672.34 546.537 1668.99 533.166 1665.19 520.643 1660.96 509.087 1656.35 498.61 1651.39 489.325 1646.12C489.025 1645.95 488.746 1645.75 488.492 1645.51L478.872 1636.68 485.073 1629.93 494.693 1638.76 493.86 1638.16 502.537 1643.11 512.488 1647.84 523.579 1652.28 535.678 1656.37 548.653 1660.07 562.376 1663.33 576.72 1666.1 591.556 1668.34 606.757 1669.99 622.197 1671.02 637.748 1671.37 653.3 1671.01 668.737 1669.93 683.933 1668.19 698.759 1665.84 713.09 1662.92 726.796 1659.49 739.749 1655.59 751.818 1651.28 762.872 1646.62 772.775 1641.67 781.393 1636.5 788.702 1631.11 791.736 1628.43 794.368 1625.76 796.59 1623.12 798.396 1620.54 799.791 1618.02 800.787 1615.58 801.509 1612.52 801.401 1613.2 801.645 1610.14ZM472.932 1644.63 469.5 1614.08 496.002 1629.66Z" fill="#C00000"/><g clip-path="url(#clip55)" filter="url(#fx23)" transform="translate(955 1574)"><g><path d="M0.37745 4.48414-2.52186 4.72819-1.81009 4.61024-4.70373 5.3321-4.08274 5.12827-6.96505 6.31254-9.31419 7.69211-11.7403 9.48638-14.2231 11.7001-16.7405 14.3287-19.2719 17.3613-24.3724 24.6742-29.2609 33.3002-33.9465 43.2151-38.3581 54.2811-42.4354 66.363-46.1244 79.3285-49.3741 93.0473-52.1361 107.391-54.3629 122.23-56.0083 137.44-57.0266 152.891-57.3729 168.458-57.0081 184.016-55.9536 199.454-54.2552 214.654-51.959 229.488-49.1118 243.83-45.7613 257.553-41.9561 270.527-37.7463 282.625-33.1839 293.717-28.3247 303.669-23.2304 312.348-23.8274 311.548-14.4614 321.563-21.0348 327.71-30.4009 317.695C-30.629 317.451-30.8293 317.182-30.9979 316.894L-36.4155 307.611-41.5092 297.136-46.2476 285.58-50.5933 273.057-54.5051 259.685-57.94 245.58-60.8534 230.863-63.1998 215.651-64.9329 200.065-66.0057 184.224-66.3706 168.256-66.007 152.297-64.9558 136.469-63.2629 120.893-60.9733 105.686-58.1311 90.9699-54.7799 76.8621-50.9614 63.4807-46.7157 50.942-42.0792 39.3604-37.0822 28.8473-31.7443 19.5113-26.1653 11.5751-23.2153 8.07747-20.172 4.94653-17.0262 2.20222-13.767-0.129194-10.3855-2.01216-7.50317-3.19644C-7.30138-3.27934-7.09384-3.34747-6.88217-3.40027L-3.98853-4.12214C-3.75476-4.18046-3.51684-4.21989-3.27676-4.24009L-0.37745-4.48414ZM-14.3967 310.535 1.72759 336.714-28.8899 333.906Z" fill="#C00000" transform="matrix(-6.12323e-17 -1 -1 6.12323e-17 380.214 45.4456)"/></g></g><path d="M0.38444 4.56718-2.51487 4.81123-1.78992 4.69109-4.68356 5.41296-4.05107 5.20535-6.93338 6.38962-9.27296 7.76453-11.6913 9.55383-14.168 11.7626-16.6806 14.3866-19.2081 17.4149-24.3042 24.722-29.1885 33.3414-33.8712 43.2508-38.2807 54.312-42.3565 66.3897-46.0442 79.3513-49.2931 93.0665-52.0543 107.406-54.2805 122.243-55.9254 137.449-56.9434 152.897-57.2896 168.46-56.9248 184.014-55.8705 199.449-54.1724 214.645-51.8766 229.476-49.03 243.814-45.6803 257.533-41.8762 270.504-37.6676 282.598-33.1068 293.685-28.2498 303.633-23.1584 312.306-23.7666 311.491-14.4006 321.506-21.0957 327.767-30.4617 317.752C-30.6941 317.503-30.8981 317.23-31.0699 316.936L-36.4904 307.648-41.5863 297.167-46.3263 285.607-50.6732 273.081-54.5861 259.705-58.0217 245.597-60.9358 230.876-63.2826 215.66-65.016 200.071-66.089 184.226-66.4539 168.254-66.0901 152.292-65.0387 136.46-63.3453 120.88-61.0551 105.671-58.2122 90.9507-54.86 76.8393-51.0404 63.4541-46.7931 50.9111-42.1545 39.3247-37.1546 28.806-31.8126 19.4635-26.2291 11.5215-23.2752 8.01959-20.2271 4.884-17.0752 2.13478-13.8082-0.201613-10.4171-2.08924-7.53484-3.27352C-7.32932-3.35796-7.11793-3.42735-6.90234-3.48113L-4.0087-4.203C-3.7706-4.26239-3.52828-4.30255-3.28375-4.32313L-0.38444-4.56718ZM-14.3967 310.535 1.72759 336.714-28.8899 333.906Z" fill="#C00000" transform="matrix(-6.12323e-17 -1 -1 6.12323e-17 1335.21 1612.23)"/><g clip-path="url(#clip56)" filter="url(#fx24)" transform="translate(1483 1576)"><g><path d="M384.699 42.085 384.455 45.0653C384.436 45.2992 384.398 45.5312 384.343 45.7593L383.621 48.7338C383.571 48.9411 383.506 49.1445 383.426 49.3427L382.242 52.3055 380.369 55.7608 378.046 59.0978 375.307 62.3236 372.181 65.4475 368.685 68.4777 360.75 74.2116 351.413 79.6993 340.897 84.8373 329.312 89.605 316.769 93.9707 303.383 97.8971 289.271 101.343 274.55 104.266 259.339 106.62 243.758 108.361 227.925 109.442 211.961 109.816 195.993 109.461 180.157 108.418 164.576 106.732 149.369 104.45 134.656 101.617 120.557 98.276 107.189 94.4715 94.6704 90.2453 83.1183 85.637 72.6464 80.6833 63.3663 75.4144C63.0723 75.247 62.798 75.0469 62.5489 74.818L52.9301 65.984 59.0179 59.3554 68.6367 68.1894 67.8192 67.5931 76.5012 72.5506 86.4573 77.2794 97.5527 81.7193 109.655 85.8161 122.634 89.519 136.361 92.7794 150.707 95.55 165.546 97.7845 180.751 99.4372 196.195 100.463 211.753 100.818 227.314 100.463 242.761 99.4163 257.965 97.7256 272.8 95.4374 287.139 92.5993 300.854 89.26 313.815 85.4694 325.893 81.2797 336.955 76.7465 346.867 71.9317 355.492 66.9074 362.806 61.6636 365.841 59.0594 368.473 56.4673 370.693 53.9073 372.496 51.4003 373.885 48.965 375.069 46.0022 374.875 46.6111 375.597 43.6367 375.485 44.3308 375.729 41.3505ZM46.9342 73.9989 43.5001 43.4454 70.0034 59.0302Z" fill="#C00000"/></g></g><path d="M1867.78 1610.87 1867.54 1613.85C1867.52 1614.09 1867.48 1614.33 1867.42 1614.56L1866.7 1617.54C1866.65 1617.75 1866.58 1617.95 1866.5 1618.16L1865.32 1621.12 1863.44 1624.58 1861.11 1627.93 1858.37 1631.16 1855.24 1634.29 1851.74 1637.32 1843.8 1643.06 1834.46 1648.55 1823.93 1653.69 1812.34 1658.46 1799.8 1662.83 1786.41 1666.76 1772.29 1670.21 1757.57 1673.13 1742.35 1675.48 1726.77 1677.23 1710.93 1678.31 1694.96 1678.68 1678.99 1678.33 1663.15 1677.28 1647.57 1675.6 1632.36 1673.31 1617.64 1670.48 1603.54 1667.14 1590.17 1663.33 1577.64 1659.11 1566.09 1654.5 1555.61 1649.54 1546.33 1644.27C1546.03 1644.1 1545.75 1643.89 1545.49 1643.66L1535.87 1634.83 1542.07 1628.08 1551.69 1636.91 1550.86 1636.3 1559.54 1641.26 1569.49 1645.98 1580.58 1650.42 1592.68 1654.52 1605.65 1658.22 1619.38 1661.48 1633.72 1664.25 1648.56 1666.48 1663.76 1668.14 1679.2 1669.16 1694.75 1669.52 1710.31 1669.16 1725.75 1668.12 1740.95 1666.43 1755.78 1664.14 1770.12 1661.3 1783.83 1657.96 1796.79 1654.17 1808.86 1649.98 1819.92 1645.45 1829.83 1640.64 1838.44 1635.62 1845.75 1630.38 1848.78 1627.78 1851.41 1625.2 1853.63 1622.64 1855.42 1620.14 1856.81 1617.72 1857.99 1614.75 1857.79 1615.37 1858.52 1612.4 1858.4 1613.11 1858.65 1610.13ZM1529.93 1642.78 1526.5 1612.23 1553 1627.81Z" fill="#C00000"/><text fill="#541B27" font-family="Arial,Arial_MSFontService,sans-serif" font-weight="400" font-size="62" transform="matrix(1 0 0 1 869.186 913)">Root Node</text><g clip-path="url(#clip57)"><g filter="url(#fx25)" transform="translate(1750 1483)"><g><rect x="17.5001" y="17.8005" width="192" height="118" stroke="#F9F9F9" stroke-width="3" stroke-linejoin="round" stroke-miterlimit="10" fill="#FF0000"/></g></g><g clip-path="url(#clip58)" filter="url(#fx26)" transform="translate(1750 1506)"><g><path d="M9.58935 8.62842C7.60075 6.1193 5.91911 3.1831 4.54443-0.180176 3.16976-3.54346 2.48242-7.02685 2.48242-10.6304 2.48242-13.8068 2.99626-16.8498 4.02393-19.7593 5.2251-23.1359 7.08024-26.4992 9.58935-29.8491L12.1719-29.8491C10.557-27.0731 9.48926-25.0911 8.96875-23.9033 8.15462-22.0615 7.514-20.1396 7.04687-18.1377 6.47298-15.6419 6.18603-13.1328 6.18603-10.6104 6.18603-4.19075 8.18131 2.22217 12.1719 8.62842ZM34.3901-3.46338 34.3901 0 14.9912 0C14.9645-0.867513 15.1047-1.70166 15.4116-2.50244 15.9054-3.82373 16.6962-5.125 17.7839-6.40625 18.8717-7.6875 20.4432-9.16894 22.4985-10.8506 25.6883-13.4665 27.8437-15.5385 28.9648-17.0666 30.0859-18.5948 30.6465-20.0395 30.6465-21.4009 30.6465-22.8289 30.136-24.0334 29.115-25.0144 28.094-25.9954 26.7627-26.4858 25.1211-26.4858 23.3861-26.4858 21.998-25.9653 20.957-24.9243 19.916-23.8833 19.3888-22.4419 19.3755-20.6001L15.6719-20.9805C15.9255-23.7432 16.8797-25.8485 18.5347-27.2966 20.1896-28.7447 22.4118-29.4687 25.2012-29.4687 28.0172-29.4687 30.2461-28.688 31.8877-27.1265 33.5293-25.5649 34.3501-23.6297 34.3501-21.3208 34.3501-20.1463 34.1099-18.9919 33.6294-17.8574 33.1489-16.723 32.3515-15.5285 31.2371-14.2739 30.1226-13.0194 28.2708-11.2977 25.6816-9.10889 23.5195-7.29378 22.1315-6.06258 21.5176-5.41528 20.9036-4.76798 20.3965-4.11735 19.9961-3.46338ZM49.9196 0 49.9196-7.02685 37.1872-7.02685 37.1872-10.3301 50.5802-29.3486 53.5231-29.3486 53.5231-10.3301 57.487-10.3301 57.487-7.02685 53.5231-7.02685 53.5231 0ZM49.9196-10.3301 49.9196-23.563 40.7306-10.3301ZM63.2269 0 63.2269-4.104 67.3309-4.104 67.3309 0C67.3309 1.50814 67.064 2.72599 66.5301 3.65356 65.9962 4.58114 65.1488 5.2985 63.9876 5.80566L62.9866 4.26416C63.7474 3.9305 64.3079 3.44002 64.6683 2.79272 65.0286 2.14543 65.2288 1.21452 65.2689 0ZM85.5029 0 85.5029-29.3486 89.3867-29.3486 89.3867-14.7944 103.961-29.3486 109.226-29.3486 96.9141-17.457 109.767 0 104.642 0 94.1914-14.8545 89.3867-10.1699 89.3867 0ZM112.723-25.2046 112.723-29.3486 116.326-29.3486 116.326-25.2046ZM112.723 0 112.723-21.2607 116.326-21.2607 116.326 0ZM129.737-3.22314 130.257-0.0400391C129.243 0.173503 128.336 0.280273 127.535 0.280273 126.227 0.280273 125.213 0.0734049 124.492-0.340332 123.771-0.754069 123.264-1.29793 122.97-1.97192 122.677-2.64591 122.53-4.06396 122.53-6.22607L122.53-18.458 119.887-18.458 119.887-21.2607 122.53-21.2607 122.53-26.5259 126.113-28.688 126.113-21.2607 129.737-21.2607 129.737-18.458 126.113-18.458 126.113-6.02588C126.113-4.99821 126.177-4.33756 126.304-4.04394 126.43-3.75033 126.637-3.51676 126.924-3.34326 127.211-3.16976 127.622-3.08301 128.155-3.08301 128.556-3.08301 129.083-3.12972 129.737-3.22314ZM135.69 8.62842 133.107 8.62842C137.098 2.22217 139.093-4.19075 139.093-10.6104 139.093-13.1195 138.806-15.6086 138.232-18.0776 137.779-20.0796 137.145-22.0015 136.331-23.8433 135.81-25.0444 134.736-27.0464 133.107-29.8491L135.69-29.8491C138.199-26.4992 140.054-23.1359 141.255-19.7593 142.283-16.8498 142.797-13.8068 142.797-10.6304 142.797-7.02685 142.106-3.54346 140.725-0.180176 139.344 3.1831 137.665 6.1193 135.69 8.62842Z" fill="#541B27" transform="matrix(1 0 0 1 40.7416 69)"/></g></g></g><rect x="1767.5" y="1492.5" width="192" height="118" stroke="#F9F9F9" stroke-width="3.4375" stroke-linejoin="round" stroke-miterlimit="10" fill="url(#fill59)"/><text fill="#541B27" font-family="Arial,Arial_MSFontService,sans-serif" font-weight="400" font-size="41" transform="matrix(1 0 0 1 1790.74 1566)">(24, Kit)</text><g clip-path="url(#clip60)"><g filter="url(#fx27)" transform="translate(1941 1483)"><g><rect x="17.4999" y="17.8005" width="192" height="118" stroke="#F9F9F9" stroke-width="3" stroke-linejoin="round" stroke-miterlimit="10" fill="#FF0000"/></g></g></g><rect x="1958.5" y="1492.5" width="192" height="118" stroke="#F9F9F9" stroke-width="3.4375" stroke-linejoin="round" stroke-miterlimit="10" fill="url(#fill61)"/><text fill="#541B27" font-family="Arial,Arial_MSFontService,sans-serif" font-weight="400" font-size="62" transform="matrix(1 0 0 1 1876.07 1443)">Data Entries</text><text fill="#541B27" font-family="Arial,Arial_MSFontService,sans-serif" font-weight="400" font-size="62" transform="matrix(1 0 0 1 1436.28 1156)">Interior Nodes</text></g></svg>