<svg width="1117" height="878" xmlns="http://www.w3.org/2000/svg" xmlns:xlink="http://www.w3.org/1999/xlink" xml:space="preserve" overflow="hidden"><defs><filter id="fx0" x="-10%" y="-10%" width="120%" height="120%" filterUnits="userSpaceOnUse" primitiveUnits="userSpaceOnUse"><feComponentTransfer color-interpolation-filters="sRGB"><feFuncR type="discrete" tableValues="0 0"/><feFuncG type="discrete" tableValues="0 0"/><feFuncB type="discrete" tableValues="0 0"/><feFuncA type="linear" slope="0.380392" intercept="0"/></feComponentTransfer><feGaussianBlur stdDeviation="4.8119 4.8119"/></filter><filter id="fx1" x="-10%" y="-10%" width="120%" height="120%" filterUnits="userSpaceOnUse" primitiveUnits="userSpaceOnUse"><feComponentTransfer color-interpolation-filters="sRGB"><feFuncR type="discrete" tableValues="0 0"/><feFuncG type="discrete" tableValues="0 0"/><feFuncB type="discrete" tableValues="0 0"/><feFuncA type="linear" slope="0.380392" intercept="0"/></feComponentTransfer><feGaussianBlur stdDeviation="4.8119 4.8119"/></filter><filter id="fx2" x="-10%" y="-10%" width="120%" height="120%" filterUnits="userSpaceOnUse" primitiveUnits="userSpaceOnUse"><feComponentTransfer color-interpolation-filters="sRGB"><feFuncR type="discrete" tableValues="0 0"/><feFuncG type="discrete" tableValues="0 0"/><feFuncB type="discrete" tableValues="0 0"/><feFuncA type="linear" slope="0.380392" intercept="0"/></feComponentTransfer><feGaussianBlur stdDeviation="4.8119 4.8119"/></filter><filter id="fx3" x="-10%" y="-10%" width="120%" height="120%" filterUnits="userSpaceOnUse" primitiveUnits="userSpaceOnUse"><feComponentTransfer color-interpolation-filters="sRGB"><feFuncR type="discrete" tableValues="0 0"/><feFuncG type="discrete" tableValues="0 0"/><feFuncB type="discrete" tableValues="0 0"/><feFuncA type="linear" slope="0.380392" intercept="0"/></feComponentTransfer><feGaussianBlur stdDeviation="4.8119 4.8119"/></filter><filter id="fx4" x="-10%" y="-10%" width="120%" height="120%" filterUnits="userSpaceOnUse" primitiveUnits="userSpaceOnUse"><feComponentTransfer color-interpolation-filters="sRGB"><feFuncR type="discrete" tableValues="0 0"/><feFuncG type="discrete" tableValues="0 0"/><feFuncB type="discrete" tableValues="0 0"/><feFuncA type="linear" slope="0.380392" intercept="0"/></feComponentTransfer><feGaussianBlur stdDeviation="4.8119 4.8119"/></filter><filter id="fx5" x="-10%" y="-10%" width="120%" height="120%" filterUnits="userSpaceOnUse" primitiveUnits="userSpaceOnUse"><feComponentTransfer color-interpolation-filters="sRGB"><feFuncR type="discrete" tableValues="0 0"/><feFuncG type="discrete" tableValues="0 0"/><feFuncB type="discrete" tableValues="0 0"/><feFuncA type="linear" slope="0.380392" intercept="0"/></feComponentTransfer><feGaussianBlur stdDeviation="4.8119 4.8119"/></filter><filter id="fx6" x="-10%" y="-10%" width="120%" height="120%" filterUnits="userSpaceOnUse" primitiveUnits="userSpaceOnUse"><feComponentTransfer color-interpolation-filters="sRGB"><feFuncR type="discrete" tableValues="0 0"/><feFuncG type="discrete" tableValues="0 0"/><feFuncB type="discrete" tableValues="0 0"/><feFuncA type="linear" slope="0.380392" intercept="0"/></feComponentTransfer><feGaussianBlur stdDeviation="4.8119 4.8119"/></filter><filter id="fx7" x="-10%" y="-10%" width="120%" height="120%" filterUnits="userSpaceOnUse" primitiveUnits="userSpaceOnUse"><feComponentTransfer color-interpolation-filters="sRGB"><feFuncR type="discrete" tableValues="0 0"/><feFuncG type="discrete" tableValues="0 0"/><feFuncB type="discrete" tableValues="0 0"/><feFuncA type="linear" slope="0.380392" intercept="0"/></feComponentTransfer><feGaussianBlur stdDeviation="4.8119 4.8119"/></filter><filter id="fx8" x="-10%" y="-10%" width="120%" height="120%" filterUnits="userSpaceOnUse" primitiveUnits="userSpaceOnUse"><feComponentTransfer color-interpolation-filters="sRGB"><feFuncR type="discrete" tableValues="0 0"/><feFuncG type="discrete" tableValues="0 0"/><feFuncB type="discrete" tableValues="0 0"/><feFuncA type="linear" slope="0.380392" intercept="0"/></feComponentTransfer><feGaussianBlur stdDeviation="4.8119 4.8119"/></filter><filter id="fx9" x="-10%" y="-10%" width="120%" height="120%" filterUnits="userSpaceOnUse" primitiveUnits="userSpaceOnUse"><feComponentTransfer color-interpolation-filters="sRGB"><feFuncR type="discrete" tableValues="0 0"/><feFuncG type="discrete" tableValues="0 0"/><feFuncB type="discrete" tableValues="0 0"/><feFuncA type="linear" slope="0.380392" intercept="0"/></feComponentTransfer><feGaussianBlur stdDeviation="4.8119 4.8119"/></filter><filter id="fx10" x="-10%" y="-10%" width="120%" height="120%" filterUnits="userSpaceOnUse" primitiveUnits="userSpaceOnUse"><feComponentTransfer color-interpolation-filters="sRGB"><feFuncR type="discrete" tableValues="0 0"/><feFuncG type="discrete" tableValues="0 0"/><feFuncB type="discrete" tableValues="0 0"/><feFuncA type="linear" slope="0.380392" intercept="0"/></feComponentTransfer><feGaussianBlur stdDeviation="4.8119 4.8119"/></filter><filter id="fx11" x="-10%" y="-10%" width="120%" height="120%" filterUnits="userSpaceOnUse" primitiveUnits="userSpaceOnUse"><feComponentTransfer color-interpolation-filters="sRGB"><feFuncR type="discrete" tableValues="0 0"/><feFuncG type="discrete" tableValues="0 0"/><feFuncB type="discrete" tableValues="0 0"/><feFuncA type="linear" slope="0.380392" intercept="0"/></feComponentTransfer><feGaussianBlur stdDeviation="4.8119 4.8119"/></filter><filter id="fx12" x="-10%" y="-10%" width="120%" height="120%" filterUnits="userSpaceOnUse" primitiveUnits="userSpaceOnUse"><feComponentTransfer color-interpolation-filters="sRGB"><feFuncR type="discrete" tableValues="0 0"/><feFuncG type="discrete" tableValues="0 0"/><feFuncB type="discrete" tableValues="0 0"/><feFuncA type="linear" slope="0.380392" intercept="0"/></feComponentTransfer><feGaussianBlur stdDeviation="4.8119 4.8119"/></filter><filter id="fx13" x="-10%" y="-10%" width="120%" height="120%" filterUnits="userSpaceOnUse" primitiveUnits="userSpaceOnUse"><feComponentTransfer color-interpolation-filters="sRGB"><feFuncR type="discrete" tableValues="0 0"/><feFuncG type="discrete" tableValues="0 0"/><feFuncB type="discrete" tableValues="0 0"/><feFuncA type="linear" slope="0.380392" intercept="0"/></feComponentTransfer><feGaussianBlur stdDeviation="4.8119 4.8119"/></filter><filter id="fx14" x="-10%" y="-10%" width="120%" height="120%" filterUnits="userSpaceOnUse" primitiveUnits="userSpaceOnUse"><feComponentTransfer color-interpolation-filters="sRGB"><feFuncR type="discrete" tableValues="0 0"/><feFuncG type="discrete" tableValues="0 0"/><feFuncB type="discrete" tableValues="0 0"/><feFuncA type="linear" slope="0.380392" intercept="0"/></feComponentTransfer><feGaussianBlur stdDeviation="4.8119 4.8119"/></filter><filter id="fx15" x="-10%" y="-10%" width="120%" height="120%" filterUnits="userSpaceOnUse" primitiveUnits="userSpaceOnUse"><feComponentTransfer color-interpolation-filters="sRGB"><feFuncR type="discrete" tableValues="0 0"/><feFuncG type="discrete" tableValues="0 0"/><feFuncB type="discrete" tableValues="0 0"/><feFuncA type="linear" slope="0.380392" intercept="0"/></feComponentTransfer><feGaussianBlur stdDeviation="4.8119 4.8119"/></filter><filter id="fx16" x="-10%" y="-10%" width="120%" height="120%" filterUnits="userSpaceOnUse" primitiveUnits="userSpaceOnUse"><feComponentTransfer color-interpolation-filters="sRGB"><feFuncR type="discrete" tableValues="0 0"/><feFuncG type="discrete" tableValues="0 0"/><feFuncB type="discrete" tableValues="0 0"/><feFuncA type="linear" slope="0.380392" intercept="0"/></feComponentTransfer><feGaussianBlur stdDeviation="4.8119 4.8119"/></filter><filter id="fx17" x="-10%" y="-10%" width="120%" height="120%" filterUnits="userSpaceOnUse" primitiveUnits="userSpaceOnUse"><feComponentTransfer color-interpolation-filters="sRGB"><feFuncR type="discrete" tableValues="0 0"/><feFuncG type="discrete" tableValues="0 0"/><feFuncB type="discrete" tableValues="0 0"/><feFuncA type="linear" slope="0.380392" intercept="0"/></feComponentTransfer><feGaussianBlur stdDeviation="4.8119 4.8119"/></filter><filter id="fx18" x="-10%" y="-10%" width="120%" height="120%" filterUnits="userSpaceOnUse" primitiveUnits="userSpaceOnUse"><feComponentTransfer color-interpolation-filters="sRGB"><feFuncR type="discrete" tableValues="0 0"/><feFuncG type="discrete" tableValues="0 0"/><feFuncB type="discrete" tableValues="0 0"/><feFuncA type="linear" slope="0.380392" intercept="0"/></feComponentTransfer><feGaussianBlur stdDeviation="4.8119 4.8119"/></filter><filter id="fx19" x="-10%" y="-10%" width="120%" height="120%" filterUnits="userSpaceOnUse" primitiveUnits="userSpaceOnUse"><feComponentTransfer color-interpolation-filters="sRGB"><feFuncR type="discrete" tableValues="0 0"/><feFuncG type="discrete" tableValues="0 0"/><feFuncB type="discrete" tableValues="0 0"/><feFuncA type="linear" slope="0.380392" intercept="0"/></feComponentTransfer><feGaussianBlur stdDeviation="4.8119 4.8119"/></filter><filter id="fx20" x="-10%" y="-10%" width="120%" height="120%" filterUnits="userSpaceOnUse" primitiveUnits="userSpaceOnUse"><feComponentTransfer color-interpolation-filters="sRGB"><feFuncR type="discrete" tableValues="0 0"/><feFuncG type="discrete" tableValues="0 0"/><feFuncB type="discrete" tableValues="0 0"/><feFuncA type="linear" slope="0.380392" intercept="0"/></feComponentTransfer><feGaussianBlur stdDeviation="4.8119 4.8119"/></filter><filter id="fx21" x="-10%" y="-10%" width="120%" height="120%" filterUnits="userSpaceOnUse" primitiveUnits="userSpaceOnUse"><feComponentTransfer color-interpolation-filters="sRGB"><feFuncR type="discrete" tableValues="0 0"/><feFuncG type="discrete" tableValues="0 0"/><feFuncB type="discrete" tableValues="0 0"/><feFuncA type="linear" slope="0.380392" intercept="0"/></feComponentTransfer><feGaussianBlur stdDeviation="4.8119 4.8119"/></filter><filter id="fx22" x="-10%" y="-10%" width="120%" height="120%" filterUnits="userSpaceOnUse" primitiveUnits="userSpaceOnUse"><feComponentTransfer color-interpolation-filters="sRGB"><feFuncR type="discrete" tableValues="0 0"/><feFuncG type="discrete" tableValues="0 0"/><feFuncB type="discrete" tableValues="0 0"/><feFuncA type="linear" slope="0.380392" intercept="0"/></feComponentTransfer><feGaussianBlur stdDeviation="4.8119 4.8119"/></filter><filter id="fx23" x="-10%" y="-10%" width="120%" height="120%" filterUnits="userSpaceOnUse" primitiveUnits="userSpaceOnUse"><feComponentTransfer color-interpolation-filters="sRGB"><feFuncR type="discrete" tableValues="0 0"/><feFuncG type="discrete" tableValues="0 0"/><feFuncB type="discrete" tableValues="0 0"/><feFuncA type="linear" slope="0.380392" intercept="0"/></feComponentTransfer><feGaussianBlur stdDeviation="4.8119 4.8119"/></filter><clipPath id="clip24"><path d="M2278 435 2278 478 2543 478 2543 435ZM2047 323 3164 323 3164 1201 2047 1201Z" fill-rule="evenodd" clip-rule="evenodd"/></clipPath><clipPath id="clip25"><path d="M2278 481 2278 524 2543 524 2543 481ZM2047 323 3164 323 3164 1201 2047 1201Z" fill-rule="evenodd" clip-rule="evenodd"/></clipPath><clipPath id="clip26"><path d="M2278 528 2278 571 2543 571 2543 528ZM2047 323 3164 323 3164 1201 2047 1201Z" fill-rule="evenodd" clip-rule="evenodd"/></clipPath><clipPath id="clip27"><path d="M2278 574 2278 617 2543 617 2543 574ZM2047 323 3164 323 3164 1201 2047 1201Z" fill-rule="evenodd" clip-rule="evenodd"/></clipPath><clipPath id="clip28"><path d="M2278 662 2278 705 2543 705 2543 662ZM2047 323 3164 323 3164 1201 2047 1201Z" fill-rule="evenodd" clip-rule="evenodd"/></clipPath><clipPath id="clip29"><path d="M2278 708 2278 751 2543 751 2543 708ZM2047 323 3164 323 3164 1201 2047 1201Z" fill-rule="evenodd" clip-rule="evenodd"/></clipPath><clipPath id="clip30"><path d="M2278 755 2278 798 2543 798 2543 755ZM2047 323 3164 323 3164 1201 2047 1201Z" fill-rule="evenodd" clip-rule="evenodd"/></clipPath><clipPath id="clip31"><path d="M2278 801 2278 844 2543 844 2543 801ZM2047 323 3164 323 3164 1201 2047 1201Z" fill-rule="evenodd" clip-rule="evenodd"/></clipPath><clipPath id="clip32"><path d="M2278 889 2278 932 2543 932 2543 889ZM2047 323 3164 323 3164 1201 2047 1201Z" fill-rule="evenodd" clip-rule="evenodd"/></clipPath><clipPath id="clip33"><path d="M2278 935 2278 978 2543 978 2543 935ZM2047 323 3164 323 3164 1201 2047 1201Z" fill-rule="evenodd" clip-rule="evenodd"/></clipPath><clipPath id="clip34"><path d="M2278 981 2278 1024 2543 1024 2543 981ZM2047 323 3164 323 3164 1201 2047 1201Z" fill-rule="evenodd" clip-rule="evenodd"/></clipPath><clipPath id="clip35"><path d="M2278 1028 2278 1071 2543 1071 2543 1028ZM2047 323 3164 323 3164 1201 2047 1201Z" fill-rule="evenodd" clip-rule="evenodd"/></clipPath><clipPath id="clip36"><path d="M2874 435 2874 617 3139 617 3139 435ZM2047 323 3164 323 3164 1201 2047 1201Z" fill-rule="evenodd" clip-rule="evenodd"/></clipPath><clipPath id="clip37"><rect x="37" y="31" width="221" height="170"/></clipPath><clipPath id="clip38"><path d="M2876 699 2876 881 3141 881 3141 699ZM2047 323 3164 323 3164 1201 2047 1201Z" fill-rule="evenodd" clip-rule="evenodd"/></clipPath><clipPath id="clip39"><rect x="37" y="31" width="230" height="170"/></clipPath><clipPath id="clip40"><path d="M2876 971 2876 1153 3141 1153 3141 971ZM2047 323 3164 323 3164 1201 2047 1201Z" fill-rule="evenodd" clip-rule="evenodd"/></clipPath><clipPath id="clip41"><rect x="37" y="28" width="239" height="173"/></clipPath></defs><g transform="translate(-2047 -323)"><g clip-path="url(#clip24)"><g filter="url(#fx0)" transform="translate(2255 419)"><g><rect x="23" y="23.2177" width="265" height="43.0003" stroke="#FFFFFF" stroke-width="14" stroke-linejoin="round" stroke-miterlimit="10" fill="#95A5A6"/></g></g></g><rect x="2278" y="435" width="265" height="43.0003" stroke="#FFFFFF" stroke-width="13.75" stroke-linejoin="round" stroke-miterlimit="10" fill="#95A5A6"/><g clip-path="url(#clip25)"><g filter="url(#fx1)" transform="translate(2255 465)"><g><rect x="23" y="23.2177" width="265" height="43" stroke="#FFFFFF" stroke-width="14" stroke-linejoin="round" stroke-miterlimit="10" fill="#95A5A6"/></g></g></g><rect x="2278" y="481" width="265" height="43" stroke="#FFFFFF" stroke-width="13.75" stroke-linejoin="round" stroke-miterlimit="10" fill="#95A5A6"/><g clip-path="url(#clip26)"><g filter="url(#fx2)" transform="translate(2255 512)"><g><rect x="23" y="23.2178" width="265" height="43" stroke="#FFFFFF" stroke-width="14" stroke-linejoin="round" stroke-miterlimit="10" fill="#95A5A6"/></g></g></g><rect x="2278" y="528" width="265" height="42.9999" stroke="#FFFFFF" stroke-width="13.75" stroke-linejoin="round" stroke-miterlimit="10" fill="#95A5A6"/><g clip-path="url(#clip27)"><g filter="url(#fx3)" transform="translate(2255 558)"><g><rect x="23" y="23.2179" width="265" height="43" stroke="#FFFFFF" stroke-width="14" stroke-linejoin="round" stroke-miterlimit="10" fill="#95A5A6"/></g></g></g><rect x="2278" y="574" width="265" height="42.9999" stroke="#FFFFFF" stroke-width="13.75" stroke-linejoin="round" stroke-miterlimit="10" fill="#95A5A6"/><g filter="url(#fx4)" transform="translate(2337 424)"><g><path d="M22.9998 16.218 23.0001 202.218" stroke="#FFFFFF" stroke-width="14" stroke-linejoin="round" stroke-miterlimit="10" fill="#95A5A6" fill-rule="evenodd"/></g></g><path d="M2360 433 2360 619" stroke="#FFFFFF" stroke-width="13.75" stroke-linejoin="round" stroke-miterlimit="10" fill="#95A5A6" fill-rule="evenodd"/><g filter="url(#fx5)" transform="translate(2438 424)"><g><path d="M23 16.218 23.0004 202.218" stroke="#FFFFFF" stroke-width="14" stroke-linejoin="round" stroke-miterlimit="10" fill="#95A5A6" fill-rule="evenodd"/></g></g><path d="M2461 433 2461 619" stroke="#FFFFFF" stroke-width="13.75" stroke-linejoin="round" stroke-miterlimit="10" fill="#95A5A6" fill-rule="evenodd"/><g clip-path="url(#clip28)"><g filter="url(#fx6)" transform="translate(2255 646)"><g><rect x="23" y="23.2179" width="265" height="43" stroke="#FFFFFF" stroke-width="14" stroke-linejoin="round" stroke-miterlimit="10" fill="#95A5A6"/></g></g></g><rect x="2278" y="662" width="265" height="42.9999" stroke="#FFFFFF" stroke-width="13.75" stroke-linejoin="round" stroke-miterlimit="10" fill="#95A5A6"/><g clip-path="url(#clip29)"><g filter="url(#fx7)" transform="translate(2255 692)"><g><rect x="23" y="23.218" width="265" height="43" stroke="#FFFFFF" stroke-width="14" stroke-linejoin="round" stroke-miterlimit="10" fill="#95A5A6"/></g></g></g><rect x="2278" y="708" width="265" height="42.9999" stroke="#FFFFFF" stroke-width="13.75" stroke-linejoin="round" stroke-miterlimit="10" fill="#95A5A6"/><g clip-path="url(#clip30)"><g filter="url(#fx8)" transform="translate(2255 739)"><g><rect x="23" y="23.2177" width="265" height="43" stroke="#FFFFFF" stroke-width="14" stroke-linejoin="round" stroke-miterlimit="10" fill="#95A5A6"/></g></g></g><rect x="2278" y="755" width="265" height="42.9999" stroke="#FFFFFF" stroke-width="13.75" stroke-linejoin="round" stroke-miterlimit="10" fill="#95A5A6"/><g clip-path="url(#clip31)"><g filter="url(#fx9)" transform="translate(2255 785)"><g><rect x="23" y="23.2178" width="265" height="43" stroke="#FFFFFF" stroke-width="14" stroke-linejoin="round" stroke-miterlimit="10" fill="#95A5A6"/></g></g></g><rect x="2278" y="801" width="265" height="42.9999" stroke="#FFFFFF" stroke-width="13.75" stroke-linejoin="round" stroke-miterlimit="10" fill="#95A5A6"/><g filter="url(#fx10)" transform="translate(2337 651)"><g><path d="M22.9998 16.2178 23.0001 202.218" stroke="#FFFFFF" stroke-width="14" stroke-linejoin="round" stroke-miterlimit="10" fill="#95A5A6" fill-rule="evenodd"/></g></g><path d="M2360 660 2360 846" stroke="#FFFFFF" stroke-width="13.75" stroke-linejoin="round" stroke-miterlimit="10" fill="#95A5A6" fill-rule="evenodd"/><g filter="url(#fx11)" transform="translate(2438 651)"><g><path d="M23 16.2178 23.0004 202.218" stroke="#FFFFFF" stroke-width="14" stroke-linejoin="round" stroke-miterlimit="10" fill="#95A5A6" fill-rule="evenodd"/></g></g><path d="M2461 660 2461 846" stroke="#FFFFFF" stroke-width="13.75" stroke-linejoin="round" stroke-miterlimit="10" fill="#95A5A6" fill-rule="evenodd"/><g clip-path="url(#clip32)"><g filter="url(#fx12)" transform="translate(2255 873)"><g><rect x="23" y="23.2178" width="265" height="43" stroke="#FFFFFF" stroke-width="14" stroke-linejoin="round" stroke-miterlimit="10" fill="#95A5A6"/></g></g></g><rect x="2278" y="889" width="265" height="42.9999" stroke="#FFFFFF" stroke-width="13.75" stroke-linejoin="round" stroke-miterlimit="10" fill="#95A5A6"/><g clip-path="url(#clip33)"><g filter="url(#fx13)" transform="translate(2255 919)"><g><rect x="23" y="23.2178" width="265" height="43" stroke="#FFFFFF" stroke-width="14" stroke-linejoin="round" stroke-miterlimit="10" fill="#95A5A6"/></g></g></g><rect x="2278" y="935" width="265" height="42.9999" stroke="#FFFFFF" stroke-width="13.75" stroke-linejoin="round" stroke-miterlimit="10" fill="#95A5A6"/><g clip-path="url(#clip34)"><g filter="url(#fx14)" transform="translate(2255 965)"><g><rect x="23" y="23.2179" width="265" height="43" stroke="#FFFFFF" stroke-width="14" stroke-linejoin="round" stroke-miterlimit="10" fill="#95A5A6"/></g></g></g><rect x="2278" y="981" width="265" height="42.9999" stroke="#FFFFFF" stroke-width="13.75" stroke-linejoin="round" stroke-miterlimit="10" fill="#95A5A6"/><g clip-path="url(#clip35)"><g filter="url(#fx15)" transform="translate(2255 1012)"><g><rect x="23" y="23.218" width="265" height="43" stroke="#FFFFFF" stroke-width="14" stroke-linejoin="round" stroke-miterlimit="10" fill="#95A5A6"/></g></g></g><rect x="2278" y="1028" width="265" height="43" stroke="#FFFFFF" stroke-width="13.75" stroke-linejoin="round" stroke-miterlimit="10" fill="#95A5A6"/><g filter="url(#fx16)" transform="translate(2337 878)"><g><path d="M22.9998 16.2177 23.0001 202.218" stroke="#FFFFFF" stroke-width="14" stroke-linejoin="round" stroke-miterlimit="10" fill="#95A5A6" fill-rule="evenodd"/></g></g><path d="M2360 887 2360 1073" stroke="#FFFFFF" stroke-width="13.75" stroke-linejoin="round" stroke-miterlimit="10" fill="#95A5A6" fill-rule="evenodd"/><g filter="url(#fx17)" transform="translate(2438 878)"><g><path d="M23 16.2177 23.0004 202.218" stroke="#FFFFFF" stroke-width="14" stroke-linejoin="round" stroke-miterlimit="10" fill="#95A5A6" fill-rule="evenodd"/></g></g><path d="M2461 887 2461 1073" stroke="#FFFFFF" stroke-width="13.75" stroke-linejoin="round" stroke-miterlimit="10" fill="#95A5A6" fill-rule="evenodd"/><g clip-path="url(#clip36)"><g filter="url(#fx18)" transform="translate(2851 419)"><g><rect x="23" y="23.2177" width="265" height="182" stroke="#FFFFFF" stroke-width="14" stroke-linejoin="round" stroke-miterlimit="10" fill="#74B5DE"/></g></g><g clip-path="url(#clip37)" filter="url(#fx19)" transform="translate(2856 424)"><g><path d="M4.7832 0 4.7832-44.3809 20.0713-44.3809C23.5225-44.3809 26.1562-44.1689 27.9727-43.7451 30.5156-43.1598 32.6852-42.1003 34.4814-40.5664 36.8226-38.5885 38.5734-36.0607 39.7339-32.9829 40.8944-29.9051 41.4746-26.3883 41.4746-22.4326 41.4746-19.0622 41.081-16.0752 40.2939-13.4717 39.5068-10.8682 38.4977-8.7137 37.2666-7.0083 36.0355-5.3029 34.6883-3.96077 33.2251-2.98193 31.7619-2.00309 29.9959-1.26139 27.9272-0.756836 25.8586-0.252279 23.4821 0 20.7978 0ZM10.6562-5.2373 20.1318-5.2373C23.0583-5.2373 25.354-5.50976 27.019-6.05469 28.6841-6.59961 30.0111-7.36654 31-8.35547 32.3926-9.74805 33.4774-11.62 34.2544-13.9712 35.0314-16.3224 35.4199-19.1732 35.4199-22.5234 35.4199-27.1654 34.658-30.7326 33.1343-33.2251 31.6105-35.7176 29.7588-37.3877 27.5791-38.2353 26.0049-38.8408 23.472-39.1436 19.9805-39.1436L10.6562-39.1436ZM69.7539-3.96582C67.7357-2.25033 65.7931-1.03939 63.9263-0.333008 62.0594 0.373372 60.0563 0.726562 57.917 0.726562 54.3851 0.726562 51.6706-0.136231 49.7734-1.86182 47.8763-3.5874 46.9277-5.79232 46.9277-8.47656 46.9277-10.0508 47.286-11.4888 48.0024-12.7905 48.7189-14.0923 49.6574-15.1367 50.8179-15.9238 51.9783-16.7109 53.2852-17.3063 54.7383-17.71 55.8079-17.9925 57.4225-18.265 59.582-18.5273 63.9818-19.0521 67.221-19.6777 69.2998-20.4043 69.32-21.151 69.3301-21.6253 69.3301-21.8271 69.3301-24.0472 68.8154-25.6113 67.7861-26.5195 66.3935-27.7506 64.3249-28.3662 61.5801-28.3662 59.0169-28.3662 57.1248-27.9172 55.9038-27.019 54.6828-26.1209 53.7796-24.5316 53.1943-22.251L47.8662-22.9775C48.3506-25.2581 49.1478-27.0998 50.2578-28.5024 51.3678-29.9051 52.9723-30.9849 55.0713-31.7417 57.1702-32.4985 59.6022-32.8769 62.3672-32.8769 65.112-32.8769 67.3421-32.554 69.0576-31.9082 70.7731-31.2624 72.0345-30.45 72.8418-29.4712 73.6491-28.4923 74.2142-27.2562 74.5371-25.7627 74.7187-24.8343 74.8096-23.1592 74.8096-20.7373L74.8096-13.4717C74.8096-8.40592 74.9256-5.20199 75.1577-3.85986 75.3898-2.51774 75.8489-1.23112 76.5351 0L70.8437 0C70.2786-1.13021 69.9154-2.45215 69.7539-3.96582ZM69.2998-16.1357C67.3219-15.3284 64.3551-14.6423 60.3994-14.0771 58.1592-13.7542 56.5749-13.3909 55.6465-12.9873 54.7181-12.5837 54.0016-11.9933 53.4971-11.2163 52.9925-10.4393 52.7402-9.5765 52.7402-8.62793 52.7402-7.1748 53.2902-5.96387 54.3901-4.99512 55.4901-4.02637 57.0996-3.54199 59.2187-3.54199 61.3177-3.54199 63.1846-4.00114 64.8193-4.91943 66.4541-5.83773 67.6549-7.09407 68.4219-8.68848 69.0072-9.9196 69.2998-11.736 69.2998-14.1377ZM95.0469-4.87402 95.834-0.0605469C94.3001 0.26237 92.9277 0.423828 91.7168 0.423828 89.7389 0.423828 88.2051 0.111003 87.1152-0.514648 86.0254-1.1403 85.2585-1.96273 84.8144-2.98193 84.3704-4.00114 84.1484-6.14551 84.1484-9.41504L84.1484-27.9121 80.1523-27.9121 80.1523-32.1504 84.1484-32.1504 84.1484-40.1123 89.5674-43.3818 89.5674-32.1504 95.0469-32.1504 95.0469-27.9121 89.5674-27.9121 89.5674-9.1123C89.5674-7.55827 89.6632-6.55924 89.855-6.11523 90.0467-5.67122 90.3595-5.31803 90.7934-5.05566 91.2274-4.79329 91.848-4.66211 92.6553-4.66211 93.2607-4.66211 94.0579-4.73275 95.0469-4.87402ZM121.316-3.96582C119.298-2.25033 117.356-1.03939 115.489-0.333008 113.622 0.373372 111.619 0.726562 109.479 0.726562 105.948 0.726562 103.233-0.136231 101.336-1.86182 99.4388-3.5874 98.4902-5.79232 98.4902-8.47656 98.4902-10.0508 98.8485-11.4888 99.5649-12.7905 100.281-14.0923 101.22-15.1367 102.38-15.9238 103.541-16.7109 104.848-17.3063 106.301-17.71 107.37-17.9925 108.985-18.265 111.145-18.5273 115.544-19.0521 118.784-19.6777 120.862-20.4043 120.882-21.151 120.893-21.6253 120.893-21.8271 120.893-24.0472 120.378-25.6113 119.349-26.5195 117.956-27.7506 115.887-28.3662 113.143-28.3662 110.579-28.3662 108.687-27.9172 107.466-27.019 106.245-26.1209 105.342-24.5316 104.757-22.251L99.4287-22.9775C99.9131-25.2581 100.71-27.0998 101.82-28.5024 102.93-29.9051 104.535-30.9849 106.634-31.7417 108.733-32.4985 111.165-32.8769 113.93-32.8769 116.674-32.8769 118.905-32.554 120.62-31.9082 122.336-31.2624 123.597-30.45 124.404-29.4712 125.212-28.4923 125.777-27.2562 126.1-25.7627 126.281-24.8343 126.372-23.1592 126.372-20.7373L126.372-13.4717C126.372-8.40592 126.488-5.20199 126.72-3.85986 126.952-2.51774 127.411-1.23112 128.098 0L122.406 0C121.841-1.13021 121.478-2.45215 121.316-3.96582ZM120.862-16.1357C118.884-15.3284 115.918-14.6423 111.962-14.0771 109.722-13.7542 108.137-13.3909 107.209-12.9873 106.281-12.5837 105.564-11.9933 105.06-11.2163 104.555-10.4393 104.303-9.5765 104.303-8.62793 104.303-7.1748 104.853-5.96387 105.953-4.99512 107.053-4.02637 108.662-3.54199 110.781-3.54199 112.88-3.54199 114.747-4.00114 116.382-4.91943 118.017-5.83773 119.217-7.09407 119.984-8.68848 120.57-9.9196 120.862-11.736 120.862-14.1377Z" transform="matrix(1 0 0 1 52.7583 95)"/><path d="M4.7832 0 4.7832-44.3809 21.5244-44.3809C24.471-44.3809 26.7214-44.2396 28.2754-43.957 30.4551-43.5937 32.2816-42.9025 33.7549-41.8833 35.2282-40.8641 36.4139-39.4362 37.312-37.5996 38.2101-35.763 38.6592-33.7448 38.6592-31.5449 38.6592-27.7708 37.4583-24.577 35.0566-21.9634 32.6549-19.3498 28.3158-18.043 22.0391-18.043L10.6562-18.043 10.6562 0ZM10.6562-23.2803 22.1299-23.2803C25.9242-23.2803 28.6185-23.9867 30.2129-25.3994 31.8073-26.8122 32.6045-28.8001 32.6045-31.3633 32.6045-33.22 32.1353-34.8094 31.1968-36.1313 30.2583-37.4533 29.0221-38.3262 27.4883-38.75 26.4993-39.0124 24.6728-39.1436 22.0088-39.1436L10.6562-39.1436ZM66.3164-3.96582C64.2982-2.25033 62.3556-1.03939 60.4888-0.333008 58.6219 0.373372 56.6188 0.726562 54.4795 0.726562 50.9476 0.726562 48.2331-0.136231 46.3359-1.86182 44.4388-3.5874 43.4902-5.79232 43.4902-8.47656 43.4902-10.0508 43.8485-11.4888 44.5649-12.7905 45.2814-14.0923 46.2199-15.1367 47.3804-15.9238 48.5408-16.7109 49.8476-17.3063 51.3008-17.71 52.3704-17.9925 53.985-18.265 56.1445-18.5273 60.5443-19.0521 63.7835-19.6777 65.8623-20.4043 65.8825-21.151 65.8926-21.6253 65.8926-21.8271 65.8926-24.0472 65.3779-25.6113 64.3486-26.5195 62.956-27.7506 60.8874-28.3662 58.1426-28.3662 55.5794-28.3662 53.6873-27.9172 52.4663-27.019 51.2453-26.1209 50.3421-24.5316 49.7568-22.251L44.4287-22.9775C44.9131-25.2581 45.7103-27.0998 46.8203-28.5024 47.9303-29.9051 49.5348-30.9849 51.6338-31.7417 53.7327-32.4985 56.1647-32.8769 58.9297-32.8769 61.6745-32.8769 63.9046-32.554 65.6201-31.9082 67.3356-31.2624 68.597-30.45 69.4043-29.4712 70.2116-28.4923 70.7767-27.2562 71.0996-25.7627 71.2812-24.8343 71.3721-23.1592 71.3721-20.7373L71.3721-13.4717C71.3721-8.40592 71.4881-5.20199 71.7202-3.85986 71.9523-2.51774 72.4115-1.23112 73.0976 0L67.4062 0C66.8411-1.13021 66.4779-2.45215 66.3164-3.96582ZM65.8623-16.1357C63.8844-15.3284 60.9176-14.6423 56.9619-14.0771 54.7217-13.7542 53.1374-13.3909 52.209-12.9873 51.2806-12.5837 50.5641-11.9933 50.0596-11.2163 49.555-10.4393 49.3027-9.5765 49.3027-8.62793 49.3027-7.1748 49.8527-5.96387 50.9526-4.99512 52.0526-4.02637 53.6621-3.54199 55.7812-3.54199 57.8802-3.54199 59.7471-4.00114 61.3818-4.91943 63.0166-5.83773 64.2174-7.09407 64.9844-8.68848 65.5697-9.9196 65.8623-11.736 65.8623-14.1377ZM78.7129 2.66406 84.0107 3.45117C84.2327 5.08594 84.8483 6.27669 85.8574 7.02344 87.2096 8.03255 89.0563 8.53711 91.3975 8.53711 93.9202 8.53711 95.8678 8.03255 97.2402 7.02344 98.6126 6.01432 99.541 4.60156 100.025 2.78516 100.308 1.67513 100.439-0.655924 100.419-4.20801 98.0374-1.40267 95.0706 0 91.5185 0 87.0986 0 83.6777-1.5944 81.2559-4.7832 78.834-7.972 77.623-11.7965 77.623-16.2568 77.623-19.3245 78.1781-22.1551 79.2881-24.7485 80.3981-27.342 82.0076-29.345 84.1167-30.7578 86.2257-32.1706 88.7031-32.8769 91.5488-32.8769 95.3431-32.8769 98.4713-31.3431 100.934-28.2754L100.934-32.1504 105.959-32.1504 105.959-4.35937C105.959 0.645833 105.449 4.19287 104.43 6.28174 103.411 8.3706 101.796 10.0205 99.5864 11.2314 97.3764 12.4424 94.6569 13.0478 91.4277 13.0479 87.5931 13.0478 84.4951 12.1851 82.1338 10.4595 79.7725 8.73389 78.6322 6.13542 78.7129 2.66406ZM83.2236-16.6504C83.2236-12.4323 84.0612-9.35449 85.7363-7.41699 87.4114-5.47949 89.5104-4.51074 92.0332-4.51074 94.5358-4.51074 96.6348-5.47445 98.3301-7.40185 100.025-9.32926 100.873-12.3516 100.873-16.4687 100.873-20.4043 100-23.3711 98.2544-25.3691 96.5086-27.3672 94.4046-28.3662 91.9424-28.3662 89.5205-28.3662 87.4619-27.3823 85.7666-25.4145 84.0713-23.4468 83.2236-20.5254 83.2236-16.6504ZM136.096-10.3535 141.727-9.65723C140.839-6.36751 139.194-3.81445 136.792-1.99805 134.39-0.181641 131.323 0.726562 127.589 0.726562 122.886 0.726562 119.158-0.721517 116.403-3.61768 113.648-6.51383 112.27-10.5755 112.27-15.8027 112.27-21.2116 113.663-25.4095 116.448-28.3965 119.233-31.3835 122.846-32.8769 127.286-32.8769 131.585-32.8769 135.097-31.4137 137.821-28.4873 140.546-25.5609 141.908-21.4437 141.908-16.1357 141.908-15.8128 141.898-15.3284 141.878-14.6826L117.901-14.6826C118.103-11.1507 119.102-8.44629 120.898-6.56934 122.695-4.69238 124.935-3.75391 127.619-3.75391 129.617-3.75391 131.323-4.27865 132.735-5.32812 134.148-6.3776 135.268-8.05273 136.096-10.3535ZM118.204-19.1631 136.156-19.1631C135.914-21.8675 135.228-23.8958 134.098-25.248 132.362-27.347 130.112-28.3965 127.347-28.3965 124.844-28.3965 122.74-27.5589 121.035-25.8838 119.329-24.2087 118.386-21.9684 118.204-19.1631ZM184.661 0 179.212 0 179.212-34.7236C177.9-33.4723 176.18-32.221 174.05-30.9697 171.921-29.7184 170.009-28.7799 168.313-28.1543L168.313-33.4219C171.361-34.8548 174.025-36.5905 176.306-38.6289 178.586-40.6673 180.201-42.6452 181.149-44.5625L184.661-44.5625Z" transform="matrix(1 0 0 1 52.7583 169)"/></g></g></g><rect x="2874" y="435" width="265" height="182" stroke="#FFFFFF" stroke-width="13.75" stroke-linejoin="round" stroke-miterlimit="10" fill="#74B5DE"/><text font-family="Arial,Arial_MSFontService,sans-serif" font-weight="400" font-size="62" transform="matrix(1 0 0 1 2908.76 512)">Data</text><text font-family="Arial,Arial_MSFontService,sans-serif" font-weight="400" font-size="62" transform="matrix(1 0 0 1 2908.76 586)">Page 1</text><g clip-path="url(#clip38)"><g filter="url(#fx20)" transform="translate(2853 683)"><g><rect x="23.0002" y="23.2177" width="265" height="182" stroke="#FFFFFF" stroke-width="14" stroke-linejoin="round" stroke-miterlimit="10" fill="#74B5DE"/></g></g><g clip-path="url(#clip39)" filter="url(#fx21)" transform="translate(2857 688)"><g><path d="M4.7832 0 4.7832-44.3809 20.0713-44.3809C23.5225-44.3809 26.1562-44.1689 27.9727-43.7451 30.5156-43.1598 32.6852-42.1003 34.4814-40.5664 36.8226-38.5885 38.5734-36.0607 39.7339-32.9829 40.8944-29.9051 41.4746-26.3883 41.4746-22.4326 41.4746-19.0622 41.081-16.0752 40.2939-13.4717 39.5068-10.8682 38.4977-8.7137 37.2666-7.0083 36.0355-5.3029 34.6883-3.96077 33.2251-2.98193 31.7619-2.00309 29.9959-1.26139 27.9272-0.756836 25.8586-0.252279 23.4821 0 20.7978 0ZM10.6562-5.2373 20.1318-5.2373C23.0583-5.2373 25.354-5.50976 27.019-6.05469 28.6841-6.59961 30.0111-7.36654 31-8.35547 32.3926-9.74805 33.4774-11.62 34.2544-13.9712 35.0314-16.3224 35.4199-19.1732 35.4199-22.5234 35.4199-27.1654 34.658-30.7326 33.1343-33.2251 31.6105-35.7176 29.7588-37.3877 27.5791-38.2353 26.0049-38.8408 23.472-39.1436 19.9805-39.1436L10.6562-39.1436ZM69.7539-3.96582C67.7357-2.25033 65.7931-1.03939 63.9263-0.333008 62.0594 0.373372 60.0563 0.726562 57.917 0.726562 54.3851 0.726562 51.6706-0.136231 49.7734-1.86182 47.8763-3.5874 46.9277-5.79232 46.9277-8.47656 46.9277-10.0508 47.286-11.4888 48.0024-12.7905 48.7189-14.0923 49.6574-15.1367 50.8179-15.9238 51.9783-16.7109 53.2852-17.3063 54.7383-17.71 55.8079-17.9925 57.4225-18.265 59.582-18.5273 63.9818-19.0521 67.221-19.6777 69.2998-20.4043 69.32-21.151 69.3301-21.6253 69.3301-21.8271 69.3301-24.0472 68.8154-25.6113 67.7861-26.5195 66.3935-27.7506 64.3249-28.3662 61.5801-28.3662 59.0169-28.3662 57.1248-27.9172 55.9038-27.019 54.6828-26.1209 53.7796-24.5316 53.1943-22.251L47.8662-22.9775C48.3506-25.2581 49.1478-27.0998 50.2578-28.5024 51.3678-29.9051 52.9723-30.9849 55.0713-31.7417 57.1702-32.4985 59.6022-32.8769 62.3672-32.8769 65.112-32.8769 67.3421-32.554 69.0576-31.9082 70.7731-31.2624 72.0345-30.45 72.8418-29.4712 73.6491-28.4923 74.2142-27.2562 74.5371-25.7627 74.7187-24.8343 74.8096-23.1592 74.8096-20.7373L74.8096-13.4717C74.8096-8.40592 74.9256-5.20199 75.1577-3.85986 75.3898-2.51774 75.8489-1.23112 76.5351 0L70.8437 0C70.2786-1.13021 69.9154-2.45215 69.7539-3.96582ZM69.2998-16.1357C67.3219-15.3284 64.3551-14.6423 60.3994-14.0771 58.1592-13.7542 56.5749-13.3909 55.6465-12.9873 54.7181-12.5837 54.0016-11.9933 53.4971-11.2163 52.9925-10.4393 52.7402-9.5765 52.7402-8.62793 52.7402-7.1748 53.2902-5.96387 54.3901-4.99512 55.4901-4.02637 57.0996-3.54199 59.2187-3.54199 61.3177-3.54199 63.1846-4.00114 64.8193-4.91943 66.4541-5.83773 67.6549-7.09407 68.4219-8.68848 69.0072-9.9196 69.2998-11.736 69.2998-14.1377ZM95.0469-4.87402 95.834-0.0605469C94.3001 0.26237 92.9277 0.423828 91.7168 0.423828 89.7389 0.423828 88.2051 0.111003 87.1152-0.514648 86.0254-1.1403 85.2585-1.96273 84.8144-2.98193 84.3704-4.00114 84.1484-6.14551 84.1484-9.41504L84.1484-27.9121 80.1523-27.9121 80.1523-32.1504 84.1484-32.1504 84.1484-40.1123 89.5674-43.3818 89.5674-32.1504 95.0469-32.1504 95.0469-27.9121 89.5674-27.9121 89.5674-9.1123C89.5674-7.55827 89.6632-6.55924 89.855-6.11523 90.0467-5.67122 90.3595-5.31803 90.7934-5.05566 91.2274-4.79329 91.848-4.66211 92.6553-4.66211 93.2607-4.66211 94.0579-4.73275 95.0469-4.87402ZM121.316-3.96582C119.298-2.25033 117.356-1.03939 115.489-0.333008 113.622 0.373372 111.619 0.726562 109.479 0.726562 105.948 0.726562 103.233-0.136231 101.336-1.86182 99.4388-3.5874 98.4902-5.79232 98.4902-8.47656 98.4902-10.0508 98.8485-11.4888 99.5649-12.7905 100.281-14.0923 101.22-15.1367 102.38-15.9238 103.541-16.7109 104.848-17.3063 106.301-17.71 107.37-17.9925 108.985-18.265 111.145-18.5273 115.544-19.0521 118.784-19.6777 120.862-20.4043 120.882-21.151 120.893-21.6253 120.893-21.8271 120.893-24.0472 120.378-25.6113 119.349-26.5195 117.956-27.7506 115.887-28.3662 113.143-28.3662 110.579-28.3662 108.687-27.9172 107.466-27.019 106.245-26.1209 105.342-24.5316 104.757-22.251L99.4287-22.9775C99.9131-25.2581 100.71-27.0998 101.82-28.5024 102.93-29.9051 104.535-30.9849 106.634-31.7417 108.733-32.4985 111.165-32.8769 113.93-32.8769 116.674-32.8769 118.905-32.554 120.62-31.9082 122.336-31.2624 123.597-30.45 124.404-29.4712 125.212-28.4923 125.777-27.2562 126.1-25.7627 126.281-24.8343 126.372-23.1592 126.372-20.7373L126.372-13.4717C126.372-8.40592 126.488-5.20199 126.72-3.85986 126.952-2.51774 127.411-1.23112 128.098 0L122.406 0C121.841-1.13021 121.478-2.45215 121.316-3.96582ZM120.862-16.1357C118.884-15.3284 115.918-14.6423 111.962-14.0771 109.722-13.7542 108.137-13.3909 107.209-12.9873 106.281-12.5837 105.564-11.9933 105.06-11.2163 104.555-10.4393 104.303-9.5765 104.303-8.62793 104.303-7.1748 104.853-5.96387 105.953-4.99512 107.053-4.02637 108.662-3.54199 110.781-3.54199 112.88-3.54199 114.747-4.00114 116.382-4.91943 118.017-5.83773 119.217-7.09407 119.984-8.68848 120.57-9.9196 120.862-11.736 120.862-14.1377Z" transform="matrix(1 0 0 1 53.4768 95)"/><path d="M4.7832 0 4.7832-44.3809 21.5244-44.3809C24.471-44.3809 26.7214-44.2396 28.2754-43.957 30.4551-43.5937 32.2816-42.9025 33.7549-41.8833 35.2282-40.8641 36.4139-39.4362 37.312-37.5996 38.2101-35.763 38.6592-33.7448 38.6592-31.5449 38.6592-27.7708 37.4583-24.577 35.0566-21.9634 32.6549-19.3498 28.3158-18.043 22.0391-18.043L10.6562-18.043 10.6562 0ZM10.6562-23.2803 22.1299-23.2803C25.9242-23.2803 28.6185-23.9867 30.2129-25.3994 31.8073-26.8122 32.6045-28.8001 32.6045-31.3633 32.6045-33.22 32.1353-34.8094 31.1968-36.1313 30.2583-37.4533 29.0221-38.3262 27.4883-38.75 26.4993-39.0124 24.6728-39.1436 22.0088-39.1436L10.6562-39.1436ZM66.3164-3.96582C64.2982-2.25033 62.3556-1.03939 60.4888-0.333008 58.6219 0.373372 56.6188 0.726562 54.4795 0.726562 50.9476 0.726562 48.2331-0.136231 46.3359-1.86182 44.4388-3.5874 43.4902-5.79232 43.4902-8.47656 43.4902-10.0508 43.8485-11.4888 44.5649-12.7905 45.2814-14.0923 46.2199-15.1367 47.3804-15.9238 48.5408-16.7109 49.8476-17.3063 51.3008-17.71 52.3704-17.9925 53.985-18.265 56.1445-18.5273 60.5443-19.0521 63.7835-19.6777 65.8623-20.4043 65.8825-21.151 65.8926-21.6253 65.8926-21.8271 65.8926-24.0472 65.3779-25.6113 64.3486-26.5195 62.956-27.7506 60.8874-28.3662 58.1426-28.3662 55.5794-28.3662 53.6873-27.9172 52.4663-27.019 51.2453-26.1209 50.3421-24.5316 49.7568-22.251L44.4287-22.9775C44.9131-25.2581 45.7103-27.0998 46.8203-28.5024 47.9303-29.9051 49.5348-30.9849 51.6338-31.7417 53.7327-32.4985 56.1647-32.8769 58.9297-32.8769 61.6745-32.8769 63.9046-32.554 65.6201-31.9082 67.3356-31.2624 68.597-30.45 69.4043-29.4712 70.2116-28.4923 70.7767-27.2562 71.0996-25.7627 71.2812-24.8343 71.3721-23.1592 71.3721-20.7373L71.3721-13.4717C71.3721-8.40592 71.4881-5.20199 71.7202-3.85986 71.9523-2.51774 72.4115-1.23112 73.0976 0L67.4062 0C66.8411-1.13021 66.4779-2.45215 66.3164-3.96582ZM65.8623-16.1357C63.8844-15.3284 60.9176-14.6423 56.9619-14.0771 54.7217-13.7542 53.1374-13.3909 52.209-12.9873 51.2806-12.5837 50.5641-11.9933 50.0596-11.2163 49.555-10.4393 49.3027-9.5765 49.3027-8.62793 49.3027-7.1748 49.8527-5.96387 50.9526-4.99512 52.0526-4.02637 53.6621-3.54199 55.7812-3.54199 57.8802-3.54199 59.7471-4.00114 61.3818-4.91943 63.0166-5.83773 64.2174-7.09407 64.9844-8.68848 65.5697-9.9196 65.8623-11.736 65.8623-14.1377ZM78.7129 2.66406 84.0107 3.45117C84.2327 5.08594 84.8483 6.27669 85.8574 7.02344 87.2096 8.03255 89.0563 8.53711 91.3975 8.53711 93.9202 8.53711 95.8678 8.03255 97.2402 7.02344 98.6126 6.01432 99.541 4.60156 100.025 2.78516 100.308 1.67513 100.439-0.655924 100.419-4.20801 98.0374-1.40267 95.0706 0 91.5185 0 87.0986 0 83.6777-1.5944 81.2559-4.7832 78.834-7.972 77.623-11.7965 77.623-16.2568 77.623-19.3245 78.1781-22.1551 79.2881-24.7485 80.3981-27.342 82.0076-29.345 84.1167-30.7578 86.2257-32.1706 88.7031-32.8769 91.5488-32.8769 95.3431-32.8769 98.4713-31.3431 100.934-28.2754L100.934-32.1504 105.959-32.1504 105.959-4.35937C105.959 0.645833 105.449 4.19287 104.43 6.28174 103.411 8.3706 101.796 10.0205 99.5864 11.2314 97.3764 12.4424 94.6569 13.0478 91.4277 13.0479 87.5931 13.0478 84.4951 12.1851 82.1338 10.4595 79.7725 8.73389 78.6322 6.13542 78.7129 2.66406ZM83.2236-16.6504C83.2236-12.4323 84.0612-9.35449 85.7363-7.41699 87.4114-5.47949 89.5104-4.51074 92.0332-4.51074 94.5358-4.51074 96.6348-5.47445 98.3301-7.40185 100.025-9.32926 100.873-12.3516 100.873-16.4687 100.873-20.4043 100-23.3711 98.2544-25.3691 96.5086-27.3672 94.4046-28.3662 91.9424-28.3662 89.5205-28.3662 87.4619-27.3823 85.7666-25.4145 84.0713-23.4468 83.2236-20.5254 83.2236-16.6504ZM136.096-10.3535 141.727-9.65723C140.839-6.36751 139.194-3.81445 136.792-1.99805 134.39-0.181641 131.323 0.726562 127.589 0.726562 122.886 0.726562 119.158-0.721517 116.403-3.61768 113.648-6.51383 112.27-10.5755 112.27-15.8027 112.27-21.2116 113.663-25.4095 116.448-28.3965 119.233-31.3835 122.846-32.8769 127.286-32.8769 131.585-32.8769 135.097-31.4137 137.821-28.4873 140.546-25.5609 141.908-21.4437 141.908-16.1357 141.908-15.8128 141.898-15.3284 141.878-14.6826L117.901-14.6826C118.103-11.1507 119.102-8.44629 120.898-6.56934 122.695-4.69238 124.935-3.75391 127.619-3.75391 129.617-3.75391 131.323-4.27865 132.735-5.32812 134.148-6.3776 135.268-8.05273 136.096-10.3535ZM118.204-19.1631 136.156-19.1631C135.914-21.8675 135.228-23.8958 134.098-25.248 132.362-27.347 130.112-28.3965 127.347-28.3965 124.844-28.3965 122.74-27.5589 121.035-25.8838 119.329-24.2087 118.386-21.9684 118.204-19.1631ZM192.774-5.2373 192.774 0 163.439 0C163.399-1.31185 163.611-2.57324 164.075-3.78418 164.822-5.78223 166.018-7.75 167.663-9.6875 169.307-11.625 171.684-13.8652 174.792-16.4082 179.616-20.3639 182.875-23.4972 184.57-25.8081 186.266-28.119 187.113-30.3037 187.113-32.3623 187.113-34.5218 186.341-36.3433 184.797-37.8267 183.253-39.3101 181.24-40.0518 178.758-40.0518 176.134-40.0518 174.035-39.2646 172.461-37.6904 170.887-36.1162 170.089-33.9365 170.069-31.1514L164.469-31.7266C164.852-35.9043 166.295-39.088 168.798-41.2778 171.3-43.4676 174.661-44.5625 178.879-44.5625 183.137-44.5625 186.508-43.3818 188.99-41.0205 191.473-38.6592 192.714-35.7327 192.714-32.2412 192.714-30.4652 192.351-28.7194 191.624-27.0039 190.897-25.2884 189.692-23.4821 188.006-21.585 186.321-19.6878 183.521-17.0843 179.605-13.7744 176.336-11.0296 174.237-9.1678 173.309-8.18896 172.38-7.21012 171.613-6.22624 171.008-5.2373Z" transform="matrix(1 0 0 1 53.4768 169)"/></g></g></g><rect x="2876" y="699" width="265" height="182" stroke="#FFFFFF" stroke-width="13.75" stroke-linejoin="round" stroke-miterlimit="10" fill="#74B5DE"/><text font-family="Arial,Arial_MSFontService,sans-serif" font-weight="400" font-size="62" transform="matrix(1 0 0 1 2910.48 776)">Data</text><text font-family="Arial,Arial_MSFontService,sans-serif" font-weight="400" font-size="62" transform="matrix(1 0 0 1 2910.48 850)">Page 2</text><g clip-path="url(#clip40)"><g filter="url(#fx22)" transform="translate(2853 955)"><g><rect x="23.0002" y="23.218" width="265" height="182" stroke="#FFFFFF" stroke-width="14" stroke-linejoin="round" stroke-miterlimit="10" fill="#74B5DE"/></g></g><g clip-path="url(#clip41)" filter="url(#fx23)" transform="translate(2852 961)"><g><path d="M4.7832 0 4.7832-44.3809 20.0713-44.3809C23.5225-44.3809 26.1562-44.1689 27.9727-43.7451 30.5156-43.1598 32.6852-42.1003 34.4814-40.5664 36.8226-38.5885 38.5734-36.0607 39.7339-32.9829 40.8944-29.9051 41.4746-26.3883 41.4746-22.4326 41.4746-19.0622 41.081-16.0752 40.2939-13.4717 39.5068-10.8682 38.4977-8.7137 37.2666-7.0083 36.0355-5.3029 34.6883-3.96077 33.2251-2.98193 31.7619-2.00309 29.9959-1.26139 27.9272-0.756836 25.8586-0.252279 23.4821 0 20.7978 0ZM10.6562-5.2373 20.1318-5.2373C23.0583-5.2373 25.354-5.50976 27.019-6.05469 28.6841-6.59961 30.0111-7.36654 31-8.35547 32.3926-9.74805 33.4774-11.62 34.2544-13.9712 35.0314-16.3224 35.4199-19.1732 35.4199-22.5234 35.4199-27.1654 34.658-30.7326 33.1343-33.2251 31.6105-35.7176 29.7588-37.3877 27.5791-38.2353 26.0049-38.8408 23.472-39.1436 19.9805-39.1436L10.6562-39.1436ZM69.7539-3.96582C67.7357-2.25033 65.7931-1.03939 63.9263-0.333008 62.0594 0.373372 60.0563 0.726562 57.917 0.726562 54.3851 0.726562 51.6706-0.136231 49.7734-1.86182 47.8763-3.5874 46.9277-5.79232 46.9277-8.47656 46.9277-10.0508 47.286-11.4888 48.0024-12.7905 48.7189-14.0923 49.6574-15.1367 50.8179-15.9238 51.9783-16.7109 53.2852-17.3063 54.7383-17.71 55.8079-17.9925 57.4225-18.265 59.582-18.5273 63.9818-19.0521 67.221-19.6777 69.2998-20.4043 69.32-21.151 69.3301-21.6253 69.3301-21.8271 69.3301-24.0472 68.8154-25.6113 67.7861-26.5195 66.3935-27.7506 64.3249-28.3662 61.5801-28.3662 59.0169-28.3662 57.1248-27.9172 55.9038-27.019 54.6828-26.1209 53.7796-24.5316 53.1943-22.251L47.8662-22.9775C48.3506-25.2581 49.1478-27.0998 50.2578-28.5024 51.3678-29.9051 52.9723-30.9849 55.0713-31.7417 57.1702-32.4985 59.6022-32.8769 62.3672-32.8769 65.112-32.8769 67.3421-32.554 69.0576-31.9082 70.7731-31.2624 72.0345-30.45 72.8418-29.4712 73.6491-28.4923 74.2142-27.2562 74.5371-25.7627 74.7187-24.8343 74.8096-23.1592 74.8096-20.7373L74.8096-13.4717C74.8096-8.40592 74.9256-5.20199 75.1577-3.85986 75.3898-2.51774 75.8489-1.23112 76.5351 0L70.8437 0C70.2786-1.13021 69.9154-2.45215 69.7539-3.96582ZM69.2998-16.1357C67.3219-15.3284 64.3551-14.6423 60.3994-14.0771 58.1592-13.7542 56.5749-13.3909 55.6465-12.9873 54.7181-12.5837 54.0016-11.9933 53.4971-11.2163 52.9925-10.4393 52.7402-9.5765 52.7402-8.62793 52.7402-7.1748 53.2902-5.96387 54.3901-4.99512 55.4901-4.02637 57.0996-3.54199 59.2187-3.54199 61.3177-3.54199 63.1846-4.00114 64.8193-4.91943 66.4541-5.83773 67.6549-7.09407 68.4219-8.68848 69.0072-9.9196 69.2998-11.736 69.2998-14.1377ZM95.0469-4.87402 95.834-0.0605469C94.3001 0.26237 92.9277 0.423828 91.7168 0.423828 89.7389 0.423828 88.2051 0.111003 87.1152-0.514648 86.0254-1.1403 85.2585-1.96273 84.8144-2.98193 84.3704-4.00114 84.1484-6.14551 84.1484-9.41504L84.1484-27.9121 80.1523-27.9121 80.1523-32.1504 84.1484-32.1504 84.1484-40.1123 89.5674-43.3818 89.5674-32.1504 95.0469-32.1504 95.0469-27.9121 89.5674-27.9121 89.5674-9.1123C89.5674-7.55827 89.6632-6.55924 89.855-6.11523 90.0467-5.67122 90.3595-5.31803 90.7934-5.05566 91.2274-4.79329 91.848-4.66211 92.6553-4.66211 93.2607-4.66211 94.0579-4.73275 95.0469-4.87402ZM121.316-3.96582C119.298-2.25033 117.356-1.03939 115.489-0.333008 113.622 0.373372 111.619 0.726562 109.479 0.726562 105.948 0.726562 103.233-0.136231 101.336-1.86182 99.4388-3.5874 98.4902-5.79232 98.4902-8.47656 98.4902-10.0508 98.8485-11.4888 99.5649-12.7905 100.281-14.0923 101.22-15.1367 102.38-15.9238 103.541-16.7109 104.848-17.3063 106.301-17.71 107.37-17.9925 108.985-18.265 111.145-18.5273 115.544-19.0521 118.784-19.6777 120.862-20.4043 120.882-21.151 120.893-21.6253 120.893-21.8271 120.893-24.0472 120.378-25.6113 119.349-26.5195 117.956-27.7506 115.887-28.3662 113.143-28.3662 110.579-28.3662 108.687-27.9172 107.466-27.019 106.245-26.1209 105.342-24.5316 104.757-22.251L99.4287-22.9775C99.9131-25.2581 100.71-27.0998 101.82-28.5024 102.93-29.9051 104.535-30.9849 106.634-31.7417 108.733-32.4985 111.165-32.8769 113.93-32.8769 116.674-32.8769 118.905-32.554 120.62-31.9082 122.336-31.2624 123.597-30.45 124.404-29.4712 125.212-28.4923 125.777-27.2562 126.1-25.7627 126.281-24.8343 126.372-23.1592 126.372-20.7373L126.372-13.4717C126.372-8.40592 126.488-5.20199 126.72-3.85986 126.952-2.51774 127.411-1.23112 128.098 0L122.406 0C121.841-1.13021 121.478-2.45215 121.316-3.96582ZM120.862-16.1357C118.884-15.3284 115.918-14.6423 111.962-14.0771 109.722-13.7542 108.137-13.3909 107.209-12.9873 106.281-12.5837 105.564-11.9933 105.06-11.2163 104.555-10.4393 104.303-9.5765 104.303-8.62793 104.303-7.1748 104.853-5.96387 105.953-4.99512 107.053-4.02637 108.662-3.54199 110.781-3.54199 112.88-3.54199 114.747-4.00114 116.382-4.91943 118.017-5.83773 119.217-7.09407 119.984-8.68848 120.57-9.9196 120.862-11.736 120.862-14.1377Z" transform="matrix(1 0 0 1 53.3206 94)"/><path d="M4.7832 0 4.7832-44.3809 21.5244-44.3809C24.471-44.3809 26.7214-44.2396 28.2754-43.957 30.4551-43.5937 32.2816-42.9025 33.7549-41.8833 35.2282-40.8641 36.4139-39.4362 37.312-37.5996 38.2101-35.763 38.6592-33.7448 38.6592-31.5449 38.6592-27.7708 37.4583-24.577 35.0566-21.9634 32.6549-19.3498 28.3158-18.043 22.0391-18.043L10.6562-18.043 10.6562 0ZM10.6562-23.2803 22.1299-23.2803C25.9242-23.2803 28.6185-23.9867 30.2129-25.3994 31.8073-26.8122 32.6045-28.8001 32.6045-31.3633 32.6045-33.22 32.1353-34.8094 31.1968-36.1313 30.2583-37.4533 29.0221-38.3262 27.4883-38.75 26.4993-39.0124 24.6728-39.1436 22.0088-39.1436L10.6562-39.1436ZM66.3164-3.96582C64.2982-2.25033 62.3556-1.03939 60.4888-0.333008 58.6219 0.373372 56.6188 0.726562 54.4795 0.726562 50.9476 0.726562 48.2331-0.136231 46.3359-1.86182 44.4388-3.5874 43.4902-5.79232 43.4902-8.47656 43.4902-10.0508 43.8485-11.4888 44.5649-12.7905 45.2814-14.0923 46.2199-15.1367 47.3804-15.9238 48.5408-16.7109 49.8476-17.3063 51.3008-17.71 52.3704-17.9925 53.985-18.265 56.1445-18.5273 60.5443-19.0521 63.7835-19.6777 65.8623-20.4043 65.8825-21.151 65.8926-21.6253 65.8926-21.8271 65.8926-24.0472 65.3779-25.6113 64.3486-26.5195 62.956-27.7506 60.8874-28.3662 58.1426-28.3662 55.5794-28.3662 53.6873-27.9172 52.4663-27.019 51.2453-26.1209 50.3421-24.5316 49.7568-22.251L44.4287-22.9775C44.9131-25.2581 45.7103-27.0998 46.8203-28.5024 47.9303-29.9051 49.5348-30.9849 51.6338-31.7417 53.7327-32.4985 56.1647-32.8769 58.9297-32.8769 61.6745-32.8769 63.9046-32.554 65.6201-31.9082 67.3356-31.2624 68.597-30.45 69.4043-29.4712 70.2116-28.4923 70.7767-27.2562 71.0996-25.7627 71.2812-24.8343 71.3721-23.1592 71.3721-20.7373L71.3721-13.4717C71.3721-8.40592 71.4881-5.20199 71.7202-3.85986 71.9523-2.51774 72.4115-1.23112 73.0976 0L67.4062 0C66.8411-1.13021 66.4779-2.45215 66.3164-3.96582ZM65.8623-16.1357C63.8844-15.3284 60.9176-14.6423 56.9619-14.0771 54.7217-13.7542 53.1374-13.3909 52.209-12.9873 51.2806-12.5837 50.5641-11.9933 50.0596-11.2163 49.555-10.4393 49.3027-9.5765 49.3027-8.62793 49.3027-7.1748 49.8527-5.96387 50.9526-4.99512 52.0526-4.02637 53.6621-3.54199 55.7812-3.54199 57.8802-3.54199 59.7471-4.00114 61.3818-4.91943 63.0166-5.83773 64.2174-7.09407 64.9844-8.68848 65.5697-9.9196 65.8623-11.736 65.8623-14.1377ZM78.7129 2.66406 84.0107 3.45117C84.2327 5.08594 84.8483 6.27669 85.8574 7.02344 87.2096 8.03255 89.0563 8.53711 91.3975 8.53711 93.9202 8.53711 95.8678 8.03255 97.2402 7.02344 98.6126 6.01432 99.541 4.60156 100.025 2.78516 100.308 1.67513 100.439-0.655924 100.419-4.20801 98.0374-1.40267 95.0706 0 91.5185 0 87.0986 0 83.6777-1.5944 81.2559-4.7832 78.834-7.972 77.623-11.7965 77.623-16.2568 77.623-19.3245 78.1781-22.1551 79.2881-24.7485 80.3981-27.342 82.0076-29.345 84.1167-30.7578 86.2257-32.1706 88.7031-32.8769 91.5488-32.8769 95.3431-32.8769 98.4713-31.3431 100.934-28.2754L100.934-32.1504 105.959-32.1504 105.959-4.35937C105.959 0.645833 105.449 4.19287 104.43 6.28174 103.411 8.3706 101.796 10.0205 99.5864 11.2314 97.3764 12.4424 94.6569 13.0478 91.4277 13.0479 87.5931 13.0478 84.4951 12.1851 82.1338 10.4595 79.7725 8.73389 78.6322 6.13542 78.7129 2.66406ZM83.2236-16.6504C83.2236-12.4323 84.0612-9.35449 85.7363-7.41699 87.4114-5.47949 89.5104-4.51074 92.0332-4.51074 94.5358-4.51074 96.6348-5.47445 98.3301-7.40185 100.025-9.32926 100.873-12.3516 100.873-16.4687 100.873-20.4043 100-23.3711 98.2544-25.3691 96.5086-27.3672 94.4046-28.3662 91.9424-28.3662 89.5205-28.3662 87.4619-27.3823 85.7666-25.4145 84.0713-23.4468 83.2236-20.5254 83.2236-16.6504ZM136.096-10.3535 141.727-9.65723C140.839-6.36751 139.194-3.81445 136.792-1.99805 134.39-0.181641 131.323 0.726562 127.589 0.726562 122.886 0.726562 119.158-0.721517 116.403-3.61768 113.648-6.51383 112.27-10.5755 112.27-15.8027 112.27-21.2116 113.663-25.4095 116.448-28.3965 119.233-31.3835 122.846-32.8769 127.286-32.8769 131.585-32.8769 135.097-31.4137 137.821-28.4873 140.546-25.5609 141.908-21.4437 141.908-16.1357 141.908-15.8128 141.898-15.3284 141.878-14.6826L117.901-14.6826C118.103-11.1507 119.102-8.44629 120.898-6.56934 122.695-4.69238 124.935-3.75391 127.619-3.75391 129.617-3.75391 131.323-4.27865 132.735-5.32812 134.148-6.3776 135.268-8.05273 136.096-10.3535ZM118.204-19.1631 136.156-19.1631C135.914-21.8675 135.228-23.8958 134.098-25.248 132.362-27.347 130.112-28.3965 127.347-28.3965 124.844-28.3965 122.74-27.5589 121.035-25.8838 119.329-24.2087 118.386-21.9684 118.204-19.1631ZM166.285 0 166.285-44.3809 172.31-44.3809 195.62-9.53613 195.62-44.3809 201.251-44.3809 201.251 0 195.227 0 171.916-34.875 171.916 0Z" transform="matrix(1 0 0 1 53.3206 168)"/></g></g></g><rect x="2876" y="971" width="265" height="182" stroke="#FFFFFF" stroke-width="13.75" stroke-linejoin="round" stroke-miterlimit="10" fill="#74B5DE"/><text font-family="Arial,Arial_MSFontService,sans-serif" font-weight="400" font-size="62" transform="matrix(1 0 0 1 2905.32 1048)">Data</text><text font-family="Arial,Arial_MSFontService,sans-serif" font-weight="400" font-size="62" transform="matrix(1 0 0 1 2905.32 1122)">Page N</text><text fill="#800080" font-family="Arial,Arial_MSFontService,sans-serif" font-weight="700" font-size="62" transform="matrix(1 0 0 1 2084.45 402)">Header Page</text><text fill="#800080" font-family="Arial,Arial_MSFontService,sans-serif" font-weight="700" font-size="48" transform="matrix(1 0 0 1 2251.98 1160)">DIRECTORY</text><path d="M2174.5 640.5C2174.5 617.922 2220.35 599.593 2277.07 599.5" stroke="#15405B" stroke-width="4.58333" stroke-linecap="round" stroke-linejoin="round" stroke-miterlimit="10" fill="none" fill-rule="evenodd"/><path d="M2249.8 682.224 2246.63 681.891 2237.07 680.466 2227.96 678.68 2219.36 676.551 2211.31 674.101 2203.87 671.347 2197.08 668.307 2190.99 664.994 2185.65 661.422 2181.11 657.597 2177.43 653.52C2177.34 653.424 2177.26 653.321 2177.19 653.212L2174.65 649.187C2174.57 649.054 2174.5 648.914 2174.45 648.767L2172.89 644.597C2172.82 644.429 2172.78 644.254 2172.76 644.076L2172.23 639.781C2172.07 638.525 2172.96 637.381 2174.22 637.226 2175.47 637.07 2176.62 637.962 2176.77 639.218L2177.31 643.512 2177.18 642.991 2178.74 647.161 2178.53 646.742 2181.07 650.767 2180.84 650.458 2184.07 654.099 2188.21 657.617 2193.19 660.97 2198.96 664.125 2205.46 667.049 2212.65 669.717 2220.46 672.103 2228.84 674.182 2237.74 675.933 2247.11 677.333 2250.28 677.666C2251.54 677.797 2252.45 678.925 2252.32 680.184 2252.19 681.442 2251.06 682.356 2249.8 682.224ZM2250.04 679.945 2232.52 665.18 2277.5 681.5 2230.96 692.636Z" fill="#15405B"/><path d="M2174.5 867.5C2174.5 844.371 2220.35 825.595 2277.07 825.5" stroke="#15405B" stroke-width="4.58333" stroke-linecap="round" stroke-linejoin="round" stroke-miterlimit="10" fill="none" fill-rule="evenodd"/><path d="M2249.8 909.224 2246.63 908.891 2237.07 907.466 2227.96 905.679 2219.36 903.551 2211.31 901.101 2203.87 898.347 2197.08 895.307 2190.99 891.994 2185.65 888.422 2181.11 884.597 2177.43 880.52C2177.34 880.424 2177.26 880.321 2177.19 880.212L2174.65 876.187C2174.57 876.055 2174.5 875.914 2174.45 875.768L2172.89 871.598C2172.82 871.429 2172.78 871.254 2172.76 871.076L2172.23 866.782C2172.07 865.526 2172.96 864.381 2174.22 864.226 2175.47 864.07 2176.62 864.962 2176.77 866.219L2177.31 870.513 2177.18 869.991 2178.74 874.161 2178.53 873.742 2181.07 877.767 2180.84 877.459 2184.07 881.099 2188.21 884.617 2193.19 887.97 2198.96 891.125 2205.46 894.049 2212.65 896.717 2220.46 899.103 2228.84 901.182 2237.74 902.933 2247.11 904.333 2250.28 904.665C2251.54 904.797 2252.45 905.925 2252.32 907.184 2252.19 908.442 2251.06 909.356 2249.8 909.224ZM2250.04 906.945 2232.52 892.18 2277.5 908.5 2230.96 919.636Z" fill="#15405B"/><path d="M-1.55634 11.3179-0.833665 10.6493C-0.581352 10.4159-0.279754 10.2422 0.0487899 10.1411L2.19356 9.48123 5.98451 8.76751 10.9862 8.10917 17.2546 7.47277 24.7821 6.8522 33.5445 6.24614 43.5121 5.65458 54.6527 5.07799 66.933 4.51697 80.3192 3.97224 94.7771 3.44457 110.272 2.93473 126.77 2.4435 144.236 1.9717 162.635 1.52012 181.933 1.08957 202.094 0.680871 223.085 0.294824 244.87-0.067754 267.414-0.406051 290.683-0.719251 314.641-1.00654 339.255-1.26711 364.489-1.50013 390.308-1.7048 416.677-1.8803 443.562-2.02581 470.928-2.14051 498.739-2.2236 526.962-2.27426 528.061-2.27493C529.326-2.2757 530.353-1.25031 530.354 0.0153413 530.355 1.28099 529.329 2.30763 528.064 2.3084L526.97 2.30907 498.753 2.35971 470.947 2.44278 443.587 2.55746 416.708 2.70294 390.344 2.87839 364.531 3.08301 339.304 3.31597 314.696 3.57646 290.744 3.86367 267.483 4.17677 244.946 4.51494 223.169 4.87738 202.187 5.26326 182.035 5.67177 162.747 6.10207 144.359 6.55336 126.906 7.02481 110.423 7.51558 94.9443 8.02486 80.5056 8.55179 67.1422 9.09553 54.8896 9.65519 43.7836 10.2299 33.8607 10.8186 25.1584 11.4201 17.7169 12.0327 11.5815 12.6537 6.8144 13.2751 3.54133 13.8619 1.39655 14.5218 2.27901 14.0136 1.55634 14.6822C0.627324 15.5417-0.822585 15.4854-1.68213 14.5564-2.54167 13.6274-2.48535 12.1775-1.55634 11.3179ZM528.062 0.016736 509.721-13.7221 555.562 0 509.737 13.7779Z" fill="#2980B9" transform="matrix(1 0 0 -1 2318.5 467.5)"/><path d="M2846.91 715.324 2825.94 714.453 2802.15 712.802 2778.75 710.519 2755.75 707.62 2733.19 704.12 2711.1 700.037 2689.51 695.386 2668.45 690.184 2647.94 684.446 2628.02 678.189 2608.72 671.429 2590.06 664.181 2572.08 656.461 2554.81 648.286 2538.27 639.672 2522.49 630.632 2507.51 621.185 2493.35 611.344 2480.05 601.125 2467.63 590.543 2456.13 579.614 2445.57 568.353 2435.98 556.774 2427.4 544.892 2419.86 532.724 2413.39 520.283 2408.02 507.588 2403.78 494.654 2400.71 481.5 2398.85 468.144 2398.21 454.606C2398.15 453.342 2399.13 452.269 2400.39 452.211 2401.66 452.152 2402.73 453.13 2402.79 454.394L2403.39 467.512 2405.18 480.461 2408.14 493.23 2412.24 505.805 2417.46 518.17 2423.76 530.311 2431.12 542.21 2439.51 553.852 2448.91 565.218 2459.29 576.292 2470.61 587.055 2482.84 597.49 2495.97 607.581 2509.96 617.308 2524.77 626.656 2540.38 635.607 2556.77 644.144 2573.89 652.25 2591.72 659.909 2610.23 667.103 2629.39 673.817 2649.17 680.032 2669.54 685.734 2690.47 690.906 2711.93 695.53 2733.89 699.591 2756.32 703.072 2779.19 705.957 2802.47 708.23 2826.13 709.873 2847.1 710.745C2848.36 710.797 2849.35 711.865 2849.29 713.129 2849.24 714.394 2848.17 715.376 2846.91 715.324ZM2847 713.034 2828.91 698.976 2874.5 713.5 2828.44 726.472Z" fill="#2980B9"/><path d="M2661.73 762.369 2660.85 762.181 2651.56 759.418 2642.44 755.91 2633.5 751.678 2624.76 746.744 2616.23 741.13 2607.91 734.857 2599.83 727.946 2591.98 720.417 2584.39 712.29 2577.06 703.587 2570 694.327 2563.22 684.529 2556.74 674.213 2550.57 663.399 2544.71 652.106 2539.18 640.353 2533.99 628.16 2529.14 615.547 2524.66 602.531 2520.55 589.134 2516.83 575.373 2513.49 561.269 2510.57 546.84 2508.06 532.106 2505.99 517.086 2504.35 501.8 2503.17 486.266 2502.45 470.505 2502.21 454.535C2502.19 453.269 2503.2 452.228 2504.47 452.209 2505.73 452.189 2506.77 453.2 2506.79 454.465L2507.03 470.296 2507.74 485.919 2508.91 501.313 2510.53 516.459 2512.58 531.338 2515.06 545.93 2517.96 560.216 2521.25 574.176 2524.93 587.79 2528.99 601.04 2533.42 613.904 2538.2 626.365 2543.32 638.402 2548.78 649.996 2554.55 661.127 2560.62 671.775 2566.99 681.923 2573.64 691.549 2580.56 700.635 2587.74 709.162 2595.16 717.111 2602.81 724.463 2610.67 731.2 2618.75 737.303 2627.02 742.754 2635.47 747.537 2644.09 751.633 2652.87 755.026 2661.8 757.698 2662.68 757.885C2663.92 758.148 2664.71 759.365 2664.45 760.603 2664.19 761.841 2662.97 762.631 2661.73 762.369ZM2662.21 760.127 2645.7 744.232 2689.5 763.5 2642.33 771.524Z" fill="#2980B9"/><path d="M2503.5 906.208 2541.44 906.529 2578.31 907.469 2613.91 908.998 2631.18 909.974 2648.05 911.085 2664.51 912.328 2680.53 913.699 2696.09 915.194 2711.17 916.81 2725.74 918.541 2739.78 920.385 2753.28 922.338 2766.19 924.396 2778.51 926.555 2790.21 928.811 2801.27 931.162 2811.66 933.604 2821.36 936.132 2830.36 938.746 2838.62 941.441 2846.14 944.216 2852.88 947.072 2856.31 948.761C2857.45 949.322 2857.91 950.696 2857.35 951.831 2856.79 952.966 2855.42 953.431 2854.28 952.871L2851.09 951.292 2844.55 948.516 2837.2 945.798 2829.08 943.147 2820.21 940.568 2810.61 938.065 2800.32 935.645 2789.34 933.312 2777.72 931.069 2765.47 928.922 2752.62 926.874 2739.19 924.929 2725.2 923.092 2710.68 921.367 2695.65 919.757 2680.14 918.266 2664.16 916.899 2647.75 915.659 2630.92 914.55 2613.71 913.577 2578.2 912.051 2541.4 911.112 2503.46 910.792C2502.2 910.781 2501.18 909.746 2501.19 908.481 2501.2 907.215 2502.24 906.198 2503.5 906.208ZM2855.3 950.816 2852.34 928.091 2874.5 970.5 2832.65 947.295Z" fill="#2980B9"/></g></svg>