<svg width="1605" height="263" xmlns="http://www.w3.org/2000/svg" xmlns:xlink="http://www.w3.org/1999/xlink" xml:space="preserve" overflow="hidden"><g transform="translate(-494 -1114)"><rect x="1535.5" y="1118.5" width="201" height="137" stroke="#000000" stroke-width="9.16667" stroke-linejoin="round" stroke-miterlimit="10" fill="#ADB7CD"/><text font-family="Arial,Arial_MSFontService,sans-serif" font-weight="400" font-size="62" transform="matrix(1 0 0 1 1580.4 1209)">Bob</text><text fill="#FFFFFF" font-family="Arial,Arial_MSFontService,sans-serif" font-weight="400" font-size="55" transform="matrix(1 0 0 1 1538.63 1325)">VARCHAR</text><rect x="1736.5" y="1118.5" width="315" height="137" stroke="#000000" stroke-width="9.16667" stroke-linejoin="round" stroke-miterlimit="10" fill="#ADB7CD"/><text font-family="Arial,Arial_MSFontService,sans-serif" font-weight="400" font-size="62" transform="matrix(1 0 0 1 1793.95 1209)">Big, St.</text><text fill="#FFFFFF" font-family="Arial,Arial_MSFontService,sans-serif" font-weight="400" font-size="55" transform="matrix(1 0 0 1 1801.6 1324)">VARCHAR</text><rect x="897.5" y="1118.5" width="169" height="137" stroke="#000000" stroke-width="9.16667" stroke-linejoin="round" stroke-miterlimit="10" fill="#FFFFFF"/><text font-family="Arial,Arial_MSFontService,sans-serif" font-weight="400" font-size="62" transform="matrix(1 0 0 1 955.418 1209)">M</text><text fill="#FFFFFF" font-family="Arial,Arial_MSFontService,sans-serif" font-weight="400" font-size="55" transform="matrix(1 0 0 1 929.766 1318)">CHAR</text><rect x="1068.5" y="1118.5" width="166" height="137" stroke="#000000" stroke-width="9.16667" stroke-linejoin="round" stroke-miterlimit="10" fill="#FFFFFF"/><text font-family="Arial,Arial_MSFontService,sans-serif" font-weight="400" font-size="62" transform="matrix(1 0 0 1 1116.55 1209)">32</text><text fill="#FFFFFF" font-family="Arial,Arial_MSFontService,sans-serif" font-weight="400" font-size="55" transform="matrix(1 0 0 1 1123.56 1318)">INT</text><rect x="1231.5" y="1118.5" width="305" height="137" stroke="#000000" stroke-width="9.16667" stroke-linejoin="round" stroke-miterlimit="10" fill="#FFFFFF"/><text font-family="Arial,Arial_MSFontService,sans-serif" font-weight="400" font-size="62" transform="matrix(1 0 0 1 1297.88 1209)">94703</text><text fill="#FFFFFF" font-family="Arial,Arial_MSFontService,sans-serif" font-weight="400" font-size="55" transform="matrix(1 0 0 1 1358.16 1318)">INT</text><rect x="499.5" y="1118.5" width="399" height="137" stroke="#000000" stroke-width="9.16667" stroke-linejoin="round" stroke-miterlimit="10" fill="#D72C2F"/><text fill="#FFFFFF" font-family="Arial,Arial_MSFontService,sans-serif" font-weight="400" font-size="62" transform="matrix(1 0 0 1 531.876 1209)">Header</text><rect x="740.5" y="1134.5" width="58.0001" height="99" stroke="#57918D" stroke-width="9.16667" stroke-linejoin="round" stroke-miterlimit="10" fill="#79C6C1"/><path d="M759.5 1184C759.5 1178.2 763.977 1173.5 769.5 1173.5 775.023 1173.5 779.5 1178.2 779.5 1184 779.5 1189.8 775.023 1194.5 769.5 1194.5 763.977 1194.5 759.5 1189.8 759.5 1184Z" stroke="#000000" stroke-width="9.16667" stroke-linejoin="round" stroke-miterlimit="10" fill-rule="evenodd"/><rect x="819.5" y="1134.5" width="57.0001" height="99" stroke="#57918D" stroke-width="9.16667" stroke-linejoin="round" stroke-miterlimit="10" fill="#79C6C1"/><path d="M837.5 1184C837.5 1178.2 841.977 1173.5 847.5 1173.5 853.023 1173.5 857.5 1178.2 857.5 1184 857.5 1189.8 853.023 1194.5 847.5 1194.5 841.977 1194.5 837.5 1189.8 837.5 1184Z" stroke="#000000" stroke-width="9.16667" stroke-linejoin="round" stroke-miterlimit="10" fill-rule="evenodd"/><path d="M1726.5 1256C1726.5 1250.2 1730.98 1245.5 1736.5 1245.5 1742.02 1245.5 1746.5 1250.2 1746.5 1256 1746.5 1261.8 1742.02 1266.5 1736.5 1266.5 1730.98 1266.5 1726.5 1261.8 1726.5 1256Z" stroke="#000000" stroke-width="9.16667" stroke-linejoin="round" stroke-miterlimit="10" fill-rule="evenodd"/><path d="M2043.5 1255.5C2043.5 1249.98 2047.98 1245.5 2053.5 1245.5 2059.02 1245.5 2063.5 1249.98 2063.5 1255.5 2063.5 1261.02 2059.02 1265.5 2053.5 1265.5 2047.98 1265.5 2043.5 1261.02 2043.5 1255.5Z" stroke="#000000" stroke-width="9.16667" stroke-linejoin="round" stroke-miterlimit="10" fill-rule="evenodd"/><path d="M0-2.29167 153.377-2.29167C154.643-2.29167 155.669-1.26565 155.669 0L155.669 967.132C155.669 968.398 154.643 969.424 153.377 969.424L94.4257 969.424 94.4257 964.841 153.377 964.841 151.085 967.132 151.085 0 153.377 2.29167 0 2.29167ZM99.009 980.882 71.509 967.132 99.009 953.382Z" transform="matrix(1.83697e-16 1 1 -1.83697e-16 769.5 1194.5)"/><path d="M0-2.29167 179.336-2.29167C180.602-2.29167 181.628-1.26565 181.628 0L181.628 1205.59C181.628 1206.85 180.602 1207.88 179.336 1207.88L93.8342 1207.88 93.8342 1203.29 179.336 1203.29 177.044 1205.59 177.044 0 179.336 2.29167 0 2.29167ZM98.4175 1219.34 70.9175 1205.59 98.4175 1191.84Z" transform="matrix(1.83697e-16 1 1 -1.83697e-16 847.5 1194.5)"/></g></svg>