<?xml version="1.0" encoding="UTF-8" standalone="no"?>
<!DOCTYPE svg PUBLIC "-//W3C//DTD SVG 1.0//EN" "http://www.w3.org/TR/2001/REC-SVG-20010904/DTD/svg10.dtd">
<!-- Generated by Microsoft Visio 11.0, SVG Export, v1.0 RUP_disciplines_greyscale_20060121.svg Page-1 -->
<svg xmlns="http://www.w3.org/2000/svg" xmlns:v="http://schemas.microsoft.com/visio/2003/SVGExtensions/" width="9.05512in"
		height="6.69291in" viewBox="0 0 651.969 481.89" xml:space="preserve" color-interpolation-filters="sRGB" class="st13">
	<v:documentProperties v:langID="1033" v:viewMarkup="false"/>
<rect width="100%" height="100%" fill="white" />

	<style type="text/css">
	<![CDATA[
		.st1 {fill:#666666;stroke:#ffffff;stroke-linecap:round;stroke-linejoin:round;stroke-width:4.08}
		.st2 {fill:#ffffff;font-family:Trebuchet MS;font-size:1.00001em;font-weight:bold}
		.st3 {fill:#cdcdcd;stroke:none;stroke-linecap:round;stroke-linejoin:round;stroke-width:1.2}
		.st4 {fill:#e6e6e6;stroke:none;stroke-linecap:round;stroke-linejoin:round;stroke-width:1.2}
		.st5 {fill:#e8eef7;stroke:#000000;stroke-linecap:round;stroke-linejoin:round;stroke-width:0.24}
		.st6 {fill:#000000;font-family:Trebuchet MS;font-size:1.00001em;font-weight:bold}
		.st7 {fill:none;stroke:none;stroke-linecap:round;stroke-linejoin:round;stroke-width:0.72}
		.st8 {fill:#808080;stroke:#333333;stroke-linecap:round;stroke-linejoin:round;stroke-width:1.2}
		.st9 {fill:#cdcdcd;stroke:#000000;stroke-linecap:round;stroke-linejoin:round;stroke-width:0.24}
		.st10 {fill:#e6e6e6;stroke:#000000;stroke-linecap:round;stroke-linejoin:round;stroke-width:0.24}
		.st11 {stroke:#000000;stroke-dasharray:8.4,6;stroke-linecap:round;stroke-linejoin:round;stroke-width:1.2}
		.st12 {stroke:#000000;stroke-linecap:round;stroke-linejoin:round;stroke-width:0.24}
		.st13 {fill:none;fill-rule:evenodd;font-size:12;overflow:visible;stroke-linecap:square;stroke-miterlimit:3}
	]]>
	</style>

	<g v:mID="0" v:index="1" v:groupContext="foregroundPage">
		<v:userDefs>
			<v:ud v:nameU="SchemeName" v:val="VT4(Default)"/>
		</v:userDefs>
		<title>Page-1</title>
		<v:pageProperties v:drawingScale="0.0393701" v:pageScale="0.0393701" v:drawingUnits="24" v:shadowOffsetX="8.50394"
				v:shadowOffsetY="-8.50394"/>
		<v:layer v:name="Connector" v:index="0"/>
		<g id="shape59-1" v:mID="59" v:groupContext="shape" transform="translate(155.906,-36.8504)">
			<title>Rectangle.59</title>
			<desc>Initial</desc>
			<v:userDefs>
				<v:ud v:nameU="visVersion" v:val="VT0(11):26"/>
			</v:userDefs>
			<v:textBlock v:margins="rect(4,4,4,4)" v:tabSpace="42.5197"/>
			<v:textRect cx="32.5984" cy="471.969" width="65.2" height="19.8425"/>
			<rect x="0" y="462.047" width="65.1969" height="19.8425" class="st1"/>
			<text x="16.46" y="475.57" class="st2" v:langID="1033"><v:paragraph v:horizAlign="1"/><v:tabList/>Initial</text>		</g>
		<g id="shape51-4" v:mID="51" v:groupContext="shape" transform="translate(221.102,-36.8504)">
			<title>Rectangle</title>
			<desc>E1</desc>
			<v:userDefs>
				<v:ud v:nameU="visVersion" v:val="VT0(11):26"/>
			</v:userDefs>
			<v:textBlock v:margins="rect(4,4,4,4)" v:tabSpace="42.5197"/>
			<v:textRect cx="28.3465" cy="471.969" width="56.7" height="19.8425"/>
			<rect x="0" y="462.047" width="56.6929" height="19.8425" class="st1"/>
			<text x="21.42" y="475.57" class="st2" v:langID="1033"><v:paragraph v:horizAlign="1"/><v:tabList/>E1</text>		</g>
		<g id="shape52-7" v:mID="52" v:groupContext="shape" transform="translate(277.795,-36.8504)">
			<title>Rectangle.52</title>
			<desc>E2</desc>
			<v:userDefs>
				<v:ud v:nameU="visVersion" v:val="VT0(11):26"/>
			</v:userDefs>
			<v:textBlock v:margins="rect(4,4,4,4)" v:tabSpace="42.5197"/>
			<v:textRect cx="28.3465" cy="471.969" width="56.7" height="19.8425"/>
			<rect x="0" y="462.047" width="56.6929" height="19.8425" class="st1"/>
			<text x="21.42" y="475.57" class="st2" v:langID="1033"><v:paragraph v:horizAlign="1"/><v:tabList/>E2</text>		</g>
		<g id="shape53-10" v:mID="53" v:groupContext="shape" transform="translate(334.488,-36.8504)">
			<title>Rectangle.53</title>
			<desc>C1</desc>
			<v:userDefs>
				<v:ud v:nameU="visVersion" v:val="VT0(11):26"/>
			</v:userDefs>
			<v:textBlock v:margins="rect(4,4,4,4)" v:tabSpace="42.5197"/>
			<v:textRect cx="28.3465" cy="471.969" width="56.7" height="19.8425"/>
			<rect x="0" y="462.047" width="56.6929" height="19.8425" class="st1"/>
			<text x="21.16" y="475.57" class="st2" v:langID="1033"><v:paragraph v:horizAlign="1"/><v:tabList/>C1</text>		</g>
		<g id="shape54-13" v:mID="54" v:groupContext="shape" transform="translate(391.181,-36.8504)">
			<title>Rectangle.54</title>
			<desc>C2</desc>
			<v:userDefs>
				<v:ud v:nameU="visVersion" v:val="VT0(11):26"/>
			</v:userDefs>
			<v:textBlock v:margins="rect(4,4,4,4)" v:tabSpace="42.5197"/>
			<v:textRect cx="28.3465" cy="471.969" width="56.7" height="19.8425"/>
			<rect x="0" y="462.047" width="56.6929" height="19.8425" class="st1"/>
			<text x="21.16" y="475.57" class="st2" v:langID="1033"><v:paragraph v:horizAlign="1"/><v:tabList/>C2</text>		</g>
		<g id="shape55-16" v:mID="55" v:groupContext="shape" transform="translate(447.874,-36.8504)">
			<title>Rectangle.55</title>
			<desc>Cn</desc>
			<v:userDefs>
				<v:ud v:nameU="visVersion" v:val="VT0(11):26"/>
			</v:userDefs>
			<v:textBlock v:margins="rect(4,4,4,4)" v:tabSpace="42.5197"/>
			<v:textRect cx="28.3465" cy="471.969" width="56.7" height="19.8425"/>
			<rect x="0" y="462.047" width="56.6929" height="19.8425" class="st1"/>
			<text x="21.14" y="475.57" class="st2" v:langID="1033"><v:paragraph v:horizAlign="1"/><v:tabList/>Cn</text>		</g>
		<g id="shape56-19" v:mID="56" v:groupContext="shape" transform="translate(504.567,-36.8504)">
			<title>Rectangle.56</title>
			<desc>T1</desc>
			<v:userDefs>
				<v:ud v:nameU="visVersion" v:val="VT0(11):26"/>
			</v:userDefs>
			<v:textBlock v:margins="rect(4,4,4,4)" v:tabSpace="42.5197"/>
			<v:textRect cx="28.3465" cy="471.969" width="56.7" height="19.8425"/>
			<rect x="0" y="462.047" width="56.6929" height="19.8425" class="st1"/>
			<text x="21.16" y="475.57" class="st2" v:langID="1033"><v:paragraph v:horizAlign="1"/><v:tabList/>T1</text>		</g>
		<g id="shape57-22" v:mID="57" v:groupContext="shape" transform="translate(561.26,-36.8504)">
			<title>Rectangle.57</title>
			<desc>T2</desc>
			<v:userDefs>
				<v:ud v:nameU="visVersion" v:val="VT0(11):26"/>
			</v:userDefs>
			<v:textBlock v:margins="rect(4,4,4,4)" v:tabSpace="42.5197"/>
			<v:textRect cx="28.3465" cy="471.969" width="56.7" height="19.8425"/>
			<rect x="0" y="462.047" width="56.6929" height="19.8425" class="st1"/>
			<text x="21.16" y="475.57" class="st2" v:langID="1033"><v:paragraph v:horizAlign="1"/><v:tabList/>T2</text>		</g>
		<g id="shape21-25" v:mID="21" v:groupContext="shape" transform="translate(277.795,-56.6929)">
			<title>Rectangle.21</title>
			<v:userDefs>
				<v:ud v:nameU="visVersion" v:val="VT0(11):26"/>
			</v:userDefs>
			<rect x="0" y="99.2126" width="56.6929" height="382.677" class="st3"/>
		</g>
		<g id="shape19-27" v:mID="19" v:groupContext="shape" transform="translate(155.906,-56.6929)">
			<title>Rectangle.19</title>
			<v:userDefs>
				<v:ud v:nameU="visVersion" v:val="VT0(11):26"/>
			</v:userDefs>
			<rect x="0" y="99.2126" width="65.1969" height="382.677" class="st4"/>
		</g>
		<g id="shape37-29" v:mID="37" v:groupContext="shape" transform="translate(155.906,-439.37)">
			<title>Rectangle.37</title>
			<desc>Inception</desc>
			<v:userDefs>
				<v:ud v:nameU="visVersion" v:val="VT0(11):26"/>
			</v:userDefs>
			<v:textBlock v:margins="rect(4,4,4,4)" v:tabSpace="42.5197"/>
			<v:textRect cx="32.5984" cy="467.717" width="65.2" height="28.3465"/>
			<rect x="0" y="453.543" width="65.1969" height="28.3465" class="st5"/>
			<text x="6.27" y="471.32" class="st6" v:langID="1033"><v:paragraph v:horizAlign="1"/><v:tabList/>Inception</text>		</g>
		<g id="shape20-32" v:mID="20" v:groupContext="shape" transform="translate(221.102,-56.6929)">
			<title>Rectangle.20</title>
			<v:userDefs>
				<v:ud v:nameU="visVersion" v:val="VT0(11):26"/>
			</v:userDefs>
			<rect x="0" y="99.2126" width="56.6929" height="382.677" class="st3"/>
		</g>
		<g id="shape22-34" v:mID="22" v:groupContext="shape" transform="translate(334.488,-56.6929)">
			<title>Rectangle.22</title>
			<v:userDefs>
				<v:ud v:nameU="visVersion" v:val="VT0(11):26"/>
			</v:userDefs>
			<rect x="0" y="99.2126" width="56.6929" height="382.677" class="st4"/>
		</g>
		<g id="shape23-36" v:mID="23" v:groupContext="shape" transform="translate(391.181,-56.6929)">
			<title>Rectangle.23</title>
			<v:userDefs>
				<v:ud v:nameU="visVersion" v:val="VT0(11):26"/>
			</v:userDefs>
			<rect x="0" y="99.2126" width="56.6929" height="382.677" class="st4"/>
		</g>
		<g id="shape24-38" v:mID="24" v:groupContext="shape" transform="translate(447.874,-56.6929)">
			<title>Rectangle.24</title>
			<v:userDefs>
				<v:ud v:nameU="visVersion" v:val="VT0(11):26"/>
			</v:userDefs>
			<rect x="0" y="99.2126" width="56.6929" height="382.677" class="st4"/>
		</g>
		<g id="shape25-40" v:mID="25" v:groupContext="shape" transform="translate(504.567,-56.6929)">
			<title>Rectangle.25</title>
			<v:userDefs>
				<v:ud v:nameU="visVersion" v:val="VT0(11):26"/>
			</v:userDefs>
			<rect x="0" y="99.2126" width="56.6929" height="382.677" class="st3"/>
		</g>
		<g id="shape26-42" v:mID="26" v:groupContext="shape" transform="translate(561.26,-56.6929)">
			<title>Rectangle.26</title>
			<v:userDefs>
				<v:ud v:nameU="visVersion" v:val="VT0(11):26"/>
			</v:userDefs>
			<rect x="0" y="99.2126" width="56.6929" height="382.677" class="st3"/>
		</g>
		<g id="shape4-44" v:mID="4" v:groupContext="shape" transform="translate(22.6772,-354.331)">
			<title>Sheet.4</title>
			<desc>Environment</desc>
			<v:textBlock v:margins="rect(4,4,4,4)" v:tabSpace="42.5197"/>
			<v:textRect cx="63.3386" cy="469.873" width="126.68" height="24.0332"/>
			<rect x="0" y="457.857" width="126.677" height="24.0332" class="st7"/>
			<text x="4" y="473.47" class="st6" v:langID="1033"><v:paragraph/><v:tabList/>Environment</text>		</g>
		<g id="shape5-47" v:mID="5" v:groupContext="shape" transform="translate(22.6772,-311.811)">
			<title>Sheet.5</title>
			<desc>Business Modeling</desc>
			<v:textBlock v:margins="rect(4,4,4,4)" v:tabSpace="42.5197"/>
			<v:textRect cx="63.3386" cy="469.873" width="126.68" height="24.0332"/>
			<rect x="0" y="457.857" width="126.677" height="24.0332" class="st7"/>
			<text x="4" y="473.47" class="st6" v:langID="1033"><v:paragraph/><v:tabList/>Business Modeling</text>		</g>
		<g id="shape6-50" v:mID="6" v:groupContext="shape" transform="translate(23.5591,-269.291)">
			<title>Sheet.6</title>
			<desc>Requirements</desc>
			<v:textBlock v:margins="rect(4,4,4,4)" v:tabSpace="42.5197"/>
			<v:textRect cx="63.3386" cy="469.873" width="126.68" height="24.0332"/>
			<rect x="0" y="457.857" width="126.677" height="24.0332" class="st7"/>
			<text x="4" y="473.47" class="st6" v:langID="1033"><v:paragraph/><v:tabList/>Requirements</text>		</g>
		<g id="shape7-53" v:mID="7" v:groupContext="shape" transform="translate(23.5591,-226.772)">
			<title>Sheet.7</title>
			<desc>Analysis and Design</desc>
			<v:textBlock v:margins="rect(4,4,4,4)" v:tabSpace="42.5197"/>
			<v:textRect cx="63.3386" cy="469.873" width="126.68" height="24.0332"/>
			<rect x="0" y="457.857" width="126.677" height="24.0332" class="st7"/>
			<text x="4" y="473.47" class="st6" v:langID="1033"><v:paragraph/><v:tabList/>Analysis and Design</text>		</g>
		<g id="shape8-56" v:mID="8" v:groupContext="shape" transform="translate(22.6772,-184.252)">
			<title>Sheet.8</title>
			<desc>Implementation</desc>
			<v:textBlock v:margins="rect(4,4,4,4)" v:tabSpace="42.5197"/>
			<v:textRect cx="63.3386" cy="469.873" width="126.68" height="24.0332"/>
			<rect x="0" y="457.857" width="126.677" height="24.0332" class="st7"/>
			<text x="4" y="473.47" class="st6" v:langID="1033"><v:paragraph/><v:tabList/>Implementation</text>		</g>
		<g id="shape9-59" v:mID="9" v:groupContext="shape" transform="translate(23.5591,-141.732)">
			<title>Sheet.9</title>
			<desc>Test</desc>
			<v:textBlock v:margins="rect(4,4,4,4)" v:tabSpace="42.5197"/>
			<v:textRect cx="63.3386" cy="469.873" width="126.68" height="24.0332"/>
			<rect x="0" y="457.857" width="126.677" height="24.0332" class="st7"/>
			<text x="4" y="473.47" class="st6" v:langID="1033"><v:paragraph/><v:tabList/>Test</text>		</g>
		<g id="shape10-62" v:mID="10" v:groupContext="shape" transform="translate(23.5591,-99.2126)">
			<title>Sheet.10</title>
			<desc>Deployment</desc>
			<v:textBlock v:margins="rect(4,4,4,4)" v:tabSpace="42.5197"/>
			<v:textRect cx="63.3386" cy="469.873" width="126.68" height="24.0332"/>
			<rect x="0" y="457.857" width="126.677" height="24.0332" class="st7"/>
			<text x="4" y="473.47" class="st6" v:langID="1033"><v:paragraph/><v:tabList/>Deployment</text>		</g>
		<g id="shape11-65" v:mID="11" v:groupContext="shape" transform="translate(22.6772,-70.8661)">
			<title>Sheet.11</title>
			<desc>Configuration and</desc>
			<v:textBlock v:margins="rect(4,4,4,4)" v:tabSpace="42.5197"/>
			<v:textRect cx="63.3386" cy="469.134" width="126.68" height="25.5118"/>
			<rect x="0" y="456.378" width="126.677" height="25.5118" class="st7"/>
			<text x="4" y="472.73" class="st6" v:langID="1033"><v:paragraph/><v:tabList/>Configuration and</text>		</g>
		<g id="shape12-68" v:mID="12" v:groupContext="shape" transform="translate(22.6772,-396.85)">
			<title>Sheet.12</title>
			<desc>Project Management</desc>
			<v:textBlock v:margins="rect(4,4,4,4)" v:tabSpace="42.5197"/>
			<v:textRect cx="63.3386" cy="469.873" width="126.68" height="24.0332"/>
			<rect x="0" y="457.857" width="126.677" height="24.0332" class="st7"/>
			<text x="4" y="473.47" class="st6" v:langID="1033"><v:paragraph/><v:tabList/>Project Management</text>		</g>
		<g id="shape28-71" v:mID="28" v:groupContext="shape" transform="translate(214.016,-184.252)">
			<title>Sheet.28</title>
			<path d="M382.68 481.89 L381.26 481.89 L0 481.89 C0 481.89 10.75 478.9 20.33 476.2 C95.14 455.14 97.96 452.38 115.47
						 450.48 C137.63 448.08 183.36 447.07 228.7 448.27 C253.63 448.93 278.44 450.25 298.13 455.24 C310.46 458.37
						 320.79 462.93 333.02 466.26 C350.86 471.13 372.76 473.39 382.68 481.89 Z" class="st8"/>
		</g>
		<g id="shape27-73" v:mID="27" v:groupContext="shape" transform="translate(196.3,-226.772)">
			<title>Sheet.27</title>
			<path d="M370.63 481.89 L369.27 481.89 L2.13 481.89 C-3.54 481.89 3.2 478.55 9.83 475.58 C61.64 452.39 106.47 452.08
						 140.66 453.21 C183.96 454.64 210.19 458.37 234.26 462.43 C247.49 464.66 260.08 466.99 273.58 468.23 C282.04
						 469.01 290.87 469.36 303.3 470.15 C321.43 471.3 347.24 473.39 370.63 481.89 Z" class="st8"/>
		</g>
		<g id="shape29-75" v:mID="29" v:groupContext="shape" transform="translate(161.575,-311.811)">
			<title>Sheet.29</title>
			<path d="M328.82 481.89 L0 481.89 C0 481.89 2.99 477.79 6.01 474.25 C29.57 446.6 54.69 453.39 75.06 457.04 C100.87 461.66
						 119.07 461.24 140.93 465.61 C152.95 468.01 166.08 471.86 183 472.78 C193.61 473.36 205.7 472.78 221.89 473.15
						 C245.49 473.68 277.8 476.22 328.82 481.89 Z" class="st8"/>
		</g>
		<g id="shape30-77" v:mID="30" v:groupContext="shape" transform="translate(187.087,-269.291)">
			<title>Sheet.30</title>
			<path d="M371.34 481.89 L369.99 481.89 L0 481.89 C-0 481.89 1.97 476.91 4.33 472.66 C22.79 439.38 65.38 449.94 90.17
						 455.12 C121.56 461.68 124.38 459.6 162.32 463.42 C183.19 465.52 214.67 469.4 238.98 471.37 C254.21 472.6
						 266.62 473.07 284.47 473.29 C310.51 473.61 348.13 473.39 371.34 481.89 Z" class="st8"/>
		</g>
		<g id="shape31-79" v:mID="31" v:groupContext="shape" transform="translate(229.606,-141.732)">
			<title>Sheet.31</title>
			<path d="M374.17 481.89 L372.79 481.89 L0 481.89 C0 481.89 11.06 479.58 21.15 477.55 C100.03 461.74 120.26 463.49 141.66
						 462.4 C168.78 461.02 197.79 455.1 234.16 456.59 C254.16 457.41 276.39 460.47 288.4 463.01 C295.93 464.61
						 299.44 465.99 311.44 467.18 C328.93 468.9 364.46 470.2 374.17 481.89 Z" class="st8"/>
		</g>
		<g id="shape32-81" v:mID="32" v:groupContext="shape" transform="translate(280.63,-99.2126)">
			<title>Sheet.32</title>
			<path d="M337.32 481.89 L336.14 481.89 L0 481.89 C2.83 481.89 12.36 479.66 20.97 477.69 C88.28 462.25 100.01 462.03 119.38
						 462.04 C143.92 462.05 180.73 462.44 208.71 461.84 C224.09 461.51 236.81 460.88 252.27 462.58 C261.95 463.64
						 272.72 465.62 285.82 467.07 C304.93 469.19 329.01 470.2 337.32 481.89 Z" class="st8"/>
		</g>
		<g id="shape33-83" v:mID="33" v:groupContext="shape" transform="translate(168.661,-396.85)">
			<title>Sheet.33</title>
			<path d="M432.28 481.89 L0 481.89 C0 481.89 1.29 479.69 2.9 477.74 C15.42 462.43 46.91 461.53 89.13 461.91 C142.61 462.41
						 213.3 464.97 254.07 465.09 C276.48 465.15 289.85 464.48 308.7 465.04 C320.51 465.39 334.47 466.22 350.88
						 467.23 C374.81 468.7 403.94 470.55 432.28 481.89 Z" class="st8"/>
		</g>
		<g id="shape34-85" v:mID="34" v:groupContext="shape" transform="translate(221.102,-354.331)">
			<title>Sheet.34</title>
			<path d="M269.29 481.89 L268.29 481.89 L0 481.89 C0 481.89 1.61 479.31 3.47 477.06 C18 459.47 47.85 461.63 72.38 462.8
						 C103.44 464.27 125.95 464.15 152.06 467.52 C166.42 469.37 181.86 472.28 194.89 474.12 C203.05 475.27 210.27
						 476.01 221.42 476.18 C237.68 476.41 262.3 475.43 269.29 481.89 Z" class="st8"/>
		</g>
		<g id="shape35-87" v:mID="35" v:groupContext="shape" transform="translate(246.614,-58.216)">
			<title>Sheet.35</title>
			<path d="M351.5 481.89 L350.19 481.89 L0 481.89 C0 481.89 5.31 479.25 10.68 476.98 C52.69 459.27 98.99 464.63 130.42
						 465.36 C170.24 466.27 186.19 459.74 218.68 460.74 C236.55 461.28 259.41 464.11 271.15 466.28 C278.51 467.64
						 281.49 468.74 292.62 469.7 C308.84 471.1 342.38 472.2 351.5 481.89 Z" class="st8"/>
		</g>
		<g id="shape38-89" v:mID="38" v:groupContext="shape" transform="translate(221.102,-439.37)">
			<title>Rectangle.38</title>
			<desc>Elaboration</desc>
			<v:userDefs>
				<v:ud v:nameU="visVersion" v:val="VT0(11):26"/>
			</v:userDefs>
			<v:textBlock v:margins="rect(4,4,4,4)" v:tabSpace="42.5197"/>
			<v:textRect cx="56.6929" cy="467.717" width="113.39" height="28.3465"/>
			<rect x="0" y="453.543" width="113.386" height="28.3465" class="st9"/>
			<text x="24.57" y="471.32" class="st6" v:langID="1033"><v:paragraph v:horizAlign="1"/><v:tabList/>Elaboration</text>		</g>
		<g id="shape36-92" v:mID="36" v:groupContext="shape" transform="translate(334.488,-439.37)">
			<title>Rectangle.36</title>
			<desc>Construction</desc>
			<v:userDefs>
				<v:ud v:nameU="visVersion" v:val="VT0(11):26"/>
			</v:userDefs>
			<v:textBlock v:margins="rect(4,4,4,4)" v:tabSpace="42.5197"/>
			<v:textRect cx="85.0394" cy="467.717" width="170.08" height="28.3465"/>
			<rect x="0" y="453.543" width="170.079" height="28.3465" class="st10"/>
			<text x="49.19" y="471.32" class="st6" v:langID="1033"><v:paragraph v:horizAlign="1"/><v:tabList/>Construction</text>		</g>
		<g id="shape39-95" v:mID="39" v:groupContext="shape" transform="translate(504.567,-439.37)">
			<title>Rectangle.39</title>
			<desc>Transition</desc>
			<v:userDefs>
				<v:ud v:nameU="visVersion" v:val="VT0(11):26"/>
			</v:userDefs>
			<v:textBlock v:margins="rect(4,4,4,4)" v:tabSpace="42.5197"/>
			<v:textRect cx="56.6929" cy="467.717" width="113.39" height="28.3465"/>
			<rect x="0" y="453.543" width="113.386" height="28.3465" class="st9"/>
			<text x="28.25" y="471.32" class="st6" v:langID="1033"><v:paragraph v:horizAlign="1"/><v:tabList/>Transition</text>		</g>
		<g id="shape40-98" v:mID="40" v:groupContext="shape" transform="translate(759.685,42.5197) rotate(90)">
			<title>Sheet.40</title>
			<path d="M0 481.89 L382.68 481.89" class="st11"/>
		</g>
		<g id="shape41-101" v:mID="41" v:groupContext="shape" transform="translate(816.378,42.9921) rotate(90)">
			<title>Sheet.41</title>
			<path d="M0 481.89 L382.2 481.89" class="st11"/>
		</g>
		<g id="shape42-104" v:mID="42" v:groupContext="shape" transform="translate(873.071,42.5197) rotate(90)">
			<title>Sheet.42</title>
			<path d="M0 481.89 L382.68 481.89" class="st11"/>
		</g>
		<g id="shape43-107" v:mID="43" v:groupContext="shape" transform="translate(929.764,42.5197) rotate(90)">
			<title>Sheet.43</title>
			<path d="M0 481.89 L382.68 481.89" class="st11"/>
		</g>
		<g id="shape44-110" v:mID="44" v:groupContext="shape" transform="translate(986.457,42.5197) rotate(90)">
			<title>Sheet.44</title>
			<path d="M0 481.89 L382.68 481.89" class="st11"/>
		</g>
		<g id="shape45-113" v:mID="45" v:groupContext="shape" transform="translate(1043.15,42.5197) rotate(90)">
			<title>Sheet.45</title>
			<path d="M0 481.89 L382.68 481.89" class="st11"/>
		</g>
		<g id="shape46-116" v:mID="46" v:groupContext="shape" transform="translate(1099.84,42.5197) rotate(90)">
			<title>Sheet.46</title>
			<path d="M0 481.89 L382.68 481.89" class="st11"/>
		</g>
		<g id="shape47-119" v:mID="47" v:groupContext="shape" transform="translate(637.795,42.5197) rotate(90)">
			<title>Sheet.47</title>
			<path d="M0 481.89 L382.68 481.89" class="st11"/>
		</g>
		<g id="shape48-122" v:mID="48" v:groupContext="shape" transform="translate(702.992,42.0472) rotate(90)">
			<title>Sheet.48</title>
			<path d="M0 481.89 L382.68 481.89" class="st11"/>
		</g>
		<g id="shape49-125" v:mID="49" v:groupContext="shape" transform="translate(22.6772,-439.843)">
			<title>Sheet.49</title>
			<path d="M0 481.89 L595.28 481.89" class="st12"/>
		</g>
		<g id="shape1-128" v:mID="1" v:groupContext="shape" transform="translate(22.6772,-396.85)">
			<title>Sheet.1</title>
			<path d="M0 481.89 L595.28 481.89" class="st12"/>
		</g>
		<g id="shape2-131" v:mID="2" v:groupContext="shape" transform="translate(22.6772,-355.039)">
			<title>Sheet.2</title>
			<path d="M0 481.89 L595.28 481.89" class="st12"/>
		</g>
		<g id="shape3-134" v:mID="3" v:groupContext="shape" transform="translate(22.6772,-311.811)">
			<title>Sheet.3</title>
			<path d="M0 481.89 L595.28 481.89" class="st12"/>
		</g>
		<g id="shape13-137" v:mID="13" v:groupContext="shape" transform="translate(23.5591,-269.291)">
			<title>Sheet.13</title>
			<path d="M0 481.89 L595.28 481.89" class="st12"/>
		</g>
		<g id="shape14-140" v:mID="14" v:groupContext="shape" transform="translate(22.6772,-226.772)">
			<title>Sheet.14</title>
			<path d="M0 481.89 L595.28 481.89" class="st12"/>
		</g>
		<g id="shape15-143" v:mID="15" v:groupContext="shape" transform="translate(22.6772,-184.252)">
			<title>Sheet.15</title>
			<path d="M0 481.89 L595.28 481.89" class="st12"/>
		</g>
		<g id="shape16-146" v:mID="16" v:groupContext="shape" transform="translate(22.6772,-141.732)">
			<title>Sheet.16</title>
			<path d="M0 481.89 L595.28 481.89" class="st12"/>
		</g>
		<g id="shape17-149" v:mID="17" v:groupContext="shape" transform="translate(22.6772,-99.2126)">
			<title>Sheet.17</title>
			<path d="M0 481.89 L595.28 481.89" class="st12"/>
		</g>
		<g id="shape18-152" v:mID="18" v:groupContext="shape" transform="translate(22.6772,-56.6929)">
			<title>Sheet.18</title>
			<path d="M0 481.89 L595.28 481.89" class="st12"/>
		</g>
		<g id="shape50-155" v:mID="50" v:groupContext="shape" transform="translate(504.567,42.5197) rotate(90)">
			<title>Sheet.50</title>
			<path d="M0 481.89 L382.68 481.89" class="st12"/>
		</g>
		<g id="shape58-158" v:mID="58" v:groupContext="shape" transform="translate(155.906,-14.1732)">
			<title>Sheet.58</title>
			<desc>Iterations</desc>
			<v:textBlock v:margins="rect(4,4,4,4)" v:tabSpace="42.5197"/>
			<v:textRect cx="231.024" cy="469.873" width="462.05" height="24.0332"/>
			<rect x="0" y="457.857" width="462.047" height="24.0332" class="st7"/>
			<text x="204.08" y="473.47" class="st6" v:langID="1033"><v:paragraph v:horizAlign="1"/><v:tabList/>Iterations</text>		</g>
		<g id="shape60-161" v:mID="60" v:groupContext="shape" transform="translate(22.6772,-56.6929)">
			<title>Sheet.60</title>
			<desc>Change Management</desc>
			<v:textBlock v:margins="rect(4,4,4,4)" v:tabSpace="42.5197"/>
			<v:textRect cx="63.3386" cy="470.551" width="126.68" height="22.6772"/>
			<rect x="0" y="459.213" width="126.677" height="22.6772" class="st7"/>
			<text x="4" y="474.15" class="st6" v:langID="1033"><v:paragraph/><v:tabList/>Change Management</text>		</g>
	</g>
</svg>
