<?xml version="1.0" encoding="UTF-8" standalone="no"?>
<!-- Created with Inkscape (http://www.inkscape.org/) -->

<svg
   version="1.1"
   id="svg1"
   width="200"
   height="290.78354"
   viewBox="0 0 111.11111 161.54641"
   sodipodi:docname="path185.svg"
   inkscape:version="1.4.2 (f4327f4, 2025-05-13)"
   xmlns:inkscape="http://www.inkscape.org/namespaces/inkscape"
   xmlns:sodipodi="http://sodipodi.sourceforge.net/DTD/sodipodi-0.dtd"
   xmlns="http://www.w3.org/2000/svg"
   xmlns:svg="http://www.w3.org/2000/svg">  <rect
     width="100%"
     height="100%"
     fill="#ffffff"
     id="rect1"
     x="2.1201773"
     y="3.9474571e-06" />
  <defs
     id="defs1">
    <clipPath
       clipPathUnits="userSpaceOnUse"
       id="clipPath2">
      <path
         d="M 28.799999,28.799999 H 1093.76 V 539.84003 H 28.799999 Z"
         clip-rule="evenodd"
         id="path2" />
    </clipPath>
    <clipPath
       clipPathUnits="userSpaceOnUse"
       id="clipPath191">
      <path
         d="M 28.799999,28.799999 V 764.96002 H 1093.76 V 28.799999 Z"
         clip-rule="evenodd"
         id="path191" />
    </clipPath>
    <clipPath
       clipPathUnits="userSpaceOnUse"
       id="clipPath196">
      <path
         d="M 28.799999,28.799999 V 764.96002 H 1093.76 V 28.799999 Z"
         clip-rule="evenodd"
         id="path196" />
    </clipPath>
    <clipPath
       clipPathUnits="userSpaceOnUse"
       id="clipPath201">
      <path
         d="M 28.799999,28.799999 V 764.96002 H 1093.76 V 28.799999 Z"
         clip-rule="evenodd"
         id="path201" />
    </clipPath>
    <clipPath
       clipPathUnits="userSpaceOnUse"
       id="clipPath206">
      <path
         d="M 28.799999,28.799999 V 764.96002 H 1093.76 V 28.799999 Z"
         clip-rule="evenodd"
         id="path206" />
    </clipPath>
    <clipPath
       clipPathUnits="userSpaceOnUse"
       id="clipPath211">
      <path
         d="M 28.799999,28.799999 V 764.96002 H 1093.76 V 28.799999 Z"
         clip-rule="evenodd"
         id="path211" />
    </clipPath>
    <clipPath
       clipPathUnits="userSpaceOnUse"
       id="clipPath216">
      <path
         d="M 28.799999,28.799999 V 764.96002 H 1093.76 V 28.799999 Z"
         clip-rule="evenodd"
         id="path216" />
    </clipPath>
    <clipPath
       clipPathUnits="userSpaceOnUse"
       id="clipPath221">
      <path
         d="M 28.799999,28.799999 V 764.96002 H 1093.76 V 28.799999 Z"
         clip-rule="evenodd"
         id="path221" />
    </clipPath>
    <clipPath
       clipPathUnits="userSpaceOnUse"
       id="clipPath226">
      <path
         d="M 28.799999,28.799999 V 764.96002 H 1093.76 V 28.799999 Z"
         clip-rule="evenodd"
         id="path226" />
    </clipPath>
    <clipPath
       clipPathUnits="userSpaceOnUse"
       id="clipPath231">
      <path
         d="M 28.799999,28.799999 V 764.96002 H 1093.76 V 28.799999 Z"
         clip-rule="evenodd"
         id="path231" />
    </clipPath>
    <clipPath
       clipPathUnits="userSpaceOnUse"
       id="clipPath236">
      <path
         d="M 28.799999,28.799999 V 764.96002 H 1093.76 V 28.799999 Z"
         clip-rule="evenodd"
         id="path236" />
    </clipPath>
    <clipPath
       clipPathUnits="userSpaceOnUse"
       id="clipPath241">
      <path
         d="M 28.799999,28.799999 V 764.96002 H 1093.76 V 28.799999 Z"
         transform="translate(-109.09,-142.66001)"
         clip-rule="evenodd"
         id="path241" />
    </clipPath>
    <clipPath
       clipPathUnits="userSpaceOnUse"
       id="clipPath243">
      <path
         d="M 28.799999,28.799999 V 764.96002 H 1093.76 V 28.799999 Z"
         clip-rule="evenodd"
         id="path243" />
    </clipPath>
    <clipPath
       clipPathUnits="userSpaceOnUse"
       id="clipPath248">
      <path
         d="M 28.799999,28.799999 V 764.96002 H 1093.76 V 28.799999 Z"
         clip-rule="evenodd"
         id="path248" />
    </clipPath>
    <clipPath
       clipPathUnits="userSpaceOnUse"
       id="clipPath253">
      <path
         d="M 28.799999,28.799999 V 764.96002 H 1093.76 V 28.799999 Z"
         clip-rule="evenodd"
         id="path253" />
    </clipPath>
    <clipPath
       clipPathUnits="userSpaceOnUse"
       id="clipPath258">
      <path
         d="M 28.799999,28.799999 V 764.96002 H 1093.76 V 28.799999 Z"
         clip-rule="evenodd"
         id="path258" />
    </clipPath>
    <clipPath
       clipPathUnits="userSpaceOnUse"
       id="clipPath260">
      <path
         d="M 28.799999,28.799999 V 764.96002 H 1093.76 V 28.799999 Z"
         clip-rule="evenodd"
         id="path260" />
    </clipPath>
    <clipPath
       clipPathUnits="userSpaceOnUse"
       id="clipPath262">
      <path
         d="M 28.799999,28.799999 V 764.96002 H 1093.76 V 28.799999 Z"
         clip-rule="evenodd"
         id="path262" />
    </clipPath>
  </defs>
  <sodipodi:namedview
     id="namedview1"
     pagecolor="#ffffff"
     bordercolor="#000000"
     borderopacity="0.25"
     inkscape:showpageshadow="2"
     inkscape:pageopacity="0.0"
     inkscape:pagecheckerboard="0"
     inkscape:deskcolor="#d1d1d1"
     inkscape:zoom="1.6422182"
     inkscape:cx="147.66613"
     inkscape:cy="137.61874"
     inkscape:window-width="1440"
     inkscape:window-height="830"
     inkscape:window-x="-6"
     inkscape:window-y="-6"
     inkscape:window-maximized="1"
     inkscape:current-layer="g1">
    <inkscape:page
       x="0"
       y="0"
       width="111.11111"
       height="161.54642"
       id="page2"
       margin="0"
       bleed="0" />
  </sodipodi:namedview>
  <g
     id="g1"
     inkscape:groupmode="layer"
     inkscape:label="1"
     transform="translate(-99.845997,-80.846001)">
    <path
       id="path1"
       d="M 1093.23,28.799999 H 28.799999 V 535.46997 H 1093.23 Z"
       style="fill:none;stroke:#808080;stroke-width:0.528;stroke-linecap:round;stroke-linejoin:miter;stroke-miterlimit:10;stroke-dasharray:none;stroke-opacity:1"
       clip-path="url(#clipPath2)" />
    <path
       id="path185"
       d="m 126.46594,228.04511 v -1.51942 h 5.58927 v 1.19383 c -0.45446,0.45446 -0.9225,1.10564 -1.41088,1.95353 -0.47482,0.85467 -0.83432,1.75682 -1.0853,2.71324 -0.25775,0.9632 -0.37985,1.81787 -0.37985,2.57757 h -1.57368 c 0.0339,-1.17347 0.27811,-2.37408 0.73258,-3.6086 0.44768,-1.22774 1.06494,-2.33339 1.845,-3.31015 z m 10.13395,6.91875 v -1.70934 h -3.50008 v -1.43801 l 3.71714,-5.42648 h 1.38375 v 5.42648 h 1.05816 v 1.43801 h -1.05816 v 1.70934 z m 0,-3.14735 v -2.9303 l -1.95353,2.9303 z m 4.13091,3.14735 v -8.4653 h 1.70934 v 7.02729 h 4.28691 v 1.43801 z m 7.04085,-2.7675 1.68221,-0.16279 c 0.0882,0.56299 0.28489,0.97676 0.59691,1.24809 0.32559,0.25775 0.74614,0.37985 1.27522,0.37985 0.54265,0 0.94964,-0.11531 1.22096,-0.35272 0.28489,-0.23063 0.43412,-0.51552 0.43412,-0.8411 0,-0.19671 -0.0678,-0.35951 -0.18993,-0.48839 -0.10853,-0.14244 -0.31202,-0.27132 -0.59691,-0.37985 -0.20349,-0.0678 -0.66474,-0.19671 -1.38375,-0.37985 -0.9225,-0.23063 -1.57368,-0.51552 -1.95353,-0.84111 -0.52909,-0.46803 -0.78684,-1.03781 -0.78684,-1.70934 0,-0.44768 0.12209,-0.85467 0.37985,-1.22096 0.25098,-0.37985 0.6037,-0.66474 1.05816,-0.86823 0.46804,-0.19671 1.03103,-0.29846 1.68221,-0.29846 1.0853,0 1.8857,0.23741 2.41478,0.70544 0.54265,0.47482 0.82754,1.09886 0.86824,1.87214 l -1.73647,0.0814 c -0.0746,-0.43411 -0.23741,-0.74614 -0.48838,-0.94963 -0.23741,-0.19671 -0.59013,-0.29846 -1.05817,-0.29846 -0.50873,0 -0.90893,0.10853 -1.19382,0.32559 -0.18315,0.12888 -0.27133,0.29846 -0.27133,0.51552 0,0.20349 0.0882,0.37307 0.27133,0.51551 0.21706,0.18315 0.73935,0.37307 1.57368,0.56978 0.82753,0.2035 1.44479,0.40699 1.845,0.62405 0.41377,0.21706 0.73257,0.50873 0.94963,0.86824 0.23063,0.36628 0.35272,0.81397 0.35272,1.35662 0,0.48838 -0.13567,0.94963 -0.40698,1.38375 -0.27133,0.43412 -0.66475,0.7597 -1.1667,0.97676 -0.48838,0.19671 -1.10564,0.29846 -1.845,0.29846 -1.08529,0 -1.91962,-0.25098 -2.49618,-0.75971 -0.58335,-0.50195 -0.9225,-1.22774 -1.03103,-2.17059 z m 12.61656,2.7675 h -1.62794 v -6.18618 c -0.59691,0.563 -1.30236,0.97677 -2.11633,1.24809 v -1.49228 c 0.41377,-0.1221 0.87502,-0.37985 1.38375,-0.75971 0.50195,-0.39342 0.84789,-0.85467 1.03103,-1.38375 h 1.32949 z m 2.49618,-1.98066 1.57368,-0.16279 c 0.0543,0.32558 0.16279,0.56978 0.32559,0.73257 0.16279,0.14923 0.36629,0.21706 0.62404,0.21706 0.33916,0 0.63083,-0.14923 0.86824,-0.46125 0.23062,-0.32559 0.38664,-0.97677 0.46125,-1.95353 -0.42055,0.48838 -0.93607,0.73257 -1.54655,0.73257 -0.67152,0 -1.24809,-0.25776 -1.73647,-0.78684 -0.48838,-0.5223 -0.73257,-1.20061 -0.73257,-2.03493 0,-0.86823 0.25097,-1.56011 0.7597,-2.08919 0.5223,-0.5223 1.18026,-0.78684 1.98067,-0.78684 0.86823,0 1.57368,0.33916 2.11632,1.0039 0.55622,0.67153 0.84111,1.77717 0.84111,3.31015 0,1.56011 -0.29167,2.68611 -0.86824,3.39155 -0.58334,0.69187 -1.32948,1.03103 -2.25199,1.03103 -0.67152,0 -1.21417,-0.17636 -1.62794,-0.54265 -0.42055,-0.3595 -0.67831,-0.89537 -0.78684,-1.60081 z m 3.71714,-3.58147 c 0,-0.5223 -0.12888,-0.92929 -0.37985,-1.22096 -0.23741,-0.28489 -0.51552,-0.43412 -0.84111,-0.43412 -0.31202,0 -0.563,0.12209 -0.75971,0.35272 -0.20349,0.23741 -0.29845,0.62405 -0.29845,1.16669 0,0.563 0.10853,0.96999 0.32559,1.22096 0.21706,0.25776 0.48838,0.37985 0.81397,0.37985 0.32559,0 0.59691,-0.11531 0.81397,-0.35272 0.21706,-0.25097 0.32559,-0.62404 0.32559,-1.11242 z m 6.098,5.56213 v -1.70934 h -3.50007 v -1.43801 l 3.71713,-5.42648 h 1.38375 v 5.42648 h 1.05817 v 1.43801 h -1.05817 v 1.70934 z m 0,-3.14735 v -2.9303 l -1.95353,2.9303 z m 3.82567,3.14735 v -8.5467 h 1.68221 l 3.47294,5.6978 v -5.6978 h 1.62795 v 8.5467 h -1.73648 l -3.44581,-5.56213 v 5.56213 z m 0,0"
       style="fill:#000000;fill-opacity:1;fill-rule:nonzero;stroke:none;stroke-width:1.73647"
       aria-label="74LS194N" />
    <path
       id="path186"
       d="M 187.50893,90.193318 H 122.37384 V 221.38383 h 65.13509 z"
       style="fill:none;stroke:#000000;stroke-width:0.916858;stroke-linecap:round;stroke-linejoin:miter;stroke-miterlimit:10;stroke-dasharray:none;stroke-opacity:1" />
    <path
       id="path187"
       d="m 105.9468,106.60298 h 0.27784 v 0.27784 h -0.27784 z"
       style="fill:#000000;fill-opacity:1;fill-rule:nonzero;stroke:none;stroke-width:1.73647" />
    <path
       id="path188"
       d="m 131.53291,106.94648 h -2.25199 l -0.46125,1.24808 h 0.65118 c 0.0882,0 0.14244,0.0203 0.16279,0.0543 0.0339,0.0407 0.0543,0.0814 0.0543,0.13567 0,0.0407 -0.0204,0.0746 -0.0543,0.10853 -0.0204,0.0407 -0.0746,0.0543 -0.16279,0.0543 h -1.27522 c -0.095,0 -0.15601,-0.0136 -0.18993,-0.0543 -0.0203,-0.0339 -0.0271,-0.0678 -0.0271,-0.10853 0,-0.0543 0.007,-0.095 0.0271,-0.13567 0.0339,-0.0339 0.095,-0.0543 0.18993,-0.0543 h 0.27132 l 1.49228,-4.06985 h -1.0039 c -0.0746,0 -0.12887,-0.007 -0.16279,-0.0271 -0.0407,-0.0339 -0.0543,-0.0814 -0.0543,-0.13566 0,-0.0543 0.0136,-0.0882 0.0543,-0.10853 0.0339,-0.0339 0.0882,-0.0543 0.16279,-0.0543 h 1.73648 l 1.65507,4.39544 h 0.27133 c 0.0678,0 0.12209,0.0204 0.16279,0.0543 0.0339,0.0407 0.0543,0.0814 0.0543,0.13566 0,0.0407 -0.0203,0.0746 -0.0543,0.10853 -0.0407,0.0407 -0.095,0.0543 -0.16279,0.0543 h -1.27523 c -0.095,0 -0.15601,-0.0136 -0.18992,-0.0543 -0.0407,-0.0339 -0.0543,-0.0678 -0.0543,-0.10853 0,-0.0543 0.0136,-0.095 0.0543,-0.13566 0.0339,-0.0339 0.095,-0.0543 0.18992,-0.0543 h 0.65118 z m -0.13566,-0.32559 -0.94963,-2.49618 h -0.13567 l -0.89537,2.49618 z m 0,0"
       style="fill:#000000;fill-opacity:1;fill-rule:nonzero;stroke:none;stroke-width:1.73647"
       aria-label="A" />
    <path
       id="path189"
       d="m 109.14869,102.72739 c 0.30524,0.12888 0.54265,0.31881 0.70544,0.56978 0.17636,0.25776 0.27132,0.50873 0.27132,0.75971 0,0.42055 -0.17636,0.78005 -0.51551,1.08529 -0.32559,0.31203 -0.74614,0.46125 -1.24809,0.46125 -0.29167,0 -0.59691,-0.0543 -0.9225,-0.16279 -0.31202,-0.1221 -0.52908,-0.25097 -0.65118,-0.37985 -0.0407,-0.0543 -0.0543,-0.10853 -0.0543,-0.1628 0,-0.0339 0.0136,-0.0678 0.0543,-0.10853 0.0339,-0.0339 0.0678,-0.0543 0.10853,-0.0543 0.0339,0 0.0814,0.0271 0.13566,0.0814 0.43412,0.31203 0.8818,0.46125 1.35662,0.46125 0.39342,0 0.71901,-0.12209 0.97677,-0.37985 0.27132,-0.25097 0.40698,-0.5223 0.40698,-0.81397 0,-0.21706 -0.0678,-0.41377 -0.18992,-0.59691 -0.12888,-0.19671 -0.31881,-0.35272 -0.56978,-0.46125 -0.25776,-0.1221 -0.50874,-0.18993 -0.75971,-0.18993 -0.0746,0 -0.12888,-0.007 -0.16279,-0.0271 -0.0407,-0.0339 -0.0543,-0.0814 -0.0543,-0.13566 0,-0.0543 0.0136,-0.0882 0.0543,-0.10853 0.0339,-0.0339 0.0814,-0.0543 0.13566,-0.0543 h 0.29845 c 0.30524,0 0.55622,-0.0882 0.75971,-0.27132 0.19671,-0.19671 0.29846,-0.41377 0.29846,-0.65118 0,-0.25098 -0.10853,-0.47482 -0.32559,-0.67831 -0.20349,-0.19671 -0.47482,-0.29846 -0.81397,-0.29846 -0.23741,0 -0.45447,0.0475 -0.65118,0.13567 -0.18314,0.0746 -0.33916,0.18314 -0.46125,0.32559 -0.0407,0.0543 -0.0746,0.095 -0.10853,0.10852 -0.0204,0 -0.0475,0 -0.0814,0 -0.0407,0 -0.0746,-0.007 -0.10853,-0.0271 -0.0407,-0.0339 -0.0543,-0.0814 -0.0543,-0.13566 0,-0.10853 0.11531,-0.24419 0.35272,-0.40698 0.32559,-0.23063 0.69187,-0.35272 1.11243,-0.35272 0.43411,0 0.78684,0.13566 1.05816,0.40698 0.28489,0.25776 0.43412,0.563 0.43412,0.9225 0,0.21706 -0.0746,0.43412 -0.21706,0.65118 -0.12888,0.20349 -0.31881,0.36629 -0.56978,0.48838 z m 0,0"
       style="fill:#000000;fill-opacity:1;fill-rule:nonzero;stroke:none;stroke-width:1.73647"
       aria-label="3" />
    <path
       id="path190"
       d="m 109.62,90.620003 h -9.51"
       style="fill:none;stroke:#000000;stroke-width:0.528;stroke-linecap:round;stroke-linejoin:round;stroke-miterlimit:10;stroke-dasharray:none;stroke-opacity:1"
       clip-path="url(#clipPath191)"
       transform="matrix(1.7364729,0,0,1.7364729,-67.978315,-50.651998)" />
    <path
       id="path192"
       d="m 105.9468,114.93805 h 0.27784 v 0.27783 h -0.27784 z"
       style="fill:#000000;fill-opacity:1;fill-rule:nonzero;stroke:none;stroke-width:1.73647" />
    <path
       id="path193"
       d="m 128.9282,116.25288 v -4.06986 h -0.46125 c -0.0746,0 -0.12888,-0.007 -0.16279,-0.0271 -0.0407,-0.0339 -0.0543,-0.0814 -0.0543,-0.13566 0,-0.0543 0.0136,-0.0882 0.0543,-0.10853 0.0339,-0.0339 0.0882,-0.0543 0.16279,-0.0543 h 2.17059 c 0.41377,0 0.75971,0.12887 1.03103,0.37985 0.27133,0.23741 0.40699,0.51551 0.40699,0.8411 0,0.42055 -0.23063,0.75293 -0.67831,1.0039 0.3595,0.12888 0.62404,0.29846 0.78684,0.51552 0.16279,0.21706 0.24419,0.45446 0.24419,0.70544 0,0.21706 -0.0543,0.42733 -0.16279,0.62404 -0.10853,0.18315 -0.28489,0.34594 -0.51552,0.48839 -0.21706,0.12888 -0.45447,0.18992 -0.70544,0.18992 h -2.57758 c -0.0746,0 -0.12888,-0.0136 -0.16279,-0.0543 -0.0407,-0.0339 -0.0543,-0.0678 -0.0543,-0.10853 0,-0.0543 0.0136,-0.095 0.0543,-0.13566 0.0339,-0.0339 0.0882,-0.0543 0.16279,-0.0543 z m 0.35272,-2.27912 h 1.19383 c 0.27132,0 0.51551,-0.0543 0.73257,-0.16279 0.1628,-0.0678 0.28489,-0.17636 0.37986,-0.32559 0.0882,-0.14245 0.13566,-0.28489 0.13566,-0.43412 0,-0.21706 -0.10175,-0.41377 -0.29846,-0.59691 -0.20349,-0.17636 -0.46125,-0.27133 -0.78684,-0.27133 h -1.35662 z m 0,2.27912 h 1.73648 c 0.21705,0 0.40698,-0.0407 0.56978,-0.13566 0.16279,-0.0882 0.2781,-0.20349 0.35272,-0.35272 0.0882,-0.14245 0.13566,-0.29846 0.13566,-0.46125 0,-0.1628 -0.0678,-0.32559 -0.18993,-0.48838 -0.10853,-0.1628 -0.27132,-0.28489 -0.48838,-0.37986 -0.21706,-0.0882 -0.51552,-0.13566 -0.89537,-0.13566 h -1.22096 z m 0,0"
       style="fill:#000000;fill-opacity:1;fill-rule:nonzero;stroke:none;stroke-width:1.73647"
       aria-label="B" />
    <path
       id="path194"
       d="m 109.09442,112.10841 h -2.27912 v -0.37985 l 1.89927,-3.28302 h 0.70544 v 3.33728 h 0.29846 c 0.0678,0 0.12209,0.0203 0.16279,0.0543 0.0339,0.0203 0.0543,0.0543 0.0543,0.10853 0,0.0543 -0.0204,0.10174 -0.0543,0.13566 -0.0407,0.0203 -0.095,0.0271 -0.16279,0.0271 h -0.29846 v 1.0853 h 0.29846 c 0.0678,0 0.12209,0.0203 0.16279,0.0543 0.0339,0.0407 0.0543,0.0814 0.0543,0.13566 0,0.0407 -0.0204,0.0746 -0.0543,0.10853 -0.0407,0.0407 -0.095,0.0543 -0.16279,0.0543 h -1.27522 c -0.095,0 -0.15602,-0.0136 -0.18993,-0.0543 -0.0407,-0.0339 -0.0543,-0.0678 -0.0543,-0.10853 0,-0.0543 0.0136,-0.095 0.0543,-0.13566 0.0339,-0.0339 0.095,-0.0543 0.18993,-0.0543 h 0.65117 z m 0,-0.32559 v -2.98456 h -0.18992 l -1.73648,2.98456 z m 0,0"
       style="fill:#000000;fill-opacity:1;fill-rule:nonzero;stroke:none;stroke-width:1.73647"
       aria-label="4" />
    <path
       id="path195"
       d="m 109.62,95.370003 h -9.51"
       style="fill:none;stroke:#000000;stroke-width:0.528;stroke-linecap:round;stroke-linejoin:round;stroke-miterlimit:10;stroke-dasharray:none;stroke-opacity:1"
       clip-path="url(#clipPath196)"
       transform="matrix(1.7364729,0,0,1.7364729,-67.978315,-50.651998)" />
    <path
       id="path197"
       d="m 105.9468,123.27312 h 0.27784 v 0.27783 h -0.27784 z"
       style="fill:#000000;fill-opacity:1;fill-rule:nonzero;stroke:none;stroke-width:1.73647" />
    <path
       id="path198"
       d="m 131.91276,120.65512 v -0.24419 c 0,-0.0678 0.007,-0.1221 0.0271,-0.1628 0.0339,-0.0339 0.0814,-0.0543 0.13566,-0.0543 0.0543,0 0.0882,0.0203 0.10853,0.0543 0.0339,0.0407 0.0543,0.095 0.0543,0.1628 v 0.94963 c 0,0.095 -0.0203,0.15601 -0.0543,0.18993 -0.0204,0.0204 -0.0543,0.0271 -0.10853,0.0271 -0.0543,0 -0.10175,-0.007 -0.13566,-0.0271 -0.0203,-0.0339 -0.0271,-0.0882 -0.0271,-0.1628 -0.0203,-0.23062 -0.14922,-0.4409 -0.37985,-0.62404 -0.32559,-0.23063 -0.69188,-0.35272 -1.08529,-0.35272 -0.25776,0 -0.50195,0.0678 -0.73258,0.18992 -0.18314,0.0746 -0.3188,0.17636 -0.40698,0.29846 -0.18315,0.21706 -0.32559,0.45447 -0.43412,0.70544 -0.0746,0.18314 -0.10853,0.4002 -0.10853,0.65118 v 0.59691 c 0,0.50873 0.17636,0.94963 0.54265,1.32949 0.3595,0.36628 0.78683,0.54265 1.27522,0.54265 0.30524,0 0.56978,-0.0611 0.78684,-0.18993 0.23062,-0.1221 0.46125,-0.31202 0.67831,-0.56978 0.0543,-0.0543 0.10853,-0.0814 0.16279,-0.0814 0.0543,0 0.0882,0.0203 0.10853,0.0543 0.0339,0.0203 0.0543,0.0543 0.0543,0.10853 0,0.0543 -0.0678,0.14922 -0.18992,0.27132 -0.21706,0.25776 -0.47482,0.44768 -0.75971,0.56978 -0.27132,0.1221 -0.54265,0.18993 -0.81397,0.18993 -0.25776,0 -0.50873,-0.0475 -0.75971,-0.13567 -0.20349,-0.0678 -0.36628,-0.14922 -0.48838,-0.24419 -0.12888,-0.10853 -0.28489,-0.2781 -0.46125,-0.51551 -0.18314,-0.23063 -0.31202,-0.44769 -0.37985,-0.65118 -0.0746,-0.19671 -0.10853,-0.41377 -0.10853,-0.65118 v -0.67831 c 0,-0.33915 0.0882,-0.68509 0.27132,-1.03103 0.17636,-0.3595 0.42055,-0.63083 0.73257,-0.81397 0.32559,-0.17636 0.66475,-0.27132 1.03104,-0.27132 0.55621,0 1.04459,0.18992 1.46514,0.56978 z m 0,0"
       style="fill:#000000;fill-opacity:1;fill-rule:nonzero;stroke:none;stroke-width:1.73647"
       aria-label="C" />
    <path
       id="path199"
       d="m 107.49361,117.13468 v 1.65508 c 0.21706,-0.0678 0.41377,-0.12209 0.59692,-0.16279 0.17636,-0.0543 0.35272,-0.0814 0.51551,-0.0814 0.43412,0 0.79362,0.15601 1.0853,0.46125 0.28489,0.29167 0.43411,0.67831 0.43411,1.16669 0,0.54265 -0.16279,0.99033 -0.48838,1.32949 -0.32559,0.32559 -0.73257,0.48838 -1.22096,0.48838 -0.32558,0 -0.64439,-0.0678 -0.94963,-0.18992 -0.20349,-0.10853 -0.39342,-0.23063 -0.56978,-0.37986 -0.10853,-0.0882 -0.16279,-0.16279 -0.16279,-0.21706 0,-0.0543 0.0136,-0.095 0.0543,-0.13566 0.0339,-0.0339 0.0678,-0.0543 0.10853,-0.0543 0.0543,0 0.10853,0.0271 0.16279,0.0814 0.39342,0.37986 0.84111,0.56978 1.32949,0.56978 0.39342,0 0.71901,-0.13566 0.97677,-0.40698 0.27132,-0.27133 0.40698,-0.63083 0.40698,-1.0853 0,-0.39342 -0.12209,-0.70544 -0.35272,-0.9225 -0.21706,-0.23062 -0.50195,-0.35272 -0.8411,-0.35272 -0.36629,0 -0.71901,0.095 -1.05816,0.27132 -0.095,0.0407 -0.15602,0.0543 -0.18993,0.0543 -0.0543,0 -0.10175,-0.007 -0.13566,-0.0271 -0.0204,-0.0339 -0.0271,-0.0882 -0.0271,-0.1628 v -2.25199 h 2.38765 c 0.0678,0 0.1221,0.0204 0.1628,0.0543 0.0339,0.0203 0.0543,0.0543 0.0543,0.10853 0,0.0543 -0.0203,0.10174 -0.0543,0.13566 -0.0407,0.0407 -0.095,0.0543 -0.1628,0.0543 z m 0,0"
       style="fill:#000000;fill-opacity:1;fill-rule:nonzero;stroke:none;stroke-width:1.73647"
       aria-label="5" />
    <path
       id="path200"
       d="m 109.62,100.13 h -9.51"
       style="fill:none;stroke:#000000;stroke-width:0.528;stroke-linecap:round;stroke-linejoin:round;stroke-miterlimit:10;stroke-dasharray:none;stroke-opacity:1"
       clip-path="url(#clipPath201)"
       transform="matrix(1.7364729,0,0,1.7364729,-67.978315,-50.651998)" />
    <path
       id="path202"
       d="m 105.9468,131.60819 h 0.27784 v 0.27783 h -0.27784 z"
       style="fill:#000000;fill-opacity:1;fill-rule:nonzero;stroke:none;stroke-width:1.73647" />
    <path
       id="path203"
       d="m 129.06386,132.92573 v -4.06986 h -0.29845 c -0.0746,0 -0.12888,-0.007 -0.1628,-0.0271 -0.0407,-0.0339 -0.0543,-0.0814 -0.0543,-0.13566 0,-0.0543 0.0136,-0.0882 0.0543,-0.10853 0.0339,-0.0339 0.0882,-0.0543 0.1628,-0.0543 h 1.845 c 0.28489,0 0.54943,0.0678 0.78684,0.18993 0.23062,0.10853 0.41377,0.23741 0.54265,0.37985 0.21706,0.25776 0.37985,0.52909 0.48838,0.81398 0.0678,0.21706 0.10853,0.47481 0.10853,0.7597 v 0.46125 c 0,0.34594 -0.0814,0.69188 -0.24419,1.03103 -0.14923,0.32559 -0.4002,0.61048 -0.75971,0.84111 -0.27132,0.18314 -0.58335,0.27132 -0.9225,0.27132 h -1.845 c -0.0746,0 -0.12888,-0.0136 -0.1628,-0.0543 -0.0407,-0.0339 -0.0543,-0.0678 -0.0543,-0.10853 0,-0.0543 0.0136,-0.095 0.0543,-0.13566 0.0339,-0.0339 0.0882,-0.0543 0.1628,-0.0543 z m 0.32559,0 h 1.24809 c 0.28489,0 0.55622,-0.0882 0.81397,-0.27132 0.25098,-0.17636 0.44091,-0.39342 0.56978,-0.65118 0.1221,-0.27132 0.18993,-0.52908 0.18993,-0.78684 v -0.62404 c 0,-0.21706 -0.0407,-0.40699 -0.10853,-0.56978 -0.10853,-0.23063 -0.24419,-0.46125 -0.40698,-0.67831 -0.10853,-0.1221 -0.26455,-0.23063 -0.46126,-0.32559 -0.18314,-0.10853 -0.37985,-0.1628 -0.59691,-0.1628 h -1.24809 z m 0,0"
       style="fill:#000000;fill-opacity:1;fill-rule:nonzero;stroke:none;stroke-width:1.73647"
       aria-label="D" />
    <path
       id="path204"
       d="m 107.43935,128.04869 c 0.19671,-0.30524 0.40698,-0.52908 0.62404,-0.67831 0.23063,-0.14244 0.48839,-0.21706 0.75971,-0.21706 0.3595,0 0.67831,0.15601 0.94963,0.46125 0.28489,0.29168 0.43412,0.66475 0.43412,1.11243 0,0.4002 -0.12888,0.77327 -0.37985,1.11243 -0.25776,0.32559 -0.61048,0.48838 -1.05816,0.48838 -0.29168,0 -0.56978,-0.095 -0.84111,-0.27132 -0.25776,-0.17636 -0.45447,-0.44769 -0.59691,-0.81397 -0.18314,-0.46804 -0.27133,-0.99034 -0.27133,-1.57368 0,-0.43412 0.0882,-0.82754 0.27133,-1.19383 0.12209,-0.28489 0.29845,-0.52908 0.51551,-0.73257 0.21706,-0.21706 0.46804,-0.39342 0.75971,-0.54265 0.28489,-0.14244 0.59691,-0.21706 0.9225,-0.21706 0.23063,0 0.42055,0.0475 0.56978,0.13566 0.0678,0.0543 0.10853,0.10853 0.10853,0.1628 0,0.0543 -0.0204,0.10174 -0.0543,0.13566 -0.0204,0.0407 -0.0543,0.0543 -0.10853,0.0543 -0.0407,0 -0.0814,-0.0136 -0.13566,-0.0543 -0.10853,-0.0543 -0.2442,-0.0814 -0.40699,-0.0814 -0.52908,0 -1.0039,0.23063 -1.43802,0.67831 -0.43412,0.45447 -0.65117,0.99712 -0.65117,1.62795 0,0.095 0.007,0.23062 0.0271,0.40698 z m 0.0543,0.56978 c 0.10853,0.50873 0.27133,0.86824 0.48839,1.0853 0.23062,0.20349 0.49516,0.29845 0.78684,0.29845 0.30523,0 0.56978,-0.11531 0.78683,-0.35272 0.21706,-0.23062 0.32559,-0.54265 0.32559,-0.9225 0,-0.3595 -0.10853,-0.65796 -0.32559,-0.89537 -0.21705,-0.23062 -0.46125,-0.35272 -0.73257,-0.35272 -0.27132,0 -0.52908,0.1221 -0.75971,0.35272 -0.16279,0.14923 -0.35272,0.40699 -0.56978,0.78684 z m 0,0"
       style="fill:#000000;fill-opacity:1;fill-rule:nonzero;stroke:none;stroke-width:1.73647"
       aria-label="6" />
    <path
       id="path205"
       d="m 109.62,104.88 h -9.51"
       style="fill:none;stroke:#000000;stroke-width:0.528;stroke-linecap:round;stroke-linejoin:round;stroke-miterlimit:10;stroke-dasharray:none;stroke-opacity:1"
       clip-path="url(#clipPath206)"
       transform="matrix(1.7364729,0,0,1.7364729,-67.978315,-50.651998)" />
    <path
       id="path207"
       d="m 105.9468,148.00049 h 0.27784 v 0.27784 h -0.27784 z"
       style="fill:#000000;fill-opacity:1;fill-rule:nonzero;stroke:none;stroke-width:1.73647" />
    <path
       id="path208"
       d="m 131.61431,145.24383 v -0.10853 c 0,-0.0678 0.0136,-0.12209 0.0543,-0.16279 0.0339,-0.0339 0.0678,-0.0543 0.10853,-0.0543 0.0543,0 0.095,0.0204 0.13566,0.0543 0.0339,0.0407 0.0543,0.095 0.0543,0.16279 v 0.86824 c 0,0.095 -0.0203,0.15601 -0.0543,0.18992 -0.0407,0.0204 -0.0814,0.0271 -0.13566,0.0271 -0.0407,0 -0.0746,-0.007 -0.10853,-0.0271 -0.0407,-0.0339 -0.0543,-0.0882 -0.0543,-0.16279 -0.0204,-0.23063 -0.13566,-0.4409 -0.35272,-0.62405 -0.21706,-0.17636 -0.50874,-0.27132 -0.86824,-0.27132 -0.37985,0 -0.67831,0.10175 -0.89537,0.29846 -0.21706,0.20349 -0.32559,0.42733 -0.32559,0.67831 0,0.14923 0.0271,0.27132 0.0814,0.37985 0.0678,0.10853 0.14923,0.20349 0.24419,0.27132 0.10853,0.0746 0.22384,0.12888 0.35272,0.1628 0.1221,0.0407 0.33237,0.0814 0.62405,0.13566 0.44768,0.0746 0.76649,0.14923 0.94963,0.21706 0.23063,0.10853 0.40699,0.26454 0.51552,0.46125 0.12209,0.18314 0.18992,0.4002 0.18992,0.65118 0,0.4002 -0.15601,0.73257 -0.46125,1.0039 -0.31202,0.27132 -0.72579,0.40698 -1.24809,0.40698 -0.59691,0 -1.07851,-0.18993 -1.43801,-0.56978 v 0.21706 c 0,0.0746 -0.0203,0.12888 -0.0543,0.16279 -0.0203,0.0407 -0.0543,0.0543 -0.10853,0.0543 -0.0543,0 -0.10174,-0.0136 -0.13566,-0.0543 -0.0204,-0.0339 -0.0271,-0.0882 -0.0271,-0.16279 v -0.94963 c 0,-0.0882 0.007,-0.14923 0.0271,-0.18993 0.0339,-0.0339 0.0814,-0.0543 0.13566,-0.0543 0.0543,0 0.0882,0.0203 0.10853,0.0543 0.0339,0.0407 0.0543,0.095 0.0543,0.16279 0.0136,0.25776 0.14922,0.4816 0.40698,0.67831 0.25098,0.2035 0.59691,0.29846 1.03103,0.29846 0.41377,0 0.74614,-0.095 1.0039,-0.29846 0.25098,-0.21705 0.37985,-0.47481 0.37985,-0.78683 0,-0.1628 -0.0543,-0.31203 -0.16279,-0.46126 -0.095,-0.14244 -0.23062,-0.25097 -0.40699,-0.32558 -0.12887,-0.0543 -0.4002,-0.11532 -0.81397,-0.18993 -0.56299,-0.10853 -0.96998,-0.25098 -1.22095,-0.43412 -0.25776,-0.19671 -0.37986,-0.47482 -0.37986,-0.8411 0,-0.35951 0.14245,-0.66475 0.43412,-0.9225 0.28489,-0.25098 0.66474,-0.37986 1.13956,-0.37986 0.46803,0 0.87502,0.14923 1.22096,0.43412 z m 3.18127,0 v 4.06986 h 2.27912 v -1.35662 c 0,-0.0678 0.0136,-0.1221 0.0543,-0.1628 0.0339,-0.0339 0.0678,-0.0543 0.10853,-0.0543 0.0543,0 0.095,0.0203 0.13566,0.0543 0.0339,0.0407 0.0543,0.095 0.0543,0.1628 v 1.70934 h -3.7714 c -0.095,0 -0.15601,-0.0136 -0.18993,-0.0543 -0.0407,-0.0339 -0.0543,-0.0678 -0.0543,-0.10852 0,-0.0543 0.0136,-0.095 0.0543,-0.13567 0.0339,-0.0339 0.095,-0.0543 0.18993,-0.0543 h 0.81397 v -4.06986 h -0.81397 c -0.095,0 -0.15601,-0.007 -0.18993,-0.0271 -0.0407,-0.0339 -0.0543,-0.0814 -0.0543,-0.13566 0,-0.0543 0.0136,-0.0882 0.0543,-0.10853 0.0339,-0.0339 0.095,-0.0543 0.18993,-0.0543 h 1.95353 c 0.0882,0 0.14923,0.0204 0.18993,0.0543 0.0339,0.0204 0.0543,0.0543 0.0543,0.10853 0,0.0543 -0.0204,0.10174 -0.0543,0.13566 -0.0407,0.0204 -0.10175,0.0271 -0.18993,0.0271 z m 0,0"
       style="fill:#000000;fill-opacity:1;fill-rule:nonzero;stroke:none;stroke-width:1.73647"
       aria-label="SL" />
    <path
       id="path209"
       d="m 109.58281,142.00152 v -0.13567 h -2.44192 v 0.29846 c 0,0.0746 -0.0204,0.12888 -0.0543,0.16279 -0.0204,0.0407 -0.0543,0.0543 -0.10853,0.0543 -0.0543,0 -0.10175,-0.0136 -0.13566,-0.0543 -0.0203,-0.0339 -0.0271,-0.0882 -0.0271,-0.16279 v -0.65118 h 3.12023 v 0.54265 l -1.35662,4.39545 c -0.0407,0.0746 -0.0746,0.12209 -0.10853,0.13566 -0.0203,0.0203 -0.0475,0.0271 -0.0814,0.0271 -0.0543,0 -0.10175,-0.007 -0.13566,-0.0271 -0.0204,-0.0339 -0.0271,-0.0814 -0.0271,-0.13566 0,-0.0136 0.007,-0.0543 0.0271,-0.10853 z m 0,0"
       style="fill:#000000;fill-opacity:1;fill-rule:nonzero;stroke:none;stroke-width:1.73647"
       aria-label="7" />
    <path
       id="path210"
       d="m 109.62,114.39 h -9.51"
       style="fill:none;stroke:#000000;stroke-width:0.528;stroke-linecap:round;stroke-linejoin:round;stroke-miterlimit:10;stroke-dasharray:none;stroke-opacity:1"
       clip-path="url(#clipPath211)"
       transform="matrix(1.7364729,0,0,1.7364729,-67.978315,-50.651998)" />
    <path
       id="path212"
       d="m 204.85628,106.60298 h 0.27785 v 0.27784 h -0.27785 z"
       style="fill:#000000;fill-opacity:1;fill-rule:nonzero;stroke:none;stroke-width:1.73647" />
    <path
       id="path213"
       d="m 172.40108,108.68295 -0.46125,0.35272 c 0.21706,-0.0543 0.40699,-0.0814 0.56978,-0.0814 0.23063,0 0.46803,0.0407 0.70544,0.13566 0.1628,0.0543 0.27811,0.0814 0.35272,0.0814 0.1628,0 0.33916,-0.0678 0.54265,-0.18993 0.0678,-0.0543 0.1221,-0.0814 0.1628,-0.0814 0.0339,0 0.0678,0.0136 0.10853,0.0543 0.0339,0.0339 0.0543,0.0814 0.0543,0.13566 0,0.0339 -0.0204,0.0678 -0.0543,0.10853 -0.0543,0.0543 -0.18315,0.1221 -0.37986,0.21706 -0.14922,0.0678 -0.29167,0.10853 -0.43412,0.10853 -0.12887,0 -0.29167,-0.0407 -0.48838,-0.10853 -0.20349,-0.0746 -0.39342,-0.10853 -0.56978,-0.10853 -0.12888,0 -0.29167,0.0136 -0.48838,0.0543 -0.27133,0.0339 -0.50195,0.0814 -0.67831,0.13566 -0.0543,0 -0.095,0 -0.10853,0 -0.0407,0 -0.0746,-0.0204 -0.10853,-0.0543 -0.0407,-0.0203 -0.0543,-0.0543 -0.0543,-0.10853 0,-0.0543 0.0271,-0.10853 0.0814,-0.16279 l 0.75971,-0.54265 c -0.45447,-0.10853 -0.84111,-0.37985 -1.16669,-0.81397 -0.31203,-0.44768 -0.46125,-0.99033 -0.46125,-1.62794 0,-0.73936 0.20349,-1.33627 0.62404,-1.79074 0.41377,-0.46803 0.89537,-0.70544 1.43802,-0.70544 0.55621,0 1.04459,0.23741 1.46515,0.70544 0.41376,0.45447 0.62404,1.05138 0.62404,1.79074 0,0.72579 -0.21028,1.3227 -0.62404,1.79073 -0.40021,0.45447 -0.86824,0.6851 -1.41089,0.70545 z m 1.68221,-2.49618 c 0,-0.55621 -0.16279,-1.05816 -0.48838,-1.49228 -0.31203,-0.44768 -0.72579,-0.67831 -1.24809,-0.67831 -0.47482,0 -0.88181,0.21706 -1.22096,0.65118 -0.34594,0.42055 -0.51552,0.9225 -0.51552,1.51941 0,0.63761 0.17636,1.15312 0.54265,1.54654 0.35951,0.40021 0.75971,0.59692 1.19383,0.59692 0.5223,0 0.93606,-0.21706 1.24809,-0.65118 0.32559,-0.43412 0.48838,-0.92928 0.48838,-1.49228 z m 4.6532,0.75971 h -2.25198 l -0.46125,1.24808 h 0.65117 c 0.0882,0 0.14245,0.0203 0.1628,0.0543 0.0339,0.0407 0.0543,0.0814 0.0543,0.13567 0,0.0407 -0.0204,0.0746 -0.0543,0.10853 -0.0204,0.0407 -0.0746,0.0543 -0.1628,0.0543 h -1.27522 c -0.095,0 -0.15601,-0.0136 -0.18993,-0.0543 -0.0204,-0.0339 -0.0271,-0.0678 -0.0271,-0.10853 0,-0.0543 0.007,-0.095 0.0271,-0.13567 0.0339,-0.0339 0.095,-0.0543 0.18993,-0.0543 h 0.27132 l 1.49229,-4.06985 h -1.0039 c -0.0746,0 -0.12888,-0.007 -0.1628,-0.0271 -0.0407,-0.0339 -0.0543,-0.0814 -0.0543,-0.13566 0,-0.0543 0.0136,-0.0882 0.0543,-0.10853 0.0339,-0.0339 0.0882,-0.0543 0.1628,-0.0543 h 1.73647 l 1.65508,4.39544 h 0.27132 c 0.0678,0 0.12209,0.0204 0.16279,0.0543 0.0339,0.0407 0.0543,0.0814 0.0543,0.13566 0,0.0407 -0.0204,0.0746 -0.0543,0.10853 -0.0407,0.0407 -0.095,0.0543 -0.16279,0.0543 h -1.27522 c -0.095,0 -0.15601,-0.0136 -0.18993,-0.0543 -0.0407,-0.0339 -0.0543,-0.0678 -0.0543,-0.10853 0,-0.0543 0.0136,-0.095 0.0543,-0.13566 0.0339,-0.0339 0.095,-0.0543 0.18993,-0.0543 h 0.65117 z m -0.13566,-0.32559 -0.94963,-2.49618 h -0.13566 l -0.89537,2.49618 z m 0,0"
       style="fill:#000000;fill-opacity:1;fill-rule:nonzero;stroke:none;stroke-width:1.73647"
       aria-label="QA" />
    <path
       id="path214"
       d="m 194.73781,100.31261 v 4.82956 h 1.19382 c 0.0678,0 0.1221,0.0203 0.1628,0.0543 0.0339,0.0407 0.0543,0.0814 0.0543,0.13567 0,0.0407 -0.0204,0.0746 -0.0543,0.10852 -0.0407,0.0407 -0.095,0.0543 -0.1628,0.0543 h -2.6861 c -0.095,0 -0.15602,-0.0136 -0.18993,-0.0543 -0.0407,-0.0339 -0.0543,-0.0678 -0.0543,-0.10852 0,-0.0543 0.0136,-0.095 0.0543,-0.13567 0.0339,-0.0339 0.095,-0.0543 0.18993,-0.0543 h 1.16669 V 100.801 l -1.11243,0.35272 c -0.0543,0.0204 -0.10175,0.0271 -0.13566,0.0271 -0.0407,0 -0.0746,-0.0136 -0.10853,-0.0543 -0.0407,-0.0339 -0.0543,-0.0814 -0.0543,-0.13567 0,-0.0339 0.0136,-0.0678 0.0543,-0.10852 0.0136,-0.0136 0.0611,-0.0407 0.13566,-0.0814 z m 3.88671,0.43412 v 1.65507 c 0.21706,-0.0678 0.41377,-0.12209 0.59691,-0.16279 0.17636,-0.0543 0.35272,-0.0814 0.51552,-0.0814 0.43412,0 0.79362,0.15601 1.08529,0.46125 0.28489,0.29167 0.43412,0.67831 0.43412,1.16669 0,0.54265 -0.16279,0.99033 -0.48838,1.32949 -0.32559,0.32559 -0.73257,0.48838 -1.22096,0.48838 -0.32559,0 -0.64439,-0.0678 -0.94963,-0.18993 -0.20349,-0.10853 -0.39342,-0.23062 -0.56978,-0.37985 -0.10853,-0.0882 -0.1628,-0.16279 -0.1628,-0.21706 0,-0.0543 0.0136,-0.095 0.0543,-0.13566 0.0339,-0.0339 0.0678,-0.0543 0.10853,-0.0543 0.0543,0 0.10853,0.0271 0.16279,0.0814 0.39342,0.37985 0.84111,0.56978 1.32949,0.56978 0.39342,0 0.71901,-0.13566 0.97677,-0.40699 0.27132,-0.27132 0.40698,-0.63082 0.40698,-1.08529 0,-0.39342 -0.12209,-0.70544 -0.35272,-0.9225 -0.21706,-0.23063 -0.50195,-0.35272 -0.8411,-0.35272 -0.36629,0 -0.71901,0.095 -1.05817,0.27132 -0.095,0.0407 -0.15601,0.0543 -0.18992,0.0543 -0.0543,0 -0.10175,-0.007 -0.13567,-0.0271 -0.0203,-0.0339 -0.0271,-0.0882 -0.0271,-0.16279 v -2.25199 h 2.38765 c 0.0678,0 0.1221,0.0203 0.1628,0.0543 0.0339,0.0203 0.0543,0.0543 0.0543,0.10853 0,0.0543 -0.0204,0.10175 -0.0543,0.13566 -0.0407,0.0407 -0.095,0.0543 -0.1628,0.0543 z m 0,0"
       style="fill:#000000;fill-opacity:1;fill-rule:nonzero;stroke:none;stroke-width:1.73647"
       aria-label="15" />
    <path
       id="path215"
       d="m 147.66,90.620003 h 9.51"
       style="fill:none;stroke:#000000;stroke-width:0.528;stroke-linecap:round;stroke-linejoin:round;stroke-miterlimit:10;stroke-dasharray:none;stroke-opacity:1"
       clip-path="url(#clipPath216)"
       transform="matrix(1.7364729,0,0,1.7364729,-67.978315,-50.651998)" />
    <path
       id="path217"
       d="m 204.85628,114.93805 h 0.27785 v 0.27783 h -0.27785 z"
       style="fill:#000000;fill-opacity:1;fill-rule:nonzero;stroke:none;stroke-width:1.73647" />
    <path
       id="path218"
       d="m 172.40108,116.74126 -0.46125,0.35273 c 0.21706,-0.0543 0.40699,-0.0814 0.56978,-0.0814 0.23063,0 0.46803,0.0407 0.70544,0.13566 0.1628,0.0543 0.27811,0.0814 0.35272,0.0814 0.1628,0 0.33916,-0.0678 0.54265,-0.18993 0.0678,-0.0543 0.1221,-0.0814 0.1628,-0.0814 0.0339,0 0.0678,0.0136 0.10853,0.0543 0.0339,0.0339 0.0543,0.0814 0.0543,0.13566 0,0.0339 -0.0204,0.0678 -0.0543,0.10853 -0.0543,0.0543 -0.18315,0.1221 -0.37986,0.21706 -0.14922,0.0678 -0.29167,0.10853 -0.43412,0.10853 -0.12887,0 -0.29167,-0.0407 -0.48838,-0.10853 -0.20349,-0.0746 -0.39342,-0.10853 -0.56978,-0.10853 -0.12888,0 -0.29167,0.0136 -0.48838,0.0543 -0.27133,0.0339 -0.50195,0.0814 -0.67831,0.13567 -0.0543,0 -0.095,0 -0.10853,0 -0.0407,0 -0.0746,-0.0203 -0.10853,-0.0543 -0.0407,-0.0203 -0.0543,-0.0543 -0.0543,-0.10853 0,-0.0543 0.0271,-0.10853 0.0814,-0.16279 l 0.75971,-0.54265 c -0.45447,-0.10853 -0.84111,-0.37985 -1.16669,-0.81397 -0.31203,-0.44769 -0.46125,-0.99033 -0.46125,-1.62794 0,-0.73936 0.20349,-1.33627 0.62404,-1.79074 0.41377,-0.46804 0.89537,-0.70544 1.43802,-0.70544 0.55621,0 1.04459,0.2374 1.46515,0.70544 0.41376,0.45447 0.62404,1.05138 0.62404,1.79074 0,0.72579 -0.21028,1.3227 -0.62404,1.79073 -0.40021,0.45447 -0.86824,0.6851 -1.41089,0.70544 z m 1.68221,-2.49617 c 0,-0.55622 -0.16279,-1.05817 -0.48838,-1.49229 -0.31203,-0.44768 -0.72579,-0.67831 -1.24809,-0.67831 -0.47482,0 -0.88181,0.21706 -1.22096,0.65118 -0.34594,0.42055 -0.51552,0.9225 -0.51552,1.51942 0,0.63761 0.17636,1.15312 0.54265,1.54654 0.35951,0.4002 0.75971,0.59691 1.19383,0.59691 0.5223,0 0.93606,-0.21706 1.24809,-0.65117 0.32559,-0.43412 0.48838,-0.92929 0.48838,-1.49228 z m 2.0485,2.00779 v -4.06986 h -0.46126 c -0.0746,0 -0.12887,-0.007 -0.16279,-0.0271 -0.0407,-0.0339 -0.0543,-0.0814 -0.0543,-0.13566 0,-0.0543 0.0136,-0.0882 0.0543,-0.10853 0.0339,-0.0339 0.0882,-0.0543 0.16279,-0.0543 h 2.1706 c 0.41376,0 0.7597,0.12887 1.03103,0.37985 0.27132,0.23741 0.40698,0.51551 0.40698,0.8411 0,0.42055 -0.23062,0.75293 -0.67831,1.0039 0.35951,0.12888 0.62405,0.29846 0.78684,0.51552 0.1628,0.21706 0.24419,0.45446 0.24419,0.70544 0,0.21706 -0.0543,0.42733 -0.16279,0.62404 -0.10853,0.18315 -0.28489,0.34594 -0.51552,0.48839 -0.21706,0.12888 -0.45446,0.18992 -0.70544,0.18992 h -2.57758 c -0.0746,0 -0.12887,-0.0136 -0.16279,-0.0543 -0.0407,-0.0339 -0.0543,-0.0678 -0.0543,-0.10853 0,-0.0543 0.0136,-0.095 0.0543,-0.13566 0.0339,-0.0339 0.0882,-0.0543 0.16279,-0.0543 z m 0.35272,-2.27912 h 1.19382 c 0.27133,0 0.51552,-0.0543 0.73258,-0.16279 0.16279,-0.0678 0.28489,-0.17636 0.37985,-0.32559 0.0882,-0.14245 0.13566,-0.28489 0.13566,-0.43412 0,-0.21706 -0.10175,-0.41377 -0.29846,-0.59691 -0.20349,-0.17636 -0.46125,-0.27133 -0.78683,-0.27133 h -1.35662 z m 0,2.27912 h 1.73647 c 0.21706,0 0.40698,-0.0407 0.56978,-0.13566 0.16279,-0.0882 0.27811,-0.20349 0.35272,-0.35272 0.0882,-0.14245 0.13566,-0.29846 0.13566,-0.46125 0,-0.1628 -0.0678,-0.32559 -0.18992,-0.48838 -0.10853,-0.1628 -0.27133,-0.28489 -0.48839,-0.37986 -0.21706,-0.0882 -0.51551,-0.13566 -0.89537,-0.13566 h -1.22095 z m 0,0"
       style="fill:#000000;fill-opacity:1;fill-rule:nonzero;stroke:none;stroke-width:1.73647"
       aria-label="QB" />
    <path
       id="path219"
       d="m 194.73781,108.36414 v 4.82957 h 1.19382 c 0.0678,0 0.1221,0.0203 0.1628,0.0543 0.0339,0.0407 0.0543,0.0814 0.0543,0.13566 0,0.0407 -0.0204,0.0746 -0.0543,0.10853 -0.0407,0.0407 -0.095,0.0543 -0.1628,0.0543 h -2.6861 c -0.095,0 -0.15602,-0.0136 -0.18993,-0.0543 -0.0407,-0.0339 -0.0543,-0.0678 -0.0543,-0.10853 0,-0.0543 0.0136,-0.095 0.0543,-0.13566 0.0339,-0.0339 0.095,-0.0543 0.18993,-0.0543 h 1.16669 v -4.34119 l -1.11243,0.35272 c -0.0543,0.0203 -0.10175,0.0271 -0.13566,0.0271 -0.0407,0 -0.0746,-0.0136 -0.10853,-0.0543 -0.0407,-0.0339 -0.0543,-0.0814 -0.0543,-0.13566 0,-0.0339 0.0136,-0.0678 0.0543,-0.10853 0.0136,-0.0136 0.0611,-0.0407 0.13566,-0.0814 z m 5.48752,3.74427 h -2.27912 v -0.37985 l 1.89927,-3.28302 h 0.70544 v 3.33728 h 0.29846 c 0.0678,0 0.12209,0.0203 0.16279,0.0543 0.0339,0.0203 0.0543,0.0543 0.0543,0.10853 0,0.0543 -0.0203,0.10174 -0.0543,0.13566 -0.0407,0.0203 -0.095,0.0271 -0.16279,0.0271 h -0.29846 v 1.0853 h 0.29846 c 0.0678,0 0.12209,0.0203 0.16279,0.0543 0.0339,0.0407 0.0543,0.0814 0.0543,0.13566 0,0.0407 -0.0203,0.0746 -0.0543,0.10853 -0.0407,0.0407 -0.095,0.0543 -0.16279,0.0543 h -1.27523 c -0.095,0 -0.15601,-0.0136 -0.18992,-0.0543 -0.0407,-0.0339 -0.0543,-0.0678 -0.0543,-0.10853 0,-0.0543 0.0136,-0.095 0.0543,-0.13566 0.0339,-0.0339 0.095,-0.0543 0.18992,-0.0543 h 0.65118 z m 0,-0.32559 v -2.98456 h -0.18992 l -1.73648,2.98456 z m 0,0"
       style="fill:#000000;fill-opacity:1;fill-rule:nonzero;stroke:none;stroke-width:1.73647"
       aria-label="14" />
    <path
       id="path220"
       d="m 147.66,95.370003 h 9.51"
       style="fill:none;stroke:#000000;stroke-width:0.528;stroke-linecap:round;stroke-linejoin:round;stroke-miterlimit:10;stroke-dasharray:none;stroke-opacity:1"
       clip-path="url(#clipPath221)"
       transform="matrix(1.7364729,0,0,1.7364729,-67.978315,-50.651998)" />
    <path
       id="path222"
       d="m 204.85628,123.27312 h 0.27785 v 0.27783 h -0.27785 z"
       style="fill:#000000;fill-opacity:1;fill-rule:nonzero;stroke:none;stroke-width:1.73647" />
    <path
       id="path223"
       d="m 172.40108,125.0777 -0.46125,0.35272 c 0.21706,-0.0543 0.40699,-0.0814 0.56978,-0.0814 0.23063,0 0.46803,0.0407 0.70544,0.13566 0.1628,0.0543 0.27811,0.0814 0.35272,0.0814 0.1628,0 0.33916,-0.0678 0.54265,-0.18993 0.0678,-0.0543 0.1221,-0.0814 0.1628,-0.0814 0.0339,0 0.0678,0.0136 0.10853,0.0543 0.0339,0.0339 0.0543,0.0814 0.0543,0.13566 0,0.0339 -0.0204,0.0678 -0.0543,0.10853 -0.0543,0.0543 -0.18315,0.1221 -0.37986,0.21706 -0.14922,0.0678 -0.29167,0.10853 -0.43412,0.10853 -0.12887,0 -0.29167,-0.0407 -0.48838,-0.10853 -0.20349,-0.0746 -0.39342,-0.10853 -0.56978,-0.10853 -0.12888,0 -0.29167,0.0136 -0.48838,0.0543 -0.27133,0.0339 -0.50195,0.0814 -0.67831,0.13566 -0.0543,0 -0.095,0 -0.10853,0 -0.0407,0 -0.0746,-0.0204 -0.10853,-0.0543 -0.0407,-0.0204 -0.0543,-0.0543 -0.0543,-0.10853 0,-0.0543 0.0271,-0.10853 0.0814,-0.16279 l 0.75971,-0.54265 c -0.45447,-0.10853 -0.84111,-0.37985 -1.16669,-0.81397 -0.31203,-0.44768 -0.46125,-0.99033 -0.46125,-1.62794 0,-0.73936 0.20349,-1.33627 0.62404,-1.79074 0.41377,-0.46803 0.89537,-0.70544 1.43802,-0.70544 0.55621,0 1.04459,0.23741 1.46515,0.70544 0.41376,0.45447 0.62404,1.05138 0.62404,1.79074 0,0.72579 -0.21028,1.3227 -0.62404,1.79073 -0.40021,0.45447 -0.86824,0.6851 -1.41089,0.70545 z m 1.68221,-2.49618 c 0,-0.55622 -0.16279,-1.05817 -0.48838,-1.49228 -0.31203,-0.44769 -0.72579,-0.67831 -1.24809,-0.67831 -0.47482,0 -0.88181,0.21705 -1.22096,0.65117 -0.34594,0.42056 -0.51552,0.9225 -0.51552,1.51942 0,0.63761 0.17636,1.15312 0.54265,1.54654 0.35951,0.40021 0.75971,0.59692 1.19383,0.59692 0.5223,0 0.93606,-0.21706 1.24809,-0.65118 0.32559,-0.43412 0.48838,-0.92929 0.48838,-1.49228 z m 5.03306,-1.9264 v -0.24419 c 0,-0.0678 0.007,-0.1221 0.0271,-0.1628 0.0339,-0.0339 0.0814,-0.0543 0.13566,-0.0543 0.0543,0 0.0882,0.0203 0.10853,0.0543 0.0339,0.0407 0.0543,0.095 0.0543,0.1628 v 0.94963 c 0,0.095 -0.0204,0.15601 -0.0543,0.18993 -0.0204,0.0204 -0.0543,0.0271 -0.10853,0.0271 -0.0543,0 -0.10174,-0.007 -0.13566,-0.0271 -0.0204,-0.0339 -0.0271,-0.0882 -0.0271,-0.1628 -0.0204,-0.23062 -0.14923,-0.4409 -0.37986,-0.62404 -0.32558,-0.23063 -0.69187,-0.35272 -1.08529,-0.35272 -0.25776,0 -0.50195,0.0678 -0.73258,0.18992 -0.18314,0.0746 -0.3188,0.17636 -0.40698,0.29846 -0.18315,0.21706 -0.32559,0.45447 -0.43412,0.70544 -0.0746,0.18314 -0.10853,0.4002 -0.10853,0.65118 v 0.59691 c 0,0.50873 0.17636,0.94963 0.54265,1.32949 0.3595,0.36628 0.78684,0.54265 1.27522,0.54265 0.30524,0 0.56978,-0.0611 0.78684,-0.18993 0.23063,-0.1221 0.46125,-0.31202 0.67831,-0.56978 0.0543,-0.0543 0.10853,-0.0814 0.16279,-0.0814 0.0543,0 0.0882,0.0203 0.10853,0.0543 0.0339,0.0203 0.0543,0.0543 0.0543,0.10853 0,0.0543 -0.0678,0.14922 -0.18993,0.27132 -0.21706,0.25776 -0.47482,0.44768 -0.75971,0.56978 -0.27132,0.1221 -0.54264,0.18993 -0.81397,0.18993 -0.25775,0 -0.50873,-0.0475 -0.7597,-0.13567 -0.2035,-0.0678 -0.36629,-0.14922 -0.48839,-0.24419 -0.12888,-0.10853 -0.28489,-0.2781 -0.46125,-0.51551 -0.18314,-0.23063 -0.31202,-0.44769 -0.37985,-0.65118 -0.0746,-0.19671 -0.10853,-0.41377 -0.10853,-0.65118 v -0.67831 c 0,-0.33915 0.0882,-0.68509 0.27132,-1.03103 0.17636,-0.3595 0.42056,-0.63083 0.73258,-0.81397 0.32559,-0.17636 0.66474,-0.27132 1.03103,-0.27132 0.55621,0 1.0446,0.18992 1.46515,0.56978 z m 0,0"
       style="fill:#000000;fill-opacity:1;fill-rule:nonzero;stroke:none;stroke-width:1.73647"
       aria-label="QC" />
    <path
       id="path224"
       d="m 194.73781,116.70057 v 4.82956 h 1.19382 c 0.0678,0 0.1221,0.0204 0.1628,0.0543 0.0339,0.0407 0.0543,0.0814 0.0543,0.13566 0,0.0407 -0.0204,0.0746 -0.0543,0.10853 -0.0407,0.0407 -0.095,0.0543 -0.1628,0.0543 h -2.6861 c -0.095,0 -0.15602,-0.0136 -0.18993,-0.0543 -0.0407,-0.0339 -0.0543,-0.0678 -0.0543,-0.10853 0,-0.0543 0.0136,-0.095 0.0543,-0.13566 0.0339,-0.0339 0.095,-0.0543 0.18993,-0.0543 h 1.16669 v -4.34118 l -1.11243,0.35272 c -0.0543,0.0204 -0.10175,0.0271 -0.13566,0.0271 -0.0407,0 -0.0746,-0.0136 -0.10853,-0.0543 -0.0407,-0.0339 -0.0543,-0.0814 -0.0543,-0.13566 0,-0.0339 0.0136,-0.0678 0.0543,-0.10853 0.0136,-0.0136 0.0611,-0.0407 0.13566,-0.0814 z m 5.54179,2.41478 c 0.30524,0.12888 0.54264,0.3188 0.70544,0.56978 0.17636,0.25776 0.27132,0.50873 0.27132,0.75971 0,0.42055 -0.17636,0.78005 -0.51551,1.08529 -0.32559,0.31202 -0.74614,0.46125 -1.24809,0.46125 -0.29168,0 -0.59691,-0.0543 -0.9225,-0.16279 -0.31203,-0.1221 -0.52909,-0.25098 -0.65118,-0.37986 -0.0407,-0.0543 -0.0543,-0.10853 -0.0543,-0.16279 0,-0.0339 0.0136,-0.0678 0.0543,-0.10853 0.0339,-0.0339 0.0678,-0.0543 0.10853,-0.0543 0.0339,0 0.0814,0.0271 0.13566,0.0814 0.43412,0.31203 0.8818,0.46125 1.35662,0.46125 0.39342,0 0.71901,-0.12209 0.97677,-0.37985 0.27132,-0.25097 0.40698,-0.5223 0.40698,-0.81397 0,-0.21706 -0.0678,-0.41377 -0.18992,-0.59691 -0.12888,-0.19671 -0.31881,-0.35273 -0.56979,-0.46125 -0.25775,-0.1221 -0.50873,-0.18993 -0.7597,-0.18993 -0.0746,0 -0.12888,-0.007 -0.1628,-0.0271 -0.0407,-0.0339 -0.0543,-0.0814 -0.0543,-0.13567 0,-0.0543 0.0136,-0.0882 0.0543,-0.10853 0.0339,-0.0339 0.0814,-0.0543 0.13567,-0.0543 h 0.29845 c 0.30524,0 0.55622,-0.0882 0.75971,-0.27132 0.19671,-0.19671 0.29846,-0.41377 0.29846,-0.65118 0,-0.25098 -0.10853,-0.47482 -0.32559,-0.67831 -0.2035,-0.19671 -0.47482,-0.29846 -0.81398,-0.29846 -0.2374,0 -0.45446,0.0475 -0.65117,0.13566 -0.18315,0.0746 -0.33916,0.18315 -0.46125,0.32559 -0.0407,0.0543 -0.0746,0.095 -0.10853,0.10853 -0.0204,0 -0.0475,0 -0.0814,0 -0.0407,0 -0.0746,-0.007 -0.10853,-0.0271 -0.0407,-0.0339 -0.0543,-0.0814 -0.0543,-0.13566 0,-0.10853 0.11531,-0.24419 0.35272,-0.40699 0.32559,-0.23062 0.69187,-0.35272 1.11242,-0.35272 0.43412,0 0.78684,0.13566 1.05817,0.40699 0.28489,0.25776 0.43412,0.56299 0.43412,0.9225 0,0.21706 -0.0746,0.43412 -0.21706,0.65118 -0.12888,0.20349 -0.31881,0.36628 -0.56978,0.48838 z m 0,0"
       style="fill:#000000;fill-opacity:1;fill-rule:nonzero;stroke:none;stroke-width:1.73647"
       aria-label="13" />
    <path
       id="path225"
       d="m 147.66,100.13 h 9.51"
       style="fill:none;stroke:#000000;stroke-width:0.528;stroke-linecap:round;stroke-linejoin:round;stroke-miterlimit:10;stroke-dasharray:none;stroke-opacity:1"
       clip-path="url(#clipPath226)"
       transform="matrix(1.7364729,0,0,1.7364729,-67.978315,-50.651998)" />
    <path
       id="path227"
       d="m 204.85628,131.60819 h 0.27785 v 0.27783 h -0.27785 z"
       style="fill:#000000;fill-opacity:1;fill-rule:nonzero;stroke:none;stroke-width:1.73647" />
    <path
       id="path228"
       d="m 172.40108,133.41411 -0.46125,0.35273 c 0.21706,-0.0543 0.40699,-0.0814 0.56978,-0.0814 0.23063,0 0.46803,0.0407 0.70544,0.13566 0.1628,0.0543 0.27811,0.0814 0.35272,0.0814 0.1628,0 0.33916,-0.0678 0.54265,-0.18993 0.0678,-0.0543 0.1221,-0.0814 0.1628,-0.0814 0.0339,0 0.0678,0.0136 0.10853,0.0543 0.0339,0.0339 0.0543,0.0814 0.0543,0.13566 0,0.0339 -0.0204,0.0678 -0.0543,0.10853 -0.0543,0.0543 -0.18315,0.1221 -0.37986,0.21706 -0.14922,0.0678 -0.29167,0.10853 -0.43412,0.10853 -0.12887,0 -0.29167,-0.0407 -0.48838,-0.10853 -0.20349,-0.0746 -0.39342,-0.10853 -0.56978,-0.10853 -0.12888,0 -0.29167,0.0136 -0.48838,0.0543 -0.27133,0.0339 -0.50195,0.0814 -0.67831,0.13567 -0.0543,0 -0.095,0 -0.10853,0 -0.0407,0 -0.0746,-0.0203 -0.10853,-0.0543 -0.0407,-0.0204 -0.0543,-0.0543 -0.0543,-0.10853 0,-0.0543 0.0271,-0.10853 0.0814,-0.16279 l 0.75971,-0.54265 c -0.45447,-0.10853 -0.84111,-0.37985 -1.16669,-0.81397 -0.31203,-0.44769 -0.46125,-0.99033 -0.46125,-1.62795 0,-0.73935 0.20349,-1.33627 0.62404,-1.79073 0.41377,-0.46804 0.89537,-0.70545 1.43802,-0.70545 0.55621,0 1.04459,0.23741 1.46515,0.70545 0.41376,0.45446 0.62404,1.05138 0.62404,1.79073 0,0.7258 -0.21028,1.32271 -0.62404,1.79074 -0.40021,0.45447 -0.86824,0.68509 -1.41089,0.70544 z m 1.68221,-2.49618 c 0,-0.55621 -0.16279,-1.05816 -0.48838,-1.49228 -0.31203,-0.44768 -0.72579,-0.67831 -1.24809,-0.67831 -0.47482,0 -0.88181,0.21706 -1.22096,0.65118 -0.34594,0.42055 -0.51552,0.9225 -0.51552,1.51941 0,0.63762 0.17636,1.15313 0.54265,1.54655 0.35951,0.4002 0.75971,0.59691 1.19383,0.59691 0.5223,0 0.93606,-0.21706 1.24809,-0.65117 0.32559,-0.43412 0.48838,-0.92929 0.48838,-1.49229 z m 2.18416,2.0078 v -4.06986 h -0.29846 c -0.0746,0 -0.12888,-0.007 -0.16279,-0.0271 -0.0407,-0.0339 -0.0543,-0.0814 -0.0543,-0.13566 0,-0.0543 0.0136,-0.0882 0.0543,-0.10853 0.0339,-0.0339 0.0882,-0.0543 0.16279,-0.0543 h 1.845 c 0.28489,0 0.54943,0.0678 0.78684,0.18993 0.23063,0.10853 0.41377,0.23741 0.54265,0.37985 0.21706,0.25776 0.37985,0.52909 0.48838,0.81398 0.0678,0.21706 0.10853,0.47481 0.10853,0.7597 v 0.46125 c 0,0.34594 -0.0814,0.69188 -0.24419,1.03103 -0.14923,0.32559 -0.4002,0.61048 -0.75971,0.84111 -0.27132,0.18314 -0.58334,0.27132 -0.9225,0.27132 h -1.845 c -0.0746,0 -0.12888,-0.0136 -0.16279,-0.0543 -0.0407,-0.0339 -0.0543,-0.0678 -0.0543,-0.10853 0,-0.0543 0.0136,-0.095 0.0543,-0.13566 0.0339,-0.0339 0.0882,-0.0543 0.16279,-0.0543 z m 0.32559,0 h 1.24809 c 0.28489,0 0.55621,-0.0882 0.81397,-0.27132 0.25097,-0.17636 0.4409,-0.39342 0.56978,-0.65118 0.12209,-0.27132 0.18992,-0.52908 0.18992,-0.78684 v -0.62404 c 0,-0.21706 -0.0407,-0.40699 -0.10853,-0.56978 -0.10853,-0.23063 -0.24419,-0.46125 -0.40698,-0.67831 -0.10853,-0.1221 -0.26454,-0.23063 -0.46125,-0.32559 -0.18315,-0.10853 -0.37986,-0.1628 -0.59691,-0.1628 h -1.24809 z m 0,0"
       style="fill:#000000;fill-opacity:1;fill-rule:nonzero;stroke:none;stroke-width:1.73647"
       aria-label="QD" />
    <path
       id="path229"
       d="m 194.73781,125.037 v 4.82956 h 1.19382 c 0.0678,0 0.1221,0.0203 0.1628,0.0543 0.0339,0.0407 0.0543,0.0814 0.0543,0.13566 0,0.0407 -0.0204,0.0746 -0.0543,0.10853 -0.0407,0.0407 -0.095,0.0543 -0.1628,0.0543 h -2.6861 c -0.095,0 -0.15602,-0.0136 -0.18993,-0.0543 -0.0407,-0.0339 -0.0543,-0.0678 -0.0543,-0.10853 0,-0.0543 0.0136,-0.095 0.0543,-0.13566 0.0339,-0.0339 0.095,-0.0543 0.18993,-0.0543 h 1.16669 v -4.34118 l -1.11243,0.35272 c -0.0543,0.0203 -0.10175,0.0271 -0.13566,0.0271 -0.0407,0 -0.0746,-0.0136 -0.10853,-0.0543 -0.0407,-0.0339 -0.0543,-0.0814 -0.0543,-0.13566 0,-0.0339 0.0136,-0.0678 0.0543,-0.10853 0.0136,-0.0136 0.0611,-0.0407 0.13566,-0.0814 z m 3.3712,4.82956 h 2.63184 v -0.13566 c 0,-0.0678 0.007,-0.1221 0.0271,-0.16279 0.0339,-0.0339 0.0814,-0.0543 0.13566,-0.0543 0.0543,0 0.0882,0.0203 0.10853,0.0543 0.0339,0.0407 0.0543,0.095 0.0543,0.16279 v 0.48838 h -3.28302 v -0.51551 c 0.68509,-0.61048 1.35662,-1.24809 2.00779,-1.89927 0.30524,-0.28489 0.51552,-0.50195 0.62405,-0.65118 0.12209,-0.14244 0.20349,-0.27132 0.24419,-0.37985 0.0339,-0.10853 0.0543,-0.21706 0.0543,-0.32559 0,-0.28489 -0.1221,-0.54265 -0.35273,-0.75971 -0.2374,-0.23062 -0.51551,-0.35272 -0.8411,-0.35272 -0.31202,0 -0.58335,0.095 -0.81397,0.27133 -0.21706,0.16279 -0.36629,0.37307 -0.43412,0.62404 -0.0204,0.0746 -0.0407,0.1221 -0.0543,0.13566 -0.0407,0.0204 -0.0746,0.0271 -0.10853,0.0271 -0.0543,0 -0.10175,-0.007 -0.13567,-0.0271 -0.0204,-0.0339 -0.0271,-0.0814 -0.0271,-0.13566 0,-0.12209 0.0678,-0.29845 0.21706,-0.51551 0.14245,-0.23063 0.33237,-0.41377 0.56978,-0.54265 0.25098,-0.1221 0.51552,-0.18993 0.78684,-0.18993 0.41377,0 0.77327,0.15601 1.0853,0.46125 0.30524,0.29168 0.46125,0.62405 0.46125,1.0039 0,0.14923 -0.0271,0.29167 -0.0814,0.43412 -0.0407,0.12888 -0.1221,0.27132 -0.24419,0.43412 -0.12888,0.14922 -0.35272,0.37985 -0.67831,0.70544 -0.80041,0.78006 -1.45158,1.39732 -1.95353,1.845 z m 0,0"
       style="fill:#000000;fill-opacity:1;fill-rule:nonzero;stroke:none;stroke-width:1.73647"
       aria-label="12" />
    <path
       id="path230"
       d="m 147.66,104.88 h 9.51"
       style="fill:none;stroke:#000000;stroke-width:0.528;stroke-linecap:round;stroke-linejoin:round;stroke-miterlimit:10;stroke-dasharray:none;stroke-opacity:1"
       clip-path="url(#clipPath231)"
       transform="matrix(1.7364729,0,0,1.7364729,-67.978315,-50.651998)" />
    <path
       id="path232"
       d="m 105.9468,156.33556 h 0.27784 v 0.27784 h -0.27784 z"
       style="fill:#000000;fill-opacity:1;fill-rule:nonzero;stroke:none;stroke-width:1.73647" />
    <path
       id="path233"
       d="m 131.61431,153.58027 v -0.10853 c 0,-0.0678 0.0136,-0.1221 0.0543,-0.16279 0.0339,-0.0339 0.0678,-0.0543 0.10853,-0.0543 0.0543,0 0.095,0.0203 0.13566,0.0543 0.0339,0.0407 0.0543,0.095 0.0543,0.16279 v 0.86824 c 0,0.095 -0.0203,0.15601 -0.0543,0.18992 -0.0407,0.0204 -0.0814,0.0271 -0.13566,0.0271 -0.0407,0 -0.0746,-0.007 -0.10853,-0.0271 -0.0407,-0.0339 -0.0543,-0.0882 -0.0543,-0.16279 -0.0204,-0.23063 -0.13566,-0.4409 -0.35272,-0.62405 -0.21706,-0.17636 -0.50874,-0.27132 -0.86824,-0.27132 -0.37985,0 -0.67831,0.10175 -0.89537,0.29846 -0.21706,0.20349 -0.32559,0.42733 -0.32559,0.67831 0,0.14922 0.0271,0.27132 0.0814,0.37985 0.0678,0.10853 0.14923,0.20349 0.24419,0.27132 0.10853,0.0746 0.22384,0.12888 0.35272,0.1628 0.1221,0.0407 0.33237,0.0814 0.62405,0.13566 0.44768,0.0746 0.76649,0.14923 0.94963,0.21706 0.23063,0.10853 0.40699,0.26454 0.51552,0.46125 0.12209,0.18314 0.18992,0.4002 0.18992,0.65118 0,0.4002 -0.15601,0.73257 -0.46125,1.00389 -0.31202,0.27133 -0.72579,0.40699 -1.24809,0.40699 -0.59691,0 -1.07851,-0.18993 -1.43801,-0.56978 v 0.21706 c 0,0.0746 -0.0203,0.12888 -0.0543,0.16279 -0.0203,0.0407 -0.0543,0.0543 -0.10853,0.0543 -0.0543,0 -0.10174,-0.0136 -0.13566,-0.0543 -0.0204,-0.0339 -0.0271,-0.0882 -0.0271,-0.16279 v -0.94963 c 0,-0.0882 0.007,-0.14923 0.0271,-0.18993 0.0339,-0.0339 0.0814,-0.0543 0.13566,-0.0543 0.0543,0 0.0882,0.0204 0.10853,0.0543 0.0339,0.0407 0.0543,0.095 0.0543,0.16279 0.0136,0.25776 0.14922,0.4816 0.40698,0.67831 0.25098,0.2035 0.59691,0.29846 1.03103,0.29846 0.41377,0 0.74614,-0.095 1.0039,-0.29846 0.25098,-0.21706 0.37985,-0.47481 0.37985,-0.78684 0,-0.16279 -0.0543,-0.31202 -0.16279,-0.46125 -0.095,-0.14244 -0.23062,-0.25097 -0.40699,-0.32559 -0.12887,-0.0543 -0.4002,-0.11531 -0.81397,-0.18992 -0.56299,-0.10853 -0.96998,-0.25098 -1.22095,-0.43412 -0.25776,-0.19671 -0.37986,-0.47482 -0.37986,-0.8411 0,-0.35951 0.14245,-0.66475 0.43412,-0.92251 0.28489,-0.25097 0.66474,-0.37985 1.13956,-0.37985 0.46803,0 0.87502,0.14923 1.22096,0.43412 z m 2.66576,2.30625 v 1.76361 h 0.62404 c 0.0882,0 0.14923,0.0204 0.18993,0.0543 0.0339,0.0407 0.0543,0.0814 0.0543,0.13566 0,0.0407 -0.0204,0.0746 -0.0543,0.10853 -0.0407,0.0407 -0.10175,0.0543 -0.18993,0.0543 h -1.41088 c -0.095,0 -0.15602,-0.0136 -0.18993,-0.0543 -0.0407,-0.0339 -0.0543,-0.0678 -0.0543,-0.10853 0,-0.0543 0.0136,-0.095 0.0543,-0.13566 0.0339,-0.0339 0.095,-0.0543 0.18993,-0.0543 h 0.46125 v -4.06986 h -0.46125 c -0.095,0 -0.15602,-0.007 -0.18993,-0.0271 -0.0407,-0.0339 -0.0543,-0.0814 -0.0543,-0.13567 0,-0.0543 0.0136,-0.0882 0.0543,-0.10852 0.0339,-0.0339 0.095,-0.0543 0.18993,-0.0543 h 2.06206 c 0.41377,0 0.76649,0.13566 1.05816,0.40699 0.30524,0.25775 0.46125,0.55621 0.46125,0.89537 0,0.25775 -0.095,0.48838 -0.27132,0.70544 -0.18315,0.21706 -0.48839,0.39342 -0.9225,0.51551 0.25097,0.18315 0.46125,0.37986 0.62404,0.59691 0.17636,0.2035 0.46125,0.62405 0.84111,1.27523 h 0.27132 c 0.0678,0 0.12209,0.0204 0.16279,0.0543 0.0339,0.0407 0.0543,0.0814 0.0543,0.13566 0,0.0407 -0.0204,0.0746 -0.0543,0.10853 -0.0407,0.0407 -0.095,0.0543 -0.16279,0.0543 h -0.46125 c -0.43412,-0.75971 -0.77327,-1.26166 -1.0039,-1.51942 -0.21706,-0.25097 -0.4816,-0.44768 -0.78684,-0.59691 z m 0,-0.35272 h 0.9225 c 0.30524,0 0.57656,-0.0543 0.81397,-0.16279 0.25097,-0.10853 0.43412,-0.23063 0.54265,-0.37986 0.10853,-0.14244 0.16279,-0.28489 0.16279,-0.43411 0,-0.23063 -0.12209,-0.44769 -0.35272,-0.65118 -0.21706,-0.21706 -0.50195,-0.32559 -0.8411,-0.32559 h -1.24809 z m 0,0"
       style="fill:#000000;fill-opacity:1;fill-rule:nonzero;stroke:none;stroke-width:1.73647"
       aria-label="SR" />
    <path
       id="path234"
       d="m 106.9781,154.59095 h 2.63184 v -0.13566 c 0,-0.0678 0.007,-0.12209 0.0271,-0.16279 0.0339,-0.0339 0.0814,-0.0543 0.13566,-0.0543 0.0543,0 0.0882,0.0204 0.10853,0.0543 0.0339,0.0407 0.0543,0.095 0.0543,0.16279 v 0.48838 h -3.28302 v -0.51551 c 0.68509,-0.61048 1.35662,-1.24809 2.0078,-1.89927 0.30524,-0.28489 0.51551,-0.50195 0.62404,-0.65117 0.1221,-0.14245 0.20349,-0.27133 0.24419,-0.37986 0.0339,-0.10853 0.0543,-0.21706 0.0543,-0.32559 0,-0.28489 -0.1221,-0.54264 -0.35272,-0.7597 -0.23741,-0.23063 -0.51552,-0.35272 -0.84111,-0.35272 -0.31202,0 -0.58334,0.095 -0.81397,0.27132 -0.21706,0.16279 -0.36629,0.37307 -0.43412,0.62404 -0.0204,0.0746 -0.0407,0.1221 -0.0543,0.13567 -0.0407,0.0204 -0.0746,0.0271 -0.10853,0.0271 -0.0543,0 -0.10175,-0.007 -0.13566,-0.0271 -0.0203,-0.0339 -0.0271,-0.0814 -0.0271,-0.13567 0,-0.12209 0.0678,-0.29845 0.21706,-0.51551 0.14245,-0.23063 0.33237,-0.41377 0.56978,-0.54265 0.25098,-0.12209 0.51552,-0.18993 0.78684,-0.18993 0.41377,0 0.77327,0.15602 1.0853,0.46125 0.30524,0.29168 0.46125,0.62405 0.46125,1.0039 0,0.14923 -0.0271,0.29168 -0.0814,0.43412 -0.0407,0.12888 -0.12209,0.27133 -0.24419,0.43412 -0.12888,0.14923 -0.35272,0.37985 -0.67831,0.70544 -0.80041,0.78006 -1.45158,1.39732 -1.95353,1.845 z m 0,0"
       style="fill:#000000;fill-opacity:1;fill-rule:nonzero;stroke:none;stroke-width:1.73647"
       aria-label="2" />
    <path
       id="path235"
       d="m 109.62,119.15 h -9.51"
       style="fill:none;stroke:#000000;stroke-width:0.528;stroke-linecap:round;stroke-linejoin:round;stroke-miterlimit:10;stroke-dasharray:none;stroke-opacity:1"
       clip-path="url(#clipPath236)"
       transform="matrix(1.7364729,0,0,1.7364729,-67.978315,-50.651998)" />
    <path
       id="path237"
       d="m 105.9468,197.45524 h 0.27784 v 0.27782 h -0.27784 z"
       style="fill:#000000;fill-opacity:1;fill-rule:nonzero;stroke:none;stroke-width:1.73647" />
    <path
       id="path238"
       d="m 131.96703,196.68684 c 0.0543,0 0.0882,0.0204 0.10853,0.0543 0.0339,0.0204 0.0543,0.0543 0.0543,0.10853 0,0.095 -0.12209,0.24419 -0.35272,0.46125 -0.23741,0.21705 -0.45447,0.32558 -0.65117,0.32558 -0.10853,0 -0.23063,-0.0271 -0.35273,-0.0814 -0.12888,-0.0678 -0.31202,-0.21706 -0.54264,-0.43412 -0.1628,-0.14245 -0.28489,-0.24419 -0.35272,-0.29846 -0.0746,-0.0543 -0.14923,-0.0814 -0.21706,-0.0814 -0.0746,0 -0.14923,0.0271 -0.21706,0.0814 -0.095,0.0543 -0.23063,0.17636 -0.40699,0.35272 -0.0746,0.095 -0.12209,0.14923 -0.13566,0.1628 -0.0203,0.0204 -0.0475,0.0271 -0.0814,0.0271 -0.0543,0 -0.10174,-0.0136 -0.13566,-0.0543 -0.0204,-0.0339 -0.0271,-0.0678 -0.0271,-0.10853 0,-0.0339 0.0339,-0.095 0.10853,-0.18993 0.17636,-0.23063 0.33237,-0.38664 0.46125,-0.46125 0.14244,-0.0882 0.28489,-0.13566 0.43412,-0.13566 0.10853,0 0.21706,0.0271 0.32558,0.0814 0.10853,0.0543 0.2442,0.15602 0.40699,0.29846 0.27132,0.25776 0.4409,0.40699 0.51552,0.46125 0.0678,0.0407 0.13566,0.0543 0.18992,0.0543 0.19671,0 0.40699,-0.14245 0.62405,-0.43412 0.0678,-0.0882 0.11531,-0.14245 0.13566,-0.1628 0.0339,-0.0136 0.0678,-0.0271 0.10853,-0.0271 z m 4.94488,-1.57368 v -0.24419 c 0,-0.0678 0.007,-0.12209 0.0271,-0.16279 0.0339,-0.0339 0.0814,-0.0543 0.13566,-0.0543 0.0543,0 0.0882,0.0204 0.10853,0.0543 0.0339,0.0407 0.0543,0.095 0.0543,0.16279 v 0.94963 c 0,0.095 -0.0204,0.15602 -0.0543,0.18993 -0.0204,0.0203 -0.0543,0.0271 -0.10853,0.0271 -0.0543,0 -0.10175,-0.007 -0.13566,-0.0271 -0.0204,-0.0339 -0.0271,-0.0882 -0.0271,-0.16279 -0.0204,-0.23063 -0.14923,-0.4409 -0.37986,-0.62405 -0.32559,-0.23062 -0.69187,-0.35272 -1.08529,-0.35272 -0.25776,0 -0.50195,0.0678 -0.73258,0.18993 -0.18314,0.0746 -0.3188,0.17636 -0.40698,0.29845 -0.18315,0.21706 -0.32559,0.45447 -0.43412,0.70545 -0.0746,0.18314 -0.10853,0.4002 -0.10853,0.65117 v 0.59692 c 0,0.50873 0.17636,0.94963 0.54265,1.32948 0.3595,0.36629 0.78684,0.54265 1.27522,0.54265 0.30524,0 0.56978,-0.061 0.78684,-0.18993 0.23062,-0.12209 0.46125,-0.31202 0.67831,-0.56978 0.0543,-0.0543 0.10853,-0.0814 0.16279,-0.0814 0.0543,0 0.0882,0.0204 0.10853,0.0543 0.0339,0.0204 0.0543,0.0543 0.0543,0.10853 0,0.0543 -0.0678,0.14923 -0.18993,0.27132 -0.21706,0.25776 -0.47482,0.44769 -0.75971,0.56978 -0.27132,0.1221 -0.54264,0.18993 -0.81397,0.18993 -0.25776,0 -0.50873,-0.0475 -0.7597,-0.13566 -0.2035,-0.0678 -0.36629,-0.14923 -0.48839,-0.24419 -0.12888,-0.10853 -0.28489,-0.27811 -0.46125,-0.51552 -0.18314,-0.23062 -0.31202,-0.44768 -0.37985,-0.65117 -0.0746,-0.19671 -0.10853,-0.41377 -0.10853,-0.65118 v -0.67831 c 0,-0.33916 0.0882,-0.68509 0.27132,-1.03103 0.17636,-0.35951 0.42055,-0.63083 0.73258,-0.81397 0.32559,-0.17636 0.66474,-0.27133 1.03103,-0.27133 0.55621,0 1.04459,0.18993 1.46515,0.56978 z m 3.13379,-0.13566 v 4.06986 h 2.27912 v -1.35662 c 0,-0.0678 0.0136,-0.1221 0.0543,-0.1628 0.0339,-0.0339 0.0678,-0.0543 0.10853,-0.0543 0.0543,0 0.095,0.0204 0.13566,0.0543 0.0339,0.0407 0.0543,0.095 0.0543,0.1628 v 1.70934 h -3.7714 c -0.095,0 -0.15601,-0.0136 -0.18993,-0.0543 -0.0407,-0.0339 -0.0543,-0.0678 -0.0543,-0.10852 0,-0.0543 0.0136,-0.095 0.0543,-0.13567 0.0339,-0.0339 0.095,-0.0543 0.18993,-0.0543 h 0.81397 v -4.06986 h -0.81397 c -0.095,0 -0.15601,-0.007 -0.18993,-0.0271 -0.0407,-0.0339 -0.0543,-0.0814 -0.0543,-0.13566 0,-0.0543 0.0136,-0.0882 0.0543,-0.10853 0.0339,-0.0339 0.095,-0.0543 0.18993,-0.0543 h 1.95353 c 0.0882,0 0.14923,0.0204 0.18993,0.0543 0.0339,0.0204 0.0543,0.0543 0.0543,0.10853 0,0.0543 -0.0203,0.10174 -0.0543,0.13566 -0.0407,0.0204 -0.10175,0.0271 -0.18993,0.0271 z m 4.49041,2.30625 v 1.76361 h 0.62404 c 0.0882,0 0.14923,0.0204 0.18993,0.0543 0.0339,0.0407 0.0543,0.0814 0.0543,0.13567 0,0.0407 -0.0204,0.0746 -0.0543,0.10852 -0.0407,0.0407 -0.10175,0.0543 -0.18993,0.0543 h -1.41088 c -0.095,0 -0.15601,-0.0136 -0.18993,-0.0543 -0.0407,-0.0339 -0.0543,-0.0678 -0.0543,-0.10852 0,-0.0543 0.0136,-0.095 0.0543,-0.13567 0.0339,-0.0339 0.095,-0.0543 0.18993,-0.0543 h 0.46125 v -4.06986 h -0.46125 c -0.095,0 -0.15601,-0.007 -0.18993,-0.0271 -0.0407,-0.0339 -0.0543,-0.0814 -0.0543,-0.13566 0,-0.0543 0.0136,-0.0882 0.0543,-0.10853 0.0339,-0.0339 0.095,-0.0543 0.18993,-0.0543 h 2.06206 c 0.41377,0 0.76649,0.13566 1.05816,0.40699 0.30524,0.25776 0.46125,0.55621 0.46125,0.89537 0,0.25775 -0.095,0.48838 -0.27132,0.70544 -0.18314,0.21706 -0.48838,0.39342 -0.9225,0.51551 0.25097,0.18315 0.46125,0.37986 0.62404,0.59692 0.17636,0.20349 0.46125,0.62404 0.84111,1.27522 h 0.27132 c 0.0678,0 0.12209,0.0204 0.1628,0.0543 0.0339,0.0407 0.0543,0.0814 0.0543,0.13567 0,0.0407 -0.0203,0.0746 -0.0543,0.10852 -0.0407,0.0407 -0.095,0.0543 -0.1628,0.0543 h -0.46125 c -0.43412,-0.75971 -0.77327,-1.26166 -1.0039,-1.51941 -0.21706,-0.25098 -0.4816,-0.44769 -0.78684,-0.59692 z m 0,-0.35272 h 0.9225 c 0.30524,0 0.57656,-0.0543 0.81397,-0.16279 0.25098,-0.10853 0.43412,-0.23063 0.54265,-0.37986 0.10853,-0.14244 0.16279,-0.28489 0.16279,-0.43411 0,-0.23063 -0.12209,-0.44769 -0.35272,-0.65118 -0.21706,-0.21706 -0.50195,-0.32559 -0.8411,-0.32559 h -1.24809 z m 0,0"
       style="fill:#000000;fill-opacity:1;fill-rule:nonzero;stroke:none;stroke-width:1.73647"
       aria-label="~CLR" />
    <path
       id="path239"
       d="m 108.60604,191.15863 v 4.82956 h 1.19383 c 0.0678,0 0.12209,0.0204 0.16279,0.0543 0.0339,0.0407 0.0543,0.0814 0.0543,0.13566 0,0.0407 -0.0204,0.0746 -0.0543,0.10853 -0.0407,0.0407 -0.095,0.0543 -0.16279,0.0543 h -2.68611 c -0.095,0 -0.15601,-0.0136 -0.18993,-0.0543 -0.0407,-0.0339 -0.0543,-0.0678 -0.0543,-0.10853 0,-0.0543 0.0136,-0.095 0.0543,-0.13566 0.0339,-0.0339 0.095,-0.0543 0.18993,-0.0543 h 1.16669 v -4.34118 l -1.11243,0.35272 c -0.0543,0.0204 -0.10174,0.0271 -0.13566,0.0271 -0.0407,0 -0.0746,-0.0136 -0.10853,-0.0543 -0.0407,-0.0339 -0.0543,-0.0814 -0.0543,-0.13566 0,-0.0339 0.0136,-0.0678 0.0543,-0.10853 0.0136,-0.0136 0.061,-0.0407 0.13566,-0.0814 z m 0,0"
       style="fill:#000000;fill-opacity:1;fill-rule:nonzero;stroke:none;stroke-width:1.73647"
       aria-label="1" />
    <path
       id="path240"
       d="m 0,0 c 0,-0.72 -0.59,-1.32 -1.32,-1.32 -0.73,0 -1.32,0.6 -1.32,1.32 0,0.72 0.59,1.32 1.32,1.32 C -0.59,1.32 0,0.72 0,0 Z"
       style="fill:none;stroke:#000000;stroke-width:0.528;stroke-linecap:round;stroke-linejoin:round;stroke-miterlimit:10;stroke-dasharray:none;stroke-opacity:1"
       transform="matrix(1.7364729,0,0,1.7364729,121.45351,197.07323)"
       clip-path="url(#clipPath241)" />
    <path
       id="path242"
       d="m 106.45,142.92 h -6.34"
       style="fill:none;stroke:#000000;stroke-width:0.528;stroke-linecap:round;stroke-linejoin:round;stroke-miterlimit:10;stroke-dasharray:none;stroke-opacity:1"
       clip-path="url(#clipPath243)"
       transform="matrix(1.7364729,0,0,1.7364729,-67.978315,-50.651998)" />
    <path
       id="path244"
       d="m 105.9468,172.72786 h 0.27784 v 0.27784 h -0.27784 z"
       style="fill:#000000;fill-opacity:1;fill-rule:nonzero;stroke:none;stroke-width:1.73647" />
    <path
       id="path245"
       d="m 131.61431,169.97501 v -0.10853 c 0,-0.0678 0.0136,-0.12209 0.0543,-0.16279 0.0339,-0.0339 0.0678,-0.0543 0.10853,-0.0543 0.0543,0 0.095,0.0204 0.13566,0.0543 0.0339,0.0407 0.0543,0.095 0.0543,0.16279 v 0.86824 c 0,0.095 -0.0203,0.15601 -0.0543,0.18992 -0.0407,0.0203 -0.0814,0.0271 -0.13566,0.0271 -0.0407,0 -0.0746,-0.007 -0.10853,-0.0271 -0.0407,-0.0339 -0.0543,-0.0882 -0.0543,-0.16279 -0.0204,-0.23062 -0.13566,-0.4409 -0.35272,-0.62404 -0.21706,-0.17636 -0.50874,-0.27133 -0.86824,-0.27133 -0.37985,0 -0.67831,0.10175 -0.89537,0.29846 -0.21706,0.20349 -0.32559,0.42733 -0.32559,0.67831 0,0.14923 0.0271,0.27132 0.0814,0.37985 0.0678,0.10853 0.14923,0.20349 0.24419,0.27133 0.10853,0.0746 0.22384,0.12887 0.35272,0.16279 0.1221,0.0407 0.33237,0.0814 0.62405,0.13566 0.44768,0.0746 0.76649,0.14923 0.94963,0.21706 0.23063,0.10853 0.40699,0.26454 0.51552,0.46125 0.12209,0.18314 0.18992,0.4002 0.18992,0.65118 0,0.4002 -0.15601,0.73257 -0.46125,1.0039 -0.31202,0.27132 -0.72579,0.40698 -1.24809,0.40698 -0.59691,0 -1.07851,-0.18992 -1.43801,-0.56978 v 0.21706 c 0,0.0746 -0.0203,0.12888 -0.0543,0.1628 -0.0203,0.0407 -0.0543,0.0543 -0.10853,0.0543 -0.0543,0 -0.10174,-0.0136 -0.13566,-0.0543 -0.0204,-0.0339 -0.0271,-0.0882 -0.0271,-0.1628 v -0.94963 c 0,-0.0882 0.007,-0.14923 0.0271,-0.18993 0.0339,-0.0339 0.0814,-0.0543 0.13566,-0.0543 0.0543,0 0.0882,0.0204 0.10853,0.0543 0.0339,0.0407 0.0543,0.095 0.0543,0.1628 0.0136,0.25775 0.14922,0.4816 0.40698,0.67831 0.25098,0.20349 0.59691,0.29845 1.03103,0.29845 0.41377,0 0.74614,-0.095 1.0039,-0.29845 0.25098,-0.21706 0.37985,-0.47482 0.37985,-0.78684 0,-0.1628 -0.0543,-0.31203 -0.16279,-0.46125 -0.095,-0.14245 -0.23062,-0.25098 -0.40699,-0.32559 -0.12887,-0.0543 -0.4002,-0.11532 -0.81397,-0.18993 -0.56299,-0.10853 -0.96998,-0.25097 -1.22095,-0.43412 -0.25776,-0.19671 -0.37986,-0.47482 -0.37986,-0.8411 0,-0.35951 0.14245,-0.66475 0.43412,-0.9225 0.28489,-0.25098 0.66474,-0.37986 1.13956,-0.37986 0.46803,0 0.87502,0.14923 1.22096,0.43412 z m 5.35186,1.43802 v 0.86823 c 0,0.7258 -0.17636,1.30236 -0.51551,1.73648 -0.29168,0.32559 -0.6444,0.48838 -1.05817,0.48838 -0.20349,0 -0.39342,-0.0407 -0.56978,-0.10853 -0.16279,-0.0678 -0.31202,-0.17636 -0.43412,-0.32559 -0.095,-0.0882 -0.18314,-0.23062 -0.27132,-0.43412 -0.095,-0.19671 -0.15601,-0.37985 -0.18993,-0.54264 -0.0746,-0.23063 -0.10853,-0.50195 -0.10853,-0.81398 v -0.86823 c 0,-0.71901 0.17637,-1.30236 0.54265,-1.73648 0.27133,-0.33915 0.61048,-0.51551 1.03103,-0.51551 0.19671,0 0.38664,0.0475 0.56978,0.13566 0.17636,0.0746 0.33238,0.18315 0.46125,0.32559 0.0678,0.095 0.14923,0.23741 0.2442,0.43412 0.0882,0.20349 0.16279,0.37985 0.21705,0.54265 0.0543,0.2374 0.0814,0.50873 0.0814,0.81397 z m -0.35272,0.0543 c 0,-0.32559 -0.0475,-0.62404 -0.13566,-0.89537 -0.095,-0.27132 -0.18993,-0.49516 -0.29846,-0.67831 -0.0746,-0.0882 -0.16279,-0.16957 -0.27132,-0.24419 -0.14923,-0.0882 -0.31881,-0.13566 -0.51552,-0.13566 -0.37985,0 -0.67831,0.20349 -0.89537,0.59691 -0.21705,0.37986 -0.32558,0.83432 -0.32558,1.35662 v 0.75971 c 0,0.32559 0.0407,0.63761 0.13566,0.9225 0.0882,0.27132 0.18992,0.48838 0.29845,0.65118 0.0678,0.095 0.1628,0.17636 0.27133,0.24419 0.16279,0.095 0.33237,0.13566 0.51551,0.13566 0.37986,0 0.67831,-0.18993 0.89537,-0.56978 0.21706,-0.39342 0.32559,-0.85467 0.32559,-1.38375 z m 0,0"
       style="fill:#000000;fill-opacity:1;fill-rule:nonzero;stroke:none;stroke-width:1.73647"
       aria-label="S0" />
    <path
       id="path246"
       d="m 109.85413,168.46238 c -0.18314,0.31202 -0.4002,0.54265 -0.65118,0.70544 -0.2374,0.14923 -0.4816,0.21706 -0.73257,0.21706 -0.23741,0 -0.46125,-0.0611 -0.67831,-0.18992 -0.21706,-0.14245 -0.4002,-0.33916 -0.54265,-0.59692 -0.12888,-0.27132 -0.18993,-0.54943 -0.18993,-0.8411 0,-0.41377 0.1221,-0.79362 0.37986,-1.13956 0.27132,-0.33916 0.62404,-0.51552 1.05816,-0.51552 0.30524,0 0.58335,0.10175 0.84111,0.29846 0.25097,0.20349 0.44768,0.4816 0.59691,0.8411 0.17636,0.47482 0.27132,1.01747 0.27132,1.62795 0,0.48838 -0.0814,0.89537 -0.24419,1.22095 -0.095,0.21706 -0.23741,0.42734 -0.43412,0.62405 -0.20349,0.20349 -0.42733,0.36629 -0.67831,0.48838 -0.34594,0.1628 -0.69866,0.24419 -1.05816,0.24419 -0.25776,0 -0.45447,-0.0475 -0.59691,-0.13566 -0.0746,-0.0339 -0.10853,-0.0882 -0.10853,-0.16279 0,-0.0339 0.007,-0.0678 0.0271,-0.10853 0.0339,-0.0339 0.0814,-0.0543 0.13566,-0.0543 0.0339,0 0.0814,0.0204 0.13566,0.0543 0.10853,0.0543 0.23063,0.0814 0.37986,0.0814 0.55621,0 1.04459,-0.20349 1.46515,-0.62404 0.41376,-0.41377 0.62404,-0.93607 0.62404,-1.57368 0,-0.10853 0,-0.25776 0,-0.46125 z m -0.0814,-0.56978 c -0.14922,-0.55621 -0.32559,-0.93607 -0.54264,-1.13956 -0.2035,-0.19671 -0.44769,-0.29846 -0.73258,-0.29846 -0.29167,0 -0.54265,0.12888 -0.75971,0.37986 -0.21705,0.23741 -0.32558,0.54265 -0.32558,0.9225 0,0.37985 0.10853,0.69866 0.32558,0.94963 0.21706,0.23741 0.46126,0.35272 0.73258,0.35272 0.16279,0 0.31202,-0.0407 0.46125,-0.13566 0.16279,-0.0882 0.31202,-0.22384 0.46125,-0.40698 0.0882,-0.10853 0.21706,-0.31203 0.37985,-0.62405 z m 0,0"
       style="fill:#000000;fill-opacity:1;fill-rule:nonzero;stroke:none;stroke-width:1.73647"
       aria-label="9" />
    <path
       id="path247"
       d="m 109.62,128.66 h -9.51"
       style="fill:none;stroke:#000000;stroke-width:0.528;stroke-linecap:round;stroke-linejoin:round;stroke-miterlimit:10;stroke-dasharray:none;stroke-opacity:1"
       clip-path="url(#clipPath248)"
       transform="matrix(1.7364729,0,0,1.7364729,-67.978315,-50.651998)" />
    <path
       id="path249"
       d="m 105.9468,181.06293 h 0.27784 v 0.27786 h -0.27784 z"
       style="fill:#000000;fill-opacity:1;fill-rule:nonzero;stroke:none;stroke-width:1.73647" />
    <path
       id="path250"
       d="m 131.61431,178.30466 v -0.10853 c 0,-0.0678 0.0136,-0.1221 0.0543,-0.1628 0.0339,-0.0339 0.0678,-0.0543 0.10853,-0.0543 0.0543,0 0.095,0.0203 0.13566,0.0543 0.0339,0.0407 0.0543,0.095 0.0543,0.1628 v 0.86823 c 0,0.095 -0.0203,0.15602 -0.0543,0.18993 -0.0407,0.0204 -0.0814,0.0271 -0.13566,0.0271 -0.0407,0 -0.0746,-0.007 -0.10853,-0.0271 -0.0407,-0.0339 -0.0543,-0.0882 -0.0543,-0.16279 -0.0204,-0.23063 -0.13566,-0.4409 -0.35272,-0.62405 -0.21706,-0.17636 -0.50874,-0.27132 -0.86824,-0.27132 -0.37985,0 -0.67831,0.10175 -0.89537,0.29845 -0.21706,0.2035 -0.32559,0.42734 -0.32559,0.67831 0,0.14923 0.0271,0.27133 0.0814,0.37986 0.0678,0.10853 0.14923,0.20349 0.24419,0.27132 0.10853,0.0746 0.22384,0.12888 0.35272,0.1628 0.1221,0.0407 0.33237,0.0814 0.62405,0.13566 0.44768,0.0746 0.76649,0.14923 0.94963,0.21706 0.23063,0.10853 0.40699,0.26454 0.51552,0.46125 0.12209,0.18314 0.18992,0.4002 0.18992,0.65118 0,0.4002 -0.15601,0.73257 -0.46125,1.00389 -0.31202,0.27133 -0.72579,0.40699 -1.24809,0.40699 -0.59691,0 -1.07851,-0.18993 -1.43801,-0.56978 v 0.21706 c 0,0.0746 -0.0203,0.12888 -0.0543,0.16279 -0.0203,0.0407 -0.0543,0.0543 -0.10853,0.0543 -0.0543,0 -0.10174,-0.0136 -0.13566,-0.0543 -0.0204,-0.0339 -0.0271,-0.0882 -0.0271,-0.16279 v -0.94964 c 0,-0.0882 0.007,-0.14922 0.0271,-0.18992 0.0339,-0.0339 0.0814,-0.0543 0.13566,-0.0543 0.0543,0 0.0882,0.0204 0.10853,0.0543 0.0339,0.0407 0.0543,0.095 0.0543,0.16279 0.0136,0.25776 0.14922,0.4816 0.40698,0.67831 0.25098,0.20349 0.59691,0.29846 1.03103,0.29846 0.41377,0 0.74614,-0.095 1.0039,-0.29846 0.25098,-0.21706 0.37985,-0.47481 0.37985,-0.78684 0,-0.16279 -0.0543,-0.31202 -0.16279,-0.46125 -0.095,-0.14244 -0.23062,-0.25097 -0.40699,-0.32559 -0.12887,-0.0543 -0.4002,-0.11531 -0.81397,-0.18992 -0.56299,-0.10853 -0.96998,-0.25098 -1.22095,-0.43412 -0.25776,-0.19671 -0.37986,-0.47482 -0.37986,-0.84111 0,-0.3595 0.14245,-0.66474 0.43412,-0.9225 0.28489,-0.25097 0.66474,-0.37985 1.13956,-0.37985 0.46803,0 0.87502,0.14923 1.22096,0.43412 z m 3.94098,-0.75971 v 4.82957 h 1.19382 c 0.0678,0 0.1221,0.0204 0.1628,0.0543 0.0339,0.0407 0.0543,0.0814 0.0543,0.13566 0,0.0407 -0.0204,0.0746 -0.0543,0.10853 -0.0407,0.0407 -0.095,0.0543 -0.1628,0.0543 h -2.6861 c -0.095,0 -0.15602,-0.0136 -0.18993,-0.0543 -0.0407,-0.0339 -0.0543,-0.0678 -0.0543,-0.10853 0,-0.0543 0.0136,-0.095 0.0543,-0.13566 0.0339,-0.0339 0.095,-0.0543 0.18993,-0.0543 h 1.16669 v -4.34119 l -1.11243,0.35273 c -0.0543,0.0203 -0.10175,0.0271 -0.13566,0.0271 -0.0407,0 -0.0746,-0.0136 -0.10853,-0.0543 -0.0407,-0.0339 -0.0543,-0.0814 -0.0543,-0.13566 0,-0.0339 0.0136,-0.0678 0.0543,-0.10853 0.0136,-0.0136 0.061,-0.0407 0.13566,-0.0814 z m 0,0"
       style="fill:#000000;fill-opacity:1;fill-rule:nonzero;stroke:none;stroke-width:1.73647"
       aria-label="S1" />
    <path
       id="path251"
       d="m 108.60604,174.49255 v 4.82956 h 1.19383 c 0.0678,0 0.12209,0.0203 0.16279,0.0543 0.0339,0.0407 0.0543,0.0814 0.0543,0.13566 0,0.0407 -0.0204,0.0746 -0.0543,0.10853 -0.0407,0.0407 -0.095,0.0543 -0.16279,0.0543 h -2.68611 c -0.095,0 -0.15601,-0.0136 -0.18993,-0.0543 -0.0407,-0.0339 -0.0543,-0.0678 -0.0543,-0.10853 0,-0.0543 0.0136,-0.095 0.0543,-0.13566 0.0339,-0.0339 0.095,-0.0543 0.18993,-0.0543 h 1.16669 v -4.34118 l -1.11243,0.35272 c -0.0543,0.0204 -0.10174,0.0271 -0.13566,0.0271 -0.0407,0 -0.0746,-0.0136 -0.10853,-0.0543 -0.0407,-0.0339 -0.0543,-0.0814 -0.0543,-0.13566 0,-0.0339 0.0136,-0.0678 0.0543,-0.10853 0.0136,-0.0136 0.061,-0.0407 0.13566,-0.0814 z m 6.41003,2.19772 v 0.86824 c 0,0.72579 -0.17636,1.30235 -0.51552,1.73647 -0.29167,0.32559 -0.64439,0.48838 -1.05816,0.48838 -0.20349,0 -0.39342,-0.0407 -0.56978,-0.10853 -0.1628,-0.0678 -0.31202,-0.17636 -0.43412,-0.32558 -0.095,-0.0882 -0.18314,-0.23063 -0.27132,-0.43412 -0.095,-0.19671 -0.15601,-0.37986 -0.18993,-0.54265 -0.0746,-0.23063 -0.10853,-0.50195 -0.10853,-0.81397 v -0.86824 c 0,-0.71901 0.17636,-1.30235 0.54265,-1.73647 0.27132,-0.33916 0.61048,-0.51552 1.03103,-0.51552 0.19671,0 0.38664,0.0475 0.56978,0.13567 0.17636,0.0746 0.33237,0.18314 0.46125,0.32558 0.0678,0.095 0.14923,0.23741 0.24419,0.43412 0.0882,0.2035 0.1628,0.37986 0.21706,0.54265 0.0543,0.23741 0.0814,0.50873 0.0814,0.81397 z m -0.35272,0.0543 c 0,-0.32559 -0.0475,-0.62405 -0.13567,-0.89537 -0.095,-0.27133 -0.18992,-0.49517 -0.29845,-0.67831 -0.0746,-0.0882 -0.1628,-0.16958 -0.27133,-0.24419 -0.14922,-0.0882 -0.3188,-0.13567 -0.51551,-0.13567 -0.37985,0 -0.67831,0.2035 -0.89537,0.59692 -0.21706,0.37985 -0.32559,0.83432 -0.32559,1.35662 v 0.7597 c 0,0.32559 0.0407,0.63761 0.13566,0.92251 0.0882,0.27132 0.18993,0.48838 0.29846,0.65117 0.0678,0.095 0.16279,0.17636 0.27132,0.24419 0.1628,0.095 0.33238,0.13567 0.51552,0.13567 0.37985,0 0.67831,-0.18993 0.89537,-0.56978 0.21706,-0.39342 0.32559,-0.85467 0.32559,-1.38376 z m 0,0"
       style="fill:#000000;fill-opacity:1;fill-rule:nonzero;stroke:none;stroke-width:1.73647"
       aria-label="10" />
    <path
       id="path252"
       d="m 109.62,133.41 h -9.51"
       style="fill:none;stroke:#000000;stroke-width:0.528;stroke-linecap:round;stroke-linejoin:round;stroke-miterlimit:10;stroke-dasharray:none;stroke-opacity:1"
       clip-path="url(#clipPath253)"
       transform="matrix(1.7364729,0,0,1.7364729,-67.978315,-50.651998)" />
    <path
       id="path254"
       d="m 105.9468,205.79029 h 0.27784 v 0.27785 h -0.27784 z"
       style="fill:#000000;fill-opacity:1;fill-rule:nonzero;stroke:none;stroke-width:1.73647" />
    <path
       id="path255"
       d="m 134.68705,203.17148 v -0.24419 c 0,-0.0678 0.007,-0.12209 0.0271,-0.16279 0.0339,-0.0339 0.0814,-0.0543 0.13566,-0.0543 0.0543,0 0.0882,0.0204 0.10853,0.0543 0.0339,0.0407 0.0543,0.095 0.0543,0.16279 v 0.94964 c 0,0.095 -0.0204,0.15601 -0.0543,0.18992 -0.0204,0.0204 -0.0543,0.0271 -0.10853,0.0271 -0.0543,0 -0.10175,-0.007 -0.13566,-0.0271 -0.0203,-0.0339 -0.0271,-0.0882 -0.0271,-0.16279 -0.0203,-0.23063 -0.14922,-0.4409 -0.37985,-0.62405 -0.32559,-0.23062 -0.69188,-0.35272 -1.0853,-0.35272 -0.25775,0 -0.50195,0.0678 -0.73257,0.18993 -0.18314,0.0746 -0.31881,0.17636 -0.40699,0.29845 -0.18314,0.21706 -0.32559,0.45447 -0.43411,0.70545 -0.0746,0.18314 -0.10853,0.4002 -0.10853,0.65117 v 0.59692 c 0,0.50873 0.17636,0.94963 0.54264,1.32948 0.35951,0.36629 0.78684,0.54265 1.27523,0.54265 0.30524,0 0.56978,-0.061 0.78684,-0.18993 0.23062,-0.12209 0.46125,-0.31202 0.6783,-0.56978 0.0543,-0.0543 0.10853,-0.0814 0.1628,-0.0814 0.0543,0 0.0882,0.0204 0.10853,0.0543 0.0339,0.0204 0.0543,0.0543 0.0543,0.10853 0,0.0543 -0.0678,0.14923 -0.18992,0.27133 -0.21706,0.25775 -0.47482,0.44768 -0.75971,0.56978 -0.27132,0.12209 -0.54265,0.18992 -0.81397,0.18992 -0.25776,0 -0.50873,-0.0475 -0.75971,-0.13566 -0.20349,-0.0678 -0.36629,-0.14923 -0.48838,-0.24419 -0.12888,-0.10853 -0.28489,-0.27811 -0.46125,-0.51552 -0.18315,-0.23062 -0.31202,-0.44768 -0.37986,-0.65117 -0.0746,-0.19671 -0.10853,-0.41377 -0.10853,-0.65118 v -0.67831 c 0,-0.33916 0.0882,-0.68509 0.27133,-1.03103 0.17636,-0.35951 0.42055,-0.63083 0.73257,-0.81397 0.32559,-0.17636 0.66475,-0.27133 1.03103,-0.27133 0.55622,0 1.0446,0.18993 1.46515,0.56978 z m 2.8896,-0.13566 v 4.06986 h 2.27912 v -1.35662 c 0,-0.0678 0.0136,-0.1221 0.0543,-0.16279 0.0339,-0.0339 0.0678,-0.0543 0.10853,-0.0543 0.0543,0 0.095,0.0203 0.13566,0.0543 0.0339,0.0407 0.0543,0.095 0.0543,0.16279 v 1.70934 h -3.7714 c -0.095,0 -0.15601,-0.0136 -0.18992,-0.0543 -0.0407,-0.0339 -0.0543,-0.0678 -0.0543,-0.10853 0,-0.0543 0.0136,-0.095 0.0543,-0.13567 0.0339,-0.0339 0.095,-0.0543 0.18992,-0.0543 h 0.81397 v -4.06986 h -0.81397 c -0.095,0 -0.15601,-0.007 -0.18992,-0.0271 -0.0407,-0.0339 -0.0543,-0.0814 -0.0543,-0.13566 0,-0.0543 0.0136,-0.0882 0.0543,-0.10853 0.0339,-0.0339 0.095,-0.0543 0.18992,-0.0543 h 1.95353 c 0.0882,0 0.14923,0.0204 0.18993,0.0543 0.0339,0.0204 0.0543,0.0543 0.0543,0.10853 0,0.0543 -0.0204,0.10174 -0.0543,0.13566 -0.0407,0.0204 -0.10175,0.0271 -0.18993,0.0271 z m 4.7346,2.55045 v 1.51941 h 0.65118 c 0.0678,0 0.1221,0.0204 0.1628,0.0543 0.0339,0.0407 0.0543,0.0814 0.0543,0.13567 0,0.0407 -0.0204,0.0746 -0.0543,0.10853 -0.0407,0.0407 -0.095,0.0543 -0.1628,0.0543 h -1.43802 c -0.095,0 -0.15601,-0.0136 -0.18992,-0.0543 -0.0407,-0.0339 -0.0543,-0.0678 -0.0543,-0.10853 0,-0.0543 0.0136,-0.095 0.0543,-0.13567 0.0339,-0.0339 0.095,-0.0543 0.18992,-0.0543 h 0.46126 v -4.06986 h -0.46126 c -0.095,0 -0.15601,-0.007 -0.18992,-0.0271 -0.0407,-0.0339 -0.0543,-0.0814 -0.0543,-0.13566 0,-0.0543 0.0136,-0.0882 0.0543,-0.10853 0.0339,-0.0339 0.095,-0.0543 0.18992,-0.0543 h 1.43802 c 0.0678,0 0.1221,0.0204 0.1628,0.0543 0.0339,0.0204 0.0543,0.0543 0.0543,0.10853 0,0.0543 -0.0204,0.10174 -0.0543,0.13566 -0.0407,0.0204 -0.095,0.0271 -0.1628,0.0271 h -0.65118 v 2.11633 l 2.36052,-2.11633 h -0.37985 c -0.0746,0 -0.12888,-0.007 -0.1628,-0.0271 -0.0407,-0.0339 -0.0543,-0.0814 -0.0543,-0.13566 0,-0.0543 0.0136,-0.0882 0.0543,-0.10853 0.0339,-0.0339 0.0882,-0.0543 0.1628,-0.0543 h 1.0039 c 0.0882,0 0.14922,0.0204 0.18992,0.0543 0.0339,0.0204 0.0543,0.0543 0.0543,0.10853 0,0.0543 -0.0204,0.10174 -0.0543,0.13566 -0.0407,0.0204 -0.10174,0.0271 -0.18992,0.0271 h -0.13567 l -1.87213,1.68221 c 0.28489,0.10853 0.5223,0.25776 0.70544,0.43412 0.17636,0.16279 0.35272,0.40698 0.51552,0.73257 0.10853,0.1628 0.28489,0.56978 0.54265,1.22096 h 0.43411 c 0.0882,0 0.14245,0.0204 0.1628,0.0543 0.0339,0.0407 0.0543,0.0814 0.0543,0.13567 0,0.0407 -0.0204,0.0746 -0.0543,0.10853 -0.0203,0.0407 -0.0746,0.0543 -0.1628,0.0543 h -0.65117 c -0.36629,-0.97677 -0.67153,-1.60081 -0.92251,-1.87213 -0.2374,-0.28489 -0.53586,-0.48839 -0.89536,-0.59692 z m 0,0"
       style="fill:#000000;fill-opacity:1;fill-rule:nonzero;stroke:none;stroke-width:1.73647"
       aria-label="CLK" />
    <path
       id="path256"
       d="m 108.60604,199.21694 v 4.82957 h 1.19383 c 0.0678,0 0.12209,0.0203 0.16279,0.0543 0.0339,0.0407 0.0543,0.0814 0.0543,0.13567 0,0.0407 -0.0204,0.0746 -0.0543,0.10853 -0.0407,0.0407 -0.095,0.0543 -0.16279,0.0543 h -2.68611 c -0.095,0 -0.15601,-0.0136 -0.18993,-0.0543 -0.0407,-0.0339 -0.0543,-0.0678 -0.0543,-0.10853 0,-0.0543 0.0136,-0.095 0.0543,-0.13567 0.0339,-0.0339 0.095,-0.0543 0.18993,-0.0543 h 1.16669 v -4.34118 l -1.11243,0.35272 c -0.0543,0.0203 -0.10174,0.0271 -0.13566,0.0271 -0.0407,0 -0.0746,-0.0136 -0.10853,-0.0543 -0.0407,-0.0339 -0.0543,-0.0814 -0.0543,-0.13567 0,-0.0339 0.0136,-0.0678 0.0543,-0.10853 0.0136,-0.0136 0.061,-0.0407 0.13566,-0.0814 z m 4.99914,0 v 4.82957 h 1.19383 c 0.0678,0 0.12209,0.0203 0.16279,0.0543 0.0339,0.0407 0.0543,0.0814 0.0543,0.13567 0,0.0407 -0.0204,0.0746 -0.0543,0.10853 -0.0407,0.0407 -0.095,0.0543 -0.16279,0.0543 h -2.68611 c -0.095,0 -0.15601,-0.0136 -0.18992,-0.0543 -0.0407,-0.0339 -0.0543,-0.0678 -0.0543,-0.10853 0,-0.0543 0.0136,-0.095 0.0543,-0.13567 0.0339,-0.0339 0.095,-0.0543 0.18992,-0.0543 h 1.16669 v -4.34118 l -1.11242,0.35272 c -0.0543,0.0203 -0.10175,0.0271 -0.13567,0.0271 -0.0407,0 -0.0746,-0.0136 -0.10852,-0.0543 -0.0407,-0.0339 -0.0543,-0.0814 -0.0543,-0.13567 0,-0.0339 0.0136,-0.0678 0.0543,-0.10853 0.0136,-0.0136 0.061,-0.0407 0.13566,-0.0814 z m 0,0"
       style="fill:#000000;fill-opacity:1;fill-rule:nonzero;stroke:none;stroke-width:1.73647"
       aria-label="11" />
    <path
       id="path257"
       d="m 109.62,147.67999 h -9.51"
       style="fill:none;stroke:#000000;stroke-width:0.528;stroke-linecap:round;stroke-linejoin:round;stroke-miterlimit:10;stroke-dasharray:none;stroke-opacity:1"
       clip-path="url(#clipPath258)"
       transform="matrix(1.7364729,0,0,1.7364729,-67.978315,-50.651998)" />
    <path
       id="path259"
       d="m 112.26,147.67999 -2.64,1.58"
       style="fill:none;stroke:#000000;stroke-width:0.528;stroke-linecap:round;stroke-linejoin:round;stroke-miterlimit:10;stroke-dasharray:none;stroke-opacity:1"
       clip-path="url(#clipPath260)"
       transform="matrix(1.7364729,0,0,1.7364729,-67.978315,-50.651998)" />
    <path
       id="path261"
       d="M 112.26,147.67999 109.62,146.09"
       style="fill:none;stroke:#000000;stroke-width:0.528;stroke-linecap:round;stroke-linejoin:round;stroke-miterlimit:10;stroke-dasharray:none;stroke-opacity:1"
       clip-path="url(#clipPath262)"
       transform="matrix(1.7364729,0,0,1.7364729,-67.978315,-50.651998)" />
  </g>
</svg>
