<?xml version="1.0" encoding="UTF-8" standalone="no"?>
<!-- Created with Inkscape (http://www.inkscape.org/) -->

<svg
   version="1.1"
   id="svg1"
   width="200"
   height="208.50604"
   viewBox="0 0 90.909091 94.775474"
   sodipodi:docname="7490.svg"
   inkscape:version="1.4.2 (f4327f4, 2025-05-13)"
   xmlns:inkscape="http://www.inkscape.org/namespaces/inkscape"
   xmlns:sodipodi="http://sodipodi.sourceforge.net/DTD/sodipodi-0.dtd"
   xmlns="http://www.w3.org/2000/svg"
   xmlns:svg="http://www.w3.org/2000/svg"><rect
     width="100%"
     height="100%"
     fill="#ffffff"
     id="rect1"
     x="0"
     y="0" />
  <defs
     id="defs1">
    <clipPath
       clipPathUnits="userSpaceOnUse"
       id="clipPath2">
      <path
         d="M 28.799999,28.799999 H 1093.76 V 539.84003 H 28.799999 Z"
         clip-rule="evenodd"
         id="path2" />
    </clipPath>
    <clipPath
       clipPathUnits="userSpaceOnUse"
       id="clipPath273">
      <path
         d="M 28.799999,28.799999 V 764.96002 H 1093.76 V 28.799999 Z"
         clip-rule="evenodd"
         id="path273" />
    </clipPath>
    <clipPath
       clipPathUnits="userSpaceOnUse"
       id="clipPath278">
      <path
         d="M 28.799999,28.799999 V 764.96002 H 1093.76 V 28.799999 Z"
         clip-rule="evenodd"
         id="path278" />
    </clipPath>
    <clipPath
       clipPathUnits="userSpaceOnUse"
       id="clipPath283">
      <path
         d="M 28.799999,28.799999 V 764.96002 H 1093.76 V 28.799999 Z"
         clip-rule="evenodd"
         id="path283" />
    </clipPath>
    <clipPath
       clipPathUnits="userSpaceOnUse"
       id="clipPath288">
      <path
         d="M 28.799999,28.799999 V 764.96002 H 1093.76 V 28.799999 Z"
         clip-rule="evenodd"
         id="path288" />
    </clipPath>
    <clipPath
       clipPathUnits="userSpaceOnUse"
       id="clipPath293">
      <path
         d="M 28.799999,28.799999 V 764.96002 H 1093.76 V 28.799999 Z"
         transform="translate(-218.44,-109.37001)"
         clip-rule="evenodd"
         id="path293" />
    </clipPath>
    <clipPath
       clipPathUnits="userSpaceOnUse"
       id="clipPath295">
      <path
         d="M 28.799999,28.799999 V 764.96002 H 1093.76 V 28.799999 Z"
         clip-rule="evenodd"
         id="path295" />
    </clipPath>
    <clipPath
       clipPathUnits="userSpaceOnUse"
       id="clipPath297">
      <path
         d="M 28.799999,28.799999 V 764.96002 H 1093.76 V 28.799999 Z"
         clip-rule="evenodd"
         id="path297" />
    </clipPath>
    <clipPath
       clipPathUnits="userSpaceOnUse"
       id="clipPath299">
      <path
         d="M 28.799999,28.799999 V 764.96002 H 1093.76 V 28.799999 Z"
         clip-rule="evenodd"
         id="path299" />
    </clipPath>
    <clipPath
       clipPathUnits="userSpaceOnUse"
       id="clipPath304">
      <path
         d="M 28.799999,28.799999 V 764.96002 H 1093.76 V 28.799999 Z"
         clip-rule="evenodd"
         id="path304" />
    </clipPath>
    <clipPath
       clipPathUnits="userSpaceOnUse"
       id="clipPath309">
      <path
         d="M 28.799999,28.799999 V 764.96002 H 1093.76 V 28.799999 Z"
         clip-rule="evenodd"
         id="path309" />
    </clipPath>
    <clipPath
       clipPathUnits="userSpaceOnUse"
       id="clipPath314">
      <path
         d="M 28.799999,28.799999 V 764.96002 H 1093.76 V 28.799999 Z"
         clip-rule="evenodd"
         id="path314" />
    </clipPath>
    <clipPath
       clipPathUnits="userSpaceOnUse"
       id="clipPath319">
      <path
         d="M 28.799999,28.799999 V 764.96002 H 1093.76 V 28.799999 Z"
         transform="translate(-218.44,-104.62001)"
         clip-rule="evenodd"
         id="path319" />
    </clipPath>
    <clipPath
       clipPathUnits="userSpaceOnUse"
       id="clipPath321">
      <path
         d="M 28.799999,28.799999 V 764.96002 H 1093.76 V 28.799999 Z"
         clip-rule="evenodd"
         id="path321" />
    </clipPath>
    <clipPath
       clipPathUnits="userSpaceOnUse"
       id="clipPath323">
      <path
         d="M 28.799999,28.799999 V 764.96002 H 1093.76 V 28.799999 Z"
         clip-rule="evenodd"
         id="path323" />
    </clipPath>
    <clipPath
       clipPathUnits="userSpaceOnUse"
       id="clipPath325">
      <path
         d="M 28.799999,28.799999 V 764.96002 H 1093.76 V 28.799999 Z"
         clip-rule="evenodd"
         id="path325" />
    </clipPath>
    <clipPath
       clipPathUnits="userSpaceOnUse"
       id="clipPath330">
      <path
         d="M 28.799999,28.799999 V 764.96002 H 1093.76 V 28.799999 Z"
         clip-rule="evenodd"
         id="path330" />
    </clipPath>
    <clipPath
       clipPathUnits="userSpaceOnUse"
       id="clipPath335">
      <path
         d="M 28.799999,28.799999 V 764.96002 H 1093.76 V 28.799999 Z"
         clip-rule="evenodd"
         id="path335" />
    </clipPath>
    <clipPath
       clipPathUnits="userSpaceOnUse"
       id="clipPath340">
      <path
         d="M 28.799999,28.799999 V 764.96002 H 1093.76 V 28.799999 Z"
         clip-rule="evenodd"
         id="path340" />
    </clipPath>
  </defs>
  <sodipodi:namedview
     id="namedview1"
     pagecolor="#ffffff"
     bordercolor="#000000"
     borderopacity="0.25"
     inkscape:showpageshadow="2"
     inkscape:pageopacity="0.0"
     inkscape:pagecheckerboard="0"
     inkscape:deskcolor="#d1d1d1"
     inkscape:zoom="1.6197293"
     inkscape:cx="-61.121324"
     inkscape:cy="74.086453"
     inkscape:window-width="1440"
     inkscape:window-height="830"
     inkscape:window-x="-6"
     inkscape:window-y="-6"
     inkscape:window-maximized="1"
     inkscape:current-layer="g1">
    <inkscape:page
       x="0"
       y="0"
       width="90.909088"
       height="94.775475"
       id="page2"
       margin="0"
       bleed="0" />
  </sodipodi:namedview>
  <g
     id="g1"
     inkscape:groupmode="layer"
     inkscape:label="1"
     transform="translate(-209.19601,-95.106003)">
    <path
       id="path1"
       d="M 1093.23,28.799999 H 28.799999 V 535.46997 H 1093.23 Z"
       style="fill:none;stroke:#808080;stroke-width:0.528;stroke-linecap:round;stroke-linejoin:miter;stroke-miterlimit:10;stroke-dasharray:none;stroke-opacity:1"
       clip-path="url(#clipPath2)" />
    <path
       id="path267"
       d="m 234.62213,179.94225 v -1.24337 h 4.57383 v 0.97693 c -0.3719,0.3719 -0.7549,0.90478 -1.15456,1.59862 -0.38856,0.6994 -0.68275,1.43765 -0.88812,2.22031 -0.21093,0.78821 -0.31085,1.48762 -0.31085,2.1093 h -1.28777 c 0.0277,-0.96029 0.22757,-1.94277 0.59947,-2.95302 0.36636,-1.00468 0.87147,-1.90946 1.50981,-2.70877 z m 8.29285,5.66179 v -1.3988 h -2.8642 v -1.17676 l 3.04183,-4.44061 h 1.13235 v 4.44061 h 0.86592 v 1.17676 h -0.86592 v 1.3988 z m 0,-2.57556 v -2.39793 l -1.59862,2.39793 z m 3.38041,2.57556 v -6.92736 h 1.3988 v 5.75059 h 3.50809 v 1.17677 z m 5.76171,-2.26471 1.37659,-0.13315 c 0.0722,0.4607 0.23313,0.79931 0.48846,1.02134 0.26644,0.21092 0.61059,0.31084 1.04354,0.31084 0.44406,0 0.77712,-0.0944 0.99915,-0.28864 0.23313,-0.18873 0.35525,-0.42185 0.35525,-0.68829 0,-0.16099 -0.0556,-0.2942 -0.15543,-0.39966 -0.0888,-0.11652 -0.25533,-0.22203 -0.48847,-0.31084 -0.16651,-0.0556 -0.54397,-0.16098 -1.13235,-0.31084 -0.7549,-0.18874 -1.28778,-0.42187 -1.59862,-0.68831 -0.43296,-0.383 -0.6439,-0.84927 -0.6439,-1.39878 0,-0.36636 0.0999,-0.6994 0.31085,-0.99915 0.20539,-0.31084 0.49402,-0.54397 0.86592,-0.7105 0.383,-0.16097 0.84372,-0.24422 1.37659,-0.24422 0.88813,0 1.54312,0.19426 1.97607,0.57728 0.44406,0.38854 0.67721,0.89922 0.7105,1.532 l -1.421,0.0667 c -0.0611,-0.35525 -0.19426,-0.61059 -0.39965,-0.77712 -0.19427,-0.16097 -0.48291,-0.24423 -0.86592,-0.24423 -0.41631,0 -0.7438,0.0888 -0.97693,0.26644 -0.14987,0.10544 -0.22203,0.24423 -0.22203,0.42185 0,0.16653 0.0722,0.30529 0.22203,0.42187 0.17762,0.14986 0.60503,0.30529 1.28778,0.46626 0.67719,0.16652 1.18231,0.33305 1.50981,0.51067 0.33859,0.17763 0.59947,0.4163 0.7771,0.7105 0.18873,0.29973 0.28864,0.6661 0.28864,1.11016 0,0.39965 -0.11098,0.7771 -0.33305,1.13235 -0.22203,0.35525 -0.54397,0.62168 -0.95472,0.79931 -0.39966,0.16097 -0.90478,0.24424 -1.50981,0.24424 -0.88813,0 -1.57087,-0.20539 -2.04269,-0.62169 -0.47737,-0.41076 -0.7549,-1.0047 -0.84371,-1.77624 z m 6.93291,0.64388 1.28778,-0.13315 c 0.0443,0.26644 0.13315,0.46627 0.26644,0.59949 0.13315,0.12207 0.29973,0.17763 0.51066,0.17763 0.27754,0 0.51622,-0.12207 0.7105,-0.37746 0.18872,-0.26644 0.3164,-0.79931 0.37746,-1.59862 -0.34415,0.39965 -0.76602,0.59949 -1.26558,0.59949 -0.54953,0 -1.02134,-0.21094 -1.421,-0.6439 -0.39965,-0.42741 -0.59948,-0.98249 -0.59948,-1.66522 0,-0.7105 0.20538,-1.27669 0.62169,-1.70965 0.42741,-0.42741 0.96582,-0.64388 1.62082,-0.64388 0.7105,0 1.28778,0.27753 1.73184,0.82151 0.45516,0.54952 0.6883,1.4543 0.6883,2.70877 0,1.27668 -0.23868,2.19811 -0.7105,2.77539 -0.47737,0.56617 -1.08795,0.84372 -1.84286,0.84372 -0.54953,0 -0.99359,-0.14433 -1.33218,-0.44406 -0.34416,-0.2942 -0.55507,-0.73271 -0.64389,-1.30999 z m 3.04182,-2.93081 c 0,-0.42741 -0.10544,-0.76046 -0.31084,-0.99913 -0.19428,-0.23314 -0.42186,-0.35525 -0.68829,-0.35525 -0.25534,0 -0.46072,0.0999 -0.62169,0.28863 -0.16653,0.19428 -0.24424,0.51068 -0.24424,0.95474 0,0.46071 0.0888,0.79376 0.26644,0.99914 0.17762,0.21093 0.39965,0.31084 0.66609,0.31084 0.26644,0 0.48847,-0.0944 0.66609,-0.28863 0.17763,-0.20539 0.26644,-0.51068 0.26644,-0.91034 z m 4.63489,-2.46453 c 0.67719,0 1.20453,0.23867 1.57642,0.7105 0.45517,0.57728 0.6883,1.532 0.6883,2.86419 0,1.32108 -0.23313,2.26471 -0.6883,2.84199 -0.37189,0.47737 -0.89923,0.7105 -1.57642,0.7105 -0.68274,0 -1.23781,-0.25534 -1.66523,-0.7771 -0.4163,-0.51623 -0.62169,-1.44876 -0.62169,-2.79759 0,-1.31554 0.22759,-2.26471 0.6883,-2.84199 0.383,-0.47183 0.91588,-0.7105 1.59862,-0.7105 z m 0,1.11015 c -0.16652,0 -0.31084,0.0556 -0.44406,0.15542 -0.12206,0.10543 -0.21647,0.28864 -0.28864,0.55508 -0.0888,0.34414 -0.13315,0.92697 -0.13315,1.75404 0,0.81596 0.0333,1.37659 0.11098,1.68743 0.0888,0.31084 0.18873,0.52178 0.31084,0.62169 0.13315,0.0888 0.27755,0.13314 0.44406,0.13314 0.16099,0 0.29975,-0.05 0.42187,-0.15541 0.13315,-0.0999 0.23313,-0.28865 0.31084,-0.55508 0.0888,-0.3386 0.13315,-0.91588 0.13315,-1.73184 0,-0.82707 -0.0443,-1.38769 -0.13315,-1.68744 -0.0777,-0.31084 -0.17762,-0.51622 -0.31084,-0.62168 -0.12207,-0.0999 -0.26088,-0.15542 -0.42187,-0.15542 z m 3.48588,5.90602 v -6.99398 h 1.37659 l 2.842,4.66265 v -4.66265 h 1.33218 v 6.99398 h -1.421 l -2.81978,-4.55164 v 4.55164 z m 0,0"
       style="fill:#000000;fill-opacity:1;fill-rule:nonzero;stroke:none;stroke-width:1.421"
       aria-label="74LS90N" />
    <path
       id="path268"
       d="m 281.71976,100.81448 h -53.30162 v 73.5792 h 53.30162 z"
       style="fill:none;stroke:#000000;stroke-width:0.750287;stroke-linecap:round;stroke-linejoin:miter;stroke-miterlimit:10;stroke-dasharray:none;stroke-opacity:1" />
    <path
       id="path269"
       d="m 296.0434,121.03525 h 0.22736 v 0.22736 h -0.22736 z"
       style="fill:#000000;fill-opacity:1;fill-rule:nonzero;stroke:none;stroke-width:1.421" />
    <path
       id="path270"
       d="m 269.48097,122.736 -0.37746,0.28864 c 0.17762,-0.0443 0.33305,-0.0666 0.46627,-0.0666 0.18872,0 0.383,0.0332 0.57728,0.11098 0.13315,0.0443 0.22757,0.0666 0.28863,0.0666 0.13315,0 0.27754,-0.0556 0.44406,-0.15541 0.0556,-0.0443 0.0999,-0.0666 0.13315,-0.0666 0.0277,0 0.0556,0.0114 0.0888,0.0443 0.0277,0.0277 0.0443,0.0666 0.0443,0.11098 0,0.0277 -0.0166,0.0556 -0.0443,0.0888 -0.0443,0.0443 -0.14987,0.0999 -0.31084,0.17763 -0.12206,0.0556 -0.23868,0.0888 -0.35525,0.0888 -0.10544,0 -0.23868,-0.0333 -0.39965,-0.0888 -0.16653,-0.0611 -0.32195,-0.0888 -0.46626,-0.0888 -0.10544,0 -0.23869,0.0114 -0.39966,0.0443 -0.22203,0.0277 -0.41077,0.0666 -0.55508,0.11098 -0.0443,0 -0.0777,0 -0.0888,0 -0.0333,0 -0.0611,-0.0166 -0.0888,-0.0443 -0.0333,-0.0166 -0.0443,-0.0443 -0.0443,-0.0888 0,-0.0443 0.0222,-0.0888 0.0666,-0.13315 l 0.62169,-0.44406 c -0.3719,-0.0888 -0.6883,-0.31084 -0.95474,-0.66609 -0.25534,-0.36635 -0.37745,-0.81041 -0.37745,-1.33219 0,-0.60503 0.16652,-1.0935 0.51067,-1.4654 0.33859,-0.383 0.73271,-0.57728 1.17677,-0.57728 0.45516,0 0.85481,0.19428 1.19897,0.57728 0.33859,0.3719 0.51066,0.86037 0.51066,1.4654 0,0.59394 -0.17207,1.08241 -0.51066,1.46541 -0.3275,0.3719 -0.7105,0.56062 -1.15457,0.57728 z m 1.37659,-2.04269 c 0,-0.45516 -0.13315,-0.86591 -0.39966,-1.22116 -0.25534,-0.36636 -0.59393,-0.55508 -1.02134,-0.55508 -0.38856,0 -0.72161,0.17762 -0.99915,0.53287 -0.28309,0.34415 -0.42185,0.7549 -0.42185,1.24337 0,0.52178 0.14432,0.94363 0.44406,1.26558 0.29419,0.32749 0.62169,0.48847 0.97694,0.48847 0.42741,0 0.766,-0.17762 1.02134,-0.53287 0.26644,-0.35525 0.39966,-0.76046 0.39966,-1.22118 z m 3.60799,0.62169 h -1.84286 l -0.37744,1.02134 h 0.53287 c 0.0722,0 0.11652,0.0166 0.13315,0.0443 0.0277,0.0333 0.0443,0.0667 0.0443,0.11098 0,0.0333 -0.0166,0.0611 -0.0443,0.0888 -0.0166,0.0332 -0.0611,0.0443 -0.13315,0.0443 h -1.04355 c -0.0777,0 -0.12761,-0.0114 -0.15542,-0.0443 -0.0166,-0.0277 -0.0222,-0.0556 -0.0222,-0.0888 0,-0.0443 0.006,-0.0777 0.0222,-0.11098 0.0277,-0.0277 0.0777,-0.0443 0.15542,-0.0443 h 0.22203 l 1.22118,-3.33046 h -0.82153 c -0.0611,0 -0.10543,-0.006 -0.13314,-0.0222 -0.0333,-0.0277 -0.0443,-0.0666 -0.0443,-0.11098 0,-0.0443 0.0114,-0.0722 0.0443,-0.0888 0.0277,-0.0277 0.0722,-0.0443 0.13314,-0.0443 h 1.421 l 1.3544,3.5969 h 0.22203 c 0.0556,0 0.0999,0.0166 0.13315,0.0443 0.0277,0.0332 0.0443,0.0666 0.0443,0.11098 0,0.0332 -0.0166,0.0611 -0.0443,0.0888 -0.0333,0.0333 -0.0777,0.0443 -0.13315,0.0443 h -1.04355 c -0.0777,0 -0.12761,-0.0114 -0.15542,-0.0443 -0.0333,-0.0277 -0.0443,-0.0556 -0.0443,-0.0888 0,-0.0443 0.0114,-0.0777 0.0443,-0.11098 0.0277,-0.0277 0.0777,-0.0443 0.15542,-0.0443 h 0.53287 z m -0.11097,-0.26644 -0.77711,-2.04268 h -0.11098 l -0.73269,2.04268 z m 0,0"
       style="fill:#000000;fill-opacity:1;fill-rule:nonzero;stroke:none;stroke-width:1.421"
       aria-label="QA" />
    <path
       id="path271"
       d="m 287.53208,115.88635 v 3.95215 h 0.97694 c 0.0556,0 0.0999,0.0166 0.13314,0.0443 0.0277,0.0332 0.0443,0.0666 0.0443,0.11098 0,0.0333 -0.0166,0.0611 -0.0443,0.0888 -0.0333,0.0333 -0.0777,0.0443 -0.13314,0.0443 h -2.19812 c -0.0777,0 -0.1276,-0.0114 -0.15541,-0.0443 -0.0333,-0.0277 -0.0443,-0.0556 -0.0443,-0.0888 0,-0.0443 0.0114,-0.0777 0.0443,-0.11098 0.0277,-0.0277 0.0777,-0.0443 0.15541,-0.0443 h 0.95474 v -3.5525 l -0.91033,0.28864 c -0.0443,0.0166 -0.0833,0.0222 -0.11098,0.0222 -0.0333,0 -0.0611,-0.0114 -0.0888,-0.0443 -0.0333,-0.0277 -0.0443,-0.0666 -0.0443,-0.11098 0,-0.0277 0.0114,-0.0556 0.0443,-0.0888 0.0114,-0.0114 0.0499,-0.0333 0.11098,-0.0667 z m 2.9641,3.95215 h 2.15371 v -0.11098 c 0,-0.0556 0.006,-0.0999 0.0222,-0.13315 0.0277,-0.0277 0.0666,-0.0443 0.11098,-0.0443 0.0443,0 0.0722,0.0166 0.0888,0.0443 0.0277,0.0332 0.0443,0.0777 0.0443,0.13315 v 0.39965 h -2.68658 v -0.42185 c 0.56064,-0.49957 1.11016,-1.02134 1.64303,-1.55422 0.2498,-0.23312 0.42187,-0.41075 0.51068,-0.53287 0.0999,-0.11652 0.16652,-0.22203 0.19982,-0.31084 0.0277,-0.0888 0.0443,-0.17763 0.0443,-0.26644 0,-0.23313 -0.0999,-0.44406 -0.28863,-0.62169 -0.19428,-0.18872 -0.42187,-0.28864 -0.6883,-0.28864 -0.25533,0 -0.47736,0.0777 -0.66609,0.22203 -0.17763,0.13315 -0.29974,0.3053 -0.35525,0.51068 -0.0166,0.0611 -0.0333,0.0999 -0.0443,0.11098 -0.0333,0.0166 -0.0611,0.0222 -0.0888,0.0222 -0.0443,0 -0.0833,-0.006 -0.11098,-0.0222 -0.0166,-0.0277 -0.0222,-0.0666 -0.0222,-0.11098 0,-0.0999 0.0556,-0.24424 0.17763,-0.42187 0.11652,-0.18872 0.27199,-0.33859 0.46627,-0.44406 0.20537,-0.0999 0.42185,-0.15542 0.64388,-0.15542 0.33861,0 0.6328,0.12761 0.88812,0.37745 0.2498,0.23868 0.37746,0.51068 0.37746,0.82152 0,0.12206 -0.0222,0.23869 -0.0666,0.35525 -0.0333,0.10544 -0.0999,0.22203 -0.19982,0.35525 -0.10544,0.12206 -0.28865,0.31084 -0.55509,0.57728 -0.65498,0.63834 -1.18785,1.14346 -1.59862,1.50981 z m 0,0"
       style="fill:#000000;fill-opacity:1;fill-rule:nonzero;stroke:none;stroke-width:1.421"
       aria-label="12" />
    <path
       id="path272"
       d="m 257.01001,109.64 h 9.5"
       style="fill:none;stroke:#000000;stroke-width:0.528;stroke-linecap:round;stroke-linejoin:round;stroke-miterlimit:10;stroke-dasharray:none;stroke-opacity:1"
       clip-path="url(#clipPath273)"
       transform="matrix(1.4209973,0,0,1.4209973,-82.73762,-34.706038)" />
    <path
       id="path274"
       d="m 296.0434,127.85603 h 0.22736 v 0.22736 h -0.22736 z"
       style="fill:#000000;fill-opacity:1;fill-rule:nonzero;stroke:none;stroke-width:1.421" />
    <path
       id="path275"
       d="m 269.48097,129.33032 -0.37746,0.28863 c 0.17762,-0.0443 0.33305,-0.0666 0.46627,-0.0666 0.18872,0 0.383,0.0332 0.57728,0.11098 0.13315,0.0443 0.22757,0.0666 0.28863,0.0666 0.13315,0 0.27754,-0.0556 0.44406,-0.15543 0.0556,-0.0443 0.0999,-0.0666 0.13315,-0.0666 0.0277,0 0.0556,0.0114 0.0888,0.0443 0.0277,0.0277 0.0443,0.0667 0.0443,0.11098 0,0.0277 -0.0166,0.0556 -0.0443,0.0888 -0.0443,0.0443 -0.14987,0.0999 -0.31084,0.17763 -0.12206,0.0556 -0.23868,0.0888 -0.35525,0.0888 -0.10544,0 -0.23868,-0.0332 -0.39965,-0.0888 -0.16653,-0.0611 -0.32195,-0.0888 -0.46626,-0.0888 -0.10544,0 -0.23869,0.0114 -0.39966,0.0443 -0.22203,0.0277 -0.41077,0.0667 -0.55508,0.11098 -0.0443,0 -0.0777,0 -0.0888,0 -0.0333,0 -0.0611,-0.0166 -0.0888,-0.0443 -0.0333,-0.0166 -0.0443,-0.0443 -0.0443,-0.0888 0,-0.0443 0.0222,-0.0888 0.0666,-0.13314 l 0.62169,-0.44406 c -0.3719,-0.0888 -0.6883,-0.31085 -0.95474,-0.6661 -0.25534,-0.36636 -0.37745,-0.81042 -0.37745,-1.33218 0,-0.60505 0.16652,-1.09352 0.51067,-1.46541 0.33859,-0.38301 0.73271,-0.57728 1.17677,-0.57728 0.45516,0 0.85481,0.19427 1.19897,0.57728 0.33859,0.37189 0.51066,0.86036 0.51066,1.46541 0,0.59392 -0.17207,1.08239 -0.51066,1.4654 -0.3275,0.37189 -0.7105,0.56063 -1.15457,0.57728 z m 1.37659,-2.04269 c 0,-0.45517 -0.13315,-0.86592 -0.39966,-1.22117 -0.25534,-0.36635 -0.59393,-0.55507 -1.02134,-0.55507 -0.38856,0 -0.72161,0.17762 -0.99915,0.53287 -0.28309,0.34414 -0.42185,0.75491 -0.42185,1.24337 0,0.52177 0.14432,0.94363 0.44406,1.26557 0.29419,0.3275 0.62169,0.48847 0.97694,0.48847 0.42741,0 0.766,-0.17762 1.02134,-0.53287 0.26644,-0.35525 0.39966,-0.76046 0.39966,-1.22117 z m 1.4765,1.64303 v -3.33046 h -0.37746 c -0.0611,0 -0.10544,-0.006 -0.13315,-0.0222 -0.0332,-0.0277 -0.0443,-0.0666 -0.0443,-0.11098 0,-0.0443 0.0114,-0.0722 0.0443,-0.0888 0.0277,-0.0277 0.0722,-0.0443 0.13315,-0.0443 h 1.77625 c 0.33861,0 0.62168,0.10543 0.84371,0.31084 0.22203,0.19426 0.33306,0.42185 0.33306,0.68829 0,0.34415 -0.18873,0.61613 -0.55509,0.82152 0.29421,0.10544 0.51068,0.24422 0.6439,0.42185 0.13315,0.17762 0.19982,0.3719 0.19982,0.57728 0,0.17762 -0.0443,0.34969 -0.13315,0.51068 -0.0888,0.14986 -0.23313,0.28307 -0.42185,0.39965 -0.17762,0.10544 -0.3719,0.15542 -0.57728,0.15542 h -2.1093 c -0.0611,0 -0.10544,-0.0114 -0.13315,-0.0443 -0.0332,-0.0277 -0.0443,-0.0556 -0.0443,-0.0888 0,-0.0443 0.0114,-0.0777 0.0443,-0.11098 0.0277,-0.0277 0.0722,-0.0443 0.13315,-0.0443 z m 0.28863,-1.86506 h 0.97694 c 0.22203,0 0.42186,-0.0443 0.59949,-0.13314 0.13315,-0.0556 0.23313,-0.14433 0.31084,-0.26644 0.0722,-0.11652 0.11098,-0.23314 0.11098,-0.35525 0,-0.17762 -0.0833,-0.33861 -0.24423,-0.48847 -0.16652,-0.14433 -0.37746,-0.22203 -0.64389,-0.22203 h -1.11016 z m 0,1.86506 h 1.421 c 0.17762,0 0.33305,-0.0332 0.46627,-0.11098 0.13315,-0.0722 0.22759,-0.16652 0.28863,-0.28863 0.0722,-0.11652 0.11098,-0.24424 0.11098,-0.37746 0,-0.13315 -0.0556,-0.26644 -0.15542,-0.39966 -0.0888,-0.13314 -0.22204,-0.23312 -0.39966,-0.31084 -0.17762,-0.0722 -0.42185,-0.11098 -0.73269,-0.11098 h -0.99915 z m 0,0"
       style="fill:#000000;fill-opacity:1;fill-rule:nonzero;stroke:none;stroke-width:1.421"
       aria-label="QB" />
    <path
       id="path276"
       d="m 288.55342,124.36793 c -0.14987,0.25533 -0.3275,0.44406 -0.53287,0.57728 -0.19428,0.12206 -0.39412,0.17762 -0.59949,0.17762 -0.19428,0 -0.37745,-0.05 -0.55507,-0.15541 -0.17763,-0.11653 -0.3275,-0.27755 -0.44406,-0.48847 -0.10544,-0.22203 -0.15543,-0.44962 -0.15543,-0.6883 0,-0.3386 0.0999,-0.64944 0.31084,-0.93253 0.22203,-0.27754 0.51068,-0.42186 0.86593,-0.42186 0.24978,0 0.47735,0.0833 0.68829,0.24423 0.20537,0.16653 0.36634,0.3941 0.48846,0.6883 0.14432,0.38855 0.22203,0.83261 0.22203,1.33219 0,0.39965 -0.0666,0.73269 -0.19982,0.99913 -0.0777,0.17763 -0.19427,0.34969 -0.35525,0.51068 -0.16652,0.16651 -0.3497,0.29973 -0.55508,0.39965 -0.28309,0.13315 -0.57172,0.19982 -0.86591,0.19982 -0.21094,0 -0.37191,-0.0388 -0.48847,-0.11098 -0.0611,-0.0277 -0.0888,-0.0722 -0.0888,-0.13314 0,-0.0277 0.006,-0.0556 0.0222,-0.0888 0.0277,-0.0277 0.0666,-0.0443 0.11098,-0.0443 0.0277,0 0.0666,0.0166 0.11098,0.0443 0.0888,0.0443 0.18873,0.0666 0.31085,0.0666 0.45516,0 0.85481,-0.16653 1.19896,-0.51066 0.3386,-0.33861 0.51068,-0.76602 0.51068,-1.28778 0,-0.0888 0,-0.21094 0,-0.37746 z m -0.0666,-0.46626 c -0.12207,-0.45518 -0.26644,-0.76602 -0.44406,-0.93253 -0.16653,-0.16099 -0.36635,-0.24424 -0.59948,-0.24424 -0.23869,0 -0.44406,0.10544 -0.62169,0.31084 -0.17762,0.19428 -0.26643,0.44406 -0.26643,0.75491 0,0.31084 0.0888,0.57172 0.26643,0.77711 0.17763,0.19426 0.37745,0.28863 0.59948,0.28863 0.13315,0 0.25534,-0.0333 0.37746,-0.11098 0.13315,-0.0722 0.25532,-0.18318 0.37744,-0.33305 0.0722,-0.0888 0.17763,-0.25534 0.31085,-0.51066 z m 0,0"
       style="fill:#000000;fill-opacity:1;fill-rule:nonzero;stroke:none;stroke-width:1.421"
       aria-label="9" />
    <path
       id="path277"
       d="m 257.01001,114.39 h 9.5"
       style="fill:none;stroke:#000000;stroke-width:0.528;stroke-linecap:round;stroke-linejoin:round;stroke-miterlimit:10;stroke-dasharray:none;stroke-opacity:1"
       clip-path="url(#clipPath278)"
       transform="matrix(1.4209973,0,0,1.4209973,-82.73762,-34.706038)" />
    <path
       id="path279"
       d="m 296.0434,141.27025 h 0.22736 v 0.22736 h -0.22736 z"
       style="fill:#000000;fill-opacity:1;fill-rule:nonzero;stroke:none;stroke-width:1.421" />
    <path
       id="path280"
       d="m 269.48097,142.97411 -0.37746,0.28863 c 0.17762,-0.0443 0.33305,-0.0666 0.46627,-0.0666 0.18872,0 0.383,0.0333 0.57728,0.11098 0.13315,0.0443 0.22757,0.0666 0.28863,0.0666 0.13315,0 0.27754,-0.0556 0.44406,-0.15543 0.0556,-0.0443 0.0999,-0.0666 0.13315,-0.0666 0.0277,0 0.0556,0.0114 0.0888,0.0443 0.0277,0.0277 0.0443,0.0667 0.0443,0.11098 0,0.0277 -0.0166,0.0556 -0.0443,0.0888 -0.0443,0.0443 -0.14987,0.0999 -0.31084,0.17762 -0.12206,0.0556 -0.23868,0.0888 -0.35525,0.0888 -0.10544,0 -0.23868,-0.0332 -0.39965,-0.0888 -0.16653,-0.0611 -0.32195,-0.0888 -0.46626,-0.0888 -0.10544,0 -0.23869,0.0114 -0.39966,0.0443 -0.22203,0.0277 -0.41077,0.0667 -0.55508,0.11098 -0.0443,0 -0.0777,0 -0.0888,0 -0.0333,0 -0.0611,-0.0166 -0.0888,-0.0443 -0.0333,-0.0166 -0.0443,-0.0443 -0.0443,-0.0888 0,-0.0443 0.0222,-0.0888 0.0666,-0.13315 l 0.62169,-0.44406 c -0.3719,-0.0888 -0.6883,-0.31085 -0.95474,-0.6661 -0.25534,-0.36634 -0.37745,-0.81041 -0.37745,-1.33218 0,-0.60503 0.16652,-1.0935 0.51067,-1.4654 0.33859,-0.38301 0.73271,-0.57728 1.17677,-0.57728 0.45516,0 0.85481,0.19427 1.19897,0.57728 0.33859,0.3719 0.51066,0.86037 0.51066,1.4654 0,0.59393 -0.17207,1.0824 -0.51066,1.4654 -0.3275,0.37191 -0.7105,0.56063 -1.15457,0.57728 z m 1.37659,-2.04268 c 0,-0.45516 -0.13315,-0.86593 -0.39966,-1.22118 -0.25534,-0.36635 -0.59393,-0.55507 -1.02134,-0.55507 -0.38856,0 -0.72161,0.17762 -0.99915,0.53287 -0.28309,0.34415 -0.42185,0.75491 -0.42185,1.24338 0,0.52177 0.14432,0.94362 0.44406,1.26556 0.29419,0.3275 0.62169,0.48847 0.97694,0.48847 0.42741,0 0.766,-0.17762 1.02134,-0.53287 0.26644,-0.35525 0.39966,-0.76045 0.39966,-1.22116 z m 1.58751,1.64302 v -3.33046 h -0.24423 c -0.0611,0 -0.10544,-0.006 -0.13315,-0.0222 -0.0333,-0.0277 -0.0443,-0.0666 -0.0443,-0.11098 0,-0.0443 0.0114,-0.0722 0.0443,-0.0888 0.0277,-0.0277 0.0722,-0.0443 0.13315,-0.0443 h 1.50981 c 0.23313,0 0.44962,0.0556 0.64388,0.15541 0.18874,0.0888 0.33861,0.19428 0.44406,0.31084 0.17763,0.21094 0.31085,0.43297 0.39966,0.6661 0.0556,0.17762 0.0888,0.38855 0.0888,0.62168 v 0.37746 c 0,0.28309 -0.0666,0.56618 -0.19982,0.84372 -0.12206,0.26644 -0.3275,0.49956 -0.62169,0.68829 -0.22203,0.14987 -0.47736,0.22203 -0.7549,0.22203 h -1.50981 c -0.0611,0 -0.10544,-0.0114 -0.13315,-0.0443 -0.0333,-0.0277 -0.0443,-0.0556 -0.0443,-0.0888 0,-0.0443 0.0114,-0.0777 0.0443,-0.11098 0.0277,-0.0277 0.0722,-0.0443 0.13315,-0.0443 z m 0.26643,0 h 1.02135 c 0.23314,0 0.45517,-0.0722 0.66609,-0.22203 0.20539,-0.14431 0.3608,-0.32194 0.46627,-0.53287 0.0999,-0.22203 0.15541,-0.43297 0.15541,-0.6439 v -0.51066 c 0,-0.17763 -0.0333,-0.33306 -0.0888,-0.46627 -0.0888,-0.18873 -0.19982,-0.37745 -0.33304,-0.55507 -0.0888,-0.0999 -0.21647,-0.18873 -0.37746,-0.26644 -0.14985,-0.0888 -0.31084,-0.13315 -0.48846,-0.13315 h -1.02135 z m 0,0"
       style="fill:#000000;fill-opacity:1;fill-rule:nonzero;stroke:none;stroke-width:1.421"
       aria-label="QD" />
    <path
       id="path281"
       d="m 287.53208,136.80165 v 3.95215 h 0.97694 c 0.0556,0 0.0999,0.0166 0.13314,0.0443 0.0277,0.0333 0.0443,0.0666 0.0443,0.11098 0,0.0333 -0.0166,0.0611 -0.0443,0.0888 -0.0333,0.0333 -0.0777,0.0443 -0.13314,0.0443 h -2.19812 c -0.0777,0 -0.1276,-0.0114 -0.15541,-0.0443 -0.0333,-0.0277 -0.0443,-0.0556 -0.0443,-0.0888 0,-0.0443 0.0114,-0.0777 0.0443,-0.11098 0.0277,-0.0277 0.0777,-0.0443 0.15541,-0.0443 h 0.95474 v -3.55249 l -0.91033,0.28863 c -0.0443,0.0166 -0.0833,0.0222 -0.11098,0.0222 -0.0333,0 -0.0611,-0.0114 -0.0888,-0.0443 -0.0333,-0.0277 -0.0443,-0.0666 -0.0443,-0.11098 0,-0.0277 0.0114,-0.0556 0.0443,-0.0888 0.0114,-0.0114 0.0499,-0.0332 0.11098,-0.0666 z m 4.29629,0 v 3.95215 h 0.97693 c 0.0556,0 0.0999,0.0166 0.13315,0.0443 0.0277,0.0333 0.0443,0.0666 0.0443,0.11098 0,0.0333 -0.0166,0.0611 -0.0443,0.0888 -0.0333,0.0333 -0.0777,0.0443 -0.13315,0.0443 h -2.1981 c -0.0777,0 -0.1276,-0.0114 -0.15543,-0.0443 -0.0333,-0.0277 -0.0443,-0.0556 -0.0443,-0.0888 0,-0.0443 0.0114,-0.0777 0.0443,-0.11098 0.0277,-0.0277 0.0777,-0.0443 0.15543,-0.0443 h 0.95473 v -3.55249 l -0.91032,0.28863 c -0.0443,0.0166 -0.0833,0.0222 -0.11098,0.0222 -0.0333,0 -0.0611,-0.0114 -0.0888,-0.0443 -0.0333,-0.0277 -0.0443,-0.0666 -0.0443,-0.11098 0,-0.0277 0.0114,-0.0556 0.0443,-0.0888 0.0114,-0.0114 0.05,-0.0332 0.11098,-0.0666 z m 0,0"
       style="fill:#000000;fill-opacity:1;fill-rule:nonzero;stroke:none;stroke-width:1.421"
       aria-label="11" />
    <path
       id="path282"
       d="m 257.01001,123.9 h 9.5"
       style="fill:none;stroke:#000000;stroke-width:0.528;stroke-linecap:round;stroke-linejoin:round;stroke-miterlimit:10;stroke-dasharray:none;stroke-opacity:1"
       clip-path="url(#clipPath283)"
       transform="matrix(1.4209973,0,0,1.4209973,-82.73762,-34.706038)" />
    <path
       id="path284"
       d="m 296.0434,134.67682 h 0.22736 v 0.22736 h -0.22736 z"
       style="fill:#000000;fill-opacity:1;fill-rule:nonzero;stroke:none;stroke-width:1.421" />
    <path
       id="path285"
       d="m 269.48097,136.15221 -0.37746,0.28865 c 0.17762,-0.0443 0.33305,-0.0666 0.46627,-0.0666 0.18872,0 0.383,0.0332 0.57728,0.11098 0.13315,0.0443 0.22757,0.0666 0.28863,0.0666 0.13315,0 0.27754,-0.0556 0.44406,-0.15541 0.0556,-0.0443 0.0999,-0.0667 0.13315,-0.0667 0.0277,0 0.0556,0.0114 0.0888,0.0443 0.0277,0.0277 0.0443,0.0666 0.0443,0.11098 0,0.0277 -0.0166,0.0556 -0.0443,0.0888 -0.0443,0.0443 -0.14987,0.0999 -0.31084,0.17762 -0.12206,0.0556 -0.23868,0.0888 -0.35525,0.0888 -0.10544,0 -0.23868,-0.0333 -0.39965,-0.0888 -0.16653,-0.0611 -0.32195,-0.0888 -0.46626,-0.0888 -0.10544,0 -0.23869,0.0114 -0.39966,0.0443 -0.22203,0.0277 -0.41077,0.0666 -0.55508,0.11098 -0.0443,0 -0.0777,0 -0.0888,0 -0.0333,0 -0.0611,-0.0166 -0.0888,-0.0443 -0.0333,-0.0166 -0.0443,-0.0443 -0.0443,-0.0888 0,-0.0443 0.0222,-0.0888 0.0666,-0.13315 l 0.62169,-0.44406 c -0.3719,-0.0888 -0.6883,-0.31084 -0.95474,-0.66609 -0.25534,-0.36635 -0.37745,-0.81041 -0.37745,-1.33219 0,-0.60503 0.16652,-1.0935 0.51067,-1.4654 0.33859,-0.383 0.73271,-0.57728 1.17677,-0.57728 0.45516,0 0.85481,0.19428 1.19897,0.57728 0.33859,0.3719 0.51066,0.86037 0.51066,1.4654 0,0.59394 -0.17207,1.0824 -0.51066,1.46541 -0.3275,0.3719 -0.7105,0.56062 -1.15457,0.57728 z m 1.37659,-2.04268 c 0,-0.45516 -0.13315,-0.86591 -0.39966,-1.22116 -0.25534,-0.36635 -0.59393,-0.55509 -1.02134,-0.55509 -0.38856,0 -0.72161,0.17763 -0.99915,0.53288 -0.28309,0.34415 -0.42185,0.7549 -0.42185,1.24337 0,0.52178 0.14432,0.94364 0.44406,1.26558 0.29419,0.3275 0.62169,0.48847 0.97694,0.48847 0.42741,0 0.766,-0.17762 1.02134,-0.53287 0.26644,-0.35525 0.39966,-0.76046 0.39966,-1.22118 z m 3.91884,-1.57641 v -0.19984 c 0,-0.0556 0.006,-0.0999 0.0222,-0.13314 0.0277,-0.0277 0.0666,-0.0443 0.11098,-0.0443 0.0443,0 0.0722,0.0166 0.0888,0.0443 0.0277,0.0333 0.0443,0.0777 0.0443,0.13314 v 0.77712 c 0,0.0777 -0.0166,0.1276 -0.0443,0.15541 -0.0166,0.0166 -0.0443,0.0222 -0.0888,0.0222 -0.0443,0 -0.0833,-0.006 -0.11098,-0.0222 -0.0166,-0.0277 -0.0222,-0.0722 -0.0222,-0.13314 -0.0166,-0.18873 -0.12207,-0.3608 -0.31085,-0.51067 -0.26643,-0.18872 -0.56618,-0.28865 -0.88812,-0.28865 -0.21093,0 -0.41075,0.0556 -0.59949,0.15543 -0.14986,0.0611 -0.26088,0.14432 -0.33304,0.24423 -0.14987,0.17762 -0.26643,0.3719 -0.35525,0.57728 -0.0611,0.14987 -0.0888,0.3275 -0.0888,0.53287 v 0.48847 c 0,0.41631 0.14432,0.77712 0.44406,1.08796 0.29419,0.29974 0.64388,0.44406 1.04354,0.44406 0.2498,0 0.46627,-0.05 0.6439,-0.15543 0.18872,-0.0999 0.37744,-0.25532 0.55507,-0.46625 0.0443,-0.0443 0.0888,-0.0667 0.13314,-0.0667 0.0443,0 0.0722,0.0166 0.0888,0.0443 0.0277,0.0166 0.0443,0.0443 0.0443,0.0888 0,0.0443 -0.0556,0.12206 -0.15541,0.22203 -0.17763,0.21093 -0.38856,0.36636 -0.62169,0.46627 -0.22203,0.0999 -0.44406,0.15541 -0.66609,0.15541 -0.21093,0 -0.41631,-0.0388 -0.62169,-0.11097 -0.16652,-0.0556 -0.29974,-0.12207 -0.39965,-0.19984 -0.10544,-0.0888 -0.23313,-0.22757 -0.37746,-0.42185 -0.14986,-0.18872 -0.25533,-0.36635 -0.31085,-0.53288 -0.0611,-0.16097 -0.0888,-0.33859 -0.0888,-0.53287 v -0.55508 c 0,-0.27754 0.0722,-0.56063 0.22203,-0.84372 0.14433,-0.29419 0.34415,-0.51622 0.59949,-0.66609 0.26644,-0.14432 0.54397,-0.22203 0.84372,-0.22203 0.45516,0 0.85481,0.15542 1.19897,0.46627 z m 0,0"
       style="fill:#000000;fill-opacity:1;fill-rule:nonzero;stroke:none;stroke-width:1.421"
       aria-label="QC" />
    <path
       id="path286"
       d="m 287.97614,131.3619 c 0.23313,0.12207 0.41075,0.27754 0.53288,0.46628 0.11652,0.17762 0.17762,0.3719 0.17762,0.57728 0,0.34413 -0.12775,0.63278 -0.37746,0.86591 -0.25534,0.23868 -0.55507,0.35525 -0.91032,0.35525 -0.35525,0 -0.66055,-0.11652 -0.91033,-0.35525 -0.23869,-0.23313 -0.35525,-0.52178 -0.35525,-0.86591 0,-0.20538 0.0556,-0.39966 0.17762,-0.57728 0.11652,-0.18874 0.29419,-0.34416 0.53288,-0.46628 -0.21094,-0.11652 -0.36635,-0.23313 -0.46626,-0.35525 -0.12206,-0.17762 -0.17763,-0.37744 -0.17763,-0.59947 0,-0.31085 0.11653,-0.57728 0.35525,-0.79931 0.23313,-0.23315 0.51622,-0.35525 0.84372,-0.35525 0.3386,0 0.62723,0.12206 0.86591,0.35525 0.23313,0.22203 0.35525,0.48846 0.35525,0.79931 0,0.22203 -0.0666,0.42185 -0.19982,0.59947 -0.0888,0.12207 -0.23868,0.23869 -0.44406,0.35525 z m 0.35525,-0.93253 c 0,-0.24978 -0.0888,-0.45516 -0.26644,-0.62168 -0.17762,-0.17763 -0.39965,-0.26644 -0.66609,-0.26644 -0.25534,0 -0.46627,0.0888 -0.6439,0.26644 -0.17762,0.17762 -0.26643,0.37746 -0.26643,0.59949 0,0.22203 0.0777,0.41631 0.24424,0.57728 0.17762,0.16651 0.39965,0.24423 0.66609,0.24423 0.26644,0 0.48847,-0.0777 0.66609,-0.24423 0.17763,-0.16097 0.26644,-0.34415 0.26644,-0.55509 z m 0.0666,1.99828 c 0,-0.24978 -0.0999,-0.46626 -0.28864,-0.64388 -0.19428,-0.17763 -0.43296,-0.26644 -0.7105,-0.26644 -0.28309,0 -0.52177,0.0888 -0.71049,0.26644 -0.19428,0.17762 -0.28865,0.3941 -0.28865,0.64388 0,0.25534 0.0943,0.47737 0.28865,0.66609 0.18872,0.17763 0.4274,0.26644 0.71049,0.26644 0.27754,0 0.51622,-0.0888 0.7105,-0.26644 0.18873,-0.18872 0.28864,-0.41075 0.28864,-0.66609 z m 0,0"
       style="fill:#000000;fill-opacity:1;fill-rule:nonzero;stroke:none;stroke-width:1.421"
       aria-label="8" />
    <path
       id="path287"
       d="m 257.01001,119.15 h 9.5"
       style="fill:none;stroke:#000000;stroke-width:0.528;stroke-linecap:round;stroke-linejoin:round;stroke-miterlimit:10;stroke-dasharray:none;stroke-opacity:1"
       clip-path="url(#clipPath288)"
       transform="matrix(1.4209973,0,0,1.4209973,-82.73762,-34.706038)" />
    <path
       id="path289"
       d="m 214.87603,121.03525 h 0.22738 v 0.22736 h -0.22738 z"
       style="fill:#000000;fill-opacity:1;fill-rule:nonzero;stroke:none;stroke-width:1.421" />
    <path
       id="path290"
       d="m 237.2865,119.00588 v 3.33046 h 0.97693 c 0.0556,0 0.0999,0.0166 0.13315,0.0443 0.0277,0.0333 0.0443,0.0667 0.0443,0.11098 0,0.0333 -0.0166,0.0611 -0.0443,0.0888 -0.0333,0.0332 -0.0777,0.0443 -0.13315,0.0443 h -2.19811 c -0.0777,0 -0.12761,-0.0114 -0.15541,-0.0443 -0.0333,-0.0277 -0.0443,-0.0556 -0.0443,-0.0888 0,-0.0443 0.0114,-0.0777 0.0443,-0.11098 0.0277,-0.0277 0.0777,-0.0443 0.15541,-0.0443 h 0.95474 v -3.33046 h -0.95474 c -0.0777,0 -0.12761,-0.006 -0.15541,-0.0222 -0.0333,-0.0277 -0.0443,-0.0666 -0.0443,-0.11098 0,-0.0443 0.0114,-0.0722 0.0443,-0.0888 0.0277,-0.0277 0.0777,-0.0443 0.15541,-0.0443 h 2.19811 c 0.0556,0 0.0999,0.0166 0.13315,0.0443 0.0277,0.0166 0.0443,0.0443 0.0443,0.0888 0,0.0443 -0.0166,0.0833 -0.0443,0.11098 -0.0333,0.0166 -0.0777,0.0222 -0.13315,0.0222 z m 5.53967,3.61911 h -0.35525 l -2.06489,-3.48589 v 3.19724 h 0.51067 c 0.0722,0 0.12207,0.0166 0.15542,0.0443 0.0277,0.0333 0.0443,0.0667 0.0443,0.11098 0,0.0333 -0.0166,0.0611 -0.0443,0.0888 -0.0333,0.0332 -0.0833,0.0443 -0.15542,0.0443 h -1.02134 c -0.0777,0 -0.12775,-0.0114 -0.15543,-0.0443 -0.0332,-0.0277 -0.0443,-0.0556 -0.0443,-0.0888 0,-0.0443 0.0114,-0.0777 0.0443,-0.11098 0.0277,-0.0277 0.0777,-0.0443 0.15543,-0.0443 h 0.22203 v -3.33046 h -0.37746 c -0.0611,0 -0.10543,-0.006 -0.13314,-0.0222 -0.0333,-0.0277 -0.0443,-0.0666 -0.0443,-0.11098 0,-0.0443 0.0114,-0.0722 0.0443,-0.0888 0.0277,-0.0277 0.0722,-0.0443 0.13314,-0.0443 h 0.73271 l 2.06488,3.48589 v -3.21945 h -0.51066 c -0.0777,0 -0.12775,-0.006 -0.15543,-0.0222 -0.0166,-0.0277 -0.0222,-0.0666 -0.0222,-0.11098 0,-0.0443 0.006,-0.0722 0.0222,-0.0888 0.0277,-0.0277 0.0777,-0.0443 0.15543,-0.0443 h 1.02134 c 0.0722,0 0.12206,0.0166 0.15541,0.0443 0.0277,0.0166 0.0443,0.0443 0.0443,0.0888 0,0.0443 -0.0166,0.0833 -0.0443,0.11098 -0.0333,0.0166 -0.0833,0.0222 -0.15541,0.0222 h -0.22203 z m 1.52091,-0.28865 v -3.33046 h -0.37746 c -0.0611,0 -0.10544,-0.006 -0.13315,-0.0222 -0.0332,-0.0277 -0.0443,-0.0666 -0.0443,-0.11098 0,-0.0443 0.0114,-0.0722 0.0443,-0.0888 0.0277,-0.0277 0.0722,-0.0443 0.13315,-0.0443 h 1.77624 c 0.3386,0 0.62169,0.10544 0.84372,0.31085 0.22203,0.19427 0.33305,0.42186 0.33305,0.6883 0,0.34414 -0.18872,0.61613 -0.55508,0.82151 0.29419,0.10543 0.51068,0.24424 0.6439,0.42186 0.13314,0.17763 0.19982,0.37189 0.19982,0.57728 0,0.17763 -0.0443,0.34969 -0.13315,0.51066 -0.0888,0.14988 -0.23313,0.2831 -0.42185,0.39966 -0.17763,0.10544 -0.3719,0.15543 -0.57728,0.15543 h -2.1093 c -0.0611,0 -0.10544,-0.0114 -0.13315,-0.0443 -0.0333,-0.0277 -0.0443,-0.0556 -0.0443,-0.0888 0,-0.0443 0.0114,-0.0777 0.0443,-0.11098 0.0277,-0.0277 0.0722,-0.0443 0.13315,-0.0443 z m 0.28863,-1.86506 h 0.97694 c 0.22203,0 0.42186,-0.0443 0.59949,-0.13315 0.13314,-0.0556 0.23312,-0.14431 0.31084,-0.26643 0.0722,-0.11653 0.11098,-0.23313 0.11098,-0.35525 0,-0.17763 -0.0833,-0.3386 -0.24423,-0.48847 -0.16652,-0.14432 -0.37746,-0.22203 -0.64389,-0.22203 h -1.11016 z m 0,1.86506 h 1.421 c 0.17762,0 0.33305,-0.0333 0.46627,-0.11098 0.13315,-0.0722 0.22757,-0.16653 0.28863,-0.28865 0.0722,-0.11652 0.11098,-0.24422 0.11098,-0.37744 0,-0.13315 -0.0556,-0.26644 -0.15543,-0.39966 -0.0888,-0.13315 -0.22203,-0.23314 -0.39965,-0.31084 -0.17763,-0.0722 -0.42185,-0.11098 -0.7327,-0.11098 h -0.99914 z m 0,0"
       style="fill:#000000;fill-opacity:1;fill-rule:nonzero;stroke:none;stroke-width:1.421"
       aria-label="INB" />
    <path
       id="path291"
       d="m 217.05394,115.88635 v 3.95215 h 0.97693 c 0.0556,0 0.0999,0.0166 0.13315,0.0443 0.0277,0.0332 0.0443,0.0666 0.0443,0.11098 0,0.0333 -0.0166,0.0611 -0.0443,0.0888 -0.0332,0.0333 -0.0777,0.0443 -0.13315,0.0443 h -2.19811 c -0.0777,0 -0.1276,-0.0114 -0.15541,-0.0443 -0.0332,-0.0277 -0.0443,-0.0556 -0.0443,-0.0888 0,-0.0443 0.0114,-0.0777 0.0443,-0.11098 0.0277,-0.0277 0.0777,-0.0443 0.15541,-0.0443 h 0.95474 v -3.5525 l -0.91033,0.28864 c -0.0443,0.0166 -0.0833,0.0222 -0.11098,0.0222 -0.0332,0 -0.0611,-0.0114 -0.0888,-0.0443 -0.0333,-0.0277 -0.0443,-0.0666 -0.0443,-0.11098 0,-0.0277 0.0114,-0.0556 0.0443,-0.0888 0.0114,-0.0114 0.0499,-0.0333 0.11098,-0.0667 z m 0,0"
       style="fill:#000000;fill-opacity:1;fill-rule:nonzero;stroke:none;stroke-width:1.421"
       aria-label="1" />
    <path
       id="path292"
       d="m 0,0 c 0,-0.72 -0.59,-1.32 -1.32,-1.32 -0.73,0 -1.32,0.6 -1.32,1.32 0,0.72 0.59,1.32 1.32,1.32 C -0.59,1.32 0,0.72 0,0 Z"
       style="fill:none;stroke:#000000;stroke-width:0.528;stroke-linecap:round;stroke-linejoin:round;stroke-miterlimit:10;stroke-dasharray:none;stroke-opacity:1"
       transform="matrix(1.4209973,0,0,1.4209973,227.66501,120.70843)"
       clip-path="url(#clipPath293)" />
    <path
       id="path294"
       d="m 215.8,109.64 h -6.33999"
       style="fill:none;stroke:#000000;stroke-width:0.528;stroke-linecap:round;stroke-linejoin:round;stroke-miterlimit:10;stroke-dasharray:none;stroke-opacity:1"
       clip-path="url(#clipPath295)"
       transform="matrix(1.4209973,0,0,1.4209973,-82.73762,-34.706038)" />
    <path
       id="path296"
       d="m 221.61,109.64 -2.64,1.58"
       style="fill:none;stroke:#000000;stroke-width:0.528;stroke-linecap:round;stroke-linejoin:round;stroke-miterlimit:10;stroke-dasharray:none;stroke-opacity:1"
       clip-path="url(#clipPath297)"
       transform="matrix(1.4209973,0,0,1.4209973,-82.73762,-34.706038)" />
    <path
       id="path298"
       d="m 221.61,109.64 -2.64,-1.59"
       style="fill:none;stroke:#000000;stroke-width:0.528;stroke-linecap:round;stroke-linejoin:round;stroke-miterlimit:10;stroke-dasharray:none;stroke-opacity:1"
       clip-path="url(#clipPath299)"
       transform="matrix(1.4209973,0,0,1.4209973,-82.73762,-34.706038)" />
    <path
       id="path300"
       d="m 214.87603,154.91182 h 0.22738 v 0.22738 h -0.22738 z"
       style="fill:#000000;fill-opacity:1;fill-rule:nonzero;stroke:none;stroke-width:1.421" />
    <path
       id="path301"
       d="m 233.96713,154.54192 v 1.4432 h 0.51068 c 0.0722,0 0.12206,0.0166 0.15541,0.0443 0.0277,0.0333 0.0443,0.0667 0.0443,0.11098 0,0.0332 -0.0166,0.0611 -0.0443,0.0888 -0.0332,0.0333 -0.0833,0.0443 -0.15541,0.0443 h -1.15456 c -0.0777,0 -0.12775,-0.0114 -0.15543,-0.0443 -0.0333,-0.0277 -0.0443,-0.0556 -0.0443,-0.0888 0,-0.0443 0.0114,-0.0777 0.0443,-0.11098 0.0277,-0.0277 0.0777,-0.0443 0.15543,-0.0443 h 0.37745 v -3.33047 h -0.37745 c -0.0777,0 -0.12775,-0.006 -0.15543,-0.0222 -0.0333,-0.0277 -0.0443,-0.0666 -0.0443,-0.11098 0,-0.0443 0.0114,-0.0722 0.0443,-0.0888 0.0277,-0.0277 0.0777,-0.0443 0.15543,-0.0443 h 1.68743 c 0.3386,0 0.62723,0.11098 0.86592,0.33305 0.24978,0.21093 0.37746,0.45516 0.37746,0.7327 0,0.21093 -0.0777,0.39965 -0.22203,0.57728 -0.14988,0.17762 -0.39966,0.32195 -0.75491,0.42186 0.20538,0.14987 0.37745,0.31084 0.51066,0.48847 0.14432,0.16653 0.37746,0.51066 0.68831,1.04354 h 0.22203 c 0.0556,0 0.0999,0.0166 0.13315,0.0443 0.0277,0.0332 0.0443,0.0666 0.0443,0.11098 0,0.0333 -0.0166,0.0611 -0.0443,0.0888 -0.0333,0.0333 -0.0777,0.0443 -0.13315,0.0443 h -0.37746 c -0.35525,-0.62169 -0.63279,-1.03244 -0.82151,-1.24337 -0.17762,-0.20538 -0.39411,-0.36635 -0.64389,-0.48847 z m 0,-0.28865 h 0.75491 c 0.24978,0 0.47181,-0.0443 0.66609,-0.13314 0.20538,-0.0888 0.35525,-0.18873 0.44406,-0.31085 0.0888,-0.11652 0.13315,-0.23312 0.13315,-0.35525 0,-0.18872 -0.0999,-0.36634 -0.28863,-0.53287 -0.17763,-0.17762 -0.41077,-0.26644 -0.68831,-0.26644 h -1.02134 z m 6.36674,-0.33303 c -0.14987,0.25533 -0.3275,0.44406 -0.53288,0.57728 -0.19427,0.12206 -0.3941,0.17762 -0.59947,0.17762 -0.19428,0 -0.37746,-0.05 -0.55509,-0.15543 -0.17762,-0.11652 -0.32749,-0.27753 -0.44406,-0.48847 -0.10544,-0.22203 -0.15541,-0.4496 -0.15541,-0.68828 0,-0.3386 0.0999,-0.64944 0.31084,-0.93253 0.22203,-0.27754 0.51066,-0.42187 0.86591,-0.42187 0.24979,0 0.47737,0.0833 0.68831,0.24424 0.20537,0.16653 0.36634,0.3941 0.48846,0.68829 0.14432,0.38856 0.22204,0.83262 0.22204,1.33218 0,0.39966 -0.0667,0.73271 -0.19984,0.99915 -0.0777,0.17763 -0.19428,0.34969 -0.35525,0.51066 -0.16653,0.16653 -0.34969,0.29975 -0.55507,0.39966 -0.28309,0.13315 -0.57174,0.19983 -0.86593,0.19983 -0.21093,0 -0.3719,-0.0388 -0.48846,-0.11098 -0.0611,-0.0277 -0.0888,-0.0722 -0.0888,-0.13314 0,-0.0277 0.006,-0.0556 0.0222,-0.0888 0.0277,-0.0277 0.0667,-0.0443 0.11098,-0.0443 0.0277,0 0.0666,0.0166 0.11098,0.0443 0.0888,0.0443 0.18872,0.0667 0.31084,0.0667 0.45516,0 0.85482,-0.16653 1.19897,-0.51068 0.3386,-0.33859 0.51066,-0.766 0.51066,-1.28778 0,-0.0888 0,-0.21092 0,-0.37744 z m -0.0666,-0.46628 c -0.12206,-0.45516 -0.26643,-0.766 -0.44406,-0.93253 -0.16653,-0.16097 -0.36636,-0.24422 -0.59949,-0.24422 -0.23868,0 -0.44406,0.10544 -0.62169,0.31084 -0.17762,0.19428 -0.26643,0.44406 -0.26643,0.75491 0,0.31084 0.0888,0.57172 0.26643,0.7771 0.17763,0.19427 0.37746,0.28864 0.5995,0.28864 0.13314,0 0.25532,-0.0333 0.37744,-0.11098 0.13315,-0.0722 0.25534,-0.18316 0.37746,-0.33304 0.0722,-0.0888 0.17762,-0.25533 0.31084,-0.51067 z m 3.13619,-1.42099 v 3.95215 h 0.97693 c 0.0556,0 0.0999,0.0166 0.13315,0.0443 0.0277,0.0333 0.0443,0.0667 0.0443,0.11098 0,0.0332 -0.0166,0.0611 -0.0443,0.0888 -0.0332,0.0333 -0.0777,0.0443 -0.13315,0.0443 h -2.19811 c -0.0777,0 -0.12761,-0.0114 -0.15541,-0.0443 -0.0333,-0.0277 -0.0443,-0.0556 -0.0443,-0.0888 0,-0.0443 0.0114,-0.0777 0.0443,-0.11098 0.0277,-0.0277 0.0777,-0.0443 0.15541,-0.0443 h 0.95474 v -3.5525 l -0.91033,0.28865 c -0.0443,0.0166 -0.0833,0.0222 -0.11098,0.0222 -0.0332,0 -0.0611,-0.0114 -0.0888,-0.0443 -0.0332,-0.0277 -0.0443,-0.0666 -0.0443,-0.11098 0,-0.0277 0.0114,-0.0556 0.0443,-0.0888 0.0114,-0.0114 0.0499,-0.0333 0.11098,-0.0667 z m 0,0"
       style="fill:#000000;fill-opacity:1;fill-rule:nonzero;stroke:none;stroke-width:1.421"
       aria-label="R91" />
    <path
       id="path302"
       d="m 216.0992,151.99966 c 0.16097,-0.24978 0.33305,-0.43297 0.51068,-0.55507 0.18872,-0.11652 0.39965,-0.17763 0.62168,-0.17763 0.29419,0 0.55507,0.12761 0.7771,0.37745 0.23315,0.23868 0.35525,0.54397 0.35525,0.91033 0,0.3275 -0.10543,0.63279 -0.31084,0.91032 -0.21092,0.26644 -0.49956,0.39966 -0.86591,0.39966 -0.23869,0 -0.46627,-0.0777 -0.6883,-0.22203 -0.21092,-0.14432 -0.37191,-0.36635 -0.48847,-0.6661 -0.14988,-0.383 -0.22203,-0.81041 -0.22203,-1.28777 0,-0.35525 0.0722,-0.6772 0.22203,-0.97694 0.0999,-0.23313 0.24424,-0.43296 0.42186,-0.59948 0.17763,-0.17762 0.383,-0.32195 0.62169,-0.44406 0.23313,-0.11652 0.48847,-0.17762 0.7549,-0.17762 0.18873,0 0.34416,0.0388 0.46626,0.11098 0.0556,0.0443 0.0888,0.0888 0.0888,0.13314 0,0.0443 -0.0166,0.0833 -0.0443,0.11098 -0.0166,0.0333 -0.0443,0.0443 -0.0888,0.0443 -0.0333,0 -0.0667,-0.0114 -0.11098,-0.0443 -0.0888,-0.0443 -0.19984,-0.0666 -0.33306,-0.0666 -0.43295,0 -0.8215,0.18872 -1.17675,0.55508 -0.35525,0.37191 -0.53288,0.81597 -0.53288,1.33219 0,0.0777 0.006,0.18872 0.0222,0.33304 z m 0.0443,0.46627 c 0.0888,0.41631 0.22204,0.7105 0.39966,0.88812 0.18874,0.16652 0.40521,0.24423 0.6439,0.24423 0.24978,0 0.46625,-0.0943 0.64388,-0.28863 0.17762,-0.18874 0.26644,-0.44406 0.26644,-0.75491 0,-0.29419 -0.0888,-0.53843 -0.26644,-0.73271 -0.17763,-0.18872 -0.37745,-0.28863 -0.59948,-0.28863 -0.22203,0 -0.43296,0.0999 -0.62168,0.28863 -0.13315,0.12207 -0.28865,0.33306 -0.46628,0.6439 z m 0,0"
       style="fill:#000000;fill-opacity:1;fill-rule:nonzero;stroke:none;stroke-width:1.421"
       aria-label="6" />
    <path
       id="path303"
       d="m 218.97,133.41 h -9.50999"
       style="fill:none;stroke:#000000;stroke-width:0.528;stroke-linecap:round;stroke-linejoin:round;stroke-miterlimit:10;stroke-dasharray:none;stroke-opacity:1"
       clip-path="url(#clipPath304)"
       transform="matrix(1.4209973,0,0,1.4209973,-82.73762,-34.706038)" />
    <path
       id="path305"
       d="m 214.87603,161.73261 h 0.22738 v 0.22734 h -0.22738 z"
       style="fill:#000000;fill-opacity:1;fill-rule:nonzero;stroke:none;stroke-width:1.421" />
    <path
       id="path306"
       d="m 233.96713,161.36382 v 1.44319 h 0.51068 c 0.0722,0 0.12206,0.0166 0.15541,0.0443 0.0277,0.0333 0.0443,0.0666 0.0443,0.11098 0,0.0332 -0.0166,0.0611 -0.0443,0.0888 -0.0332,0.0333 -0.0833,0.0443 -0.15541,0.0443 h -1.15456 c -0.0777,0 -0.12775,-0.0114 -0.15543,-0.0443 -0.0333,-0.0277 -0.0443,-0.0556 -0.0443,-0.0888 0,-0.0443 0.0114,-0.0777 0.0443,-0.11098 0.0277,-0.0277 0.0777,-0.0443 0.15543,-0.0443 h 0.37745 v -3.33046 h -0.37745 c -0.0777,0 -0.12775,-0.006 -0.15543,-0.0222 -0.0333,-0.0277 -0.0443,-0.0666 -0.0443,-0.11098 0,-0.0443 0.0114,-0.0722 0.0443,-0.0888 0.0277,-0.0277 0.0777,-0.0443 0.15543,-0.0443 h 1.68743 c 0.3386,0 0.62723,0.11098 0.86592,0.33306 0.24978,0.21093 0.37746,0.45516 0.37746,0.73269 0,0.21093 -0.0777,0.39966 -0.22203,0.57728 -0.14988,0.17763 -0.39966,0.32196 -0.75491,0.42187 0.20538,0.14987 0.37745,0.31084 0.51066,0.48846 0.14432,0.16653 0.37746,0.51067 0.68831,1.04354 h 0.22203 c 0.0556,0 0.0999,0.0166 0.13315,0.0443 0.0277,0.0332 0.0443,0.0666 0.0443,0.11098 0,0.0333 -0.0166,0.0611 -0.0443,0.0888 -0.0333,0.0333 -0.0777,0.0443 -0.13315,0.0443 h -0.37746 c -0.35525,-0.62169 -0.63279,-1.03244 -0.82151,-1.24338 -0.17762,-0.20537 -0.39411,-0.36634 -0.64389,-0.48847 z m 0,-0.28865 h 0.75491 c 0.24978,0 0.47181,-0.0443 0.66609,-0.13315 0.20538,-0.0888 0.35525,-0.18872 0.44406,-0.31084 0.0888,-0.11652 0.13315,-0.23313 0.13315,-0.35525 0,-0.18872 -0.0999,-0.36635 -0.28863,-0.53287 -0.17763,-0.17763 -0.41077,-0.26644 -0.68831,-0.26644 h -1.02134 z m 6.36674,-0.33304 c -0.14987,0.25534 -0.3275,0.44406 -0.53288,0.57728 -0.19427,0.12206 -0.3941,0.17763 -0.59947,0.17763 -0.19428,0 -0.37746,-0.05 -0.55509,-0.15543 -0.17762,-0.11652 -0.32749,-0.27754 -0.44406,-0.48847 -0.10544,-0.22203 -0.15541,-0.4496 -0.15541,-0.68829 0,-0.33859 0.0999,-0.64944 0.31084,-0.93253 0.22203,-0.27753 0.51066,-0.42186 0.86591,-0.42186 0.24979,0 0.47737,0.0833 0.68831,0.24424 0.20537,0.16652 0.36634,0.3941 0.48846,0.68829 0.14432,0.38855 0.22204,0.83261 0.22204,1.33218 0,0.39966 -0.0667,0.73271 -0.19984,0.99915 -0.0777,0.17762 -0.19428,0.34969 -0.35525,0.51066 -0.16653,0.16653 -0.34969,0.29974 -0.55507,0.39966 -0.28309,0.13314 -0.57174,0.19983 -0.86593,0.19983 -0.21093,0 -0.3719,-0.0388 -0.48846,-0.11098 -0.0611,-0.0277 -0.0888,-0.0722 -0.0888,-0.13315 0,-0.0277 0.006,-0.0556 0.0222,-0.0888 0.0277,-0.0277 0.0667,-0.0443 0.11098,-0.0443 0.0277,0 0.0666,0.0166 0.11098,0.0443 0.0888,0.0443 0.18872,0.0667 0.31084,0.0667 0.45516,0 0.85482,-0.16653 1.19897,-0.51068 0.3386,-0.3386 0.51066,-0.76601 0.51066,-1.28778 0,-0.0888 0,-0.21092 0,-0.37745 z m -0.0666,-0.46627 c -0.12206,-0.45516 -0.26643,-0.766 -0.44406,-0.93253 -0.16653,-0.16097 -0.36636,-0.24423 -0.59949,-0.24423 -0.23868,0 -0.44406,0.10544 -0.62169,0.31085 -0.17762,0.19427 -0.26643,0.44406 -0.26643,0.7549 0,0.31084 0.0888,0.57172 0.26643,0.7771 0.17763,0.19428 0.37746,0.28865 0.5995,0.28865 0.13314,0 0.25532,-0.0333 0.37744,-0.11098 0.13315,-0.0722 0.25534,-0.18317 0.37746,-0.33304 0.0722,-0.0888 0.17762,-0.25534 0.31084,-0.51068 z m 1.804,2.53115 h 2.15369 v -0.11098 c 0,-0.0556 0.006,-0.0999 0.0222,-0.13315 0.0277,-0.0277 0.0666,-0.0443 0.11098,-0.0443 0.0443,0 0.0722,0.0166 0.0888,0.0443 0.0277,0.0332 0.0443,0.0777 0.0443,0.13315 v 0.39966 h -2.68657 v -0.42187 c 0.56063,-0.49957 1.11016,-1.02134 1.64303,-1.55422 0.24978,-0.23312 0.42185,-0.41075 0.51066,-0.53287 0.0999,-0.11652 0.16653,-0.22203 0.19984,-0.31084 0.0277,-0.0888 0.0443,-0.17763 0.0443,-0.26644 0,-0.23313 -0.0999,-0.44406 -0.28864,-0.62169 -0.19428,-0.18872 -0.42185,-0.28863 -0.68829,-0.28863 -0.25534,0 -0.47737,0.0777 -0.66609,0.22203 -0.17763,0.13315 -0.29975,0.30529 -0.35525,0.51067 -0.0166,0.0611 -0.0333,0.0999 -0.0443,0.11098 -0.0332,0.0166 -0.0611,0.0222 -0.0888,0.0222 -0.0443,0 -0.0833,-0.006 -0.11098,-0.0222 -0.0166,-0.0277 -0.0222,-0.0667 -0.0222,-0.11098 0,-0.0999 0.0556,-0.24423 0.17763,-0.42186 0.11652,-0.18872 0.27198,-0.33859 0.46625,-0.44406 0.20538,-0.0999 0.42187,-0.15543 0.6439,-0.15543 0.3386,0 0.63279,0.12761 0.88812,0.37746 0.24979,0.23869 0.37745,0.51067 0.37745,0.82151 0,0.12206 -0.0222,0.23869 -0.0666,0.35525 -0.0333,0.10544 -0.0999,0.22203 -0.19983,0.35525 -0.10544,0.12206 -0.28863,0.31084 -0.55507,0.57728 -0.65499,0.63834 -1.18787,1.14346 -1.59862,1.50981 z m 0,0"
       style="fill:#000000;fill-opacity:1;fill-rule:nonzero;stroke:none;stroke-width:1.421"
       aria-label="R92" />
    <path
       id="path307"
       d="m 217.85325,156.82329 v -0.11098 h -1.99828 v 0.24423 c 0,0.0611 -0.0166,0.10544 -0.0443,0.13314 -0.0166,0.0333 -0.0443,0.0443 -0.0888,0.0443 -0.0443,0 -0.0833,-0.0114 -0.11098,-0.0443 -0.0166,-0.0277 -0.0222,-0.0722 -0.0222,-0.13314 v -0.53288 h 2.55335 v 0.44406 l -1.11016,3.5969 c -0.0333,0.0611 -0.0611,0.0999 -0.0888,0.11098 -0.0166,0.0166 -0.0388,0.0222 -0.0667,0.0222 -0.0443,0 -0.0833,-0.006 -0.11098,-0.0222 -0.0166,-0.0277 -0.0222,-0.0666 -0.0222,-0.11098 0,-0.0114 0.006,-0.0443 0.0222,-0.0888 z m 0,0"
       style="fill:#000000;fill-opacity:1;fill-rule:nonzero;stroke:none;stroke-width:1.421"
       aria-label="7" />
    <path
       id="path308"
       d="m 218.97,138.17 h -9.50999"
       style="fill:none;stroke:#000000;stroke-width:0.528;stroke-linecap:round;stroke-linejoin:round;stroke-miterlimit:10;stroke-dasharray:none;stroke-opacity:1"
       clip-path="url(#clipPath309)"
       transform="matrix(1.4209973,0,0,1.4209973,-82.73762,-34.706038)" />
    <path
       id="path310"
       d="m 214.87603,134.67682 h 0.22738 v 0.22736 h -0.22738 z"
       style="fill:#000000;fill-opacity:1;fill-rule:nonzero;stroke:none;stroke-width:1.421" />
    <path
       id="path311"
       d="m 233.96713,134.30936 v 1.4432 h 0.51068 c 0.0722,0 0.12206,0.0166 0.15541,0.0443 0.0277,0.0333 0.0443,0.0667 0.0443,0.11098 0,0.0333 -0.0166,0.0611 -0.0443,0.0888 -0.0332,0.0333 -0.0833,0.0443 -0.15541,0.0443 h -1.15456 c -0.0777,0 -0.12775,-0.0114 -0.15543,-0.0443 -0.0333,-0.0277 -0.0443,-0.0556 -0.0443,-0.0888 0,-0.0443 0.0114,-0.0777 0.0443,-0.11098 0.0277,-0.0277 0.0777,-0.0443 0.15543,-0.0443 h 0.37745 v -3.33046 h -0.37745 c -0.0777,0 -0.12775,-0.006 -0.15543,-0.0222 -0.0333,-0.0277 -0.0443,-0.0667 -0.0443,-0.11098 0,-0.0443 0.0114,-0.0722 0.0443,-0.0888 0.0277,-0.0277 0.0777,-0.0443 0.15543,-0.0443 h 1.68743 c 0.3386,0 0.62723,0.11098 0.86592,0.33305 0.24978,0.21094 0.37746,0.45516 0.37746,0.7327 0,0.21093 -0.0777,0.39965 -0.22203,0.57728 -0.14988,0.17762 -0.39966,0.32195 -0.75491,0.42186 0.20538,0.14988 0.37745,0.31085 0.51066,0.48847 0.14432,0.16653 0.37746,0.51067 0.68831,1.04354 h 0.22203 c 0.0556,0 0.0999,0.0166 0.13315,0.0443 0.0277,0.0332 0.0443,0.0666 0.0443,0.11097 0,0.0333 -0.0166,0.0611 -0.0443,0.0888 -0.0333,0.0333 -0.0777,0.0443 -0.13315,0.0443 h -0.37746 c -0.35525,-0.62168 -0.63279,-1.03244 -0.82151,-1.24337 -0.17762,-0.20538 -0.39411,-0.36635 -0.64389,-0.48847 z m 0,-0.28864 h 0.75491 c 0.24978,0 0.47181,-0.0443 0.66609,-0.13315 0.20538,-0.0888 0.35525,-0.18872 0.44406,-0.31084 0.0888,-0.11652 0.13315,-0.23313 0.13315,-0.35525 0,-0.18873 -0.0999,-0.36635 -0.28863,-0.53288 -0.17763,-0.17762 -0.41077,-0.26643 -0.68831,-0.26643 h -1.02134 z m 6.49996,-0.42185 v 0.71049 c 0,0.59394 -0.14432,1.06575 -0.42186,1.421 -0.23868,0.26644 -0.52733,0.39966 -0.86592,0.39966 -0.16653,0 -0.32194,-0.0333 -0.46626,-0.0888 -0.13315,-0.0556 -0.25534,-0.14432 -0.35525,-0.26644 -0.0777,-0.0722 -0.14987,-0.18872 -0.22203,-0.35525 -0.0777,-0.16097 -0.12775,-0.31084 -0.15543,-0.44406 -0.0611,-0.18873 -0.0888,-0.41076 -0.0888,-0.6661 v -0.71049 c 0,-0.58838 0.14432,-1.06575 0.44406,-1.421 0.22203,-0.27754 0.49957,-0.42187 0.84372,-0.42187 0.16097,0 0.3164,0.0388 0.46627,0.11098 0.14432,0.0611 0.27198,0.14988 0.37744,0.26644 0.0556,0.0777 0.12207,0.19428 0.19984,0.35525 0.0722,0.16653 0.13315,0.31084 0.17762,0.44406 0.0443,0.19428 0.0667,0.41631 0.0667,0.66609 z m -0.28864,0.0443 c 0,-0.26644 -0.0389,-0.51068 -0.11098,-0.73271 -0.0777,-0.22203 -0.15541,-0.4052 -0.24422,-0.55507 -0.0611,-0.0722 -0.13315,-0.13883 -0.22203,-0.19983 -0.12207,-0.0722 -0.2609,-0.11098 -0.42187,-0.11098 -0.31084,0 -0.55507,0.16652 -0.73269,0.48847 -0.17763,0.31084 -0.26644,0.68274 -0.26644,1.11015 v 0.62169 c 0,0.26643 0.0333,0.52177 0.11098,0.7549 0.0722,0.22203 0.15543,0.39966 0.24424,0.53287 0.0556,0.0777 0.13315,0.14432 0.22203,0.19983 0.13315,0.0777 0.27198,0.11098 0.42185,0.11098 0.31084,0 0.55509,-0.15543 0.73271,-0.46628 0.17763,-0.32194 0.26644,-0.69938 0.26644,-1.13235 z m 3.225,-1.84286 v 3.95215 h 0.97694 c 0.0556,0 0.0999,0.0166 0.13314,0.0443 0.0277,0.0333 0.0443,0.0667 0.0443,0.11098 0,0.0332 -0.0166,0.0611 -0.0443,0.0888 -0.0333,0.0333 -0.0777,0.0443 -0.13314,0.0443 h -2.19812 c -0.0777,0 -0.1276,-0.0114 -0.15541,-0.0443 -0.0333,-0.0277 -0.0443,-0.0556 -0.0443,-0.0888 0,-0.0443 0.0114,-0.0777 0.0443,-0.11098 0.0277,-0.0277 0.0777,-0.0443 0.15541,-0.0443 h 0.95474 v -3.5525 l -0.91033,0.28865 c -0.0443,0.0166 -0.0833,0.0222 -0.11098,0.0222 -0.0333,0 -0.0611,-0.0114 -0.0888,-0.0443 -0.0333,-0.0277 -0.0443,-0.0666 -0.0443,-0.11098 0,-0.0277 0.0114,-0.0556 0.0443,-0.0888 0.0114,-0.0114 0.0499,-0.0333 0.11098,-0.0666 z m 0,0"
       style="fill:#000000;fill-opacity:1;fill-rule:nonzero;stroke:none;stroke-width:1.421"
       aria-label="R01" />
    <path
       id="path312"
       d="m 215.72175,133.24917 h 2.1537 v -0.11098 c 0,-0.0556 0.006,-0.0999 0.0222,-0.13314 0.0277,-0.0277 0.0667,-0.0443 0.11098,-0.0443 0.0443,0 0.0722,0.0166 0.0888,0.0443 0.0277,0.0332 0.0443,0.0777 0.0443,0.13314 v 0.39966 h -2.68656 V 133.116 c 0.56062,-0.49958 1.11015,-1.02134 1.64302,-1.55422 0.24979,-0.23314 0.42185,-0.41077 0.51067,-0.53287 0.0999,-0.11652 0.16652,-0.22203 0.19983,-0.31085 0.0277,-0.0888 0.0443,-0.17762 0.0443,-0.26643 0,-0.23315 -0.0999,-0.44406 -0.28865,-0.62169 -0.19428,-0.18874 -0.42185,-0.28865 -0.68829,-0.28865 -0.25534,0 -0.47737,0.0777 -0.66609,0.22203 -0.17763,0.13315 -0.29975,0.30531 -0.35525,0.51068 -0.0166,0.0611 -0.0333,0.0999 -0.0443,0.11098 -0.0332,0.0166 -0.0611,0.0222 -0.0888,0.0222 -0.0443,0 -0.0833,-0.006 -0.11098,-0.0222 -0.0166,-0.0277 -0.0222,-0.0666 -0.0222,-0.11098 0,-0.0999 0.0556,-0.24424 0.17763,-0.42186 0.11652,-0.18873 0.27198,-0.3386 0.46626,-0.44407 0.20537,-0.0999 0.42186,-0.15541 0.64389,-0.15541 0.3386,0 0.63279,0.12761 0.88813,0.37745 0.24978,0.23868 0.37744,0.51067 0.37744,0.82152 0,0.12206 -0.0222,0.23868 -0.0666,0.35525 -0.0333,0.10543 -0.0999,0.22203 -0.19984,0.35525 -0.10544,0.12206 -0.28863,0.31084 -0.55507,0.57728 -0.65499,0.63834 -1.18787,1.14344 -1.59862,1.50981 z m 0,0"
       style="fill:#000000;fill-opacity:1;fill-rule:nonzero;stroke:none;stroke-width:1.421"
       aria-label="2" />
    <path
       id="path313"
       d="m 218.97,119.15 h -9.50999"
       style="fill:none;stroke:#000000;stroke-width:0.528;stroke-linecap:round;stroke-linejoin:round;stroke-miterlimit:10;stroke-dasharray:none;stroke-opacity:1"
       clip-path="url(#clipPath314)"
       transform="matrix(1.4209973,0,0,1.4209973,-82.73762,-34.706038)" />
    <path
       id="path315"
       d="m 214.87603,114.44182 h 0.22738 v 0.22736 h -0.22738 z"
       style="fill:#000000;fill-opacity:1;fill-rule:nonzero;stroke:none;stroke-width:1.421" />
    <path
       id="path316"
       d="M 237.2865,112.18954 V 115.52 h 0.97693 c 0.0556,0 0.0999,0.0166 0.13315,0.0443 0.0277,0.0332 0.0443,0.0666 0.0443,0.11098 0,0.0332 -0.0166,0.0611 -0.0443,0.0888 -0.0333,0.0333 -0.0777,0.0443 -0.13315,0.0443 h -2.19811 c -0.0777,0 -0.12761,-0.0114 -0.15541,-0.0443 -0.0333,-0.0277 -0.0443,-0.0556 -0.0443,-0.0888 0,-0.0443 0.0114,-0.0777 0.0443,-0.11098 0.0277,-0.0277 0.0777,-0.0443 0.15541,-0.0443 h 0.95474 v -3.33046 h -0.95474 c -0.0777,0 -0.12761,-0.006 -0.15541,-0.0222 -0.0333,-0.0277 -0.0443,-0.0666 -0.0443,-0.11098 0,-0.0443 0.0114,-0.0722 0.0443,-0.0888 0.0277,-0.0277 0.0777,-0.0443 0.15541,-0.0443 h 2.19811 c 0.0556,0 0.0999,0.0166 0.13315,0.0443 0.0277,0.0166 0.0443,0.0443 0.0443,0.0888 0,0.0443 -0.0166,0.0833 -0.0443,0.11098 -0.0333,0.0166 -0.0777,0.0222 -0.13315,0.0222 z m 5.53967,3.61909 h -0.35525 l -2.06489,-3.48587 V 115.52 h 0.51067 c 0.0722,0 0.12207,0.0166 0.15542,0.0443 0.0277,0.0332 0.0443,0.0666 0.0443,0.11098 0,0.0332 -0.0166,0.0611 -0.0443,0.0888 -0.0333,0.0333 -0.0833,0.0443 -0.15542,0.0443 h -1.02134 c -0.0777,0 -0.12775,-0.0114 -0.15543,-0.0443 -0.0332,-0.0277 -0.0443,-0.0556 -0.0443,-0.0888 0,-0.0443 0.0114,-0.0777 0.0443,-0.11098 0.0277,-0.0277 0.0777,-0.0443 0.15543,-0.0443 h 0.22203 v -3.33046 h -0.37746 c -0.0611,0 -0.10543,-0.006 -0.13314,-0.0222 -0.0333,-0.0277 -0.0443,-0.0666 -0.0443,-0.11098 0,-0.0443 0.0114,-0.0722 0.0443,-0.0888 0.0277,-0.0277 0.0722,-0.0443 0.13314,-0.0443 h 0.73271 l 2.06488,3.48588 v -3.21958 h -0.51066 c -0.0777,0 -0.12775,-0.006 -0.15543,-0.0222 -0.0166,-0.0277 -0.0222,-0.0666 -0.0222,-0.11098 0,-0.0443 0.006,-0.0722 0.0222,-0.0888 0.0277,-0.0277 0.0777,-0.0443 0.15543,-0.0443 h 1.02134 c 0.0722,0 0.12206,0.0166 0.15541,0.0443 0.0277,0.0166 0.0443,0.0443 0.0443,0.0888 0,0.0443 -0.0166,0.0833 -0.0443,0.11098 -0.0333,0.0166 -0.0833,0.0222 -0.15541,0.0222 h -0.22203 z m 3.6524,-1.30997 h -1.84286 l -0.37745,1.02134 h 0.53288 c 0.0722,0 0.11652,0.0166 0.13315,0.0443 0.0277,0.0332 0.0443,0.0666 0.0443,0.11098 0,0.0332 -0.0166,0.0611 -0.0443,0.0888 -0.0166,0.0333 -0.0611,0.0443 -0.13315,0.0443 h -1.04355 c -0.0777,0 -0.12761,-0.0114 -0.15542,-0.0443 -0.0166,-0.0277 -0.0222,-0.0556 -0.0222,-0.0888 0,-0.0443 0.006,-0.0777 0.0222,-0.11098 0.0277,-0.0277 0.0777,-0.0443 0.15542,-0.0443 h 0.22203 l 1.22117,-3.33046 h -0.82152 c -0.0611,0 -0.10544,-0.006 -0.13314,-0.0222 -0.0333,-0.0277 -0.0443,-0.0666 -0.0443,-0.11098 0,-0.0443 0.0114,-0.0722 0.0443,-0.0888 0.0277,-0.0277 0.0722,-0.0443 0.13314,-0.0443 h 1.421 l 1.3544,3.5969 h 0.22203 c 0.0556,0 0.0999,0.0166 0.13314,0.0443 0.0277,0.0332 0.0443,0.0666 0.0443,0.11098 0,0.0332 -0.0166,0.0611 -0.0443,0.0888 -0.0333,0.0333 -0.0777,0.0443 -0.13314,0.0443 h -1.04356 c -0.0777,0 -0.1276,-0.0114 -0.15541,-0.0443 -0.0333,-0.0277 -0.0443,-0.0556 -0.0443,-0.0888 0,-0.0443 0.0114,-0.0777 0.0443,-0.11098 0.0277,-0.0277 0.0777,-0.0443 0.15541,-0.0443 h 0.53288 z m -0.11098,-0.26644 -0.7771,-2.04268 h -0.11098 l -0.73269,2.04268 z m 0,0"
       style="fill:#000000;fill-opacity:1;fill-rule:nonzero;stroke:none;stroke-width:1.421"
       aria-label="INA" />
    <path
       id="path317"
       d="m 217.05394,109.06445 v 3.95215 h 0.97693 c 0.0556,0 0.0999,0.0166 0.13315,0.0443 0.0277,0.0332 0.0443,0.0666 0.0443,0.11098 0,0.0332 -0.0166,0.0611 -0.0443,0.0888 -0.0332,0.0333 -0.0777,0.0443 -0.13315,0.0443 h -2.19811 c -0.0777,0 -0.1276,-0.0114 -0.15541,-0.0443 -0.0332,-0.0277 -0.0443,-0.0556 -0.0443,-0.0888 0,-0.0443 0.0114,-0.0777 0.0443,-0.11098 0.0277,-0.0277 0.0777,-0.0443 0.15541,-0.0443 h 0.95474 v -3.55249 l -0.91033,0.28865 c -0.0443,0.0166 -0.0833,0.0222 -0.11098,0.0222 -0.0332,0 -0.0611,-0.0114 -0.0888,-0.0443 -0.0333,-0.0277 -0.0443,-0.0667 -0.0443,-0.11098 0,-0.0277 0.0114,-0.0556 0.0443,-0.0888 0.0114,-0.0114 0.0499,-0.0333 0.11098,-0.0666 z m 4.69595,3.06403 h -1.86505 v -0.31085 l 1.55421,-2.68656 h 0.57728 v 2.73097 h 0.24423 c 0.0556,0 0.0999,0.0166 0.13315,0.0443 0.0277,0.0166 0.0443,0.0443 0.0443,0.0888 0,0.0443 -0.0166,0.0833 -0.0443,0.11098 -0.0333,0.0166 -0.0777,0.0222 -0.13315,0.0222 h -0.24423 v 0.88812 h 0.24423 c 0.0556,0 0.0999,0.0166 0.13315,0.0443 0.0277,0.0333 0.0443,0.0667 0.0443,0.11098 0,0.0333 -0.0166,0.0611 -0.0443,0.0888 -0.0333,0.0333 -0.0777,0.0443 -0.13315,0.0443 h -1.04354 c -0.0777,0 -0.12775,-0.0114 -0.15543,-0.0443 -0.0333,-0.0277 -0.0443,-0.0556 -0.0443,-0.0888 0,-0.0443 0.0114,-0.0777 0.0443,-0.11098 0.0277,-0.0277 0.0777,-0.0443 0.15543,-0.0443 h 0.53287 z m 0,-0.26644 v -2.44234 h -0.15542 l -1.421,2.44234 z m 0,0"
       style="fill:#000000;fill-opacity:1;fill-rule:nonzero;stroke:none;stroke-width:1.421"
       aria-label="14" />
    <path
       id="path318"
       d="m 0,0 c 0,-0.72 -0.59,-1.32 -1.32,-1.32 -0.73,0 -1.32,0.6 -1.32,1.32 0,0.72 0.59,1.32 1.32,1.32 C -0.59,1.32 0,0.72 0,0 Z"
       style="fill:none;stroke:#000000;stroke-width:0.528;stroke-linecap:round;stroke-linejoin:round;stroke-miterlimit:10;stroke-dasharray:none;stroke-opacity:1"
       transform="matrix(1.4209973,0,0,1.4209973,227.66501,113.95869)"
       clip-path="url(#clipPath319)" />
    <path
       id="path320"
       d="m 215.8,104.88 h -6.33999"
       style="fill:none;stroke:#000000;stroke-width:0.528;stroke-linecap:round;stroke-linejoin:round;stroke-miterlimit:10;stroke-dasharray:none;stroke-opacity:1"
       clip-path="url(#clipPath321)"
       transform="matrix(1.4209973,0,0,1.4209973,-82.73762,-34.706038)" />
    <path
       id="path322"
       d="m 221.61,104.88 -2.64,1.59"
       style="fill:none;stroke:#000000;stroke-width:0.528;stroke-linecap:round;stroke-linejoin:round;stroke-miterlimit:10;stroke-dasharray:none;stroke-opacity:1"
       clip-path="url(#clipPath323)"
       transform="matrix(1.4209973,0,0,1.4209973,-82.73762,-34.706038)" />
    <path
       id="path324"
       d="m 221.61,104.88 -2.64,-1.58"
       style="fill:none;stroke:#000000;stroke-width:0.528;stroke-linecap:round;stroke-linejoin:round;stroke-miterlimit:10;stroke-dasharray:none;stroke-opacity:1"
       clip-path="url(#clipPath325)"
       transform="matrix(1.4209973,0,0,1.4209973,-82.73762,-34.706038)" />
    <path
       id="path326"
       d="m 214.87603,141.27025 h 0.22738 v 0.22736 h -0.22738 z"
       style="fill:#000000;fill-opacity:1;fill-rule:nonzero;stroke:none;stroke-width:1.421" />
    <path
       id="path327"
       d="m 233.96713,141.13125 v 1.4432 h 0.51068 c 0.0722,0 0.12206,0.0166 0.15541,0.0443 0.0277,0.0333 0.0443,0.0666 0.0443,0.11098 0,0.0333 -0.0166,0.0611 -0.0443,0.0888 -0.0332,0.0333 -0.0833,0.0443 -0.15541,0.0443 h -1.15456 c -0.0777,0 -0.12775,-0.0114 -0.15543,-0.0443 -0.0333,-0.0277 -0.0443,-0.0556 -0.0443,-0.0888 0,-0.0443 0.0114,-0.0777 0.0443,-0.11098 0.0277,-0.0277 0.0777,-0.0443 0.15543,-0.0443 h 0.37745 v -3.33046 h -0.37745 c -0.0777,0 -0.12775,-0.006 -0.15543,-0.0222 -0.0333,-0.0277 -0.0443,-0.0666 -0.0443,-0.11098 0,-0.0443 0.0114,-0.0722 0.0443,-0.0888 0.0277,-0.0277 0.0777,-0.0443 0.15543,-0.0443 h 1.68743 c 0.3386,0 0.62723,0.11098 0.86592,0.33304 0.24978,0.21093 0.37746,0.45517 0.37746,0.7327 0,0.21094 -0.0777,0.39966 -0.22203,0.57728 -0.14988,0.17763 -0.39966,0.32195 -0.75491,0.42186 0.20538,0.14987 0.37745,0.31084 0.51066,0.48846 0.14432,0.16653 0.37746,0.51068 0.68831,1.04356 h 0.22203 c 0.0556,0 0.0999,0.0166 0.13315,0.0443 0.0277,0.0332 0.0443,0.0666 0.0443,0.11098 0,0.0333 -0.0166,0.0611 -0.0443,0.0888 -0.0333,0.0332 -0.0777,0.0443 -0.13315,0.0443 h -0.37746 c -0.35525,-0.62169 -0.63279,-1.03244 -0.82151,-1.24337 -0.17762,-0.20538 -0.39411,-0.36635 -0.64389,-0.48847 z m 0,-0.28864 h 0.75491 c 0.24978,0 0.47181,-0.0443 0.66609,-0.13314 0.20538,-0.0888 0.35525,-0.18873 0.44406,-0.31085 0.0888,-0.11652 0.13315,-0.23313 0.13315,-0.35525 0,-0.18872 -0.0999,-0.36634 -0.28863,-0.53287 -0.17763,-0.17763 -0.41077,-0.26644 -0.68831,-0.26644 h -1.02134 z m 6.49996,-0.42186 v 0.7105 c 0,0.59393 -0.14432,1.06574 -0.42186,1.42099 -0.23868,0.26644 -0.52733,0.39966 -0.86592,0.39966 -0.16653,0 -0.32194,-0.0332 -0.46626,-0.0888 -0.13315,-0.0556 -0.25534,-0.14432 -0.35525,-0.26644 -0.0777,-0.0722 -0.14987,-0.18872 -0.22203,-0.35525 -0.0777,-0.16097 -0.12775,-0.31084 -0.15543,-0.44406 -0.0611,-0.18872 -0.0888,-0.41076 -0.0888,-0.66609 v -0.7105 c 0,-0.58838 0.14432,-1.06575 0.44406,-1.421 0.22203,-0.27754 0.49957,-0.42185 0.84372,-0.42185 0.16097,0 0.3164,0.0388 0.46627,0.11098 0.14432,0.0611 0.27198,0.14987 0.37744,0.26644 0.0556,0.0777 0.12207,0.19427 0.19984,0.35524 0.0722,0.16653 0.13315,0.31085 0.17762,0.44407 0.0443,0.19427 0.0667,0.41631 0.0667,0.66609 z m -0.28864,0.0443 c 0,-0.26643 -0.0389,-0.51066 -0.11098,-0.73269 -0.0777,-0.22203 -0.15541,-0.40521 -0.24422,-0.55509 -0.0611,-0.0722 -0.13315,-0.13883 -0.22203,-0.19982 -0.12207,-0.0722 -0.2609,-0.11098 -0.42187,-0.11098 -0.31084,0 -0.55507,0.16653 -0.73269,0.48847 -0.17763,0.31084 -0.26644,0.68275 -0.26644,1.11015 v 0.62169 c 0,0.26644 0.0333,0.52178 0.11098,0.75491 0.0722,0.22203 0.15543,0.39965 0.24424,0.53287 0.0556,0.0777 0.13315,0.14433 0.22203,0.19983 0.13315,0.0777 0.27198,0.11098 0.42185,0.11098 0.31084,0 0.55509,-0.15541 0.73271,-0.46625 0.17763,-0.32194 0.26644,-0.6994 0.26644,-1.13237 z m 1.89281,2.1093 h 2.1537 v -0.11098 c 0,-0.0556 0.006,-0.0999 0.0222,-0.13315 0.0277,-0.0277 0.0667,-0.0443 0.11098,-0.0443 0.0443,0 0.0722,0.0166 0.0888,0.0443 0.0277,0.0333 0.0443,0.0777 0.0443,0.13315 v 0.39966 h -2.68656 v -0.42185 c 0.56062,-0.49957 1.11015,-1.02135 1.64302,-1.55422 0.24979,-0.23313 0.42185,-0.41075 0.51067,-0.53287 0.0999,-0.11653 0.16652,-0.22203 0.19983,-0.31085 0.0277,-0.0888 0.0443,-0.17762 0.0443,-0.26643 0,-0.23313 -0.0999,-0.44407 -0.28865,-0.62169 -0.19428,-0.18872 -0.42185,-0.28865 -0.68829,-0.28865 -0.25534,0 -0.47737,0.0777 -0.66609,0.22203 -0.17763,0.13315 -0.29975,0.3053 -0.35525,0.51068 -0.0166,0.0611 -0.0333,0.0999 -0.0443,0.11098 -0.0333,0.0166 -0.0611,0.0222 -0.0888,0.0222 -0.0443,0 -0.0833,-0.006 -0.11098,-0.0222 -0.0166,-0.0277 -0.0222,-0.0666 -0.0222,-0.11098 0,-0.0999 0.0556,-0.24424 0.17763,-0.42186 0.11652,-0.18873 0.27198,-0.3386 0.46626,-0.44407 0.20537,-0.0999 0.42186,-0.15541 0.64389,-0.15541 0.3386,0 0.63279,0.12761 0.88813,0.37745 0.24978,0.23868 0.37744,0.51067 0.37744,0.82152 0,0.12206 -0.0222,0.23868 -0.0666,0.35525 -0.0332,0.10543 -0.0999,0.22203 -0.19984,0.35525 -0.10544,0.12206 -0.28863,0.31084 -0.55507,0.57728 -0.65499,0.63834 -1.18787,1.14346 -1.59862,1.5098 z m 0,0"
       style="fill:#000000;fill-opacity:1;fill-rule:nonzero;stroke:none;stroke-width:1.421"
       aria-label="R02" />
    <path
       id="path328"
       d="m 217.498,138.09499 c 0.24978,0.10543 0.44406,0.26088 0.57728,0.46625 0.14432,0.21094 0.22203,0.41631 0.22203,0.62169 0,0.34415 -0.14431,0.63834 -0.42186,0.88812 -0.26644,0.25534 -0.61058,0.37746 -1.02135,0.37746 -0.23868,0 -0.48846,-0.0443 -0.7549,-0.13314 -0.25533,-0.0999 -0.43295,-0.20538 -0.53287,-0.31085 -0.0333,-0.0443 -0.0443,-0.0888 -0.0443,-0.13314 0,-0.0277 0.0114,-0.0556 0.0443,-0.0888 0.0277,-0.0277 0.0556,-0.0443 0.0888,-0.0443 0.0277,0 0.0666,0.0222 0.11098,0.0666 0.35525,0.25534 0.72159,0.37746 1.11015,0.37746 0.32194,0 0.58838,-0.0999 0.79931,-0.31084 0.22203,-0.20538 0.33304,-0.42741 0.33304,-0.66609 0,-0.17763 -0.0556,-0.3386 -0.15541,-0.48847 -0.10544,-0.16097 -0.2609,-0.28865 -0.46627,-0.37746 -0.21092,-0.0999 -0.41631,-0.15542 -0.62169,-0.15542 -0.0611,0 -0.10544,-0.006 -0.13315,-0.0222 -0.0333,-0.0277 -0.0443,-0.0667 -0.0443,-0.11098 0,-0.0443 0.0114,-0.0722 0.0443,-0.0888 0.0277,-0.0277 0.0666,-0.0443 0.11098,-0.0443 h 0.24423 c 0.24978,0 0.45517,-0.0722 0.62169,-0.22203 0.16097,-0.16097 0.24424,-0.3386 0.24424,-0.53287 0,-0.20538 -0.0888,-0.38856 -0.26644,-0.55509 -0.16653,-0.16097 -0.38856,-0.24423 -0.66609,-0.24423 -0.19428,0 -0.37191,0.0388 -0.53288,0.11098 -0.14987,0.0611 -0.27753,0.14988 -0.37746,0.26644 -0.0332,0.0443 -0.0611,0.0777 -0.0888,0.0888 -0.0166,0 -0.0388,0 -0.0666,0 -0.0333,0 -0.0611,-0.006 -0.0888,-0.0222 -0.0332,-0.0277 -0.0443,-0.0667 -0.0443,-0.11098 0,-0.0888 0.0944,-0.19982 0.28863,-0.33304 0.26644,-0.18873 0.56618,-0.28865 0.91033,-0.28865 0.35525,0 0.64389,0.11098 0.86592,0.33305 0.23314,0.21094 0.35525,0.46072 0.35525,0.75491 0,0.17762 -0.0611,0.35525 -0.17763,0.53287 -0.10544,0.16653 -0.26088,0.29975 -0.46625,0.39966 z m 0,0"
       style="fill:#000000;fill-opacity:1;fill-rule:nonzero;stroke:none;stroke-width:1.421"
       aria-label="3" />
    <path
       id="path329"
       d="m 218.97,123.9 h -9.50999"
       style="fill:none;stroke:#000000;stroke-width:0.528;stroke-linecap:round;stroke-linejoin:round;stroke-miterlimit:10;stroke-dasharray:none;stroke-opacity:1"
       clip-path="url(#clipPath330)"
       transform="matrix(1.4209973,0,0,1.4209973,-82.73762,-34.706038)" />
    <path
       id="path331"
       d="m 214.87603,168.32604 h 0.22738 v 0.22734 h -0.22738 z"
       style="fill:#000000;fill-opacity:1;fill-rule:nonzero;stroke:none;stroke-width:1.421" />
    <path
       id="path332"
       d="m 236.40947,168.47435 v 1.19896 c -0.22203,0.12207 -0.4385,0.21093 -0.64388,0.26644 -0.21093,0.0556 -0.42187,0.0888 -0.6439,0.0888 -0.29974,0 -0.56618,-0.0443 -0.79931,-0.13315 -0.22203,-0.0888 -0.41631,-0.21093 -0.57728,-0.37744 -0.14987,-0.16099 -0.26644,-0.33861 -0.35525,-0.53288 -0.0888,-0.18873 -0.13315,-0.44406 -0.13315,-0.7549 v -0.51068 c 0,-0.31084 0.0722,-0.60503 0.22204,-0.88812 0.16097,-0.29419 0.36634,-0.51622 0.62168,-0.66609 0.26644,-0.14432 0.55509,-0.22203 0.86593,-0.22203 0.45516,0 0.84372,0.12206 1.15456,0.35524 0,-0.0999 0,-0.16097 0,-0.17762 0.0114,-0.0277 0.0277,-0.05 0.0443,-0.0666 0.0277,-0.0114 0.0556,-0.0222 0.0888,-0.0222 0.0443,0 0.0777,0.0166 0.11098,0.0443 0.0277,0.0332 0.0443,0.0777 0.0443,0.13315 v 0.62169 c 0,0.0777 -0.0166,0.1276 -0.0443,0.15543 -0.0332,0.0332 -0.0666,0.0443 -0.11098,0.0443 -0.0333,0 -0.0611,-0.0114 -0.0888,-0.0443 -0.0333,-0.0277 -0.0443,-0.0722 -0.0443,-0.13315 -0.0166,-0.18874 -0.14433,-0.34415 -0.37746,-0.46627 -0.22203,-0.11653 -0.47737,-0.17763 -0.7549,-0.17763 -0.25534,0 -0.48292,0.0611 -0.68829,0.17763 -0.21094,0.10543 -0.39966,0.32194 -0.57728,0.64389 -0.12207,0.21092 -0.17763,0.43851 -0.17763,0.68829 v 0.51068 c 0,0.4607 0.13869,0.8326 0.42185,1.11015 0.27754,0.26644 0.67165,0.39966 1.17677,0.39966 0.16097,0 0.31639,-0.0114 0.46626,-0.0443 0.14432,-0.0277 0.3164,-0.0888 0.51068,-0.17762 v -1.04355 h -0.97694 c -0.0611,0 -0.10543,-0.0114 -0.13314,-0.0443 -0.0333,-0.0277 -0.0443,-0.0556 -0.0443,-0.0888 0,-0.0443 0.0114,-0.0777 0.0443,-0.11098 0.0277,-0.0277 0.0722,-0.0443 0.13314,-0.0443 h 1.35438 c 0.0722,0 0.11653,0.0166 0.13315,0.0443 0.0277,0.0333 0.0443,0.0666 0.0443,0.11098 0,0.0332 -0.0114,0.0611 -0.0222,0.0888 -0.0166,0.0166 -0.0389,0.0333 -0.0667,0.0443 -0.0166,0 -0.0777,0 -0.17762,0 z m 4.14643,1.4432 h -0.35525 l -2.06488,-3.48589 v 3.19725 h 0.51066 c 0.0722,0 0.12207,0.0166 0.15543,0.0443 0.0277,0.0333 0.0443,0.0667 0.0443,0.11098 0,0.0332 -0.0166,0.0611 -0.0443,0.0888 -0.0333,0.0333 -0.0833,0.0443 -0.15543,0.0443 h -1.02134 c -0.0777,0 -0.1276,-0.0114 -0.15541,-0.0443 -0.0333,-0.0277 -0.0443,-0.0556 -0.0443,-0.0888 0,-0.0443 0.0114,-0.0777 0.0443,-0.11098 0.0277,-0.0277 0.0777,-0.0443 0.15541,-0.0443 h 0.22203 v -3.33047 h -0.37744 c -0.0611,0 -0.10544,-0.006 -0.13315,-0.0222 -0.0333,-0.0277 -0.0443,-0.0667 -0.0443,-0.11098 0,-0.0443 0.0114,-0.0722 0.0443,-0.0888 0.0277,-0.0277 0.0722,-0.0443 0.13315,-0.0443 h 0.73269 l 2.0649,3.48589 v -3.21945 h -0.51068 c -0.0777,0 -0.12761,-0.006 -0.15542,-0.0222 -0.0166,-0.0277 -0.0222,-0.0667 -0.0222,-0.11098 0,-0.0443 0.006,-0.0722 0.0222,-0.0888 0.0277,-0.0277 0.0777,-0.0443 0.15542,-0.0443 h 1.02134 c 0.0722,0 0.12206,0.0166 0.15543,0.0443 0.0277,0.0166 0.0443,0.0443 0.0443,0.0888 0,0.0443 -0.0166,0.0833 -0.0443,0.11098 -0.0332,0.0166 -0.0833,0.0222 -0.15543,0.0222 h -0.22203 z m 1.62637,-0.28864 v -3.33047 h -0.24422 c -0.0611,0 -0.10544,-0.006 -0.13315,-0.0222 -0.0333,-0.0277 -0.0443,-0.0667 -0.0443,-0.11098 0,-0.0443 0.0114,-0.0722 0.0443,-0.0888 0.0277,-0.0277 0.0722,-0.0443 0.13315,-0.0443 h 1.50981 c 0.23312,0 0.4496,0.0556 0.64388,0.15543 0.18872,0.0888 0.33859,0.19426 0.44406,0.31084 0.17762,0.21092 0.31084,0.43295 0.39965,0.66609 0.0556,0.17763 0.0888,0.38855 0.0888,0.62169 v 0.37744 c 0,0.2831 -0.0667,0.56619 -0.19982,0.84372 -0.12207,0.26644 -0.3275,0.49957 -0.62169,0.6883 -0.22203,0.14972 -0.47737,0.22189 -0.7549,0.22189 h -1.50981 c -0.0611,0 -0.10544,-0.0114 -0.13315,-0.0443 -0.0333,-0.0277 -0.0443,-0.0556 -0.0443,-0.0888 0,-0.0443 0.0114,-0.0777 0.0443,-0.11098 0.0277,-0.0277 0.0722,-0.0443 0.13315,-0.0443 z m 0.26644,0 h 1.02134 c 0.23313,0 0.45516,-0.0722 0.66609,-0.22203 0.20538,-0.14432 0.36081,-0.32195 0.46628,-0.53288 0.0999,-0.22203 0.15541,-0.43296 0.15541,-0.64388 v -0.51068 c 0,-0.17762 -0.0333,-0.33304 -0.0888,-0.46626 -0.0888,-0.18873 -0.19982,-0.37746 -0.33304,-0.55508 -0.0888,-0.0999 -0.21649,-0.18872 -0.37746,-0.26644 -0.14987,-0.0888 -0.31084,-0.13315 -0.48847,-0.13315 h -1.02134 z m 0,0"
       style="fill:#000000;fill-opacity:1;fill-rule:nonzero;stroke:none;stroke-width:1.421"
       aria-label="GND" />
    <path
       id="path333"
       d="m 217.05394,162.26859 v 3.95215 h 0.97693 c 0.0556,0 0.0999,0.0166 0.13315,0.0443 0.0277,0.0332 0.0443,0.0666 0.0443,0.11098 0,0.0333 -0.0166,0.0611 -0.0443,0.0888 -0.0332,0.0333 -0.0777,0.0443 -0.13315,0.0443 h -2.19811 c -0.0777,0 -0.1276,-0.0114 -0.15541,-0.0443 -0.0332,-0.0277 -0.0443,-0.0556 -0.0443,-0.0888 0,-0.0443 0.0114,-0.0777 0.0443,-0.11098 0.0277,-0.0277 0.0777,-0.0443 0.15541,-0.0443 h 0.95474 v -3.55249 l -0.91033,0.28863 c -0.0443,0.0166 -0.0833,0.0222 -0.11098,0.0222 -0.0332,0 -0.0611,-0.0114 -0.0888,-0.0443 -0.0333,-0.0277 -0.0443,-0.0667 -0.0443,-0.11098 0,-0.0277 0.0114,-0.0556 0.0443,-0.0888 0.0114,-0.0114 0.0499,-0.0332 0.11098,-0.0666 z m 5.45086,1.79845 v 0.7105 c 0,0.59393 -0.14433,1.06574 -0.42187,1.42099 -0.23868,0.26644 -0.52731,0.39966 -0.86591,0.39966 -0.16653,0 -0.32195,-0.0332 -0.46627,-0.0888 -0.13315,-0.0556 -0.25534,-0.14432 -0.35525,-0.26644 -0.0777,-0.0722 -0.14987,-0.18872 -0.22203,-0.35525 -0.0777,-0.16097 -0.12761,-0.31084 -0.15542,-0.44406 -0.0611,-0.18872 -0.0888,-0.41076 -0.0888,-0.66609 v -0.7105 c 0,-0.58838 0.14432,-1.06575 0.44406,-1.421 0.22203,-0.27754 0.49957,-0.42185 0.84372,-0.42185 0.16097,0 0.31639,0.0388 0.46626,0.11098 0.14431,0.0611 0.27199,0.14987 0.37746,0.26644 0.0556,0.0777 0.12206,0.19427 0.19982,0.35524 0.0722,0.16653 0.13315,0.31085 0.17762,0.44407 0.0443,0.19428 0.0667,0.41631 0.0667,0.66609 z m -0.28865,0.0443 c 0,-0.26643 -0.0388,-0.51066 -0.11098,-0.73269 -0.0777,-0.22203 -0.15543,-0.40521 -0.24424,-0.55509 -0.0611,-0.0722 -0.13315,-0.13883 -0.22203,-0.19982 -0.12206,-0.0722 -0.26088,-0.11098 -0.42185,-0.11098 -0.31084,0 -0.55508,0.16653 -0.73271,0.48847 -0.17762,0.31084 -0.26644,0.68275 -0.26644,1.11015 v 0.62169 c 0,0.26644 0.0333,0.52178 0.11098,0.75491 0.0722,0.22203 0.15542,0.39965 0.24423,0.53287 0.0556,0.0777 0.13315,0.14432 0.22203,0.19983 0.13315,0.0777 0.27199,0.11098 0.42187,0.11098 0.31084,0 0.55507,-0.15541 0.73269,-0.46625 0.17763,-0.32196 0.26644,-0.6994 0.26644,-1.13237 z m 0,0"
       style="fill:#000000;fill-opacity:1;fill-rule:nonzero;stroke:none;stroke-width:1.421"
       aria-label="10" />
    <path
       id="path334"
       d="m 218.97,142.92 h -9.50999"
       style="fill:none;stroke:#000000;stroke-width:0.528;stroke-linecap:round;stroke-linejoin:round;stroke-miterlimit:10;stroke-dasharray:none;stroke-opacity:1"
       clip-path="url(#clipPath335)"
       transform="matrix(1.4209973,0,0,1.4209973,-82.73762,-34.706038)" />
    <path
       id="path336"
       d="m 296.0434,114.44182 h 0.22736 v 0.22736 h -0.22736 z"
       style="fill:#000000;fill-opacity:1;fill-rule:nonzero;stroke:none;stroke-width:1.421" />
    <path
       id="path337"
       d="m 267.59371,115.80863 h -0.37746 l -1.39879,-3.61909 h -0.22203 c -0.0611,0 -0.10543,0 -0.13314,0 -0.0166,-0.0114 -0.0333,-0.0277 -0.0443,-0.0443 -0.0166,-0.0277 -0.0222,-0.0556 -0.0222,-0.0888 0,-0.0277 0.006,-0.05 0.0222,-0.0666 0.0114,-0.0277 0.0277,-0.0443 0.0443,-0.0443 0.0277,-0.0114 0.0722,-0.0222 0.13314,-0.0222 h 1.04354 c 0.0443,0 0.0722,0.0114 0.0888,0.0222 0.0277,0 0.05,0.0166 0.0666,0.0443 0.0114,0.0166 0.0222,0.0388 0.0222,0.0666 0,0.0333 -0.0114,0.0611 -0.0222,0.0888 -0.0166,0.0166 -0.0388,0.0332 -0.0666,0.0443 -0.0166,0 -0.0443,0 -0.0888,0 h -0.53287 l 1.28778,3.33046 h 0.0222 l 1.28778,-3.33046 h -0.53287 c -0.0611,0 -0.10544,0 -0.13315,0 -0.0166,-0.0114 -0.0333,-0.0277 -0.0443,-0.0443 -0.0166,-0.0277 -0.0222,-0.0556 -0.0222,-0.0888 0,-0.0277 0.006,-0.05 0.0222,-0.0666 0.0114,-0.0277 0.0277,-0.0443 0.0443,-0.0443 0.0277,-0.0114 0.0722,-0.0222 0.13315,-0.0222 h 1.02134 c 0.0556,0 0.0944,0.0114 0.11098,0.0222 0.0277,0 0.05,0.0166 0.0666,0.0443 0.0114,0.0166 0.0222,0.0388 0.0222,0.0666 0,0.0333 -0.0114,0.0611 -0.0222,0.0888 -0.0166,0.0166 -0.0389,0.0332 -0.0666,0.0443 -0.0166,0 -0.0556,0 -0.11098,0 h -0.19983 z m 5.33984,-3.50808 v -0.19982 c 0,-0.0556 0.006,-0.0999 0.0222,-0.13315 0.0277,-0.0277 0.0666,-0.0443 0.11098,-0.0443 0.0443,0 0.0722,0.0166 0.0888,0.0443 0.0277,0.0332 0.0443,0.0777 0.0443,0.13315 v 0.7771 c 0,0.0777 -0.0166,0.1276 -0.0443,0.15543 -0.0166,0.0166 -0.0443,0.0222 -0.0888,0.0222 -0.0443,0 -0.0833,-0.006 -0.11098,-0.0222 -0.0166,-0.0277 -0.0222,-0.0722 -0.0222,-0.13315 -0.0166,-0.18872 -0.12206,-0.36081 -0.31084,-0.51068 -0.26644,-0.18872 -0.56619,-0.28863 -0.88813,-0.28863 -0.21093,0 -0.41075,0.0556 -0.59947,0.15541 -0.14988,0.0611 -0.2609,0.14433 -0.33306,0.24424 -0.14987,0.17763 -0.26643,0.37191 -0.35525,0.57728 -0.0611,0.14988 -0.0888,0.3275 -0.0888,0.53288 v 0.48846 c 0,0.41631 0.14432,0.77711 0.44406,1.08795 0.29419,0.29974 0.6439,0.44406 1.04356,0.44406 0.24978,0 0.46625,-0.05 0.64388,-0.15541 0.18872,-0.0999 0.37746,-0.25534 0.55508,-0.46628 0.0443,-0.0443 0.0888,-0.0666 0.13315,-0.0666 0.0443,0 0.0722,0.0166 0.0888,0.0443 0.0277,0.0166 0.0443,0.0443 0.0443,0.0888 0,0.0443 -0.0556,0.12206 -0.15543,0.22203 -0.17763,0.21093 -0.38856,0.36634 -0.62169,0.46625 -0.22203,0.0999 -0.44406,0.15543 -0.66609,0.15543 -0.21093,0 -0.41631,-0.0388 -0.62169,-0.11098 -0.16652,-0.0556 -0.29974,-0.12206 -0.39965,-0.19982 -0.10544,-0.0888 -0.23313,-0.22758 -0.37745,-0.42186 -0.14987,-0.18873 -0.25534,-0.36635 -0.31084,-0.53288 -0.0611,-0.16097 -0.0888,-0.33859 -0.0888,-0.53287 v -0.55507 c 0,-0.27754 0.0722,-0.56063 0.22203,-0.84372 0.14431,-0.29419 0.34413,-0.51622 0.59947,-0.66609 0.26644,-0.14432 0.54398,-0.22203 0.84372,-0.22203 0.45516,0 0.85482,0.15541 1.19897,0.46626 z m 4.09092,0 v -0.19982 c 0,-0.0556 0.006,-0.0999 0.0222,-0.13315 0.0277,-0.0277 0.0666,-0.0443 0.11098,-0.0443 0.0443,0 0.0722,0.0166 0.0888,0.0443 0.0277,0.0332 0.0443,0.0777 0.0443,0.13315 v 0.7771 c 0,0.0777 -0.0166,0.1276 -0.0443,0.15543 -0.0166,0.0166 -0.0443,0.0222 -0.0888,0.0222 -0.0443,0 -0.0833,-0.006 -0.11098,-0.0222 -0.0166,-0.0277 -0.0222,-0.0722 -0.0222,-0.13315 -0.0166,-0.18872 -0.12206,-0.36081 -0.31084,-0.51068 -0.26644,-0.18872 -0.56618,-0.28863 -0.88812,-0.28863 -0.21094,0 -0.41076,0.0556 -0.59949,0.15541 -0.14988,0.0611 -0.26089,0.14433 -0.33304,0.24424 -0.14988,0.17763 -0.26644,0.37191 -0.35525,0.57728 -0.0611,0.14988 -0.0888,0.3275 -0.0888,0.53288 v 0.48846 c 0,0.41631 0.14431,0.77711 0.44406,1.08795 0.29419,0.29974 0.64388,0.44406 1.04353,0.44406 0.24979,0 0.46628,-0.05 0.6439,-0.15541 0.18872,-0.0999 0.37745,-0.25534 0.55507,-0.46628 0.0443,-0.0443 0.0888,-0.0666 0.13315,-0.0666 0.0443,0 0.0722,0.0166 0.0888,0.0443 0.0277,0.0166 0.0443,0.0443 0.0443,0.0888 0,0.0443 -0.0556,0.12206 -0.15542,0.22203 -0.17762,0.21093 -0.38856,0.36634 -0.62168,0.46625 -0.22204,0.0999 -0.44407,0.15543 -0.6661,0.15543 -0.21093,0 -0.41631,-0.0388 -0.62168,-0.11098 -0.16653,-0.0556 -0.29975,-0.12206 -0.39966,-0.19982 -0.10544,-0.0888 -0.23313,-0.22758 -0.37746,-0.42186 -0.14987,-0.18873 -0.25532,-0.36635 -0.31084,-0.53288 -0.0611,-0.16097 -0.0888,-0.33859 -0.0888,-0.53287 v -0.55507 c 0,-0.27754 0.0722,-0.56063 0.22203,-0.84372 0.14433,-0.29419 0.34415,-0.51622 0.59949,-0.66609 0.26643,-0.14432 0.54397,-0.22203 0.84371,-0.22203 0.45516,0 0.85482,0.15541 1.19897,0.46626 z m 0,0"
       style="fill:#000000;fill-opacity:1;fill-rule:nonzero;stroke:none;stroke-width:1.421"
       aria-label="VCC" />
    <path
       id="path338"
       d="m 286.62175,108.50938 v 1.35438 c 0.17762,-0.0556 0.33859,-0.0999 0.48846,-0.13314 0.14432,-0.0443 0.28865,-0.0666 0.42187,-0.0666 0.35525,0 0.64944,0.12761 0.88812,0.37745 0.23313,0.23868 0.35525,0.55508 0.35525,0.95474 0,0.44406 -0.13315,0.81041 -0.39965,1.08794 -0.26644,0.26644 -0.59949,0.39966 -0.99915,0.39966 -0.26644,0 -0.52732,-0.0556 -0.7771,-0.15542 -0.16653,-0.0888 -0.32196,-0.18874 -0.46627,-0.31084 -0.0888,-0.0722 -0.13315,-0.13315 -0.13315,-0.17763 0,-0.0443 0.0114,-0.0777 0.0443,-0.11098 0.0277,-0.0277 0.0556,-0.0443 0.0888,-0.0443 0.0443,0 0.0888,0.0222 0.13315,0.0666 0.32194,0.31085 0.6883,0.46626 1.08795,0.46626 0.32195,0 0.58838,-0.11098 0.79931,-0.33304 0.22204,-0.22203 0.33304,-0.51623 0.33304,-0.88812 0,-0.32196 -0.0999,-0.57728 -0.28863,-0.75491 -0.17762,-0.18873 -0.41077,-0.28864 -0.6883,-0.28864 -0.29975,0 -0.58838,0.0777 -0.86591,0.22203 -0.0777,0.0332 -0.12775,0.0443 -0.15543,0.0443 -0.0443,0 -0.0833,-0.006 -0.11098,-0.0222 -0.0166,-0.0277 -0.0222,-0.0722 -0.0222,-0.13314 v -1.84287 h 1.95387 c 0.0556,0 0.0999,0.0166 0.13315,0.0443 0.0277,0.0166 0.0443,0.0443 0.0443,0.0888 0,0.0443 -0.0166,0.0833 -0.0443,0.11098 -0.0333,0.0333 -0.0777,0.0443 -0.13315,0.0443 z m 0,0"
       style="fill:#000000;fill-opacity:1;fill-rule:nonzero;stroke:none;stroke-width:1.421"
       aria-label="5" />
    <path
       id="path339"
       d="m 257.01001,104.88 h 9.5"
       style="fill:none;stroke:#000000;stroke-width:0.528;stroke-linecap:round;stroke-linejoin:round;stroke-miterlimit:10;stroke-dasharray:none;stroke-opacity:1"
       clip-path="url(#clipPath340)"
       transform="matrix(1.4209973,0,0,1.4209973,-82.73762,-34.706038)" />
  </g>
</svg>
