<?xml version="1.0" encoding="utf-8" standalone="no"?>
<!DOCTYPE svg PUBLIC "-//W3C//DTD SVG 1.1//EN"
  "http://www.w3.org/Graphics/SVG/1.1/DTD/svg11.dtd">
<!-- Created with matplotlib (https://matplotlib.org/) -->

<svg height="316.728pt" version="1.1" viewBox="0 0 664.182 316.728" width="664.182pt" xmlns="http://www.w3.org/2000/svg" xmlns:xlink="http://www.w3.org/1999/xlink">
   <rect width="100%" height="100%" fill="white" />
 <metadata>
  <rdf:RDF xmlns:cc="http://creativecommons.org/ns#" xmlns:dc="http://purl.org/dc/elements/1.1/" xmlns:rdf="http://www.w3.org/1999/02/22-rdf-syntax-ns#">
   <cc:Work>
    <dc:type rdf:resource="http://purl.org/dc/dcmitype/StillImage"/>
    <dc:date>2020-10-08T23:29:32.555187</dc:date>
    <dc:format>image/svg+xml</dc:format>
    <dc:creator>
     <cc:Agent>
      <dc:title>Matplotlib v3.3.2, https://matplotlib.org/</dc:title>
     </cc:Agent>
    </dc:creator>
   </cc:Work>
  </rdf:RDF>
 </metadata>
 <defs>
  <style type="text/css">*{stroke-linecap:butt;stroke-linejoin:round;}</style>
 </defs>
 <g id="figure_1">
  <g id="patch_1">
   <path d="M 0 316.728 
L 664.182 316.728 
L 664.182 0 
L 0 0 
z
" style="fill:none;"/>
  </g>
  <g id="axes_1">
   <g id="patch_2">
    <path clip-path="url(#p5666297d48)" d="M 221.769 42.696 
C 222.80011 42.696 223.789127 42.309095 224.518231 41.620496 
C 225.247336 40.931897 225.657 39.997826 225.657 39.024 
C 225.657 38.050174 225.247336 37.116103 224.518231 36.427504 
C 223.789127 35.738905 222.80011 35.352 221.769 35.352 
C 220.73789 35.352 219.748873 35.738905 219.019769 36.427504 
C 218.290664 37.116103 217.881 38.050174 217.881 39.024 
C 217.881 39.997826 218.290664 40.931897 219.019769 41.620496 
C 219.748873 42.309095 220.73789 42.696 221.769 42.696 
z
" style="fill:none;stroke:#000000;stroke-linejoin:miter;stroke-width:2;"/>
   </g>
   <g id="patch_3">
    <path clip-path="url(#p5666297d48)" d="M 482.589 42.696 
C 483.62011 42.696 484.609127 42.309095 485.338231 41.620496 
C 486.067336 40.931897 486.477 39.997826 486.477 39.024 
C 486.477 38.050174 486.067336 37.116103 485.338231 36.427504 
C 484.609127 35.738905 483.62011 35.352 482.589 35.352 
C 481.55789 35.352 480.568873 35.738905 479.839769 36.427504 
C 479.110664 37.116103 478.701 38.050174 478.701 39.024 
C 478.701 39.997826 479.110664 40.931897 479.839769 41.620496 
C 480.568873 42.309095 481.55789 42.696 482.589 42.696 
z
" style="fill:none;stroke:#000000;stroke-linejoin:miter;stroke-width:2;"/>
   </g>
   <g id="patch_4">
    <path clip-path="url(#p5666297d48)" d="M 98.649 119.196 
C 99.68011 119.196 100.669127 118.809095 101.398231 118.120496 
C 102.127336 117.431897 102.537 116.497826 102.537 115.524 
C 102.537 114.550174 102.127336 113.616103 101.398231 112.927504 
C 100.669127 112.238905 99.68011 111.852 98.649 111.852 
C 97.61789 111.852 96.628873 112.238905 95.899769 112.927504 
C 95.170664 113.616103 94.761 114.550174 94.761 115.524 
C 94.761 116.497826 95.170664 117.431897 95.899769 118.120496 
C 96.628873 118.809095 97.61789 119.196 98.649 119.196 
z
" style="fill:none;stroke:#000000;stroke-linejoin:miter;stroke-width:2;"/>
   </g>
   <g id="patch_5">
    <path clip-path="url(#p5666297d48)" d="M 351.369 119.196 
C 352.40011 119.196 353.389127 118.809095 354.118231 118.120496 
C 354.847336 117.431897 355.257 116.497826 355.257 115.524 
C 355.257 114.550174 354.847336 113.616103 354.118231 112.927504 
C 353.389127 112.238905 352.40011 111.852 351.369 111.852 
C 350.33789 111.852 349.348873 112.238905 348.619769 112.927504 
C 347.890664 113.616103 347.481 114.550174 347.481 115.524 
C 347.481 116.497826 347.890664 117.431897 348.619769 118.120496 
C 349.348873 118.809095 350.33789 119.196 351.369 119.196 
z
" style="fill:none;stroke:#000000;stroke-linejoin:miter;stroke-width:2;"/>
   </g>
   <g id="patch_6">
    <path clip-path="url(#p5666297d48)" d="M 612.189 119.196 
C 613.22011 119.196 614.209127 118.809095 614.938231 118.120496 
C 615.667336 117.431897 616.077 116.497826 616.077 115.524 
C 616.077 114.550174 615.667336 113.616103 614.938231 112.927504 
C 614.209127 112.238905 613.22011 111.852 612.189 111.852 
C 611.15789 111.852 610.168873 112.238905 609.439769 112.927504 
C 608.710664 113.616103 608.301 114.550174 608.301 115.524 
C 608.301 116.497826 608.710664 117.431897 609.439769 118.120496 
C 610.168873 118.809095 611.15789 119.196 612.189 119.196 
z
" style="fill:none;stroke:#000000;stroke-linejoin:miter;stroke-width:2;"/>
   </g>
   <g id="patch_7">
    <path clip-path="url(#p5666297d48)" d="M 228.249 195.696 
C 229.28011 195.696 230.269127 195.309095 230.998231 194.620496 
C 231.727336 193.931897 232.137 192.997826 232.137 192.024 
C 232.137 191.050174 231.727336 190.116103 230.998231 189.427504 
C 230.269127 188.738905 229.28011 188.352 228.249 188.352 
C 227.21789 188.352 226.228873 188.738905 225.499769 189.427504 
C 224.770664 190.116103 224.361 191.050174 224.361 192.024 
C 224.361 192.997826 224.770664 193.931897 225.499769 194.620496 
C 226.228873 195.309095 227.21789 195.696 228.249 195.696 
z
" style="fill:none;stroke:#000000;stroke-linejoin:miter;stroke-width:2;"/>
   </g>
   <g id="patch_8">
    <path clip-path="url(#p5666297d48)" d="M 482.589 195.696 
C 483.62011 195.696 484.609127 195.309095 485.338231 194.620496 
C 486.067336 193.931897 486.477 192.997826 486.477 192.024 
C 486.477 191.050174 486.067336 190.116103 485.338231 189.427504 
C 484.609127 188.738905 483.62011 188.352 482.589 188.352 
C 481.55789 188.352 480.568873 188.738905 479.839769 189.427504 
C 479.110664 190.116103 478.701 191.050174 478.701 192.024 
C 478.701 192.997826 479.110664 193.931897 479.839769 194.620496 
C 480.568873 195.309095 481.55789 195.696 482.589 195.696 
z
" style="fill:none;stroke:#000000;stroke-linejoin:miter;stroke-width:2;"/>
   </g>
   <g id="patch_9">
    <path clip-path="url(#p5666297d48)" d="M 98.649 272.196 
C 99.68011 272.196 100.669127 271.809095 101.398231 271.120496 
C 102.127336 270.431897 102.537 269.497826 102.537 268.524 
C 102.537 267.550174 102.127336 266.616103 101.398231 265.927504 
C 100.669127 265.238905 99.68011 264.852 98.649 264.852 
C 97.61789 264.852 96.628873 265.238905 95.899769 265.927504 
C 95.170664 266.616103 94.761 267.550174 94.761 268.524 
C 94.761 269.497826 95.170664 270.431897 95.899769 271.120496 
C 96.628873 271.809095 97.61789 272.196 98.649 272.196 
z
" style="fill:none;stroke:#000000;stroke-linejoin:miter;stroke-width:2;"/>
   </g>
   <g id="patch_10">
    <path clip-path="url(#p5666297d48)" d="M 363.681 272.196 
C 364.71211 272.196 365.701127 271.809095 366.430231 271.120496 
C 367.159336 270.431897 367.569 269.497826 367.569 268.524 
C 367.569 267.550174 367.159336 266.616103 366.430231 265.927504 
C 365.701127 265.238905 364.71211 264.852 363.681 264.852 
C 362.64989 264.852 361.660873 265.238905 360.931769 265.927504 
C 360.202664 266.616103 359.793 267.550174 359.793 268.524 
C 359.793 269.497826 360.202664 270.431897 360.931769 271.120496 
C 361.660873 271.809095 362.64989 272.196 363.681 272.196 
z
" style="fill:none;stroke:#000000;stroke-linejoin:miter;stroke-width:2;"/>
   </g>
   <g id="patch_11">
    <path clip-path="url(#p5666297d48)" d="M 493.281 272.196 
C 494.31211 272.196 495.301127 271.809095 496.030231 271.120496 
C 496.759336 270.431897 497.169 269.497826 497.169 268.524 
C 497.169 267.550174 496.759336 266.616103 496.030231 265.927504 
C 495.301127 265.238905 494.31211 264.852 493.281 264.852 
C 492.24989 264.852 491.260873 265.238905 490.531769 265.927504 
C 489.802664 266.616103 489.393 267.550174 489.393 268.524 
C 489.393 269.497826 489.802664 270.431897 490.531769 271.120496 
C 491.260873 271.809095 492.24989 272.196 493.281 272.196 
z
" style="fill:none;stroke:#000000;stroke-linejoin:miter;stroke-width:2;"/>
   </g>
   <g id="patch_12">
    <path clip-path="url(#p5666297d48)" d="M 464.445 272.196 
C 465.47611 272.196 466.465127 271.809095 467.194231 271.120496 
C 467.923336 270.431897 468.333 269.497826 468.333 268.524 
C 468.333 267.550174 467.923336 266.616103 467.194231 265.927504 
C 466.465127 265.238905 465.47611 264.852 464.445 264.852 
C 463.41389 264.852 462.424873 265.238905 461.695769 265.927504 
C 460.966664 266.616103 460.557 267.550174 460.557 268.524 
C 460.557 269.497826 460.966664 270.431897 461.695769 271.120496 
C 462.424873 271.809095 463.41389 272.196 464.445 272.196 
z
" style="fill:none;stroke:#000000;stroke-linejoin:miter;stroke-width:2;"/>
   </g>
   <g id="line2d_1">
    <path clip-path="url(#p5666297d48)" d="M 72.081 54.324 
L 73.118938 54.292565 
L 74.15261 54.198387 
L 75.17777 54.041855 
L 76.190204 53.823611 
L 77.185753 53.544553 
L 78.160325 53.205826 
L 79.109917 52.808824 
L 80.030624 52.355176 
L 80.918665 51.846748 
L 81.770391 51.285628 
L 82.5823 50.674123 
L 83.351057 50.014745 
L 84.073504 49.310204 
L 84.74667 48.563394 
L 85.367791 47.777385 
L 85.934313 46.955406 
L 86.443909 46.100836 
L 86.894484 45.217185 
L 87.284188 44.308085 
L 87.611419 43.377272 
L 87.874832 42.42857 
L 88.073345 41.465878 
L 88.206142 40.493152 
L 88.272677 39.514389 
L 88.272677 38.533611 
L 88.206142 37.554848 
L 88.073345 36.582122 
L 87.874832 35.61943 
L 87.611419 34.670728 
L 87.284188 33.739915 
L 86.894484 32.830815 
L 86.443909 31.947164 
L 85.934313 31.092594 
L 85.367791 30.270615 
L 84.74667 29.484606 
L 84.073504 28.737796 
L 83.351057 28.033255 
L 82.5823 27.373877 
L 81.770391 26.762372 
L 80.918665 26.201252 
L 80.030624 25.692824 
L 79.109917 25.239176 
L 78.160325 24.842174 
L 77.185753 24.503447 
L 76.190204 24.224389 
L 75.17777 24.006145 
L 74.15261 23.849613 
L 73.118938 23.755435 
L 72.081 23.724 
L 51.021 23.724 
L 51.021 39.024 
L 51.021 54.324 
L 72.081 54.324 
" style="fill:none;stroke:#000000;stroke-linecap:round;stroke-width:2;"/>
   </g>
   <g id="line2d_2">
    <path clip-path="url(#p5666297d48)" d="M 39.681 46.674 
L 51.021 46.674 
" style="fill:none;stroke:#000000;stroke-linecap:round;stroke-width:2;"/>
   </g>
   <g id="line2d_3">
    <path clip-path="url(#p5666297d48)" d="M 39.681 31.374 
L 51.021 31.374 
" style="fill:none;stroke:#000000;stroke-linecap:round;stroke-width:2;"/>
   </g>
   <g id="line2d_4">
    <path clip-path="url(#p5666297d48)" d="M 39.681 39.024 
M 88.281 39.024 
L 99.621 39.024 
" style="fill:none;stroke:#000000;stroke-linecap:round;stroke-width:2;"/>
   </g>
   <g id="line2d_5">
    <path clip-path="url(#p5666297d48)" d="M 201.681 54.324 
L 202.718938 54.292565 
L 203.75261 54.198387 
L 204.77777 54.041855 
L 205.790204 53.823611 
L 206.785753 53.544553 
L 207.760325 53.205826 
L 208.709917 52.808824 
L 209.630624 52.355176 
L 210.518665 51.846748 
L 211.370391 51.285628 
L 212.1823 50.674123 
L 212.951057 50.014745 
L 213.673504 49.310204 
L 214.34667 48.563394 
L 214.967791 47.777385 
L 215.534313 46.955406 
L 216.043909 46.100836 
L 216.494484 45.217185 
L 216.884188 44.308085 
L 217.211419 43.377272 
L 217.474832 42.42857 
L 217.673345 41.465878 
L 217.806142 40.493152 
L 217.872677 39.514389 
L 217.872677 38.533611 
L 217.806142 37.554848 
L 217.673345 36.582122 
L 217.474832 35.61943 
L 217.211419 34.670728 
L 216.884188 33.739915 
L 216.494484 32.830815 
L 216.043909 31.947164 
L 215.534313 31.092594 
L 214.967791 30.270615 
L 214.34667 29.484606 
L 213.673504 28.737796 
L 212.951057 28.033255 
L 212.1823 27.373877 
L 211.370391 26.762372 
L 210.518665 26.201252 
L 209.630624 25.692824 
L 208.709917 25.239176 
L 207.760325 24.842174 
L 206.785753 24.503447 
L 205.790204 24.224389 
L 204.77777 24.006145 
L 203.75261 23.849613 
L 202.718938 23.755435 
L 201.681 23.724 
L 180.621 23.724 
L 180.621 39.024 
L 180.621 54.324 
L 201.681 54.324 
" style="fill:none;stroke:#000000;stroke-linecap:round;stroke-width:2;"/>
   </g>
   <g id="line2d_6">
    <path clip-path="url(#p5666297d48)" d="M 169.281 46.674 
L 180.621 46.674 
" style="fill:none;stroke:#000000;stroke-linecap:round;stroke-width:2;"/>
   </g>
   <g id="line2d_7">
    <path clip-path="url(#p5666297d48)" d="M 169.281 31.374 
L 180.621 31.374 
" style="fill:none;stroke:#000000;stroke-linecap:round;stroke-width:2;"/>
   </g>
   <g id="line2d_8">
    <path clip-path="url(#p5666297d48)" d="M 169.281 39.024 
M 225.657 39.024 
L 229.221 39.024 
" style="fill:none;stroke:#000000;stroke-linecap:round;stroke-width:2;"/>
   </g>
   <g id="line2d_9">
    <path clip-path="url(#p5666297d48)" d="M 310.221 54.018 
L 328.272429 53.918082 
L 330.123857 53.618327 
L 331.975286 53.118735 
L 333.826714 52.419306 
L 335.678143 51.520041 
L 337.992429 50.114939 
L 340.306714 48.397592 
L 342.621 46.368 
L 344.935286 44.026163 
L 347.249571 41.372082 
L 349.101 39.024 
L 349.101 39.024 
L 346.786714 36.120122 
L 344.472429 33.52849 
L 342.158143 31.249102 
L 339.843857 29.281959 
L 337.529571 27.627061 
L 335.215286 26.284408 
L 333.363857 25.435102 
L 331.512429 24.785633 
L 329.661 24.336 
L 327.809571 24.086204 
L 326.421 24.03 
L 310.221 24.03 
L 310.221 24.03 
L 312.5538 26.478 
L 314.03124 28.314 
L 315.2754 30.15 
L 316.28628 31.986 
L 317.06388 33.822 
L 317.6082 35.658 
L 317.91924 37.494 
L 317.997 39.33 
L 317.84148 41.166 
L 317.45268 43.002 
L 316.8306 44.838 
L 315.97524 46.674 
L 314.8866 48.51 
L 313.56468 50.346 
L 312.00948 52.182 
L 310.221 54.018 
L 310.221 54.018 
" style="fill:none;stroke:#000000;stroke-linecap:round;stroke-width:2;"/>
   </g>
   <g id="line2d_10">
    <path clip-path="url(#p5666297d48)" d="M 298.881 46.674 
L 315.97524 46.674 
" style="fill:none;stroke:#000000;stroke-linecap:round;stroke-width:2;"/>
   </g>
   <g id="line2d_11">
    <path clip-path="url(#p5666297d48)" d="M 298.881 31.374 
L 315.97524 31.374 
" style="fill:none;stroke:#000000;stroke-linecap:round;stroke-width:2;"/>
   </g>
   <g id="line2d_12">
    <path clip-path="url(#p5666297d48)" d="M 298.881 39.024 
M 349.101 39.024 
L 360.441 39.024 
" style="fill:none;stroke:#000000;stroke-linecap:round;stroke-width:2;"/>
   </g>
   <g id="line2d_13">
    <path clip-path="url(#p5666297d48)" d="M 439.821 54.018 
L 457.872429 53.918082 
L 459.723857 53.618327 
L 461.575286 53.118735 
L 463.426714 52.419306 
L 465.278143 51.520041 
L 467.592429 50.114939 
L 469.906714 48.397592 
L 472.221 46.368 
L 474.535286 44.026163 
L 476.849571 41.372082 
L 478.701 39.024 
L 478.701 39.024 
L 476.386714 36.120122 
L 474.072429 33.52849 
L 471.758143 31.249102 
L 469.443857 29.281959 
L 467.129571 27.627061 
L 464.815286 26.284408 
L 462.963857 25.435102 
L 461.112429 24.785633 
L 459.261 24.336 
L 457.409571 24.086204 
L 456.021 24.03 
L 439.821 24.03 
L 439.821 24.03 
L 442.1538 26.478 
L 443.63124 28.314 
L 444.8754 30.15 
L 445.88628 31.986 
L 446.66388 33.822 
L 447.2082 35.658 
L 447.51924 37.494 
L 447.597 39.33 
L 447.44148 41.166 
L 447.05268 43.002 
L 446.4306 44.838 
L 445.57524 46.674 
L 444.4866 48.51 
L 443.16468 50.346 
L 441.60948 52.182 
L 439.821 54.018 
L 439.821 54.018 
" style="fill:none;stroke:#000000;stroke-linecap:round;stroke-width:2;"/>
   </g>
   <g id="line2d_14">
    <path clip-path="url(#p5666297d48)" d="M 428.481 46.674 
L 445.57524 46.674 
" style="fill:none;stroke:#000000;stroke-linecap:round;stroke-width:2;"/>
   </g>
   <g id="line2d_15">
    <path clip-path="url(#p5666297d48)" d="M 428.481 31.374 
L 445.57524 31.374 
" style="fill:none;stroke:#000000;stroke-linecap:round;stroke-width:2;"/>
   </g>
   <g id="line2d_16">
    <path clip-path="url(#p5666297d48)" d="M 428.481 39.024 
M 486.477 39.024 
L 490.041 39.024 
" style="fill:none;stroke:#000000;stroke-linecap:round;stroke-width:2;"/>
   </g>
   <g id="line2d_17">
    <path clip-path="url(#p5666297d48)" d="M 574.281 54.018 
L 592.332429 53.918082 
L 594.183857 53.618327 
L 596.035286 53.118735 
L 597.886714 52.419306 
L 599.738143 51.520041 
L 602.052429 50.114939 
L 604.366714 48.397592 
L 606.681 46.368 
L 608.995286 44.026163 
L 611.309571 41.372082 
L 613.161 39.024 
L 613.161 39.024 
L 610.846714 36.120122 
L 608.532429 33.52849 
L 606.218143 31.249102 
L 603.903857 29.281959 
L 601.589571 27.627061 
L 599.275286 26.284408 
L 597.423857 25.435102 
L 595.572429 24.785633 
L 593.721 24.336 
L 591.869571 24.086204 
L 590.481 24.03 
L 574.281 24.03 
L 574.281 24.03 
L 576.6138 26.478 
L 578.09124 28.314 
L 579.3354 30.15 
L 580.34628 31.986 
L 581.12388 33.822 
L 581.6682 35.658 
L 581.97924 37.494 
L 582.057 39.33 
L 581.90148 41.166 
L 581.51268 43.002 
L 580.8906 44.838 
L 580.03524 46.674 
L 578.9466 48.51 
L 577.62468 50.346 
L 576.06948 52.182 
L 574.281 54.018 
L 574.281 54.018 
" style="fill:none;stroke:#000000;stroke-linecap:round;stroke-width:2;"/>
   </g>
   <g id="line2d_18">
    <path clip-path="url(#p5666297d48)" d="M 569.421 54.018 
L 570.04308 53.406 
L 570.63924 52.794 
L 571.20948 52.182 
L 571.7538 51.57 
L 572.2722 50.958 
L 572.76468 50.346 
L 573.23124 49.734 
L 573.67188 49.122 
L 574.0866 48.51 
L 574.4754 47.898 
L 574.83828 47.286 
L 575.17524 46.674 
L 575.48628 46.062 
L 575.7714 45.45 
L 576.0306 44.838 
L 576.26388 44.226 
L 576.47124 43.614 
L 576.65268 43.002 
L 576.8082 42.39 
L 576.9378 41.778 
L 577.04148 41.166 
L 577.11924 40.554 
L 577.17108 39.942 
L 577.197 39.33 
L 577.197 38.718 
L 577.17108 38.106 
L 577.11924 37.494 
L 577.04148 36.882 
L 576.9378 36.27 
L 576.8082 35.658 
L 576.65268 35.046 
L 576.47124 34.434 
L 576.26388 33.822 
L 576.0306 33.21 
L 575.7714 32.598 
L 575.48628 31.986 
L 575.17524 31.374 
L 574.83828 30.762 
L 574.4754 30.15 
L 574.0866 29.538 
L 573.67188 28.926 
L 573.23124 28.314 
L 572.76468 27.702 
L 572.2722 27.09 
L 571.7538 26.478 
L 571.20948 25.866 
L 570.63924 25.254 
L 570.04308 24.642 
L 569.421 24.03 
" style="fill:none;stroke:#000000;stroke-linecap:round;stroke-width:2;"/>
   </g>
   <g id="line2d_19">
    <path clip-path="url(#p5666297d48)" d="M 558.081 46.674 
L 575.17524 46.674 
" style="fill:none;stroke:#000000;stroke-linecap:round;stroke-width:2;"/>
   </g>
   <g id="line2d_20">
    <path clip-path="url(#p5666297d48)" d="M 558.081 31.374 
L 575.17524 31.374 
" style="fill:none;stroke:#000000;stroke-linecap:round;stroke-width:2;"/>
   </g>
   <g id="line2d_21">
    <path clip-path="url(#p5666297d48)" d="M 558.081 39.024 
M 613.161 39.024 
L 624.501 39.024 
" style="fill:none;stroke:#000000;stroke-linecap:round;stroke-width:2;"/>
   </g>
   <g id="line2d_22">
    <path clip-path="url(#p5666297d48)" d="M 55.881 130.518 
L 73.932429 130.418082 
L 75.783857 130.118327 
L 77.635286 129.618735 
L 79.486714 128.919306 
L 81.338143 128.020041 
L 83.652429 126.614939 
L 85.966714 124.897592 
L 88.281 122.868 
L 90.595286 120.526163 
L 92.909571 117.872082 
L 94.761 115.524 
L 94.761 115.524 
L 92.446714 112.620122 
L 90.132429 110.02849 
L 87.818143 107.749102 
L 85.503857 105.781959 
L 83.189571 104.127061 
L 80.875286 102.784408 
L 79.023857 101.935102 
L 77.172429 101.285633 
L 75.321 100.836 
L 73.469571 100.586204 
L 72.081 100.53 
L 55.881 100.53 
L 55.881 100.53 
L 58.2138 102.978 
L 59.69124 104.814 
L 60.9354 106.65 
L 61.94628 108.486 
L 62.72388 110.322 
L 63.2682 112.158 
L 63.57924 113.994 
L 63.657 115.83 
L 63.50148 117.666 
L 63.11268 119.502 
L 62.4906 121.338 
L 61.63524 123.174 
L 60.5466 125.01 
L 59.22468 126.846 
L 57.66948 128.682 
L 55.881 130.518 
L 55.881 130.518 
" style="fill:none;stroke:#000000;stroke-linecap:round;stroke-width:2;"/>
   </g>
   <g id="line2d_23">
    <path clip-path="url(#p5666297d48)" d="M 51.021 130.518 
L 51.64308 129.906 
L 52.23924 129.294 
L 52.80948 128.682 
L 53.3538 128.07 
L 53.8722 127.458 
L 54.36468 126.846 
L 54.83124 126.234 
L 55.27188 125.622 
L 55.6866 125.01 
L 56.0754 124.398 
L 56.43828 123.786 
L 56.77524 123.174 
L 57.08628 122.562 
L 57.3714 121.95 
L 57.6306 121.338 
L 57.86388 120.726 
L 58.07124 120.114 
L 58.25268 119.502 
L 58.4082 118.89 
L 58.5378 118.278 
L 58.64148 117.666 
L 58.71924 117.054 
L 58.77108 116.442 
L 58.797 115.83 
L 58.797 115.218 
L 58.77108 114.606 
L 58.71924 113.994 
L 58.64148 113.382 
L 58.5378 112.77 
L 58.4082 112.158 
L 58.25268 111.546 
L 58.07124 110.934 
L 57.86388 110.322 
L 57.6306 109.71 
L 57.3714 109.098 
L 57.08628 108.486 
L 56.77524 107.874 
L 56.43828 107.262 
L 56.0754 106.65 
L 55.6866 106.038 
L 55.27188 105.426 
L 54.83124 104.814 
L 54.36468 104.202 
L 53.8722 103.59 
L 53.3538 102.978 
L 52.80948 102.366 
L 52.23924 101.754 
L 51.64308 101.142 
L 51.021 100.53 
" style="fill:none;stroke:#000000;stroke-linecap:round;stroke-width:2;"/>
   </g>
   <g id="line2d_24">
    <path clip-path="url(#p5666297d48)" d="M 39.681 123.174 
L 56.77524 123.174 
" style="fill:none;stroke:#000000;stroke-linecap:round;stroke-width:2;"/>
   </g>
   <g id="line2d_25">
    <path clip-path="url(#p5666297d48)" d="M 39.681 107.874 
L 56.77524 107.874 
" style="fill:none;stroke:#000000;stroke-linecap:round;stroke-width:2;"/>
   </g>
   <g id="line2d_26">
    <path clip-path="url(#p5666297d48)" d="M 39.681 115.524 
M 102.537 115.524 
L 106.101 115.524 
" style="fill:none;stroke:#000000;stroke-linecap:round;stroke-width:2;"/>
   </g>
   <g id="line2d_27">
    <path clip-path="url(#p5666297d48)" d="M 201.681 130.824 
L 202.718938 130.792565 
L 203.75261 130.698387 
L 204.77777 130.541855 
L 205.790204 130.323611 
L 206.785753 130.044553 
L 207.760325 129.705826 
L 208.709917 129.308824 
L 209.630624 128.855176 
L 210.518665 128.346748 
L 211.370391 127.785628 
L 212.1823 127.174123 
L 212.951057 126.514745 
L 213.673504 125.810204 
L 214.34667 125.063394 
L 214.967791 124.277385 
L 215.534313 123.455406 
L 216.043909 122.600836 
L 216.494484 121.717185 
L 216.884188 120.808085 
L 217.211419 119.877272 
L 217.474832 118.92857 
L 217.673345 117.965878 
L 217.806142 116.993152 
L 217.872677 116.014389 
L 217.872677 115.033611 
L 217.806142 114.054848 
L 217.673345 113.082122 
L 217.474832 112.11943 
L 217.211419 111.170728 
L 216.884188 110.239915 
L 216.494484 109.330815 
L 216.043909 108.447164 
L 215.534313 107.592594 
L 214.967791 106.770615 
L 214.34667 105.984606 
L 213.673504 105.237796 
L 212.951057 104.533255 
L 212.1823 103.873877 
L 211.370391 103.262372 
L 210.518665 102.701252 
L 209.630624 102.192824 
L 208.709917 101.739176 
L 207.760325 101.342174 
L 206.785753 101.003447 
L 205.790204 100.724389 
L 204.77777 100.506145 
L 203.75261 100.349613 
L 202.718938 100.255435 
L 201.681 100.224 
L 180.621 100.224 
L 180.621 115.524 
L 180.621 130.824 
L 201.681 130.824 
" style="fill:none;stroke:#000000;stroke-linecap:round;stroke-width:2;"/>
   </g>
   <g id="line2d_28">
    <path clip-path="url(#p5666297d48)" d="M 169.281 125.622 
L 180.621 125.622 
" style="fill:none;stroke:#000000;stroke-linecap:round;stroke-width:2;"/>
   </g>
   <g id="line2d_29">
    <path clip-path="url(#p5666297d48)" d="M 169.281 115.524 
L 180.621 115.524 
" style="fill:none;stroke:#000000;stroke-linecap:round;stroke-width:2;"/>
   </g>
   <g id="line2d_30">
    <path clip-path="url(#p5666297d48)" d="M 169.281 105.426 
L 180.621 105.426 
" style="fill:none;stroke:#000000;stroke-linecap:round;stroke-width:2;"/>
   </g>
   <g id="line2d_31">
    <path clip-path="url(#p5666297d48)" d="M 169.281 115.524 
M 217.881 115.524 
L 229.221 115.524 
" style="fill:none;stroke:#000000;stroke-linecap:round;stroke-width:2;"/>
   </g>
   <g id="line2d_32">
    <path clip-path="url(#p5666297d48)" d="M 331.281 130.824 
L 332.318938 130.792565 
L 333.35261 130.698387 
L 334.37777 130.541855 
L 335.390204 130.323611 
L 336.385753 130.044553 
L 337.360325 129.705826 
L 338.309917 129.308824 
L 339.230624 128.855176 
L 340.118665 128.346748 
L 340.970391 127.785628 
L 341.7823 127.174123 
L 342.551057 126.514745 
L 343.273504 125.810204 
L 343.94667 125.063394 
L 344.567791 124.277385 
L 345.134313 123.455406 
L 345.643909 122.600836 
L 346.094484 121.717185 
L 346.484188 120.808085 
L 346.811419 119.877272 
L 347.074832 118.92857 
L 347.273345 117.965878 
L 347.406142 116.993152 
L 347.472677 116.014389 
L 347.472677 115.033611 
L 347.406142 114.054848 
L 347.273345 113.082122 
L 347.074832 112.11943 
L 346.811419 111.170728 
L 346.484188 110.239915 
L 346.094484 109.330815 
L 345.643909 108.447164 
L 345.134313 107.592594 
L 344.567791 106.770615 
L 343.94667 105.984606 
L 343.273504 105.237796 
L 342.551057 104.533255 
L 341.7823 103.873877 
L 340.970391 103.262372 
L 340.118665 102.701252 
L 339.230624 102.192824 
L 338.309917 101.739176 
L 337.360325 101.342174 
L 336.385753 101.003447 
L 335.390204 100.724389 
L 334.37777 100.506145 
L 333.35261 100.349613 
L 332.318938 100.255435 
L 331.281 100.224 
L 310.221 100.224 
L 310.221 115.524 
L 310.221 130.824 
L 331.281 130.824 
" style="fill:none;stroke:#000000;stroke-linecap:round;stroke-width:2;"/>
   </g>
   <g id="line2d_33">
    <path clip-path="url(#p5666297d48)" d="M 298.881 125.622 
L 310.221 125.622 
" style="fill:none;stroke:#000000;stroke-linecap:round;stroke-width:2;"/>
   </g>
   <g id="line2d_34">
    <path clip-path="url(#p5666297d48)" d="M 298.881 115.524 
L 310.221 115.524 
" style="fill:none;stroke:#000000;stroke-linecap:round;stroke-width:2;"/>
   </g>
   <g id="line2d_35">
    <path clip-path="url(#p5666297d48)" d="M 298.881 105.426 
L 310.221 105.426 
" style="fill:none;stroke:#000000;stroke-linecap:round;stroke-width:2;"/>
   </g>
   <g id="line2d_36">
    <path clip-path="url(#p5666297d48)" d="M 298.881 115.524 
M 355.257 115.524 
L 358.821 115.524 
" style="fill:none;stroke:#000000;stroke-linecap:round;stroke-width:2;"/>
   </g>
   <g id="line2d_37">
    <path clip-path="url(#p5666297d48)" d="M 439.821 130.518 
L 457.872429 130.418082 
L 459.723857 130.118327 
L 461.575286 129.618735 
L 463.426714 128.919306 
L 465.278143 128.020041 
L 467.592429 126.614939 
L 469.906714 124.897592 
L 472.221 122.868 
L 474.535286 120.526163 
L 476.849571 117.872082 
L 478.701 115.524 
L 478.701 115.524 
L 476.386714 112.620122 
L 474.072429 110.02849 
L 471.758143 107.749102 
L 469.443857 105.781959 
L 467.129571 104.127061 
L 464.815286 102.784408 
L 462.963857 101.935102 
L 461.112429 101.285633 
L 459.261 100.836 
L 457.409571 100.586204 
L 456.021 100.53 
L 439.821 100.53 
L 439.821 100.53 
L 442.1538 102.978 
L 443.63124 104.814 
L 444.8754 106.65 
L 445.88628 108.486 
L 446.66388 110.322 
L 447.2082 112.158 
L 447.51924 113.994 
L 447.597 115.83 
L 447.44148 117.666 
L 447.05268 119.502 
L 446.4306 121.338 
L 445.57524 123.174 
L 444.4866 125.01 
L 443.16468 126.846 
L 441.60948 128.682 
L 439.821 130.518 
L 439.821 130.518 
" style="fill:none;stroke:#000000;stroke-linecap:round;stroke-width:2;"/>
   </g>
   <g id="line2d_38">
    <path clip-path="url(#p5666297d48)" d="M 428.481 125.622 
L 444.07188 125.622 
" style="fill:none;stroke:#000000;stroke-linecap:round;stroke-width:2;"/>
   </g>
   <g id="line2d_39">
    <path clip-path="url(#p5666297d48)" d="M 428.481 115.524 
L 447.60024 115.524 
" style="fill:none;stroke:#000000;stroke-linecap:round;stroke-width:2;"/>
   </g>
   <g id="line2d_40">
    <path clip-path="url(#p5666297d48)" d="M 428.481 105.426 
L 444.07188 105.426 
" style="fill:none;stroke:#000000;stroke-linecap:round;stroke-width:2;"/>
   </g>
   <g id="line2d_41">
    <path clip-path="url(#p5666297d48)" d="M 428.481 115.524 
M 478.701 115.524 
L 490.041 115.524 
" style="fill:none;stroke:#000000;stroke-linecap:round;stroke-width:2;"/>
   </g>
   <g id="line2d_42">
    <path clip-path="url(#p5666297d48)" d="M 569.421 130.518 
L 587.472429 130.418082 
L 589.323857 130.118327 
L 591.175286 129.618735 
L 593.026714 128.919306 
L 594.878143 128.020041 
L 597.192429 126.614939 
L 599.506714 124.897592 
L 601.821 122.868 
L 604.135286 120.526163 
L 606.449571 117.872082 
L 608.301 115.524 
L 608.301 115.524 
L 605.986714 112.620122 
L 603.672429 110.02849 
L 601.358143 107.749102 
L 599.043857 105.781959 
L 596.729571 104.127061 
L 594.415286 102.784408 
L 592.563857 101.935102 
L 590.712429 101.285633 
L 588.861 100.836 
L 587.009571 100.586204 
L 585.621 100.53 
L 569.421 100.53 
L 569.421 100.53 
L 571.7538 102.978 
L 573.23124 104.814 
L 574.4754 106.65 
L 575.48628 108.486 
L 576.26388 110.322 
L 576.8082 112.158 
L 577.11924 113.994 
L 577.197 115.83 
L 577.04148 117.666 
L 576.65268 119.502 
L 576.0306 121.338 
L 575.17524 123.174 
L 574.0866 125.01 
L 572.76468 126.846 
L 571.20948 128.682 
L 569.421 130.518 
L 569.421 130.518 
" style="fill:none;stroke:#000000;stroke-linecap:round;stroke-width:2;"/>
   </g>
   <g id="line2d_43">
    <path clip-path="url(#p5666297d48)" d="M 558.081 125.622 
L 573.67188 125.622 
" style="fill:none;stroke:#000000;stroke-linecap:round;stroke-width:2;"/>
   </g>
   <g id="line2d_44">
    <path clip-path="url(#p5666297d48)" d="M 558.081 115.524 
L 577.20024 115.524 
" style="fill:none;stroke:#000000;stroke-linecap:round;stroke-width:2;"/>
   </g>
   <g id="line2d_45">
    <path clip-path="url(#p5666297d48)" d="M 558.081 105.426 
L 573.67188 105.426 
" style="fill:none;stroke:#000000;stroke-linecap:round;stroke-width:2;"/>
   </g>
   <g id="line2d_46">
    <path clip-path="url(#p5666297d48)" d="M 558.081 115.524 
M 616.077 115.524 
L 619.641 115.524 
" style="fill:none;stroke:#000000;stroke-linecap:round;stroke-width:2;"/>
   </g>
   <g id="line2d_47">
    <path clip-path="url(#p5666297d48)" d="M 55.881 207.018 
L 73.932429 206.918082 
L 75.783857 206.618327 
L 77.635286 206.118735 
L 79.486714 205.419306 
L 81.338143 204.520041 
L 83.652429 203.114939 
L 85.966714 201.397592 
L 88.281 199.368 
L 90.595286 197.026163 
L 92.909571 194.372082 
L 94.761 192.024 
L 94.761 192.024 
L 92.446714 189.120122 
L 90.132429 186.52849 
L 87.818143 184.249102 
L 85.503857 182.281959 
L 83.189571 180.627061 
L 80.875286 179.284408 
L 79.023857 178.435102 
L 77.172429 177.785633 
L 75.321 177.336 
L 73.469571 177.086204 
L 72.081 177.03 
L 55.881 177.03 
L 55.881 177.03 
L 58.2138 179.478 
L 59.69124 181.314 
L 60.9354 183.15 
L 61.94628 184.986 
L 62.72388 186.822 
L 63.2682 188.658 
L 63.57924 190.494 
L 63.657 192.33 
L 63.50148 194.166 
L 63.11268 196.002 
L 62.4906 197.838 
L 61.63524 199.674 
L 60.5466 201.51 
L 59.22468 203.346 
L 57.66948 205.182 
L 55.881 207.018 
L 55.881 207.018 
" style="fill:none;stroke:#000000;stroke-linecap:round;stroke-width:2;"/>
   </g>
   <g id="line2d_48">
    <path clip-path="url(#p5666297d48)" d="M 51.021 207.018 
L 51.64308 206.406 
L 52.23924 205.794 
L 52.80948 205.182 
L 53.3538 204.57 
L 53.8722 203.958 
L 54.36468 203.346 
L 54.83124 202.734 
L 55.27188 202.122 
L 55.6866 201.51 
L 56.0754 200.898 
L 56.43828 200.286 
L 56.77524 199.674 
L 57.08628 199.062 
L 57.3714 198.45 
L 57.6306 197.838 
L 57.86388 197.226 
L 58.07124 196.614 
L 58.25268 196.002 
L 58.4082 195.39 
L 58.5378 194.778 
L 58.64148 194.166 
L 58.71924 193.554 
L 58.77108 192.942 
L 58.797 192.33 
L 58.797 191.718 
L 58.77108 191.106 
L 58.71924 190.494 
L 58.64148 189.882 
L 58.5378 189.27 
L 58.4082 188.658 
L 58.25268 188.046 
L 58.07124 187.434 
L 57.86388 186.822 
L 57.6306 186.21 
L 57.3714 185.598 
L 57.08628 184.986 
L 56.77524 184.374 
L 56.43828 183.762 
L 56.0754 183.15 
L 55.6866 182.538 
L 55.27188 181.926 
L 54.83124 181.314 
L 54.36468 180.702 
L 53.8722 180.09 
L 53.3538 179.478 
L 52.80948 178.866 
L 52.23924 178.254 
L 51.64308 177.642 
L 51.021 177.03 
" style="fill:none;stroke:#000000;stroke-linecap:round;stroke-width:2;"/>
   </g>
   <g id="line2d_49">
    <path clip-path="url(#p5666297d48)" d="M 39.681 202.122 
L 55.27188 202.122 
" style="fill:none;stroke:#000000;stroke-linecap:round;stroke-width:2;"/>
   </g>
   <g id="line2d_50">
    <path clip-path="url(#p5666297d48)" d="M 39.681 192.024 
L 58.80024 192.024 
" style="fill:none;stroke:#000000;stroke-linecap:round;stroke-width:2;"/>
   </g>
   <g id="line2d_51">
    <path clip-path="url(#p5666297d48)" d="M 39.681 181.926 
L 55.27188 181.926 
" style="fill:none;stroke:#000000;stroke-linecap:round;stroke-width:2;"/>
   </g>
   <g id="line2d_52">
    <path clip-path="url(#p5666297d48)" d="M 39.681 192.024 
M 94.761 192.024 
L 106.101 192.024 
" style="fill:none;stroke:#000000;stroke-linecap:round;stroke-width:2;"/>
   </g>
   <g id="line2d_53">
    <path clip-path="url(#p5666297d48)" d="M 185.481 207.018 
L 203.532429 206.918082 
L 205.383857 206.618327 
L 207.235286 206.118735 
L 209.086714 205.419306 
L 210.938143 204.520041 
L 213.252429 203.114939 
L 215.566714 201.397592 
L 217.881 199.368 
L 220.195286 197.026163 
L 222.509571 194.372082 
L 224.361 192.024 
L 224.361 192.024 
L 222.046714 189.120122 
L 219.732429 186.52849 
L 217.418143 184.249102 
L 215.103857 182.281959 
L 212.789571 180.627061 
L 210.475286 179.284408 
L 208.623857 178.435102 
L 206.772429 177.785633 
L 204.921 177.336 
L 203.069571 177.086204 
L 201.681 177.03 
L 185.481 177.03 
L 185.481 177.03 
L 187.8138 179.478 
L 189.29124 181.314 
L 190.5354 183.15 
L 191.54628 184.986 
L 192.32388 186.822 
L 192.8682 188.658 
L 193.17924 190.494 
L 193.257 192.33 
L 193.10148 194.166 
L 192.71268 196.002 
L 192.0906 197.838 
L 191.23524 199.674 
L 190.1466 201.51 
L 188.82468 203.346 
L 187.26948 205.182 
L 185.481 207.018 
L 185.481 207.018 
" style="fill:none;stroke:#000000;stroke-linecap:round;stroke-width:2;"/>
   </g>
   <g id="line2d_54">
    <path clip-path="url(#p5666297d48)" d="M 180.621 207.018 
L 181.24308 206.406 
L 181.83924 205.794 
L 182.40948 205.182 
L 182.9538 204.57 
L 183.4722 203.958 
L 183.96468 203.346 
L 184.43124 202.734 
L 184.87188 202.122 
L 185.2866 201.51 
L 185.6754 200.898 
L 186.03828 200.286 
L 186.37524 199.674 
L 186.68628 199.062 
L 186.9714 198.45 
L 187.2306 197.838 
L 187.46388 197.226 
L 187.67124 196.614 
L 187.85268 196.002 
L 188.0082 195.39 
L 188.1378 194.778 
L 188.24148 194.166 
L 188.31924 193.554 
L 188.37108 192.942 
L 188.397 192.33 
L 188.397 191.718 
L 188.37108 191.106 
L 188.31924 190.494 
L 188.24148 189.882 
L 188.1378 189.27 
L 188.0082 188.658 
L 187.85268 188.046 
L 187.67124 187.434 
L 187.46388 186.822 
L 187.2306 186.21 
L 186.9714 185.598 
L 186.68628 184.986 
L 186.37524 184.374 
L 186.03828 183.762 
L 185.6754 183.15 
L 185.2866 182.538 
L 184.87188 181.926 
L 184.43124 181.314 
L 183.96468 180.702 
L 183.4722 180.09 
L 182.9538 179.478 
L 182.40948 178.866 
L 181.83924 178.254 
L 181.24308 177.642 
L 180.621 177.03 
" style="fill:none;stroke:#000000;stroke-linecap:round;stroke-width:2;"/>
   </g>
   <g id="line2d_55">
    <path clip-path="url(#p5666297d48)" d="M 169.281 202.122 
L 184.87188 202.122 
" style="fill:none;stroke:#000000;stroke-linecap:round;stroke-width:2;"/>
   </g>
   <g id="line2d_56">
    <path clip-path="url(#p5666297d48)" d="M 169.281 192.024 
L 188.40024 192.024 
" style="fill:none;stroke:#000000;stroke-linecap:round;stroke-width:2;"/>
   </g>
   <g id="line2d_57">
    <path clip-path="url(#p5666297d48)" d="M 169.281 181.926 
L 184.87188 181.926 
" style="fill:none;stroke:#000000;stroke-linecap:round;stroke-width:2;"/>
   </g>
   <g id="line2d_58">
    <path clip-path="url(#p5666297d48)" d="M 169.281 192.024 
M 232.137 192.024 
L 235.701 192.024 
" style="fill:none;stroke:#000000;stroke-linecap:round;stroke-width:2;"/>
   </g>
   <g id="line2d_59">
    <path clip-path="url(#p5666297d48)" d="M 310.221 207.018 
L 328.272429 206.918082 
L 330.123857 206.618327 
L 331.975286 206.118735 
L 333.826714 205.419306 
L 335.678143 204.520041 
L 337.992429 203.114939 
L 340.306714 201.397592 
L 342.621 199.368 
L 344.935286 197.026163 
L 347.249571 194.372082 
L 349.101 192.024 
L 349.101 192.024 
L 346.786714 189.120122 
L 344.472429 186.52849 
L 342.158143 184.249102 
L 339.843857 182.281959 
L 337.529571 180.627061 
L 335.215286 179.284408 
L 333.363857 178.435102 
L 331.512429 177.785633 
L 329.661 177.336 
L 327.809571 177.086204 
L 326.421 177.03 
L 310.221 177.03 
L 310.221 177.03 
L 312.5538 179.478 
L 314.03124 181.314 
L 315.2754 183.15 
L 316.28628 184.986 
L 317.06388 186.822 
L 317.6082 188.658 
L 317.91924 190.494 
L 317.997 192.33 
L 317.84148 194.166 
L 317.45268 196.002 
L 316.8306 197.838 
L 315.97524 199.674 
L 314.8866 201.51 
L 313.56468 203.346 
L 312.00948 205.182 
L 310.221 207.018 
L 310.221 207.018 
" style="fill:none;stroke:#000000;stroke-linecap:round;stroke-width:2;"/>
   </g>
   <g id="line2d_60">
    <path clip-path="url(#p5666297d48)" d="M 298.881 210.384 
L 310.221 210.384 
" style="fill:none;stroke:#000000;stroke-linecap:round;stroke-width:2;"/>
   </g>
   <g id="line2d_61">
    <path clip-path="url(#p5666297d48)" d="M 298.881 198.144 
L 316.70424 198.144 
" style="fill:none;stroke:#000000;stroke-linecap:round;stroke-width:2;"/>
   </g>
   <g id="line2d_62">
    <path clip-path="url(#p5666297d48)" d="M 298.881 185.904 
L 316.70424 185.904 
" style="fill:none;stroke:#000000;stroke-linecap:round;stroke-width:2;"/>
   </g>
   <g id="line2d_63">
    <path clip-path="url(#p5666297d48)" d="M 298.881 173.664 
L 310.221 173.664 
" style="fill:none;stroke:#000000;stroke-linecap:round;stroke-width:2;"/>
   </g>
   <g id="line2d_64">
    <path clip-path="url(#p5666297d48)" d="M 310.221 167.544 
L 310.221 177.03 
" style="fill:none;stroke:#000000;stroke-linecap:round;stroke-width:2;"/>
   </g>
   <g id="line2d_65">
    <path clip-path="url(#p5666297d48)" d="M 310.221 216.504 
L 310.221 207.018 
" style="fill:none;stroke:#000000;stroke-linecap:round;stroke-width:2;"/>
   </g>
   <g id="line2d_66">
    <path clip-path="url(#p5666297d48)" d="M 298.881 192.024 
M 349.101 192.024 
L 360.441 192.024 
" style="fill:none;stroke:#000000;stroke-linecap:round;stroke-width:2;"/>
   </g>
   <g id="line2d_67">
    <path clip-path="url(#p5666297d48)" d="M 439.821 207.018 
L 457.872429 206.918082 
L 459.723857 206.618327 
L 461.575286 206.118735 
L 463.426714 205.419306 
L 465.278143 204.520041 
L 467.592429 203.114939 
L 469.906714 201.397592 
L 472.221 199.368 
L 474.535286 197.026163 
L 476.849571 194.372082 
L 478.701 192.024 
L 478.701 192.024 
L 476.386714 189.120122 
L 474.072429 186.52849 
L 471.758143 184.249102 
L 469.443857 182.281959 
L 467.129571 180.627061 
L 464.815286 179.284408 
L 462.963857 178.435102 
L 461.112429 177.785633 
L 459.261 177.336 
L 457.409571 177.086204 
L 456.021 177.03 
L 439.821 177.03 
L 439.821 177.03 
L 442.1538 179.478 
L 443.63124 181.314 
L 444.8754 183.15 
L 445.88628 184.986 
L 446.66388 186.822 
L 447.2082 188.658 
L 447.51924 190.494 
L 447.597 192.33 
L 447.44148 194.166 
L 447.05268 196.002 
L 446.4306 197.838 
L 445.57524 199.674 
L 444.4866 201.51 
L 443.16468 203.346 
L 441.60948 205.182 
L 439.821 207.018 
L 439.821 207.018 
" style="fill:none;stroke:#000000;stroke-linecap:round;stroke-width:2;"/>
   </g>
   <g id="line2d_68">
    <path clip-path="url(#p5666297d48)" d="M 428.481 210.384 
L 439.821 210.384 
" style="fill:none;stroke:#000000;stroke-linecap:round;stroke-width:2;"/>
   </g>
   <g id="line2d_69">
    <path clip-path="url(#p5666297d48)" d="M 428.481 198.144 
L 446.30424 198.144 
" style="fill:none;stroke:#000000;stroke-linecap:round;stroke-width:2;"/>
   </g>
   <g id="line2d_70">
    <path clip-path="url(#p5666297d48)" d="M 428.481 185.904 
L 446.30424 185.904 
" style="fill:none;stroke:#000000;stroke-linecap:round;stroke-width:2;"/>
   </g>
   <g id="line2d_71">
    <path clip-path="url(#p5666297d48)" d="M 428.481 173.664 
L 439.821 173.664 
" style="fill:none;stroke:#000000;stroke-linecap:round;stroke-width:2;"/>
   </g>
   <g id="line2d_72">
    <path clip-path="url(#p5666297d48)" d="M 439.821 167.544 
L 439.821 177.03 
" style="fill:none;stroke:#000000;stroke-linecap:round;stroke-width:2;"/>
   </g>
   <g id="line2d_73">
    <path clip-path="url(#p5666297d48)" d="M 439.821 216.504 
L 439.821 207.018 
" style="fill:none;stroke:#000000;stroke-linecap:round;stroke-width:2;"/>
   </g>
   <g id="line2d_74">
    <path clip-path="url(#p5666297d48)" d="M 428.481 192.024 
M 486.477 192.024 
L 490.041 192.024 
" style="fill:none;stroke:#000000;stroke-linecap:round;stroke-width:2;"/>
   </g>
   <g id="line2d_75">
    <path clip-path="url(#p5666297d48)" d="M 574.281 207.018 
L 592.332429 206.918082 
L 594.183857 206.618327 
L 596.035286 206.118735 
L 597.886714 205.419306 
L 599.738143 204.520041 
L 602.052429 203.114939 
L 604.366714 201.397592 
L 606.681 199.368 
L 608.995286 197.026163 
L 611.309571 194.372082 
L 613.161 192.024 
L 613.161 192.024 
L 610.846714 189.120122 
L 608.532429 186.52849 
L 606.218143 184.249102 
L 603.903857 182.281959 
L 601.589571 180.627061 
L 599.275286 179.284408 
L 597.423857 178.435102 
L 595.572429 177.785633 
L 593.721 177.336 
L 591.869571 177.086204 
L 590.481 177.03 
L 574.281 177.03 
L 574.281 177.03 
L 576.6138 179.478 
L 578.09124 181.314 
L 579.3354 183.15 
L 580.34628 184.986 
L 581.12388 186.822 
L 581.6682 188.658 
L 581.97924 190.494 
L 582.057 192.33 
L 581.90148 194.166 
L 581.51268 196.002 
L 580.8906 197.838 
L 580.03524 199.674 
L 578.9466 201.51 
L 577.62468 203.346 
L 576.06948 205.182 
L 574.281 207.018 
L 574.281 207.018 
" style="fill:none;stroke:#000000;stroke-linecap:round;stroke-width:2;"/>
   </g>
   <g id="line2d_76">
    <path clip-path="url(#p5666297d48)" d="M 569.421 207.018 
L 570.04308 206.406 
L 570.63924 205.794 
L 571.20948 205.182 
L 571.7538 204.57 
L 572.2722 203.958 
L 572.76468 203.346 
L 573.23124 202.734 
L 573.67188 202.122 
L 574.0866 201.51 
L 574.4754 200.898 
L 574.83828 200.286 
L 575.17524 199.674 
L 575.48628 199.062 
L 575.7714 198.45 
L 576.0306 197.838 
L 576.26388 197.226 
L 576.47124 196.614 
L 576.65268 196.002 
L 576.8082 195.39 
L 576.9378 194.778 
L 577.04148 194.166 
L 577.11924 193.554 
L 577.17108 192.942 
L 577.197 192.33 
L 577.197 191.718 
L 577.17108 191.106 
L 577.11924 190.494 
L 577.04148 189.882 
L 576.9378 189.27 
L 576.8082 188.658 
L 576.65268 188.046 
L 576.47124 187.434 
L 576.26388 186.822 
L 576.0306 186.21 
L 575.7714 185.598 
L 575.48628 184.986 
L 575.17524 184.374 
L 574.83828 183.762 
L 574.4754 183.15 
L 574.0866 182.538 
L 573.67188 181.926 
L 573.23124 181.314 
L 572.76468 180.702 
L 572.2722 180.09 
L 571.7538 179.478 
L 571.20948 178.866 
L 570.63924 178.254 
L 570.04308 177.642 
L 569.421 177.03 
" style="fill:none;stroke:#000000;stroke-linecap:round;stroke-width:2;"/>
   </g>
   <g id="line2d_77">
    <path clip-path="url(#p5666297d48)" d="M 558.081 210.384 
L 569.421 210.384 
" style="fill:none;stroke:#000000;stroke-linecap:round;stroke-width:2;"/>
   </g>
   <g id="line2d_78">
    <path clip-path="url(#p5666297d48)" d="M 558.081 198.144 
L 575.90424 198.144 
" style="fill:none;stroke:#000000;stroke-linecap:round;stroke-width:2;"/>
   </g>
   <g id="line2d_79">
    <path clip-path="url(#p5666297d48)" d="M 558.081 185.904 
L 575.90424 185.904 
" style="fill:none;stroke:#000000;stroke-linecap:round;stroke-width:2;"/>
   </g>
   <g id="line2d_80">
    <path clip-path="url(#p5666297d48)" d="M 558.081 173.664 
L 569.421 173.664 
" style="fill:none;stroke:#000000;stroke-linecap:round;stroke-width:2;"/>
   </g>
   <g id="line2d_81">
    <path clip-path="url(#p5666297d48)" d="M 569.421 167.544 
L 569.421 177.03 
" style="fill:none;stroke:#000000;stroke-linecap:round;stroke-width:2;"/>
   </g>
   <g id="line2d_82">
    <path clip-path="url(#p5666297d48)" d="M 569.421 216.504 
L 569.421 207.018 
" style="fill:none;stroke:#000000;stroke-linecap:round;stroke-width:2;"/>
   </g>
   <g id="line2d_83">
    <path clip-path="url(#p5666297d48)" d="M 558.081 192.024 
M 613.161 192.024 
L 624.501 192.024 
" style="fill:none;stroke:#000000;stroke-linecap:round;stroke-width:2;"/>
   </g>
   <g id="line2d_84">
    <path clip-path="url(#p5666297d48)" d="M 55.881 283.518 
L 73.932429 283.418082 
L 75.783857 283.118327 
L 77.635286 282.618735 
L 79.486714 281.919306 
L 81.338143 281.020041 
L 83.652429 279.614939 
L 85.966714 277.897592 
L 88.281 275.868 
L 90.595286 273.526163 
L 92.909571 270.872082 
L 94.761 268.524 
L 94.761 268.524 
L 92.446714 265.620122 
L 90.132429 263.02849 
L 87.818143 260.749102 
L 85.503857 258.781959 
L 83.189571 257.127061 
L 80.875286 255.784408 
L 79.023857 254.935102 
L 77.172429 254.285633 
L 75.321 253.836 
L 73.469571 253.586204 
L 72.081 253.53 
L 55.881 253.53 
L 55.881 253.53 
L 58.2138 255.978 
L 59.69124 257.814 
L 60.9354 259.65 
L 61.94628 261.486 
L 62.72388 263.322 
L 63.2682 265.158 
L 63.57924 266.994 
L 63.657 268.83 
L 63.50148 270.666 
L 63.11268 272.502 
L 62.4906 274.338 
L 61.63524 276.174 
L 60.5466 278.01 
L 59.22468 279.846 
L 57.66948 281.682 
L 55.881 283.518 
L 55.881 283.518 
" style="fill:none;stroke:#000000;stroke-linecap:round;stroke-width:2;"/>
   </g>
   <g id="line2d_85">
    <path clip-path="url(#p5666297d48)" d="M 51.021 283.518 
L 51.64308 282.906 
L 52.23924 282.294 
L 52.80948 281.682 
L 53.3538 281.07 
L 53.8722 280.458 
L 54.36468 279.846 
L 54.83124 279.234 
L 55.27188 278.622 
L 55.6866 278.01 
L 56.0754 277.398 
L 56.43828 276.786 
L 56.77524 276.174 
L 57.08628 275.562 
L 57.3714 274.95 
L 57.6306 274.338 
L 57.86388 273.726 
L 58.07124 273.114 
L 58.25268 272.502 
L 58.4082 271.89 
L 58.5378 271.278 
L 58.64148 270.666 
L 58.71924 270.054 
L 58.77108 269.442 
L 58.797 268.83 
L 58.797 268.218 
L 58.77108 267.606 
L 58.71924 266.994 
L 58.64148 266.382 
L 58.5378 265.77 
L 58.4082 265.158 
L 58.25268 264.546 
L 58.07124 263.934 
L 57.86388 263.322 
L 57.6306 262.71 
L 57.3714 262.098 
L 57.08628 261.486 
L 56.77524 260.874 
L 56.43828 260.262 
L 56.0754 259.65 
L 55.6866 259.038 
L 55.27188 258.426 
L 54.83124 257.814 
L 54.36468 257.202 
L 53.8722 256.59 
L 53.3538 255.978 
L 52.80948 255.366 
L 52.23924 254.754 
L 51.64308 254.142 
L 51.021 253.53 
" style="fill:none;stroke:#000000;stroke-linecap:round;stroke-width:2;"/>
   </g>
   <g id="line2d_86">
    <path clip-path="url(#p5666297d48)" d="M 39.681 286.884 
L 51.021 286.884 
" style="fill:none;stroke:#000000;stroke-linecap:round;stroke-width:2;"/>
   </g>
   <g id="line2d_87">
    <path clip-path="url(#p5666297d48)" d="M 39.681 274.644 
L 57.50424 274.644 
" style="fill:none;stroke:#000000;stroke-linecap:round;stroke-width:2;"/>
   </g>
   <g id="line2d_88">
    <path clip-path="url(#p5666297d48)" d="M 39.681 262.404 
L 57.50424 262.404 
" style="fill:none;stroke:#000000;stroke-linecap:round;stroke-width:2;"/>
   </g>
   <g id="line2d_89">
    <path clip-path="url(#p5666297d48)" d="M 39.681 250.164 
L 51.021 250.164 
" style="fill:none;stroke:#000000;stroke-linecap:round;stroke-width:2;"/>
   </g>
   <g id="line2d_90">
    <path clip-path="url(#p5666297d48)" d="M 51.021 244.044 
L 51.021 253.53 
" style="fill:none;stroke:#000000;stroke-linecap:round;stroke-width:2;"/>
   </g>
   <g id="line2d_91">
    <path clip-path="url(#p5666297d48)" d="M 51.021 293.004 
L 51.021 283.518 
" style="fill:none;stroke:#000000;stroke-linecap:round;stroke-width:2;"/>
   </g>
   <g id="line2d_92">
    <path clip-path="url(#p5666297d48)" d="M 39.681 268.524 
M 102.537 268.524 
L 106.101 268.524 
" style="fill:none;stroke:#000000;stroke-linecap:round;stroke-width:2;"/>
   </g>
   <g id="line2d_93">
    <path clip-path="url(#p5666297d48)" d="M 213.021 268.524 
L 213.021 283.824 
L 234.081 268.524 
L 213.021 253.224 
L 213.021 268.524 
" style="fill:none;stroke:#000000;stroke-linecap:round;stroke-width:2;"/>
   </g>
   <g id="line2d_94">
    <path clip-path="url(#p5666297d48)" d="M 234.081 268.524 
L 245.421 268.524 
" style="fill:none;stroke:#000000;stroke-linecap:round;stroke-width:2;"/>
   </g>
   <g id="line2d_95">
    <path clip-path="url(#p5666297d48)" d="M 169.281 268.524 
L 201.681 268.524 
L 213.021 268.524 
M 234.081 268.524 
L 266.481 268.524 
" style="fill:none;stroke:#000000;stroke-linecap:round;stroke-width:2;"/>
   </g>
   <g id="line2d_96">
    <path clip-path="url(#p5666297d48)" d="M 338.733 268.524 
L 338.733 283.824 
L 359.793 268.524 
L 338.733 253.224 
L 338.733 268.524 
" style="fill:none;stroke:#000000;stroke-linecap:round;stroke-width:2;"/>
   </g>
   <g id="line2d_97">
    <path clip-path="url(#p5666297d48)" d="M 367.569 268.524 
L 371.133 268.524 
" style="fill:none;stroke:#000000;stroke-linecap:round;stroke-width:2;"/>
   </g>
   <g id="line2d_98">
    <path clip-path="url(#p5666297d48)" d="M 298.881 268.524 
L 327.393 268.524 
L 338.733 268.524 
M 367.569 268.524 
L 396.081 268.524 
" style="fill:none;stroke:#000000;stroke-linecap:round;stroke-width:2;"/>
   </g>
   <g id="line2d_99">
    <path clip-path="url(#p5666297d48)" d="M 468.333 268.524 
L 468.333 283.824 
L 489.393 268.524 
L 468.333 253.224 
L 468.333 268.524 
" style="fill:none;stroke:#000000;stroke-linecap:round;stroke-width:2;"/>
   </g>
   <g id="line2d_100">
    <path clip-path="url(#p5666297d48)" d="M 497.169 268.524 
L 500.733 268.524 
" style="fill:none;stroke:#000000;stroke-linecap:round;stroke-width:2;"/>
   </g>
   <g id="line2d_101">
    <path clip-path="url(#p5666297d48)" d="M 428.481 268.524 
L 456.993 268.524 
L 460.557 268.524 
M 497.169 268.524 
L 525.681 268.524 
" style="fill:none;stroke:#000000;stroke-linecap:round;stroke-width:2;"/>
   </g>
   <g id="text_1">
    <!-- AND2 -->
    <g transform="translate(52.620375 17.85525)scale(0.12 -0.12)">
     <defs>
      <path d="M 34.1875 63.1875 
L 20.796875 26.90625 
L 47.609375 26.90625 
z
M 28.609375 72.90625 
L 39.796875 72.90625 
L 67.578125 0 
L 57.328125 0 
L 50.6875 18.703125 
L 17.828125 18.703125 
L 11.1875 0 
L 0.78125 0 
z
" id="DejaVuSans-65"/>
      <path d="M 9.8125 72.90625 
L 23.09375 72.90625 
L 55.421875 11.921875 
L 55.421875 72.90625 
L 64.984375 72.90625 
L 64.984375 0 
L 51.703125 0 
L 19.390625 60.984375 
L 19.390625 0 
L 9.8125 0 
z
" id="DejaVuSans-78"/>
      <path d="M 19.671875 64.796875 
L 19.671875 8.109375 
L 31.59375 8.109375 
Q 46.6875 8.109375 53.6875 14.9375 
Q 60.6875 21.78125 60.6875 36.53125 
Q 60.6875 51.171875 53.6875 57.984375 
Q 46.6875 64.796875 31.59375 64.796875 
z
M 9.8125 72.90625 
L 30.078125 72.90625 
Q 51.265625 72.90625 61.171875 64.09375 
Q 71.09375 55.28125 71.09375 36.53125 
Q 71.09375 17.671875 61.125 8.828125 
Q 51.171875 0 30.078125 0 
L 9.8125 0 
z
" id="DejaVuSans-68"/>
      <path d="M 19.1875 8.296875 
L 53.609375 8.296875 
L 53.609375 0 
L 7.328125 0 
L 7.328125 8.296875 
Q 12.9375 14.109375 22.625 23.890625 
Q 32.328125 33.6875 34.8125 36.53125 
Q 39.546875 41.84375 41.421875 45.53125 
Q 43.3125 49.21875 43.3125 52.78125 
Q 43.3125 58.59375 39.234375 62.25 
Q 35.15625 65.921875 28.609375 65.921875 
Q 23.96875 65.921875 18.8125 64.3125 
Q 13.671875 62.703125 7.8125 59.421875 
L 7.8125 69.390625 
Q 13.765625 71.78125 18.9375 73 
Q 24.125 74.21875 28.421875 74.21875 
Q 39.75 74.21875 46.484375 68.546875 
Q 53.21875 62.890625 53.21875 53.421875 
Q 53.21875 48.921875 51.53125 44.890625 
Q 49.859375 40.875 45.40625 35.40625 
Q 44.1875 33.984375 37.640625 27.21875 
Q 31.109375 20.453125 19.1875 8.296875 
z
" id="DejaVuSans-50"/>
     </defs>
     <use xlink:href="#DejaVuSans-65"/>
     <use x="68.408203" xlink:href="#DejaVuSans-78"/>
     <use x="143.212891" xlink:href="#DejaVuSans-68"/>
     <use x="220.214844" xlink:href="#DejaVuSans-50"/>
    </g>
   </g>
   <g id="text_2">
    <!-- NAND2 -->
    <g transform="translate(177.731625 17.85525)scale(0.12 -0.12)">
     <use xlink:href="#DejaVuSans-78"/>
     <use x="74.804688" xlink:href="#DejaVuSans-65"/>
     <use x="143.212891" xlink:href="#DejaVuSans-78"/>
     <use x="218.017578" xlink:href="#DejaVuSans-68"/>
     <use x="295.019531" xlink:href="#DejaVuSans-50"/>
    </g>
   </g>
   <g id="text_3">
    <!-- OR2 -->
    <g transform="translate(316.951312 17.85525)scale(0.12 -0.12)">
     <defs>
      <path d="M 39.40625 66.21875 
Q 28.65625 66.21875 22.328125 58.203125 
Q 16.015625 50.203125 16.015625 36.375 
Q 16.015625 22.609375 22.328125 14.59375 
Q 28.65625 6.59375 39.40625 6.59375 
Q 50.140625 6.59375 56.421875 14.59375 
Q 62.703125 22.609375 62.703125 36.375 
Q 62.703125 50.203125 56.421875 58.203125 
Q 50.140625 66.21875 39.40625 66.21875 
z
M 39.40625 74.21875 
Q 54.734375 74.21875 63.90625 63.9375 
Q 73.09375 53.65625 73.09375 36.375 
Q 73.09375 19.140625 63.90625 8.859375 
Q 54.734375 -1.421875 39.40625 -1.421875 
Q 24.03125 -1.421875 14.8125 8.828125 
Q 5.609375 19.09375 5.609375 36.375 
Q 5.609375 53.65625 14.8125 63.9375 
Q 24.03125 74.21875 39.40625 74.21875 
z
" id="DejaVuSans-79"/>
      <path d="M 44.390625 34.1875 
Q 47.5625 33.109375 50.5625 29.59375 
Q 53.5625 26.078125 56.59375 19.921875 
L 66.609375 0 
L 56 0 
L 46.6875 18.703125 
Q 43.0625 26.03125 39.671875 28.421875 
Q 36.28125 30.8125 30.421875 30.8125 
L 19.671875 30.8125 
L 19.671875 0 
L 9.8125 0 
L 9.8125 72.90625 
L 32.078125 72.90625 
Q 44.578125 72.90625 50.734375 67.671875 
Q 56.890625 62.453125 56.890625 51.90625 
Q 56.890625 45.015625 53.6875 40.46875 
Q 50.484375 35.9375 44.390625 34.1875 
z
M 19.671875 64.796875 
L 19.671875 38.921875 
L 32.078125 38.921875 
Q 39.203125 38.921875 42.84375 42.21875 
Q 46.484375 45.515625 46.484375 51.90625 
Q 46.484375 58.296875 42.84375 61.546875 
Q 39.203125 64.796875 32.078125 64.796875 
z
" id="DejaVuSans-82"/>
     </defs>
     <use xlink:href="#DejaVuSans-79"/>
     <use x="78.710938" xlink:href="#DejaVuSans-82"/>
     <use x="148.193359" xlink:href="#DejaVuSans-50"/>
    </g>
   </g>
   <g id="text_4">
    <!-- NOR2 -->
    <g transform="translate(442.062562 17.85525)scale(0.12 -0.12)">
     <use xlink:href="#DejaVuSans-78"/>
     <use x="74.804688" xlink:href="#DejaVuSans-79"/>
     <use x="153.515625" xlink:href="#DejaVuSans-82"/>
     <use x="222.998047" xlink:href="#DejaVuSans-50"/>
    </g>
   </g>
   <g id="text_5">
    <!-- XOR2 -->
    <g transform="translate(574.853812 17.85525)scale(0.12 -0.12)">
     <defs>
      <path d="M 6.296875 72.90625 
L 16.890625 72.90625 
L 35.015625 45.796875 
L 53.21875 72.90625 
L 63.8125 72.90625 
L 40.375 37.890625 
L 65.375 0 
L 54.78125 0 
L 34.28125 31 
L 13.625 0 
L 2.984375 0 
L 29 38.921875 
z
" id="DejaVuSans-88"/>
     </defs>
     <use xlink:href="#DejaVuSans-88"/>
     <use x="62.130859" xlink:href="#DejaVuSans-79"/>
     <use x="140.841797" xlink:href="#DejaVuSans-82"/>
     <use x="210.324219" xlink:href="#DejaVuSans-50"/>
    </g>
   </g>
   <g id="text_6">
    <!-- XNOR2 -->
    <g transform="translate(51.582563 94.35525)scale(0.12 -0.12)">
     <use xlink:href="#DejaVuSans-88"/>
     <use x="68.505859" xlink:href="#DejaVuSans-78"/>
     <use x="143.310547" xlink:href="#DejaVuSans-79"/>
     <use x="222.021484" xlink:href="#DejaVuSans-82"/>
     <use x="291.503906" xlink:href="#DejaVuSans-50"/>
    </g>
   </g>
   <g id="text_7">
    <!-- AND3 -->
    <g transform="translate(182.220375 94.35525)scale(0.12 -0.12)">
     <defs>
      <path d="M 40.578125 39.3125 
Q 47.65625 37.796875 51.625 33 
Q 55.609375 28.21875 55.609375 21.1875 
Q 55.609375 10.40625 48.1875 4.484375 
Q 40.765625 -1.421875 27.09375 -1.421875 
Q 22.515625 -1.421875 17.65625 -0.515625 
Q 12.796875 0.390625 7.625 2.203125 
L 7.625 11.71875 
Q 11.71875 9.328125 16.59375 8.109375 
Q 21.484375 6.890625 26.8125 6.890625 
Q 36.078125 6.890625 40.9375 10.546875 
Q 45.796875 14.203125 45.796875 21.1875 
Q 45.796875 27.640625 41.28125 31.265625 
Q 36.765625 34.90625 28.71875 34.90625 
L 20.21875 34.90625 
L 20.21875 43.015625 
L 29.109375 43.015625 
Q 36.375 43.015625 40.234375 45.921875 
Q 44.09375 48.828125 44.09375 54.296875 
Q 44.09375 59.90625 40.109375 62.90625 
Q 36.140625 65.921875 28.71875 65.921875 
Q 24.65625 65.921875 20.015625 65.03125 
Q 15.375 64.15625 9.8125 62.3125 
L 9.8125 71.09375 
Q 15.4375 72.65625 20.34375 73.4375 
Q 25.25 74.21875 29.59375 74.21875 
Q 40.828125 74.21875 47.359375 69.109375 
Q 53.90625 64.015625 53.90625 55.328125 
Q 53.90625 49.265625 50.4375 45.09375 
Q 46.96875 40.921875 40.578125 39.3125 
z
" id="DejaVuSans-51"/>
     </defs>
     <use xlink:href="#DejaVuSans-65"/>
     <use x="68.408203" xlink:href="#DejaVuSans-78"/>
     <use x="143.212891" xlink:href="#DejaVuSans-68"/>
     <use x="220.214844" xlink:href="#DejaVuSans-51"/>
    </g>
   </g>
   <g id="text_8">
    <!-- NAND3 -->
    <g transform="translate(307.331625 94.35525)scale(0.12 -0.12)">
     <use xlink:href="#DejaVuSans-78"/>
     <use x="74.804688" xlink:href="#DejaVuSans-65"/>
     <use x="143.212891" xlink:href="#DejaVuSans-78"/>
     <use x="218.017578" xlink:href="#DejaVuSans-68"/>
     <use x="295.019531" xlink:href="#DejaVuSans-51"/>
    </g>
   </g>
   <g id="text_9">
    <!-- OR3 -->
    <g transform="translate(446.551312 94.35525)scale(0.12 -0.12)">
     <use xlink:href="#DejaVuSans-79"/>
     <use x="78.710938" xlink:href="#DejaVuSans-82"/>
     <use x="148.193359" xlink:href="#DejaVuSans-51"/>
    </g>
   </g>
   <g id="text_10">
    <!-- NOR3 -->
    <g transform="translate(571.662562 94.35525)scale(0.12 -0.12)">
     <use xlink:href="#DejaVuSans-78"/>
     <use x="74.804688" xlink:href="#DejaVuSans-79"/>
     <use x="153.515625" xlink:href="#DejaVuSans-82"/>
     <use x="222.998047" xlink:href="#DejaVuSans-51"/>
    </g>
   </g>
   <g id="text_11">
    <!-- XOR3 -->
    <g transform="translate(56.453813 170.85525)scale(0.12 -0.12)">
     <use xlink:href="#DejaVuSans-88"/>
     <use x="62.130859" xlink:href="#DejaVuSans-79"/>
     <use x="140.841797" xlink:href="#DejaVuSans-82"/>
     <use x="210.324219" xlink:href="#DejaVuSans-51"/>
    </g>
   </g>
   <g id="text_12">
    <!-- XNOR3 -->
    <g transform="translate(181.182563 170.85525)scale(0.12 -0.12)">
     <use xlink:href="#DejaVuSans-88"/>
     <use x="68.505859" xlink:href="#DejaVuSans-78"/>
     <use x="143.310547" xlink:href="#DejaVuSans-79"/>
     <use x="222.021484" xlink:href="#DejaVuSans-82"/>
     <use x="291.503906" xlink:href="#DejaVuSans-51"/>
    </g>
   </g>
   <g id="text_13">
    <!-- OR4 -->
    <g transform="translate(316.951312 170.85525)scale(0.12 -0.12)">
     <defs>
      <path d="M 37.796875 64.3125 
L 12.890625 25.390625 
L 37.796875 25.390625 
z
M 35.203125 72.90625 
L 47.609375 72.90625 
L 47.609375 25.390625 
L 58.015625 25.390625 
L 58.015625 17.1875 
L 47.609375 17.1875 
L 47.609375 0 
L 37.796875 0 
L 37.796875 17.1875 
L 4.890625 17.1875 
L 4.890625 26.703125 
z
" id="DejaVuSans-52"/>
     </defs>
     <use xlink:href="#DejaVuSans-79"/>
     <use x="78.710938" xlink:href="#DejaVuSans-82"/>
     <use x="148.193359" xlink:href="#DejaVuSans-52"/>
    </g>
   </g>
   <g id="text_14">
    <!-- NOR4 -->
    <g transform="translate(442.062562 170.85525)scale(0.12 -0.12)">
     <use xlink:href="#DejaVuSans-78"/>
     <use x="74.804688" xlink:href="#DejaVuSans-79"/>
     <use x="153.515625" xlink:href="#DejaVuSans-82"/>
     <use x="222.998047" xlink:href="#DejaVuSans-52"/>
    </g>
   </g>
   <g id="text_15">
    <!-- XOR4 -->
    <g transform="translate(574.853812 170.85525)scale(0.12 -0.12)">
     <use xlink:href="#DejaVuSans-88"/>
     <use x="62.130859" xlink:href="#DejaVuSans-79"/>
     <use x="140.841797" xlink:href="#DejaVuSans-82"/>
     <use x="210.324219" xlink:href="#DejaVuSans-52"/>
    </g>
   </g>
   <g id="text_16">
    <!-- XNOR4 -->
    <g transform="translate(51.582563 247.35525)scale(0.12 -0.12)">
     <use xlink:href="#DejaVuSans-88"/>
     <use x="68.505859" xlink:href="#DejaVuSans-78"/>
     <use x="143.310547" xlink:href="#DejaVuSans-79"/>
     <use x="222.021484" xlink:href="#DejaVuSans-82"/>
     <use x="291.503906" xlink:href="#DejaVuSans-52"/>
    </g>
   </g>
   <g id="text_17">
    <!-- BUF -->
    <g transform="translate(205.92225 247.35525)scale(0.12 -0.12)">
     <defs>
      <path d="M 19.671875 34.8125 
L 19.671875 8.109375 
L 35.5 8.109375 
Q 43.453125 8.109375 47.28125 11.40625 
Q 51.125 14.703125 51.125 21.484375 
Q 51.125 28.328125 47.28125 31.5625 
Q 43.453125 34.8125 35.5 34.8125 
z
M 19.671875 64.796875 
L 19.671875 42.828125 
L 34.28125 42.828125 
Q 41.5 42.828125 45.03125 45.53125 
Q 48.578125 48.25 48.578125 53.8125 
Q 48.578125 59.328125 45.03125 62.0625 
Q 41.5 64.796875 34.28125 64.796875 
z
M 9.8125 72.90625 
L 35.015625 72.90625 
Q 46.296875 72.90625 52.390625 68.21875 
Q 58.5 63.53125 58.5 54.890625 
Q 58.5 48.1875 55.375 44.234375 
Q 52.25 40.28125 46.1875 39.3125 
Q 53.46875 37.75 57.5 32.78125 
Q 61.53125 27.828125 61.53125 20.40625 
Q 61.53125 10.640625 54.890625 5.3125 
Q 48.25 0 35.984375 0 
L 9.8125 0 
z
" id="DejaVuSans-66"/>
      <path d="M 8.6875 72.90625 
L 18.609375 72.90625 
L 18.609375 28.609375 
Q 18.609375 16.890625 22.84375 11.734375 
Q 27.09375 6.59375 36.625 6.59375 
Q 46.09375 6.59375 50.34375 11.734375 
Q 54.59375 16.890625 54.59375 28.609375 
L 54.59375 72.90625 
L 64.5 72.90625 
L 64.5 27.390625 
Q 64.5 13.140625 57.4375 5.859375 
Q 50.390625 -1.421875 36.625 -1.421875 
Q 22.796875 -1.421875 15.734375 5.859375 
Q 8.6875 13.140625 8.6875 27.390625 
z
" id="DejaVuSans-85"/>
      <path d="M 9.8125 72.90625 
L 51.703125 72.90625 
L 51.703125 64.59375 
L 19.671875 64.59375 
L 19.671875 43.109375 
L 48.578125 43.109375 
L 48.578125 34.8125 
L 19.671875 34.8125 
L 19.671875 0 
L 9.8125 0 
z
" id="DejaVuSans-70"/>
     </defs>
     <use xlink:href="#DejaVuSans-66"/>
     <use x="68.603516" xlink:href="#DejaVuSans-85"/>
     <use x="141.796875" xlink:href="#DejaVuSans-70"/>
    </g>
   </g>
   <g id="text_18">
    <!-- NOT -->
    <g transform="translate(334.604438 247.35525)scale(0.12 -0.12)">
     <defs>
      <path d="M -0.296875 72.90625 
L 61.375 72.90625 
L 61.375 64.59375 
L 35.5 64.59375 
L 35.5 0 
L 25.59375 0 
L 25.59375 64.59375 
L -0.296875 64.59375 
z
" id="DejaVuSans-84"/>
     </defs>
     <use xlink:href="#DejaVuSans-78"/>
     <use x="74.804688" xlink:href="#DejaVuSans-79"/>
     <use x="153.515625" xlink:href="#DejaVuSans-84"/>
    </g>
   </g>
   <g id="text_19">
    <!-- NOTNOT -->
    <g transform="translate(451.327875 247.35525)scale(0.12 -0.12)">
     <use xlink:href="#DejaVuSans-78"/>
     <use x="74.804688" xlink:href="#DejaVuSans-79"/>
     <use x="153.515625" xlink:href="#DejaVuSans-84"/>
     <use x="214.599609" xlink:href="#DejaVuSans-78"/>
     <use x="289.404297" xlink:href="#DejaVuSans-79"/>
     <use x="368.115234" xlink:href="#DejaVuSans-84"/>
    </g>
   </g>
  </g>
 </g>
 <defs>
  <clipPath id="p5666297d48">
   <rect height="302.328" width="649.782" x="7.2" y="7.2"/>
  </clipPath>
 </defs>
</svg>
