<?xml version="1.0" encoding="UTF-8" standalone="no"?>
<svg
   xmlns:dc="http://purl.org/dc/elements/1.1/"
   xmlns:cc="http://creativecommons.org/ns#"
   xmlns:rdf="http://www.w3.org/1999/02/22-rdf-syntax-ns#"
   xmlns:svg="http://www.w3.org/2000/svg"
   xmlns="http://www.w3.org/2000/svg"
   xmlns:sodipodi="http://sodipodi.sourceforge.net/DTD/sodipodi-0.dtd"
   xmlns:inkscape="http://www.inkscape.org/namespaces/inkscape"
   width="179.90471"
   height="106.3714"
   viewBox="0 0 179.90471 106.3714"
   version="1.1"
   id="svg4238"
   inkscape:version="1.0.1 (3bc2e813f5, 2020-09-07)"
   sodipodi:docname="tri_tristateBuffer.svg"
   inkscape:export-filename="D:\sitesVSCode\2020\new\topics\content\images\gates_mlExample3.png"
   inkscape:export-xdpi="200"
   inkscape:export-ydpi="200"><rect width="100%" height="100%" fill="white"/>
  <defs
     id="defs4232" />
  <sodipodi:namedview
     id="base"
     pagecolor="#ffffff"
     bordercolor="#bc20b2"
     borderopacity="1"
     inkscape:pageopacity="0.50196078"
     inkscape:pageshadow="2"
     inkscape:zoom="5.6568542"
     inkscape:cx="114.81288"
     inkscape:cy="78.992986"
     inkscape:document-units="px"
     inkscape:current-layer="layer1"
     inkscape:document-rotation="0"
     showgrid="true"
     inkscape:window-width="2157"
     inkscape:window-height="1228"
     inkscape:window-x="116"
     inkscape:window-y="359"
     inkscape:window-maximized="0"
     fit-margin-top="1"
     fit-margin-left="1"
     fit-margin-right="1"
     fit-margin-bottom="1"
     inkscape:pagecheckerboard="true"
     showborder="true"
     inkscape:showpageshadow="true">
    <inkscape:grid
       type="xygrid"
       id="grid4875"
       originx="1.175782"
       originy="-1.8828125" />
  </sodipodi:namedview>
  <metadata
     id="metadata4235">
    <rdf:RDF>
      <cc:Work
         rdf:about="">
        <dc:format>image/svg+xml</dc:format>
        <dc:type
           rdf:resource="http://purl.org/dc/dcmitype/StillImage" />
        <dc:title></dc:title>
      </cc:Work>
    </rdf:RDF>
  </metadata>
  <g
     inkscape:label="Layer 1"
     inkscape:groupmode="layer"
     id="layer1"
     transform="matrix(1.5,0,0,1.5,1.175782,-1.8828125)">
    <g
       id="g4266-96-2"
       transform="translate(30.269947,20.185379)">
      <path
         style="fill:#ffffff;stroke:#000000;stroke-width:2;stroke-linecap:square"
         d="M 35,0 H 50"
         id="path4074-4-9-23-4" />
      <path
         style="fill:#ffffff;stroke:#000000;stroke-width:2;stroke-linecap:square"
         d="M 0,0 H 15"
         id="path4072-2-22-3" />
      <path
         style="fill:#ffffff;fill-opacity:1;stroke:#000000;stroke-width:2;stroke-linecap:round;stroke-miterlimit:4;stroke-dasharray:none"
         d="M 15,-10 V 10 L 35,0 Z"
         id="path5268-3" />
      <path
         style="fill:none;stroke:#000000;stroke-width:2;stroke-linecap:square;stroke-miterlimit:4;stroke-dasharray:none"
         d="m 25,6 v 9"
         id="path1095"
         sodipodi:nodetypes="cc" />
    </g>
    <g
       aria-label="input"
       id="text1954"
       style="font-style:normal;font-variant:normal;font-weight:normal;font-stretch:normal;font-size:16px;line-height:1.25;font-family:Roboto;-inkscape-font-specification:Roboto;fill:#000000;fill-opacity:1;stroke:none"
       transform="translate(-44.730053,-54.814621)">
      <path
         d="m 46.175365,68.267746 h -1.445312 v -8.453125 h 1.445312 z m -1.5625,-10.695313 q 0,-0.351562 0.210938,-0.59375 0.21875,-0.242187 0.640625,-0.242187 0.421875,0 0.640625,0.242187 0.21875,0.242188 0.21875,0.59375 0,0.351563 -0.21875,0.585938 -0.21875,0.234375 -0.640625,0.234375 -0.421875,0 -0.640625,-0.234375 -0.210938,-0.234375 -0.210938,-0.585938 z"
         style="font-style:normal;font-variant:normal;font-weight:normal;font-stretch:normal;font-size:16px;font-family:Roboto;-inkscape-font-specification:Roboto"
         id="path2730" />
      <path
         d="m 49.855053,59.814621 0.04687,1.0625 q 0.96875,-1.21875 2.53125,-1.21875 2.679687,0 2.703125,3.023437 v 5.585938 H 53.69099 v -5.59375 q -0.0078,-0.914063 -0.421875,-1.351563 -0.40625,-0.4375 -1.273437,-0.4375 -0.703125,0 -1.234375,0.375 -0.53125,0.375 -0.828125,0.984375 v 6.023438 h -1.445313 v -8.453125 z"
         style="font-style:normal;font-variant:normal;font-weight:normal;font-stretch:normal;font-size:16px;font-family:Roboto;-inkscape-font-specification:Roboto"
         id="path2732" />
      <path
         d="m 64.456615,64.134933 q 0,1.929688 -0.882812,3.109375 -0.882813,1.179688 -2.390625,1.179688 -1.539063,0 -2.421875,-0.976563 v 4.070313 H 57.31599 V 59.814621 h 1.320313 l 0.07031,0.9375 q 0.882813,-1.09375 2.453125,-1.09375 1.523438,0 2.40625,1.148437 0.890625,1.148438 0.890625,3.195313 z m -1.445312,-0.164062 q 0,-1.429688 -0.609375,-2.257813 -0.609375,-0.828125 -1.671875,-0.828125 -1.3125,0 -1.96875,1.164063 v 4.039062 q 0.648437,1.15625 1.984375,1.15625 1.039062,0 1.648437,-0.820312 0.617188,-0.828125 0.617188,-2.453125 z"
         style="font-style:normal;font-variant:normal;font-weight:normal;font-stretch:normal;font-size:16px;font-family:Roboto;-inkscape-font-specification:Roboto"
         id="path2734" />
      <path
         d="m 71.511303,67.431808 q -0.84375,0.992188 -2.476563,0.992188 -1.351562,0 -2.0625,-0.78125 -0.703125,-0.789063 -0.710937,-2.328125 v -5.5 h 1.445312 v 5.460937 q 0,1.921875 1.5625,1.921875 1.65625,0 2.203125,-1.234375 v -6.148437 h 1.445313 v 8.453125 h -1.375 z"
         style="font-style:normal;font-variant:normal;font-weight:normal;font-stretch:normal;font-size:16px;font-family:Roboto;-inkscape-font-specification:Roboto"
         id="path2736" />
      <path
         d="m 77.073803,57.767746 v 2.046875 h 1.578125 v 1.117187 h -1.578125 v 5.242188 q 0,0.507812 0.210937,0.765625 0.210938,0.25 0.71875,0.25 0.25,0 0.6875,-0.09375 v 1.171875 q -0.570312,0.15625 -1.109375,0.15625 -0.96875,0 -1.460937,-0.585938 -0.492188,-0.585937 -0.492188,-1.664062 v -5.242188 h -1.539062 v -1.117187 h 1.539062 v -2.046875 z"
         style="font-style:normal;font-variant:normal;font-weight:normal;font-stretch:normal;font-size:16px;font-family:Roboto;-inkscape-font-specification:Roboto"
         id="path2738" />
    </g>
    <g
       aria-label="output"
       id="text1954-7"
       style="font-style:normal;font-variant:normal;font-weight:normal;font-stretch:normal;font-size:16px;line-height:1.25;font-family:Roboto;-inkscape-font-specification:Roboto;fill:#000000;fill-opacity:1;stroke:none"
       transform="translate(-44.730053,-54.814621)">
      <path
         d="m 118.28632,63.963058 q 0,-1.242187 0.48437,-2.234375 0.49219,-0.992187 1.35938,-1.53125 0.875,-0.539062 1.99218,-0.539062 1.72657,0 2.78907,1.195312 1.07031,1.195313 1.07031,3.179688 v 0.101562 q 0,1.234375 -0.47656,2.21875 -0.46875,0.976563 -1.35157,1.523438 -0.875,0.546875 -2.01562,0.546875 -1.71875,0 -2.78906,-1.195313 -1.0625,-1.195312 -1.0625,-3.164062 z m 1.45312,0.171875 q 0,1.40625 0.64844,2.257813 0.65625,0.851562 1.75,0.851562 1.10156,0 1.75,-0.859375 0.64844,-0.867187 0.64844,-2.421875 0,-1.390625 -0.66407,-2.25 -0.65625,-0.867187 -1.75,-0.867187 -1.07031,0 -1.72656,0.851562 -0.65625,0.851563 -0.65625,2.4375 z"
         style="font-style:normal;font-variant:normal;font-weight:normal;font-stretch:normal;font-size:16px;font-family:Roboto;-inkscape-font-specification:Roboto"
         id="path2741" />
      <path
         d="m 133.01288,67.431808 q -0.84375,0.992188 -2.47656,0.992188 -1.35157,0 -2.0625,-0.78125 -0.70313,-0.789063 -0.71094,-2.328125 v -5.5 h 1.44531 v 5.460937 q 0,1.921875 1.5625,1.921875 1.65625,0 2.20313,-1.234375 v -6.148437 h 1.44531 v 8.453125 h -1.375 z"
         style="font-style:normal;font-variant:normal;font-weight:normal;font-stretch:normal;font-size:16px;font-family:Roboto;-inkscape-font-specification:Roboto"
         id="path2743" />
      <path
         d="m 138.57538,57.767746 v 2.046875 h 1.57812 v 1.117187 h -1.57812 v 5.242188 q 0,0.507812 0.21094,0.765625 0.21093,0.25 0.71875,0.25 0.25,0 0.6875,-0.09375 v 1.171875 q -0.57032,0.15625 -1.10938,0.15625 -0.96875,0 -1.46094,-0.585938 -0.49218,-0.585937 -0.49218,-1.664062 V 60.931808 H 135.591 v -1.117187 h 1.53907 v -2.046875 z"
         style="font-style:normal;font-variant:normal;font-weight:normal;font-stretch:normal;font-size:16px;font-family:Roboto;-inkscape-font-specification:Roboto"
         id="path2745" />
      <path
         d="m 148.98163,64.134933 q 0,1.929688 -0.88281,3.109375 -0.88282,1.179688 -2.39063,1.179688 -1.53906,0 -2.42187,-0.976563 v 4.070313 H 141.841 V 59.814621 h 1.32032 l 0.0703,0.9375 q 0.88281,-1.09375 2.45312,-1.09375 1.52344,0 2.40625,1.148437 0.89063,1.148438 0.89063,3.195313 z m -1.44531,-0.164062 q 0,-1.429688 -0.60938,-2.257813 -0.60937,-0.828125 -1.67187,-0.828125 -1.3125,0 -1.96875,1.164063 v 4.039062 q 0.64843,1.15625 1.98437,1.15625 1.03906,0 1.64844,-0.820312 0.61719,-0.828125 0.61719,-2.453125 z"
         style="font-style:normal;font-variant:normal;font-weight:normal;font-stretch:normal;font-size:16px;font-family:Roboto;-inkscape-font-specification:Roboto"
         id="path2747" />
      <path
         d="m 156.03632,67.431808 q -0.84375,0.992188 -2.47657,0.992188 -1.35156,0 -2.0625,-0.78125 -0.70312,-0.789063 -0.71093,-2.328125 v -5.5 h 1.44531 v 5.460937 q 0,1.921875 1.5625,1.921875 1.65625,0 2.20312,-1.234375 v -6.148437 h 1.44532 v 8.453125 h -1.375 z"
         style="font-style:normal;font-variant:normal;font-weight:normal;font-stretch:normal;font-size:16px;font-family:Roboto;-inkscape-font-specification:Roboto"
         id="path2749" />
      <path
         d="m 161.59882,57.767746 v 2.046875 h 1.57812 v 1.117187 h -1.57812 v 5.242188 q 0,0.507812 0.21093,0.765625 0.21094,0.25 0.71875,0.25 0.25,0 0.6875,-0.09375 v 1.171875 q -0.57031,0.15625 -1.10937,0.15625 -0.96875,0 -1.46094,-0.585938 -0.49219,-0.585937 -0.49219,-1.664062 v -5.242188 h -1.53906 v -1.117187 h 1.53906 v -2.046875 z"
         style="font-style:normal;font-variant:normal;font-weight:normal;font-stretch:normal;font-size:16px;font-family:Roboto;-inkscape-font-specification:Roboto"
         id="path2751" />
    </g>
    <g
       aria-label="output
enable"
       id="text2726"
       style="font-style:normal;font-variant:normal;font-weight:normal;font-stretch:normal;font-size:16px;line-height:1.25;font-family:Roboto;-inkscape-font-specification:Roboto;fill:#000000;fill-opacity:1;stroke:none"
       transform="translate(-44.730053,-54.814621)">
      <path
         d="m 75.937965,101.85649 q 0,-1.24219 0.484375,-2.234374 0.492188,-0.992187 1.359375,-1.53125 0.875,-0.539062 1.992188,-0.539062 1.726562,0 2.789062,1.195312 1.070313,1.195313 1.070313,3.179684 v 0.10157 q 0,1.23437 -0.476563,2.21875 -0.46875,0.97656 -1.351562,1.52343 -0.875,0.54688 -2.015625,0.54688 -1.71875,0 -2.789063,-1.19531 -1.0625,-1.19532 -1.0625,-3.16407 z m 1.453125,0.17188 q 0,1.40625 0.648438,2.25781 0.65625,0.85156 1.75,0.85156 1.101562,0 1.75,-0.85937 0.648437,-0.86719 0.648437,-2.42188 0,-1.39062 -0.664062,-2.249999 -0.65625,-0.867187 -1.75,-0.867187 -1.070313,0 -1.726563,0.851562 -0.65625,0.851564 -0.65625,2.437504 z"
         style="font-style:normal;font-variant:normal;font-weight:normal;font-stretch:normal;font-size:16px;font-family:Roboto;-inkscape-font-specification:Roboto"
         id="path2754" />
      <path
         d="m 90.664528,105.32524 q -0.84375,0.99219 -2.476563,0.99219 -1.351562,0 -2.0625,-0.78125 -0.703125,-0.78906 -0.710937,-2.32813 v -5.499996 h 1.445312 v 5.460936 q 0,1.92188 1.5625,1.92188 1.65625,0 2.203125,-1.23438 v -6.148436 h 1.445313 v 8.453126 h -1.375 z"
         style="font-style:normal;font-variant:normal;font-weight:normal;font-stretch:normal;font-size:16px;font-family:Roboto;-inkscape-font-specification:Roboto"
         id="path2756" />
      <path
         d="m 96.227028,95.661179 v 2.046875 h 1.578125 v 1.117187 h -1.578125 v 5.242189 q 0,0.50781 0.210937,0.76562 0.210938,0.25 0.71875,0.25 0.25,0 0.6875,-0.0937 v 1.17188 q -0.570312,0.15625 -1.109375,0.15625 -0.96875,0 -1.460937,-0.58594 -0.492188,-0.58594 -0.492188,-1.66406 v -5.242189 h -1.539062 v -1.117187 h 1.539062 v -2.046875 z"
         style="font-style:normal;font-variant:normal;font-weight:normal;font-stretch:normal;font-size:16px;font-family:Roboto;-inkscape-font-specification:Roboto"
         id="path2758" />
      <path
         d="m 106.63328,102.02837 q 0,1.92968 -0.88281,3.10937 -0.88282,1.17969 -2.39063,1.17969 -1.53906,0 -2.42187,-0.97656 v 4.07031 H 99.492653 V 97.708054 h 1.320317 l 0.0703,0.9375 q 0.88281,-1.09375 2.45312,-1.09375 1.52344,0 2.40625,1.148437 0.89063,1.148438 0.89063,3.195309 z m -1.44531,-0.16407 q 0,-1.42968 -0.60938,-2.257809 -0.60937,-0.828125 -1.67187,-0.828125 -1.3125,0 -1.96875,1.164063 v 4.039061 q 0.64843,1.15625 1.98437,1.15625 1.03906,0 1.64844,-0.82031 0.61719,-0.82813 0.61719,-2.45313 z"
         style="font-style:normal;font-variant:normal;font-weight:normal;font-stretch:normal;font-size:16px;font-family:Roboto;-inkscape-font-specification:Roboto"
         id="path2760" />
      <path
         d="m 113.68797,105.32524 q -0.84375,0.99219 -2.47657,0.99219 -1.35156,0 -2.0625,-0.78125 -0.70312,-0.78906 -0.71093,-2.32813 v -5.499996 h 1.44531 v 5.460936 q 0,1.92188 1.5625,1.92188 1.65625,0 2.20312,-1.23438 v -6.148436 h 1.44532 v 8.453126 h -1.375 z"
         style="font-style:normal;font-variant:normal;font-weight:normal;font-stretch:normal;font-size:16px;font-family:Roboto;-inkscape-font-specification:Roboto"
         id="path2762" />
      <path
         d="m 119.25047,95.661179 v 2.046875 h 1.57812 v 1.117187 h -1.57812 v 5.242189 q 0,0.50781 0.21093,0.76562 0.21094,0.25 0.71875,0.25 0.25,0 0.6875,-0.0937 v 1.17188 q -0.57031,0.15625 -1.10937,0.15625 -0.96875,0 -1.46094,-0.58594 -0.49219,-0.58594 -0.49219,-1.66406 v -5.242189 h -1.53906 v -1.117187 h 1.53906 v -2.046875 z"
         style="font-style:normal;font-variant:normal;font-weight:normal;font-stretch:normal;font-size:16px;font-family:Roboto;-inkscape-font-specification:Roboto"
         id="path2764" />
      <path
         d="m 79.82859,126.31743 q -1.71875,0 -2.796875,-1.125 -1.078125,-1.13281 -1.078125,-3.02344 v -0.26562 q 0,-1.25782 0.476563,-2.24219 0.484375,-0.99219 1.34375,-1.54688 0.867187,-0.5625 1.875,-0.5625 1.648437,0 2.5625,1.08594 0.914062,1.08594 0.914062,3.10938 v 0.60156 h -5.726562 q 0.03125,1.25 0.726562,2.02344 0.703125,0.76562 1.78125,0.76562 0.765625,0 1.296875,-0.3125 0.53125,-0.3125 0.929688,-0.82812 l 0.882812,0.6875 q -1.0625,1.63281 -3.1875,1.63281 z m -0.179687,-7.57813 q -0.875,0 -1.46875,0.64063 -0.59375,0.63281 -0.734375,1.78125 h 4.234375 v -0.10938 q -0.0625,-1.10156 -0.59375,-1.70312 -0.53125,-0.60938 -1.4375,-0.60938 z"
         style="font-style:normal;font-variant:normal;font-weight:normal;font-stretch:normal;font-size:16px;font-family:Roboto;-inkscape-font-specification:Roboto"
         id="path2766" />
      <path
         d="m 86.164528,117.70805 0.04687,1.0625 q 0.96875,-1.21875 2.53125,-1.21875 2.679687,0 2.703125,3.02344 v 5.58594 H 90.00046 v -5.59375 q -0.0078,-0.91406 -0.421875,-1.35156 -0.40625,-0.4375 -1.273437,-0.4375 -0.703125,0 -1.234375,0.375 -0.53125,0.375 -0.828125,0.98437 v 6.02344 H 84.79734 v -8.45313 z"
         style="font-style:normal;font-variant:normal;font-weight:normal;font-stretch:normal;font-size:16px;font-family:Roboto;-inkscape-font-specification:Roboto"
         id="path2768" />
      <path
         d="m 98.844215,126.16118 q -0.125,-0.25 -0.203125,-0.89063 -1.007812,1.04688 -2.40625,1.04688 -1.25,0 -2.054687,-0.70313 -0.796875,-0.71093 -0.796875,-1.79687 0,-1.32031 1,-2.04688 1.007812,-0.73437 2.828125,-0.73437 h 1.40625 v -0.66406 q 0,-0.75782 -0.453125,-1.20313 -0.453125,-0.45312 -1.335938,-0.45312 -0.773437,0 -1.296875,0.39062 -0.523437,0.39063 -0.523437,0.94531 h -1.453125 q 0,-0.63281 0.445312,-1.21875 0.453125,-0.59375 1.21875,-0.9375 0.773438,-0.34375 1.695313,-0.34375 1.460937,0 2.289062,0.73438 0.82813,0.72656 0.85938,2.00781 v 3.89063 q 0,1.16406 0.29687,1.85156 v 0.125 z m -2.398437,-1.10156 q 0.679687,0 1.289062,-0.35157 0.609375,-0.35156 0.882813,-0.91406 v -1.73437 H 97.48484 q -2.65625,0 -2.65625,1.55468 0,0.67969 0.453125,1.0625 0.453125,0.38282 1.164063,0.38282 z"
         style="font-style:normal;font-variant:normal;font-weight:normal;font-stretch:normal;font-size:16px;font-family:Roboto;-inkscape-font-specification:Roboto"
         id="path2770" />
      <path
         d="m 109.48484,122.02837 q 0,1.9375 -0.89062,3.11718 -0.89063,1.17188 -2.39063,1.17188 -1.60156,0 -2.47656,-1.13281 l -0.0703,0.97656 h -1.32813 v -12 h 1.44531 v 4.47656 q 0.875,-1.08594 2.41407,-1.08594 1.53906,0 2.41406,1.16407 0.88281,1.16406 0.88281,3.1875 z m -1.44531,-0.16407 q 0,-1.47656 -0.57031,-2.28125 -0.57032,-0.80468 -1.64063,-0.80468 -1.42969,0 -2.05469,1.32812 v 3.65625 q 0.66407,1.32813 2.07032,1.32813 1.03906,0 1.61718,-0.80469 0.57813,-0.80469 0.57813,-2.42188 z"
         style="font-style:normal;font-variant:normal;font-weight:normal;font-stretch:normal;font-size:16px;font-family:Roboto;-inkscape-font-specification:Roboto"
         id="path2772" />
      <path
         d="m 112.87547,126.16118 h -1.44532 v -12 h 1.44532 z"
         style="font-style:normal;font-variant:normal;font-weight:normal;font-stretch:normal;font-size:16px;font-family:Roboto;-inkscape-font-specification:Roboto"
         id="path2774" />
      <path
         d="m 118.69578,126.31743 q -1.71875,0 -2.79688,-1.125 -1.07812,-1.13281 -1.07812,-3.02344 v -0.26562 q 0,-1.25782 0.47656,-2.24219 0.48438,-0.99219 1.34375,-1.54688 0.86719,-0.5625 1.875,-0.5625 1.64844,0 2.5625,1.08594 0.91406,1.08594 0.91406,3.10938 v 0.60156 h -5.72656 q 0.0312,1.25 0.72656,2.02344 0.70313,0.76562 1.78125,0.76562 0.76563,0 1.29688,-0.3125 0.53125,-0.3125 0.92969,-0.82812 l 0.88281,0.6875 q -1.0625,1.63281 -3.1875,1.63281 z m -0.17969,-7.57813 q -0.875,0 -1.46875,0.64063 -0.59375,0.63281 -0.73437,1.78125 h 4.23437 v -0.10938 q -0.0625,-1.10156 -0.59375,-1.70312 -0.53125,-0.60938 -1.4375,-0.60938 z"
         style="font-style:normal;font-variant:normal;font-weight:normal;font-stretch:normal;font-size:16px;font-family:Roboto;-inkscape-font-specification:Roboto"
         id="path2776" />
    </g>
  </g>
</svg>
