<?xml version="1.0" encoding="UTF-8" standalone="no"?>
<!DOCTYPE svg PUBLIC "-//W3C//DTD SVG 1.1//EN"
 "http://www.w3.org/Graphics/SVG/1.1/DTD/svg11.dtd">
<!-- Generated by graphviz version 2.43.0 (0)
 -->
<!-- Pages: 1 -->
<svg width="584pt" height="128pt"
 viewBox="0.00 0.00 583.98 128.20" xmlns="http://www.w3.org/2000/svg" xmlns:xlink="http://www.w3.org/1999/xlink">
<g id="graph0" class="graph" transform="scale(1 1) rotate(0) translate(4 124.2)">
<polygon fill="white" stroke="transparent" points="-4,4 -4,-124.2 579.98,-124.2 579.98,4 -4,4"/>
<!-- V1 -->
<g id="node1" class="node">
<title>V1</title>
<ellipse fill="none" stroke="black" cx="21" cy="-56.2" rx="21" ry="21"/>
<text text-anchor="middle" x="21" y="-52.5" font-family="Times,serif" font-size="14.00">V₁</text>
</g>
<!-- V2 -->
<g id="node2" class="node">
<title>V2</title>
<ellipse fill="none" stroke="black" cx="128.59" cy="-94.2" rx="21" ry="21"/>
<text text-anchor="middle" x="128.59" y="-90.5" font-family="Times,serif" font-size="14.00">V₂</text>
</g>
<!-- V1&#45;&gt;V2 -->
<g id="edge1" class="edge">
<title>V1&#45;&gt;V2</title>
<path fill="none" stroke="black" d="M40.88,-62.99C57.17,-68.86 80.94,-77.41 99.47,-84.08"/>
<polygon fill="black" stroke="black" points="98.29,-87.37 108.88,-87.46 100.66,-80.78 98.29,-87.37"/>
<text text-anchor="middle" x="74.8" y="-84" font-family="Times,serif" font-size="14.00">a=2</text>
</g>
<!-- V3 -->
<g id="node3" class="node">
<title>V3</title>
<ellipse fill="none" stroke="black" cx="235.19" cy="-40.2" rx="21" ry="21"/>
<text text-anchor="middle" x="235.19" y="-36.5" font-family="Times,serif" font-size="14.00">V₃</text>
</g>
<!-- V1&#45;&gt;V3 -->
<g id="edge2" class="edge">
<title>V1&#45;&gt;V3</title>
<path fill="none" stroke="black" d="M41.76,-54.53C59.15,-53.07 85.15,-50.93 107.8,-49.2 140.62,-46.69 178.25,-44.04 203.86,-42.27"/>
<polygon fill="black" stroke="black" points="204.32,-45.75 214.05,-41.57 203.84,-38.76 204.32,-45.75"/>
<text text-anchor="middle" x="128.59" y="-53" font-family="Times,serif" font-size="14.00">b=5</text>
</g>
<!-- V2&#45;&gt;V3 -->
<g id="edge3" class="edge">
<title>V2&#45;&gt;V3</title>
<path fill="none" stroke="black" d="M147.26,-84.78C153.59,-81.42 160.8,-77.62 167.39,-74.2 180.42,-67.43 194.95,-60.03 207.11,-53.86"/>
<polygon fill="black" stroke="black" points="208.95,-56.85 216.29,-49.21 205.79,-50.61 208.95,-56.85"/>
<text text-anchor="middle" x="181.89" y="-78" font-family="Times,serif" font-size="14.00">c=1</text>
</g>
<!-- V4 -->
<g id="node4" class="node">
<title>V4</title>
<ellipse fill="none" stroke="black" cx="342.79" cy="-99.2" rx="21" ry="21"/>
<text text-anchor="middle" x="342.79" y="-95.5" font-family="Times,serif" font-size="14.00">V₄</text>
</g>
<!-- V2&#45;&gt;V4 -->
<g id="edge4" class="edge">
<title>V2&#45;&gt;V4</title>
<path fill="none" stroke="black" d="M149.56,-94.67C186.92,-95.55 267.6,-97.45 311.62,-98.49"/>
<polygon fill="black" stroke="black" points="311.64,-101.99 321.72,-98.73 311.81,-94.99 311.64,-101.99"/>
<text text-anchor="middle" x="235.19" y="-100" font-family="Times,serif" font-size="14.00">d=3</text>
</g>
<!-- V3&#45;&gt;V4 -->
<g id="edge5" class="edge">
<title>V3&#45;&gt;V4</title>
<path fill="none" stroke="black" d="M254.34,-48.57C268.18,-55.13 287.58,-64.7 303.99,-74.2 308.08,-76.57 312.34,-79.2 316.46,-81.85"/>
<polygon fill="black" stroke="black" points="314.86,-84.98 325.13,-87.56 318.7,-79.14 314.86,-84.98"/>
<text text-anchor="middle" x="288.99" y="-78" font-family="Times,serif" font-size="14.00">e=3</text>
</g>
<!-- V5 -->
<g id="node5" class="node">
<title>V5</title>
<ellipse fill="none" stroke="black" cx="451.38" cy="-44.2" rx="21" ry="21"/>
<text text-anchor="middle" x="451.38" y="-40.5" font-family="Times,serif" font-size="14.00">V₅</text>
</g>
<!-- V3&#45;&gt;V5 -->
<g id="edge6" class="edge">
<title>V3&#45;&gt;V5</title>
<path fill="none" stroke="black" d="M256.34,-40.57C294.15,-41.28 375.91,-42.81 420.28,-43.64"/>
<polygon fill="black" stroke="black" points="420.38,-47.14 430.44,-43.83 420.51,-40.14 420.38,-47.14"/>
<text text-anchor="middle" x="342.79" y="-47" font-family="Times,serif" font-size="14.00">f=4</text>
</g>
<!-- V6 -->
<g id="node6" class="node">
<title>V6</title>
<ellipse fill="none" stroke="black" cx="554.98" cy="-44.2" rx="21" ry="21"/>
<text text-anchor="middle" x="554.98" y="-40.5" font-family="Times,serif" font-size="14.00">V₆</text>
</g>
<!-- V3&#45;&gt;V6 -->
<g id="edge7" class="edge">
<title>V3&#45;&gt;V6</title>
<path fill="none" stroke="black" d="M255.28,-34.43C295.58,-23.05 392.23,0 472.18,-14.2 490.87,-17.52 510.9,-24.79 526.46,-31.35"/>
<polygon fill="black" stroke="black" points="525.42,-34.71 535.98,-35.5 528.22,-28.3 525.42,-34.71"/>
<text text-anchor="middle" x="397.09" y="-15" font-family="Times,serif" font-size="14.00">g=1</text>
</g>
<!-- V4&#45;&gt;V5 -->
<g id="edge8" class="edge">
<title>V4&#45;&gt;V5</title>
<path fill="none" stroke="black" d="M360.34,-87.36C366.81,-82.96 374.4,-78.11 381.59,-74.2 394.5,-67.18 409.4,-60.52 422.02,-55.27"/>
<polygon fill="black" stroke="black" points="423.63,-58.39 431.57,-51.37 420.99,-51.91 423.63,-58.39"/>
<text text-anchor="middle" x="397.09" y="-78" font-family="Times,serif" font-size="14.00">h=1</text>
</g>
<!-- V4&#45;&gt;V6 -->
<g id="edge9" class="edge">
<title>V4&#45;&gt;V6</title>
<path fill="none" stroke="black" d="M363.71,-97.01C396.38,-92.98 463.02,-82.96 516.18,-63.2 519.77,-61.87 523.46,-60.29 527.06,-58.62"/>
<polygon fill="black" stroke="black" points="528.83,-61.65 536.27,-54.11 525.75,-55.37 528.83,-61.65"/>
<text text-anchor="middle" x="451.38" y="-91" font-family="Times,serif" font-size="14.00">i=4</text>
</g>
<!-- V5&#45;&gt;V6 -->
<g id="edge10" class="edge">
<title>V5&#45;&gt;V6</title>
<path fill="none" stroke="black" d="M472.46,-44.2C487.07,-44.2 507.11,-44.2 523.67,-44.2"/>
<polygon fill="black" stroke="black" points="523.95,-47.7 533.95,-44.2 523.95,-40.7 523.95,-47.7"/>
<text text-anchor="middle" x="503.18" y="-48" font-family="Times,serif" font-size="14.00">j=1</text>
</g>
</g>
</svg>
